<svg width="24" height="24" fill="none" viewBox="0 0 24 24" stroke-width="1.5" stroke="currentColor" stroke-linecap="round" stroke-linejoin="round" xmlns="http://www.w3.org/2000/svg"><path d="M3 18.562v-6.518C3 7.05 7.03 3 12 3s9 4.05 9 9.044v6.517c0 1.162-.967 2.519-2 2-.835-.42-2.223-.52-3 0-.874.585-2.126.585-3 0-.885-.593-1.649-.57-2.5 0-.874.585-2.126.585-3 0-.777-.52-1.665-.42-2.5 0-1.033.519-2-.838-2-2"/><path d="M9 16c.85-.63 1.885-1 3-1s2.15.37 3 1M8 8l3 1.5m2 0L16 8m-6.5 2.5V10m5 .5V10"/></svg>