<svg width="24" height="24" fill="none" viewBox="0 0 24 24" stroke-width="1.5" stroke="currentColor" stroke-linecap="round" stroke-linejoin="round" xmlns="http://www.w3.org/2000/svg"><path d="M15 6.6V4c0-.545-.456-.998-1-1h-4c-.545 0-1.002.456-1 1v2.6m.52 8.4c-2.3-.251-4.223-.705-6.241-2m11.33 2c2.302-.251 4.094-.705 6.112-2M8.308 21h7.384c3.71 0 4.375-1.449 4.569-3.213l.692-7.2c.25-2.196-.397-3.987-4.338-3.987h-9.23c-3.941 0-4.587 1.791-4.338 3.987l.692 7.2C3.933 19.551 4.598 21 8.308 21m5.003-7.501h-2.5c-1.653.002-1.789 3 0 3h2.5c1.784 0 1.68-3 0-3"/></svg>