<svg width="24" height="24" fill="none" viewBox="0 0 24 24" stroke-width="1.5" stroke="currentColor" stroke-linecap="round" stroke-linejoin="round" xmlns="http://www.w3.org/2000/svg"><path d="M12 16.5v5m0-5-3.199.96c-1.726.518-2.977-.44-4.214-1.47a.5.5 0 0 1 .097-.832l3.068-1.534a.2.2 0 0 0 .052-.32L4.498 9.998c-.373-.373.01-.995.511-.828l5.271 1.757a.2.2 0 0 0 .26-.155L12 2.5l1.46 8.272a.2.2 0 0 0 .26.155l5.27-1.757c.501-.167.885.455.512.828l-3.306 3.306a.2.2 0 0 0 .052.32l3.068 1.534a.5.5 0 0 1 .097.831c-1.237 1.031-2.488 1.989-4.215 1.47z"/></svg>