<svg width="24" height="24" fill="none" viewBox="0 0 24 24" stroke-width="1.5" stroke="currentColor" stroke-linecap="round" stroke-linejoin="round" xmlns="http://www.w3.org/2000/svg"><path d="M7.805 3.469C8.16 3.115 8.451 3 8.937 3h6.126c.486 0 .778.115 1.132.469l4.336 4.336c.354.354.469.646.469 1.132v6.126c0 .5-.125.788-.469 1.132l-4.336 4.336c-.354.354-.646.469-1.132.469H8.937c-.5 0-.788-.125-1.132-.469L3.47 16.195c-.355-.355-.47-.646-.47-1.132V8.937c0-.5.125-.788.469-1.132z"/><path d="M12 12H8.5m0 0H7m1.5 0c0 2 1.565 4 3.75 4 1.209 0 2.126-.267 2.75-.867M8.5 12c0-2 1.25-4 3.75-4 1.209 0 2.126.267 2.75.866"/></svg>