<svg width="24" height="24" fill="none" viewBox="0 0 24 24" stroke-width="1.5" stroke="currentColor" stroke-linecap="round" stroke-linejoin="round" xmlns="http://www.w3.org/2000/svg"><path d="M11 13.75h1v-4m4-.25V8m-7 8.5c1.5 1.5 4.5 1.5 6 0m-7-7V8m1.4 13c-2.24 0-3.36 0-4.216-.436a4 4 0 0 1-1.748-1.748C3 17.96 3 16.84 3 14.6m18 0c0 2.24 0 3.36-.436 4.216a4 4 0 0 1-1.748 1.748C17.96 21 16.84 21 14.6 21m0-18c2.24 0 3.36 0 4.216.436a4 4 0 0 1 1.748 1.748C21 6.04 21 7.16 21 9.4M9.4 3c-2.24 0-3.36 0-4.216.436a4 4 0 0 0-1.748 1.748C3 6.04 3 7.16 3 9.4"/></svg>