<svg width="24" height="24" fill="none" viewBox="0 0 24 24" stroke-width="1.5" stroke="currentColor" stroke-linecap="round" stroke-linejoin="round" xmlns="http://www.w3.org/2000/svg"><path d="M5 21.093c4.46-2.23 9.12-3.955 14-5"/><path d="M19 21.093c-4.47-2.236-9.104-3.951-14-5m7-1.012c2.133-.141 4.5-1.489 5-3.988.392-1.962-.039-5.63-2-5.518-.342.02-.736.164-1.184.468-1.197.81-1.55-1.269-1.816-1.966-1-2.614-2.322-1.773-3.624 1.016-.817 1.75-1.587 4.06-1.323 6.048.322 2.425 2.518 4.102 4.947 3.94"/><path d="M11.985 12.788c.847-.056 1.787-.591 1.985-1.584.501-2.504-1.429-1.33-1.985-2.785-.397-1.038-.922-.704-1.439.403-.668 1.432-.928 4.123 1.44 3.966"/></svg>