<svg width="24" height="24" fill="none" viewBox="0 0 24 24" stroke-width="1.5" stroke="currentColor" stroke-linecap="round" stroke-linejoin="round" xmlns="http://www.w3.org/2000/svg"><path d="M3.25 13h3.68a2 2 0 0 1 1.664.89l.812 1.22a2 2 0 0 0 1.664.89h1.86a2 2 0 0 0 1.664-.89l.812-1.22A2 2 0 0 1 17.07 13h3.68"/><path d="m5.45 4.11-2.162 7.847A8 8 0 0 0 3 14.082V19a2 2 0 0 0 2 2h14a2 2 0 0 0 2-2v-4.918a8 8 0 0 0-.288-2.125L18.55 4.11A2 2 0 0 0 16.76 3H7.24a2 2 0 0 0-1.79 1.11M10.5 7l3 3m0-3-3 3"/></svg>