<svg width="24" height="24" fill="none" viewBox="0 0 24 24" stroke-width="1.5" stroke="currentColor" stroke-linecap="round" stroke-linejoin="round" xmlns="http://www.w3.org/2000/svg"><path d="M19.4 12c.56 0 .84 0 1.054-.109a1 1 0 0 0 .437-.437C21 11.24 21 10.96 21 10.4V8.2c0-.56 0-.84-.109-1.054a1 1 0 0 0-.437-.437C20.24 6.6 19.96 6.6 19.4 6.6h-1.55a.9.9 0 0 1-.9-.9 2.7 2.7 0 1 0-5.4 0 .9.9 0 0 1-.9.9H9.1c-.56 0-.84 0-1.054.109a1 1 0 0 0-.437.437C7.5 7.36 7.5 7.64 7.5 8.2v2.2c0 .56 0 .84-.109 1.054a1 1 0 0 1-.437.437C6.74 12 6.46 12 5.9 12h-.2a2.7 2.7 0 1 0 0 5.4h.2c.56 0 .84 0 1.054.109a1 1 0 0 1 .437.437c.109.214.109.494.109 1.054v.4c0 .56 0 .84.109 1.054a1 1 0 0 0 .437.437C8.26 21 8.54 21 9.1 21h10.3c.56 0 .84 0 1.054-.109a1 1 0 0 0 .437-.437C21 20.24 21 19.96 21 19.4V19c0-.56 0-.84-.109-1.054a1 1 0 0 0-.437-.437c-.214-.109-.494-.109-1.054-.109h-.2a2.7 2.7 0 1 1 0-5.4z"/></svg>