<svg width="24" height="24" fill="none" viewBox="0 0 24 24" stroke-width="1.5" stroke="currentColor" stroke-linecap="round" stroke-linejoin="round" xmlns="http://www.w3.org/2000/svg"><path d="M3 9.4c0-2.24 0-3.36.436-4.216a4 4 0 0 1 1.748-1.748C6.04 3 7.16 3 9.4 3h5.2c2.24 0 3.36 0 4.216.436a4 4 0 0 1 1.748 1.748C21 6.04 21 7.16 21 9.4v5.2c0 2.24 0 3.36-.436 4.216a4 4 0 0 1-1.748 1.748C17.96 21 16.84 21 14.6 21H9.4c-2.24 0-3.36 0-4.216-.436a4 4 0 0 1-1.748-1.748C3 17.96 3 16.84 3 14.6z"/><path d="M8.008 10.71C7.336 11.256 7 11.53 7 12s.336.743 1.008 1.29c.185.152.37.295.538.413.149.104.316.212.49.318.67.407 1.006.611 1.306.385s.328-.697.383-1.642c.015-.267.025-.53.025-.764 0-.235-.01-.497-.025-.764-.055-.945-.082-1.417-.383-1.642-.3-.226-.635-.022-1.306.385a9 9 0 0 0-.49.318 10 10 0 0 0-.538.412m5.75.001c-.672.547-1.008.821-1.008 1.29s.336.743 1.008 1.29c.185.152.37.295.538.413.149.104.316.212.49.318.67.407 1.006.611 1.306.385s.328-.697.383-1.642c.015-.267.025-.53.025-.764 0-.235-.01-.497-.025-.764-.055-.945-.082-1.417-.383-1.642-.3-.226-.635-.022-1.306.385a9 9 0 0 0-.49.318 10 10 0 0 0-.538.412"/></svg>