<svg width="24" height="24" fill="none" viewBox="0 0 24 24" stroke-width="1.5" stroke="currentColor" stroke-linecap="round" stroke-linejoin="round" xmlns="http://www.w3.org/2000/svg"><path d="M12.854 3.5a.979.979 0 0 0-1.708 0q-.3.546-.577 1.106a27 27 0 0 0-1.48 3.656c-.139.431-.551.73-1.023.743a29.4 29.4 0 0 0-4.267.425c-.774.136-1.065 1.018-.515 1.556q.188.185.38.365a32 32 0 0 0 3.03 2.527c.367.269.518.73.378 1.152a27 27 0 0 0-1.14 4.927c-.1.755.708 1.288 1.41.928a28.6 28.6 0 0 0 3.98-2.472 1.15 1.15 0 0 1 1.356 0 28.5 28.5 0 0 0 3.98 2.472c.701.36 1.51-.173 1.41-.928q-.058-.425-.127-.845a27 27 0 0 0-1.013-4.082c-.14-.422.01-.883.378-1.152a31.5 31.5 0 0 0 3.41-2.892c.55-.538.26-1.42-.515-1.556a29 29 0 0 0-4.267-.425 1.1 1.1 0 0 1-1.023-.743 27 27 0 0 0-2.057-4.761"/></svg>