<svg width="24" height="24" fill="none" viewBox="0 0 24 24" stroke-width="1.5" stroke="currentColor" stroke-linecap="round" stroke-linejoin="round" xmlns="http://www.w3.org/2000/svg"><path d="M19.996 10.621V19a2 2 0 0 1-2 2H6.004a2 2 0 0 1-1.999-2v-8.379M7.502 8.75l.5-5.75m-.5 5.75c0 2.902 4.498 2.902 4.498 0m-4.498 0c0 3.176-5.155 2.52-4.433-.248l1.045-4.007A2 2 0 0 1 6.048 3h11.904a2 2 0 0 1 1.934 1.495l1.045 4.007c.722 2.769-4.433 3.424-4.433.248M12 8.75V3m0 5.75c0 2.902 4.498 2.902 4.498 0m0 0-.5-5.75"/></svg>