<svg width="24" height="24" fill="none" viewBox="0 0 24 24" stroke-width="1.5" stroke="currentColor" stroke-linecap="round" stroke-linejoin="round" xmlns="http://www.w3.org/2000/svg"><path d="M9.155 13.86a.3.3 0 0 1-.114-.116.3.3 0 0 1-.041-.155v-8.66c0-.512-.21-1.002-.586-1.364A2.04 2.04 0 0 0 7 3c-.53 0-1.04.203-1.414.565A1.9 1.9 0 0 0 5 4.929v8.66a.3.3 0 0 1-.041.155.3.3 0 0 1-.114.116 3.97 3.97 0 0 0-1.396 1.493 3.8 3.8 0 0 0-.445 1.965 3.8 3.8 0 0 0 1.266 2.644 4.1 4.1 0 0 0 2.82 1.037 4.07 4.07 0 0 0 2.77-1.16A3.8 3.8 0 0 0 11 17.145c0-.652-.168-1.294-.49-1.867a4 4 0 0 0-1.355-1.417M13.636 3 15 4.333m0 0L16.364 3M15 4.333V7m0 0h-.68a.31.31 0 0 0-.252.104l-.876.876-.088.088a.31.31 0 0 0-.104.251v1.362a.31.31 0 0 0 .104.251l.088.088.876.876a.31.31 0 0 0 .251.104H15m0-4h.68a.31.31 0 0 1 .252.104l.876.876M13.636 15 15 13.667m0 0L16.364 15M15 13.667V11m0 0h.68a.31.31 0 0 0 .252-.104l.876-.876m2.828-5.175-.5 1.822m0 0L21 7.155m-1.864-.488L16.808 7.98M21 10.845l-1.864.488m0 0 .5 1.822m-.5-1.822-2.328-1.313m0-2.04.088.088a.31.31 0 0 1 .104.251v1.362a.31.31 0 0 1-.104.251l-.088.088"/></svg>