<svg width="24" height="24" fill="none" viewBox="0 0 24 24" stroke-width="1.5" stroke="currentColor" stroke-linecap="round" stroke-linejoin="round" xmlns="http://www.w3.org/2000/svg"><path d="M8.05 5.672c-2.42.144-2.671 2.004-2.404 3.387.061.32-.255.637-.527.807-2.36 1.483.716 5.377 1.811 6.34 1.681 1.48 2.844 1.294 5.078 1.294 2.254 0 3.435.17 5.122-1.333 1.242-1.107 4.242-5.275 1.5-6.714-.28-.147-.48-.535-.358-.83.8-1.948-.94-3.044-2.16-3.42a.44.44 0 0 1-.275-.257C14.68 2.09 13.363 2.96 12.128 3.912a.43.43 0 0 1-.5.02C9.18 2.31 8.88 4.036 8.446 5.36a.45.45 0 0 1-.396.312M12 17.5V21"/></svg>