<svg width="24" height="24" fill="none" viewBox="0 0 24 24" stroke-width="1.5" stroke="currentColor" stroke-linecap="round" stroke-linejoin="round" xmlns="http://www.w3.org/2000/svg"><path d="M19.794 16.5A9 9 0 0 1 7.5 19.794M19.794 16.5A9 9 0 0 0 16.5 4.206M19.794 16.5 13.732 13M7.5 19.794A9 9 0 0 1 4.206 7.5M7.5 19.794l3.5-6.062M4.206 7.5A9 9 0 0 1 16.5 4.206M4.206 7.5l6.062 3.5M16.5 4.206 13 10.268M13.732 13a2 2 0 0 1-2.732.732M13.732 13A2 2 0 0 0 13 10.268m-2 3.464A2 2 0 0 1 10.268 11m0 0A2 2 0 0 1 13 10.268m.932 1.214 6.761-1.811m-8.175 4.26 1.811 6.762m-4.26-8.175-6.762 1.811m8.175-4.26L9.671 3.306"/></svg>