<svg width="24" height="24" fill="none" viewBox="0 0 24 24" stroke-width="1.5" stroke="currentColor" stroke-linecap="round" stroke-linejoin="round" xmlns="http://www.w3.org/2000/svg"><path d="M9.917 7.076a.947.947 0 0 1 0 1.326L8.402 9.917a.947.947 0 0 1-1.326 0L4.528 7.37c-.495-.494-1.327-.333-1.446.356a5.682 5.682 0 0 0 6.626 6.554c.82-.15 1.707-.022 2.296.566l5.566 5.567a2.01 2.01 0 1 0 2.842-2.842l-5.567-5.566c-.588-.589-.716-1.477-.566-2.296a5.684 5.684 0 0 0-6.554-6.626c-.689.12-.85.951-.356 1.446z"/></svg>