<svg width="500" height="500" viewBox="0 0 500 500" fill="none" xmlns="http://www.w3.org/2000/svg"><g clip-path="url(#clip0_543_168)"><path fill-rule="evenodd" clip-rule="evenodd" d="M112 0C50.1441 0 0 50.1441 0 112V221.913L78.3658 148.658C139.757 91.2708 239.292 91.2709 300.683 148.658L418.115 258.431C421.497 261.593 421.497 266.958 418.115 270.12L172.196 500H388C449.856 500 500 449.856 500 388V112C500 50.1441 449.856 0 388 0H112Z" fill="black"/><path d="M-117.065 562.577L-129.59 550.869C-190.981 493.482 -190.981 400.438 -129.59 343.051L78.3658 148.658C139.757 91.2708 239.292 91.2709 300.683 148.658L418.115 258.431C421.497 261.593 421.497 266.958 418.115 270.12L105.253 562.577C43.8613 619.965 -55.6736 619.965 -117.065 562.577Z" fill="white"/></g><defs><clipPath id="clip0_543_168"><rect width="500" height="500" rx="112" fill="white"/></clipPath></defs></svg>