<svg width="24" height="24" fill="currentColor" viewBox="0 0 24 24" xmlns="http://www.w3.org/2000/svg"><path fill-rule="evenodd" d="M22 7.75a.75.75 0 0 1 .75.75v5a.75.75 0 0 1-1.5 0v-5a.75.75 0 0 1 .75-.75"/><path d="M14.536 2.82a5.92 5.92 0 0 0-5.072 0l-6.69 3.138C1.72 6.45 1.25 7.522 1.25 8.5c0 .978.471 2.05 1.523 2.543l6.691 3.136a5.92 5.92 0 0 0 5.072 0l6.69-3.137C22.28 10.55 22.75 9.478 22.75 8.5c0-.978-.47-2.05-1.523-2.542z"/><path d="M5.75 11.5a.75.75 0 0 0-1.5 0v5.125c0 1.909 1.527 3.193 3.05 3.953 1.564.78 3.428 1.172 4.7 1.172 1.272 0 3.136-.392 4.7-1.172 1.523-.76 3.05-2.044 3.05-3.953V11.5a.75.75 0 0 0-1.5 0v5.125c0 1.01-.82 1.913-2.22 2.61-1.36.679-2.996 1.015-4.03 1.015-1.034 0-2.67-.336-4.03-1.014-1.4-.698-2.22-1.601-2.22-2.61z"/></svg>