<svg width="24" height="24" fill="currentColor" viewBox="0 0 24 24" xmlns="http://www.w3.org/2000/svg"><path fill-rule="evenodd" d="m9.302 4.555-.037.136-1.817 6.846a9.328 9.328 0 0 0-.014.051c-.045.175-.11.423-.25.624a1.187 1.187 0 0 1-.913.53c-.095.008-.202.008-.292.008H3a.75.75 0 0 1 0-1.5h2.972l.026-.098 1.825-6.874c.11-.413.202-.763.291-1.021.046-.134.1-.274.17-.4.068-.12.18-.29.372-.414.402-.26.907-.257 1.306.006.19.125.302.295.368.416.069.127.123.267.168.4.087.26.177.61.284 1.024l3.88 15.018.036.138.037-.136 1.817-6.846.014-.051c.045-.175.11-.423.25-.624a1.187 1.187 0 0 1 .913-.53c.095-.008.202-.008.292-.008H21a.75.75 0 0 1 0 1.5h-2.972l-.026.098-1.825 6.874c-.11.413-.202.763-.291 1.021a2.52 2.52 0 0 1-.17.4c-.067.12-.18.29-.372.414-.401.26-.907.257-1.306-.006a1.143 1.143 0 0 1-.368-.416 2.534 2.534 0 0 1-.168-.4c-.087-.26-.177-.61-.284-1.024L9.338 4.693z"/></svg>