<svg width="24" height="24" fill="currentColor" viewBox="0 0 24 24" xmlns="http://www.w3.org/2000/svg"><path d="M3.75 5.654c0-1.043.861-1.904 1.904-1.904h12.692c1.043 0 1.904.861 1.904 1.904v5.77a1.915 1.915 0 0 1-1.904 1.903H5.654a1.915 1.915 0 0 1-1.904-1.904zm12.115 6.173v-1.558a.416.416 0 0 0-.404-.404H8.539a.416.416 0 0 0-.403.404v1.558zM8.538 14.71a.75.75 0 0 1 .75.75c0 .625-.014 1.49-.305 2.205a2.27 2.27 0 0 1-.778 1.02c-.388.277-.86.41-1.397.41a.75.75 0 1 1 0-1.5c.283 0 .437-.067.527-.131.094-.067.183-.177.258-.363.165-.406.195-.984.195-1.64a.75.75 0 0 1 .75-.75m3.462 0a.75.75 0 0 1 .75.75V19.5a.75.75 0 0 1-1.5 0v-4.039a.75.75 0 0 1 .75-.75m3.461 0a.75.75 0 0 1 .75.75c0 .657.03 1.235.196 1.641.075.186.164.296.258.363.09.064.244.131.527.131a.75.75 0 0 1 0 1.5c-.537 0-1.01-.133-1.397-.41a2.27 2.27 0 0 1-.778-1.02c-.29-.715-.306-1.58-.306-2.205a.75.75 0 0 1 .75-.75"/></svg>