<svg width="24" height="24" fill="currentColor" viewBox="0 0 24 24" xmlns="http://www.w3.org/2000/svg"><path fill-rule="evenodd" d="M10.201 12.179c.31-.277.622-.566.921-.865 1.084-1.083 2.188-2.472 2.188-4.053 0-1.9-1.565-3.511-3.449-3.511-1.867 0-3.42 1.58-3.45 3.458-.18 1.412.318 2.764 1.102 3.989.179.278.374.554.584.826a19.8 19.8 0 0 0-1.158 1.06c-1.585 1.622-1.585 4.309 0 5.93 1.593 1.63 4.268 1.613 5.845 0l1.345-1.421.137.109c1.153.915 2.104 1.684 2.684 2.31a.75.75 0 0 0 1.1-1.021c-.675-.727-1.727-1.572-2.851-2.464l-.035-.028 2.88-3.045a.75.75 0 1 0-1.089-1.031l-2.97 3.139a52.004 52.004 0 0 1-2.34-1.974 24.211 24.211 0 0 1-1.444-1.408m-.34-6.929c-1.028 0-1.95.91-1.95 2.011a.75.75 0 0 1-.007.104c-.13.94.182 1.946.872 3.023.139.216.29.431.454.647.284-.255.565-.515.832-.782 1.076-1.075 1.749-2.076 1.749-2.992 0-1.1-.922-2.011-1.95-2.011m-.792 7.915c-.415.36-.776.679-1.058.967-1.015 1.039-1.015 2.795 0 3.833 1 1.022 2.704 1.015 3.697.004l1.244-1.315a52.422 52.422 0 0 1-2.314-1.954 25.545 25.545 0 0 1-1.569-1.535"/></svg>