<svg width="24" height="24" fill="currentColor" viewBox="0 0 24 24" xmlns="http://www.w3.org/2000/svg"><path fill-rule="evenodd" d="M5.98 12.142c.178-.163.356-.332.528-.506.79-.796 1.65-1.866 1.65-3.111 0-1.495-1.22-2.775-2.714-2.775C3.97 5.75 2.76 7 2.732 8.472c-.136 1.093.249 2.128.831 3.045.101.159.21.316.324.472-.26.228-.51.455-.716.668-1.228 1.266-1.228 3.358 0 4.624 1.24 1.278 3.32 1.265 4.548 0l.85-.906c.819.657 1.478 1.197 1.88 1.633a.75.75 0 0 0 1.103-1.016c-.474-.515-1.192-1.103-1.954-1.714l1.949-2.077a.75.75 0 1 0-1.094-1.027l-2.028 2.162a35.937 35.937 0 0 1-1.544-1.318c-.319-.29-.621-.583-.901-.876M5.444 7.25c-.625 0-1.213.568-1.213 1.275a.75.75 0 0 1-.007.103c-.087.626.117 1.316.605 2.084.06.093.121.186.187.279.146-.136.29-.272.428-.412.78-.786 1.214-1.469 1.214-2.054 0-.707-.589-1.275-1.214-1.275m-.59 5.885a11 11 0 0 0-.606.566c-.664.684-.664 1.851 0 2.536a1.688 1.688 0 0 0 2.39.004l.758-.809a36.716 36.716 0 0 1-1.526-1.306 19.519 19.519 0 0 1-1.016-.99m11.126-.994c.178-.163.356-.332.528-.506.79-.796 1.65-1.866 1.65-3.111 0-1.495-1.22-2.775-2.714-2.775-1.475 0-2.684 1.25-2.712 2.722-.136 1.093.249 2.128.831 3.045.101.159.21.316.324.472-.26.228-.51.455-.716.668-1.228 1.266-1.228 3.358 0 4.624 1.24 1.278 3.32 1.265 4.548 0l.85-.906c.819.657 1.478 1.197 1.88 1.633a.75.75 0 0 0 1.103-1.016c-.474-.515-1.192-1.103-1.954-1.714l1.949-2.077a.75.75 0 1 0-1.094-1.027l-2.028 2.162a35.961 35.961 0 0 1-1.544-1.318 18.34 18.34 0 0 1-.901-.876m-.536-4.892c-.625 0-1.213.568-1.213 1.275a.753.753 0 0 1-.007.103c-.087.626.117 1.316.605 2.084.06.093.121.186.187.279.146-.136.29-.272.428-.412.78-.786 1.214-1.469 1.214-2.054 0-.707-.588-1.275-1.214-1.275m-.59 5.885c-.237.21-.441.396-.606.566-.664.684-.664 1.851 0 2.536a1.688 1.688 0 0 0 2.39.004l.758-.809a36.683 36.683 0 0 1-1.526-1.306 19.54 19.54 0 0 1-1.016-.99"/></svg>