<svg width="24" height="24" fill="currentColor" viewBox="0 0 24 24" xmlns="http://www.w3.org/2000/svg"><path d="M9.451 8.84c0-.584.51-1.09 1.09-1.09.581 0 1.091.506 1.091 1.09 0 .494-.381 1.095-1.116 1.812-.12.117-.244.232-.37.346a6.033 6.033 0 0 1-.147-.214c-.453-.692-.632-1.298-.556-1.837a.749.749 0 0 0 .008-.106m-.006 4.761c.148-.148.33-.31.541-.49.298.303.613.597.932.879.446.394.911.776 1.367 1.137l-.65.672c-.586.58-1.601.584-2.19-.004a1.574 1.574 0 0 1 0-2.194"/><path fill-rule="evenodd" d="M14.633 2.25c1.092 0 1.958 0 2.655.057.714.058 1.317.18 1.869.46a4.75 4.75 0 0 1 2.075 2.077c.281.55.403 1.154.461 1.868.057.697.057 1.563.057 2.655v5.266c0 1.092 0 1.958-.057 2.655-.058.714-.18 1.317-.46 1.869a4.75 4.75 0 0 1-2.076 2.075c-.552.281-1.155.403-1.869.461-.697.057-1.563.057-2.655.057H9.367c-1.092 0-1.958 0-2.655-.057-.714-.058-1.317-.18-1.868-.46a4.75 4.75 0 0 1-2.076-2.076c-.281-.552-.403-1.155-.461-1.869-.057-.697-.057-1.563-.057-2.655V9.367c0-1.092 0-1.958.057-2.655.058-.714.18-1.317.46-1.868a4.75 4.75 0 0 1 2.077-2.076c.55-.281 1.154-.403 1.868-.461.697-.057 1.563-.057 2.655-.057zm-3.069 9.475c-.143.14-.29.276-.436.408.244.245.507.49.783.734.46.407.943.8 1.422 1.178l1.878-1.942a.75.75 0 1 1 1.078 1.043l-1.766 1.826c.688.536 1.337 1.055 1.77 1.512a.75.75 0 1 1-1.087 1.032c-.369-.388-.974-.87-1.732-1.46l-.775.8c-1.167 1.167-3.135 1.18-4.315 0-1.179-1.18-1.179-3.135 0-4.315.18-.18.396-.37.62-.563a7.711 7.711 0 0 1-.26-.372c-.55-.839-.922-1.798-.792-2.82.03-1.392 1.203-2.536 2.59-2.536 1.405 0 2.59 1.174 2.59 2.59 0 1.172-.83 2.165-1.568 2.885M9.451 8.841c0-.585.51-1.091 1.09-1.091.581 0 1.091.506 1.091 1.09 0 .494-.381 1.095-1.116 1.812-.12.117-.244.232-.37.346a6.033 6.033 0 0 1-.147-.214c-.453-.692-.632-1.298-.556-1.837a.749.749 0 0 0 .008-.106m-.006 4.761c.148-.148.33-.31.541-.49.298.303.613.597.932.879.446.394.911.776 1.367 1.137l-.65.672c-.586.58-1.601.584-2.19-.004a1.574 1.574 0 0 1 0-2.194"/></svg>