<svg width="24" height="24" fill="currentColor" viewBox="0 0 24 24" xmlns="http://www.w3.org/2000/svg"><path d="M10.201 12.179c.31-.277.622-.566.921-.865 1.084-1.083 2.188-2.472 2.188-4.053 0-1.9-1.565-3.511-3.449-3.511-1.867 0-3.42 1.58-3.45 3.458-.18 1.412.318 2.764 1.102 3.989q.269.418.584.826a20 20 0 0 0-1.158 1.06c-1.585 1.622-1.585 4.309 0 5.93 1.593 1.63 4.268 1.613 5.845 0l1.345-1.421.137.109c1.153.915 2.104 1.684 2.684 2.31a.75.75 0 0 0 1.1-1.021c-.675-.727-1.727-1.572-2.851-2.464l-.035-.028 2.88-3.045a.75.75 0 1 0-1.089-1.031l-2.97 3.139a52 52 0 0 1-2.34-1.974 24 24 0 0 1-1.444-1.408m-.34-6.929c1.028 0 1.95.91 1.95 2.011 0 .916-.673 1.917-1.75 2.992-.266.267-.547.527-.831.782a10 10 0 0 1-.454-.647c-.69-1.077-1.003-2.083-.872-3.023a1 1 0 0 0 .007-.104c0-1.1.922-2.011 1.95-2.011m-.792 7.915c.493.53 1.025 1.042 1.57 1.535a52 52 0 0 0 2.313 1.954l-1.244 1.315c-.993 1.01-2.697 1.018-3.697-.004-1.015-1.038-1.015-2.794 0-3.833.282-.288.643-.607 1.058-.967"/></svg>