<svg width="24" height="24" fill="currentColor" viewBox="0 0 24 24" xmlns="http://www.w3.org/2000/svg"><path d="M5.98 12.142q.422.44.9.876c.5.455 1.025.895 1.545 1.318l2.028-2.162a.75.75 0 1 1 1.094 1.027l-1.949 2.077c.761.61 1.48 1.2 1.954 1.714a.75.75 0 0 1-1.104 1.016c-.401-.436-1.06-.976-1.88-1.633l-.85.906c-1.226 1.265-3.307 1.278-4.547 0-1.228-1.266-1.228-3.358 0-4.624.206-.213.456-.44.716-.668a9 9 0 0 1-.324-.472c-.582-.917-.967-1.952-.831-3.045C2.76 7 3.969 5.75 5.444 5.75c1.493 0 2.714 1.28 2.714 2.775 0 1.245-.86 2.315-1.65 3.111q-.26.261-.528.506M5.444 7.25c-.625 0-1.213.568-1.213 1.275a1 1 0 0 1-.007.103c-.087.626.117 1.316.605 2.084q.089.14.187.279.22-.203.428-.412c.78-.786 1.214-1.469 1.214-2.054 0-.707-.589-1.275-1.214-1.275m-.59 5.885a11 11 0 0 0-.606.566c-.664.684-.664 1.851 0 2.536a1.69 1.69 0 0 0 2.39.004l.758-.809a37 37 0 0 1-1.526-1.306 20 20 0 0 1-1.016-.99m11.126-.994q.422.44.9.876c.5.455 1.025.895 1.545 1.318l2.028-2.162a.75.75 0 1 1 1.094 1.027l-1.949 2.077c.762.61 1.48 1.2 1.954 1.714a.75.75 0 0 1-1.104 1.016c-.401-.436-1.06-.976-1.88-1.633l-.85.906c-1.226 1.265-3.307 1.278-4.547 0-1.228-1.266-1.228-3.358 0-4.624.206-.213.456-.44.716-.668a9 9 0 0 1-.324-.472c-.582-.917-.967-1.952-.831-3.045C12.76 7 13.969 5.75 15.444 5.75c1.493 0 2.714 1.28 2.714 2.775 0 1.245-.86 2.315-1.65 3.111q-.26.261-.528.506m-.536-4.892c-.625 0-1.213.568-1.213 1.275a1 1 0 0 1-.007.103c-.087.626.117 1.316.605 2.084q.089.14.187.279.22-.203.428-.412c.78-.786 1.214-1.469 1.214-2.054 0-.707-.588-1.275-1.214-1.275m-.59 5.885q-.357.313-.606.566c-.664.684-.664 1.851 0 2.536a1.69 1.69 0 0 0 2.39.004l.758-.809a37 37 0 0 1-1.526-1.306 20 20 0 0 1-1.016-.99"/></svg>