<svg width="24" height="24" fill="currentColor" viewBox="0 0 24 24" xmlns="http://www.w3.org/2000/svg"><path d="M9.451 8.84c0-.584.51-1.09 1.09-1.09s1.091.506 1.091 1.09c0 .494-.381 1.095-1.116 1.812q-.18.175-.37.346a6 6 0 0 1-.147-.214c-.453-.692-.632-1.298-.556-1.837a1 1 0 0 0 .008-.106m-.006 4.761q.223-.221.541-.49c.298.303.613.597.932.879.446.394.911.776 1.367 1.137l-.65.672c-.586.58-1.601.584-2.19-.004a1.574 1.574 0 0 1 0-2.194"/><path d="M14.633 2.25c1.092 0 1.958 0 2.655.057.714.058 1.317.18 1.869.46a4.75 4.75 0 0 1 2.075 2.077c.281.55.403 1.154.461 1.868.057.697.057 1.563.057 2.655v5.266c0 1.092 0 1.958-.057 2.655-.058.714-.18 1.317-.46 1.869a4.75 4.75 0 0 1-2.076 2.075c-.552.281-1.155.403-1.869.461-.697.057-1.563.057-2.655.057H9.367c-1.092 0-1.958 0-2.655-.057-.714-.058-1.317-.18-1.868-.46a4.75 4.75 0 0 1-2.076-2.076c-.281-.552-.403-1.155-.461-1.869-.057-.697-.057-1.563-.057-2.655V9.367c0-1.092 0-1.958.057-2.655.058-.714.18-1.317.46-1.868a4.75 4.75 0 0 1 2.077-2.076c.55-.281 1.154-.403 1.868-.461.697-.057 1.563-.057 2.655-.057zm-3.069 9.475c.738-.72 1.568-1.713 1.568-2.884 0-1.417-1.185-2.591-2.59-2.591-1.387 0-2.56 1.144-2.59 2.536-.13 1.022.243 1.981.792 2.82q.123.187.26.372c-.224.192-.44.383-.62.563-1.179 1.18-1.179 3.136 0 4.316 1.18 1.178 3.148 1.166 4.315 0l.775-.8c.758.588 1.363 1.07 1.732 1.46a.75.75 0 1 0 1.088-1.033c-.434-.457-1.083-.976-1.771-1.512l1.766-1.826a.75.75 0 1 0-1.078-1.043l-1.878 1.942c-.48-.379-.962-.771-1.422-1.178q-.415-.367-.783-.735.221-.197.436-.407M9.451 8.841c0-.585.51-1.091 1.09-1.091s1.091.506 1.091 1.09c0 .494-.381 1.095-1.116 1.812q-.18.175-.37.346a6 6 0 0 1-.147-.214c-.453-.692-.632-1.298-.556-1.837a1 1 0 0 0 .008-.106m-.006 4.761q.223-.221.541-.49c.298.303.613.597.932.879.446.394.911.776 1.367 1.137l-.65.672c-.586.58-1.601.584-2.19-.004a1.574 1.574 0 0 1 0-2.194"/></svg>