<svg width="24" height="24" fill="currentColor" viewBox="0 0 24 24" xmlns="http://www.w3.org/2000/svg"><path d="M9.367 2.25c-1.092 0-1.958 0-2.655.057-.714.058-1.317.18-1.868.46a4.75 4.75 0 0 0-2.076 2.077c-.281.55-.403 1.154-.461 1.868-.057.697-.057 1.563-.057 2.655v5.266c0 1.092 0 1.958.057 2.655.058.714.18 1.317.46 1.869a4.75 4.75 0 0 0 2.077 2.075c.55.281 1.154.403 1.868.461.697.057 1.563.057 2.655.057h5.266c1.092 0 1.958 0 2.655-.057.714-.058 1.317-.18 1.869-.46a4.75 4.75 0 0 0 2.075-2.076c.281-.552.403-1.155.461-1.869.057-.697.057-1.563.057-2.655V9.367c0-1.092 0-1.958-.057-2.655-.058-.714-.18-1.317-.46-1.868a4.75 4.75 0 0 0-2.076-2.076c-.552-.281-1.155-.403-1.869-.461-.697-.057-1.563-.057-2.655-.057zm-.814 13.148A5.77 5.77 0 0 1 12 14.25c1.285 0 2.474.427 3.447 1.148a.75.75 0 1 1-.894 1.204A4.27 4.27 0 0 0 12 15.75a4.27 4.27 0 0 0-2.553.852.75.75 0 1 1-.894-1.204m-.218-8.069 3 1.5a.75.75 0 1 1-.67 1.342l-.416-.208v.537a.75.75 0 1 1-1.5 0V10a.75.75 0 0 1 .33-.621L7.666 8.67a.75.75 0 0 1 .67-1.342m8.336.336a.75.75 0 0 1-.336 1.006l-1.415.708c.199.134.33.362.33.621v.5a.75.75 0 0 1-1.5 0v-.537l-.415.208a.75.75 0 1 1-.67-1.342l3-1.5a.75.75 0 0 1 1.006.336"/></svg>