<svg width="24" height="24" fill="currentColor" viewBox="0 0 24 24" xmlns="http://www.w3.org/2000/svg"><path fill-rule="evenodd" d="M2.25 12c0-5.385 4.365-9.75 9.75-9.75s9.75 4.365 9.75 9.75-4.365 9.75-9.75 9.75S2.25 17.385 2.25 12m5.08-4.335a.75.75 0 0 1 1.005-.336l3 1.5a.75.75 0 1 1-.67 1.342l-.416-.208v.537a.75.75 0 1 1-1.5 0V10a.75.75 0 0 1 .33-.621L7.666 8.67a.75.75 0 0 1-.336-1.006m9.005 1.006a.75.75 0 1 0-.67-1.342l-3 1.5a.75.75 0 0 0 .67 1.342l.416-.208-.001.037v.5a.75.75 0 0 0 1.5 0V10a.75.75 0 0 0-.33-.621zm-7.782 6.727A5.766 5.766 0 0 1 12 14.25c1.285 0 2.474.427 3.447 1.148a.75.75 0 1 1-.894 1.204A4.266 4.266 0 0 0 12 15.75a4.27 4.27 0 0 0-2.553.852.75.75 0 1 1-.894-1.204"/></svg>