<svg width="24" height="24" fill="currentColor" viewBox="0 0 24 24" xmlns="http://www.w3.org/2000/svg"><path fill-rule="evenodd" d="M4.726 8.104A8.214 8.214 0 0 0 3.75 12c0 1.002.179 1.962.506 2.85h4.366l-1.42-2.457a.749.749 0 0 1-.019-.034zM4.111 6.27A9.706 9.706 0 0 0 2.25 12a9.717 9.717 0 0 0 .832 3.947A9.759 9.759 0 0 0 12 21.75a9.735 9.735 0 0 0 7.8-3.9.749.749 0 0 0 .09-.12A9.706 9.706 0 0 0 21.75 12a9.72 9.72 0 0 0-.832-3.947A9.759 9.759 0 0 0 12 2.25a9.735 9.735 0 0 0-7.801 3.9.746.746 0 0 0-.088.12m1.549.451 2.182 3.78 1.425-2.468a.785.785 0 0 1 .008-.015l2.463-4.264A8.233 8.233 0 0 0 5.66 6.721m7.743-2.852L11.22 7.65h7.792a8.256 8.256 0 0 0-5.609-3.781m6.341 5.281h-4.366l1.42 2.457a.758.758 0 0 1 .019.034l2.457 4.255A8.214 8.214 0 0 0 20.25 12a8.233 8.233 0 0 0-.506-2.85m-1.404 8.129-2.182-3.78-3.896 6.747a8.233 8.233 0 0 0 6.078-2.967m-7.743 2.852 2.183-3.781H4.988a8.255 8.255 0 0 0 5.609 3.781"/></svg>