<svg width="24" height="24" fill="currentColor" viewBox="0 0 24 24" xmlns="http://www.w3.org/2000/svg"><path d="M4.726 8.104A8.2 8.2 0 0 0 3.75 12c0 1.002.179 1.962.506 2.85h4.366l-1.42-2.457-.019-.034zM4.111 6.27a1 1 0 0 1 .088-.12 9.74 9.74 0 0 1 8.837-3.846 9.76 9.76 0 0 1 7.924 5.844A9.7 9.7 0 0 1 21.75 12c0 2.141-.69 4.122-1.86 5.73a1 1 0 0 1-.09.12 9.74 9.74 0 0 1-8.836 3.846 9.76 9.76 0 0 1-7.924-5.844A9.7 9.7 0 0 1 2.25 12c0-2.142.69-4.122 1.86-5.73m1.549.451 2.182 3.78 1.425-2.468.008-.015 2.463-4.264A8.23 8.23 0 0 0 5.66 6.721m7.743-2.852L11.22 7.65h7.792a8.26 8.26 0 0 0-5.609-3.781m6.341 5.281h-4.366l1.42 2.457.019.034 2.457 4.255A8.2 8.2 0 0 0 20.25 12a8.2 8.2 0 0 0-.506-2.85m-1.404 8.129-2.182-3.78-3.896 6.747a8.23 8.23 0 0 0 6.078-2.967m-7.743 2.852 2.183-3.781H4.988a8.26 8.26 0 0 0 5.609 3.781"/></svg>