<svg width="24" height="24" fill="currentColor" viewBox="0 0 24 24" xmlns="http://www.w3.org/2000/svg"><path fill-rule="evenodd" d="M6.03 17.97a.75.75 0 0 1 0 1.06l-2.5 2.5a.75.75 0 0 1-1.06-1.06l2.5-2.5a.75.75 0 0 1 1.06 0m7-10.5a.75.75 0 0 1 0 1.06l-2 2a.75.75 0 1 1-1.06-1.06l2-2a.75.75 0 0 1 1.06 0m8.5-5a.75.75 0 0 1 0 1.06l-2.5 2.5a.75.75 0 1 1-1.06-1.06l2.5-2.5a.75.75 0 0 1 1.06 0m-5 8.5a.75.75 0 0 1 0 1.06l-2 2a.75.75 0 1 1-1.06-1.06l2-2a.75.75 0 0 1 1.06 0"/><path d="M7.53 10.97a.75.75 0 0 0-1.06 0l-1.5 1.5c-.5.5-1.065 1.527-1.243 2.699-.183 1.212.038 2.657 1.243 3.861 1.204 1.205 2.65 1.426 3.861 1.243 1.172-.178 2.2-.743 2.7-1.243l1.5-1.5a.75.75 0 0 0 0-1.06zm11.5-6c-1.204-1.205-2.65-1.426-3.861-1.243-1.172.178-2.2.743-2.7 1.243l-1.5 1.5a.75.75 0 0 0 0 1.06l5.5 5.5a.75.75 0 0 0 1.061 0l1.5-1.5c.5-.5 1.065-1.527 1.243-2.699.183-1.212-.038-2.657-1.243-3.861"/></svg>