<svg width="24" height="24" fill="currentColor" viewBox="0 0 24 24" xmlns="http://www.w3.org/2000/svg"><path d="M5.634 3.25h9.797c.607.015 1.017.458 1.198.813.175.34.331 1.007-.167 1.505l-.006.006-2.594 2.534 6.51 6.51c.473.474.529 1.274.017 1.786l-3.986 3.985c-.511.512-1.311.456-1.785-.018l-6.51-6.51-2.54 2.601c-.498.498-1.165.342-1.505.167-.355-.181-.798-.591-.813-1.198V5.634c0-.268 0-.513.017-.716.018-.22.059-.458.178-.692.171-.336.445-.61.781-.781a1.8 1.8 0 0 1 .692-.178 9 9 0 0 1 .716-.017"/></svg>