<svg width="24" height="24" fill="currentColor" viewBox="0 0 24 24" xmlns="http://www.w3.org/2000/svg"><path d="M8.037 2.408c-.299.122-.54.31-.762.53L2.938 7.275c-.213.214-.4.45-.525.748a2.3 2.3 0 0 0-.163.914v6.126c0 .302.036.602.158.9s.31.54.53.762l4.337 4.337c.214.213.45.4.748.524.298.125.601.164.914.164h6.126c.302 0 .602-.035.9-.158.299-.122.54-.31.762-.53l4.337-4.337c.213-.214.4-.45.524-.748a2.3 2.3 0 0 0 .164-.914V8.937a2.3 2.3 0 0 0-.158-.9 2.3 2.3 0 0 0-.53-.762l-4.337-4.337a2.3 2.3 0 0 0-.762-.53 2.3 2.3 0 0 0-.9-.158H8.937a2.3 2.3 0 0 0-.9.158M12 7.75a.75.75 0 0 1 .75.75v2.194l1.872-1.092a.75.75 0 0 1 .756 1.296L13.488 12l1.89 1.102a.75.75 0 1 1-.756 1.296l-1.872-1.092V15.5a.75.75 0 0 1-1.5 0v-2.194l-1.872 1.092a.75.75 0 1 1-.756-1.296L10.512 12l-1.89-1.102a.75.75 0 1 1 .756-1.296l1.872 1.092V8.5a.75.75 0 0 1 .75-.75"/></svg>