<svg width="24" height="24" fill="currentColor" viewBox="0 0 24 24" xmlns="http://www.w3.org/2000/svg"><path d="M3.75 11.996A8.25 8.25 0 0 1 12 3.75a8.25 8.25 0 0 1 8.25 8.246c0 2.3-1.1 3-1.75 3s-1.75-.7-1.75-3V7.998a.75.75 0 0 0-1.5 0v.538l-.011-.01C14.334 7.75 13.153 7.378 12 7.378s-2.334.37-3.239 1.148c-.92.791-1.511 1.968-1.511 3.47 0 1.504.59 2.68 1.513 3.468.905.775 2.087 1.14 3.24 1.136 1.152-.005 2.332-.378 3.235-1.153q.353-.301.636-.677c.582 1.087 1.524 1.726 2.626 1.726 1.85 0 3.25-1.8 3.25-4.5 0-5.383-4.366-9.746-9.75-9.746s-9.75 4.363-9.75 9.746c0 5.376 4.356 9.735 9.731 9.745 1.83.087 4.263-.46 6.251-1.986a.75.75 0 1 0-.913-1.19c-1.68 1.29-3.763 1.753-5.282 1.677H12a8.25 8.25 0 0 1-8.25-8.246"/></svg>