<svg width="24" height="24" fill="currentColor" viewBox="0 0 24 24" xmlns="http://www.w3.org/2000/svg"><path fill-rule="evenodd" d="M8.81 3.01c1.016.426 2.094 1.023 3.19 1.768 1.096-.745 2.175-1.342 3.19-1.767 1.115-.468 2.19-.744 3.145-.76.96-.016 1.865.232 2.523.89.66.66.908 1.565.892 2.524-.016.956-.293 2.03-.76 3.145-.426 1.016-1.023 2.095-1.768 3.19.745 1.096 1.342 2.175 1.767 3.19.468 1.115.744 2.189.76 3.145.016.959-.232 1.864-.891 2.523s-1.564.907-2.523.891c-.956-.016-2.03-.292-3.145-.76-1.015-.425-2.094-1.022-3.19-1.767-1.095.745-2.174 1.342-3.19 1.767-1.114.468-2.188.744-3.144.76-.96.016-1.865-.232-2.524-.89-.658-.66-.907-1.565-.891-2.524.016-.956.293-2.03.76-3.145.426-1.015 1.022-2.094 1.767-3.19-.745-1.095-1.341-2.174-1.767-3.19-.468-1.115-.744-2.189-.76-3.145-.016-.959.232-1.864.89-2.523.66-.659 1.565-.907 2.524-.891.956.016 2.03.292 3.145.76M4.203 4.204c.282-.282.738-.464 1.437-.452.702.011 1.582.22 2.59.643.78.327 1.615.773 2.477 1.327-.89.694-1.78 1.478-2.644 2.342a28.636 28.636 0 0 0-2.342 2.644c-.554-.861-1-1.697-1.327-2.477-.423-1.008-.632-1.888-.643-2.59-.012-.699.17-1.155.452-1.437m11.734 3.86a28.637 28.637 0 0 1 2.342 2.644c.554-.861 1-1.697 1.327-2.477.423-1.008.632-1.888.644-2.59.011-.699-.17-1.155-.452-1.437-.282-.282-.739-.464-1.438-.452-.702.011-1.581.22-2.59.643a16.27 16.27 0 0 0-2.477 1.327c.89.694 1.78 1.478 2.644 2.342m0 7.874a28.613 28.613 0 0 0 2.342-2.644c.554.862 1 1.697 1.327 2.477.423 1.008.632 1.888.643 2.59.012.699-.17 1.155-.452 1.437-.282.282-.738.464-1.437.453-.702-.012-1.582-.221-2.59-.644a16.266 16.266 0 0 1-2.477-1.327c.89-.693 1.78-1.478 2.644-2.342m-7.874 0a28.636 28.636 0 0 0 2.644 2.342c-.861.554-1.697 1-2.476 1.327-1.009.423-1.888.632-2.59.643-.7.012-1.156-.17-1.438-.452-.282-.282-.464-.738-.452-1.437.012-.702.22-1.582.643-2.59.327-.78.773-1.615 1.327-2.477.694.89 1.478 1.78 2.342 2.644m3.687-4.687a.75.75 0 0 0 0 1.5h.5a.75.75 0 0 0 0-1.5z"/></svg>