<svg width="24" height="24" fill="currentColor" viewBox="0 0 24 24" xmlns="http://www.w3.org/2000/svg"><path d="M15.737 17.75c-.07.813-.27 1.654-.696 2.36-.592.98-1.588 1.64-3.042 1.64-1.453 0-2.449-.66-3.04-1.64-.427-.706-.627-1.547-.697-2.36H5.366c-.596 0-1.129-.148-1.526-.497-.403-.356-.566-.831-.588-1.28-.04-.846.405-1.742.976-2.309.68-.676.985-1.602 1.138-2.749.076-.571.111-1.169.146-1.796l.004-.066c.034-.596.069-1.22.144-1.822.156-1.241.5-2.536 1.508-3.5C8.182 2.758 9.73 2.25 11.999 2.25c2.27 0 3.818.509 4.832 1.48 1.008.965 1.352 2.26 1.508 3.501.075.602.11 1.226.144 1.822l.003.066c.036.627.07 1.225.147 1.796.153 1.147.458 2.073 1.138 2.75.588.584 1.028 1.485.975 2.334-.028.448-.2.916-.603 1.263-.396.342-.923.488-1.51.488z"/><path fill-rule="evenodd" d="M6.649 3.189C7.859 2.03 9.63 1.5 11.999 1.5c2.369 0 4.141.53 5.351 1.689.44.421.77.892 1.017 1.383L20.47 2.47a.75.75 0 1 1 1.06 1.06l-2.616 2.617c.075.337.128.67.169.99.079.628.115 1.274.148 1.862l.004.078c.036.63.07 1.2.141 1.74.145 1.084.417 1.812.924 2.315.701.697 1.264 1.799 1.194 2.914-.038.604-.274 1.278-.861 1.784-.573.494-1.295.67-2 .67h-2.237c-.119.678-.336 1.373-.713 1.997-.726 1.201-1.963 2.003-3.684 2.003-1.72 0-2.958-.802-3.683-2.003-.377-.624-.595-1.319-.713-1.997H6.561l-3.03 3.03a.75.75 0 0 1-1.061-1.06l2.06-2.06a2.686 2.686 0 0 1-1.185-.594c-.59-.52-.813-1.206-.842-1.807-.052-1.106.513-2.198 1.196-2.877.507-.503.779-1.231.923-2.316.072-.539.106-1.108.142-1.739L4.768 9c.033-.588.07-1.234.148-1.861.163-1.296.536-2.803 1.733-3.95"/></svg>