<svg width="24" height="24" fill="currentColor" viewBox="0 0 24 24" xmlns="http://www.w3.org/2000/svg"><path d="M9.75 11.25v-2.5H13a1.25 1.25 0 1 1 0 2.5zm0 4v-2.5H14a1.25 1.25 0 1 1 0 2.5z"/><path d="M10.68 2.105a2.63 2.63 0 0 1 2.64 0l.001.001 6.611 3.8A2.65 2.65 0 0 1 21.25 8.2v7.603a2.66 2.66 0 0 1-1.318 2.291l-.003.002-6.608 3.799h-.002a2.63 2.63 0 0 1-2.639 0h-.001l-6.608-3.8h-.003A2.64 2.64 0 0 1 2.75 15.8V8.198a2.66 2.66 0 0 1 1.318-2.291l.003-.002zM12.75 6a.75.75 0 0 0-1.5 0v1.25H9a.75.75 0 0 0-.75.75v8c0 .414.336.75.75.75h2.25V18a.75.75 0 0 0 1.5 0v-1.25H14a2.75 2.75 0 0 0 1.266-5.192A2.75 2.75 0 0 0 13 7.25h-.25z"/></svg>