<svg width="24" height="24" fill="currentColor" viewBox="0 0 24 24" xmlns="http://www.w3.org/2000/svg"><path d="M14.55 4.997V4.8a2.55 2.55 0 0 0-5.1 0v.197H7.7a2.75 2.75 0 0 0-2.75 2.75v3.288a2.75 2.75 0 0 0-1.486 2.947l.598 3.344a.75.75 0 0 0 1.476-.264l-.597-3.344a1.25 1.25 0 0 1 .829-1.403l5.829-1.977a1.25 1.25 0 0 1 .803 0l5.828 1.977c.585.198.938.795.83 1.404l-.598 3.343a.75.75 0 1 0 1.476.264l.598-3.344a2.75 2.75 0 0 0-1.486-2.947V7.747a2.75 2.75 0 0 0-2.75-2.75zM9.868 21.251c-.892-.312-2.004-.298-2.854.056a5.6 5.6 0 0 1-2.53.43c-.761-.058-1.52-.306-2.019-.813a.75.75 0 1 1 1.07-1.051c.148.15.5.325 1.063.367a4.1 4.1 0 0 0 1.839-.317c1.214-.506 2.709-.514 3.927-.087a5.08 5.08 0 0 0 3.272 0c1.218-.427 2.713-.42 3.927.087a4.1 4.1 0 0 0 1.84.318c.562-.043.914-.217 1.062-.368a.75.75 0 1 1 1.07 1.051c-.498.507-1.258.755-2.02.812a5.6 5.6 0 0 1-2.529-.429c-.85-.354-1.962-.368-2.854-.056a6.58 6.58 0 0 1-4.264 0"/></svg>