<svg width="24" height="24" fill="currentColor" viewBox="0 0 24 24" xmlns="http://www.w3.org/2000/svg"><path d="M17.4 2.25c.667 0 1.336.109 1.803.593.46.478.547 1.14.547 1.757v11.8c0 .543-.072 1.077-.35 1.509a1.65 1.65 0 0 1-.65.583v.908c0 .666-.108 1.335-.591 1.802-.478.462-1.14.548-1.757.548H5.75a1.5 1.5 0 0 1-1.5-1.5V6.017c-.003-.498-.006-1.12.13-1.687.167-.692.552-1.363 1.371-1.78.338-.172.694-.24 1.074-.27.365-.03.81-.03 1.345-.03zm-.998 18c.547 0 .683-.096.714-.126.025-.024.134-.155.134-.724v-.65h-10a1.5 1.5 0 0 0-1.5 1.5zm-1.55-11.81a.75.75 0 0 0-1.215-.88l-2.468 3.417-1.005-1.148a.75.75 0 0 0-1.129.987l1.38 1.576c.443.507 1.244.47 1.638-.077z"/></svg>