<svg width="24" height="24" fill="currentColor" viewBox="0 0 24 24" xmlns="http://www.w3.org/2000/svg"><path d="M10.5 6.75a1.25 1.25 0 1 1 0 2.5 1.25 1.25 0 0 1 0-2.5"/><path d="M19.4 17.91c.278-.433.35-.966.35-1.51V4.6c0-.616-.086-1.28-.547-1.757-.467-.484-1.136-.593-1.802-.593H8.148c-.524 0-.963 0-1.323.03a3 3 0 0 0-.946.21l-.128.06c-.82.417-1.205 1.089-1.371 1.78-.136.565-.133 1.187-.13 1.685V20.25a1.5 1.5 0 0 0 1.5 1.5h10.652c.617 0 1.28-.087 1.756-.548.483-.467.592-1.136.592-1.802v-.91a1.66 1.66 0 0 0 .65-.58M5.75 12.752c2.103-.068 3.962.971 5.081 2.58a10.5 10.5 0 0 0-.474 1.917H7.25c-.547 0-1.058.149-1.5.404zm6.125 4.497c.605-3.407 3.085-6.09 6.375-7.14v6.29c0 .452-.07.63-.111.695-.011.017-.035.055-.137.089l-.136.033a3 3 0 0 1-.464.033zM13.25 8a2.75 2.75 0 1 1-5.5 0 2.75 2.75 0 0 1 5.5 0"/></svg>