<svg width="24" height="24" fill="currentColor" viewBox="0 0 24 24" xmlns="http://www.w3.org/2000/svg"><path d="M10.75 9a1.25 1.25 0 1 1 2.5 0 1.25 1.25 0 0 1-2.5 0"/><path d="M5.25 3.942c0-.766.521-1.692 1.5-1.692h10.5c.979 0 1.5.926 1.5 1.692v16.01c0 1.352-1.469 2.308-2.686 1.518l-3.944-2.56a.21.21 0 0 0-.238 0l-3.946 2.56c-1.217.79-2.686-.165-2.686-1.518zM12 6.25a2.75 2.75 0 0 0-2.01 4.627q-.286.164-.54.382c-.734.629-1.2 1.563-1.2 2.741a.75.75 0 0 0 1.5 0c0-.752.284-1.266.676-1.603.408-.35.977-.543 1.574-.543s1.166.193 1.574.543c.392.337.676.85.676 1.603a.75.75 0 0 0 1.5 0c0-1.178-.466-2.112-1.2-2.741a3.6 3.6 0 0 0-.54-.382A2.75 2.75 0 0 0 12 6.25"/></svg>