<svg width="24" height="24" fill="currentColor" viewBox="0 0 24 24" xmlns="http://www.w3.org/2000/svg"><path d="M10.5 11.5V9.522L12 8.428l1.5 1.094V11.5a.25.25 0 0 1-.25.25h-2.5a.25.25 0 0 1-.25-.25"/><path d="M5.25 3.942c0-.766.521-1.692 1.5-1.692h10.5c.979 0 1.5.926 1.5 1.692v16.01c0 1.352-1.469 2.308-2.686 1.518l-3.944-2.56a.21.21 0 0 0-.238 0l-3.946 2.56c-1.217.79-2.686-.165-2.686-1.518zm7.192 2.952a.75.75 0 0 0-.884 0l-2.25 1.64A.75.75 0 0 0 9 9.14v2.36c0 .966.784 1.75 1.75 1.75h2.5A1.75 1.75 0 0 0 15 11.5V9.14a.75.75 0 0 0-.308-.606z"/></svg>