<svg width="24" height="24" fill="currentColor" viewBox="0 0 24 24" xmlns="http://www.w3.org/2000/svg"><path d="M10.5 11.5V9.522L12 8.428l1.5 1.094V11.5a.25.25 0 0 1-.25.25h-2.5a.25.25 0 0 1-.25-.25"/><path d="M17.4 2.25c.667 0 1.336.109 1.803.593.46.478.547 1.14.547 1.757v11.8c0 .543-.072 1.077-.35 1.509a1.65 1.65 0 0 1-.65.583v.908c0 .666-.108 1.335-.591 1.802-.478.462-1.14.548-1.757.548H5.75a1.5 1.5 0 0 1-1.5-1.5V6.017c-.003-.498-.006-1.12.13-1.687.167-.692.552-1.363 1.371-1.78.338-.172.694-.24 1.074-.27.365-.03.81-.03 1.345-.03zm-.998 18c.547 0 .683-.096.714-.126.025-.024.134-.155.134-.724v-.65h-10a1.5 1.5 0 0 0-1.5 1.5zm-3.96-13.356a.75.75 0 0 0-.884 0l-2.25 1.64A.75.75 0 0 0 9 9.14v2.36c0 .966.784 1.75 1.75 1.75h2.5A1.75 1.75 0 0 0 15 11.5V9.14a.75.75 0 0 0-.308-.606z"/></svg>