<svg width="24" height="24" fill="currentColor" viewBox="0 0 24 24" xmlns="http://www.w3.org/2000/svg"><path d="M3.956 10.25c-.94 0-1.813.778-1.696 1.83a9.703 9.703 0 0 0 2.812 5.816 9.828 9.828 0 0 0 1.984 1.524c.126.073.177.184.176.268v.306a1.753 1.753 0 0 0 1.755 1.756h6.03c.965 0 1.755-.78 1.755-1.75v-.449c0-.01.002-.015.002-.017l.003-.007a.125.125 0 0 1 .047-.038 9.76 9.76 0 0 0 2.104-1.593 9.704 9.704 0 0 0 2.812-5.815c.117-1.053-.756-1.831-1.696-1.831zM6 4.25a.75.75 0 0 1 .75.75v2a.75.75 0 0 1-1.5 0V5A.75.75 0 0 1 6 4.25m12 0a.75.75 0 0 1 .75.75v2a.75.75 0 0 1-1.5 0V5a.75.75 0 0 1 .75-.75m-6-2a.75.75 0 0 1 .75.75v4a.75.75 0 0 1-1.5 0V3a.75.75 0 0 1 .75-.75"/></svg>