<svg width="24" height="24" fill="currentColor" viewBox="0 0 24 24" xmlns="http://www.w3.org/2000/svg"><path d="M11.669 2.282c.218-.043.443-.043.662 0 .251.048.479.167.691.277l.053.028 8.27 4.28a.75.75 0 0 1 .405.666v7.897c0 .283.002.583-.093.862a1.758 1.758 0 0 1-.395.652c-.205.214-.473.351-.723.48l-.063.033-8.131 4.208a.75.75 0 0 1-.69 0l-8.131-4.208-.063-.033c-.25-.129-.518-.266-.723-.48a1.759 1.759 0 0 1-.395-.652c-.095-.28-.094-.58-.093-.863V7.533a.75.75 0 0 1 .405-.666l8.269-4.28.053-.027c.213-.111.44-.23.692-.278m.226 1.496a6.579 6.579 0 0 0-.282.141L4.668 7.514 12 11.102l7.332-3.588-6.946-3.595a6.505 6.505 0 0 0-.282-.141.48.48 0 0 0-.058-.024m-.796 16.013v-7.362l-7.5-3.67v6.624c0 .187 0 .294.005.375a.496.496 0 0 0 .009.078.258.258 0 0 0 .057.095c.005.004.021.017.064.042.068.042.163.09.328.176zm.645-15.99a.483.483 0 0 1 .06-.023z"/></svg>