<svg width="24" height="24" fill="currentColor" viewBox="0 0 24 24" xmlns="http://www.w3.org/2000/svg"><path d="M3.75 12c0-.114.002-.229.007-.342.899.032 2.135.04 3.462-.053 1.726-.12 3.67-.411 5.225-1.075.154-.066.307-.135.458-.206.251.488.469.982.64 1.473l.018.051a10.98 10.98 0 0 0-1.04.394c-3.144 1.38-5.55 3.419-6.912 4.974A8.216 8.216 0 0 1 3.75 12m11.352 6.796c.046.29.09.56.13.797A8.222 8.222 0 0 1 12 20.25a8.22 8.22 0 0 1-5.339-1.96c1.202-1.399 3.463-3.357 6.463-4.675a9.73 9.73 0 0 1 .875-.334 40.17 40.17 0 0 1 .757 3.44c.133.739.241 1.418.333 1.994zm4.963-6.078.154.007a8.245 8.245 0 0 1-3.593 6.107l-.056-.356c-.092-.574-.202-1.266-.337-2.02a41.71 41.71 0 0 0-.78-3.544c1.757-.328 3.433-.249 4.612-.194M14.23 9.627c1.745-1.011 3.21-2.223 4.068-2.957a8.214 8.214 0 0 1 1.916 4.55c-1.18-.06-3.134-.155-5.198.253l-.057-.17a12.99 12.99 0 0 0-.73-1.676m-.744-1.301c-1.087-1.732-2.424-3.28-3.451-4.34A8.27 8.27 0 0 1 12 3.75c1.982 0 3.8.699 5.223 1.864-.855.727-2.185 1.812-3.738 2.712m-6.37 1.783a32.166 32.166 0 0 1-3.16.055A8.266 8.266 0 0 1 8.47 4.54c1 .975 2.502 2.629 3.68 4.479-.098.045-.196.088-.295.13-1.324.566-3.07.843-4.74.959"/><path fill-rule="evenodd" d="M2.323 10.797A9.847 9.847 0 0 0 2.25 12 9.75 9.75 0 0 0 12 21.75a9.709 9.709 0 0 0 4.437-1.066A9.75 9.75 0 0 0 21.75 12a9.72 9.72 0 0 0-2.858-6.896l-.01-.01A9.72 9.72 0 0 0 12 2.25c-4.967 0-9.066 3.714-9.673 8.516a.755.755 0 0 0-.004.031M3.75 12c0-.114.002-.229.007-.342l.198-1.494A8.266 8.266 0 0 1 8.47 4.54l1.564-.555A8.27 8.27 0 0 1 12 3.75c1.982 0 3.8.699 5.223 1.864l1.075 1.056a8.214 8.214 0 0 1 1.916 4.55l.005 1.505a8.245 8.245 0 0 1-3.593 6.107l-1.394.761A8.222 8.222 0 0 1 12 20.25a8.22 8.22 0 0 1-5.339-1.96l-1.053-1.074A8.216 8.216 0 0 1 3.75 12"/></svg>