<svg width="24" height="24" fill="currentColor" viewBox="0 0 24 24" xmlns="http://www.w3.org/2000/svg"><path d="M4.11 6.27a1 1 0 0 1 .089-.12A9.74 9.74 0 0 1 12 2.25a9.75 9.75 0 0 1 8.96 5.899A9.7 9.7 0 0 1 21.75 12 9.75 9.75 0 0 1 12 21.75a10 10 0 0 1-1.146-.067C6.009 21.116 2.25 16.997 2.25 12c0-2.142.69-4.122 1.86-5.73m.616 1.833a8.252 8.252 0 0 0 5.87 12.028l2.226-3.858q-.4.076-.822.077a4.35 4.35 0 0 1-3.858-2.338zm.934-1.382 2.228 3.855A4.35 4.35 0 0 1 12 7.65h7.011A8.24 8.24 0 0 0 12 3.75a8.23 8.23 0 0 0-6.34 2.97m14.084 2.43h-4.458A4.33 4.33 0 0 1 16.35 12a4.33 4.33 0 0 1-.675 2.328l-3.413 5.918A8.25 8.25 0 0 0 19.744 9.15"/></svg>