<svg width="24" height="24" fill="currentColor" viewBox="0 0 24 24" xmlns="http://www.w3.org/2000/svg"><path fill-rule="evenodd" d="M9.367 2.25h5.266c1.092 0 1.958 0 2.655.057.714.058 1.317.18 1.869.46a4.75 4.75 0 0 1 2.075 2.077c.281.55.403 1.154.461 1.868.057.697.057 1.563.057 2.655v5.266c0 1.092 0 1.958-.057 2.655-.058.714-.18 1.317-.46 1.869a4.75 4.75 0 0 1-2.076 2.075c-.552.281-1.155.403-1.869.461-.697.057-1.563.057-2.655.057H9.367c-1.092 0-1.958 0-2.655-.057-.714-.058-1.317-.18-1.868-.46a4.75 4.75 0 0 1-2.076-2.076c-.281-.552-.403-1.155-.461-1.869-.057-.697-.057-1.563-.057-2.655V9.367c0-1.092 0-1.958.057-2.655.058-.714.18-1.317.46-1.868a4.75 4.75 0 0 1 2.077-2.076c.55-.281 1.154-.403 1.868-.461.697-.057 1.563-.057 2.655-.057M8.75 7.625a.75.75 0 0 0-1.5 0v.5a.75.75 0 0 0 1.5 0zm0 3.125a.75.75 0 0 0-1.5 0v5.625a.75.75 0 0 0 1.5 0zM12 10a.75.75 0 0 1 .75.75v.392a3.637 3.637 0 0 1 1.65-.392c.507 0 .965.11 1.345.367.384.26.617.621.757.994.249.661.248 1.498.248 2.184v2.08a.75.75 0 0 1-1.5 0v-2c0-.8-.01-1.36-.152-1.736-.06-.159-.127-.235-.194-.28-.069-.047-.21-.109-.504-.109-.45 0-.886.138-1.192.367-.29.217-.458.506-.458.883v2.875a.75.75 0 0 1-1.5 0V10.75A.75.75 0 0 1 12 10"/></svg>