<svg width="24" height="24" fill="currentColor" viewBox="0 0 24 24" xmlns="http://www.w3.org/2000/svg"><path d="M2.25 12a.75.75 0 0 1 .75-.75h1a.75.75 0 0 1 0 1.5H3a.75.75 0 0 1-.75-.75m2.22-7.53a.75.75 0 0 1 1.06 0l.707.707a.75.75 0 0 1-1.06 1.06L4.47 5.53a.75.75 0 0 1 0-1.06m15.06 0a.75.75 0 0 1 0 1.06l-.707.707a.75.75 0 1 1-1.06-1.06l.707-.707a.75.75 0 0 1 1.06 0M6.237 17.763a.75.75 0 0 1 0 1.06l-.707.707a.75.75 0 0 1-1.06-1.06l.707-.707a.75.75 0 0 1 1.06 0m11.526 0a.75.75 0 0 1 1.06 0l.707.707a.75.75 0 1 1-1.06 1.06l-.707-.707a.75.75 0 0 1 0-1.06M12 2.25a.75.75 0 0 1 .75.75v1a.75.75 0 0 1-1.5 0V3a.75.75 0 0 1 .75-.75m0 17a.75.75 0 0 1 .75.75v1a.75.75 0 0 1-1.5 0v-1a.75.75 0 0 1 .75-.75M19.25 12a.75.75 0 0 1 .75-.75h1a.75.75 0 0 1 0 1.5h-1a.75.75 0 0 1-.75-.75M12 8.25a3.75 3.75 0 1 0 0 7.5 3.75 3.75 0 0 0 0-7.5"/></svg>