<svg width="24" height="24" fill="currentColor" viewBox="0 0 24 24" xmlns="http://www.w3.org/2000/svg"><path d="M16.407 2.332a.75.75 0 0 1 .682 1.336c-.462.236-.984.742-1.345 1.258A5.14 5.14 0 0 1 16.75 8v.285c.465.093.868.44.985.924.269-.03.428-.077.559-.144.329-.168.597-.436.765-.766.073-.144.13-.345.16-.716.03-.38.031-.87.031-1.583a.75.75 0 0 1 1.5 0c0 .689.001 1.25-.036 1.705-.038.464-.12.883-.319 1.274a3.25 3.25 0 0 1-1.42 1.422c-.367.187-.758.271-1.204.312v2.537H20a.75.75 0 0 1 0 1.5h-2.229v.372l-.003.274q-.015.455-.08.897.128.012.252.027c.345.044.723.12 1.036.28a3.25 3.25 0 0 1 1.42 1.422c.198.39.28.81.318 1.273.037.455.036 1.017.036 1.705a.75.75 0 0 1-1.5 0c0-.713 0-1.203-.031-1.583-.03-.37-.087-.571-.16-.716a1.75 1.75 0 0 0-.765-.765c-.076-.04-.245-.09-.541-.127a7 7 0 0 0-.455-.04c-.185.46-.425.89-.728 1.271-.853 1.076-2.137 1.71-3.788 1.71h-.032V12a.75.75 0 0 0-1.5 0v8.75h-.032c-1.651 0-2.932-.635-3.78-1.713a5 5 0 0 1-.72-1.267 7 7 0 0 0-.463.04c-.303.037-.474.088-.549.126a1.75 1.75 0 0 0-.765.765c-.073.145-.13.345-.16.716-.03.38-.031.87-.031 1.583a.75.75 0 0 1-1.5 0c0-.688-.001-1.25.036-1.705.038-.464.12-.882.318-1.273a3.25 3.25 0 0 1 1.42-1.422c.315-.16.7-.237 1.047-.28q.127-.016.261-.028a8 8 0 0 1-.082-1.17v-.372H4a.75.75 0 0 1 0-1.5h2.25v-2.536c-.453-.04-.856-.125-1.226-.313a3.25 3.25 0 0 1-1.42-1.422c-.198-.391-.28-.81-.318-1.274C3.25 7.25 3.25 6.69 3.25 6a.75.75 0 0 1 1.5 0c0 .713 0 1.203.031 1.583.03.371.087.572.16.716.168.33.436.598.765.766.132.067.3.11.58.141.116-.476.509-.816.964-.915v-.29c0-1.137.366-2.213.99-3.054a5 5 0 0 0-.511-.525 5.5 5.5 0 0 0-1.07-.754.75.75 0 0 1 .682-1.336c.443.226.944.577 1.385.969.206.184.412.388.6.605a3.85 3.85 0 0 1 2.153-.656h1.043c.787 0 1.508.235 2.124.638.474-.628 1.11-1.224 1.761-1.556"/></svg>