<svg width="24" height="24" fill="currentColor" viewBox="0 0 24 24" xmlns="http://www.w3.org/2000/svg"><path fill-rule="evenodd" d="M9.233 1.25h-.466c-.812 0-1.469 0-2 .045-.55.047-1.033.145-1.48.381a3.808 3.808 0 0 0-1.633 1.692c-.223.454-.316.944-.36 1.507-.044.549-.044 1.227-.044 2.072V21.25h-1a.75.75 0 0 0 0 1.5h19.5a.75.75 0 0 0 0-1.5h-1.2v-9.806c0-1.203-.2-2.236-.866-2.95-.68-.728-1.674-.948-2.809-.948H14.75v-.6c0-.844 0-1.522-.043-2.07-.045-.564-.138-1.054-.36-1.508a3.809 3.809 0 0 0-1.635-1.692c-.446-.236-.93-.334-1.478-.38-.532-.046-1.189-.046-2-.046M8 5.25a.75.75 0 0 0 0 1.5h2a.75.75 0 0 0 0-1.5zM7.25 10A.75.75 0 0 1 8 9.25h2a.75.75 0 0 1 0 1.5H8a.75.75 0 0 1-.75-.75M8 13.25a.75.75 0 0 0 0 1.5h2a.75.75 0 0 0 0-1.5z"/></svg>