<svg width="24" height="24" fill="currentColor" viewBox="0 0 24 24" xmlns="http://www.w3.org/2000/svg"><path d="M7.5 2.25a.75.75 0 0 1 .75.75v.253q.515-.004 1.119-.003H14.6a.75.75 0 0 1 0 1.5H9.4q-.639 0-1.15.003V5a.75.75 0 0 1-1.5 0v-.194c-.577.05-.946.14-1.24.282a3.15 3.15 0 0 0-1.414 1.33c-.114.212-.196.466-.25.832H11a.75.75 0 0 1 0 1.5H3.755c-.005.374-.005.8-.005 1.294v4.912c0 .833 0 1.478.025 2.009a.75.75 0 0 1-1.498.07c-.027-.57-.027-1.25-.027-2.063V10.01c0-1.029 0-1.85.057-2.511.06-.68.182-1.261.469-1.792a4.65 4.65 0 0 1 2.083-1.971c.547-.263 1.146-.378 1.856-.432L6.75 3.3V3a.75.75 0 0 1 .75-.75m12.97.22a.75.75 0 1 1 1.06 1.06l-1.107 1.108c.317.314.588.674.801 1.069.287.53.41 1.112.469 1.792.057.662.057 1.482.057 2.51v4.981c0 1.029 0 1.85-.057 2.511-.06.68-.182 1.261-.469 1.792a4.65 4.65 0 0 1-2.083 1.971c-.547.263-1.146.378-1.856.432-.696.054-1.56.054-2.654.054H9.37c-1.094 0-1.958 0-2.654-.054-.71-.055-1.309-.169-1.856-.432a5 5 0 0 1-.67-.392l-.659.658a.75.75 0 0 1-1.06-1.06z"/></svg>