<svg width="24" height="24" fill="currentColor" viewBox="0 0 24 24" xmlns="http://www.w3.org/2000/svg"><path fill-rule="evenodd" d="M3.72 2.788a.75.75 0 0 0-1.44.425L5.398 13.76c.353 1.194 1.471 1.99 2.715 1.99h9.158c1.243 0 2.362-.796 2.714-1.99l1.655-5.6c.53-1.793-.874-3.51-2.715-3.51H4.269zm11.372 6.151a.75.75 0 0 0-1.216-.878l-1.713 2.371-.599-.684a.75.75 0 1 0-1.128.988l1.034 1.181a.974.974 0 0 0 1.522-.07z"/><path d="M8.5 17.25a2.25 2.25 0 1 0 0 4.5 2.25 2.25 0 0 0 0-4.5m8 0a2.25 2.25 0 1 0 0 4.5 2.25 2.25 0 0 0 0-4.5"/></svg>