<svg width="24" height="24" fill="currentColor" viewBox="0 0 24 24" xmlns="http://www.w3.org/2000/svg"><path d="M6.91 3.25h9.322c.813 0 1.469 0 2 .043.546.045 1.026.14 1.47.366a3.75 3.75 0 0 1 1.64 1.639c.226.444.32.924.365 1.47.043.531.043 1.187.043 2v6.464c0 .813 0 1.469-.043 2-.045.546-.14 1.026-.366 1.47a3.75 3.75 0 0 1-1.639 1.64c-.444.226-.924.32-1.47.365-.531.043-1.187.043-2 .043h-2.085a.75.75 0 0 1 0-1.5H16.2c.852 0 1.447 0 1.91-.038.453-.038.714-.107.912-.207a2.25 2.25 0 0 0 .983-.983c.1-.198.17-.459.207-.913.038-.462.038-1.057.038-1.909V8.8c0-.852 0-1.447-.038-1.91-.037-.453-.107-.714-.207-.911a2.25 2.25 0 0 0-.983-.984c-.198-.1-.459-.17-.913-.207-.462-.037-1.057-.038-1.909-.038H7.028c-1.006 0-1.357.007-1.626.081a2.25 2.25 0 0 0-1.57 1.57c-.075.27-.082.621-.082 1.627a.75.75 0 1 1-1.5 0V7.91c0-.84 0-1.415.135-1.906a3.75 3.75 0 0 1 2.618-2.618c.491-.136 1.065-.135 1.906-.135M2.25 12a.75.75 0 0 1 .75-.75A8.75 8.75 0 0 1 11.75 20a.75.75 0 0 1-.75.75l-8 .003a.75.75 0 0 1-.75-.75z"/></svg>