<svg width="24" height="24" fill="currentColor" viewBox="0 0 24 24" xmlns="http://www.w3.org/2000/svg"><path d="M3.75 3.5a.75.75 0 0 0-1.5 0v13.83c0 .535 0 .98.03 1.345.03.38.098.736.27 1.073a2.75 2.75 0 0 0 1.201 1.203c.337.171.694.238 1.073.27.364.029.81.029 1.342.029H21a.75.75 0 0 0 0-1.5H6.197c-.571 0-.955 0-1.25-.025-.287-.023-.424-.065-.515-.111a1.25 1.25 0 0 1-.546-.547c-.046-.09-.088-.228-.111-.515A17 17 0 0 1 3.75 17.3v-1.449l3.587-2.988c.764-.637 1.253-.796 1.615-.773.37.023.826.249 1.493.916l.007.007c.817.817 1.656 1.353 2.608 1.365.944.012 1.783-.494 2.588-1.199l5.846-5.115a.75.75 0 1 0-.988-1.128L14.66 12.05c-.726.635-1.205.832-1.58.827-.366-.005-.847-.206-1.568-.926l-.006-.006c-.744-.744-1.53-1.294-2.459-1.353-.935-.06-1.8.393-2.67 1.117L3.75 13.9z"/></svg>