<svg width="24" height="24" fill="currentColor" viewBox="0 0 24 24" xmlns="http://www.w3.org/2000/svg"><path d="M2 14.6V3a1 1 0 0 1 2 0v11.6l.007 1.467c.006.418.019.77.044 1.078.05.606.142.954.276 1.217l.115.206c.289.47.702.853 1.196 1.105l.103.049c.251.108.584.184 1.113.227C7.471 20 8.264 20 9.4 20H21l.102.005a1 1 0 0 1 0 1.99L21 22H9.4c-1.103 0-1.991.001-2.709-.058-.637-.052-1.208-.154-1.737-.381l-.224-.106a5 5 0 0 1-2.092-2.01l-.093-.175c-.302-.593-.428-1.233-.487-1.961-.03-.359-.044-.76-.051-1.21z"/><path d="M10.229 6.882c.904-2.003 3.855-1.936 4.624.2l.22.648c.215.662.414 1.358.612 2.034.27.918.544 1.817.879 2.66.632 1.595 1.428 2.842 2.636 3.547l.247.134.09.051a1 1 0 0 1-.89 1.78l-.094-.042-.367-.198c-1.777-1.039-2.789-2.788-3.482-4.533-.372-.938-.668-1.917-.937-2.836-.206-.702-.395-1.361-.593-1.973l-.203-.594a.5.5 0 0 0-.906-.079l-.036.079c-.278.772-.521 1.631-.796 2.567-.27.92-.565 1.898-.937 2.836-.693 1.745-1.705 3.494-3.483 4.533l-.366.198a1 1 0 0 1-.894-1.789l.247-.134c1.208-.705 2.004-1.953 2.637-3.546.334-.844.608-1.743.877-2.66.265-.902.53-1.839.834-2.683z"/></svg>