<svg width="24" height="24" fill="currentColor" viewBox="0 0 24 24" xmlns="http://www.w3.org/2000/svg"><path fill-rule="evenodd" d="M2.25 12c0-5.385 4.365-9.75 9.75-9.75s9.75 4.365 9.75 9.75-4.365 9.75-9.75 9.75a9.712 9.712 0 0 1-4.342-1.018c-.21-.104-.523-.114-1.01.005a9.22 9.22 0 0 0-.729.22l-.086.03c-.22.074-.46.154-.683.214-1.427.382-2.733-.924-2.351-2.35.06-.224.14-.463.214-.684l.03-.086c.085-.255.163-.495.22-.729.12-.487.11-.8.005-1.01A9.713 9.713 0 0 1 2.25 12m12.334-2.608a.75.75 0 0 1 .169 1.047l-2.8 3.876a1.049 1.049 0 0 1-1.639.077l-1.378-1.576a.75.75 0 0 1 1.128-.987l1.005 1.148 2.468-3.416a.75.75 0 0 1 1.047-.169"/></svg>