<svg width="24" height="24" fill="currentColor" viewBox="0 0 24 24" xmlns="http://www.w3.org/2000/svg"><path fill-rule="evenodd" d="M21.449 2.399a.75.75 0 0 1 .152 1.05l-7.232 9.69a1.537 1.537 0 0 1-2.364.11l-3.561-3.94a.75.75 0 1 1 1.112-1.006l3.562 3.939a.018.018 0 0 0 .007.005.05.05 0 0 0 .02.003.043.043 0 0 0 .017-.004.01.01 0 0 0 .004-.004l7.233-9.69a.75.75 0 0 1 1.05-.153M12 3.75A8.25 8.25 0 1 0 20.25 12a.75.75 0 0 1 1.5 0c0 5.385-4.365 9.75-9.75 9.75S2.25 17.385 2.25 12 6.615 2.25 12 2.25a.75.75 0 0 1 0 1.5"/></svg>