<svg width="24" height="24" fill="currentColor" viewBox="0 0 24 24" xmlns="http://www.w3.org/2000/svg"><path d="m10.68 2.105-6.61 3.8-.002.002A2.65 2.65 0 0 0 2.75 8.198v7.603a2.64 2.64 0 0 0 1.318 2.292l.003.002 6.608 3.799h.002a2.63 2.63 0 0 0 2.639 0h.001l6.608-3.8h.003A2.65 2.65 0 0 0 21.25 15.8V8.2a2.65 2.65 0 0 0-1.318-2.292l-6.61-3.8-.002-.002a2.63 2.63 0 0 0-2.64 0m5.093 6.587a.75.75 0 0 1 .168 1.047l-3.597 4.981a1.75 1.75 0 0 1-2.736.128l-1.506-1.72a.75.75 0 1 1 1.13-.989l1.505 1.721a.25.25 0 0 0 .39-.018l3.598-4.981a.75.75 0 0 1 1.048-.169"/></svg>