<svg width="24" height="24" fill="currentColor" viewBox="0 0 24 24" xmlns="http://www.w3.org/2000/svg"><path fill-rule="evenodd" d="M10.79 1.49a3.16 3.16 0 0 1 3.445.687l7.588 7.588a3.159 3.159 0 0 1 0 4.47l-7.588 7.588a3.159 3.159 0 0 1-4.47 0l-7.588-7.588a3.16 3.16 0 0 1 0-4.47l7.588-7.589a3.16 3.16 0 0 1 1.025-.685m4.983 7.202a.75.75 0 0 1 .168 1.047l-3.597 4.981a1.75 1.75 0 0 1-2.736.128l-1.506-1.72a.75.75 0 1 1 1.13-.989l1.505 1.721a.25.25 0 0 0 .39-.018l3.598-4.981a.75.75 0 0 1 1.048-.169"/></svg>