<svg width="24" height="24" fill="currentColor" viewBox="0 0 24 24" xmlns="http://www.w3.org/2000/svg"><path fill-rule="evenodd" d="M8.037 2.408a2.32 2.32 0 0 1 .9-.158h6.126c.302 0 .602.036.9.158.299.122.54.31.762.53l4.337 4.337c.22.221.408.463.53.762.123.298.158.598.158.9v6.126c0 .313-.039.616-.163.914a2.32 2.32 0 0 1-.525.748l-4.337 4.337a2.317 2.317 0 0 1-.762.53 2.32 2.32 0 0 1-.9.158H8.937c-.313 0-.616-.039-.914-.163a2.319 2.319 0 0 1-.748-.525l-4.337-4.337a2.317 2.317 0 0 1-.53-.762 2.32 2.32 0 0 1-.158-.9V8.937c0-.313.039-.616.163-.914a2.32 2.32 0 0 1 .525-.748l4.337-4.337c.221-.22.463-.408.762-.53m7.736 6.284a.75.75 0 0 1 .168 1.047l-3.597 4.981a1.75 1.75 0 0 1-2.736.128l-1.506-1.72a.75.75 0 1 1 1.13-.989l1.505 1.721a.25.25 0 0 0 .39-.018l3.598-4.981a.75.75 0 0 1 1.048-.169"/></svg>