<svg width="24" height="24" fill="currentColor" viewBox="0 0 24 24" xmlns="http://www.w3.org/2000/svg"><path fill-rule="evenodd" d="M11.25 3a.75.75 0 0 1 .75-.75 9.72 9.72 0 0 1 3.792.765.75.75 0 1 1-.584 1.382A8.222 8.222 0 0 0 12 3.75a.75.75 0 0 1-.75-.75m-2.06.414a.75.75 0 0 1-.398.983 8.264 8.264 0 0 0-2.626 1.77.75.75 0 0 1-1.06-1.061 9.764 9.764 0 0 1 3.102-2.091.75.75 0 0 1 .983.399m8.644 1.692a.75.75 0 0 1 1.06 0 9.766 9.766 0 0 1 2.091 3.102.75.75 0 0 1-1.382.584 8.264 8.264 0 0 0-1.77-2.626.75.75 0 0 1 0-1.06M3.998 7.809a.75.75 0 0 1 .399.983A8.222 8.222 0 0 0 3.75 12a.75.75 0 0 1-1.5 0 9.72 9.72 0 0 1 .765-3.792.75.75 0 0 1 .983-.399M21 11.25a.75.75 0 0 1 .75.75 9.723 9.723 0 0 1-.765 3.792.75.75 0 0 1-1.382-.584A8.221 8.221 0 0 0 20.25 12a.75.75 0 0 1 .75-.75M3.414 14.81a.75.75 0 0 1 .983.398 8.263 8.263 0 0 0 1.77 2.626.75.75 0 0 1-1.061 1.06 9.764 9.764 0 0 1-2.091-3.102.75.75 0 0 1 .399-.983m15.48 3.024a.75.75 0 0 1 0 1.06 9.765 9.765 0 0 1-3.102 2.091.75.75 0 0 1-.584-1.382 8.263 8.263 0 0 0 2.626-1.77.75.75 0 0 1 1.06 0M7.81 20.002a.75.75 0 0 1 .983-.399A8.22 8.22 0 0 0 12 20.25a.75.75 0 0 1 0 1.5 9.723 9.723 0 0 1-3.792-.765.75.75 0 0 1-.399-.983"/></svg>