<svg width="24" height="24" fill="currentColor" viewBox="0 0 24 24" xmlns="http://www.w3.org/2000/svg"><path d="M12.103 4.552c2 .614 3.66 2.175 4.493 4.836 2.05.177 3.997 1.285 5.063 2.803.59.842.932 1.844.82 2.9-.113 1.066-.677 2.087-1.713 2.975-1.116.957-2.676 1.184-3.894 1.184H16a.754.754 0 0 0 .75-.75V17a.75.75 0 0 0-1.5 0v1.5c0 .413.338.747.75.75h-3.25V19a.75.75 0 0 0-1.5 0v.25H8a.757.757 0 0 0 .75-.75V17a.75.75 0 0 0-1.5 0v1.5a.75.75 0 0 0 .735.75 6.14 6.14 0 0 1-4.68-2.211c-2-2.263-2.423-4.666-1.772-6.796.64-2.09 2.28-3.812 4.216-4.86 1.935-1.046 4.267-1.472 6.354-.831M7.25 13v1.5a.75.75 0 0 0 1.5 0V13a.75.75 0 0 0-1.5 0m4 2v1.5a.75.75 0 0 0 1.5 0V15a.75.75 0 0 0-1.5 0m4-2v1.5a.75.75 0 0 0 1.5 0V13a.75.75 0 0 0-1.5 0m-4 7.5v-1.25h1.5v1.25a.75.75 0 0 1-1.5 0M8 19.25c.003 0-.003 0 0 0"/></svg>