<svg width="24" height="24" fill="currentColor" viewBox="0 0 24 24" xmlns="http://www.w3.org/2000/svg"><path d="M16.596 9.388c-.832-2.66-2.494-4.222-4.493-4.836-2.087-.641-4.42-.215-6.354.832s-3.576 2.77-4.216 4.859c-.651 2.13-.228 4.533 1.773 6.796a6.14 6.14 0 0 0 4.72 2.211h3.813a1 1 0 0 1-.048-.148l-1.044-4.89-.013-.076a.75.75 0 0 1 1.46-.311l.02.074 1.044 4.89a.75.75 0 0 1-.049.461h2.187l-.65-3.039-.012-.075a.75.75 0 0 1 1.46-.311l.02.074.715 3.35c1.209-.006 2.738-.24 3.837-1.183 1.036-.888 1.6-1.91 1.713-2.974.112-1.057-.23-2.06-.82-2.9-1.065-1.52-3.012-2.627-5.063-2.804m-9.272 1.934a.75.75 0 0 1 .87.503l.02.074 1.044 4.89.011.076a.75.75 0 0 1-1.478.237l-1.044-4.89-.013-.076a.75.75 0 0 1 .59-.814"/><path d="m15.396 19.25.395 1.852a.75.75 0 0 0 1.467-.314l-.329-1.538zm-3.557 0h1.37a.75.75 0 0 1-1.37 0"/></svg>