<svg width="24" height="24" fill="currentColor" viewBox="0 0 24 24" xmlns="http://www.w3.org/2000/svg"><path d="M16.596 8.388c-.832-2.66-2.494-4.222-4.493-4.836-2.087-.641-4.42-.215-6.354.832s-3.576 2.77-4.216 4.859c-.651 2.13-.228 4.533 1.773 6.796a6.14 6.14 0 0 0 4.72 2.211h4.012l-1.209 2.414a.75.75 0 1 0 1.342.672l1.544-3.086h3.157c1.218 0 2.778-.227 3.894-1.184 1.036-.888 1.6-1.91 1.713-2.974.112-1.057-.23-2.06-.82-2.9-1.065-1.52-3.012-2.627-5.063-2.804m-2.881 9.862h-1.677l.75-1.5H9a.75.75 0 0 1-.67-1.085l2.5-5a.75.75 0 0 1 1.342.67l-1.958 3.916h3.788a.75.75 0 0 1 .67 1.085z"/></svg>