<svg width="24" height="24" fill="currentColor" viewBox="0 0 24 24" xmlns="http://www.w3.org/2000/svg"><path fill-rule="evenodd" d="M16.596 8.388c-.832-2.66-2.494-4.222-4.493-4.836-2.087-.641-4.42-.215-6.354.832-1.935 1.047-3.576 2.77-4.216 4.859-.651 2.13-.228 4.533 1.773 6.796a6.143 6.143 0 0 0 4.72 2.211h3.19V20a.75.75 0 0 0 1.5 0v-1.75h4.156c1.218 0 2.778-.227 3.894-1.184 1.036-.888 1.6-1.91 1.713-2.974.112-1.057-.23-2.06-.82-2.9-1.065-1.52-3.012-2.627-5.063-2.804m-3.88 9.862-.004-5.303 1.902 1.902a.75.75 0 0 0 1.06-1.061l-3.182-3.182a.75.75 0 0 0-1.06 0L8.25 13.788a.75.75 0 0 0 1.06 1.06l1.902-1.902.003 5.304z"/></svg>