<svg width="24" height="24" fill="currentColor" viewBox="0 0 24 24" xmlns="http://www.w3.org/2000/svg"><path d="M14.555 2.815c-1.47-.69-3.155-.703-4.696-.28-1.541.421-3 1.292-4.043 2.456C4.86 6.056 4.227 7.4 4.252 8.88c-1.43 1.154-2.535 2.726-2.886 4.532-.382 1.97.155 4.112 1.948 6.136a6.14 6.14 0 0 0 4.712 2.203h8.846c1.217 0 2.778-.227 3.894-1.184l.256-.23c1.223-1.167 1.657-2.524 1.414-3.847-.18-.972-.712-1.852-1.434-2.573q.104-.072.203-.151l.166-.14c.805-.706 1.263-1.519 1.36-2.383.102-.915-.211-1.772-.735-2.478-.93-1.257-2.607-2.158-4.366-2.32-.613-1.796-1.713-2.988-3.075-3.629m-.639 1.358c1.05.494 1.964 1.473 2.43 3.19a.75.75 0 0 0 .724.553c1.522 0 2.997.765 3.721 1.741.353.477.5.964.45 1.418-.045.391-.245.846-.747 1.32l-.234.206a2.3 2.3 0 0 1-.54.316 7 7 0 0 0-.76-.401l-.39-.165a7.2 7.2 0 0 0-1.975-.462c-.927-2.966-2.88-4.554-5.155-5.004-1.85-.366-3.836.036-5.548.927.184-.647.541-1.263 1.04-1.819.838-.935 2.04-1.66 3.323-2.012 1.284-.351 2.589-.313 3.661.192"/></svg>