<svg width="24" height="24" fill="currentColor" viewBox="0 0 24 24" xmlns="http://www.w3.org/2000/svg"><path d="M16.596 9.388c2.05.177 3.997 1.285 5.063 2.803.59.842.932 1.844.82 2.9-.113 1.066-.677 2.087-1.713 2.975-1.116.957-2.676 1.184-3.894 1.184H8.026c-.656 0-1.3-.105-1.91-.305L3.53 21.53a.75.75 0 0 1-1.06-1.06l2.21-2.21a6.1 6.1 0 0 1-1.374-1.221c-2-2.263-2.424-4.666-1.773-6.796.64-2.09 2.28-3.812 4.216-4.86 1.935-1.046 4.267-1.472 6.354-.831 1.403.431 2.64 1.328 3.54 2.745L20.47 2.47a.75.75 0 1 1 1.06 1.06l-5.175 5.176q.13.328.24.682"/></svg>