<svg width="24" height="24" fill="currentColor" viewBox="0 0 24 24" xmlns="http://www.w3.org/2000/svg"><path d="M16.596 8.388c-.832-2.66-2.494-4.222-4.493-4.836-2.087-.641-4.42-.215-6.354.832s-3.576 2.77-4.216 4.859c-.651 2.13-.228 4.533 1.773 6.796a6.14 6.14 0 0 0 4.003 2.169.8.8 0 0 0-.059.298l.004.5a.75.75 0 1 0 1.5-.012l-.004-.5a.8.8 0 0 0-.043-.244H12a.75.75 0 0 1-.745-.744l-.004-.5a.75.75 0 0 1 1.5-.012l.004.5a.75.75 0 0 1-.743.756h-.002 3.284a.8.8 0 0 0-.043.256l.004.5a.75.75 0 0 0 1.5-.012l-.004-.5a.8.8 0 0 0-.043-.244h.165c1.218 0 2.778-.227 3.894-1.184 1.036-.888 1.6-1.91 1.713-2.974.112-1.057-.23-2.06-.82-2.9-1.065-1.52-3.012-2.627-5.063-2.804m.111 9.862a.75.75 0 0 0-1.414 0zm-8 0a.75.75 0 0 0-1.398-.042q.356.042.717.042zm4.043 2.244a.75.75 0 0 0-1.5.012l.004.5a.75.75 0 0 0 1.5-.012zM7.994 14.25a.75.75 0 0 1 .756.744l.004.5a.75.75 0 0 1-1.5.012l-.004-.5a.75.75 0 0 1 .744-.756m8 0a.75.75 0 0 1 .756.744l.004.5a.75.75 0 0 1-1.5.012l-.004-.5a.75.75 0 0 1 .744-.756"/></svg>