<svg width="24" height="24" fill="currentColor" viewBox="0 0 24 24" xmlns="http://www.w3.org/2000/svg"><path d="m8.305 12-1.297.868v-1.736zm3.178-2.126V7.456l-4.056 2.711 1.804 1.209zm5.1.293-4.066-2.71v2.417l2.252 1.502zm-9.156 3.666 4.056 2.71v-2.417l-2.252-1.502zm5.09.293v2.418l4.066-2.711-1.814-1.209zM12 10.772 10.167 12 12 13.229 13.833 12zM21.75 12c0 5.363-4.387 9.75-9.75 9.75-5.362 0-9.75-4.387-9.75-9.75 0-5.362 4.388-9.75 9.75-9.75 5.363 0 9.75 4.388 9.75 9.75m-3.724-1.901-.02-.098c-.01-.01-.01-.02-.02-.039l-.038-.078-.04-.058-.029-.03-.029-.019v-.02l-.039-.019-.01-.01-5.508-3.666a.52.52 0 0 0-.576 0L6.2 9.728v.01l-.049.02v.019l-.03.02-.029.029-.01.029-.029.03-.058.116v.049h-.01l-.01.049V13.9l.01.049h.01v.049c.01.01.01.02.02.039l.038.078.04.058.029.03.029.019v.02l.039.019.01.01 5.518 3.676a.5.5 0 0 0 .283.078c.098 0 .205-.03.293-.078l5.508-3.676.01-.01.039-.02v-.019l.03-.02.029-.029.039-.058.058-.117v-.049h.01l.01-.049zm-1.034 2.769v-1.736L15.695 12z"/></svg>