<svg width="24" height="24" fill="currentColor" viewBox="0 0 24 24" xmlns="http://www.w3.org/2000/svg"><path d="M8.037 2.408a2.3 2.3 0 0 1 .9-.158h6.126c.302 0 .602.036.9.158s.54.31.762.53l4.337 4.337c.22.221.408.463.53.762.123.298.158.598.158.9v6.126c0 .313-.039.616-.163.914a2.3 2.3 0 0 1-.525.748l-4.337 4.337a2.3 2.3 0 0 1-.762.53 2.3 2.3 0 0 1-.9.158H8.937c-.313 0-.616-.039-.914-.163a2.3 2.3 0 0 1-.748-.525l-4.337-4.337a2.3 2.3 0 0 1-.53-.762 2.3 2.3 0 0 1-.158-.9V8.937c0-.313.039-.616.163-.914a2.3 2.3 0 0 1 .525-.748l4.337-4.337c.221-.22.463-.408.762-.53m5.76 5.786a.75.75 0 1 0-1.45-.388l-2.143 8a.75.75 0 0 0 1.449.388zm1.641.975a.75.75 0 1 0-1.06 1.06l.131.132c.527.526.867.869 1.085 1.155.205.268.23.396.23.484s-.025.216-.23.484c-.218.286-.558.629-1.085 1.155l-.131.131a.75.75 0 0 0 1.06 1.061l.167-.167c.482-.48.895-.894 1.181-1.27.307-.402.537-.846.537-1.394s-.23-.992-.537-1.394c-.286-.376-.7-.789-1.18-1.27zm-5.816 0a.75.75 0 0 0-1.06 0l-.167.167c-.481.48-.895.894-1.181 1.27-.307.402-.537.846-.537 1.394s.23.992.537 1.394c.286.376.7.79 1.18 1.27l.168.167a.75.75 0 1 0 1.06-1.06l-.131-.132c-.527-.526-.867-.869-1.085-1.155-.205-.268-.23-.396-.23-.484s.025-.216.23-.484c.218-.286.558-.629 1.085-1.155l.131-.131a.75.75 0 0 0 0-1.06"/></svg>