<svg width="24" height="24" fill="currentColor" viewBox="0 0 24 24" xmlns="http://www.w3.org/2000/svg"><path fill-rule="evenodd" d="M13.841 2.887c.549.46.89 1.148.89 2.002 0 .384.255.796.701 1.058.446.262.918.279 1.245.088a.678.678 0 0 1 .023-.013c.733-.395 1.49-.422 2.15-.178.642.238 1.154.716 1.477 1.273.324.558.485 1.241.365 1.92-.124.698-.538 1.336-1.258 1.773l-.011.007c-.317.185-.547.613-.547 1.154 0 .536.226.961.539 1.15.734.4 1.158 1.027 1.29 1.721.129.676-.027 1.367-.343 1.933-.317.567-.826 1.062-1.474 1.313-.668.259-1.437.236-2.189-.169l-.022-.012c-.405-.236-.86-.187-1.261.09-.418.286-.685.762-.685 1.218 0 .824-.36 1.48-.904 1.916-.525.42-1.194.614-1.83.619-.637.005-1.31-.179-1.84-.6-.552-.438-.906-1.101-.906-1.935 0-.434-.266-.909-.695-1.202-.414-.285-.868-.33-1.252-.106a.882.882 0 0 1-.022.012c-.734.396-1.49.423-2.15.178-.643-.237-1.154-.715-1.478-1.273-.323-.557-.485-1.24-.364-1.919.123-.698.537-1.337 1.258-1.773l.01-.007c.318-.185.547-.612.547-1.15 0-.537-.23-.964-.547-1.15a.74.74 0 0 1-.04-.025c-1.397-.94-1.453-2.579-.85-3.692.305-.564.801-1.052 1.449-1.29.666-.244 1.422-.196 2.165.204a.748.748 0 0 1 .022.013c.346.201.818.18 1.253-.078.438-.26.693-.674.694-1.068 0-.84.346-1.52.887-1.977.524-.445 1.198-.655 1.845-.662.647-.006 1.327.19 1.858.637M8.75 12a3.25 3.25 0 1 1 6.5 0 3.25 3.25 0 0 1-6.5 0"/></svg>