<svg width="24" height="24" fill="currentColor" viewBox="0 0 24 24" xmlns="http://www.w3.org/2000/svg"><path fill-rule="evenodd" d="M12 2.25a.75.75 0 0 1 .75.75v1.085a7.95 7.95 0 0 1 2.558.686l.543-.94a.75.75 0 1 1 1.298.75l-.542.94a7.95 7.95 0 0 1 1.872 1.872l.94-.542a.75.75 0 0 1 .75 1.299l-.94.542a7.944 7.944 0 0 1 .686 2.558h1.084a.75.75 0 1 1 .001 1.5h-1.085a7.949 7.949 0 0 1-.69 2.566l.939.531a.75.75 0 1 1-.74 1.306l-.95-.539a7.95 7.95 0 0 1-1.867 1.865l.543.94a.75.75 0 1 1-1.3.75l-.542-.94a7.945 7.945 0 0 1-2.558.686v1.084a.75.75 0 1 1-1.5.001v-1.085a7.95 7.95 0 0 1-2.558-.686l-.542.94a.75.75 0 0 1-1.3-.75l.543-.94a7.95 7.95 0 0 1-1.867-1.865l-.95.538a.75.75 0 1 1-.74-1.305l.938-.531a7.949 7.949 0 0 1-.689-2.567l-1.084.001A.75.75 0 0 1 3 11.25h1.086a7.95 7.95 0 0 1 .685-2.558l-.94-.543a.75.75 0 1 1 .75-1.299l.94.543a7.95 7.95 0 0 1 1.872-1.872l-.542-.94a.75.75 0 0 1 1.299-.75l.542.94a7.95 7.95 0 0 1 2.558-.686V3a.75.75 0 0 1 .75-.75m-.75 3.344a6.45 6.45 0 0 0-5.165 8.979L8.9 12.978a3.251 3.251 0 0 1 2.35-4.141zm1.5 3.243a3.251 3.251 0 0 1 2.35 4.141l2.815 1.595a6.45 6.45 0 0 0-5.165-8.98zm4.41 7.033-2.83-1.604a3.24 3.24 0 0 1-2.33.984 3.24 3.24 0 0 1-2.33-.984L6.84 15.87a6.45 6.45 0 0 0 10.32 0"/></svg>