<svg width="24" height="24" fill="currentColor" viewBox="0 0 24 24" xmlns="http://www.w3.org/2000/svg"><path d="M12 3.032a.75.75 0 0 1 .75.75v3.715c.428-.109.867-.296 1.371-.51q.219-.094.455-.192c.952-.395 2.122-.801 3.441-.374 1.37.444 2.474 1.472 3.203 3.157.718 1.66 1.081 3.97 1.024 7.062-.023 1.255-.34 3.057-1.996 3.78-1.789.782-3.198-.024-4.296-.774q-.253-.174-.483-.337c-.376-.265-.72-.507-1.089-.714-.499-.28-.957-.44-1.431-.44H11.05c-.475 0-.935.16-1.435.44-.37.207-.716.45-1.094.716q-.229.162-.48.334c-1.097.748-2.506 1.555-4.29.776-1.656-.724-1.973-2.526-1.996-3.78-.057-3.093.306-5.403 1.024-7.063.73-1.685 1.833-2.713 3.203-3.157 1.32-.427 2.489-.02 3.441.374q.237.098.455.192c.504.214.943.401 1.371.51V3.782a.75.75 0 0 1 .75-.75M8.25 11.5a.75.75 0 0 0-1.5 0v.75H6a.75.75 0 0 0 0 1.5h.75v.75a.75.75 0 0 0 1.5 0v-.75H9a.75.75 0 0 0 0-1.5h-.75zm6.624.75a.75.75 0 0 0 0 1.5h3a.75.75 0 0 0 0-1.5z"/></svg>