<svg width="24" height="24" fill="currentColor" viewBox="0 0 24 24" xmlns="http://www.w3.org/2000/svg"><path d="M17.125 2.33a.75.75 0 0 1 1.006.335C19.506 5.415 20.25 8.652 20.25 12c0 3.355-.746 6.465-2.113 9.324a.75.75 0 1 1-1.354-.648A19.9 19.9 0 0 0 18.75 12c0-3.132-.697-6.136-1.96-8.665a.75.75 0 0 1 .335-1.006m-4.29 1.905a.75.75 0 0 1 .99.38C14.823 6.86 15.45 9.483 15.45 12c0 2.522-.63 5.026-1.625 7.265a.75.75 0 1 1-1.37-.61c.925-2.08 1.495-4.377 1.495-6.655 0-2.283-.573-4.7-1.495-6.775a.75.75 0 0 1 .38-.99m-4.35 2.174a.75.75 0 0 1 1.006.335c.781 1.563 1.16 3.482 1.16 5.256a12.5 12.5 0 0 1-1.15 5.234.75.75 0 0 1-1.362-.628A11 11 0 0 0 9.15 12c0-1.586-.342-3.267-1-4.585a.75.75 0 0 1 .335-1.006m-4.28 2.022a.75.75 0 0 1 .984.394c.398.927.66 2.107.66 3.175 0 1.08-.268 2.142-.66 3.056a.75.75 0 1 1-1.378-.591c.328-.766.539-1.626.539-2.465 0-.852-.217-1.832-.54-2.584a.75.75 0 0 1 .395-.985"/></svg>