<svg width="24" height="24" fill="currentColor" viewBox="0 0 24 24" xmlns="http://www.w3.org/2000/svg"><path d="M11.652 2.25c.759-.026 1.116.724.951 1.264a3.14 3.14 0 0 0 .027 1.75c.182.544.526.915 1.183.973.554.05.983.569.872 1.15-.145.758.004 1.267.254 1.548.236.266.718.502 1.649.372.66-.092 1.185.488 1.098 1.104-.091.655.15 1.103.501 1.314.363.219 1.075.321 2.177-.234.592-.298 1.414.095 1.385.88-.197 5.213-4.485 9.379-9.746 9.379a9.75 9.75 0 0 1-9.753-9.753c0-5.269 4.178-9.561 9.402-9.746M8.884 8.53a.75.75 0 1 0-1.06-1.06l-.354.353a.75.75 0 0 0 1.06 1.06zm4 4a.75.75 0 1 0-1.06-1.06l-.354.353a.75.75 0 0 0 1.06 1.06zm-5 1a.75.75 0 1 0-1.06-1.06l-.354.353a.75.75 0 0 0 1.06 1.06zm8 3a.75.75 0 1 0-1.06-1.06l-.354.353a.75.75 0 0 0 1.06 1.06zm-5 1a.75.75 0 1 0-1.06-1.06l-.354.353a.75.75 0 0 0 1.06 1.06z"/></svg>