<svg width="24" height="24" fill="currentColor" viewBox="0 0 24 24" xmlns="http://www.w3.org/2000/svg"><path d="M2.25 12c0-5.385 4.365-9.75 9.75-9.75s9.75 4.365 9.75 9.75-4.365 9.75-9.75 9.75S2.25 17.385 2.25 12m8.085-2.53c.373-.466.763-.72 1.415-.72.766 0 1.33.353 1.73.928.416.598.649 1.44.649 2.322s-.233 1.724-.648 2.322c-.4.575-.965.928-1.731.928-.652 0-1.042-.254-1.415-.72a.75.75 0 1 0-1.17.94c.587.732 1.377 1.28 2.585 1.28 1.32 0 2.32-.647 2.962-1.572.627-.902.917-2.06.917-3.178s-.29-2.276-.917-3.178C14.07 7.897 13.07 7.25 11.75 7.25c-1.208 0-1.998.548-2.585 1.28a.75.75 0 0 0 1.17.94"/></svg>