<svg width="24" height="24" fill="currentColor" viewBox="0 0 24 24" xmlns="http://www.w3.org/2000/svg"><path d="M6.569 2.25h6.362c.604 0 1.102 0 1.508.033.421.035.809.109 1.173.294a3 3 0 0 1 1.311 1.311c.186.364.26.752.294 1.173.033.406.033.904.033 1.508v.181h.4c.503 0 .918 0 1.257.023.352.024.678.076.991.205a3 3 0 0 1 1.624 1.624c.13.313.18.639.205.99.023.34.023.755.023 1.257v.052c0 .502 0 .917-.023 1.256a3.2 3.2 0 0 1-.189.95 12.43 12.43 0 0 1-8.236 8.37l-.189.059a3.1 3.1 0 0 1-.956.19c-.34.024-.754.024-1.256.024h-.052c-.502 0-.917 0-1.256-.023-.352-.024-.678-.076-.991-.205a3 3 0 0 1-1.624-1.624c-.13-.313-.18-.639-.205-.99-.023-.34-.023-.755-.023-1.257v-.401h-.18c-.604 0-1.103 0-1.509-.033-.421-.035-.809-.108-1.173-.294a3 3 0 0 1-1.311-1.311c-.185-.364-.26-.752-.294-1.173-.033-.406-.033-.904-.033-1.508V6.569c0-.604 0-1.102.033-1.508.035-.421.109-.809.294-1.173a3 3 0 0 1 1.311-1.311c.364-.185.752-.26 1.173-.294.406-.033.904-.033 1.508-.033M8.25 17.625c0 .534 0 .898.02 1.18.018.276.053.419.094.519a1.5 1.5 0 0 0 .812.812c.1.041.243.076.519.094.282.02.646.02 1.18.02s.898 0 1.18-.02c.276-.018.419-.053.519-.094a1.5 1.5 0 0 0 .812-.812c.041-.1.075-.243.094-.519.02-.282.02-.646.02-1.18v-.026c0-.502 0-.917.023-1.256.024-.352.076-.678.205-.991a3 3 0 0 1 1.624-1.624c.313-.13.639-.18.99-.205.34-.023.755-.023 1.257-.023h.026c.534 0 .898 0 1.18-.02.276-.019.419-.053.519-.094a1.5 1.5 0 0 0 .812-.812c.041-.1.076-.243.094-.519.02-.282.02-.646.02-1.18s0-.898-.02-1.18c-.018-.276-.053-.419-.094-.519a1.5 1.5 0 0 0-.812-.812c-.1-.041-.243-.076-.519-.094-.282-.02-.646-.02-1.18-.02H11.1c-.642 0-1.08 0-1.417.028-.329.027-.497.076-.614.135a1.5 1.5 0 0 0-.656.656c-.06.117-.108.285-.135.614-.027.338-.028.775-.028 1.417z"/></svg>