<svg width="24" height="24" fill="currentColor" viewBox="0 0 24 24" xmlns="http://www.w3.org/2000/svg"><path d="M2.25 12A9.75 9.75 0 0 1 12 2.25a9.7 9.7 0 0 1 6.344 2.346L20.47 2.47a.75.75 0 1 1 1.06 1.06l-2.126 2.126A9.7 9.7 0 0 1 21.75 12 9.75 9.75 0 0 1 12 21.75a9.7 9.7 0 0 1-6.344-2.346L3.53 21.53a.75.75 0 0 1-1.06-1.06l2.126-2.126A9.7 9.7 0 0 1 2.25 12M12 7.25c-1.32 0-2.32.647-2.962 1.572-.628.902-.917 2.06-.917 3.178 0 .8.149 1.622.463 2.355l1.18-1.18A4.8 4.8 0 0 1 9.622 12c0-.883.233-1.724.648-2.322.4-.575.965-.928 1.73-.928.652 0 1.043.254 1.416.72l.025.03 1.065-1.066C13.927 7.75 13.155 7.25 12 7.25m2.585 8.22a.75.75 0 0 0-1.17-.94c-.373.466-.763.72-1.415.72a1.98 1.98 0 0 1-1.523-.666l-1.061 1.06A3.47 3.47 0 0 0 12 16.75c1.208 0 1.998-.548 2.585-1.28"/></svg>