<svg width="24" height="24" fill="currentColor" viewBox="0 0 24 24" xmlns="http://www.w3.org/2000/svg"><path d="M21.46 4.408a.75.75 0 0 1 .132 1.052L18.58 9.337a1.087 1.087 0 0 1-1.64.075l-1.485-1.575a.75.75 0 1 1 1.092-1.029l1.15 1.22 2.712-3.488a.75.75 0 0 1 1.052-.132"/><path d="M6.17 4.25h6.33a.75.75 0 0 1 0 1.5H6.2c-.572 0-.957 0-1.253.025-.287.023-.424.065-.515.111-.235.12-.426.311-.546.546-.046.09-.088.228-.111.515-.024.296-.025.68-.025 1.253v.05h8.75a.75.75 0 0 1 0 1.5H3.75v6.05c0 .573 0 .957.025 1.252.023.288.065.425.111.515.12.236.312.427.546.547.09.046.228.088.515.111.295.024.679.025 1.25.025h11.606c.571 0 .955 0 1.25-.025.287-.023.424-.065.514-.111.235-.12.427-.312.547-.547.046-.09.088-.227.111-.514.024-.295.025-.678.025-1.25V11a.75.75 0 0 1 1.5 0v4.834c0 .533 0 .978-.03 1.342-.03.38-.098.735-.27 1.072a2.75 2.75 0 0 1-1.202 1.203c-.337.171-.693.238-1.073.27-.363.029-.808.029-1.341.029H6.166c-.533 0-.978 0-1.342-.03-.38-.03-.736-.098-1.073-.27a2.75 2.75 0 0 1-1.201-1.202c-.172-.337-.24-.693-.27-1.073-.03-.364-.03-.81-.03-1.344V8.17c0-.534 0-.98.03-1.345.03-.38.098-.736.27-1.074a2.75 2.75 0 0 1 1.2-1.201c.338-.172.694-.24 1.074-.27.365-.03.81-.03 1.345-.03"/><path d="M5.25 15c0 .414.336.75.75.75h4a.75.75 0 0 0 0-1.5H6a.75.75 0 0 0-.75.75"/></svg>