<svg width="24" height="24" fill="currentColor" viewBox="0 0 24 24" xmlns="http://www.w3.org/2000/svg"><path d="M5.046 2.737A2.58 2.58 0 0 1 6.6 2.25c.649 0 1.199.181 1.623.55.413.358.634.83.757 1.28.166.609.181 1.32.177 1.902.215.081.41.2.585.356.334.297.544.685.696 1.052l.805 1.765c.957-.042 1.89.475 2.507 1.086.624.617 1.154 1.557 1.1 2.53l1.758.79c.368.152.757.362 1.054.697.156.175.275.37.356.585.582-.005 1.293.011 1.902.177.45.123.922.344 1.28.757.369.424.55.974.55 1.623 0 .6-.173 1.123-.487 1.553-.309.422-.725.718-1.162.925-.684.323-1.487.463-2.225.506-.092.206-.213.4-.372.573-.554.609-1.389.793-2.354.793a.665.665 0 0 1-.035 0c-1.6-.076-3.201-.734-4.456-1.71a2.3 2.3 0 0 1-.35.15c-.545.182-1.12.152-1.657.016-1.06-.27-2.143-1.001-3.003-1.858-.86-.857-1.595-1.938-1.863-3-.136-.539-.161-1.116.026-1.663.041-.118.09-.233.15-.342-.976-1.255-1.636-2.859-1.711-4.458L2.25 8.85c0-.965.184-1.8.793-2.354a2.13 2.13 0 0 1 .573-.372c.043-.738.183-1.541.506-2.225.207-.437.503-.853.924-1.162m-.555 4.675c-.225.048-.356.117-.438.192-.13.12-.3.407-.303 1.228.06 1.205.554 2.458 1.303 3.468l4.77-2.644L9.068 8a.759.759 0 0 1-.012-.026c-.117-.286-.221-.436-.31-.515C8.68 7.4 8.59 7.35 8.4 7.35H5.25a3.843 3.843 0 0 0-.759.062M11.7 18.948c1.01.75 2.262 1.241 3.468 1.302.82-.002 1.108-.172 1.228-.303.075-.082.144-.213.192-.438a3.846 3.846 0 0 0 .062-.759V15.6c0-.191-.05-.28-.108-.345-.08-.09-.23-.194-.516-.311a.745.745 0 0 1-.023-.01l-1.663-.749z"/></svg>