<svg width="24" height="24" fill="currentColor" viewBox="0 0 24 24" xmlns="http://www.w3.org/2000/svg"><path d="M18.135 14.75H15.65l-.785 5.5h1.75c.466 0 .594-.078.632-.11.034-.029.139-.141.207-.619zm-4.786 5.5.786-5.5h-4.27l.785 5.5zm-4.214 0-.786-5.5H5.865l.681 4.77c.066.462.16.58.199.613.033.03.158.117.64.117zm-4.824-5.772c-1.407-.876-2.061-2.671-2.061-4.144 0-1.89 1.265-3.46 2.978-4.1a.04.04 0 0 0 .016-.013l.005-.011.001-.002c0-1.74 1.518-3.041 3.25-3.041.224 0 .433.026.605.052l.151.023c.113.017.204.031.302.04.247.025.374.001.49-.07A6.6 6.6 0 0 1 13.5 2.25c3.389 0 6.25 2.533 6.25 5.792 0 .091.029.187.147.335.121.15.28.29.505.49q.046.039.095.084c.496.439 1.253 1.127 1.253 2.3 0 1.382-.705 2.754-2.073 3.317l-.738 5.166c-.084.588-.261 1.162-.724 1.553-.46.387-1.046.463-1.6.463h-9.23c-.595 0-1.188-.094-1.64-.5-.448-.4-.605-.97-.684-1.518z"/></svg>