<svg width="24" height="24" fill="currentColor" viewBox="0 0 24 24" xmlns="http://www.w3.org/2000/svg"><path d="M21.75 14.6c0 1.107 0 1.984-.057 2.688-.058.713-.18 1.317-.46 1.868a4.75 4.75 0 0 1-2.077 2.076c-.55.281-1.155.403-1.868.461-.704.058-1.58.057-2.688.057H9.4c-1.107 0-1.983 0-2.688-.057-.713-.058-1.317-.18-1.868-.46a4.75 4.75 0 0 1-2.076-2.077c-.281-.55-.403-1.155-.461-1.868-.058-.704-.057-1.58-.057-2.688v-1.85h19.5zM14.6 2.25c1.107 0 1.984 0 2.688.057.713.058 1.317.18 1.868.46a4.75 4.75 0 0 1 2.076 2.077c.281.55.403 1.155.461 1.868.058.705.057 1.58.057 2.688v1.85h-9v-9zm-3.35 9h-9V9.4c0-1.107 0-1.983.057-2.688.058-.713.18-1.317.46-1.868a4.75 4.75 0 0 1 2.077-2.076c.55-.281 1.155-.403 1.868-.461.705-.058 1.58-.057 2.688-.057h1.85z"/></svg>