<svg width="24" height="24" fill="currentColor" viewBox="0 0 24 24" xmlns="http://www.w3.org/2000/svg"><path d="M11.25 15.75v6H9.4c-1.107 0-1.983 0-2.688-.057-.713-.058-1.317-.18-1.868-.46a4.75 4.75 0 0 1-2.076-2.077c-.281-.55-.403-1.155-.461-1.868-.036-.44-.047-.948-.052-1.538zm10.5-1.15c0 1.107 0 1.984-.057 2.688-.058.713-.18 1.317-.46 1.868a4.75 4.75 0 0 1-2.077 2.076c-.55.281-1.155.403-1.868.461-.704.058-1.58.057-2.688.057h-1.85v-12h9zM11.25 2.25v12h-9V9.4c0-1.107 0-1.983.057-2.688.058-.713.18-1.317.46-1.868a4.75 4.75 0 0 1 2.077-2.076c.55-.281 1.155-.403 1.868-.461.705-.058 1.58-.057 2.688-.057zm3.35 0c1.107 0 1.984 0 2.688.057.713.058 1.317.18 1.868.46a4.75 4.75 0 0 1 2.076 2.077c.281.55.403 1.155.461 1.868.036.44.047.948.052 1.538H12.75v-6z"/></svg>