<svg width="24" height="24" fill="currentColor" viewBox="0 0 24 24" xmlns="http://www.w3.org/2000/svg"><path d="M6.09 3.138C7.637 2.58 9.727 2.25 12 2.25s4.362.33 5.91.888c.772.277 1.449.626 1.947 1.05.496.421.893.99.893 1.692l-.001.077.001.043v12.165c0 .772-.418 1.38-.965 1.823-.54.438-1.265.768-2.06 1.019-1.597.503-3.679.743-5.725.743s-4.128-.24-5.725-.743c-.795-.25-1.52-.581-2.06-1.019-.547-.443-.965-1.051-.965-1.823V6l.001-.043-.001-.077c0-.702.397-1.27.893-1.692.498-.424 1.175-.773 1.946-1.05M4.75 8.226v3.524c0 .664.574 1.363 2.022 1.926 1.386.54 3.287.824 5.228.824s3.842-.285 5.228-.824c1.448-.563 2.022-1.262 2.022-1.926V8.226a7.2 7.2 0 0 1-1.504.703c-1.605.556-3.694.821-5.746.821s-4.141-.265-5.746-.821a7.2 7.2 0 0 1-1.504-.703"/></svg>