<svg width="24" height="24" fill="currentColor" viewBox="0 0 24 24" xmlns="http://www.w3.org/2000/svg"><path d="M21.53 2.47a.75.75 0 0 1 0 1.06l-3.946 3.947c.451 1.187.517 2.208.287 3.124-.238.945-.77 1.694-1.323 2.335-.243.282-.503.556-.75.817l-.1.105a17 17 0 0 0-.788.878c-.48.587-.836 1.179-.985 1.879-.457 2.156-1.96 3.635-3.955 3.635a2.9 2.9 0 0 1-2.393-1.193 3.7 3.7 0 0 1-.533-1.04L3.53 21.53a.75.75 0 0 1-1.06-1.06l6.3-6.3a.752.752 0 0 1 .73-.92q.103 0 .252-.062l.757-.758a.87.87 0 0 0-.146-.62 3 3 0 0 0-.3-.36q-.034-.034-.07-.075a8 8 0 0 1-.385-.43c-.304-.376-.67-.96-.508-1.722.376-1.77 1.779-2.625 3.168-2.494a3.02 3.02 0 0 1 2.367 1.575l1.133-1.132c-.997-1.566-2.849-2.16-4.606-1.839C9.182 5.695 7.5 7.188 7.5 9.618a.75.75 0 0 1-1.5 0c0-3.289 2.342-5.294 4.892-5.76 2.139-.391 4.552.279 5.957 2.232l3.62-3.62a.75.75 0 0 1 1.061 0m-5.14 6.2-1.42 1.42a.75.75 0 0 1-.347.346L11.82 13.24c-.12.258-.294.498-.53.705a4 4 0 0 1-.642.467l-2.333 2.332c.042.593.215 1.08.466 1.417.274.368.658.588 1.19.588 1.115 0 2.138-.801 2.486-2.446.218-1.025.732-1.833 1.292-2.518.28-.34.577-.66.86-.958l.1-.106c.25-.264.485-.512.704-.766.495-.573.85-1.11 1.003-1.72.107-.427.126-.933-.027-1.565m-4.649 2.527 1.745-1.745c-.201-.783-.79-1.176-1.36-1.23-.633-.06-1.341.29-1.56 1.312-.017.083-.01.198.208.466.087.108.183.21.298.333l.089.095c.141.152.315.343.455.555q.068.104.125.214"/></svg>