<svg width="24" height="24" fill="currentColor" viewBox="0 0 24 24" xmlns="http://www.w3.org/2000/svg"><path d="M10.892 3.858c2.532-.463 5.448.561 6.621 3.44.515 1.265.599 2.341.358 3.303-.238.945-.77 1.694-1.323 2.335-.243.282-.503.556-.75.818l-.1.104a17 17 0 0 0-.788.878c-.48.587-.837 1.179-.985 1.88-.457 2.155-1.96 3.634-3.955 3.634a2.9 2.9 0 0 1-2.393-1.193c-.528-.71-.772-1.64-.772-2.598a.75.75 0 0 1 1.5 0c0 .723.186 1.313.476 1.703.274.368.658.588 1.19.588 1.115 0 2.138-.801 2.486-2.446.218-1.025.732-1.833 1.292-2.518.28-.34.577-.66.86-.958l.1-.106c.25-.264.485-.512.704-.766.495-.573.85-1.11 1.003-1.72.149-.594.128-1.342-.292-2.371-.847-2.08-2.965-2.897-4.962-2.532C9.182 5.695 7.5 7.188 7.5 9.618a.75.75 0 0 1-1.5 0c0-3.289 2.342-5.294 4.892-5.76"/><path d="M12.126 8.223c-.633-.06-1.341.29-1.56 1.312-.017.083-.01.198.208.466.087.108.183.21.298.333l.089.095c.141.152.315.343.455.555.585.888.576 2.17-.326 2.962-.403.353-1.042.804-1.79.804a.75.75 0 0 1 0-1.5c.173 0 .455-.129.801-.432.24-.21.313-.628.062-1.008a3 3 0 0 0-.3-.36q-.034-.034-.07-.075a8 8 0 0 1-.385-.43c-.304-.376-.67-.96-.508-1.722.376-1.77 1.779-2.625 3.168-2.494 1.37.13 2.623 1.21 2.775 2.97a.75.75 0 1 1-1.494.128c-.09-1.033-.77-1.542-1.423-1.604"/></svg>