<svg width="24" height="24" fill="currentColor" viewBox="0 0 24 24" xmlns="http://www.w3.org/2000/svg"><path fill-rule="evenodd" d="M4.467 8.63a5.727 5.727 0 0 1 2.938 2.044 5.731 5.731 0 0 1 1.14 3.939c-.023.275.178.672.546.912a3.46 3.46 0 0 1 1.15 4.537A8.282 8.282 0 0 0 12 20.25c2.054 0 3.932-.75 5.376-1.992-.486-.518-.898-1.169-.986-1.958-.09-.816.136-1.396.47-1.864a5.88 5.88 0 0 1 .42-.51l.033-.037c.142-.16.254-.289.347-.428a.798.798 0 0 0-.216-1.107c-.217-.146-.322-.124-.909 0l-.11.024c-.682.144-1.568.249-2.78-.36a5.75 5.75 0 0 1-2.267-8.246 8.255 8.255 0 0 0-6.91 4.858m8.51-6.332A9.865 9.865 0 0 0 12 2.25c-5.385 0-9.75 4.365-9.75 9.75s4.365 9.75 9.75 9.75 9.75-4.365 9.75-9.75c0-4.983-3.739-9.094-8.564-9.679a.755.755 0 0 0-.209-.023"/></svg>