<svg width="24" height="24" fill="currentColor" viewBox="0 0 24 24" xmlns="http://www.w3.org/2000/svg"><path d="M4.467 8.63a5.727 5.727 0 0 1 2.938 2.044 5.731 5.731 0 0 1 1.14 3.939c-.023.275.178.672.546.912a3.46 3.46 0 0 1 1.15 4.537A8.282 8.282 0 0 0 12 20.25c2.054 0 3.932-.75 5.376-1.992-.486-.518-.898-1.169-.986-1.958-.09-.816.136-1.396.47-1.864a5.88 5.88 0 0 1 .42-.51l.033-.037c.142-.16.254-.289.347-.428a.798.798 0 0 0-.216-1.107c-.217-.146-.322-.124-.909 0l-.11.024c-.682.144-1.568.249-2.78-.36a5.75 5.75 0 0 1-2.267-8.246 8.255 8.255 0 0 0-6.91 4.858m8.51-6.332a.78.78 0 0 1 .209.023C18.01 2.906 21.75 7.017 21.75 12c0 5.385-4.365 9.75-9.75 9.75S2.25 17.385 2.25 12a9.75 9.75 0 0 1 10.727-9.702"/></svg>