<svg width="24" height="24" fill="currentColor" viewBox="0 0 24 24" xmlns="http://www.w3.org/2000/svg"><path d="M4.467 8.63a5.73 5.73 0 0 1 2.938 2.044 5.73 5.73 0 0 1 1.14 3.939c-.023.275.178.672.546.912a3.46 3.46 0 0 1 1.15 4.537A8.3 8.3 0 0 0 12 20.25c2.054 0 3.932-.75 5.376-1.992-.486-.518-.898-1.169-.986-1.958-.09-.816.136-1.396.47-1.864a6 6 0 0 1 .42-.51l.033-.037c.142-.16.254-.289.347-.428a.8.8 0 0 0-.216-1.107c-.217-.146-.322-.124-.909 0l-.11.024c-.682.144-1.568.249-2.78-.36a5.75 5.75 0 0 1-2.267-8.246 8.26 8.26 0 0 0-6.91 4.858m8.51-6.332q.105-.003.209.023C18.01 2.906 21.75 7.017 21.75 12c0 5.385-4.365 9.75-9.75 9.75S2.25 17.385 2.25 12 6.615 2.25 12 2.25q.495 0 .977.048"/></svg>