<svg width="24" height="24" fill="currentColor" viewBox="0 0 24 24" xmlns="http://www.w3.org/2000/svg"><path d="M10.008 9.935c0-.597.212-.91.496-1.104.324-.22.83-.342 1.496-.342s1.172.122 1.496.342c.284.193.496.507.496 1.104 0 .388-.335.75-.963 1.06a5 5 0 0 1-1.029.369 5.5 5.5 0 0 1-1.03-.37c-.627-.31-.962-.67-.962-1.06m1.763 2.764c.091-.027.17-.047.229-.062a5.5 5.5 0 0 1 1.03.37c.627.31.962.67.962 1.06 0 .596-.212.91-.496 1.103-.324.22-.83.342-1.496.342s-1.172-.122-1.496-.342c-.284-.193-.496-.507-.496-1.104 0-.388.335-.75.963-1.06a5 5 0 0 1 .8-.307"/><path d="M10.565 2.075a3.33 3.33 0 0 1 2.87 0c.394.189.755.497 1.26.928l.079.066c.48.41.939.604 1.58.655l.102.008c.662.053 1.135.09 1.547.236a3.33 3.33 0 0 1 2.03 2.029c.145.412.182.885.235 1.547l.008.102c.051.641.246 1.1.655 1.58l.066.078c.431.506.74.867.928 1.261a3.33 3.33 0 0 1 0 2.87c-.189.394-.497.755-.928 1.26l-.066.079c-.418.49-.605.951-.655 1.58l-.008.102c-.053.662-.09 1.135-.236 1.547a3.33 3.33 0 0 1-2.029 2.03c-.412.145-.885.182-1.547.235l-.102.008c-.641.051-1.1.246-1.58.655l-.079.066c-.505.431-.866.74-1.26.928a3.33 3.33 0 0 1-2.87 0c-.394-.189-.755-.497-1.26-.928l-.079-.066a2.56 2.56 0 0 0-1.58-.655l-.102-.008c-.662-.053-1.135-.09-1.547-.236a3.33 3.33 0 0 1-2.03-2.029c-.145-.412-.182-.885-.235-1.547l-.008-.102a2.56 2.56 0 0 0-.655-1.58l-.066-.079c-.431-.505-.74-.866-.928-1.26a3.33 3.33 0 0 1 0-2.87c.189-.394.497-.755.928-1.26l.066-.079a2.56 2.56 0 0 0 .655-1.58l.008-.102c.053-.662.09-1.135.236-1.547a3.33 3.33 0 0 1 2.029-2.03c.412-.145.885-.182 1.547-.235l.102-.008a2.56 2.56 0 0 0 1.58-.655l.078-.066c.506-.431.867-.74 1.261-.928M8.75 9.935c0 1.053.803 1.702 1.462 2.065-.66.363-1.462 1.012-1.462 2.065 0 .952.374 1.671 1.04 2.123.624.426 1.428.562 2.21.562s1.586-.136 2.21-.562c.666-.452 1.04-1.17 1.04-2.123 0-1.053-.803-1.702-1.462-2.065.66-.363 1.462-1.012 1.462-2.065 0-.952-.374-1.671-1.04-2.123-.624-.426-1.428-.562-2.21-.562s-1.586.136-2.21.562c-.666.452-1.04 1.17-1.04 2.123"/></svg>