<svg width="24" height="24" fill="currentColor" viewBox="0 0 24 24" xmlns="http://www.w3.org/2000/svg"><path d="M10.008 9.935c0-.597.212-.91.496-1.104.324-.22.83-.342 1.496-.342s1.172.122 1.496.342c.284.193.496.507.496 1.104 0 .388-.335.75-.963 1.06a5 5 0 0 1-1.029.369 5.5 5.5 0 0 1-1.03-.37c-.627-.31-.962-.67-.962-1.06m1.763 2.764c.091-.027.17-.047.229-.062a5.5 5.5 0 0 1 1.03.37c.627.31.962.67.962 1.06 0 .596-.212.91-.496 1.103-.324.22-.83.342-1.496.342s-1.172-.122-1.496-.342c-.284-.193-.496-.507-.496-1.104 0-.388.335-.75.963-1.06a5 5 0 0 1 .8-.307"/><path d="M10.68 2.105a2.63 2.63 0 0 1 2.64 0l.001.001 6.611 3.8A2.65 2.65 0 0 1 21.25 8.2v7.603a2.66 2.66 0 0 1-1.318 2.291l-.003.002-6.608 3.799h-.002a2.63 2.63 0 0 1-2.639 0h-.001l-6.608-3.8h-.003A2.64 2.64 0 0 1 2.75 15.8V8.198a2.66 2.66 0 0 1 1.318-2.291l.003-.002zm-1.93 7.83c0 1.053.803 1.702 1.462 2.065-.66.363-1.462 1.012-1.462 2.065 0 .952.374 1.671 1.04 2.123.624.426 1.428.562 2.21.562s1.586-.136 2.21-.562c.666-.452 1.04-1.17 1.04-2.123 0-1.053-.803-1.702-1.462-2.065.66-.363 1.462-1.012 1.462-2.065 0-.952-.374-1.671-1.04-2.123-.624-.426-1.428-.562-2.21-.562s-1.586.136-2.21.562c-.666.452-1.04 1.17-1.04 2.123"/></svg>