<svg width="24" height="24" fill="currentColor" viewBox="0 0 24 24" xmlns="http://www.w3.org/2000/svg"><path d="M10.092 8.164c-.339.234-.592.614-.592 1.336 0 .47.4.908 1.148 1.282a6 6 0 0 0 1.227.448 6.4 6.4 0 0 0 1.227-.448c.749-.374 1.148-.812 1.148-1.282 0-.722-.253-1.102-.591-1.336-.386-.267-.99-.414-1.784-.414s-1.398.147-1.783.414M9.742 12C8.958 11.561 8 10.774 8 9.5c0-1.153.446-2.023 1.239-2.57.745-.515 1.704-.68 2.636-.68s1.89.165 2.636.68c.793.547 1.239 1.417 1.239 2.57 0 1.274-.957 2.061-1.743 2.5.786.439 1.743 1.226 1.743 2.5 0 1.153-.446 2.023-1.239 2.57-.745.515-1.704.68-2.636.68s-1.89-.165-2.636-.68C8.446 16.523 8 15.653 8 14.5c0-1.274.957-2.061 1.743-2.5m2.133.77a6.4 6.4 0 0 0-1.227.448c-.749.374-1.148.812-1.148 1.282 0 .722.253 1.102.591 1.336.386.266.99.414 1.784.414s1.398-.148 1.784-.414c.338-.234.591-.614.591-1.336 0-.47-.4-.908-1.148-1.282a6 6 0 0 0-1.227-.448"/></svg>