<svg width="24" height="24" fill="currentColor" viewBox="0 0 24 24" xmlns="http://www.w3.org/2000/svg"><path d="M20 20.25a.75.75 0 0 1 0 1.5H4a.75.75 0 0 1 0-1.5zm-8-18c1.258 0 2.204.71 3.076 1.787.86 1.063 1.77 2.634 2.923 4.623l.291.502c.956 1.648 1.724 2.965 2.126 4.025.409 1.078.525 2.111-.132 3.028-.628.876-1.664 1.217-2.908 1.376-1.253.16-2.938.159-5.085.159h-.582c-2.147 0-3.832.001-5.085-.16-1.244-.158-2.28-.5-2.908-1.375-.657-.917-.54-1.95-.132-3.027.403-1.06 1.17-2.378 2.126-4.026l.291-.502C7.155 6.671 8.064 5.1 8.924 4.037 9.796 2.96 10.742 2.25 12 2.25"/></svg>