<svg width="24" height="24" fill="currentColor" viewBox="0 0 24 24" xmlns="http://www.w3.org/2000/svg"><path fill-rule="evenodd" d="M7.125 3.75h9.75c.813 0 1.468 0 2 .043.546.045 1.026.14 1.47.366a3.75 3.75 0 0 1 1.64 1.639c.226.444.32.924.365 1.47.006.08.012.162.016.247a.75.75 0 0 1 .014.336c.013.41.013.879.013 1.417v5.464c0 .813 0 1.469-.043 2-.045.546-.14 1.026-.366 1.47a3.75 3.75 0 0 1-1.639 1.64c-.444.226-.924.32-1.47.365-.532.043-1.187.043-2 .043h-9.75c-.813 0-1.468 0-2-.043-.546-.045-1.026-.14-1.47-.366a3.75 3.75 0 0 1-1.639-1.639c-.226-.444-.32-.924-.365-1.47-.044-.531-.044-1.187-.044-2V9.268c0-.538 0-1.007.013-1.417a.75.75 0 0 1 .014-.336c.005-.085.01-.167.017-.246.044-.547.139-1.027.365-1.471a3.75 3.75 0 0 1 1.639-1.64c.444-.226.924-.32 1.47-.365.532-.043 1.187-.043 2-.043M20.85 7.341l-6.603 4.403c-1.012.674-1.364.895-1.723.981a2.25 2.25 0 0 1-1.048 0c-.359-.086-.711-.307-1.722-.981L3.15 7.34c.038-.423.106-.672.202-.862a2.25 2.25 0 0 1 .984-.984c.197-.1.458-.17.912-.207.463-.037 1.057-.038 1.91-.038h9.685c.852 0 1.447 0 1.91.038.453.037.714.107.912.207.423.216.767.56.983.984.097.19.164.439.202.862"/></svg>