<svg width="24" height="24" fill="currentColor" viewBox="0 0 24 24" xmlns="http://www.w3.org/2000/svg"><path d="M8.914 4.815C10.328 3.702 12.229 3.25 14.5 3.25c2.514 0 4.573.554 6.02 1.942a.75.75 0 1 1-1.04 1.082c-1.05-1.01-2.658-1.524-4.98-1.524-2.098 0-3.613.421-4.659 1.244-.877.69-1.506 1.73-1.834 3.256H14a.75.75 0 0 1 0 1.5H7.796q-.046.59-.046 1.25t.046 1.25H14a.75.75 0 0 1 0 1.5H8.007c.328 1.526.957 2.566 1.834 3.256 1.046.823 2.56 1.244 4.659 1.244 2.322 0 3.93-.515 4.98-1.524a.75.75 0 0 1 1.04 1.082c-1.447 1.388-3.506 1.942-6.02 1.942-2.271 0-4.172-.452-5.586-1.565-1.289-1.014-2.079-2.5-2.436-4.435H4a.75.75 0 0 1 0-1.5h2.292q-.042-.6-.042-1.25t.042-1.25H4a.75.75 0 0 1 0-1.5h2.478c.357-1.934 1.147-3.42 2.436-4.435"/></svg>