<svg width="24" height="24" fill="currentColor" viewBox="0 0 24 24" xmlns="http://www.w3.org/2000/svg"><path fill-rule="evenodd" d="M8.037 2.408a2.32 2.32 0 0 1 .9-.158h6.126c.302 0 .602.036.9.158.299.122.54.31.762.53l4.337 4.337c.22.221.408.463.53.762.123.298.158.598.158.9v6.126c0 .313-.039.616-.163.914a2.32 2.32 0 0 1-.525.748l-4.337 4.337a2.317 2.317 0 0 1-.762.53 2.32 2.32 0 0 1-.9.158H8.937c-.313 0-.616-.039-.914-.163a2.319 2.319 0 0 1-.748-.525l-4.337-4.337a2.317 2.317 0 0 1-.53-.762 2.32 2.32 0 0 1-.158-.9V8.937c0-.313.039-.616.163-.914a2.32 2.32 0 0 1 .525-.748l4.337-4.337c.221-.22.463-.408.762-.53M8.86 8.77c.769-.922 1.918-1.52 3.389-1.52 1.305 0 2.448.287 3.27 1.075a.75.75 0 1 1-1.04 1.083c-.427-.41-1.117-.658-2.23-.658-1.029 0-1.755.402-2.236.98a3.356 3.356 0 0 0-.693 1.52H12a.75.75 0 1 1 0 1.5H9.337c.32 1.366 1.481 2.5 2.913 2.5 1.113 0 1.803-.248 2.23-.658a.75.75 0 0 1 1.04 1.083c-.822.788-1.965 1.075-3.27 1.075-2.394 0-4.1-1.931-4.438-4H7a.75.75 0 1 1 0-1.5h.801c.123-.897.47-1.772 1.06-2.48"/></svg>