<svg width="24" height="24" fill="currentColor" viewBox="0 0 24 24" xmlns="http://www.w3.org/2000/svg"><path fill-rule="evenodd" d="M10.79 1.49a3.16 3.16 0 0 1 3.445.687l7.588 7.588a3.159 3.159 0 0 1 0 4.47l-7.588 7.588a3.159 3.159 0 0 1-4.47 0l-7.588-7.588a3.16 3.16 0 0 1 0-4.47l7.588-7.589a3.16 3.16 0 0 1 1.025-.685M8.861 8.77c.769-.922 1.918-1.52 3.389-1.52 1.305 0 2.448.287 3.27 1.075a.75.75 0 1 1-1.04 1.083c-.427-.41-1.117-.658-2.23-.658-1.029 0-1.755.402-2.236.98a3.356 3.356 0 0 0-.693 1.52H12a.75.75 0 1 1 0 1.5H9.337c.32 1.366 1.481 2.5 2.913 2.5 1.113 0 1.803-.248 2.23-.658a.75.75 0 0 1 1.04 1.083c-.822.788-1.965 1.075-3.27 1.075-2.394 0-4.1-1.931-4.438-4H7a.75.75 0 1 1 0-1.5h.801c.123-.897.47-1.772 1.06-2.48"/></svg>