<svg width="24" height="24" fill="currentColor" viewBox="0 0 24 24" xmlns="http://www.w3.org/2000/svg"><path d="M9.367 2.25h5.266c1.092 0 1.958 0 2.655.057.714.058 1.317.18 1.869.46a4.75 4.75 0 0 1 2.075 2.077c.281.55.403 1.154.461 1.868.057.697.057 1.563.057 2.655v5.266c0 1.092 0 1.958-.057 2.655-.058.714-.18 1.317-.46 1.869a4.75 4.75 0 0 1-2.076 2.075c-.552.281-1.155.403-1.869.461-.697.057-1.563.057-2.655.057H9.367c-1.092 0-1.958 0-2.655-.057-.714-.058-1.317-.18-1.868-.46a4.75 4.75 0 0 1-2.076-2.076c-.281-.552-.403-1.155-.461-1.869-.057-.697-.057-1.563-.057-2.655V9.367c0-1.092 0-1.958.057-2.655.058-.714.18-1.317.46-1.868a4.75 4.75 0 0 1 2.077-2.076c.55-.281 1.154-.403 1.868-.461.697-.057 1.563-.057 2.655-.057m-.506 6.52c-.59.708-.937 1.583-1.06 2.48h-.8A.75.75 0 0 0 7 12.75h.812c.339 2.069 2.044 4 4.438 4 1.305 0 2.448-.287 3.27-1.075a.75.75 0 1 0-1.04-1.083c-.427.41-1.117.658-2.23.658-1.432 0-2.593-1.134-2.913-2.5H12a.75.75 0 0 0 0-1.5H9.321c.11-.573.345-1.102.693-1.52.481-.578 1.207-.98 2.236-.98 1.113 0 1.803.248 2.23.658a.75.75 0 1 0 1.04-1.083c-.822-.788-1.965-1.075-3.27-1.075-1.471 0-2.62.598-3.389 1.52"/></svg>