<svg width="24" height="24" fill="currentColor" viewBox="0 0 24 24" xmlns="http://www.w3.org/2000/svg"><path fill-rule="evenodd" d="M10.565 2.075a3.327 3.327 0 0 1 2.87 0c.394.189.755.497 1.26.928l.079.066c.48.41.939.604 1.58.655l.102.008c.662.053 1.135.09 1.547.236a3.327 3.327 0 0 1 2.03 2.029c.145.412.182.885.235 1.547l.008.102c.051.641.246 1.1.655 1.58l.066.078c.431.506.74.867.928 1.261a3.327 3.327 0 0 1 0 2.87c-.189.394-.497.755-.928 1.26l-.066.079c-.418.49-.605.951-.655 1.58l-.008.102c-.053.662-.09 1.135-.236 1.547a3.327 3.327 0 0 1-2.029 2.03c-.412.145-.885.182-1.547.235l-.102.008c-.641.051-1.1.246-1.58.655l-.079.066c-.505.431-.866.74-1.26.928a3.327 3.327 0 0 1-2.87 0c-.394-.189-.755-.497-1.26-.928l-.079-.066a2.559 2.559 0 0 0-1.58-.655l-.102-.008c-.662-.053-1.135-.09-1.547-.236a3.327 3.327 0 0 1-2.03-2.029c-.145-.412-.182-.885-.235-1.547l-.008-.102a2.559 2.559 0 0 0-.655-1.58l-.066-.079c-.431-.505-.74-.866-.928-1.26a3.327 3.327 0 0 1 0-2.87c.189-.394.497-.755.928-1.26l.066-.079a2.56 2.56 0 0 0 .655-1.58l.008-.102c.053-.662.09-1.135.236-1.547a3.327 3.327 0 0 1 2.029-2.03c.412-.145.885-.182 1.547-.235l.102-.008a2.56 2.56 0 0 0 1.58-.655l.078-.066c.506-.431.867-.74 1.261-.928M8.861 8.77c.769-.922 1.918-1.52 3.389-1.52 1.305 0 2.448.287 3.27 1.075a.75.75 0 1 1-1.04 1.083c-.427-.41-1.117-.658-2.23-.658-1.029 0-1.755.402-2.236.98a3.356 3.356 0 0 0-.693 1.52H12a.75.75 0 1 1 0 1.5H9.337c.32 1.366 1.481 2.5 2.913 2.5 1.113 0 1.803-.248 2.23-.658a.75.75 0 0 1 1.04 1.083c-.822.788-1.965 1.075-3.27 1.075-2.394 0-4.1-1.931-4.438-4H7a.75.75 0 1 1 0-1.5h.801c.123-.897.47-1.772 1.06-2.48"/></svg>