<svg width="24" height="24" fill="currentColor" viewBox="0 0 24 24" xmlns="http://www.w3.org/2000/svg"><path fill-rule="evenodd" d="M10.68 2.105a2.63 2.63 0 0 1 2.64 0l.001.001 6.611 3.8A2.645 2.645 0 0 1 21.25 8.2v7.603a2.66 2.66 0 0 1-1.318 2.291l-.003.002-6.608 3.799h-.002a2.63 2.63 0 0 1-2.639 0h-.001l-6.608-3.8h-.003A2.644 2.644 0 0 1 2.75 15.8V8.198a2.66 2.66 0 0 1 1.318-2.291l.003-.002zM8.861 8.77c.769-.922 1.918-1.52 3.389-1.52 1.305 0 2.448.287 3.27 1.075a.75.75 0 1 1-1.04 1.083c-.427-.41-1.117-.658-2.23-.658-1.029 0-1.755.402-2.236.98a3.356 3.356 0 0 0-.693 1.52H12a.75.75 0 1 1 0 1.5H9.337c.32 1.366 1.481 2.5 2.913 2.5 1.113 0 1.803-.248 2.23-.658a.75.75 0 0 1 1.04 1.083c-.822.788-1.965 1.075-3.27 1.075-2.394 0-4.1-1.931-4.438-4H7a.75.75 0 1 1 0-1.5h.801c.123-.897.47-1.772 1.06-2.48"/></svg>