<svg width="24" height="24" fill="currentColor" viewBox="0 0 24 24" xmlns="http://www.w3.org/2000/svg"><path d="M2.25 12c0-5.385 4.365-9.75 9.75-9.75s9.75 4.365 9.75 9.75-4.365 9.75-9.75 9.75S2.25 17.385 2.25 12m6.611-3.23c-.59.708-.937 1.583-1.06 2.48h-.8A.75.75 0 0 0 7 12.75h.812c.339 2.069 2.044 4 4.438 4 1.305 0 2.448-.287 3.27-1.075a.75.75 0 1 0-1.04-1.083c-.427.41-1.117.658-2.23.658-1.432 0-2.593-1.134-2.913-2.5H12a.75.75 0 0 0 0-1.5H9.321c.11-.573.345-1.102.693-1.52.481-.578 1.207-.98 2.236-.98 1.113 0 1.803.248 2.23.658a.75.75 0 1 0 1.04-1.083c-.822-.788-1.965-1.075-3.27-1.075-1.471 0-2.62.598-3.389 1.52"/></svg>