<svg width="24" height="24" fill="currentColor" viewBox="0 0 24 24" xmlns="http://www.w3.org/2000/svg"><path fill-rule="evenodd" d="M21.53 2.47a.75.75 0 0 1 0 1.06l-18 18a.75.75 0 0 1-1.06-1.06l7.128-7.13 3.743-3.742L20.47 2.47a.75.75 0 0 1 1.06 0"/><path fill-rule="evenodd" d="M12 4.25c-5.082 0-8.542 3.824-10.057 5.903l-.023.031c-.258.355-.468.643-.598 1.142A2.822 2.822 0 0 0 1.25 12c0 .21.017.462.072.674.13.5.34.787.598 1.142l.023.031C3.458 15.926 6.918 19.75 12 19.75c5.082 0 8.542-3.824 10.057-5.903l.023-.031c.258-.355.468-.643.598-1.142A2.82 2.82 0 0 0 22.75 12c0-.21-.017-.462-.072-.674-.13-.5-.34-.787-.598-1.142l-.023-.031C20.542 8.074 17.082 4.25 12 4.25m0 5a2.75 2.75 0 1 0 0 5.5 2.75 2.75 0 0 0 0-5.5"/></svg>