<svg width="24" height="24" fill="currentColor" viewBox="0 0 24 24" xmlns="http://www.w3.org/2000/svg"><path d="M21.53 2.47a.75.75 0 0 0-1.06 0l-3.227 3.227C15.762 4.847 14.007 4.25 12 4.25c-5.082 0-8.542 3.824-10.057 5.903l-.023.031c-.258.355-.468.643-.598 1.142A2.8 2.8 0 0 0 1.25 12c0 .21.017.462.072.674.13.5.34.787.598 1.142l.023.031c.734 1.007 1.924 2.423 3.533 3.616L2.47 20.47a.75.75 0 1 0 1.06 1.06l3.227-3.227c1.481.85 3.236 1.447 5.243 1.447 5.082 0 8.542-3.824 10.057-5.903l.023-.031c.258-.355.468-.643.598-1.142A2.8 2.8 0 0 0 22.75 12c0-.21-.017-.462-.072-.674-.13-.5-.34-.787-.598-1.142l-.023-.031c-.734-1.007-1.924-2.423-3.533-3.616L21.53 3.53a.75.75 0 0 0 0-1.06m-8.19 7.128-3.742 3.743a2.75 2.75 0 0 1 3.742-3.742M14.75 12a2.75 2.75 0 0 1-4.09 2.402l3.742-3.743c.222.397.348.854.348 1.341"/></svg>