<svg width="24" height="24" fill="currentColor" viewBox="0 0 24 24" xmlns="http://www.w3.org/2000/svg"><path d="M19.923 3c-2.81 2.202-4.406 4.157-4.785 5.866-.38 1.709-.436 3.336-.172 4.88H20L11.786 21 4 13.747h4.784C8.808 10.89 9.88 8.46 12 6.46S16.761 3.307 19.923 3"/><path fill-rule="evenodd" d="M20.62 2.721a.75.75 0 0 1-.235.87c-2.793 2.187-4.196 4.003-4.515 5.437-.309 1.393-.39 2.714-.252 3.969H20a.75.75 0 0 1 .497 1.312l-8.214 7.253a.75.75 0 0 1-1.008-.013l-7.786-7.253a.75.75 0 0 1 .511-1.3h4.064c.193-2.747 1.341-5.118 3.421-7.08 2.253-2.126 5.054-3.341 8.366-3.663a.75.75 0 0 1 .768.468"/></svg>