<svg width="24" height="24" fill="currentColor" viewBox="0 0 24 24" xmlns="http://www.w3.org/2000/svg"><path d="M7.275 2.938c.221-.22.463-.408.762-.53a2.3 2.3 0 0 1 .9-.158h6.126c.302 0 .602.036.9.158s.54.31.762.53l4.337 4.337c.22.221.408.463.53.762.123.298.158.598.158.9v6.126c0 .313-.039.616-.163.914a2.3 2.3 0 0 1-.525.748l-4.337 4.337a2.3 2.3 0 0 1-.762.53 2.3 2.3 0 0 1-.9.158H8.937c-.313 0-.616-.039-.914-.163a2.3 2.3 0 0 1-.748-.525l-4.337-4.337a2.3 2.3 0 0 1-.53-.762 2.3 2.3 0 0 1-.158-.9V8.937c0-.313.039-.616.163-.914a2.3 2.3 0 0 1 .525-.748zm1.75 4.482A.75.75 0 0 0 8.75 8v2.852a.75.75 0 0 0 .75.75h2.778c.927 0 1.472.621 1.472 1.152v1.12c0 .453-.19.768-.484.992-.316.239-.774.382-1.269.384s-.95-.139-1.264-.375c-.292-.22-.483-.537-.483-1.001a.75.75 0 0 0-1.5 0c0 .961.434 1.71 1.08 2.198.624.471 1.417.68 2.173.678.755-.003 1.547-.218 2.169-.689a2.67 2.67 0 0 0 1.078-2.187v-1.12c0-1.57-1.444-2.652-2.972-2.652H10.25V8.87c.206.024.441.047.697.066.906.064 2.123.07 3.235-.208a.75.75 0 0 0-.364-1.456c-.749.188-1.601.22-2.356.19a13 13 0 0 1-1.431-.134 11 11 0 0 1-.364-.06.77.77 0 0 0-.642.152"/></svg>