<svg width="24" height="24" fill="currentColor" viewBox="0 0 24 24" xmlns="http://www.w3.org/2000/svg"><path d="m17.411 9.512.012-.006.12-.08c1.13-.804 1.492-2.375.976-3.635l-.12-.256c-.697-1.326-2.32-1.92-3.652-1.178-.032-1.477-1.146-2.772-2.602-2.853L12 1.5c-1.526 0-2.715 1.332-2.748 2.857-1.245-.694-2.745-.22-3.505.93l-.146.248c-.704 1.338-.328 3.144.976 3.97l.022.013-.022.012c-1.304.827-1.68 2.633-.976 3.971l.146.248c.786 1.19 2.366 1.657 3.635.853l.156-.108c.382-.278.867-.738 1.236-1.102.169-.166.325-.326.454-.46l.022-.022v5.106C10.325 17.296 9.024 17 7.4 17a.75.75 0 0 0-.746.673l-.004.077c0 1.436.334 2.686 1.285 3.554.933.852 2.311 1.196 4.065 1.196s3.132-.344 4.066-1.196c.95-.868 1.284-2.118 1.284-3.554a.75.75 0 0 0-.75-.75c-1.624 0-2.925.295-3.85 1.016V12.91l.022.023c.13.133.285.293.454.459.422.416.994.957 1.392 1.21l.128.076c1.332.744 2.955.15 3.653-1.177l.12-.256c.516-1.26.154-2.831-.976-3.635l-.12-.08-.012-.006-.01-.006zm-6.66-.262a1.25 1.25 0 1 1 2.499 0 1.25 1.25 0 0 1-2.5 0"/></svg>