<svg width="24" height="24" fill="currentColor" viewBox="0 0 24 24" xmlns="http://www.w3.org/2000/svg"><path d="M2.25 6v12A2.75 2.75 0 0 0 5 20.75h14A2.75 2.75 0 0 0 21.75 18V9A2.75 2.75 0 0 0 19 6.25h-7.34a1.25 1.25 0 0 1-.826-.312L8.562 3.936a2.75 2.75 0 0 0-1.817-.686H5A2.75 2.75 0 0 0 2.25 6m7.72 5.47a.75.75 0 0 1 1.06 0l.884.884.884-.884a.75.75 0 0 1 1.06 1.06l-.883.884.884.884a.75.75 0 0 1-1.06 1.06l-.885-.883-.884.884a.75.75 0 1 1-1.06-1.06l.884-.885-.884-.884a.75.75 0 0 1 0-1.06"/></svg>