<svg width="24" height="24" fill="currentColor" viewBox="0 0 24 24" xmlns="http://www.w3.org/2000/svg"><path fill-rule="evenodd" d="M2.25 6A2.75 2.75 0 0 1 5 3.25h1.745a2.75 2.75 0 0 1 1.817.686l2.273 2.002c.228.201.522.312.826.312H19A2.75 2.75 0 0 1 21.75 9v9A2.75 2.75 0 0 1 19 20.75H5A2.75 2.75 0 0 1 2.25 18zm7.72 5.47a.75.75 0 0 1 1.06 0l.884.884.884-.884a.75.75 0 0 1 1.06 1.06l-.883.884.884.884a.75.75 0 0 1-1.06 1.06l-.885-.883-.884.884a.75.75 0 1 1-1.06-1.06l.884-.885-.884-.884a.75.75 0 0 1 0-1.06"/></svg>