<svg width="24" height="24" fill="currentColor" viewBox="0 0 24 24" xmlns="http://www.w3.org/2000/svg"><path d="M12 1.75a2.63 2.63 0 0 0-1.32.355l-6.61 3.8-.002.002A2.65 2.65 0 0 0 2.75 8.198v7.603a2.64 2.64 0 0 0 1.318 2.292l.003.002 6.608 3.799h.002a2.63 2.63 0 0 0 2.639 0h.001l6.608-3.8h.003A2.65 2.65 0 0 0 21.25 15.8V8.2a2.65 2.65 0 0 0-1.318-2.292l-6.61-3.8-.002-.002A2.63 2.63 0 0 0 12 1.75M9.603 9.338c.183.112.366.229.532.345.189.133.388.287.581.445l.04.033c.301.245.599.488.811.735.254.295.433.648.433 1.104s-.18.809-.433 1.104c-.212.247-.51.49-.81.736l-.04.032c-.194.158-.393.312-.582.445a10 10 0 0 1-.532.345l-.048.03c-.292.177-.6.365-.88.465a1.4 1.4 0 0 1-.586.09 1.2 1.2 0 0 1-.632-.24c-.368-.278-.504-.672-.569-1.01-.061-.314-.084-.711-.109-1.144l-.003-.046A14 14 0 0 1 6.75 12c0-.254.01-.531.026-.807l.003-.046c.025-.433.048-.83.109-1.145.065-.337.2-.731.57-1.008.18-.136.392-.223.63-.24a1.4 1.4 0 0 1 .588.09c.278.1.587.287.879.465zm5.702-.03.048.03c.183.112.366.229.532.345.189.133.388.287.581.445l.04.033c.301.245.599.488.811.735.254.295.433.648.433 1.104s-.18.809-.433 1.104c-.212.247-.51.49-.81.736l-.04.032c-.194.158-.393.312-.582.445a10 10 0 0 1-.532.345l-.048.03c-.292.177-.6.365-.88.465a1.4 1.4 0 0 1-.586.09 1.2 1.2 0 0 1-.632-.24c-.368-.278-.504-.672-.569-1.01-.061-.314-.084-.711-.109-1.144l-.002-.046A14 14 0 0 1 12.5 12c0-.254.01-.531.027-.807l.002-.046c.025-.433.048-.83.109-1.145.065-.337.2-.731.57-1.008.18-.136.392-.223.63-.24a1.4 1.4 0 0 1 .588.09c.278.1.587.287.879.465"/></svg>