<svg width="24" height="24" fill="currentColor" viewBox="0 0 24 24" xmlns="http://www.w3.org/2000/svg"><path fill-rule="evenodd" d="M2.25 12.044C2.25 6.64 6.612 2.25 12 2.25s9.75 4.389 9.75 9.794v6.517c0 .764-.308 1.57-.8 2.127-.501.567-1.354 1.012-2.287.543-.304-.153-.748-.263-1.202-.273-.464-.01-.831.084-1.044.226-1.126.755-2.708.755-3.834 0-.356-.238-.623-.311-.84-.31-.22.002-.482.08-.826.31-1.126.755-2.708.755-3.834 0-.471-.316-1.05-.303-1.746.047-.933.469-1.786.024-2.287-.543a3.326 3.326 0 0 1-.8-2.126zm14.516.934a.75.75 0 0 1-.017 1.06 8.18 8.18 0 0 1-.536.476l.218.445a2.25 2.25 0 0 1-4.039 1.983l-.273-.557a8.877 8.877 0 0 1-3.801-.087.75.75 0 0 1 .364-1.455c1.13.283 2.429.287 3.746-.066 1.318-.353 2.44-1.005 3.278-1.816a.75.75 0 0 1 1.06.017m-3.027 3.303-.147-.299c.48-.173.937-.381 1.366-.62l.127.258a.75.75 0 0 1-1.346.66M9.329 10a.75.75 0 0 0-1.468.311l.104.49a.75.75 0 0 0 1.467-.312zm4-1.618a.75.75 0 0 1 .89.578l.104.489a.75.75 0 1 1-1.467.312l-.104-.49a.75.75 0 0 1 .578-.889"/></svg>