<svg width="24" height="24" fill="currentColor" viewBox="0 0 24 24" xmlns="http://www.w3.org/2000/svg"><path d="M9.367 2.25c-1.092 0-1.958 0-2.655.057-.714.058-1.317.18-1.868.46a4.75 4.75 0 0 0-2.076 2.077c-.281.55-.403 1.154-.461 1.868-.057.697-.057 1.563-.057 2.655v5.266c0 1.092 0 1.958.057 2.655.058.714.18 1.317.46 1.869a4.75 4.75 0 0 0 2.077 2.075c.55.281 1.154.403 1.868.461.697.057 1.563.057 2.655.057h5.266c1.092 0 1.958 0 2.655-.057.714-.058 1.317-.18 1.869-.46a4.75 4.75 0 0 0 2.075-2.076c.281-.552.403-1.155.461-1.869.057-.697.057-1.563.057-2.655V9.367c0-1.092 0-1.958-.057-2.655-.058-.714-.18-1.317-.46-1.868a4.75 4.75 0 0 0-2.076-2.076c-.552-.281-1.155-.403-1.869-.461-.697-.057-1.563-.057-2.655-.057zm7.4 10.728a.75.75 0 0 1-.018 1.06 8 8 0 0 1-.536.476l.218.445a2.25 2.25 0 0 1-4.039 1.983l-.273-.557a8.9 8.9 0 0 1-3.801-.087.75.75 0 0 1 .364-1.455c1.13.283 2.429.287 3.746-.066s2.44-1.005 3.278-1.816a.75.75 0 0 1 1.06.017m-3.028 3.303-.147-.299q.721-.26 1.366-.62l.127.258a.75.75 0 0 1-1.346.66M9.329 10l.103.489a.75.75 0 1 1-1.467.311l-.104-.489A.75.75 0 1 1 9.328 10m4-1.618a.75.75 0 0 1 .89.578l.104.489a.75.75 0 1 1-1.467.312l-.104-.49a.75.75 0 0 1 .578-.889"/></svg>