<svg width="24" height="24" fill="currentColor" viewBox="0 0 24 24" xmlns="http://www.w3.org/2000/svg"><path fill-rule="evenodd" d="M6.559 4.984c.013.637.457 1.266 1.391 1.266h3.007a6.276 6.276 0 0 0-.439-.855C9.964 4.498 9.152 3.75 7.95 3.75c-.555 0-.89.183-1.085.39a1.184 1.184 0 0 0-.306.844m6.484 1.266h3.007c.541 0 .882-.181 1.09-.396.215-.223.332-.531.332-.854 0-.323-.117-.63-.333-.854-.207-.215-.548-.396-1.089-.396-1.202 0-2.014.748-2.568 1.645-.182.293-.327.59-.44.855m7.707 6.5H21a.75.75 0 0 0 .75-.75V9A2.75 2.75 0 0 0 19 6.25h-.323A2.78 2.78 0 0 0 18.972 5c0-.677-.245-1.37-.754-1.896-.517-.535-1.261-.854-2.168-.854-1.948 0-3.161 1.252-3.844 2.355-.074.12-.142.238-.206.356a7.305 7.305 0 0 0-.206-.356C11.111 3.502 9.898 2.25 7.95 2.25c-.915 0-1.662.317-2.175.86a2.683 2.683 0 0 0-.716 1.906c.009.424.115.85.311 1.234H5A2.75 2.75 0 0 0 2.25 9v3c0 .414.336.75.75.75h.25V19A2.75 2.75 0 0 0 6 21.75h12A2.75 2.75 0 0 0 20.75 19zm-1.5 0h-6.5v7.5H18c.69 0 1.25-.56 1.25-1.25zm-8 7.5v-7.5h-6.5V19c0 .69.56 1.25 1.25 1.25z"/></svg>