<svg width="24" height="24" fill="currentColor" viewBox="0 0 24 24" xmlns="http://www.w3.org/2000/svg"><path d="M6.559 4.984c.013.637.457 1.266 1.391 1.266h3.007a6 6 0 0 0-.439-.855C9.964 4.498 9.152 3.75 7.95 3.75c-.555 0-.89.183-1.085.39a1.18 1.18 0 0 0-.306.844m6.484 1.266h3.007c.541 0 .882-.181 1.09-.396.215-.223.332-.531.332-.854s-.117-.63-.333-.854c-.207-.215-.548-.396-1.089-.396-1.202 0-2.014.748-2.568 1.645-.182.293-.327.59-.44.855m7.707 6.5V19A2.75 2.75 0 0 1 18 21.75H6A2.75 2.75 0 0 1 3.25 19v-6.25H3a.75.75 0 0 1-.75-.75V9A2.75 2.75 0 0 1 5 6.25h.37a2.85 2.85 0 0 1-.311-1.234 2.68 2.68 0 0 1 .716-1.906c.513-.543 1.26-.86 2.175-.86 1.948 0 3.161 1.252 3.844 2.355q.11.18.206.356.096-.176.206-.356c.683-1.103 1.896-2.355 3.844-2.355.907 0 1.651.319 2.168.854.509.527.754 1.219.754 1.896 0 .426-.097.857-.295 1.25H19A2.75 2.75 0 0 1 21.75 9v3a.75.75 0 0 1-.75.75zm-1.5 0h-6.5v7.5H18c.69 0 1.25-.56 1.25-1.25zm-8 7.5v-7.5h-6.5V19c0 .69.56 1.25 1.25 1.25z"/></svg>