<svg width="24" height="24" fill="currentColor" viewBox="0 0 24 24" xmlns="http://www.w3.org/2000/svg"><path d="M12 10.75a1.25 1.25 0 1 0 0 2.5 1.25 1.25 0 0 0 0-2.5"/><path fill-rule="evenodd" d="M10.68 2.105a2.63 2.63 0 0 1 2.64 0l.001.001 6.611 3.8A2.645 2.645 0 0 1 21.25 8.2v7.603a2.66 2.66 0 0 1-1.318 2.291l-.003.002-6.608 3.799h-.002a2.63 2.63 0 0 1-2.639 0h-.001l-6.608-3.8h-.003A2.644 2.644 0 0 1 2.75 15.8V8.198a2.66 2.66 0 0 1 1.318-2.291l.003-.002zM9.354 11.25a2.751 2.751 0 0 1 5.293 0H17a.75.75 0 0 1 0 1.5h-2.354a2.751 2.751 0 0 1-5.292 0H7a.75.75 0 0 1 0-1.5z"/></svg>