<svg width="24" height="24" fill="currentColor" viewBox="0 0 24 24" xmlns="http://www.w3.org/2000/svg"><path d="M12 10.75a1.25 1.25 0 1 0 0 2.5 1.25 1.25 0 0 0 0-2.5"/><path fill-rule="evenodd" d="M8.037 2.408a2.32 2.32 0 0 1 .9-.158h6.126c.302 0 .602.036.9.158.299.122.54.31.762.53l4.337 4.337c.22.221.408.463.53.762.123.298.158.598.158.9v6.126c0 .313-.039.616-.163.914a2.32 2.32 0 0 1-.525.748l-4.337 4.337a2.317 2.317 0 0 1-.762.53 2.32 2.32 0 0 1-.9.158H8.937c-.313 0-.616-.039-.914-.163a2.319 2.319 0 0 1-.748-.525l-4.337-4.337a2.317 2.317 0 0 1-.53-.762 2.32 2.32 0 0 1-.158-.9V8.937c0-.313.039-.616.163-.914a2.32 2.32 0 0 1 .525-.748l4.337-4.337c.221-.22.463-.408.762-.53m1.317 8.842a2.751 2.751 0 0 1 5.293 0H17a.75.75 0 0 1 0 1.5h-2.354a2.751 2.751 0 0 1-5.292 0H7a.75.75 0 0 1 0-1.5z"/></svg>