<svg width="24" height="24" fill="currentColor" viewBox="0 0 24 24" xmlns="http://www.w3.org/2000/svg"><path d="M19.955 6.033a3 3 0 0 1 .019-.356c.024-.23.062-.472.103-.736q.037-.23.074-.487c.056-.397.119-.907.048-1.298-.033-.185-.132-.554-.49-.77-.39-.234-.789-.118-1.015-.013-.546.254-1.191.536-1.791.725-.3.094-.571.16-.8.188-.238.03-.382.016-.454-.005-.98-.29-2.041-.447-3.149-.447-.962 0-1.89.119-2.758.34-.394.1-.811.05-1.31-.115a11 11 0 0 1-1.054-.436q-.271-.125-.582-.26c-.285-.121-.65-.168-1.001.022-.314.17-.472.457-.553.662-.161.402-.2.929-.214 1.355-.008.255-.008.56-.009.83 0 .172 0 .33-.002.452q-.005.273-.023.409v.005c-.78 1-1.244 2.188-1.244 3.474 0 1.917 1.03 3.803 2.644 5.011.789.59 1.71 1.015 2.709 1.294a2.8 2.8 0 0 0-.352 1.327v.858H7.413c-.347 0-.801-.275-1.296-.817-.462-.506-.814-1.082-.976-1.348-.347-.572-.894-.894-1.55-.974a.75.75 0 1 0-.182 1.49c.243.029.363.12.45.263l.002.004c.166.272.581.956 1.148 1.576.535.587 1.375 1.306 2.404 1.306H8.75L8.751 21c0 .414.336.75.75.75h6.497a.75.75 0 0 0 .748-.75v-3.765c0-.492-.142-.983-.388-1.468.886-.275 1.708-.663 2.404-1.184 1.65-1.235 2.488-3.139 2.488-5.011 0-1.315-.485-2.527-1.295-3.54"/></svg>