<svg width="24" height="24" fill="currentColor" viewBox="0 0 24 24" xmlns="http://www.w3.org/2000/svg"><path d="M4.06 9.75A8.3 8.3 0 0 0 3.75 12c0 .78.108 1.535.31 2.25h3.371A21 21 0 0 1 7.309 12c0-.716.04-1.479.122-2.25zm-1.3-.867a.8.8 0 0 1 .09-.257 9.754 9.754 0 0 1 18.302.001.8.8 0 0 1 .09.254c.33.98.509 2.028.509 3.119 0 1.09-.18 2.14-.51 3.119a.8.8 0 0 1-.089.254 9.754 9.754 0 0 1-18.302 0 .8.8 0 0 1-.09-.256A9.7 9.7 0 0 1 2.25 12c0-1.09.179-2.139.509-3.117M12 3.75c-.428 0-.832.192-1.228.624-.407.443-.77 1.107-1.073 1.942-.215.594-.39 1.25-.525 1.934h5.652a13.5 13.5 0 0 0-.525-1.934c-.302-.835-.666-1.499-1.073-1.942-.396-.432-.8-.624-1.228-.624m4.57 10.5h3.37c.202-.715.31-1.47.31-2.25s-.108-1.535-.31-2.25h-3.37c.082.771.121 1.534.121 2.25s-.04 1.479-.122 2.25m-1.744 1.5H9.174c.136.683.31 1.34.525 1.934.302.835.666 1.499 1.073 1.942.396.432.8.624 1.228.624s.832-.192 1.228-.624c.407-.443.771-1.107 1.073-1.942.215-.594.39-1.25.525-1.934m-5.86 3.925a9 9 0 0 1-.677-1.481 15.4 15.4 0 0 1-.642-2.444H4.65a8.28 8.28 0 0 0 4.317 3.925M19.35 8.25a8.28 8.28 0 0 0-4.317-3.925c.265.454.489.957.678 1.481.274.757.487 1.59.643 2.444z"/></svg>