<svg width="24" height="24" fill="currentColor" viewBox="0 0 24 24" xmlns="http://www.w3.org/2000/svg"><path fill-rule="evenodd" d="M4.06 9.75A8.256 8.256 0 0 0 3.75 12c0 .78.108 1.535.31 2.25h3.371A21.324 21.324 0 0 1 7.309 12c0-.716.04-1.479.122-2.25zm-1.3-.867A9.739 9.739 0 0 0 2.25 12c0 1.09.179 2.139.509 3.117a.746.746 0 0 0 .09.257 9.754 9.754 0 0 0 18.302-.001.747.747 0 0 0 .09-.254c.33-.98.509-2.028.509-3.119 0-1.09-.18-2.14-.51-3.119a.747.747 0 0 0-.089-.254 9.754 9.754 0 0 0-18.302 0 .745.745 0 0 0-.09.256M12 3.75c-.428 0-.832.192-1.228.624-.407.443-.77 1.107-1.073 1.942-.215.594-.39 1.25-.525 1.934h5.652a13.49 13.49 0 0 0-.525-1.934c-.302-.835-.666-1.499-1.073-1.942-.396-.432-.8-.624-1.228-.624m4.57 10.5c.082-.771.121-1.534.121-2.25s-.04-1.479-.122-2.25h3.37c.203.715.311 1.47.311 2.25s-.108 1.535-.31 2.25zm-1.744 1.5H9.174c.136.683.31 1.34.525 1.934.302.835.666 1.499 1.073 1.942.396.432.8.624 1.228.624.428 0 .832-.192 1.228-.624.407-.443.771-1.107 1.073-1.942.215-.594.39-1.25.525-1.934m-5.86 3.925a9.096 9.096 0 0 1-.677-1.481 15.383 15.383 0 0 1-.642-2.444H4.65a8.28 8.28 0 0 0 4.317 3.925M19.35 8.25h-2.997a15.377 15.377 0 0 0-.642-2.444 9.09 9.09 0 0 0-.678-1.48A8.28 8.28 0 0 1 19.35 8.25"/></svg>