<svg width="24" height="24" fill="currentColor" viewBox="0 0 24 24" xmlns="http://www.w3.org/2000/svg"><path d="M6.699 2.25c-.84 0-1.546 0-2.106.075-.594.08-1.137.257-1.574.694s-.614.98-.694 1.574c-.075.56-.075 1.266-.075 2.106V6.8c0 .84 0 1.546.075 2.106.08.594.257 1.137.694 1.574s.98.614 1.574.694c.56.075 1.266.075 2.106.075H6.8c.84 0 1.546 0 2.106-.075.594-.08 1.137-.257 1.574-.694s.614-.98.694-1.574c.075-.56.075-1.266.075-2.106v-.1c0-.84 0-1.546-.075-2.106-.08-.594-.257-1.137-.694-1.574s-.98-.614-1.574-.694c-.56-.075-1.266-.075-2.106-.075zm10.5 0c-.84 0-1.546 0-2.106.075-.594.08-1.137.257-1.574.694s-.614.98-.694 1.574c-.075.56-.075 1.266-.075 2.106V6.8c0 .84 0 1.546.075 2.106.08.594.257 1.137.694 1.574s.98.614 1.574.694c.56.075 1.266.075 2.106.075h.102c.84 0 1.546 0 2.106-.075.594-.08 1.137-.257 1.574-.694s.614-.98.694-1.574c.075-.56.075-1.266.075-2.106v-.1c0-.84 0-1.546-.075-2.106-.08-.594-.257-1.137-.694-1.574s-.98-.614-1.574-.694c-.56-.075-1.265-.075-2.105-.075zm-10.5 10.507c-.84 0-1.546 0-2.106.075-.594.08-1.137.257-1.574.694s-.614.98-.694 1.574c-.075.56-.075 1.266-.075 2.106v.102c0 .84 0 1.546.075 2.106.08.594.257 1.137.694 1.574s.98.614 1.574.694c.56.075 1.266.075 2.106.075H6.8c.84 0 1.546 0 2.106-.075.594-.08 1.137-.257 1.574-.694s.614-.98.694-1.574c.075-.56.075-1.266.075-2.106v-.102c0-.84 0-1.545-.075-2.106-.08-.594-.257-1.137-.694-1.574s-.98-.614-1.574-.694c-.56-.075-1.266-.075-2.106-.075zm10.5 0c-.84 0-1.546 0-2.106.075-.594.08-1.137.257-1.574.694s-.614.98-.694 1.574c-.075.56-.075 1.266-.075 2.106v.102c0 .84 0 1.546.075 2.106.08.594.257 1.137.694 1.574s.98.614 1.574.694c.56.075 1.266.075 2.106.075h.102c.84 0 1.546 0 2.106-.075.594-.08 1.137-.257 1.574-.694s.614-.98.694-1.574c.075-.56.075-1.266.075-2.106v-.102c0-.84 0-1.545-.075-2.106-.08-.594-.257-1.137-.694-1.574s-.98-.614-1.574-.694c-.56-.075-1.266-.075-2.105-.075z"/></svg>