<svg width="24" height="24" fill="currentColor" viewBox="0 0 24 24" xmlns="http://www.w3.org/2000/svg"><path d="M10.769 13h1.976l.359-2h-1.976z"/><path d="M12 1.75a2.63 2.63 0 0 0-1.32.355l-6.61 3.8-.002.002A2.65 2.65 0 0 0 2.75 8.198v7.603a2.64 2.64 0 0 0 1.318 2.292l.003.002 6.608 3.799h.002a2.63 2.63 0 0 0 2.639 0h.001l6.608-3.8h.003A2.65 2.65 0 0 0 21.25 15.8V8.2a2.65 2.65 0 0 0-1.318-2.292l-6.61-3.8-.002-.002A2.63 2.63 0 0 0 12 1.75m-.963 5.512a.75.75 0 0 1 .606.87L11.397 9.5h1.976l.293-1.633a.75.75 0 0 1 1.477.266L14.897 9.5h1.385a.75.75 0 0 1 0 1.5h-1.654l-.36 2h2.014a.75.75 0 0 1 0 1.5H14l-.293 1.633a.75.75 0 0 1-1.477-.265l.246-1.368H10.5l-.293 1.633a.75.75 0 0 1-1.477-.265l.246-1.368H7.718a.75.75 0 0 1 0-1.5h1.527l.359-2H7.718a.75.75 0 0 1 0-1.5h2.155l.293-1.633a.75.75 0 0 1 .871-.605"/></svg>