<svg width="24" height="24" fill="currentColor" viewBox="0 0 24 24" xmlns="http://www.w3.org/2000/svg"><path d="M3.75 3.75a.75.75 0 0 1 .75.75v6.75h8V4.5a.75.75 0 0 1 1.5 0v15a.75.75 0 0 1-1.5 0v-6.75h-8v6.75a.75.75 0 0 1-1.5 0v-15a.75.75 0 0 1 .75-.75m11.5 9.5c0-2.32 1.531-4.5 3.75-4.5h1a.75.75 0 0 1 0 1.5h-1c-1.095 0-2.25 1.178-2.25 3v.298c.53-.296 1.14-.423 1.75-.423.824 0 1.646.231 2.27.797.639.576.98 1.42.98 2.453 0 1.975-1.308 3.875-3.25 3.875s-3.25-1.9-3.25-3.875zm1.5 3.125c0 1.477.931 2.375 1.75 2.375s1.75-.898 1.75-2.375c0-.692-.218-1.1-.485-1.341-.28-.253-.708-.409-1.265-.409s-.985.156-1.265.409c-.267.242-.485.649-.485 1.341"/></svg>