<svg width="24" height="24" fill="currentColor" viewBox="0 0 24 24" xmlns="http://www.w3.org/2000/svg"><path fill-rule="evenodd" d="M3.75 3.75a.75.75 0 0 1 .75.75v6.75h8V4.5a.75.75 0 0 1 1.5 0v15a.75.75 0 0 1-1.5 0v-6.75h-8v6.75a.75.75 0 0 1-1.5 0v-15a.75.75 0 0 1 .75-.75m17.466 5.526a.75.75 0 0 1-.492.94c-1.137.355-2.375.347-3.29.265-.25-.022-.48-.05-.684-.08v1.915h2.028c1.689 0 2.972 1.448 2.972 3.127v1.399c0 1.07-.386 1.936-1.016 2.532a3.264 3.264 0 0 1-2.23.876 3.233 3.233 0 0 1-2.238-.863c-.632-.597-1.016-1.467-1.016-2.545a.75.75 0 0 1 1.5 0c0 .705.241 1.167.546 1.454.315.297.749.456 1.2.454a1.765 1.765 0 0 0 1.207-.465c.308-.291.547-.752.547-1.443v-1.4c0-.946-.706-1.626-1.472-1.626H16a.75.75 0 0 1-.75-.75V9.5a.75.75 0 0 1 .931-.728m0 0h.003l.016.005.072.016c.065.014.162.035.286.057.247.046.599.1 1.009.137.834.075 1.846.067 2.71-.203a.75.75 0 0 1 .939.492"/></svg>