<svg width="24" height="24" fill="currentColor" viewBox="0 0 24 24" xmlns="http://www.w3.org/2000/svg"><path d="M3.75 3.75a.75.75 0 0 1 .75.75v6.75h8V4.5a.75.75 0 0 1 1.5 0v15a.75.75 0 0 1-1.5 0v-6.75h-8v6.75a.75.75 0 0 1-1.5 0v-15a.75.75 0 0 1 .75-.75m13.523 6.926c-.3.26-.523.66-.523 1.263a.75.75 0 0 1-1.5 0c0-1.023.401-1.842 1.04-2.396.623-.54 1.43-.793 2.21-.793s1.587.253 2.21.793c.639.554 1.04 1.373 1.04 2.396 0 .942-.41 1.769-.925 2.476-.513.704-1.184 1.363-1.803 1.963l-.096.093c-.601.583-1.145 1.11-1.552 1.634a4 4 0 0 0-.42.645H21a.75.75 0 0 1 0 1.5h-5a.75.75 0 0 1-.75-.75c0-.885.432-1.661.939-2.315.475-.612 1.091-1.209 1.668-1.767l.121-.117c.631-.613 1.21-1.185 1.634-1.769.423-.581.638-1.098.638-1.593 0-.603-.224-1.003-.523-1.263-.314-.272-.757-.426-1.227-.426s-.913.154-1.227.426"/></svg>