<svg width="24" height="24" fill="currentColor" viewBox="0 0 24 24" xmlns="http://www.w3.org/2000/svg"><path fill-rule="evenodd" d="M10.79 1.49a3.16 3.16 0 0 0-1.025.686L2.177 9.765a3.16 3.16 0 0 0 0 4.47l7.588 7.588a3.159 3.159 0 0 0 4.47 0l7.588-7.588a3.159 3.159 0 0 0 0-4.47l-7.588-7.588a3.16 3.16 0 0 0-3.445-.686m1.511 14.634.005-.003.009-.006.032-.022.117-.081a14.651 14.651 0 0 0 1.628-1.341c.444-.427.91-.938 1.27-1.492.354-.545.648-1.2.648-1.898 0-.782-.262-1.443-.767-1.902-.494-.449-1.136-.629-1.764-.629a2.52 2.52 0 0 0-1.594.565A2.531 2.531 0 0 0 7.76 11.28c0 .698.294 1.353.648 1.898.36.554.826 1.065 1.27 1.491a14.655 14.655 0 0 0 1.745 1.423l.032.022.01.006.004.003a.75.75 0 0 0 .832 0"/></svg>