<svg width="24" height="24" fill="currentColor" viewBox="0 0 24 24" xmlns="http://www.w3.org/2000/svg"><path d="M10.191 2.9 4.325 7.718a2.96 2.96 0 0 0-1.075 2.29v8.802c0 1.605 1.273 2.94 2.883 2.94h11.734c1.61 0 2.883-1.335 2.883-2.94v-8.802a2.96 2.96 0 0 0-1.075-2.29L13.81 2.9a2.84 2.84 0 0 0-3.618 0m-.721 8.07a.75.75 0 0 1 1.06 0L12 12.44l1.47-1.47a.75.75 0 1 1 1.06 1.06l-1.47 1.47 1.47 1.47a.75.75 0 1 1-1.06 1.06L12 14.56l-1.47 1.47a.75.75 0 1 1-1.06-1.06l1.47-1.47-1.47-1.47a.75.75 0 0 1 0-1.06"/></svg>