<svg width="24" height="24" fill="currentColor" viewBox="0 0 24 24" xmlns="http://www.w3.org/2000/svg"><path d="M7.25 8a1.25 1.25 0 1 1 2.5 0 1.25 1.25 0 0 1-2.5 0"/><path d="M9.367 2.25h5.266c1.092 0 1.958 0 2.655.057.714.058 1.317.18 1.869.46a4.75 4.75 0 0 1 2.075 2.077c.281.55.403 1.154.461 1.868.057.697.057 1.563.057 2.655v5.266c0 1.092 0 1.958-.057 2.655-.058.714-.18 1.317-.46 1.869a4.75 4.75 0 0 1-2.076 2.075c-.552.281-1.155.403-1.869.461-.697.057-1.563.057-2.655.057H9.367c-1.092 0-1.958 0-2.655-.057-.714-.058-1.317-.18-1.868-.46a4.75 4.75 0 0 1-2.076-2.076c-.281-.552-.403-1.155-.46-1.869-.058-.697-.058-1.563-.058-2.655V9.367c0-1.092 0-1.958.057-2.655.058-.714.18-1.317.46-1.868a4.75 4.75 0 0 1 2.077-2.076c.55-.281 1.154-.403 1.868-.461.697-.057 1.563-.057 2.655-.057M3.75 13.753v.847c0 1.133 0 1.937.052 2.566.05.62.147 1.005.302 1.31a3.25 3.25 0 0 0 1.42 1.42c.305.155.69.251 1.31.302.389.032.845.044 1.404.049-.046-1.392.167-2.71.593-3.92-1.12-1.606-2.98-2.641-5.08-2.574m16.5-3.084c-5.863-.493-10.727 3.874-10.511 9.581h4.86c1.133 0 1.937 0 2.566-.052.62-.05 1.005-.147 1.31-.302a3.25 3.25 0 0 0 1.42-1.42c.155-.305.251-.69.302-1.31.052-.63.052-1.434.052-2.566zM5.75 8a2.75 2.75 0 1 0 5.5 0 2.75 2.75 0 0 0-5.5 0m1.5 0a1.25 1.25 0 1 1 2.5 0 1.25 1.25 0 0 1-2.5 0"/></svg>