<svg width="24" height="24" fill="currentColor" viewBox="0 0 24 24" xmlns="http://www.w3.org/2000/svg"><path fill-rule="evenodd" d="M7.24 2.25h9.52a2.751 2.751 0 0 1 2.462 1.526.737.737 0 0 1 .051.135l2.163 7.846a8.75 8.75 0 0 1 .314 2.325V19A2.75 2.75 0 0 1 19 21.75H5A2.75 2.75 0 0 1 2.25 19v-4.918c0-.785.106-1.567.314-2.325l2.163-7.846a.75.75 0 0 1 .051-.135A2.75 2.75 0 0 1 7.24 2.25m13.002 11.5H17.07a1.25 1.25 0 0 0-1.04.557l-.812 1.218a2.75 2.75 0 0 1-2.288 1.225h-1.86a2.75 2.75 0 0 1-2.288-1.225l-.812-1.218a1.25 1.25 0 0 0-1.04-.557H3.758a7.32 7.32 0 0 0-.008.332V19A1.25 1.25 0 0 0 5 20.25h14A1.25 1.25 0 0 0 20.25 19v-4.918c0-.11-.003-.221-.008-.332"/></svg>