<svg width="24" height="24" fill="currentColor" viewBox="0 0 24 24" xmlns="http://www.w3.org/2000/svg"><path fill-rule="evenodd" d="M16.76 2.25H7.24a2.751 2.751 0 0 0-2.462 1.526.75.75 0 0 0-.051.135l-2.163 7.846a8.75 8.75 0 0 0-.314 2.325V19A2.75 2.75 0 0 0 5 21.75h14A2.75 2.75 0 0 0 21.75 19v-4.918a8.75 8.75 0 0 0-.314-2.325l-2.163-7.846a.737.737 0 0 0-.051-.135A2.75 2.75 0 0 0 16.76 2.25m.31 11.5h3.172c.005.11.008.221.008.332V19A1.25 1.25 0 0 1 19 20.25H5A1.25 1.25 0 0 1 3.75 19v-4.918c0-.11.003-.221.008-.332H6.93c.418 0 .808.209 1.04.557l.812 1.218a2.75 2.75 0 0 0 2.288 1.225h1.86c.92 0 1.778-.46 2.288-1.225l.812-1.218a1.25 1.25 0 0 1 1.04-.557m-6.57-8a.75.75 0 0 0 0 1.5h3a.75.75 0 0 0 0-1.5zm-1.5 3a.75.75 0 0 0 0 1.5h6a.75.75 0 0 0 0-1.5z"/></svg>