<svg width="24" height="24" fill="currentColor" viewBox="0 0 24 24" xmlns="http://www.w3.org/2000/svg"><path d="M7 8.75a3.25 3.25 0 0 0 0 6.5c.935 0 1.71-.435 2.469-1.196a.75.75 0 0 1 1.063 1.058c-.92.923-2.054 1.638-3.532 1.638a4.75 4.75 0 1 1 0-9.5c1.376 0 2.457.621 3.342 1.454.856.805 1.581 1.86 2.25 2.834l.026.037c.699 1.017 1.34 1.944 2.068 2.629.709.667 1.44 1.046 2.314 1.046a3.25 3.25 0 0 0 0-6.5c-.935 0-1.71.435-2.469 1.196a.75.75 0 0 1-1.062-1.058C14.387 7.965 15.522 7.25 17 7.25a4.75 4.75 0 1 1 0 9.5c-1.376 0-2.457-.621-3.342-1.454-.856-.805-1.581-1.86-2.25-2.834l-.026-.037c-.699-1.017-1.34-1.944-2.068-2.629C8.605 9.13 7.874 8.75 7 8.75"/></svg>