<svg width="24" height="24" fill="currentColor" viewBox="0 0 24 24" xmlns="http://www.w3.org/2000/svg"><path fill-rule="evenodd" d="M12 1.75a2.63 2.63 0 0 0-1.32.355l-6.61 3.8-.002.002A2.645 2.645 0 0 0 2.75 8.198v7.603a2.644 2.644 0 0 0 1.318 2.292l.003.002 6.608 3.799h.002a2.63 2.63 0 0 0 2.639 0h.001l6.608-3.8h.003A2.645 2.645 0 0 0 21.25 15.8V8.2a2.645 2.645 0 0 0-1.318-2.292l-6.61-3.8-.002-.002A2.63 2.63 0 0 0 12 1.75m0 5.5a.75.75 0 0 1 .75.75v.5a.75.75 0 0 1-1.5 0V8a.75.75 0 0 1 .75-.75M10.75 16c0 .414.336.75.75.75h1a.75.75 0 0 0 .25-1.457V11a.75.75 0 0 0-.75-.75h-.5a.75.75 0 0 0-.25 1.457v3.586a.75.75 0 0 0-.5.707"/></svg>