<svg width="24" height="24" fill="currentColor" viewBox="0 0 24 24" xmlns="http://www.w3.org/2000/svg"><path d="M3 2.25a.75.75 0 0 0-.75.75v1.8a.75.75 0 0 0 1.5 0V3.75H4.8a.75.75 0 0 0 0-1.5zm5.4 0a.75.75 0 0 0 0 1.5h1.8a.75.75 0 0 0 0-1.5zm5.4 0a.75.75 0 0 0 0 1.5h1.05v.6a.75.75 0 0 0 1.5 0V3a.75.75 0 0 0-.75-.75zm2.55 5.25a.75.75 0 0 0-1.5 0v.15h-1.682c-.813 0-1.469 0-2 .043-.546.045-1.026.14-1.47.366a3.75 3.75 0 0 0-1.64 1.639c-.226.444-.32.924-.365 1.47-.043.531-.043 1.187-.043 2v1.682H7.5a.75.75 0 0 0 0 1.5h.15v.15a.75.75 0 0 0 1.5 0v-.15h1.682c.813 0 1.469 0 2-.043.546-.045 1.026-.14 1.47-.366a3.75 3.75 0 0 0 1.64-1.639c.226-.444.32-.924.365-1.47.043-.531.043-1.187.043-2V9.15h.15a.75.75 0 0 0 0-1.5h-.15zm-12.6.9a.75.75 0 0 0-1.5 0v1.8a.75.75 0 0 0 1.5 0zm15.9-.75a.75.75 0 0 0 0 1.5h.6v1.05a.75.75 0 0 0 1.5 0V8.4a.75.75 0 0 0-.75-.75zM3.75 13.8a.75.75 0 0 0-1.5 0v1.8c0 .414.336.75.75.75h1.35a.75.75 0 0 0 0-1.5h-.6zm18 0a.75.75 0 0 0-1.5 0v1.8a.75.75 0 0 0 1.5 0zm0 5.4a.75.75 0 0 0-1.5 0v1.05H19.2a.75.75 0 0 0 0 1.5H21a.75.75 0 0 0 .75-.75zm-12.6.45a.75.75 0 0 0-1.5 0V21c0 .414.336.75.75.75h1.8a.75.75 0 0 0 0-1.5H9.15zm4.65.6a.75.75 0 0 0 0 1.5h1.8a.75.75 0 0 0 0-1.5z"/></svg>