<svg width="24" height="24" fill="currentColor" viewBox="0 0 24 24" xmlns="http://www.w3.org/2000/svg"><path d="M7.5 11.25a5.25 5.25 0 1 0 0 10.5 5.25 5.25 0 0 0 0-10.5"/><path fill-rule="evenodd" d="M21.53 3.53a.75.75 0 0 0-1.06-1.06l-9.826 9.825c.402.301.76.659 1.06 1.06l3.445-3.443 1.002 1.002c.344.344.788.59 1.317.493.437-.08.763-.378.947-.552l.197-.188c.354-.34.577-.554.927-.612.268-.045.602-.124.908-.315a1.73 1.73 0 0 0 .732-.934 1.686 1.686 0 0 0-.035-1.206c-.149-.368-.411-.698-.719-1.005l-.98-.98z"/></svg>