<svg width="24" height="24" fill="currentColor" viewBox="0 0 24 24" xmlns="http://www.w3.org/2000/svg"><path d="M13.25 11.25H10.5v-2.5h2.75a.75.75 0 0 1 .75.75v1a.75.75 0 0 1-.75.75"/><path d="M10.79 1.49a3.16 3.16 0 0 1 3.445.687l7.588 7.588a3.16 3.16 0 0 1 0 4.47l-7.588 7.588a3.16 3.16 0 0 1-4.47 0l-7.588-7.588a3.16 3.16 0 0 1 0-4.47l7.588-7.589a3.2 3.2 0 0 1 1.025-.685m-.54 5.76A1.25 1.25 0 0 0 9 8.5V16a.75.75 0 0 0 1.5 0v-3.25h2.75a2.25 2.25 0 0 0 2.25-2.25v-1a2.25 2.25 0 0 0-2.25-2.25z"/></svg>