<svg width="24" height="24" fill="currentColor" viewBox="0 0 24 24" xmlns="http://www.w3.org/2000/svg"><path d="M9.75 10c0-.69.56-1.25 1.25-1.25h2c.69 0 1.25.56 1.25 1.25v4.19l-.72-.72a.75.75 0 1 0-1.06 1.06l.72.72H11c-.69 0-1.25-.56-1.25-1.25z"/><path d="M9.367 2.25c-1.092 0-1.958 0-2.655.057-.714.058-1.317.18-1.868.46a4.75 4.75 0 0 0-2.076 2.077c-.281.55-.403 1.154-.461 1.868-.057.697-.057 1.563-.057 2.655v5.266c0 1.092 0 1.958.057 2.655.058.714.18 1.317.46 1.869a4.75 4.75 0 0 0 2.077 2.075c.55.281 1.154.403 1.868.461.697.057 1.563.057 2.655.057h5.266c1.092 0 1.958 0 2.655-.057.714-.058 1.317-.18 1.869-.46a4.75 4.75 0 0 0 2.075-2.076c.281-.552.403-1.155.461-1.869.057-.697.057-1.563.057-2.655V9.367c0-1.092 0-1.958-.057-2.655-.058-.714-.18-1.317-.46-1.868a4.75 4.75 0 0 0-2.076-2.076c-.552-.281-1.155-.403-1.869-.461-.697-.057-1.563-.057-2.655-.057zM15.75 10v5.69l.28.28a.75.75 0 1 1-1.06 1.06l-.28-.28H11A2.75 2.75 0 0 1 8.25 14v-4A2.75 2.75 0 0 1 11 7.25h2A2.75 2.75 0 0 1 15.75 10"/></svg>