<svg width="24" height="24" fill="currentColor" viewBox="0 0 24 24" xmlns="http://www.w3.org/2000/svg"><path d="M14.241 9.8c.064.602-.204 1.191-.761 1.45h-3.23v-2.5h2.921c.62 0 1.005.425 1.07 1.05m-3.991 5.45v-2.5h3.23c.557.259.825.848.761 1.45-.065.625-.45 1.05-1.07 1.05z"/><path d="M8.037 2.408a2.3 2.3 0 0 1 .9-.158h6.126c.302 0 .602.036.9.158s.54.31.762.53l4.337 4.337c.22.221.408.463.53.762.123.298.158.598.158.9v6.126c0 .313-.039.616-.163.914a2.3 2.3 0 0 1-.525.748l-4.337 4.337a2.3 2.3 0 0 1-.762.53 2.3 2.3 0 0 1-.9.158H8.937c-.313 0-.616-.039-.914-.163a2.3 2.3 0 0 1-.748-.525l-4.337-4.337a2.3 2.3 0 0 1-.53-.762 2.3 2.3 0 0 1-.158-.9V8.937c0-.313.039-.616.163-.914a2.3 2.3 0 0 1 .525-.748l4.337-4.337c.221-.22.463-.408.762-.53M9.5 7.25a.75.75 0 0 0-.75.75v8c0 .414.336.75.75.75h3.671c1.572 0 2.437-1.204 2.562-2.393.085-.806-.153-1.706-.767-2.357.614-.651.852-1.551.767-2.357-.125-1.19-.99-2.393-2.562-2.393z"/></svg>