<svg width="24" height="24" fill="currentColor" viewBox="0 0 24 24" xmlns="http://www.w3.org/2000/svg"><path d="M10.25 15.25v-6.5H12a2.75 2.75 0 0 1 2.75 2.75v1A2.75 2.75 0 0 1 12 15.25z"/><path d="M8.037 2.408a2.3 2.3 0 0 1 .9-.158h6.126c.302 0 .602.036.9.158s.54.31.762.53l4.337 4.337c.22.221.408.463.53.762.123.298.158.598.158.9v6.126c0 .313-.039.616-.163.914a2.3 2.3 0 0 1-.525.748l-4.337 4.337a2.3 2.3 0 0 1-.762.53 2.3 2.3 0 0 1-.9.158H8.937c-.313 0-.616-.039-.914-.163a2.3 2.3 0 0 1-.748-.525l-4.337-4.337a2.3 2.3 0 0 1-.53-.762 2.3 2.3 0 0 1-.158-.9V8.937c0-.313.039-.616.163-.914a2.3 2.3 0 0 1 .525-.748l4.337-4.337c.221-.22.463-.408.762-.53M10 7.25c-.69 0-1.25.56-1.25 1.25v7c0 .69.56 1.25 1.25 1.25h2a4.25 4.25 0 0 0 4.25-4.25v-1A4.25 4.25 0 0 0 12 7.25z"/></svg>