<svg width="24" height="24" fill="currentColor" viewBox="0 0 24 24" xmlns="http://www.w3.org/2000/svg"><path d="M9.75 10c0-.69.56-1.25 1.25-1.25h2c.69 0 1.25.56 1.25 1.25v4.19l-.72-.72a.75.75 0 1 0-1.06 1.06l.72.72H11c-.69 0-1.25-.56-1.25-1.25z"/><path d="m10.68 2.105-6.61 3.8-.002.002A2.65 2.65 0 0 0 2.75 8.198v7.603a2.64 2.64 0 0 0 1.318 2.292l.003.002 6.608 3.799h.002a2.63 2.63 0 0 0 2.639 0h.001l6.608-3.8h.003A2.65 2.65 0 0 0 21.25 15.8V8.2a2.65 2.65 0 0 0-1.318-2.292l-6.61-3.8-.002-.002a2.63 2.63 0 0 0-2.64 0M15.75 10v5.69l.28.28a.75.75 0 1 1-1.06 1.06l-.28-.28H11A2.75 2.75 0 0 1 8.25 14v-4A2.75 2.75 0 0 1 11 7.25h2A2.75 2.75 0 0 1 15.75 10"/></svg>