<svg width="24" height="24" fill="currentColor" viewBox="0 0 24 24" xmlns="http://www.w3.org/2000/svg"><path d="M9.75 10c0-.69.56-1.25 1.25-1.25h2c.69 0 1.25.56 1.25 1.25v4c0 .69-.56 1.25-1.25 1.25h-2c-.69 0-1.25-.56-1.25-1.25z"/><path d="M10.68 2.105a2.63 2.63 0 0 1 2.64 0l.001.001 6.611 3.8A2.65 2.65 0 0 1 21.25 8.2v7.603a2.66 2.66 0 0 1-1.318 2.291l-.003.002-6.608 3.799h-.002a2.63 2.63 0 0 1-2.639 0h-.001l-6.608-3.8h-.003A2.64 2.64 0 0 1 2.75 15.8V8.198a2.66 2.66 0 0 1 1.318-2.291l.003-.002zM11 7.25A2.75 2.75 0 0 0 8.25 10v4A2.75 2.75 0 0 0 11 16.75h2A2.75 2.75 0 0 0 15.75 14v-4A2.75 2.75 0 0 0 13 7.25z"/></svg>