<svg width="24" height="24" fill="currentColor" viewBox="0 0 24 24" xmlns="http://www.w3.org/2000/svg"><path d="M9.367 2.25h5.266c1.092 0 1.958 0 2.655.057.714.058 1.317.18 1.869.46a4.75 4.75 0 0 1 2.075 2.077c.281.55.403 1.154.461 1.868.057.697.057 1.563.057 2.655v5.266c0 1.092 0 1.958-.057 2.655-.058.714-.18 1.317-.46 1.869a4.75 4.75 0 0 1-2.076 2.075c-.552.281-1.155.403-1.869.461-.697.057-1.563.057-2.655.057H9.367c-1.092 0-1.958 0-2.655-.057-.714-.058-1.317-.18-1.868-.46a4.75 4.75 0 0 1-2.076-2.076c-.281-.552-.403-1.155-.461-1.869-.057-.697-.057-1.563-.057-2.655V9.367c0-1.092 0-1.958.057-2.655.058-.714.18-1.317.46-1.868a4.75 4.75 0 0 1 2.077-2.076c.55-.281 1.154-.403 1.868-.461.697-.057 1.563-.057 2.655-.057m1.133 5A1.75 1.75 0 0 0 8.75 9v.984c0 .92.56 1.748 1.414 2.09l3.114 1.245a.75.75 0 0 1 .472.696V15a.25.25 0 0 1-.25.25h-3a.25.25 0 0 1-.25-.25v-.25a.75.75 0 0 0-1.5 0V15c0 .966.784 1.75 1.75 1.75h3A1.75 1.75 0 0 0 15.25 15v-.985c0-.92-.56-1.747-1.414-2.088l-3.114-1.246a.75.75 0 0 1-.472-.697V9a.25.25 0 0 1 .25-.25h3a.25.25 0 0 1 .25.25v.25a.75.75 0 0 0 1.5 0V9a1.75 1.75 0 0 0-1.75-1.75z"/></svg>