<svg width="24" height="24" fill="currentColor" viewBox="0 0 24 24" xmlns="http://www.w3.org/2000/svg"><path d="M9.75 10c0-.69.56-1.25 1.25-1.25h2c.69 0 1.25.56 1.25 1.25v4.19l-.72-.72a.75.75 0 1 0-1.06 1.06l.72.72H11c-.69 0-1.25-.56-1.25-1.25z"/><path d="M10.565 2.075c-.394.189-.755.497-1.26.928l-.079.066a2.56 2.56 0 0 1-1.58.655l-.102.008c-.662.053-1.135.09-1.547.236a3.33 3.33 0 0 0-2.03 2.029c-.145.412-.182.885-.235 1.547l-.008.102a2.56 2.56 0 0 1-.655 1.58l-.066.078c-.431.506-.74.867-.928 1.261a3.33 3.33 0 0 0 0 2.87c.189.394.497.755.928 1.26l.066.079c.41.48.604.939.655 1.58l.008.102c.053.662.09 1.135.236 1.547a3.33 3.33 0 0 0 2.029 2.03c.412.145.885.182 1.547.235l.102.008c.629.05 1.09.238 1.58.655l.079.066c.505.431.866.74 1.26.928a3.33 3.33 0 0 0 2.87 0c.394-.189.755-.497 1.26-.928l.079-.066c.48-.41.939-.604 1.58-.655l.102-.008c.662-.053 1.135-.09 1.547-.236a3.33 3.33 0 0 0 2.03-2.029c.145-.412.182-.885.235-1.547l.008-.102c.05-.629.238-1.09.655-1.58l.066-.079c.431-.505.74-.866.928-1.26a3.33 3.33 0 0 0 0-2.87c-.189-.394-.497-.755-.928-1.26l-.066-.079a2.56 2.56 0 0 1-.655-1.58l-.008-.102c-.053-.662-.09-1.135-.236-1.547a3.33 3.33 0 0 0-2.029-2.03c-.412-.145-.885-.182-1.547-.235l-.102-.008a2.56 2.56 0 0 1-1.58-.655l-.079-.066c-.505-.431-.866-.74-1.26-.928a3.33 3.33 0 0 0-2.87 0M15.75 10v5.69l.28.28a.75.75 0 1 1-1.06 1.06l-.28-.28H11A2.75 2.75 0 0 1 8.25 14v-4A2.75 2.75 0 0 1 11 7.25h2A2.75 2.75 0 0 1 15.75 10"/></svg>