<svg width="24" height="24" fill="currentColor" viewBox="0 0 24 24" xmlns="http://www.w3.org/2000/svg"><path fill-rule="evenodd" d="M10.808 3.072a1.624 1.624 0 0 1 1.414-.822c1.005 0 1.773.38 2.282 1.048.477.628.664 1.43.723 2.189.106 1.37-.188 2.908-.404 3.868h5.25c.661 0 1.117.389 1.364.882.225.446.301 1.004.312 1.556.02 1.124-.23 2.564-.607 3.956-.38 1.4-.902 2.813-1.459 3.893-.276.536-.577 1.02-.894 1.383-.28.321-.725.725-1.304.725H4.964a1.706 1.706 0 0 1-1.714-1.697v-9.385c0-.628.349-1.199.898-1.493m6.66-6.103L9.526 5.338c-.512.906-1.3 1.58-2.258 2.176-.638.397-1.294.727-1.973 1.07a50.26 50.26 0 0 0-1.148.591"/></svg>