<svg width="24" height="24" fill="currentColor" viewBox="0 0 24 24" xmlns="http://www.w3.org/2000/svg"><path d="M9.367 2.25h5.266c1.092 0 1.958 0 2.655.057.714.058 1.317.18 1.869.46a4.75 4.75 0 0 1 2.075 2.077c.281.55.403 1.154.461 1.868.057.697.057 1.563.057 2.655v5.266c0 1.092 0 1.958-.057 2.655-.058.714-.18 1.317-.46 1.869a4.75 4.75 0 0 1-2.076 2.075c-.552.281-1.155.403-1.869.461-.697.057-1.563.057-2.655.057H9.367c-1.092 0-1.958 0-2.655-.057-.714-.058-1.317-.18-1.868-.46a4.75 4.75 0 0 1-2.076-2.076c-.281-.552-.403-1.155-.461-1.869-.057-.697-.057-1.563-.057-2.655V9.367c0-1.092 0-1.958.057-2.655.058-.714.18-1.317.46-1.868a4.75 4.75 0 0 1 2.077-2.076c.55-.281 1.154-.403 1.868-.461.697-.057 1.563-.057 2.655-.057M8.75 7.625a.75.75 0 0 0-1.5 0v.5a.75.75 0 0 0 1.5 0zm0 3.125a.75.75 0 0 0-1.5 0v5.625a.75.75 0 0 0 1.5 0zM12 10a.75.75 0 0 0-.75.75v5.625a.75.75 0 0 0 1.5 0V13.5c0-.377.168-.665.458-.883.306-.229.743-.367 1.192-.367.293 0 .435.062.505.11.066.044.133.12.193.28.141.374.152.935.152 1.735v2a.75.75 0 0 0 1.5 0v-2.08c0-.686 0-1.523-.248-2.184a2.03 2.03 0 0 0-.756-.994c-.381-.258-.84-.367-1.346-.367-.56 0-1.14.129-1.65.392v-.392A.75.75 0 0 0 12 10"/></svg>