<svg width="24" height="24" fill="currentColor" viewBox="0 0 24 24" xmlns="http://www.w3.org/2000/svg"><path d="M13.997 7.75h3.401c2.384 0 4.352 1.883 4.352 4.25s-1.968 4.25-4.352 4.25h-3.4a.75.75 0 1 1 0-1.5h3.4c1.595 0 2.851-1.251 2.851-2.75s-1.256-2.75-2.85-2.75h-3.402a.75.75 0 1 1 0-1.5M7.002 12a.75.75 0 0 1 .75-.75h8.489a.75.75 0 1 1 0 1.5H7.752a.75.75 0 0 1-.75-.75"/><path d="M10.003 7.75H6.602C4.218 7.75 2.25 9.633 2.25 12s1.968 4.25 4.352 4.25h3.4a.75.75 0 1 0 0-1.5h-3.4c-1.595 0-2.851-1.251-2.851-2.75S5.007 9.25 6.6 9.25h3.402a.75.75 0 1 0 0-1.5M16.998 12a.75.75 0 0 0-.75-.75H7.759a.75.75 0 1 0 0 1.5h8.489a.75.75 0 0 0 .75-.75"/></svg>