<svg width="24" height="24" fill="currentColor" viewBox="0 0 24 24" xmlns="http://www.w3.org/2000/svg"><path d="M11 5.75a.75.75 0 0 0 0 1.5h10a.75.75 0 0 0 0-1.5zm0 5.5a.75.75 0 0 0 0 1.5h10a.75.75 0 0 0 0-1.5zm0 5.5a.75.75 0 0 0 0 1.5h10a.75.75 0 0 0 0-1.5zM6.25 4.5a.75.75 0 0 0-1.068-.68l-2 .938a.75.75 0 0 0 .636 1.359l.932-.437v4.445a.75.75 0 0 0 1.5 0zm-2 10.781c0-.317.29-.656.75-.656h.04c.439 0 .71.322.71.618a.7.7 0 0 1-.16.444l-2.676 3.345A.75.75 0 0 0 3.5 20.25h3a.75.75 0 1 0 0-1.5H5.06l1.701-2.126a2.2 2.2 0 0 0 .49-1.38c0-1.216-1.037-2.12-2.21-2.12H5c-1.196 0-2.25.921-2.25 2.157v.174a.75.75 0 0 0 1.5 0z"/></svg>