<svg width="24" height="24" fill="currentColor" viewBox="0 0 24 24" xmlns="http://www.w3.org/2000/svg"><path d="M10.75 9a1.25 1.25 0 1 1 2.5 0 1.25 1.25 0 0 1-2.5 0"/><path d="M6.14 4.648A8.34 8.34 0 0 1 12 2.25c2.196 0 4.304.861 5.86 2.398 1.409 1.39 2.143 2.946 2.337 4.562.193 1.602-.152 3.21-.81 4.718-1.306 3-3.902 5.728-6.392 7.503a1.71 1.71 0 0 1-1.99 0c-2.49-1.775-5.086-4.504-6.393-7.503-.657-1.508-1.001-3.116-.809-4.719.194-1.615.928-3.17 2.337-4.561M12 6.25a2.75 2.75 0 0 0-2.01 4.627q-.286.164-.54.382c-.734.629-1.2 1.563-1.2 2.741a.75.75 0 0 0 1.5 0c0-.752.284-1.266.676-1.603.408-.35.977-.543 1.574-.543s1.166.193 1.574.543c.392.337.676.85.676 1.603a.75.75 0 0 0 1.5 0c0-1.178-.466-2.112-1.2-2.741a3.6 3.6 0 0 0-.54-.382A2.75 2.75 0 0 0 12 6.25"/></svg>