<svg width="24" height="24" fill="currentColor" viewBox="0 0 24 24" xmlns="http://www.w3.org/2000/svg"><path d="M21.53 2.47a.75.75 0 0 0-1.06 0l-2.396 2.395A8.34 8.34 0 0 0 12 2.25a8.34 8.34 0 0 0-5.86 2.398C4.73 6.038 3.997 7.594 3.803 9.21c-.192 1.602.152 3.21.81 4.718.42.964.973 1.9 1.613 2.786L2.47 20.47a.75.75 0 1 0 1.06 1.06l3.63-3.629a21.6 21.6 0 0 0 3.845 3.53 1.71 1.71 0 0 0 1.99 0c2.49-1.775 5.086-4.504 6.393-7.503.657-1.508 1.002-3.116.809-4.719a7.2 7.2 0 0 0-1.179-3.166L21.53 3.53a.75.75 0 0 0 0-1.06m-7.173 6.112-3.775 3.775a2.75 2.75 0 1 1 3.774-3.774"/></svg>