<svg width="24" height="24" fill="currentColor" viewBox="0 0 24 24" xmlns="http://www.w3.org/2000/svg"><path d="M6.835 16.33a.75.75 0 0 1 .336 1.005L5.714 20.25h12.573l-1.458-2.915a.75.75 0 1 1 1.342-.67l2 4a.75.75 0 0 1-.671 1.085h-15a.75.75 0 0 1-.67-1.085l2-4a.75.75 0 0 1 1.005-.336M10.75 9a1.25 1.25 0 1 1 2.5 0 1.25 1.25 0 0 1-2.5 0"/><path d="M12 2.25a6.65 6.65 0 0 0-4.675 1.913c-1.12 1.107-1.71 2.35-1.866 3.647-.154 1.283.123 2.564.642 3.756 1.032 2.368 3.076 4.513 5.028 5.905a1.5 1.5 0 0 0 1.742 0c1.953-1.392 3.996-3.537 5.028-5.905.52-1.192.796-2.473.642-3.756-.156-1.296-.745-2.54-1.866-3.647A6.66 6.66 0 0 0 12 2.25m0 4a2.75 2.75 0 1 1 0 5.5 2.75 2.75 0 0 1 0-5.5"/></svg>