<svg width="24" height="24" fill="currentColor" viewBox="0 0 24 24" xmlns="http://www.w3.org/2000/svg"><path fill-rule="evenodd" d="M21.53 2.47a.75.75 0 0 1 0 1.06l-6.8 6.8-2.4 2.4-8.8 8.8a.75.75 0 0 1-1.06-1.06l8.112-8.113 3.775-3.775L20.47 2.47a.75.75 0 0 1 1.06 0"/><path fill-rule="evenodd" d="M6.14 4.648A8.342 8.342 0 0 1 12 2.25c2.196 0 4.304.861 5.86 2.398 1.409 1.39 2.143 2.946 2.337 4.562.193 1.602-.152 3.21-.81 4.718-1.306 3-3.902 5.728-6.392 7.503a1.714 1.714 0 0 1-1.99 0c-2.49-1.775-5.086-4.504-6.393-7.503-.657-1.508-1.001-3.116-.809-4.719.194-1.615.928-3.17 2.337-4.561M9.25 10a2.75 2.75 0 1 1 5.5 0 2.75 2.75 0 0 1-5.5 0"/><path d="m14.73 10.33-2.4 2.4a2.751 2.751 0 0 0 2.4-2.4"/></svg>