<svg width="24" height="24" fill="currentColor" viewBox="0 0 24 24" xmlns="http://www.w3.org/2000/svg"><path d="M10.746 8.925v1.271h2.508v-1.27c0-.454-.163-.725-.36-.893-.216-.182-.53-.29-.88-.283-.717.014-1.268.451-1.268 1.175M8.75 11.957c0-.15.119-.26.252-.26h5.996c.133 0 .252.11.252.26v3.032c0 .15-.119.261-.252.261H9.002a.257.257 0 0 1-.252-.26z"/><path d="M10.565 2.075a3.33 3.33 0 0 1 2.87 0c.394.189.755.497 1.26.928l.079.066c.48.41.939.604 1.58.655l.102.008c.662.053 1.135.09 1.547.236a3.33 3.33 0 0 1 2.03 2.029c.145.412.182.885.235 1.547l.008.102c.051.641.246 1.1.655 1.58l.066.078c.431.506.74.867.928 1.261a3.33 3.33 0 0 1 0 2.87c-.189.394-.497.755-.928 1.26l-.066.079c-.418.49-.605.951-.655 1.58l-.008.102c-.053.662-.09 1.135-.236 1.547a3.33 3.33 0 0 1-2.029 2.03c-.412.145-.885.182-1.547.235l-.102.008c-.641.051-1.1.246-1.58.655l-.079.066c-.505.431-.866.74-1.26.928a3.33 3.33 0 0 1-2.87 0c-.394-.189-.755-.497-1.26-.928l-.079-.066a2.56 2.56 0 0 0-1.58-.655l-.102-.008c-.662-.053-1.135-.09-1.547-.236a3.33 3.33 0 0 1-2.03-2.029c-.145-.412-.182-.885-.235-1.547l-.008-.102a2.56 2.56 0 0 0-.655-1.58l-.066-.079c-.431-.505-.74-.866-.928-1.26a3.33 3.33 0 0 1 0-2.87c.189-.394.497-.755.928-1.26l.066-.079a2.56 2.56 0 0 0 .655-1.58l.008-.102c.053-.662.09-1.135.236-1.547a3.33 3.33 0 0 1 2.029-2.03c.412-.145.885-.182 1.547-.235l.102-.008a2.56 2.56 0 0 0 1.58-.655l.078-.066c.506-.431.867-.74 1.261-.928m4.19 6.85c0-.868-.339-1.568-.892-2.037-.537-.454-1.224-.65-1.877-.637-1.287.024-2.74.906-2.74 2.674v1.271h-.244c-.974 0-1.752.795-1.752 1.761v3.032c0 .967.778 1.761 1.752 1.761h5.996c.974 0 1.752-.794 1.752-1.76v-3.033c0-.966-.778-1.76-1.752-1.76h-.244z"/></svg>