<svg width="24" height="24" fill="currentColor" viewBox="0 0 24 24" xmlns="http://www.w3.org/2000/svg"><path d="M9.572 4.904C9.04 5.64 8.75 6.717 8.75 8v1.25h8.58c.535 0 .98 0 1.345.03.38.031.736.098 1.073.27a2.75 2.75 0 0 1 1.202 1.202c.172.337.24.694.27 1.074.03.364.03.81.03 1.344v4.66c0 .535 0 .98-.03 1.345-.03.38-.098.737-.27 1.074a2.75 2.75 0 0 1-1.201 1.202c-.338.172-.694.239-1.074.27-.365.03-.81.03-1.344.03H6.67c-.535 0-.98 0-1.345-.03-.38-.031-.736-.098-1.073-.27a2.75 2.75 0 0 1-1.202-1.202c-.172-.337-.24-.694-.27-1.074-.03-.364-.03-.81-.03-1.344V13.17c0-.534 0-.98.03-1.344.03-.38.098-.737.27-1.074A2.75 2.75 0 0 1 4.252 9.55c.337-.172.693-.239 1.073-.27.365-.03.81-.03 1.345-.03h.58V8c0-1.478.33-2.901 1.107-3.975.8-1.107 2.03-1.775 3.643-1.775 1.212 0 2.221.377 2.996 1.06.765.673 1.25 1.599 1.51 2.619a.75.75 0 1 1-1.453.371c-.207-.807-.564-1.438-1.049-1.865-.474-.418-1.121-.685-2.004-.685-1.148 0-1.919.45-2.428 1.154m7.178 9.097a.75.75 0 1 0-1.5 0v3a.75.75 0 0 0 1.5 0z"/></svg>