<svg width="24" height="24" fill="currentColor" viewBox="0 0 24 24" xmlns="http://www.w3.org/2000/svg"><path d="M10.746 8.925v1.271h2.508v-1.27c0-.454-.163-.725-.36-.893-.216-.182-.53-.29-.88-.283-.717.014-1.268.451-1.268 1.175M8.75 11.957c0-.15.119-.26.252-.26h5.996c.133 0 .252.11.252.26v3.032c0 .15-.119.261-.252.261H9.002a.257.257 0 0 1-.252-.26z"/><path d="M9.367 2.25h5.266c1.092 0 1.958 0 2.655.057.714.058 1.317.18 1.869.46a4.75 4.75 0 0 1 2.075 2.077c.281.55.403 1.154.461 1.868.057.697.057 1.563.057 2.655v5.266c0 1.092 0 1.958-.057 2.655-.058.714-.18 1.317-.46 1.869a4.75 4.75 0 0 1-2.076 2.075c-.552.281-1.155.403-1.869.461-.697.057-1.563.057-2.655.057H9.367c-1.092 0-1.958 0-2.655-.057-.714-.058-1.317-.18-1.868-.46a4.75 4.75 0 0 1-2.076-2.076c-.281-.552-.403-1.155-.461-1.869-.057-.697-.057-1.563-.057-2.655V9.367c0-1.092 0-1.958.057-2.655.058-.714.18-1.317.46-1.868a4.75 4.75 0 0 1 2.077-2.076c.55-.281 1.154-.403 1.868-.461.697-.057 1.563-.057 2.655-.057m5.387 6.675c0-.868-.338-1.568-.891-2.037-.537-.454-1.224-.65-1.877-.637-1.287.024-2.74.906-2.74 2.674v1.271h-.244c-.974 0-1.752.795-1.752 1.761v3.032c0 .967.778 1.761 1.752 1.761h5.996c.974 0 1.752-.794 1.752-1.76v-3.033c0-.966-.778-1.76-1.752-1.76h-.244z"/></svg>