<svg width="24" height="24" fill="currentColor" viewBox="0 0 24 24" xmlns="http://www.w3.org/2000/svg"><path d="M10.746 8.925v1.271h2.508v-1.27c0-.454-.163-.725-.36-.893-.216-.182-.53-.29-.88-.283-.717.014-1.268.451-1.268 1.175M8.75 11.957c0-.15.119-.26.252-.26h5.996c.133 0 .252.11.252.26v3.032c0 .15-.119.261-.252.261H9.002a.257.257 0 0 1-.252-.26z"/><path d="M8.037 2.408a2.3 2.3 0 0 1 .9-.158h6.126c.302 0 .602.036.9.158s.54.31.762.53l4.337 4.337c.22.221.408.463.53.762.123.298.158.598.158.9v6.126c0 .313-.039.616-.163.914a2.3 2.3 0 0 1-.525.748l-4.337 4.337a2.3 2.3 0 0 1-.762.53 2.3 2.3 0 0 1-.9.158H8.937c-.313 0-.616-.039-.914-.163a2.3 2.3 0 0 1-.748-.525l-4.337-4.337a2.3 2.3 0 0 1-.53-.762 2.3 2.3 0 0 1-.158-.9V8.937c0-.313.039-.616.163-.914a2.3 2.3 0 0 1 .525-.748l4.337-4.337c.221-.22.463-.408.762-.53m6.717 6.517c0-.868-.338-1.568-.891-2.037-.537-.454-1.224-.65-1.877-.637-1.287.024-2.74.906-2.74 2.674v1.271h-.244c-.974 0-1.752.795-1.752 1.761v3.032c0 .967.778 1.761 1.752 1.761h5.996c.974 0 1.752-.794 1.752-1.76v-3.033c0-.966-.778-1.76-1.752-1.76h-.244z"/></svg>