<svg width="24" height="24" fill="currentColor" viewBox="0 0 24 24" xmlns="http://www.w3.org/2000/svg"><path d="M9.572 4.904c.51-.703 1.28-1.154 2.428-1.154s1.919.45 2.428 1.154c.532.736.822 1.813.822 3.096v1.25h-6.5V8c0-1.283.29-2.36.822-3.096M16.75 9.25V8c0-1.478-.33-2.901-1.107-3.975-.8-1.107-2.03-1.775-3.643-1.775s-2.842.668-3.643 1.775C7.58 5.099 7.25 6.522 7.25 8v1.25h-.58c-.535 0-.98 0-1.345.03-.38.031-.736.098-1.073.27a2.75 2.75 0 0 0-1.202 1.202c-.172.337-.24.694-.27 1.074-.03.364-.03.81-.03 1.344v4.66c0 .535 0 .98.03 1.345.03.38.098.737.27 1.074a2.75 2.75 0 0 0 1.202 1.202c.337.172.693.239 1.073.27.365.03.81.03 1.345.03h10.66c.535 0 .98 0 1.345-.03.38-.031.736-.098 1.073-.27a2.75 2.75 0 0 0 1.202-1.202c.172-.337.24-.694.27-1.074.03-.364.03-.81.03-1.344V13.17c0-.534 0-.98-.03-1.344-.03-.38-.098-.737-.27-1.074a2.75 2.75 0 0 0-1.2-1.202c-.338-.172-.694-.239-1.074-.27-.365-.03-.81-.03-1.345-.03z"/></svg>