<svg width="24" height="24" fill="currentColor" viewBox="0 0 24 24" xmlns="http://www.w3.org/2000/svg"><path d="M9.25 19.5a.75.75 0 1 0-1.5 0 .75.75 0 0 0 1.5 0m7 0a.75.75 0 1 0-1.5 0 .75.75 0 0 0 1.5 0M14.245 3.951a.25.25 0 0 0-.197-.196l-.05-.005H10a.25.25 0 0 0-.249.248V5.25h4.5V4zM15.75 5.25h.353c1.822 0 3.107.382 3.876 1.217.78.847.844 1.96.724 2.946L20.09 15.4l-.001.011c-.093.796-.317 1.706-1.122 2.378-.382.32-.862.554-1.452.713a2.25 2.25 0 1 1-4.133.249H10.62a2.243 2.243 0 0 1-2.119 3 2.25 2.25 0 0 1-2.015-3.249c-.589-.159-1.069-.394-1.45-.713-.805-.672-1.03-1.582-1.123-2.378v-.01l-.615-5.987-.035-.375c-.057-.885.077-1.83.76-2.571.768-.835 2.053-1.217 3.876-1.217h.352v-1.25A1.746 1.746 0 0 1 10 2.25h4.003l.173.009a1.753 1.753 0 0 1 1.574 1.74z"/></svg>