<svg width="24" height="24" fill="currentColor" viewBox="0 0 24 24" xmlns="http://www.w3.org/2000/svg"><path d="M12 2.25c-2.51 0-4.75 1.767-4.75 4.179v5.142c0 1.13.49 2.117 1.27 2.848l-.97.97A6.23 6.23 0 0 1 5.75 11a.75.75 0 0 0-1.5 0c0 2.125.855 4.05 2.24 5.45l-4.02 4.02a.75.75 0 1 0 1.06 1.06l4.117-4.117a7.7 7.7 0 0 0 3.603 1.301v1.536H8a.75.75 0 0 0 0 1.5h8a.75.75 0 0 0 0-1.5h-3.25v-1.536a7.75 7.75 0 0 0 7-7.714.75.75 0 0 0-1.5 0 6.25 6.25 0 0 1-9.518 5.329l1.06-1.06A5.3 5.3 0 0 0 12 15.75c2.51 0 4.75-1.767 4.75-4.179v-3.26l4.78-4.78a.75.75 0 0 0-1.06-1.061l-3.727 3.726C16.605 3.904 14.429 2.25 12 2.25"/></svg>