<svg width="24" height="24" fill="currentColor" viewBox="0 0 24 24" xmlns="http://www.w3.org/2000/svg"><path d="M8.38 4.49c.957-1.728 3.475-1.644 4.294.215l2.653 6.025a2.392 2.392 0 0 1 3.588.94l2.596 5.542.065.151c.616 1.571-.483 3.387-2.242 3.387H4.666c-1.81 0-2.922-1.924-2.182-3.526l5.808-12.56zm9.177 7.817c-.291-.621-1.06-.712-1.482-.236l-.079.103-2.307 3.417c1.42.38 2.529.275 3.336.034a4.7 4.7 0 0 0 1.461-.724q.12-.09.208-.166zM11.3 5.31a.888.888 0 0 0-1.576-.145l-.072.128-3.955 8.55a11 11 0 0 1 .747-.147c1.257-.198 2.969-.223 4.44.66l.521.3q.45.243.873.429a.8.8 0 0 1 .105-.24l1.886-2.796z"/></svg>