<svg width="24" height="24" fill="currentColor" viewBox="0 0 24 24" xmlns="http://www.w3.org/2000/svg"><path d="M10.25 10.5a1.75 1.75 0 1 1 3.5 0c0 .458-.171.729-.422.91-.283.205-.735.34-1.328.34s-1.045-.135-1.328-.34c-.251-.181-.422-.452-.422-.91"/><path d="M8.037 2.408c-.299.122-.54.31-.762.53L2.938 7.275c-.213.214-.4.45-.525.748a2.3 2.3 0 0 0-.163.914v6.126c0 .302.036.602.158.9s.31.54.53.762l4.337 4.337c.214.213.45.4.748.524.298.125.601.164.914.164h6.126c.302 0 .602-.035.9-.158.299-.122.54-.31.762-.53l4.337-4.337c.213-.214.4-.45.524-.748a2.3 2.3 0 0 0 .164-.914V8.937a2.3 2.3 0 0 0-.158-.9 2.3 2.3 0 0 0-.53-.762l-4.337-4.337a2.3 2.3 0 0 0-.762-.53 2.3 2.3 0 0 0-.9-.158H8.937a2.3 2.3 0 0 0-.9.158M13.75 13v-.105c-.533.252-1.144.355-1.75.355-.788 0-1.586-.175-2.207-.625-.654-.473-1.043-1.202-1.043-2.125a3.25 3.25 0 0 1 6.5 0V13a3.75 3.75 0 0 1-3.75 3.75h-1a.75.75 0 0 1 0-1.5h1A2.25 2.25 0 0 0 13.75 13"/></svg>