<svg width="24" height="24" fill="currentColor" viewBox="0 0 24 24" xmlns="http://www.w3.org/2000/svg"><path d="M10.25 10.5a1.75 1.75 0 1 1 3.5 0c0 .458-.171.729-.422.91-.283.205-.735.34-1.328.34-.593 0-1.045-.135-1.328-.34-.251-.181-.422-.452-.422-.91"/><path fill-rule="evenodd" d="M8.037 2.408a2.32 2.32 0 0 1 .9-.158h6.126c.302 0 .602.036.9.158.299.122.54.31.762.53l4.337 4.337c.22.221.408.463.53.762.123.298.158.598.158.9v6.126c0 .313-.039.616-.163.914a2.32 2.32 0 0 1-.525.748l-4.337 4.337a2.317 2.317 0 0 1-.762.53 2.32 2.32 0 0 1-.9.158H8.937c-.313 0-.616-.039-.914-.163a2.319 2.319 0 0 1-.748-.525l-4.337-4.337a2.317 2.317 0 0 1-.53-.762 2.32 2.32 0 0 1-.158-.9V8.937c0-.313.039-.616.163-.914a2.32 2.32 0 0 1 .525-.748l4.337-4.337c.221-.22.463-.408.762-.53M13.75 13v-.105c-.533.252-1.144.355-1.75.355-.788 0-1.586-.175-2.207-.625-.654-.473-1.043-1.202-1.043-2.125a3.25 3.25 0 0 1 6.5 0V13a3.75 3.75 0 0 1-3.75 3.75h-1a.75.75 0 0 1 0-1.5h1A2.25 2.25 0 0 0 13.75 13"/></svg>