<svg width="24" height="24" fill="currentColor" viewBox="0 0 24 24" xmlns="http://www.w3.org/2000/svg"><path d="M8.44 7.755a7 7 0 0 0-.346-.005H3a.75.75 0 0 1 0-1.5h5.16c.262 0 .542-.001.805.083.23.073.442.193.624.353.208.183.352.424.487.65l.033.055 5.068 8.446c.089.15.14.233.182.295l.042.056a.3.3 0 0 0 .088.05l.07.007c.075.005.174.005.347.005H21a.75.75 0 1 1 0 1.5h-5.159c-.262 0-.544.001-.807-.083a1.75 1.75 0 0 1-.624-.353c-.208-.183-.351-.424-.486-.65l-.034-.055-5.067-8.446a7 7 0 0 0-.182-.295l-.043-.056m-.158-.057.07.007zM14.25 7a.75.75 0 0 1 .75-.75h6a.75.75 0 0 1 0 1.5h-6a.75.75 0 0 1-.75-.75"/></svg>