<svg width="24" height="24" fill="currentColor" viewBox="0 0 24 24" xmlns="http://www.w3.org/2000/svg"><path fill-rule="evenodd" d="M8.44 7.755a6.7 6.7 0 0 0-.346-.005H3a.75.75 0 0 1 0-1.5h5.16c.262 0 .542-.001.805.083.23.073.442.193.624.353.208.183.352.424.487.65l.033.055 5.068 8.446c.089.15.14.233.182.295a.483.483 0 0 0 .042.056.25.25 0 0 0 .088.05.49.49 0 0 0 .07.007c.075.005.174.005.347.005H21a.75.75 0 1 1 0 1.5h-5.159c-.262 0-.544.001-.807-.083a1.75 1.75 0 0 1-.624-.353c-.208-.183-.351-.424-.486-.65a20.28 20.28 0 0 0-.034-.055L8.824 8.163a6.687 6.687 0 0 0-.182-.295.492.492 0 0 0-.043-.056m-.158-.057a.485.485 0 0 1 .07.007zM14.25 7a.75.75 0 0 1 .75-.75h6a.75.75 0 0 1 0 1.5h-6a.75.75 0 0 1-.75-.75"/></svg>