<svg width="24" height="24" fill="currentColor" viewBox="0 0 24 24" xmlns="http://www.w3.org/2000/svg"><path d="M17.523 5.38c-1.966-1.849-5.065-2.416-7.418-.146l-5.74 5.53a.75.75 0 1 1-1.04-1.08l5.738-5.53c3.076-2.966 7.1-2.112 9.487.133 1.2 1.127 2.047 2.65 2.181 4.309.137 1.682-.468 3.425-2.03 4.932l-7.112 6.862c-2.203 2.125-5.083 1.5-6.77-.088-.85-.798-1.459-1.884-1.556-3.08-.098-1.218.343-2.47 1.451-3.54l7.01-6.763c1.33-1.283 3.065-.886 4.053.043.5.47.87 1.12.93 1.851.06.755-.217 1.517-.872 2.148l-.001.002-5.823 5.579a.75.75 0 0 1-1.038-1.084l5.821-5.577c.355-.342.44-.671.417-.946-.024-.3-.184-.619-.461-.88-.567-.533-1.376-.643-1.985-.056l-7.01 6.763c-.808.78-1.056 1.6-.997 2.34.062.761.46 1.517 1.088 2.108 1.266 1.19 3.22 1.529 4.701.1l7.112-6.862c1.263-1.218 1.675-2.529 1.577-3.731-.1-1.226-.736-2.418-1.713-3.337"/></svg>