<svg width="24" height="24" fill="currentColor" viewBox="0 0 24 24" xmlns="http://www.w3.org/2000/svg"><path fill-rule="evenodd" d="M16.895 3.514c-.277-.921-1.258-1.496-2.222-1.175A19.506 19.506 0 0 0 2.34 14.673c-.321.964.254 1.945 1.175 2.222l15.928 4.778c1.367.41 2.641-.864 2.231-2.231zm-1.747.248c.11-.037.261.02.31.183l.54 1.802A16.73 16.73 0 0 0 5.749 16l-1.803-.541c-.163-.049-.22-.2-.183-.31A18.006 18.006 0 0 1 15.148 3.762m.382 6.708a.75.75 0 1 0-1.06 1.06l.353.354a.75.75 0 0 0 1.06-1.06zm-4 4a.75.75 0 1 0-1.06 1.06l.353.354a.75.75 0 0 0 1.06-1.06zm5 1a.75.75 0 1 0-1.06 1.06l.353.354a.75.75 0 0 0 1.06-1.06z"/></svg>