<svg width="24" height="24" fill="currentColor" viewBox="0 0 24 24" xmlns="http://www.w3.org/2000/svg"><path d="m16.895 3.514 4.778 15.928c.41 1.367-.864 2.641-2.231 2.231L3.514 16.895c-.921-.277-1.496-1.258-1.175-2.222A19.5 19.5 0 0 1 14.673 2.34c.964-.321 1.945.254 2.222 1.175m-1.747.248A18 18 0 0 0 3.762 15.148c-.037.11.02.261.183.31l1.802.54A16.73 16.73 0 0 1 16 5.749l-.541-1.803c-.049-.163-.2-.22-.31-.183m.382 6.708a.75.75 0 1 0-1.06 1.06l.353.354a.75.75 0 0 0 1.06-1.06zm-4 4a.75.75 0 1 0-1.06 1.06l.353.354a.75.75 0 0 0 1.06-1.06zm5 1a.75.75 0 1 0-1.06 1.06l.353.354a.75.75 0 0 0 1.06-1.06z"/></svg>