<svg width="24" height="24" fill="currentColor" viewBox="0 0 24 24" xmlns="http://www.w3.org/2000/svg"><path fill-rule="evenodd" d="M19.08 12.215c-1.272 1.257-2.939 2.526-4.852 3.646-1.622.95-3.243 1.689-4.738 2.19.888.448 1.89.699 2.948.699 3.59 0 6.53-2.897 6.642-6.535m-11.548 6.37a8.046 8.046 0 0 0 4.906 1.665c4.509 0 8.146-3.704 8.146-8.25 0-.464-.038-.92-.111-1.363.506-.676.89-1.353 1.1-2.001.236-.734.272-1.518-.115-2.197-.394-.692-1.1-1.056-1.864-1.213-.722-.149-1.576-.132-2.494.008a8.034 8.034 0 0 0-4.662-1.484C7.93 3.75 4.293 7.454 4.293 12c0 .121.003.242.008.363-.773.851-1.371 1.707-1.716 2.516-.368.862-.502 1.808-.043 2.615.448.786 1.293 1.148 2.186 1.267.81.108 1.77.037 2.804-.175m-1.354-1.307a8.268 8.268 0 0 1-1.554-2.942 6.064 6.064 0 0 0-.66 1.132c-.285.67-.242 1.067-.118 1.284.118.207.413.433 1.081.522.352.047.772.05 1.25.004M18.616 6.623c.252.007.478.031.676.072.52.107.758.303.862.486.105.183.153.49-.01.994-.054.17-.13.353-.229.548a8.277 8.277 0 0 0-1.299-2.1"/></svg>