<svg width="24" height="24" fill="currentColor" viewBox="0 0 24 24" xmlns="http://www.w3.org/2000/svg"><path fill-rule="evenodd" d="M8.037 2.408a2.32 2.32 0 0 1 .9-.158h6.126c.302 0 .602.036.9.158.299.122.54.31.762.53l4.337 4.337c.22.221.408.463.53.762.123.298.158.598.158.9v6.126c0 .313-.039.616-.163.914a2.32 2.32 0 0 1-.525.748l-4.337 4.337a2.317 2.317 0 0 1-.762.53 2.32 2.32 0 0 1-.9.158H8.937c-.313 0-.616-.039-.914-.163a2.319 2.319 0 0 1-.748-.525l-4.337-4.337a2.317 2.317 0 0 1-.53-.762 2.32 2.32 0 0 1-.158-.9V8.937c0-.313.039-.616.163-.914a2.32 2.32 0 0 1 .525-.748l4.337-4.337c.221-.22.463-.408.762-.53m4.518 6.9.048.03c.183.112.366.229.532.345.189.133.388.287.581.445l.04.033c.301.245.599.488.811.735.254.295.433.648.433 1.104 0 .456-.18.809-.433 1.104-.212.247-.51.49-.81.735l-.04.033c-.194.158-.393.312-.582.445a9.802 9.802 0 0 1-.532.345l-.048.03c-.292.177-.6.365-.88.465a1.419 1.419 0 0 1-.586.09 1.188 1.188 0 0 1-.632-.24c-.368-.278-.504-.672-.569-1.01-.061-.314-.084-.711-.109-1.144l-.003-.046A14.273 14.273 0 0 1 9.75 12c0-.254.01-.531.026-.807l.003-.046c.025-.433.048-.83.109-1.145.065-.337.2-.731.57-1.008.18-.136.392-.223.63-.24a1.42 1.42 0 0 1 .588.09c.278.1.587.287.879.465"/></svg>