<svg width="24" height="24" fill="currentColor" viewBox="0 0 24 24" xmlns="http://www.w3.org/2000/svg"><path fill-rule="evenodd" d="M10.68 2.105a2.63 2.63 0 0 1 2.64 0l.001.001 6.611 3.8A2.645 2.645 0 0 1 21.25 8.2v7.603a2.66 2.66 0 0 1-1.318 2.291l-.003.002-6.608 3.799h-.002a2.63 2.63 0 0 1-2.639 0h-.001l-6.608-3.8h-.003A2.644 2.644 0 0 1 2.75 15.8V8.198a2.66 2.66 0 0 1 1.318-2.291l.003-.002zm1.875 7.204.048.03c.183.11.366.228.532.344.189.133.388.287.581.445l.04.033c.301.245.599.488.811.735.254.295.433.648.433 1.104 0 .456-.18.809-.433 1.104-.212.247-.51.49-.81.735l-.04.033c-.194.158-.393.312-.582.445a9.802 9.802 0 0 1-.532.345l-.048.03c-.292.177-.6.365-.88.465a1.419 1.419 0 0 1-.586.09 1.188 1.188 0 0 1-.632-.24c-.368-.278-.504-.672-.569-1.01-.061-.314-.084-.711-.109-1.144l-.003-.046A14.273 14.273 0 0 1 9.75 12c0-.254.01-.531.026-.807l.003-.046c.025-.433.048-.83.109-1.145.065-.337.2-.731.57-1.008.18-.136.392-.223.63-.24a1.42 1.42 0 0 1 .588.09c.278.1.587.287.879.465"/></svg>