<svg width="24" height="24" fill="currentColor" viewBox="0 0 24 24" xmlns="http://www.w3.org/2000/svg"><path d="M10.68 2.105a2.63 2.63 0 0 1 2.64 0l.001.001 6.611 3.8A2.65 2.65 0 0 1 21.25 8.2v7.603a2.66 2.66 0 0 1-1.318 2.291l-.003.002-6.608 3.799h-.002a2.63 2.63 0 0 1-2.639 0h-.001l-6.608-3.8h-.003A2.64 2.64 0 0 1 2.75 15.8V8.198a2.66 2.66 0 0 1 1.318-2.291l.003-.002zm1.875 7.204c-.292-.178-.6-.366-.88-.466a1.4 1.4 0 0 0-.586-.09 1.2 1.2 0 0 0-.632.24c-.368.278-.504.672-.569 1.01-.061.314-.084.711-.109 1.144l-.003.046c-.015.276-.026.553-.026.807s.01.531.026.807l.003.046c.025.433.048.83.109 1.145.065.337.2.731.57 1.008.18.136.392.223.63.24.225.017.426-.031.588-.09.278-.1.587-.287.879-.465l.048-.03a9 9 0 0 0 1.113-.789l.04-.033c.301-.245.599-.488.811-.735.254-.295.433-.648.433-1.104s-.18-.809-.433-1.104c-.212-.247-.51-.49-.81-.735l-.04-.033a10 10 0 0 0-.582-.445 10 10 0 0 0-.532-.345z"/></svg>