<svg width="24" height="24" fill="currentColor" viewBox="0 0 24 24" xmlns="http://www.w3.org/2000/svg"><path fill-rule="evenodd" d="M4.25 5c0-.966.783-1.75 1.75-1.75h12c.966 0 1.75.784 1.75 1.75v4.25H20c.966 0 1.75.784 1.75 1.75v8A1.75 1.75 0 0 1 20 20.75H4A1.75 1.75 0 0 1 2.25 19v-8c0-.966.784-1.75 1.75-1.75h.25zm14 4.25H5.75V5A.25.25 0 0 1 6 4.75h12a.25.25 0 0 1 .25.25zm-1.5 10V17a.25.25 0 0 0-.25-.25H11a.25.25 0 0 0-.25.25v2.25zM5.25 13a.75.75 0 0 1 .75-.75h2a.75.75 0 0 1 0 1.5H6a.75.75 0 0 1-.75-.75"/></svg>