<svg width="24" height="24" fill="currentColor" viewBox="0 0 24 24" xmlns="http://www.w3.org/2000/svg"><path d="M6.045 4.972a.75.75 0 0 1-.005 1.06A8.398 8.398 0 0 0 3.543 12c0 2.237.897 4.383 2.497 5.967a.75.75 0 0 1-1.056 1.066A9.898 9.898 0 0 1 2.044 12a9.898 9.898 0 0 1 2.94-7.033.75.75 0 0 1 1.06.005m11.492 0a.75.75 0 0 1 1.06-.005A9.898 9.898 0 0 1 21.54 12a9.898 9.898 0 0 1-2.941 7.033.75.75 0 1 1-1.056-1.066A8.398 8.398 0 0 0 20.04 12a8.398 8.398 0 0 0-2.497-5.967.75.75 0 0 1-.005-1.06M9.085 7.768a.75.75 0 0 1-.006 1.06 4.484 4.484 0 0 0-.984 1.456 4.442 4.442 0 0 0 .984 4.888.75.75 0 0 1-1.055 1.066 5.985 5.985 0 0 1-1.313-1.943 5.942 5.942 0 0 1 1.313-6.533.75.75 0 0 1 1.06.006m5.622 0a.75.75 0 0 1 1.06-.006 5.984 5.984 0 0 1 1.313 1.943 5.94 5.94 0 0 1 0 4.59 5.985 5.985 0 0 1-1.313 1.943.75.75 0 0 1-1.054-1.066c.421-.417.755-.912.983-1.456a4.442 4.442 0 0 0-.983-4.888.75.75 0 0 1-.006-1.06M9.75 12a2.25 2.25 0 1 1 4.5 0 2.25 2.25 0 0 1-4.5 0"/></svg>