<svg width="24" height="24" fill="currentColor" viewBox="0 0 24 24" xmlns="http://www.w3.org/2000/svg"><path fill-rule="evenodd" d="M12 1.25a3.16 3.16 0 0 0-2.235.926L2.177 9.765a3.16 3.16 0 0 0 0 4.47l7.588 7.588a3.159 3.159 0 0 0 4.47 0l7.588-7.588a3.159 3.159 0 0 0 0-4.47l-7.588-7.588A3.16 3.16 0 0 0 12 1.25m-1.207 7.744a1.188 1.188 0 0 0-.632-.24 1.42 1.42 0 0 0-.587.09c-.278.1-.587.287-.879.465l-.048.03a9.78 9.78 0 0 0-.532.344 10.38 10.38 0 0 0-.581.445l-.04.033c-.301.245-.599.488-.811.735-.254.295-.433.648-.433 1.104 0 .456.18.809.433 1.104.212.247.51.49.81.736l.04.032c.194.158.393.312.582.445.166.117.349.233.532.345l.048.03c.292.177.6.365.88.465.16.058.362.106.586.09.239-.018.451-.105.632-.24.368-.278.504-.672.569-1.01.061-.314.084-.711.109-1.144l.002-.046c.016-.276.027-.553.027-.807s-.01-.531-.027-.807l-.002-.046c-.025-.433-.048-.83-.109-1.145-.065-.337-.2-.731-.57-1.008m5.118-.24c.239.017.451.104.632.24.368.277.504.67.569 1.008.061.315.084.712.109 1.145l.003.046c.015.276.026.553.026.807s-.01.531-.026.807l-.003.046c-.025.433-.048.83-.109 1.145-.065.337-.2.731-.57 1.008-.18.136-.392.223-.63.24a1.419 1.419 0 0 1-.588-.09c-.278-.1-.587-.287-.879-.465l-.048-.03a9.802 9.802 0 0 1-.532-.344 10.397 10.397 0 0 1-.581-.445l-.04-.033c-.301-.245-.599-.488-.811-.735C12.179 12.81 12 12.456 12 12c0-.456.18-.809.433-1.104.212-.247.51-.49.81-.735l.04-.033c.194-.158.393-.312.582-.445a9.79 9.79 0 0 1 .532-.345l.048-.03c.292-.177.6-.365.88-.465a1.42 1.42 0 0 1 .586-.09"/></svg>