<svg width="24" height="24" fill="currentColor" viewBox="0 0 24 24" xmlns="http://www.w3.org/2000/svg"><path d="M12 2.25a6.75 6.75 0 1 0 0 13.5 6.75 6.75 0 0 0 0-13.5"/><path fill-rule="evenodd" d="M8.741 13.587a.75.75 0 0 0-1.482-.23l-1 6.44a.751.751 0 0 0-.009.114c0 .496.274.869.54 1.106.271.24.609.413.933.528.33.117.688.19 1.03.204.323.014.716-.021 1.053-.205l2.106-1.147a.177.177 0 0 1 .176 0l2.106 1.147c.337.184.73.22 1.054.206.34-.015.7-.088 1.029-.205a2.85 2.85 0 0 0 .932-.528c.267-.237.541-.61.541-1.106a.752.752 0 0 0-.009-.115l-1-6.439a.75.75 0 1 0-1.482.23l.976 6.288a1.378 1.378 0 0 1-.46.257c-.2.07-.411.111-.591.119a.74.74 0 0 1-.271-.024h-.001l-2.106-1.147a1.677 1.677 0 0 0-1.612 0l-2.106 1.147c-.012.004-.094.032-.272.024a2.098 2.098 0 0 1-.59-.12 1.379 1.379 0 0 1-.461-.256zm7.522 6.256.002-.003h-.001z"/></svg>