<svg width="24" height="24" fill="currentColor" viewBox="0 0 24 24" xmlns="http://www.w3.org/2000/svg"><path d="M8.037 2.408c-.299.122-.54.31-.762.53L2.938 7.275c-.213.214-.4.45-.525.748a2.3 2.3 0 0 0-.163.914v6.126c0 .302.036.602.158.9s.31.54.53.762l4.337 4.337c.214.213.45.4.748.524.298.125.601.164.914.164h6.126c.302 0 .602-.035.9-.158.299-.122.54-.31.762-.53l4.337-4.337c.213-.214.4-.45.524-.748a2.3 2.3 0 0 0 .164-.914V8.937a2.3 2.3 0 0 0-.158-.9 2.3 2.3 0 0 0-.53-.762l-4.337-4.337a2.3 2.3 0 0 0-.762-.53 2.3 2.3 0 0 0-.9-.158H8.937a2.3 2.3 0 0 0-.9.158M8.25 7.5A.75.75 0 0 1 9 6.75h6a.75.75 0 0 1 0 1.5h-1.794c.238.393.395.83.476 1.278H15a.75.75 0 0 1 0 1.5h-1.318a3.65 3.65 0 0 1-.721 1.628 3.03 3.03 0 0 1-2.214 1.141l3.045 3.185a.75.75 0 0 1-1.084 1.036l-4.25-4.444A.75.75 0 0 1 9 12.306h1.5c.6 0 1.012-.24 1.29-.587a2 2 0 0 0 .352-.691H9a.75.75 0 0 1 0-1.5h3.142a2 2 0 0 0-.352-.691c-.278-.347-.69-.587-1.29-.587H9a.75.75 0 0 1-.75-.75"/></svg>