<svg width="24" height="24" fill="currentColor" viewBox="0 0 24 24" xmlns="http://www.w3.org/2000/svg"><path d="M10.565 2.075c-.394.189-.755.497-1.26.928l-.079.066a2.56 2.56 0 0 1-1.58.655l-.102.008c-.662.053-1.135.09-1.547.236a3.33 3.33 0 0 0-2.03 2.029c-.145.412-.182.885-.235 1.547l-.008.102a2.56 2.56 0 0 1-.655 1.58l-.066.078c-.431.506-.74.867-.928 1.261a3.33 3.33 0 0 0 0 2.87c.189.394.497.755.928 1.26l.066.079c.41.48.604.939.655 1.58l.008.102c.053.662.09 1.135.236 1.547a3.33 3.33 0 0 0 2.029 2.03c.412.145.885.182 1.547.235l.102.008c.629.05 1.09.238 1.58.655l.079.066c.505.431.866.74 1.26.928a3.33 3.33 0 0 0 2.87 0c.394-.189.755-.497 1.26-.928l.079-.066c.48-.41.939-.604 1.58-.655l.102-.008c.662-.053 1.135-.09 1.547-.236a3.33 3.33 0 0 0 2.03-2.029c.145-.412.182-.885.235-1.547l.008-.102c.05-.629.238-1.09.655-1.58l.066-.079c.431-.505.74-.866.928-1.26a3.33 3.33 0 0 0 0-2.87c-.189-.394-.497-.755-.928-1.26l-.066-.079a2.56 2.56 0 0 1-.655-1.58l-.008-.102c-.053-.662-.09-1.135-.236-1.547a3.33 3.33 0 0 0-2.029-2.03c-.412-.145-.885-.182-1.547-.235l-.102-.008a2.56 2.56 0 0 1-1.58-.655l-.079-.066c-.505-.431-.866-.74-1.26-.928a3.33 3.33 0 0 0-2.87 0M8.25 7.5A.75.75 0 0 1 9 6.75h6a.75.75 0 0 1 0 1.5h-1.794c.238.393.395.83.476 1.278H15a.75.75 0 0 1 0 1.5h-1.318a3.65 3.65 0 0 1-.721 1.628 3.03 3.03 0 0 1-2.214 1.141l3.045 3.185a.75.75 0 0 1-1.084 1.036l-4.25-4.444A.75.75 0 0 1 9 12.306h1.5c.6 0 1.012-.24 1.29-.587a2 2 0 0 0 .352-.691H9a.75.75 0 0 1 0-1.5h3.142a2 2 0 0 0-.352-.691c-.278-.347-.69-.587-1.29-.587H9a.75.75 0 0 1-.75-.75"/></svg>