<svg width="24" height="24" fill="currentColor" viewBox="0 0 24 24" xmlns="http://www.w3.org/2000/svg"><path fill-rule="evenodd" d="M2.25 12c0-5.385 4.365-9.75 9.75-9.75s9.75 4.365 9.75 9.75-4.365 9.75-9.75 9.75S2.25 17.385 2.25 12m6-4.5A.75.75 0 0 1 9 6.75h6a.75.75 0 0 1 0 1.5h-1.794c.238.393.395.83.476 1.278H15a.75.75 0 0 1 0 1.5h-1.318a3.65 3.65 0 0 1-.721 1.628 3.034 3.034 0 0 1-2.214 1.141l3.045 3.185a.75.75 0 0 1-1.084 1.036l-4.25-4.444A.75.75 0 0 1 9 12.306h1.5c.6 0 1.012-.24 1.29-.587a2.05 2.05 0 0 0 .352-.691H9a.75.75 0 0 1 0-1.5h3.142a2.05 2.05 0 0 0-.352-.691c-.278-.347-.69-.587-1.29-.587H9a.75.75 0 0 1-.75-.75"/></svg>