<svg width="24" height="24" fill="currentColor" viewBox="0 0 24 24" xmlns="http://www.w3.org/2000/svg"><path fill-rule="evenodd" d="M2.25 12.044C2.25 6.64 6.612 2.25 12 2.25s9.75 4.389 9.75 9.794v6.517c0 .764-.308 1.57-.8 2.127-.501.567-1.354 1.012-2.287.543-.304-.153-.748-.263-1.202-.273-.464-.01-.831.084-1.044.226-1.126.755-2.708.755-3.834 0-.356-.238-.623-.311-.84-.31-.22.002-.482.08-.826.31-1.126.755-2.708.755-3.834 0-.471-.316-1.05-.303-1.746.047-.933.469-1.786.024-2.287-.543a3.326 3.326 0 0 1-.8-2.126zm6.303 3.354A5.766 5.766 0 0 1 12 14.25c1.285 0 2.474.427 3.447 1.148a.75.75 0 0 1-.894 1.204A4.267 4.267 0 0 0 12 15.75a4.27 4.27 0 0 0-2.553.852.75.75 0 1 1-.894-1.204M10.25 10a.75.75 0 1 0-1.5 0v.5a.75.75 0 0 0 1.5 0zm4.25-.75a.75.75 0 0 1 .75.75v.5a.75.75 0 1 1-1.5 0V10a.75.75 0 0 1 .75-.75"/></svg>