<svg width="24" height="24" fill="currentColor" viewBox="0 0 24 24" xmlns="http://www.w3.org/2000/svg"><path fill-rule="evenodd" d="M8.5 3.75v1.897c0 .46.375.838.844.838h5.312a.841.841 0 0 0 .844-.838v-1.83a2.447 2.447 0 0 0-.57-.067zm8.813 18a3.932 3.932 0 0 0 3.937-3.927V8.551a3.921 3.921 0 0 0-1.154-2.777l-2.383-2.375A3.937 3.937 0 0 0 14.93 2.25H6.688A3.932 3.932 0 0 0 2.75 6.176v11.647a3.932 3.932 0 0 0 3.938 3.927zm-1.813-1.5v-4.015a.841.841 0 0 0-.844-.838H9.344a.841.841 0 0 0-.844.838v4.015z"/></svg>