<svg width="24" height="24" fill="currentColor" viewBox="0 0 24 24" xmlns="http://www.w3.org/2000/svg"><path fill-rule="evenodd" d="M18.122 2.26a.75.75 0 0 1 .597.524l3 10a1 1 0 0 1 .028.171l.003.045v1.429c0 1.938-1.792 3.321-3.75 3.321s-3.75-1.383-3.75-3.321V13a.8.8 0 0 1 .031-.216l2.71-9.034H12.75v16.5H18a.75.75 0 0 1 0 1.5H6a.75.75 0 0 1 0-1.5h5.25V3.75H7.009l2.71 9.034a1 1 0 0 1 .028.171L9.75 13v1.429c0 1.938-1.792 3.321-3.75 3.321s-3.75-1.383-3.75-3.321V13a.8.8 0 0 1 .031-.216l3-10 .045-.113A.75.75 0 0 1 6 2.25h12zm-2.113 9.99h3.982L18 5.611zm-12 0H7.99L6 5.611z"/></svg>