<svg width="24" height="24" fill="currentColor" viewBox="0 0 24 24" xmlns="http://www.w3.org/2000/svg"><path fill-rule="evenodd" d="m6.123 2.26 12 2a.75.75 0 0 1 .589.502l3 9a.8.8 0 0 1 .038.238v1.428c0 1.939-1.792 3.322-3.75 3.322s-3.75-1.383-3.75-3.322V14a.8.8 0 0 1 .038-.238l2.722-8.167-4.26-.71V20.25H18a.75.75 0 0 1 0 1.5H6a.75.75 0 0 1 0-1.5h5.25V4.635l-4.145-.691 2.607 7.818A.8.8 0 0 1 9.75 12v1.428c0 1.939-1.792 3.322-3.75 3.322s-3.75-1.383-3.75-3.322V12a.8.8 0 0 1 .038-.238l3-9 .055-.124a.75.75 0 0 1 .78-.379m9.918 10.99h3.918L18 7.373zm-12-2h3.918L6 5.373z"/></svg>