<svg width="24" height="24" fill="currentColor" viewBox="0 0 24 24" xmlns="http://www.w3.org/2000/svg"><path d="m3 13-.718-.216A.8.8 0 0 0 2.25 13zm6 0h.75a.8.8 0 0 0-.032-.216zm6 0-.718-.216a.8.8 0 0 0-.032.216zm6 0h.75a.8.8 0 0 0-.032-.216zM6 20.25a.75.75 0 0 0 0 1.5zm12 1.5a.75.75 0 0 0 0-1.5zM18 3l.718-.215A.75.75 0 0 0 18 2.25zM6 3v-.75a.75.75 0 0 0-.718.535zm6 0v-.75zM3 14.429h.75V13h-1.5v1.429zM6 17v-.75c-1.355 0-2.25-.92-2.25-1.821h-1.5c0 1.938 1.792 3.321 3.75 3.321zm3-4h-.75v1.429h1.5V13zm0 1.429h-.75c0 .901-.895 1.821-2.25 1.821v1.5c1.958 0 3.75-1.383 3.75-3.321zM3 13v.75h6v-1.5H3zm12 1.429h.75V13h-1.5v1.429zM18 17v-.75c-1.355 0-2.25-.92-2.25-1.821h-1.5c0 1.938 1.792 3.321 3.75 3.321zm3-4h-.75v1.429h1.5V13zm0 1.429h-.75c0 .901-.895 1.821-2.25 1.821v1.5c1.958 0 3.75-1.383 3.75-3.321zM15 13v.75h6v-1.5h-6zm3-10-.718.216 3 10L21 13l.718-.216-3-10zm0 0-.718-.215-3 10L15 13l.718.216 3-10zM6 3l-.718.216 3 10L9 13l.718-.216-3-10zm0 0-.718-.215-3 10L3 13l.718.216 3-10zm6 0v-.75H6v1.5h6zm0 0v.75h6v-1.5h-6zm0 18h.75V3h-1.5v18zm-6 0v.75h6v-1.5H6zm6 0v.75h6v-1.5h-6z"/></svg>