<svg width="24" height="24" fill="currentColor" viewBox="0 0 24 24" xmlns="http://www.w3.org/2000/svg"><path d="M4.427 4.361a5.72 5.72 0 0 1 5.146 0l.528.266a4.22 4.22 0 0 0 3.798 0l.528-.266a5.72 5.72 0 0 1 5.146 0l1.764.887a.75.75 0 1 1-.674 1.34l-1.764-.887a4.22 4.22 0 0 0-3.798 0l-.528.266a5.72 5.72 0 0 1-5.146 0L8.899 5.7a4.22 4.22 0 0 0-3.798 0l-1.764.887a.75.75 0 1 1-.674-1.34zm0 4.527a5.72 5.72 0 0 1 5.146 0l.528.266a4.22 4.22 0 0 0 3.798 0l.528-.266a5.72 5.72 0 0 1 5.146 0l1.764.888a.75.75 0 1 1-.674 1.34l-1.764-.888a4.22 4.22 0 0 0-3.798 0l-.528.266a5.72 5.72 0 0 1-5.146 0l-.528-.266a4.22 4.22 0 0 0-3.798 0l-1.764.888a.75.75 0 0 1-.674-1.34zm0 4.528a5.72 5.72 0 0 1 5.146 0l.528.265a4.22 4.22 0 0 0 3.798 0l.528-.265a5.72 5.72 0 0 1 5.146 0l1.764.887a.75.75 0 1 1-.674 1.34l-1.764-.888a4.22 4.22 0 0 0-3.798 0l-.528.266a5.72 5.72 0 0 1-5.146 0l-.528-.266a4.22 4.22 0 0 0-3.798 0l-1.764.888a.75.75 0 1 1-.674-1.34zm0 4.527a5.72 5.72 0 0 1 5.146 0l.528.265a4.22 4.22 0 0 0 3.798 0l.528-.265a5.72 5.72 0 0 1 5.146 0l1.764.887a.75.75 0 1 1-.674 1.34l-1.764-.887a4.22 4.22 0 0 0-3.798 0l-.528.265a5.72 5.72 0 0 1-5.146 0l-.528-.265a4.22 4.22 0 0 0-3.798 0l-1.764.887a.75.75 0 1 1-.674-1.34z"/></svg>