<svg width="24" height="24" fill="currentColor" viewBox="0 0 24 24" xmlns="http://www.w3.org/2000/svg"><path d="M8.75 11.429a2.679 2.679 0 1 1 5.357 0 2.679 2.679 0 0 1-5.357 0"/><path d="M10.68 2.105a2.63 2.63 0 0 1 2.64 0l.001.001 6.611 3.8A2.65 2.65 0 0 1 21.25 8.2v7.603a2.66 2.66 0 0 1-1.318 2.291l-.003.002-6.608 3.799h-.002a2.63 2.63 0 0 1-2.639 0h-.001l-6.608-3.8h-.003A2.64 2.64 0 0 1 2.75 15.8V8.198a2.66 2.66 0 0 1 1.318-2.291l.003-.002zm.749 5.145a4.179 4.179 0 1 0 2.38 7.614l1.66 1.665a.75.75 0 1 0 1.062-1.059l-1.663-1.668a4.179 4.179 0 0 0-3.44-6.552"/></svg>