<svg width="24" height="24" fill="currentColor" viewBox="0 0 24 24" xmlns="http://www.w3.org/2000/svg"><path d="M9.367 2.25h5.266c1.092 0 1.958 0 2.655.057.714.058 1.317.18 1.869.46a4.75 4.75 0 0 1 2.075 2.077c.281.55.403 1.154.461 1.868.057.697.057 1.563.057 2.655v5.266c0 1.092 0 1.958-.057 2.655-.058.714-.18 1.317-.46 1.869a4.75 4.75 0 0 1-2.076 2.075c-.552.281-1.155.403-1.869.461-.697.057-1.563.057-2.655.057H9.367c-1.092 0-1.958 0-2.655-.057-.714-.058-1.317-.18-1.868-.46a4.75 4.75 0 0 1-2.076-2.076c-.281-.552-.403-1.155-.461-1.869-.057-.697-.057-1.563-.057-2.655V9.367c0-1.092 0-1.958.057-2.655.058-.714.18-1.317.46-1.868a4.75 4.75 0 0 1 2.077-2.076c.55-.281 1.154-.403 1.868-.461.697-.057 1.563-.057 2.655-.057m.565 5.022a.75.75 0 0 0-.364 1.456c1.116.279 2.46.272 3.479.208l.084-.005c-.311.445-.665.975-1.02 1.55-.511.832-1.032 1.774-1.427 2.712-.39.926-.684 1.91-.684 2.807a.75.75 0 1 0 1.5 0c0-.603.206-1.37.566-2.225.355-.843.834-1.713 1.323-2.507a31.75 31.75 0 0 1 1.906-2.748l.031-.04.008-.01.002-.002a.75.75 0 0 0-.71-1.208l-.005.001-.022.004-.091.014a19.775 19.775 0 0 1-1.554.16c-.982.061-2.138.054-3.022-.167"/></svg>