<svg width="24" height="24" fill="currentColor" viewBox="0 0 24 24" xmlns="http://www.w3.org/2000/svg"><path fill-rule="evenodd" d="M2.25 12c0-5.385 4.365-9.75 9.75-9.75s9.75 4.365 9.75 9.75-4.365 9.75-9.75 9.75S2.25 17.385 2.25 12m7.682-4.728a.75.75 0 0 0-.364 1.456c1.116.279 2.46.272 3.479.208l.084-.005c-.311.445-.665.975-1.02 1.55-.511.832-1.032 1.774-1.427 2.712-.39.926-.684 1.91-.684 2.807a.75.75 0 1 0 1.5 0c0-.603.206-1.37.566-2.225.355-.843.834-1.713 1.323-2.507a31.75 31.75 0 0 1 1.906-2.748l.031-.04.008-.01.002-.002a.75.75 0 0 0-.71-1.208l-.005.001-.022.004-.091.014a19.775 19.775 0 0 1-1.554.16c-.982.061-2.138.054-3.022-.167"/></svg>