<svg width="24" height="24" fill="currentColor" viewBox="0 0 24 24" xmlns="http://www.w3.org/2000/svg"><path d="M8.522 6.818a.75.75 0 0 1 .91-.546c1.134.284 2.602.29 3.834.214a25 25 0 0 0 2.074-.22l.029-.005h.007a.75.75 0 0 1 .71 1.207l-.003.004-.01.012-.04.05-.153.198a40 40 0 0 0-2.242 3.254c-.613.998-1.217 2.095-1.666 3.16-.453 1.078-.722 2.064-.722 2.854a.75.75 0 0 1-1.5 0c0-1.085.356-2.287.84-3.436.489-1.16 1.135-2.329 1.771-3.363.53-.862 1.06-1.64 1.497-2.254q-.24.02-.499.036c-1.268.08-2.925.086-4.291-.255a.75.75 0 0 1-.546-.91"/></svg>