<svg width="24" height="24" fill="currentColor" viewBox="0 0 24 24" xmlns="http://www.w3.org/2000/svg"><path d="M11.582 2.377a.75.75 0 0 1 .836 0l.961.646a11.44 11.44 0 0 0 5.238 1.885A1.26 1.26 0 0 1 19.75 6.16V11c0 3.004-1.929 5.688-3.709 7.544a24 24 0 0 1-3.54 3.022q-.041.03-.064.044l-.017.012-.005.003-.002.001h-.827l-.006-.004-.017-.012-.065-.044-.234-.163a24 24 0 0 1-3.305-2.859C6.179 16.688 4.25 14.004 4.25 11V6.16c0-.647.49-1.188 1.133-1.252a11.44 11.44 0 0 0 5.238-1.885zm.006 19.25a.75.75 0 0 0 .824 0zm-.338-2.114V4.403a12.94 12.94 0 0 1-5.5 1.973V11c0 2.396 1.571 4.712 3.291 6.506a23 23 0 0 0 2.209 2.006"/></svg>