<svg width="24" height="24" fill="currentColor" viewBox="0 0 24 24" xmlns="http://www.w3.org/2000/svg"><path d="m11.226 2.49-.61.417a11.3 11.3 0 0 1-5.235 1.92 1.264 1.264 0 0 0-1.131 1.26v4.93c0 2.541 1.335 4.853 2.79 6.63 1.466 1.793 3.136 3.142 3.977 3.773a1.63 1.63 0 0 0 1.966 0c.841-.63 2.511-1.98 3.977-3.772 1.455-1.778 2.79-4.09 2.79-6.63V6.086c0-.64-.478-1.194-1.131-1.26a11.3 11.3 0 0 1-5.234-1.92l-.61-.417a1.37 1.37 0 0 0-1.55 0M12 8.25a.75.75 0 0 1 .75.75v1.25H14a.75.75 0 0 1 0 1.5h-1.25V13a.75.75 0 0 1-1.5 0v-1.25H10a.75.75 0 0 1 0-1.5h1.25V9a.75.75 0 0 1 .75-.75"/></svg>