<svg width="24" height="24" fill="currentColor" viewBox="0 0 24 24" xmlns="http://www.w3.org/2000/svg"><path d="M11.226 2.49a1.37 1.37 0 0 1 1.548 0l.61.417a11.3 11.3 0 0 0 5.235 1.92 1.264 1.264 0 0 1 1.131 1.26v4.93c0 1.604-.532 3.112-1.28 4.443-1.617 2.88-4.344 5.104-5.485 5.96-.588.44-1.382.44-1.97 0-1.141-.856-3.868-3.08-5.486-5.96-.747-1.33-1.279-2.839-1.279-4.442v-4.93c0-.64.478-1.195 1.131-1.262 1.872-.19 3.67-.85 5.234-1.919zM12 3.777l-.538.368a12.8 12.8 0 0 1-5.712 2.15v4.723c0 1.008.266 2.006.708 2.966l4.545-3.184c.6-.42 1.394-.42 1.994 0l4.545 3.184c.442-.96.708-1.958.708-2.966V6.295a12.8 12.8 0 0 1-5.712-2.15z"/></svg>