<svg width="24" height="24" fill="currentColor" viewBox="0 0 24 24" xmlns="http://www.w3.org/2000/svg"><path d="M11.582 2.377a.75.75 0 0 1 .836 0l.961.646a11.438 11.438 0 0 0 5.238 1.885A1.258 1.258 0 0 1 19.75 6.16V11c0 3.004-1.929 5.688-3.709 7.544a24.192 24.192 0 0 1-3.54 3.022c-.027.02-.049.034-.064.044l-.017.012-.005.003-.002.001L12 21l-.412.627-.002-.002-.006-.003-.017-.012-.065-.044a21.983 21.983 0 0 1-1.056-.78 24.2 24.2 0 0 1-2.483-2.242C6.179 16.688 4.25 14.004 4.25 11V6.16c0-.647.49-1.188 1.133-1.252a11.438 11.438 0 0 0 5.238-1.885zM12 21l-.412.627a.75.75 0 0 0 .824 0zm-.75-1.488V11.75H5.8c.28 2.125 1.701 4.15 3.241 5.756a22.621 22.621 0 0 0 2.209 2.006m7-9.262V6.377a12.938 12.938 0 0 1-5.5-1.973v5.846z"/></svg>