<svg width="24" height="24" fill="currentColor" viewBox="0 0 24 24" xmlns="http://www.w3.org/2000/svg"><path d="M12 15.25a1.75 1.75 0 0 1-1.75-1.75c0-.458.171-.729.422-.91.283-.205.735-.34 1.328-.34s1.045.135 1.328.34c.251.181.422.452.422.91A1.75 1.75 0 0 1 12 15.25"/><path d="M10.68 2.105a2.63 2.63 0 0 1 2.64 0l.001.001 6.611 3.8A2.65 2.65 0 0 1 21.25 8.2v7.603a2.66 2.66 0 0 1-1.318 2.291l-.003.002-6.608 3.799h-.002a2.63 2.63 0 0 1-2.639 0h-.001l-6.608-3.8h-.003A2.64 2.64 0 0 1 2.75 15.8V8.198a2.66 2.66 0 0 1 1.318-2.291l.003-.002zM12.5 7.25A3.75 3.75 0 0 0 8.75 11v2.5a3.25 3.25 0 0 0 6.5 0c0-.923-.389-1.652-1.043-2.125-.621-.45-1.419-.625-2.207-.625-.606 0-1.217.103-1.75.355V11a2.25 2.25 0 0 1 2.25-2.25h1a.75.75 0 0 0 0-1.5z"/></svg>