<svg width="24" height="24" fill="currentColor" viewBox="0 0 24 24" xmlns="http://www.w3.org/2000/svg"><path d="M12 15.25a1.75 1.75 0 0 1-1.75-1.75c0-.458.171-.729.422-.91.283-.205.735-.34 1.328-.34s1.045.135 1.328.34c.251.181.422.452.422.91A1.75 1.75 0 0 1 12 15.25"/><path d="M9.367 2.25h5.266c1.092 0 1.958 0 2.655.057.714.058 1.317.18 1.869.46a4.75 4.75 0 0 1 2.075 2.077c.281.55.403 1.154.461 1.868.057.697.057 1.563.057 2.655v5.266c0 1.092 0 1.958-.057 2.655-.058.714-.18 1.317-.46 1.869a4.75 4.75 0 0 1-2.076 2.075c-.552.281-1.155.403-1.869.461-.697.057-1.563.057-2.655.057H9.367c-1.092 0-1.958 0-2.655-.057-.714-.058-1.317-.18-1.868-.46a4.75 4.75 0 0 1-2.076-2.076c-.281-.552-.403-1.155-.461-1.869-.057-.697-.057-1.563-.057-2.655V9.367c0-1.092 0-1.958.057-2.655.058-.714.18-1.317.46-1.868a4.75 4.75 0 0 1 2.077-2.076c.55-.281 1.154-.403 1.868-.461.697-.057 1.563-.057 2.655-.057m3.133 5A3.75 3.75 0 0 0 8.75 11v2.5a3.25 3.25 0 0 0 6.5 0c0-.923-.389-1.652-1.043-2.125-.621-.45-1.419-.625-2.207-.625-.606 0-1.217.103-1.75.355V11a2.25 2.25 0 0 1 2.25-2.25h1a.75.75 0 0 0 0-1.5z"/></svg>