<svg width="24" height="24" fill="currentColor" viewBox="0 0 24 24" xmlns="http://www.w3.org/2000/svg"><path d="M5.25 4A.75.75 0 0 1 6 3.25h12a.75.75 0 0 1 0 1.5h-.62c-.127 1.262-.574 2.465-1.34 3.412-.93 1.15-2.308 1.89-4.04 1.89s-3.11-.74-4.04-1.89c-.766-.947-1.213-2.15-1.34-3.412H6A.75.75 0 0 1 5.25 4m1.72 7.463a.75.75 0 0 1 1.054.114c.771.958 1.024 1.861.91 2.741-.103.792-.501 1.484-.815 2.03l-.029.05c-.349.606-.595 1.056-.656 1.524-.053.404.028.909.59 1.608a.75.75 0 1 1-1.168.94c-.771-.957-1.024-1.861-.91-2.741.103-.792.501-1.484.815-2.03l.029-.05c.349-.606.595-1.056.656-1.524.053-.404-.028-.908-.59-1.607a.75.75 0 0 1 .114-1.055m4.56 0a.75.75 0 0 1 1.054.114c.771.958 1.024 1.861.91 2.741-.103.792-.501 1.484-.815 2.03l-.029.05c-.349.606-.595 1.056-.656 1.524-.053.404.028.909.59 1.608a.75.75 0 1 1-1.168.94c-.771-.957-1.024-1.861-.91-2.741.103-.792.501-1.484.815-2.03l.029-.05c.349-.606.595-1.056.656-1.524.053-.404-.028-.908-.59-1.607a.75.75 0 0 1 .114-1.055m4.56 0a.75.75 0 0 1 1.054.114c.771.958 1.024 1.861.91 2.741-.103.792-.501 1.484-.815 2.03l-.029.05c-.349.606-.596 1.056-.656 1.524-.053.404.028.909.59 1.608a.75.75 0 1 1-1.168.94c-.771-.957-1.024-1.861-.91-2.741.103-.792.501-1.484.815-2.03l.029-.05c.349-.606.596-1.056.656-1.524.053-.404-.028-.908-.59-1.607a.75.75 0 0 1 .114-1.055"/></svg>