<svg width="24" height="24" fill="currentColor" viewBox="0 0 24 24" xmlns="http://www.w3.org/2000/svg"><path d="M9.417 2.476a.75.75 0 0 1 1.06-.012L12 3.95l1.523-1.487a.75.75 0 0 1 1.048 1.072l-1.821 1.78v5.4L17.563 8l.667-2.43a.75.75 0 0 1 1.446.396l-.548 2 2.062.54a.75.75 0 0 1-.38 1.452l-2.502-.656L13.526 12l4.782 2.698 2.502-.656a.75.75 0 0 1 .38 1.451l-2.062.54.548 2a.75.75 0 1 1-1.446.397L17.563 16l-4.813-2.716v5.4l1.82 1.78a.75.75 0 1 1-1.047 1.072L12 20.05l-1.523 1.487a.75.75 0 0 1-1.048-1.072l1.82-1.78v-5.4L6.438 16l-.667 2.43a.75.75 0 0 1-1.447-.396l.549-2-2.062-.54a.75.75 0 1 1 .38-1.452l2.502.656L10.473 12l-4.78-2.698-2.502.656a.75.75 0 1 1-.38-1.451l2.062-.54-.549-2A.75.75 0 0 1 5.77 5.57L6.437 8l4.813 2.716v-5.4l-1.821-1.78a.75.75 0 0 1-.012-1.06"/></svg>