<svg width="24" height="24" fill="currentColor" viewBox="0 0 24 24" xmlns="http://www.w3.org/2000/svg"><path d="M13.425 2.217a1 1 0 0 1 1.39 1.423l-.069.075L13 5.42v4.866l4.349-2.454.64-2.33.032-.097a1 1 0 0 1 1.897.626l-.482 1.756 1.817.477.098.03a1 1 0 0 1-.504 1.926l-.1-.022-2.405-.63L14.035 12l4.307 2.43 2.405-.63.1-.02a1 1 0 0 1 .406 1.955l-1.817.476.482 1.757.021.1a1 1 0 0 1-1.918.526l-.032-.098-.64-2.33L13 13.712v4.866l1.746 1.707.07.075a1 1 0 0 1-1.391 1.423l-.077-.068L12 20.398l-1.348 1.317a1 1 0 0 1-1.398-1.43L11 18.578v-4.866l-4.35 2.454-.64 2.33-.03.098a1 1 0 0 1-1.898-.626l.482-1.757-1.817-.476-.098-.03a1 1 0 0 1 .504-1.926l.1.022 2.404.629L9.964 12 5.657 9.57l-2.404.63-.1.02a1 1 0 0 1-.406-1.955l1.817-.477-.482-1.756-.021-.1a1 1 0 0 1 1.919-.526l.03.098.64 2.329L11 10.287V5.421L9.254 3.715l-.07-.075a1 1 0 0 1 1.391-1.423l.077.068L12 3.602l1.348-1.317z"/></svg>