<svg width="24" height="24" fill="currentColor" viewBox="0 0 24 24" xmlns="http://www.w3.org/2000/svg"><path d="M19.95 9.155V7c0-1.995-1.472-3.75-3.45-3.75h-9C5.522 3.25 4.05 5.005 4.05 7v2.182a3 3 0 0 0-.863.325c-.476.276-.937.768-.937 1.493v4c0 1.995 1.472 3.75 3.45 3.75h1.05V20a.75.75 0 0 0 1.5 0v-1.25h7.5V20a.75.75 0 0 0 1.5 0v-1.25h1.05c1.978 0 3.45-1.755 3.45-3.75v-4c0-.74-.432-1.255-.945-1.544a2.8 2.8 0 0 0-.855-.301M18.3 17.25H5.7c-1.005 0-1.95-.931-1.95-2.25v-4c0-.01-.004-.083.188-.194.203-.118.522-.204.88-.212s.665.064.852.17c.162.091.18.165.18.236 0 .693.051 1.592.408 2.335.186.388.464.753.874 1.018.412.266.905.397 1.468.397h6.8c.563 0 1.056-.131 1.468-.397.41-.265.688-.63.874-1.018.357-.743.408-1.643.408-2.336 0-.008-.004-.082.188-.193.203-.118.522-.204.88-.212s.665.064.852.17c.162.091.18.165.18.236v4c0 1.319-.945 2.25-1.95 2.25"/></svg>