<svg width="24" height="24" fill="currentColor" viewBox="0 0 24 24" xmlns="http://www.w3.org/2000/svg"><path fill-rule="evenodd" d="M19.95 9.155V7c0-1.995-1.472-3.75-3.45-3.75h-9C5.522 3.25 4.05 5.005 4.05 7v2.182a3.03 3.03 0 0 0-.863.325c-.476.276-.937.768-.937 1.493v4c0 1.995 1.472 3.75 3.45 3.75h1.05V20a.75.75 0 0 0 1.5 0v-1.25h7.5V20a.75.75 0 0 0 1.5 0v-1.25h1.05c1.978 0 3.45-1.755 3.45-3.75v-4c0-.74-.432-1.255-.945-1.544a2.799 2.799 0 0 0-.855-.301M18.3 17.25c1.005 0 1.95-.931 1.95-2.25v-4c0-.071-.018-.145-.18-.237-.187-.105-.494-.177-.853-.169-.357.008-.676.094-.879.212-.192.11-.189.185-.188.193 0 .693-.051 1.593-.408 2.336a2.444 2.444 0 0 1-.874 1.018c-.412.266-.905.397-1.468.397H8.6c-.563 0-1.056-.131-1.468-.397a2.444 2.444 0 0 1-.874-1.018c-.357-.743-.408-1.642-.408-2.335 0-.071-.018-.145-.18-.237-.187-.105-.494-.177-.853-.169-.357.008-.676.094-.879.212-.192.11-.188.185-.188.193V15c0 1.319.945 2.25 1.95 2.25z"/></svg>