<svg width="24" height="24" fill="currentColor" viewBox="0 0 24 24" xmlns="http://www.w3.org/2000/svg"><path d="M12 2.25a.75.75 0 0 1 .75.75v3a.75.75 0 0 1-1.5 0V3a.75.75 0 0 1 .75-.75M7.125 3.556a.75.75 0 0 1 1.025.275l1.5 2.598a.75.75 0 1 1-1.3.75L6.85 4.58a.75.75 0 0 1 .275-1.025m-3.569 3.57a.75.75 0 0 1 1.025-.275l2.598 1.5a.75.75 0 0 1-.75 1.3L3.83 8.15a.75.75 0 0 1-.275-1.025M2.25 12a.75.75 0 0 1 .75-.75h3a.75.75 0 0 1 0 1.5H3a.75.75 0 0 1-.75-.75m15 0a.75.75 0 0 1 .75-.75h3a.75.75 0 0 1 0 1.5h-3a.75.75 0 0 1-.75-.75m-9.797 2.625a.75.75 0 0 1-.274 1.024l-2.598 1.5a.75.75 0 0 1-.75-1.299l2.598-1.5a.75.75 0 0 1 1.024.275m9.094 0a.75.75 0 0 1 1.024-.275l2.598 1.5a.75.75 0 1 1-.75 1.3l-2.598-1.5a.75.75 0 0 1-.274-1.025m-1.922 1.922a.75.75 0 0 1 1.024.274l1.5 2.598a.75.75 0 0 1-1.299.75l-1.5-2.598a.75.75 0 0 1 .275-1.024m-5.25 0a.75.75 0 0 1 .275 1.024l-1.5 2.598a.75.75 0 0 1-1.3-.75l1.5-2.598a.75.75 0 0 1 1.025-.274M12 17.25a.75.75 0 0 1 .75.75v3a.75.75 0 0 1-1.5 0v-3a.75.75 0 0 1 .75-.75"/></svg>