<svg width="24" height="24" fill="currentColor" viewBox="0 0 24 24" xmlns="http://www.w3.org/2000/svg"><path d="M5.51 4.272a13 13 0 0 1 1.647.008c.704.055 1.558.204 2.125.66.777.586 1.172 1.487 1.254 2.374a3.87 3.87 0 0 1-.38 2.07c.36.47.667 1.046.926 1.63.354.798.651 1.687.892 2.511.097-.29.208-.582.332-.864.186-.424.414-.848.693-1.223-.63-1.322-.155-2.918 1.02-3.767.503-.386 1.221-.516 1.804-.567a12 12 0 0 1 1.825.004l.183.024c.835.153 1.387.915 1.337 1.743l-.02.178a12 12 0 0 1-.424 1.793c-.19.57-.49 1.256-.99 1.655-1.077.914-2.626.854-3.72.11q-.175.29-.335.654a11 11 0 0 0-.551 1.65 17 17 0 0 0-.252 1.18c2.416.07 4.748.88 6.9 1.779l1.024.439.068.034a.75.75 0 0 1-.595 1.368l-.073-.027-1.015-.435c-2.203-.92-4.41-1.665-6.632-1.666l-.514.014h-.078c-2.738-.144-5.452.907-8.161 2.087a.75.75 0 0 1-.6-1.375c2.415-1.052 5.092-2.126 7.88-2.216a34 34 0 0 0-.532-2.109 19 19 0 0 0-.837-2.365 8 8 0 0 0-.555-1.053c-1.228.88-2.9.682-4.047-.333-.547-.455-.88-1.236-1.093-1.901A13 13 0 0 1 3.62 6.72l-.08-.473c-.15-.95.506-1.862 1.498-1.942z"/></svg>