<svg width="24" height="24" fill="currentColor" viewBox="0 0 24 24" xmlns="http://www.w3.org/2000/svg"><path d="M13.51 3.139c-.652-1.185-2.368-1.185-3.021 0a27.979 27.979 0 0 0-2.114 4.894.348.348 0 0 1-.33.223 30.15 30.15 0 0 0-4.375.436c-1.337.233-1.926 1.837-.91 2.83a32.233 32.233 0 0 0 3.492 2.96.274.274 0 0 1 .108.31 27.554 27.554 0 0 0-1.17 5.066c-.19 1.424 1.317 2.298 2.494 1.694a29.311 29.311 0 0 0 4.085-2.537.398.398 0 0 1 .462 0 29.252 29.252 0 0 0 4.085 2.537c1.177.604 2.685-.27 2.495-1.694a27.643 27.643 0 0 0-1.171-5.065.274.274 0 0 1 .11-.31 32.237 32.237 0 0 0 3.49-2.96c1.016-.994.427-2.598-.91-2.831a29.759 29.759 0 0 0-4.376-.436.348.348 0 0 1-.329-.223 27.725 27.725 0 0 0-2.114-4.894"/></svg>