<svg width="24" height="24" fill="currentColor" viewBox="0 0 24 24" xmlns="http://www.w3.org/2000/svg"><path d="M8.037 2.408a2.3 2.3 0 0 1 .9-.158h6.126c.302 0 .602.036.9.158s.54.31.762.53l4.337 4.337c.22.221.408.463.53.762.123.298.158.598.158.9v6.126c0 .313-.039.616-.163.914a2.3 2.3 0 0 1-.525.748l-4.337 4.337a2.3 2.3 0 0 1-.762.53 2.3 2.3 0 0 1-.9.158H8.937c-.313 0-.616-.039-.914-.163a2.3 2.3 0 0 1-.748-.525l-4.337-4.337a2.3 2.3 0 0 1-.53-.762 2.3 2.3 0 0 1-.158-.9V8.937c0-.313.039-.616.163-.914a2.3 2.3 0 0 1 .525-.748l4.337-4.337c.221-.22.463-.408.762-.53m2.491 6.394c-.423.057-.847.188-1.192.534-.346.345-.477.769-.534 1.192-.052.391-.052.876-.052 1.425v.094c0 .549 0 1.034.052 1.425.057.423.188.847.534 1.192.345.346.769.477 1.192.534.391.052.876.052 1.425.052h.095c.548 0 1.033 0 1.424-.052.423-.057.847-.188 1.192-.534.346-.345.477-.769.534-1.192.052-.391.052-.876.052-1.424v-.095c0-.549 0-1.034-.052-1.424-.057-.424-.188-.848-.534-1.193-.345-.346-.769-.477-1.192-.534-.391-.052-.876-.052-1.425-.052h-.094c-.549 0-1.034 0-1.424.052"/></svg>