<svg width="24" height="24" fill="currentColor" viewBox="0 0 24 24" xmlns="http://www.w3.org/2000/svg"><path d="M3 2.25a.75.75 0 0 0-.75.75v1.8a.75.75 0 0 0 1.5 0V3.75H4.8a.75.75 0 0 0 0-1.5zm5.4 0a.75.75 0 0 0 0 1.5h1.8a.75.75 0 0 0 0-1.5zm5.4 0a.75.75 0 0 0 0 1.5h1.05v.6a.75.75 0 0 0 1.5 0V3a.75.75 0 0 0-.75-.75zM3.75 8.4a.75.75 0 0 0-1.5 0v1.8a.75.75 0 0 0 1.5 0zm11.85-.75a.75.75 0 0 0-.75.75v1.8a.75.75 0 0 0 1.5 0V9.15c.773 0 1.324.003 1.76.038.453.037.714.107.912.207.423.216.767.56.983.984.1.197.17.458.207.912.037.462.038 1.056.038 1.909v3c0 .852 0 1.447-.038 1.91-.038.453-.107.714-.207.912-.216.423-.56.767-.983.983-.198.1-.459.17-.913.207-.462.037-1.057.038-1.909.038h-3c-.852 0-1.447 0-1.91-.038-.453-.038-.714-.107-.911-.207a2.25 2.25 0 0 1-.984-.983c-.1-.198-.17-.459-.207-.913-.035-.435-.038-.986-.038-1.759h1.05a.75.75 0 0 0 0-1.5H8.4a.75.75 0 0 0-.75.75v.632c0 .813 0 1.469.043 2 .045.546.14 1.026.366 1.47a3.75 3.75 0 0 0 1.639 1.64c.444.226.924.32 1.47.365.531.043 1.187.043 2 .043h3.064c.813 0 1.469 0 2-.043.546-.045 1.026-.14 1.47-.366a3.75 3.75 0 0 0 1.64-1.639c.226-.444.32-.924.365-1.47.043-.531.043-1.187.043-2v-3.064c0-.813 0-1.469-.043-2-.045-.546-.14-1.026-.366-1.47a3.75 3.75 0 0 0-1.639-1.64c-.444-.226-.924-.32-1.47-.365-.531-.043-1.187-.043-2-.043zM3.75 13.8a.75.75 0 0 0-1.5 0v1.8c0 .414.336.75.75.75h1.35a.75.75 0 0 0 0-1.5h-.6z"/><path d="M16.35 13.8a.75.75 0 0 0-1.5 0v1.05H13.8a.75.75 0 0 0 0 1.5h1.8a.75.75 0 0 0 .75-.75z"/></svg>