<svg width="24" height="24" fill="currentColor" viewBox="0 0 24 24" xmlns="http://www.w3.org/2000/svg"><path d="M11.25 19.004V20.5a.75.75 0 0 0 1.5 0v-1.496a.75.75 0 0 0-1.5 0M7.53 16.47a.75.75 0 0 0-1.06 0l-1 1a.75.75 0 0 0 1.06 1.06l1-1a.75.75 0 0 0 0-1.06m9.944-.052a.75.75 0 0 0-1.056 1.056l.052.056 1 1 .056.052a.75.75 0 0 0 1.056-1.056l-.052-.056-1-1zM5.076 11.254 5 11.25H3.5a.75.75 0 0 0 0 1.5H5l.076-.004a.75.75 0 0 0 0-1.492m15.501 0-.077-.004H19a.75.75 0 0 0 0 1.5h1.5l.077-.004a.75.75 0 0 0 0-1.492M6.474 5.418a.75.75 0 0 0-1.056 1.056l.052.056 1 1 .056.052a.75.75 0 0 0 1.056-1.056L7.53 6.47l-1-1zm12.056.052a.75.75 0 0 0-1.004-.052l-.056.052-1 1a.75.75 0 1 0 1.06 1.06l1-1 .052-.056a.75.75 0 0 0-.052-1.004M11.25 3.5V5a.75.75 0 0 0 1.5 0V3.5a.75.75 0 0 0-1.5 0m5.5 8.5a4.75 4.75 0 1 1-9.5 0 4.75 4.75 0 0 1 9.5 0"/></svg>