<svg width="24" height="24" fill="currentColor" viewBox="0 0 24 24" xmlns="http://www.w3.org/2000/svg"><path d="M12.745 20.417a.75.75 0 0 0-1.492.013l-.003.076.004.5.005.077a.75.75 0 0 0 1.492-.013l.003-.076-.004-.5zm-4-2a.75.75 0 0 0-1.492.013l-.003.076.004.5.005.077a.75.75 0 0 0 1.492-.013l.003-.076-.004-.5zm8 0a.75.75 0 0 0-1.492.013l-.003.076.004.5.005.077a.75.75 0 0 0 1.492-.013l.003-.076-.004-.5zm-4-1.5a.75.75 0 0 0-1.492.013l-.003.076.004.5.005.077a.75.75 0 0 0 1.492-.013l.003-.076-.004-.5zm-4-2a.75.75 0 0 0-1.492.013l-.003.076.004.5.005.077a.75.75 0 0 0 1.492-.013l.003-.076-.004-.5zm8 0a.75.75 0 0 0-1.492.013l-.003.076.004.5.005.077a.75.75 0 0 0 1.492-.013l.003-.076-.004-.5zM5.076 11.254 5 11.25H3.5a.75.75 0 0 0 0 1.5H5l.076-.004a.75.75 0 0 0 0-1.492M21.25 12a.75.75 0 0 0-.75-.75H19a.75.75 0 0 0 0 1.5h1.5a.75.75 0 0 0 .75-.75M6.474 5.418a.75.75 0 0 0-1.056 1.056l.052.056 1 1 .056.052a.75.75 0 0 0 1.056-1.056L7.53 6.47l-1-1zm12.056.052a.75.75 0 0 0-1.004-.052l-.056.052-1 1a.75.75 0 1 0 1.06 1.06l1-1 .052-.056a.75.75 0 0 0-.052-1.004M11.25 3.5V5a.75.75 0 0 0 1.5 0V3.5a.75.75 0 0 0-1.5 0M12 7.25A4.75 4.75 0 0 1 16.75 12a.75.75 0 0 1-.75.75H8a.75.75 0 0 1-.75-.75A4.75 4.75 0 0 1 12 7.25"/></svg>