<svg width="24" height="24" fill="currentColor" viewBox="0 0 24 24" xmlns="http://www.w3.org/2000/svg"><path fill-rule="evenodd" d="M11.9 2.25a.75.75 0 0 1 .75.75v7a.75.75 0 0 1-1.5 0V3a.75.75 0 0 1 .75-.75m-6.532 8.618a.75.75 0 0 1 1.06 0l1.278 1.278a.75.75 0 0 1-1.06 1.06l-1.278-1.278a.75.75 0 0 1 0-1.06M2.25 17.4a.75.75 0 0 1 .75-.75h1.8a.75.75 0 0 1 0 1.5H3a.75.75 0 0 1-.75-.75m16 0a.75.75 0 0 1 .75-.75h1.8a.75.75 0 0 1 0 1.5H19a.75.75 0 0 1-.75-.75m.182-6.532a.75.75 0 0 1 0 1.06l-1.278 1.278a.75.75 0 0 1-1.06-1.06l1.278-1.278a.75.75 0 0 1 1.06 0M2.25 21a.75.75 0 0 1 .75-.75h18a.75.75 0 0 1 0 1.5H3a.75.75 0 0 1-.75-.75"/><path fill-rule="evenodd" d="M11.37 11.13a.75.75 0 0 0 1.06 0l3.6-3.6a.75.75 0 1 0-1.06-1.06L11.9 9.54 8.83 6.47a.75.75 0 1 0-1.06 1.06zm-2.375 3.365A4.25 4.25 0 0 1 16.25 17.5a.75.75 0 0 1-.75.75h-7a.75.75 0 0 1-.75-.75 4.25 4.25 0 0 1 1.245-3.005"/></svg>