<svg width="24" height="24" fill="currentColor" viewBox="0 0 24 24" xmlns="http://www.w3.org/2000/svg"><path d="M5.66 6.72A8.22 8.22 0 0 0 3.75 12c0 2.008.717 3.849 1.91 5.28l2.853-2.853a4.31 4.31 0 0 1 0-4.854zm12.68 0-2.853 2.853a4.31 4.31 0 0 1 0 4.854l2.853 2.852A8.22 8.22 0 0 0 20.25 12a8.22 8.22 0 0 0-1.91-5.28M2.25 12c0-5.385 4.365-9.75 9.75-9.75s9.75 4.365 9.75 9.75-4.365 9.75-9.75 9.75S2.25 17.385 2.25 12m11.695-1.944C12.889 9 11.11 9 10.055 10.056 9 11.11 9 12.889 10.056 13.945s2.834 1.055 3.89 0c1.055-1.056 1.055-2.834 0-3.89"/></svg>