<svg width="24" height="24" fill="currentColor" viewBox="0 0 24 24" xmlns="http://www.w3.org/2000/svg"><path d="M5.456 5.073c.557-2.042 2.625-3.272 4.647-2.67l1.171.347c2.034.605 3.152 2.804 2.55 4.848l-.49 1.666 1.397-.796c1.964-1.12 4.402-.218 5.264 1.874l.524 1.274c.366.887.386 1.838.123 2.69.53.403.825.929.971 1.502.15.587.144 1.248.139 1.795l-.002.274c0 2.11-1.65 3.873-3.75 3.873H6.56a4.2 4.2 0 0 1-1.163-.15c-2.277-.625-3.603-3.008-3.002-5.304l.002-.007zm5.25 15.177H18c1.215 0 2.25-1.034 2.25-2.373l.001-.33c.004-.556.006-.986-.091-1.368a1.2 1.2 0 0 0-.252-.516c-.353.422-.8.774-1.33 1.014zm-.135-1.586 7.386-3.353a2.3 2.3 0 0 0 1.082-1.034 2.48 2.48 0 0 0 .093-2.09l-.524-1.274c-.534-1.296-1.992-1.794-3.134-1.142l-2.75 1.568-2.12 7.204zm-3.866-2.386a.75.75 0 0 0-.926.517l-.243.854a.75.75 0 0 0 1.443.41l.243-.854a.75.75 0 0 0-.517-.926"/></svg>