<svg width="24" height="24" fill="currentColor" viewBox="0 0 24 24" xmlns="http://www.w3.org/2000/svg"><path d="M9.004 3.416C8.432 2.606 7.64 2.241 6.8 2.25c-.797.008-1.573.349-2.221.803A6.2 6.2 0 0 0 2.92 4.79c-.41.649-.706 1.416-.666 2.165.175 3.257 1.848 6.718 4.273 9.457L2.47 20.47a.75.75 0 1 0 1.06 1.06l4.034-4.033c2.816 2.717 6.51 4.575 10.237 4.207.752-.074 1.463-.457 2.044-.945a5.8 5.8 0 0 0 1.443-1.84c.34-.692.543-1.49.431-2.267-.116-.81-.569-1.534-1.402-2.014a16 16 0 0 1-.512-.31c-.15-.093-.31-.194-.504-.31a7.5 7.5 0 0 0-1.249-.618c-.447-.163-.958-.27-1.49-.197-.551.076-1.063.336-1.506.802-.341.36-.843.472-1.549.268-.556-.161-1.166-.508-1.74-.98L21.53 3.53a.75.75 0 0 0-1.06-1.06l-9.754 9.753c-.42-.532-.736-1.094-.897-1.617-.224-.728-.125-1.263.225-1.632.473-.498.725-1.052.778-1.638.052-.57-.09-1.106-.293-1.574-.304-.699-.82-1.394-1.224-1.936a22 22 0 0 1-.3-.41"/></svg>