<svg width="24" height="24" fill="currentColor" viewBox="0 0 24 24" xmlns="http://www.w3.org/2000/svg"><path d="M6 2.75c.254 0 .512.052.752.158l1.553.69.068.035a.75.75 0 0 1-.605 1.363l-.073-.027-.945-.42V5.57l1.555.69.068.036a.75.75 0 0 1-.605 1.363l-.073-.027-.945-.42V9.06c1.78-.969 3.268-2.103 4.674-3.79l.056-.061a.75.75 0 0 1 1.096.06l.361.42c1.815 2.037 3.792 3.23 6.368 4.376l.096.051a.75.75 0 0 1 .349.634V20H21a.75.75 0 0 1 0 1.5H3A.75.75 0 0 1 3 20h1.25v-9.25a.75.75 0 0 1 .445-.685l.508-.23.047-.023v-2.6l-.945.42a.75.75 0 0 1-.61-1.37l1.553-.69.002-1.023-.945.42a.75.75 0 0 1-.61-1.371l1.553-.69.184-.07A1.9 1.9 0 0 1 6 2.75m6 12.335c-.613 1.797-1.539 3.407-2.8 4.915h5.6c-1.261-1.508-2.187-3.118-2.8-4.915"/></svg>