<svg width="24" height="24" fill="currentColor" viewBox="0 0 24 24" xmlns="http://www.w3.org/2000/svg"><path d="M14.38 15v-.396a.75.75 0 0 1 1.5 0V15a.75.75 0 0 1-1.5 0m4.14-2.536a.75.75 0 0 1 1.003-.04l.057.052.39.4.052.058a.75.75 0 0 1-1.067 1.043l-.057-.052-.39-.4-.051-.058a.75.75 0 0 1 .063-1.003M21 8.25a.75.75 0 0 1 0 1.5h-.392a.75.75 0 0 1 0-1.5zm-2.045-4.227a.75.75 0 0 1 1.016 1.101l-.392.4-.056.052a.75.75 0 0 1-1.015-1.1l.39-.4zM14.381 3.4V3a.75.75 0 0 1 1.5 0v.4a.75.75 0 0 1-1.5 0M9.75 13.356a4.7 4.7 0 0 1 1.413 1.553c.385.685.587 1.453.587 2.236l-.006.226a4.54 4.54 0 0 1-1.358 3.003 4.82 4.82 0 0 1-3.28 1.375 4.84 4.84 0 0 1-3.338-1.23A4.56 4.56 0 0 1 2.27 17.58l-.016-.226A4.55 4.55 0 0 1 2.786 15a4.7 4.7 0 0 1 1.464-1.645V4.93c0-.72.297-1.404.815-1.904A2.8 2.8 0 0 1 7 2.25l.269.013c.623.06 1.213.326 1.666.762.518.5.815 1.184.815 1.904zm5.38-.406c2.16 0 3.88-1.784 3.88-3.95s-1.72-3.95-3.88-3.95c-2.158 0-3.88 1.784-3.88 3.95s1.722 3.95 3.88 3.95"/></svg>