<svg width="24" height="24" fill="currentColor" viewBox="0 0 24 24" xmlns="http://www.w3.org/2000/svg"><path d="M13.099 2.476a.75.75 0 0 1 1.06-.012l-1.048 1.072a.75.75 0 0 1-.012-1.06m3.802 0a.75.75 0 0 0-1.003-.063l-.057.05-.841.821-.84-.82-1.049 1.072L14.25 4.65v1.603a1.06 1.06 0 0 0-.643.258l-.07.064-.963.963a1.1 1.1 0 0 0-.243.355 1.1 1.1 0 0 0-.081.427v1.362c0 .113.014.262.08.422.065.16.16.276.244.36l.963.963.067.062a1.04 1.04 0 0 0 .646.26v1.602l-1.139 1.114a.75.75 0 1 0 1.048 1.072l.841-.821.84.821a.75.75 0 1 0 1.049-1.072L15.75 13.35v-1.603a1.05 1.05 0 0 0 .712-.321l.474-.474 1.56.88.416 1.521a.75.75 0 0 0 1.446-.397l-.298-1.09 1.13-.295a.75.75 0 0 0-.38-1.45l-1.57.41-1.49-.85-.001-1.371 1.491-.841 1.57.41.075.017a.75.75 0 0 0 .378-1.444l-.073-.023-1.13-.296.298-1.09a.75.75 0 0 0-1.446-.397l-.417 1.521-1.56.88-.472-.473-.07-.064a1.06 1.06 0 0 0-.643-.258V4.649l1.139-1.113a.75.75 0 0 0 .012-1.06M11.163 14.91a4.7 4.7 0 0 0-1.413-1.554V4.93c0-.72-.297-1.404-.815-1.904a2.78 2.78 0 0 0-1.666-.762L7 2.25c-.72 0-1.417.276-1.935.775A2.64 2.64 0 0 0 4.25 4.93v8.427a4.7 4.7 0 0 0-1.464 1.645 4.55 4.55 0 0 0-.531 2.353l.016.226a4.56 4.56 0 0 0 1.497 2.939 4.84 4.84 0 0 0 3.338 1.23 4.82 4.82 0 0 0 3.28-1.375 4.54 4.54 0 0 0 1.358-3.003l.006-.226c0-.783-.202-1.551-.587-2.236"/></svg>