<svg width="24" height="24" fill="currentColor" viewBox="0 0 24 24" xmlns="http://www.w3.org/2000/svg"><path d="M5.25 12c0-3.247.861-5.272 2.12-6.493 1.265-1.225 3.052-1.757 5.15-1.757 2.856 0 5.345 1.467 6.265 4.356a.75.75 0 0 0 1.43-.455c-1.152-3.615-4.301-5.401-7.696-5.401-2.332 0-4.554.593-6.192 2.18C4.684 6.022 3.75 8.497 3.75 12s.934 5.978 2.577 7.57c1.638 1.587 3.86 2.18 6.192 2.18 2.932 0 5.429-1.577 6.514-3.68.547-1.06.74-2.269.411-3.459-.33-1.192-1.16-2.284-2.51-3.152l-.067-.038a7 7 0 0 0-.463-.212q-.025-.326-.067-.654c-.225-1.77-1.314-2.998-2.718-3.48-1.386-.475-3.016-.203-4.322.858a.75.75 0 1 0 .945 1.164c.926-.751 2.018-.902 2.89-.603.856.294 1.563 1.04 1.717 2.25v.002c-1.033-.203-2.118-.227-3.083-.059-.82.144-1.614.437-2.22.94-.625.52-1.027 1.25-1.03 2.164v.004a2 2 0 0 0 .004.148 3.5 3.5 0 0 0 .405 1.473c.223.416.573.84 1.106 1.156s1.207.498 2.043.498c1.8 0 3.056-.749 3.743-2.049.328-.62.511-1.34.584-2.111.918.66 1.403 1.396 1.597 2.1.215.777.101 1.598-.298 2.372-.808 1.565-2.766 2.868-5.18 2.868-2.098 0-3.885-.532-5.15-1.757-1.259-1.22-2.12-3.246-2.12-6.493m6.774.165c.905-.158 1.958-.103 2.912.137-.023.817-.171 1.5-.445 2.018-.394.745-1.098 1.25-2.417 1.25-.613 0-1.014-.132-1.278-.29a1.46 1.46 0 0 1-.551-.576 2 2 0 0 1-.227-.83l-.001-.074c0-.432.171-.756.488-1.02.339-.28.858-.5 1.52-.615"/></svg>