<svg width="24" height="24" fill="currentColor" viewBox="0 0 24 24" xmlns="http://www.w3.org/2000/svg"><path fill-rule="evenodd" d="M10.79 1.49a3.16 3.16 0 0 1 3.445.687l7.588 7.588a3.159 3.159 0 0 1 0 4.47l-7.588 7.588a3.159 3.159 0 0 1-4.47 0l-7.588-7.588a3.16 3.16 0 0 1 0-4.47l7.588-7.589a3.16 3.16 0 0 1 1.025-.685m4.46 8.504c0-.935-.453-1.65-1.097-2.107-.622-.441-1.408-.637-2.153-.637-.745 0-1.531.196-2.153.637-.643.456-1.097 1.172-1.097 2.107a.75.75 0 1 0 1.5 0c0-.394.172-.675.465-.884.316-.224.78-.36 1.285-.36.505 0 .969.136 1.285.36.292.207.463.486.465.877 0 .004 0 .014-.002.027-.003.03-.008.08-.021.141a1.381 1.381 0 0 1-.176.445c-.166.267-.542.65-1.551.65a.75.75 0 0 0 0 1.5c1.01 0 1.385.383 1.551.65a1.382 1.382 0 0 1 .199.613c-.002.39-.173.67-.465.877-.316.224-.78.36-1.285.36-.505 0-.969-.136-1.285-.36-.293-.209-.465-.49-.465-.884a.75.75 0 1 0-1.5 0c0 .935.454 1.65 1.097 2.107.622.441 1.408.637 2.153.637.745 0 1.531-.196 2.153-.637.643-.456 1.097-1.172 1.097-2.107v-.002a2.881 2.881 0 0 0-.426-1.398 2.665 2.665 0 0 0-.517-.606c.211-.184.382-.39.517-.606a2.881 2.881 0 0 0 .426-1.398z"/></svg>