<svg width="24" height="24" fill="currentColor" viewBox="0 0 24 24" xmlns="http://www.w3.org/2000/svg"><path d="M14.457 7.011c.761.54 1.293 1.38 1.293 2.482v.022a2 2 0 0 1-.01.152 3.4 3.4 0 0 1-.495 1.476c-.193.31-.45.606-.785.857.335.25.592.546.786.857a3.4 3.4 0 0 1 .504 1.628v.021c0 1.101-.532 1.943-1.293 2.483-.739.523-1.68.761-2.582.761s-1.844-.238-2.582-.761C8.532 16.449 8 15.609 8 14.507a.75.75 0 0 1 1.5 0c0 .56.25.967.66 1.258.434.307 1.054.485 1.715.485s1.281-.178 1.715-.485c.409-.29.658-.694.66-1.252v-.003l-.003-.044a1.9 1.9 0 0 0-.274-.816c-.245-.392-.776-.9-2.098-.9a.75.75 0 0 1 0-1.5c1.322 0 1.854-.508 2.098-.9a1.9 1.9 0 0 0 .277-.86v-.003c-.002-.558-.251-.962-.66-1.252-.434-.307-1.054-.485-1.715-.485s-1.281.178-1.715.485c-.41.291-.66.697-.66 1.258a.75.75 0 1 1-1.5 0c0-1.101.532-1.942 1.293-2.482.739-.523 1.68-.761 2.582-.761s1.844.238 2.582.761"/></svg>