<svg width="24" height="24" fill="currentColor" viewBox="0 0 24 24" xmlns="http://www.w3.org/2000/svg"><path fill-rule="evenodd" d="M5 4.25A2.75 2.75 0 0 0 2.25 7v3c0 .414.336.75.75.75a1.25 1.25 0 1 1 0 2.5.75.75 0 0 0-.75.75v3c0 1 .534 1.876 1.332 2.357L18.69 4.25zM12.75 8a.75.75 0 0 0-1.5 0v.5a.75.75 0 0 0 1.5 0zm9-1c0-1-.534-1.876-1.332-2.357L5.31 19.75H19A2.75 2.75 0 0 0 21.75 17v-3a.75.75 0 0 0-.75-.75 1.25 1.25 0 1 1 0-2.5.75.75 0 0 0 .75-.75zm-9 8.5a.75.75 0 0 0-1.5 0v.5a.75.75 0 0 0 1.5 0z"/><path d="M3.582 19.357c.414.25.9.393 1.418.393h.31L20.419 4.643A2.737 2.737 0 0 0 19 4.25h-.31z"/><path d="M21.53 3.53a.75.75 0 0 0-1.06-1.06l-1.78 1.78H19c.519 0 1.004.144 1.418.393zm-19.06 18a.75.75 0 0 0 1.06 0l1.78-1.78H5a2.736 2.736 0 0 1-1.418-.393L2.47 20.47a.75.75 0 0 0 0 1.06"/></svg>