<svg width="24" height="24" fill="currentColor" viewBox="0 0 24 24" xmlns="http://www.w3.org/2000/svg"><path d="m15.241 3.721.293 2.029H19.5a.75.75 0 0 1 0 1.5h-.769l-.873 10.185c-.053.62-.096 1.13-.165 1.542-.07.429-.177.813-.386 1.169a3.25 3.25 0 0 1-1.401 1.287c-.372.177-.764.25-1.198.284-.417.033-.928.033-1.55.033h-2.316c-.622 0-1.133 0-1.55-.033-.434-.034-.826-.107-1.198-.284a3.25 3.25 0 0 1-1.401-1.287c-.21-.356-.315-.74-.386-1.169-.069-.413-.112-.922-.165-1.542L5.269 7.25H4.5a.75.75 0 0 1 0-1.5h3.966l.293-2.029.011-.061c.182-.79.86-1.41 1.71-1.41h3.04c.85 0 1.528.62 1.71 1.41zM9.981 5.75h4.037l-.256-1.776c-.048-.167-.17-.224-.243-.224h-3.038c-.073 0-.195.057-.243.224zm1.269 4.75a.75.75 0 0 0-1.5 0v5a.75.75 0 0 0 1.5 0zm3 0a.75.75 0 0 0-1.5 0v5a.75.75 0 0 0 1.5 0z"/></svg>