<svg width="24" height="24" fill="currentColor" viewBox="0 0 24 24" xmlns="http://www.w3.org/2000/svg"><path d="m6.108 5.75.064.042c.252.154.666.32 1.243.47 1.144.296 2.766.488 4.585.488 1.82 0 3.44-.192 4.585-.489.578-.15.991-.315 1.243-.47a.802.802 0 0 0 .064-.041 1.673 1.673 0 0 0-.064-.042c-.252-.154-.665-.32-1.243-.47C15.44 4.943 13.819 4.75 12 4.75c-1.82 0-3.44.192-4.585.489-.577.15-.991.315-1.243.47a1.616 1.616 0 0 0-.064.041m-1.602.12a.753.753 0 0 1-.006-.12c0-.657.5-1.082.889-1.32.431-.265 1.006-.477 1.65-.643C8.338 3.45 10.092 3.25 12 3.25c1.909 0 3.662.2 4.961.537.644.166 1.219.378 1.65.642.39.239.89.664.89 1.321l-.001.012a1.235 1.235 0 0 1-.021.218l-1.715 12.091a4.01 4.01 0 0 1-.852 1.924 3.745 3.745 0 0 1-1.704 1.187l-.246.082a9.273 9.273 0 0 1-5.924 0l-.246-.082a3.743 3.743 0 0 1-1.704-1.187 4.012 4.012 0 0 1-.852-1.925l-.001-.009L4.52 5.981a1.229 1.229 0 0 1-.015-.112"/></svg>