<svg width="24" height="24" fill="currentColor" viewBox="0 0 24 24" xmlns="http://www.w3.org/2000/svg"><path fill-rule="evenodd" d="m6.108 5.75.064.042c.252.154.666.32 1.243.47 1.144.296 2.766.488 4.585.488 1.82 0 3.44-.192 4.585-.489.578-.15.991-.315 1.243-.47a.802.802 0 0 0 .064-.041 1.673 1.673 0 0 0-.064-.042c-.252-.154-.665-.32-1.243-.47C15.44 4.943 13.819 4.75 12 4.75c-1.82 0-3.44.192-4.585.489-.577.15-.991.315-1.243.47a1.616 1.616 0 0 0-.064.041m-1.602.12c.003.037.008.074.015.11l1.714 12.081.001.01c.11.707.403 1.374.852 1.924.449.55 1.038.963 1.704 1.187l.246.082a9.273 9.273 0 0 0 5.924 0l.246-.082a3.743 3.743 0 0 0 1.704-1.187 4.01 4.01 0 0 0 .852-1.924l1.715-12.09a1.235 1.235 0 0 0 .021-.22V5.75c0-.657-.5-1.082-.888-1.32-.432-.265-1.007-.477-1.65-.643-1.3-.337-3.053-.537-4.962-.537-1.908 0-3.662.2-4.961.537-.644.166-1.219.378-1.65.642-.39.239-.889.664-.889 1.321a1.185 1.185 0 0 0 .006.12"/></svg>