<svg width="24" height="24" fill="currentColor" viewBox="0 0 24 24" xmlns="http://www.w3.org/2000/svg"><path d="M3.571 18.486a.75.75 0 1 1-1.142-.972l4.458-5.24c.142-.168.275-.323.396-.447a1.8 1.8 0 0 1 .495-.366 1.75 1.75 0 0 1 .955-.16c.225.026.417.102.587.186.155.077.33.181.52.293l2.845 1.686c.202.12.32.189.41.234a.5.5 0 0 0 .09.038.25.25 0 0 0 .126-.016 1 1 0 0 0 .076-.06c.077-.067.173-.164.337-.331l3.4-3.458L14.25 7a.75.75 0 0 1 .75-.75h6a.75.75 0 0 1 .75.75v6a.75.75 0 0 1-.75.75l-2.816-2.816-3.39 3.448-.063.065c-.247.252-.509.52-.84.659a1.75 1.75 0 0 1-.912.118c-.356-.049-.678-.24-.98-.421l-.079-.046-2.825-1.674a8 8 0 0 0-.44-.251 1 1 0 0 0-.096-.04.25.25 0 0 0-.132.021 1 1 0 0 0-.077.07c-.078.078-.173.19-.336.38z"/></svg>