<svg width="24" height="24" fill="currentColor" viewBox="0 0 24 24" xmlns="http://www.w3.org/2000/svg"><path fill-rule="evenodd" d="M19.274 2.613a.75.75 0 0 1-.255 1.03l-6.632 4a.75.75 0 0 1-.774-1.285l6.631-4a.75.75 0 0 1 1.03.255"/><path fill-rule="evenodd" d="M4.74 2.591a.75.75 0 0 1 1.037-.22l6.158 4a.75.75 0 0 1-.817 1.258l-6.158-4a.75.75 0 0 1-.22-1.038"/><path d="M5 6.25c-1.57 0-2.75 1.353-2.75 2.904v9.692c0 1.55 1.18 2.904 2.75 2.904h14c1.57 0 2.75-1.353 2.75-2.904V9.154c0-1.55-1.18-2.904-2.75-2.904z"/></svg>