<svg width="24" height="24" fill="currentColor" viewBox="0 0 24 24" xmlns="http://www.w3.org/2000/svg"><path fill-rule="evenodd" d="M10.68 2.105a2.63 2.63 0 0 1 2.64 0l.001.001 6.611 3.8A2.645 2.645 0 0 1 21.25 8.2v7.603a2.66 2.66 0 0 1-1.318 2.291l-.003.002-6.608 3.799h-.002a2.63 2.63 0 0 1-2.639 0h-.001l-6.608-3.8h-.003A2.644 2.644 0 0 1 2.75 15.8V8.198a2.66 2.66 0 0 1 1.318-2.291l.003-.002zm-.43 8.232c0-.579.207-.956.473-1.195.279-.251.67-.392 1.085-.392.414 0 .806.14 1.085.392.265.239.472.616.472 1.195 0 .862-.564 1.771-1.49 2.704-.692.698-1.484 1.313-2.195 1.864-.226.176-.445.346-.65.51a.75.75 0 0 0 .47 1.335h5a.75.75 0 1 0 0-1.5h-2.84c.433-.357.876-.745 1.28-1.153.982-.99 1.925-2.271 1.925-3.76 0-.98-.37-1.77-.969-2.31-.587-.528-1.349-.777-2.088-.777-.74 0-1.502.249-2.089.777-.6.54-.969 1.33-.969 2.31a.75.75 0 0 0 1.5 0"/></svg>