<svg width="24" height="24" fill="currentColor" viewBox="0 0 24 24" xmlns="http://www.w3.org/2000/svg"><path fill-rule="evenodd" d="M15.578 12.574c.688-.436 1.992-.883 3.068-.83.527.027.913.168 1.161.396.231.21.443.587.443 1.311v.42c-.218.044-.472.088-.762.139l-.28.049c-.673.118-1.46.267-2.207.504-.74.234-1.504.575-2.092 1.114a3.031 3.031 0 0 0-1.012 2.308c0 .98.404 1.744 1.125 2.189.674.416 1.516.488 2.307.38.973-.132 2.033-.559 2.921-1.214V20a.75.75 0 1 0 1.5 0v-6.548c0-1.039-.318-1.86-.93-2.42-.596-.544-1.368-.749-2.099-.785-1.438-.072-3.046.489-3.946 1.06a.75.75 0 1 0 .803 1.267m4.672 2.824-.517.092-.266.046c-.668.118-1.37.253-2.012.456-.65.206-1.176.464-1.531.79a1.534 1.534 0 0 0-.527 1.203c0 .53.191.775.413.913.27.166.719.251 1.317.17 1.14-.155 2.43-.86 3.123-1.816zM8.483 3.786a.75.75 0 0 0-1.437 0l-4.765 16a.75.75 0 0 0 1.438.428l1.338-4.494h5.415l1.339 4.494a.75.75 0 1 0 1.437-.428zm-.718 2.842 2.26 7.592h-4.52z"/></svg>