<svg width="24" height="24" fill="currentColor" viewBox="0 0 24 24" xmlns="http://www.w3.org/2000/svg"><path d="M12 7.5a1.75 1.75 0 1 0 0 3.5 1.75 1.75 0 0 0 0-3.5"/><path d="M13.435 2.075a3.33 3.33 0 0 0-2.87 0c-.394.189-.755.497-1.26.928l-.079.066a2.56 2.56 0 0 1-1.58.655l-.102.008c-.662.053-1.135.09-1.547.236a3.33 3.33 0 0 0-2.03 2.029c-.145.412-.182.885-.235 1.547l-.008.102a2.56 2.56 0 0 1-.655 1.58l-.066.078c-.431.506-.74.867-.928 1.261a3.33 3.33 0 0 0 0 2.87c.189.394.497.755.928 1.26l.066.079c.41.48.604.939.655 1.58l.008.102c.053.662.09 1.135.236 1.547a3.33 3.33 0 0 0 2.029 2.03q.122.042.253.074l.001-.645C6.434 15.883 9.272 14.11 12 14.11s5.566 1.773 5.749 5.352v.645q.132-.032.254-.075a3.33 3.33 0 0 0 2.03-2.029c.145-.412.182-.885.235-1.547l.008-.102c.05-.629.238-1.09.655-1.58l.066-.079c.431-.505.74-.866.928-1.26a3.33 3.33 0 0 0 0-2.87c-.189-.394-.497-.755-.928-1.26l-.066-.079a2.56 2.56 0 0 1-.655-1.58l-.008-.102c-.053-.662-.09-1.135-.236-1.547a3.33 3.33 0 0 0-2.029-2.03c-.412-.145-.885-.182-1.547-.235l-.102-.008a2.56 2.56 0 0 1-1.58-.655l-.079-.066c-.505-.431-.866-.74-1.26-.928M8.75 9.25a3.25 3.25 0 1 1 6.5 0 3.25 3.25 0 0 1-6.5 0"/><path d="m16.256 20.285-.005-.747C16.117 16.93 14.114 15.61 12 15.61s-4.117 1.32-4.251 3.928c-.001.02-.003.276-.005.747.58.061 1.019.25 1.482.646l.078.066c.506.431.867.74 1.261.928a3.33 3.33 0 0 0 2.87 0c.394-.189.755-.497 1.26-.928l.079-.066c.455-.388.891-.583 1.482-.646"/></svg>