<svg width="24" height="24" fill="currentColor" viewBox="0 0 24 24" xmlns="http://www.w3.org/2000/svg"><path d="M12 7.5a1.75 1.75 0 1 0 0 3.5 1.75 1.75 0 0 0 0-3.5"/><path d="M12 2.25A9.75 9.75 0 0 0 2.25 12a9.736 9.736 0 0 0 4 7.875l.001-.413C6.434 15.883 9.272 14.11 12 14.11c2.728 0 5.566 1.773 5.749 5.352l.001.413a9.736 9.736 0 0 0 4-7.875A9.75 9.75 0 0 0 12 2.25m-3.25 7a3.25 3.25 0 1 1 6.5 0 3.25 3.25 0 0 1-6.5 0"/><path d="M16.259 20.773c-.004-.78-.007-1.209-.008-1.235-.134-2.608-2.137-3.928-4.251-3.928-2.114 0-4.117 1.32-4.251 3.928-.001.026-.004.454-.008 1.235A9.71 9.71 0 0 0 12 21.75a9.71 9.71 0 0 0 4.259-.977"/></svg>