<svg width="24" height="24" fill="currentColor" viewBox="0 0 24 24" xmlns="http://www.w3.org/2000/svg"><path fill-rule="evenodd" d="M15.25 12a.75.75 0 0 1 .75-.75h5a.75.75 0 0 1 0 1.5h-5a.75.75 0 0 1-.75-.75"/><path d="M6.748 6.369a13.63 13.63 0 0 0-.231.337l-.165-.015a10.935 10.935 0 0 0-1.442-.03c-.518.028-1.119.11-1.614.337-.52.24-1.046.713-1.046 1.507v6.914c0 .795.525 1.268 1.046 1.508.495.227 1.097.309 1.614.337a10.96 10.96 0 0 0 1.603-.044 14.283 14.283 0 0 0 1.58 2.007C9.218 20.41 10.93 21.75 13 21.75a.75.75 0 0 0 .75-.75V3a.75.75 0 0 0-.75-.75c-2.065 0-3.776 1.315-4.902 2.482a14.101 14.101 0 0 0-1.35 1.637"/></svg>