<svg width="24" height="24" fill="currentColor" viewBox="0 0 24 24" xmlns="http://www.w3.org/2000/svg"><path d="M18.63 19.53a.75.75 0 1 1-1.06-1.06c3.24-3.24 3.542-8.305.907-11.886L17.03 8.031a6.408 6.408 0 0 1-.5 8.5.75.75 0 1 1-1.06-1.061 4.908 4.908 0 0 0 .49-6.37l-2.21 2.21V21a.75.75 0 0 1-.75.75c-2.07 0-3.782-1.34-4.907-2.524A13.955 13.955 0 0 1 7.06 18l-3.53 3.53a.75.75 0 0 1-1.06-1.06l3.198-3.198c-.24.006-.498.005-.758-.008-.518-.028-1.119-.11-1.614-.337-.52-.24-1.046-.713-1.046-1.508V8.506c0-.794.525-1.267 1.046-1.507.495-.228 1.097-.31 1.614-.337a10.935 10.935 0 0 1 1.607.045 14.101 14.101 0 0 1 1.58-1.974C9.225 3.565 10.936 2.25 13 2.25a.75.75 0 0 1 .75.75v6.19l3.746-3.746a.75.75 0 0 1 1.048-1.049L20.47 2.47a.75.75 0 1 1 1.06 1.06l-1.982 1.983c3.215 4.176 2.91 10.19-.917 14.017"/></svg>