<svg width="24" height="24" fill="currentColor" viewBox="0 0 24 24" xmlns="http://www.w3.org/2000/svg"><path d="M18.5 8.75a.75.75 0 0 1 .75.75v1.75H21a.75.75 0 0 1 0 1.5h-1.75v1.75a.75.75 0 0 1-1.5 0v-1.75H16a.75.75 0 0 1 0-1.5h1.75V9.5a.75.75 0 0 1 .75-.75M6.748 6.369a14 14 0 0 0-.231.337l-.165-.015a11 11 0 0 0-1.442-.03c-.518.028-1.119.11-1.614.337-.52.24-1.046.713-1.046 1.507v6.914c0 .795.525 1.268 1.046 1.508.495.227 1.097.309 1.614.337a11 11 0 0 0 1.603-.044q.099.151.231.343c.314.452.772 1.056 1.35 1.663C9.217 20.41 10.93 21.75 13 21.75a.75.75 0 0 0 .75-.75V3a.75.75 0 0 0-.75-.75c-2.065 0-3.776 1.315-4.902 2.482a14 14 0 0 0-1.35 1.637"/></svg>