<svg width="24" height="24" fill="currentColor" viewBox="0 0 24 24" xmlns="http://www.w3.org/2000/svg"><path d="M10.681 2.25c-.673 0-1.224.237-1.649.634-.404.378-.66.87-.834 1.34a9 9 0 0 0-.373 1.429l-.092.504q-.048.276-.095.51C6.498 7.303 5.75 8.586 5.75 10v4c0 1.415.748 2.698 1.888 3.332q.047.235.095.511.04.23.092.504c.086.45.198.956.373 1.43.174.47.43.961.834 1.34.425.396.976.633 1.65.633h2.637c.673 0 1.224-.237 1.649-.634.405-.378.66-.87.834-1.34.175-.473.287-.979.373-1.429l.092-.504q.048-.276.095-.51c1.14-.635 1.888-1.918 1.888-3.333v-4c0-1.415-.748-2.698-1.888-3.332q-.047-.235-.095-.511l-.092-.504a9 9 0 0 0-.373-1.43c-.174-.47-.43-.961-.834-1.34a2.35 2.35 0 0 0-1.65-.633zm-1.431 4h-.01l.059-.315c.082-.43.175-.837.306-1.191.133-.358.285-.609.452-.765.147-.138.333-.229.624-.229h2.638c.291 0 .477.091.624.23.167.155.32.406.452.764.13.354.224.762.306 1.19q.03.153.058.316zm.049 11.815q-.03-.152-.058-.315h5.519l-.059.315a7.6 7.6 0 0 1-.306 1.191c-.133.358-.285.609-.452.765-.147.138-.333.229-.624.229H10.68c-.291 0-.477-.091-.624-.23-.167-.155-.32-.406-.452-.764a7.6 7.6 0 0 1-.306-1.19M12.75 10v2.084l1.25.78a.75.75 0 0 1-.793 1.272l-1.604-1a.75.75 0 0 1-.353-.636V10a.75.75 0 0 1 1.5 0"/></svg>