<svg width="24" height="24" fill="currentColor" viewBox="0 0 24 24" xmlns="http://www.w3.org/2000/svg"><path d="M7.938 3.938a2.35 2.35 0 1 1 2.675 3.783l.628 5.654a.25.25 0 0 0 .263.222l5.043-.288a1.75 1.75 0 0 1 1.848 1.668l.11 2.434a.25.25 0 0 0 .25.239H19a.75.75 0 0 1 0 1.5h-.244a1.75 1.75 0 0 1-1.749-1.67l-.11-2.435a.25.25 0 0 0-.264-.239l-5.044.289A1.75 1.75 0 0 1 9.75 13.54L9.123 7.9a2.35 2.35 0 0 1-1.185-3.963M12 10.4a.75.75 0 0 1 .75-.75h3a.75.75 0 0 1 0 1.5h-3a.75.75 0 0 1-.75-.75m-3.518.122a.75.75 0 0 1-.37.995 4.05 4.05 0 1 0 5.61 4.696.75.75 0 1 1 1.453.374A5.552 5.552 0 0 1 4.25 15.2a5.55 5.55 0 0 1 3.237-5.046.75.75 0 0 1 .995.368"/></svg>