<svg width="24" height="24" fill="currentColor" viewBox="0 0 24 24" xmlns="http://www.w3.org/2000/svg"><path d="M21.53 2.47a.75.75 0 0 1 0 1.06l-2.783 2.784a15.3 15.3 0 0 1 3.769 2.624.75.75 0 0 1-1.032 1.089 13.7 13.7 0 0 0-3.865-2.585L15.29 9.769c1.55.503 3.009 1.37 4.24 2.6a.75.75 0 1 1-1.061 1.06 9.1 9.1 0 0 0-4.396-2.442l-2.805 2.805a6.4 6.4 0 0 1 5.261 1.835.75.75 0 0 1-1.06 1.06 4.907 4.907 0 0 0-6.94 0 .75.75 0 0 1-.356.2L3.53 21.53a.75.75 0 0 1-1.06-1.06l18-18a.75.75 0 0 1 1.06 0M12 6.25c-3.415 0-6.827 1.26-9.484 3.777a.75.75 0 0 1-1.032-1.089A15.25 15.25 0 0 1 12 4.75a.75.75 0 0 1 0 1.5m-2.285 3.987a.75.75 0 0 1-.488.941A9.1 9.1 0 0 0 5.53 13.43a.75.75 0 0 1-1.06-1.06 10.6 10.6 0 0 1 4.303-2.622.75.75 0 0 1 .942.489M12 18a.75.75 0 0 1 .75.75v.5a.75.75 0 0 1-1.5 0v-.5A.75.75 0 0 1 12 18"/></svg>