<svg width="24" height="24" fill="currentColor" viewBox="0 0 24 24" xmlns="http://www.w3.org/2000/svg"><path d="M18.411 15c1.122 0 2.044.415 2.678 1.104.62.673.911 1.548.911 2.396s-.291 1.723-.911 2.396c-.634.69-1.556 1.104-2.678 1.104a1 1 0 1 1 0-2c.604 0 .977-.21 1.206-.459.243-.264.383-.639.383-1.041s-.14-.777-.383-1.041c-.229-.249-.602-.459-1.206-.459H3a1 1 0 1 1 0-2zm.123-8.995c1.033.048 1.885.45 2.484 1.096.625.672.92 1.549.92 2.399s-.295 1.727-.92 2.4c-.64.687-1.565 1.1-2.693 1.1H3a1 1 0 1 1 0-2h15.325c.615 0 .996-.212 1.228-.462.246-.265.386-.638.386-1.038s-.14-.773-.386-1.038c-.203-.219-.52-.408-1.008-.452l-.22-.01-.102-.005A1 1 0 0 1 18.325 6zm-7.453-4c1.036.048 1.891.45 2.493 1.094.629.672.927 1.549.927 2.401s-.298 1.729-.927 2.401C12.932 8.588 12.003 9 10.872 9H3a1 1 0 0 1 0-2h7.872c.622 0 1.007-.213 1.241-.464.248-.265.388-.638.388-1.036s-.14-.771-.388-1.036c-.205-.22-.525-.41-1.02-.454l-.22-.01-.103-.005A1 1 0 0 1 10.872 2z"/></svg>