<svg width="24" height="24" fill="currentColor" viewBox="0 0 24 24" xmlns="http://www.w3.org/2000/svg"><path d="M17.575 7a.75.75 0 0 1 .75-.75c1.063 0 1.921.388 2.51 1.02.577.622.854 1.436.854 2.23s-.277 1.608-.855 2.23c-.588.632-1.446 1.02-2.51 1.02H3a.75.75 0 0 1 0-1.5h15.325c.679 0 1.128-.237 1.41-.542.294-.316.454-.752.454-1.208s-.16-.892-.453-1.208c-.283-.305-.732-.542-1.411-.542a.75.75 0 0 1-.75-.75M2.25 16a.75.75 0 0 1 .75-.75h15.411c1.057 0 1.91.39 2.493 1.023.573.622.846 1.435.846 2.227s-.273 1.605-.846 2.227c-.583.633-1.436 1.023-2.493 1.023a.75.75 0 0 1 0-1.5c.668 0 1.11-.235 1.39-.54.29-.315.449-.752.449-1.21s-.159-.895-.45-1.21c-.279-.305-.72-.54-1.389-.54H3a.75.75 0 0 1-.75-.75"/><path d="M10.122 3a.75.75 0 0 1 .75-.75c1.067 0 1.928.387 2.52 1.019.58.622.86 1.436.86 2.231s-.28 1.61-.86 2.231c-.592.632-1.453 1.019-2.52 1.019H3a.75.75 0 0 1 0-1.5h7.872c.685 0 1.139-.238 1.424-.543.295-.316.455-.752.455-1.207s-.16-.89-.455-1.207c-.285-.305-.739-.543-1.424-.543a.75.75 0 0 1-.75-.75"/></svg>