<svg width="24" height="24" fill="currentColor" viewBox="0 0 24 24" xmlns="http://www.w3.org/2000/svg"><path fill-rule="evenodd" d="M2.25 12.044C2.25 6.64 6.612 2.25 12 2.25s9.75 4.389 9.75 9.794v6.517c0 .764-.308 1.57-.8 2.127-.501.567-1.354 1.012-2.287.543-.304-.153-.748-.263-1.202-.273-.464-.01-.831.084-1.044.226-1.126.755-2.708.755-3.834 0-.356-.238-.623-.311-.84-.31-.22.002-.482.08-.826.31-1.126.755-2.708.755-3.834 0-.471-.316-1.05-.303-1.746.047-.933.469-1.786.024-2.287-.543a3.326 3.326 0 0 1-.8-2.126zm6.148 2.51a.75.75 0 0 1 1.049-.156c.728.54 1.607.852 2.553.852s1.825-.313 2.553-.852a.75.75 0 1 1 .894 1.204A5.766 5.766 0 0 1 12 16.75a5.766 5.766 0 0 1-3.447-1.148.75.75 0 0 1-.155-1.049M9 9.75a.75.75 0 0 0 0 1.5h1a.75.75 0 1 0 0-1.5zm5.5-.5a.75.75 0 0 1 .75.75v.5a.75.75 0 1 1-1.5 0V10a.75.75 0 0 1 .75-.75"/></svg>