<svg width="24" height="24" fill="currentColor" viewBox="0 0 24 24" xmlns="http://www.w3.org/2000/svg"><path fill-rule="evenodd" d="M2.25 12c0-5.385 4.365-9.75 9.75-9.75s9.75 4.365 9.75 9.75-4.365 9.75-9.75 9.75S2.25 17.385 2.25 12m6-1.5A.75.75 0 0 1 9 9.75h1a.75.75 0 1 1 0 1.5H9a.75.75 0 0 1-.75-.75m7-.5a.75.75 0 1 0-1.5 0v.5a.75.75 0 0 0 1.5 0zm-6.852 4.553a.75.75 0 0 1 1.049-.155c.728.54 1.607.852 2.553.852s1.825-.313 2.553-.852a.75.75 0 1 1 .894 1.204A5.766 5.766 0 0 1 12 16.75a5.766 5.766 0 0 1-3.447-1.148.75.75 0 0 1-.155-1.049"/></svg>