<svg width="24" height="24" fill="currentColor" viewBox="0 0 24 24" xmlns="http://www.w3.org/2000/svg"><path fill-rule="evenodd" d="M10.68 2.105a2.63 2.63 0 0 1 2.64 0l.001.001 6.611 3.8A2.645 2.645 0 0 1 21.25 8.2v7.603a2.66 2.66 0 0 1-1.318 2.291l-.003.002-6.608 3.799h-.002a2.63 2.63 0 0 1-2.639 0h-.001l-6.608-3.8h-.003A2.644 2.644 0 0 1 2.75 15.8V8.198a2.66 2.66 0 0 1 1.318-2.291l.003-.002zM8.47 8.47a.75.75 0 0 1 1.06 0L12 10.94l2.47-2.47a.75.75 0 1 1 1.06 1.06L13.06 12l2.47 2.47a.75.75 0 0 1-1.06 1.06L12 13.06l-2.47 2.47a.75.75 0 0 1-1.06-1.06L10.94 12 8.47 9.53a.75.75 0 0 1 0-1.06"/></svg>