<svg width="24" height="24" fill="currentColor" viewBox="0 0 24 24" xmlns="http://www.w3.org/2000/svg"><path d="m10.68 2.105-6.61 3.8-.002.002A2.65 2.65 0 0 0 2.75 8.198v7.603a2.64 2.64 0 0 0 1.318 2.292l.003.002 6.608 3.799h.002a2.63 2.63 0 0 0 2.639 0h.001l6.608-3.8h.003A2.65 2.65 0 0 0 21.25 15.8V8.2a2.65 2.65 0 0 0-1.318-2.292l-6.61-3.8-.002-.002a2.63 2.63 0 0 0-2.64 0M8.47 8.47a.75.75 0 0 1 1.06 0L12 10.94l2.47-2.47a.75.75 0 1 1 1.06 1.06L13.06 12l2.47 2.47a.75.75 0 0 1-1.06 1.06L12 13.06l-2.47 2.47a.75.75 0 0 1-1.06-1.06L10.94 12 8.47 9.53a.75.75 0 0 1 0-1.06"/></svg>