<svg width="24" height="24" fill="currentColor" viewBox="0 0 24 24" xmlns="http://www.w3.org/2000/svg"><path fill-rule="evenodd" d="M10.68 2.105a2.63 2.63 0 0 1 2.64 0l.001.001 6.611 3.8A2.645 2.645 0 0 1 21.25 8.2v7.603a2.66 2.66 0 0 1-1.318 2.291l-.003.002-6.608 3.799h-.002a2.63 2.63 0 0 1-2.639 0h-.001l-6.608-3.8h-.003A2.644 2.644 0 0 1 2.75 15.8V8.198a2.66 2.66 0 0 1 1.318-2.291l.003-.002zm-2.61 4.78a.75.75 0 0 1 1.044.185L12 11.192l2.886-4.122a.75.75 0 0 1 1.229.86l-2.674 3.82h1.74a.75.75 0 0 1 0 1.5h-2.43v1h2.43a.75.75 0 0 1 0 1.5h-2.43v1.75a.75.75 0 0 1-1.5 0v-1.75H8.817a.75.75 0 0 1 0-1.5h2.432v-1H8.818a.75.75 0 0 1 0-1.5h1.742L7.886 7.93a.75.75 0 0 1 .184-1.044"/></svg>