<svg width="24" height="24" fill="currentColor" viewBox="0 0 24 24" xmlns="http://www.w3.org/2000/svg"><path d="M2.25 12c0 5.385 4.365 9.75 9.75 9.75s9.75-4.365 9.75-9.75S17.385 2.25 12 2.25 2.25 6.615 2.25 12m5.82-5.114a.75.75 0 0 1 1.044.184L12 11.192l2.886-4.122a.75.75 0 0 1 1.229.86l-2.674 3.82h1.74a.75.75 0 0 1 0 1.5h-2.43v1h2.43a.75.75 0 0 1 0 1.5h-2.43v1.75a.75.75 0 0 1-1.5 0v-1.75H8.817a.75.75 0 0 1 0-1.5h2.432v-1H8.818a.75.75 0 0 1 0-1.5h1.742L7.886 7.93a.75.75 0 0 1 .184-1.044"/></svg>