<svg width="24" height="24" fill="currentColor" viewBox="0 0 24 24" xmlns="http://www.w3.org/2000/svg"><path d="M6.443 4.381C7.84 4.25 9.637 4.25 11.96 4.25h.082c2.322 0 4.119 0 5.516.131 1.407.133 2.517.406 3.409 1.03.928.65 1.377 1.511 1.587 2.607.197 1.024.197 2.321.197 3.907v.15c0 1.586 0 2.883-.197 3.907-.21 1.096-.659 1.957-1.587 2.607-.892.624-2.002.897-3.41 1.03-1.396.131-3.193.131-5.515.131h-.082c-2.322 0-4.119 0-5.516-.131-1.407-.133-2.517-.406-3.409-1.03-.928-.65-1.377-1.511-1.587-2.607-.197-1.024-.197-2.321-.197-3.907v-.15c0-1.586 0-2.883.197-3.907.21-1.096.659-1.957 1.587-2.607.892-.624 2.002-.897 3.41-1.03m5.115 4.564a1.166 1.166 0 0 0-1.608.313c-.13.191-.2.418-.2.65v4.184a1.16 1.16 0 0 0 1.8.968l3.175-2.074a1.155 1.155 0 0 0 .008-1.931z"/></svg>