<svg width="24" height="24" fill="none" viewBox="0 0 24 24" stroke-width="1.5" stroke="currentColor" stroke-linecap="round" stroke-linejoin="round" xmlns="http://www.w3.org/2000/svg"><path d="M10 14V6c0-.932 0-1.398-.152-1.765a2 2 0 0 0-1.083-1.083C8.398 3 7.932 3 7 3c-.932 0-1.398 0-1.765.152a2 2 0 0 0-1.083 1.083C4 4.602 4 5.068 4 6v8c0 .932 0 1.398.152 1.765a2 2 0 0 0 1.083 1.083C5.602 17 6.068 17 7 17c.932 0 1.398 0 1.765-.152a2 2 0 0 0 1.083-1.083C10 15.398 10 14.932 10 14m10 0v-4c0-.932 0-1.398-.152-1.765a2 2 0 0 0-1.083-1.083C18.398 7 17.932 7 17 7c-.932 0-1.398 0-1.765.152a2 2 0 0 0-1.083 1.083C14 8.602 14 9.068 14 10v4c0 .932 0 1.398.152 1.765a2 2 0 0 0 1.083 1.083C15.602 17 16.068 17 17 17c.932 0 1.398 0 1.765-.152a2 2 0 0 0 1.083-1.083C20 15.398 20 14.932 20 14m1 7H3"/></svg>