<svg width="24" height="24" fill="none" viewBox="0 0 24 24" stroke-width="1.5" stroke="currentColor" stroke-linecap="round" stroke-linejoin="round" xmlns="http://www.w3.org/2000/svg"><path d="M10 18v-8c0-.932 0-1.398-.152-1.765a2 2 0 0 0-1.083-1.083C8.398 7 7.932 7 7 7c-.932 0-1.398 0-1.765.152a2 2 0 0 0-1.083 1.083C4 8.602 4 9.068 4 10v8c0 .932 0 1.398.152 1.765a2 2 0 0 0 1.083 1.083C5.602 21 6.068 21 7 21c.932 0 1.398 0 1.765-.152a2 2 0 0 0 1.083-1.083C10 19.398 10 18.932 10 18m10-4v-4c0-.932 0-1.398-.152-1.765a2 2 0 0 0-1.083-1.083C18.398 7 17.932 7 17 7c-.932 0-1.398 0-1.765.152a2 2 0 0 0-1.083 1.083C14 8.602 14 9.068 14 10v4c0 .932 0 1.398.152 1.765a2 2 0 0 0 1.083 1.083C15.602 17 16.068 17 17 17c.932 0 1.398 0 1.765-.152a2 2 0 0 0 1.083-1.083C20 15.398 20 14.932 20 14m1-11H3"/></svg>