<svg width="24" height="24" fill="none" viewBox="0 0 24 24" stroke-width="1.5" stroke="currentColor" stroke-linecap="round" stroke-linejoin="round" xmlns="http://www.w3.org/2000/svg"><path d="M12 21v-1m0-17v1m0 10H8c-.932 0-1.398 0-1.765.152a2 2 0 0 0-1.083 1.083C5 15.602 5 16.068 5 17c0 .932 0 1.398.152 1.765a2 2 0 0 0 1.083 1.083C6.602 20 7.068 20 8 20h4m0-6h4c.932 0 1.398 0 1.765.152a2 2 0 0 1 1.083 1.083C19 15.602 19 16.068 19 17c0 .932 0 1.398-.152 1.765a2 2 0 0 1-1.083 1.083C17.398 20 16.932 20 16 20h-4m0-6v-4m0 0h2c.932 0 1.398 0 1.765-.152a2 2 0 0 0 1.083-1.083C17 8.398 17 7.932 17 7c0-.932 0-1.398-.152-1.765a2 2 0 0 0-1.083-1.083C15.398 4 14.932 4 14 4h-2m0 6h-2c-.932 0-1.398 0-1.765-.152a2 2 0 0 1-1.083-1.083C7 8.398 7 7.932 7 7c0-.932 0-1.398.152-1.765a2 2 0 0 1 1.083-1.083C8.602 4 9.068 4 10 4h2"/></svg>