<svg width="24" height="24" fill="none" viewBox="0 0 24 24" stroke-width="1.5" stroke="currentColor" stroke-linecap="round" stroke-linejoin="round" xmlns="http://www.w3.org/2000/svg"><path d="M18 14h-8c-.932 0-1.398 0-1.765.152a2 2 0 0 0-1.083 1.083C7 15.602 7 16.068 7 17c0 .932 0 1.398.152 1.765a2 2 0 0 0 1.083 1.083C8.602 20 9.068 20 10 20h8c.932 0 1.398 0 1.765-.152a2 2 0 0 0 1.083-1.083C21 18.398 21 17.932 21 17c0-.932 0-1.398-.152-1.765a2 2 0 0 0-1.083-1.083C19.398 14 18.932 14 18 14M14 4h-4c-.932 0-1.398 0-1.765.152a2 2 0 0 0-1.083 1.083C7 5.602 7 6.068 7 7c0 .932 0 1.398.152 1.765a2 2 0 0 0 1.083 1.083C8.602 10 9.068 10 10 10h4c.932 0 1.398 0 1.765-.152a2 2 0 0 0 1.083-1.083C17 8.398 17 7.932 17 7c0-.932 0-1.398-.152-1.765a2 2 0 0 0-1.083-1.083C15.398 4 14.932 4 14 4M3 21V3"/></svg>