<svg width="24" height="24" fill="none" viewBox="0 0 24 24" stroke-width="1.5" stroke="currentColor" stroke-linecap="round" stroke-linejoin="round" xmlns="http://www.w3.org/2000/svg"><path d="M6.9 10h4m-2-2v4m.307 4.455C9.207 17.86 8.095 19 6.724 19s-2.483-1.14-2.483-2.546m4.966 0c0-1.405-1.112-2.545-2.483-2.545s-2.483 1.14-2.483 2.545m4.966 0h5.586m-10.552 0H3V6a1 1 0 0 1 1-1h9.793a1 1 0 0 1 1 1v2.182m5.586 8.272c0 1.406-1.111 2.546-2.482 2.546-1.372 0-2.483-1.14-2.483-2.546m4.965 0c0-1.405-1.111-2.545-2.482-2.545-1.372 0-2.483 1.14-2.483 2.545m4.965 0H21v-5.09l-2.515-2.579a2 2 0 0 0-1.431-.603h-2.26m.62 8.272h-.62m0 0V8.182"/></svg>