<svg xmlns="http://www.w3.org/2000/svg" width="24" height="24" fill="none" viewBox="0 0 24 24" stroke-width="1.5" stroke-linecap="round" stroke-linejoin="round" stroke="currentColor"><path d="M19.5 8v11.4c0 .56 0 .84-.109 1.054a1 1 0 0 1-.437.437C18.74 21 18.46 21 17.9 21H6.1c-.56 0-.84 0-1.054-.109a1 1 0 0 1-.437-.437C4.5 20.24 4.5 19.96 4.5 19.4V8m14.9-5H4.6c-.56 0-.84 0-1.054.109a1 1 0 0 0-.437.437C3 3.76 3 4.04 3 4.6v1.8c0 .56 0 .84.109 1.054a1 1 0 0 0 .437.437C3.76 8 4.04 8 4.6 8h14.8c.56 0 .84 0 1.054-.109a1 1 0 0 0 .437-.437C21 7.24 21 6.96 21 6.4V4.6c0-.56 0-.84-.109-1.054a1 1 0 0 0-.437-.437C20.24 3 19.96 3 19.4 3Zm-8.9 8h3"/></svg>