<svg width="24" height="24" fill="none" viewBox="0 0 24 24" stroke-width="1.5" stroke="currentColor" stroke-linecap="round" stroke-linejoin="round" xmlns="http://www.w3.org/2000/svg"><path d="M15.5 17.25h-.75zm3 3V21zm3-3h.75zm-10.54 1a.75.75 0 0 0 1.5 0zm.75-3.868h.75a.75.75 0 0 0-.22-.53zm-2.21-2.21-.53-.531a.75.75 0 0 0 0 1.06zm4.421-4.422.543-.518a.75.75 0 0 0-1.073-.012zm2.21 2.316-.542.518a.75.75 0 0 0 .543.232zm2.211.75a.75.75 0 0 0 0-1.5zM3.38 19.37l-.53.53zm4.24-4.24.53-.53zm-4.242 0-.53-.53zM15.5 17.25h-.75a3.75 3.75 0 0 0 1.098 2.652l.53-.53.531-.531a2.25 2.25 0 0 1-.659-1.591zm.879 2.121-.53.53A3.75 3.75 0 0 0 18.5 21v-1.5a2.25 2.25 0 0 1-1.591-.659zm2.121.879V21a3.75 3.75 0 0 0 2.652-1.098l-.53-.53-.531-.531a2.25 2.25 0 0 1-1.591.659zm2.121-.879.53.53a3.75 3.75 0 0 0 1.099-2.651h-1.5a2.25 2.25 0 0 1-.659 1.591zm.879-2.121h.75a3.75 3.75 0 0 0-1.098-2.652l-.53.53-.531.531c.422.422.659.994.659 1.591zm-.879-2.121.53-.53A3.75 3.75 0 0 0 18.5 13.5V15a2.25 2.25 0 0 1 1.591.659zM18.5 14.25v-.75a3.75 3.75 0 0 0-2.652 1.098l.53.53.531.531A2.25 2.25 0 0 1 18.5 15zm-2.121.879-.53-.53a3.75 3.75 0 0 0-1.099 2.651h1.5c0-.597.237-1.169.659-1.591zM11.71 18.25h.75v-3.868h-1.5v3.868zm0-3.868.53-.53-2.21-2.211-.53.53-.53.53 2.21 2.21zm-2.21-2.21.53.53 4.421-4.422-.53-.53-.53-.53-4.421 4.42zm4.421-4.422-.542.518 2.21 2.316.543-.518.542-.518-2.21-2.316zm2.21 2.316v.75h2.211v-1.5h-2.21zM2.5 17.25h-.75a3.75 3.75 0 0 0 1.098 2.652l.53-.53.531-.531a2.25 2.25 0 0 1-.659-1.591zm.879 2.121-.53.53A3.75 3.75 0 0 0 5.5 21v-1.5a2.25 2.25 0 0 1-1.591-.659zm2.121.879V21a3.75 3.75 0 0 0 2.652-1.098l-.53-.53-.531-.531A2.25 2.25 0 0 1 5.5 19.5zm2.121-.879.53.53A3.75 3.75 0 0 0 9.25 17.25h-1.5a2.25 2.25 0 0 1-.659 1.591zM8.5 17.25h.75a3.75 3.75 0 0 0-1.098-2.652l-.53.53-.531.531c.422.422.659.994.659 1.591zm-.879-2.121.53-.53A3.75 3.75 0 0 0 5.5 13.5V15a2.25 2.25 0 0 1 1.591.659zM5.5 14.25v-.75a3.75 3.75 0 0 0-2.652 1.098l.53.53.531.531A2.25 2.25 0 0 1 5.5 15zm-2.121.879-.53-.53A3.75 3.75 0 0 0 1.75 17.25h1.5c0-.597.237-1.169.659-1.591zM19 5.25h-.75a.75.75 0 0 1-.75.75v1.5a2.25 2.25 0 0 0 2.25-2.25zm-1.5 1.5V6a.75.75 0 0 1-.75-.75h-1.5A2.25 2.25 0 0 0 17.5 7.5zM16 5.25h.75a.75.75 0 0 1 .75-.75V3a2.25 2.25 0 0 0-2.25 2.25zm1.5-1.5v.75a.75.75 0 0 1 .75.75h1.5A2.25 2.25 0 0 0 17.5 3z"/></svg>