<svg width="24" height="24" fill="none" viewBox="0 0 24 24" stroke-width="1.5" stroke="currentColor" stroke-linecap="round" stroke-linejoin="round" xmlns="http://www.w3.org/2000/svg"><path d="m6.5 7.678 10.54 8.558c.242.196.363.294.408.41.04.104.042.216.004.32-.042.117-.16.218-.396.42l-3.57 3.05c-.432.37-.649.556-.833.564a.526.526 0 0 1-.416-.174c-.118-.133-.118-.408-.118-.958V4.132c0-.55 0-.825.118-.958A.526.526 0 0 1 12.653 3c.184.008.4.193.833.563l3.603 3.08c.226.192.339.289.382.402.037.1.039.21.004.31-.04.115-.15.214-.371.412L6.5 17.283"/></svg>