<svg width="24" height="24" fill="none" viewBox="0 0 24 24" stroke-width="1.5" stroke="currentColor" stroke-linecap="round" stroke-linejoin="round" xmlns="http://www.w3.org/2000/svg"><path d="M5 20.25c0 .414.336.75.75.75h10.652C17.565 21 18 20.635 18 19.4v-1.445M5 20.25A2.25 2.25 0 0 1 7.25 18h10.152c.226 0 .425-.014.598-.045M5 20.25V6.2c0-1.136-.072-2.389 1.092-2.982C6.52 3 7.08 3 8.2 3h9.2c1.236 0 1.6.437 1.6 1.6v11.8c0 .995-.282 1.425-1 1.555"/><path d="m9.6 10.323 1.379 1.575a.299.299 0 0 0 .466-.022L14.245 8"/></svg>