<svg width="24" height="24" fill="none" viewBox="0 0 24 24" stroke-width="1.5" stroke="currentColor" stroke-linecap="round" stroke-linejoin="round" xmlns="http://www.w3.org/2000/svg"><path d="m12 21 8.131-4.208c.316-.164.474-.245.589-.366a1 1 0 0 0 .226-.373c.054-.159.054-.336.054-.692V7.533M12 21l-8.131-4.208c-.316-.164-.474-.245-.589-.366a1.009 1.009 0 0 1-.226-.373C3 15.894 3 15.716 3 15.359V7.533M12 21v-9.063m9-4.404-9 4.404m9-4.404-8.27-4.28c-.267-.138-.4-.208-.541-.235a.994.994 0 0 0-.378 0c-.14.027-.274.097-.542.235L3 7.533m0 0 9 4.404"/></svg>