<svg width="24" height="24" fill="none" viewBox="0 0 24 24" stroke-width="1.5" stroke="currentColor" stroke-linecap="round" stroke-linejoin="round" xmlns="http://www.w3.org/2000/svg"><path d="M20 5 4.672 11.373c-.395.164-.592.247-.643.354a.304.304 0 0 0 .016.29c.063.1.268.16.68.281L10.5 14M20 5l-2.065 13.049c-.04.254-.06.381-.127.45a.313.313 0 0 1-.223.097c-.097 0-.205-.072-.421-.216l-2.93-1.956M20 5l-9.5 9m0 0 .156 4.3c0 .334 0 .501.069.585.06.074.15.116.246.115.11-.001.24-.108.5-.32l2.764-2.256M10.5 14l3.735 2.424"/></svg>