<svg width="24" height="24" fill="none" viewBox="0 0 24 24" stroke-width="1.5" stroke="currentColor" stroke-linecap="round" stroke-linejoin="round" xmlns="http://www.w3.org/2000/svg"><path d="m20.26 17.787.746.082.001-.01zm.693-7.2-.745-.085-.001.013zm-17.906 0 .747-.072-.002-.013zm.692 7.2-.746.072v.01zm12.033 2.98.71.242zm-7.544 0 .71-.243zM14.25 5.999a.75.75 0 0 0 1.5 0zm.75-2h.75zm-.293-.705.53-.53zM14.001 3l.002-.75H14zm-4.385.076.287.693zm-.324.217-.531-.53zm-.217.325.694.286zM9 4h.75v-.003zm-.75 2a.75.75 0 0 0 1.5 0zm4.5 6a.75.75 0 0 0-1.5 0zm-1.5 4a.75.75 0 0 0 1.5 0zM14 14.75a.75.75 0 0 0 0-1.5zm-4-1.5a.75.75 0 0 0 0 1.5zM8.308 21v.75h7.384v-1.5H8.308zm7.384 0v.75c1.928 0 3.246-.372 4.102-1.135.868-.773 1.11-1.812 1.212-2.746l-.745-.082-.746-.082c-.09.83-.278 1.397-.719 1.79-.452.403-1.322.755-3.104.755zm4.569-3.213.746.072.693-7.2-.747-.072-.746-.072-.693 7.2zm.692-7.2.745.085c.132-1.16.058-2.427-.775-3.392-.834-.968-2.254-1.43-4.308-1.43v1.5c1.888 0 2.761.433 3.173.91.413.48.538 1.206.42 2.242zM16.615 6.6v-.75h-9.23v1.5h9.23zm-9.23 0v-.75c-2.054 0-3.474.462-4.308 1.43-.833.965-.907 2.232-.775 3.391l.745-.084.745-.085c-.117-1.036.007-1.763.42-2.242.412-.477 1.285-.91 3.173-.91zm-4.338 3.987-.747.072.693 7.2.746-.072.747-.072-.693-7.2zm.692 7.2-.745.082c.102.933.344 1.973 1.212 2.746.856.763 2.174 1.135 4.102 1.135v-1.5c-1.782 0-2.652-.352-3.104-.755-.441-.393-.628-.96-.72-1.79zm4.49 2.98-.71.242.08.234.709-.243.71-.243-.08-.233zm7.543 0-.71-.243-.08.233.71.243.71.243.08-.234zM16.615 6.6l-.733.157a25.86 25.86 0 0 1-.82 13.767l.71.243.71.242a27.36 27.36 0 0 0 .866-14.566zm-9.23 0-.733-.157a27.36 27.36 0 0 0 .867 14.566l.71-.242.709-.243a25.86 25.86 0 0 1-.82-13.767zM15 5.999h.75v-2h-1.5v2zm0-2h.75a1.75 1.75 0 0 0-.512-1.235l-.53.53-.531.53A.25.25 0 0 1 14.25 4zm-.293-.705.53-.53a1.75 1.75 0 0 0-1.234-.514L14 3l-.002.75c.067 0 .13.027.178.074zM14.001 3v-.75H9.999v1.5h4.002zM9.999 3v-.75c-.23 0-.457.045-.67.133l.287.693.287.693A.3.3 0 0 1 10 3.75zm-.383.076-.287-.693a1.8 1.8 0 0 0-.568.38l.53.53.531.53a.3.3 0 0 1 .081-.054zm-.324.217-.531-.53a1.8 1.8 0 0 0-.38.57l.694.285.694.286a.3.3 0 0 1 .053-.08zm-.217.325-.693-.286c-.088.213-.133.44-.132.67H9l.75-.003q0-.049.019-.094zM9 4h-.75v2h1.5V4zm3 8h-.75v4h1.5v-4zm2 2v-.75h-4v1.5h4z"/></svg>