<svg width="24" height="24" fill="none" viewBox="0 0 24 24" stroke-width="1.5" stroke="currentColor" stroke-linecap="round" stroke-linejoin="round" xmlns="http://www.w3.org/2000/svg"><path d="m20.26 17.787.746.082.001-.01zm.693-7.2-.745-.085-.001.013zm-17.906 0 .747-.072-.002-.013zm.692 7.2-.746.072v.01zM14.25 5.999a.75.75 0 0 0 1.5 0zm.75-2h.75zm-.293-.705.53-.53zM14.001 3l.002-.75H14zm-4.385.076.287.693zm-.324.217-.531-.53zm-.217.325.694.286zM9 4h.75v-.003zm-.75 2a.75.75 0 0 0 1.5 0zm1.169 9.746a.75.75 0 0 0 .162-1.492L9.5 15zm-5.78-3.377a.75.75 0 0 0-.81 1.262L3.234 13zm10.78 1.885a.75.75 0 0 0 .162 1.492L14.5 15zm6.798-.623a.75.75 0 0 0-.81-1.262l.405.631zM10.75 13.5v-.75h-.001zm-1.25 1h.75zM8.308 21v.75h7.384v-1.5H8.308zm7.384 0v.75c1.928 0 3.246-.372 4.102-1.135.868-.773 1.11-1.812 1.212-2.746l-.745-.082-.746-.082c-.09.83-.278 1.397-.719 1.79-.452.403-1.322.755-3.104.755zm4.569-3.213.746.072.693-7.2-.747-.072-.746-.072-.693 7.2zm.692-7.2.745.085c.132-1.16.058-2.427-.775-3.392-.834-.968-2.254-1.43-4.308-1.43v1.5c1.888 0 2.761.433 3.173.91.413.48.538 1.206.42 2.242zM16.615 6.6v-.75h-9.23v1.5h9.23zm-9.23 0v-.75c-2.054 0-3.474.462-4.308 1.43-.833.965-.907 2.232-.775 3.391l.745-.084.745-.085c-.117-1.036.007-1.763.42-2.242.412-.477 1.285-.91 3.173-.91zm-4.338 3.987-.747.072.693 7.2.746-.072.747-.072-.693-7.2zm.692 7.2-.745.082c.102.933.344 1.973 1.212 2.746.856.763 2.174 1.135 4.102 1.135v-1.5c-1.782 0-2.652-.352-3.104-.755-.441-.393-.628-.96-.72-1.79zM15 5.999h.75v-2h-1.5v2zm0-2h.75a1.75 1.75 0 0 0-.512-1.235l-.53.53-.531.53A.25.25 0 0 1 14.25 4zm-.293-.705.53-.53a1.75 1.75 0 0 0-1.234-.514L14 3l-.002.75c.067 0 .13.027.178.074zM14.001 3v-.75H9.999v1.5h4.002zM9.999 3v-.75c-.23 0-.457.045-.67.133l.287.693.287.693A.3.3 0 0 1 10 3.75zm-.383.076-.287-.693a1.8 1.8 0 0 0-.568.38l.53.53.531.53a.3.3 0 0 1 .081-.054zm-.324.217-.531-.53a1.8 1.8 0 0 0-.38.57l.694.285.694.286a.3.3 0 0 1 .053-.08zm-.217.325-.693-.286c-.088.213-.133.44-.132.67H9l.75-.003q0-.049.019-.094zM9 4h-.75v2h1.5V4zm-5.766 9-.405.631c2.153 1.382 4.229 1.857 6.59 2.115L9.5 15l.081-.746c-2.241-.244-4.06-.678-5.942-1.885zm17.578 0-.405-.631c-1.88 1.206-3.743 1.64-5.988 1.885L14.5 15l.081.746c2.358-.258 4.48-.732 6.636-2.115zm-7.562.5v-.75h-2.5v1.5h2.5zm-2.5 0-.001-.75c-.483 0-.97.153-1.352.458l.469.586.469.585a.68.68 0 0 1 .416-.129zm-.884.294-.469-.586c-.385.309-.647.768-.647 1.293h1.5c0-.006.002-.055.085-.122zM9.5 14.5h-.75v1h1.5v-1zm0 1h-.75c0 1.115 1.06 1.749 2 1.749v-1.5a.67.67 0 0 1-.416-.128c-.082-.066-.084-.114-.084-.12zm1.25.999v.75h2.5v-1.5h-2.5zm2.5 0v.75c.938 0 2-.634 2-1.75h-1.5c0 .008-.002.055-.085.121a.67.67 0 0 1-.415.129zm1.25-1h.75v-1h-1.5v1zm0-1h.75c0-1.114-1.06-1.75-2-1.75v1.5c.187 0 .331.061.415.129.083.066.085.113.085.12z"/></svg>