<svg width="24" height="24" fill="none" viewBox="0 0 24 24" stroke-width="1.5" stroke="currentColor" stroke-linecap="round" stroke-linejoin="round" xmlns="http://www.w3.org/2000/svg"><path d="M8.308 21h7.384m-7.384 0c-3.71 0-4.375-1.449-4.569-3.213l-.692-7.2C2.797 8.391 3.444 6.6 7.385 6.6M8.308 21c-1.584-4.634-1.949-9.6-.923-14.4M15.692 21c3.71 0 4.375-1.449 4.569-3.213l.692-7.2c.25-2.196-.397-3.987-4.338-3.987M15.692 21c1.584-4.634 1.949-9.6.923-14.4m0 0h-9.23M15 6.6V4c0-.545-.456-.998-1-1h-4c-.545 0-1.002.456-1 1v2.6m3 5.4v4m2-2h-4"/></svg>