<svg width="24" height="24" fill="none" viewBox="0 0 24 24" stroke-width="1.5" stroke="currentColor" stroke-linecap="round" stroke-linejoin="round" xmlns="http://www.w3.org/2000/svg"><path d="m20.26 17.787.746.082.001-.01zm.693-7.2-.745-.085-.001.013zm-17.906 0 .747-.072-.002-.013zm.692 7.2-.746.072v.01zm5.991-3.71a.75.75 0 0 0 .163-1.491l-.081.745zm-6.09-3.708a.75.75 0 0 0-.81 1.262L3.234 11zm10.513 2.217a.75.75 0 0 0 .163 1.49l-.082-.745zm7.065-.955a.75.75 0 0 0-.81-1.262l.405.631zM14.25 6a.75.75 0 0 0 1.5 0zM15 4h.75zm-.293-.705.53-.53zM14.001 3l.002-.75H14zm-4.385.076.287.693zm-.324.217-.531-.53zm-.217.325.694.286zM9 4h.75v-.003zm-.75 2a.75.75 0 0 0 1.5 0zm.058 15v.75h7.384v-1.5H8.308zm7.384 0v.75c1.928 0 3.246-.372 4.102-1.135.868-.773 1.11-1.812 1.212-2.746l-.745-.082-.746-.082c-.09.83-.278 1.397-.719 1.79-.452.403-1.322.755-3.104.755zm4.569-3.213.746.072.693-7.2-.747-.072-.746-.072-.693 7.2zm.692-7.2.745.085c.132-1.16.058-2.427-.775-3.392-.834-.968-2.254-1.43-4.308-1.43v1.5c1.888 0 2.761.433 3.173.91.413.48.538 1.206.42 2.242zM16.615 6.6v-.75h-9.23v1.5h9.23zm-9.23 0v-.75c-2.054 0-3.474.462-4.308 1.43-.833.965-.907 2.232-.775 3.391l.745-.084.745-.085c-.117-1.036.007-1.763.42-2.242.412-.477 1.285-.91 3.173-.91zm-4.338 3.987-.747.072.693 7.2.746-.072.747-.072-.693-7.2zm.692 7.2-.745.082c.102.933.344 1.973 1.212 2.746.856.763 2.174 1.135 4.102 1.135v-1.5c-1.782 0-2.652-.352-3.104-.755-.441-.393-.628-.96-.72-1.79zM3.234 11l-.405.631a16 16 0 0 0 6.901 2.446l.082-.746.081-.745a14.5 14.5 0 0 1-6.254-2.217zm17.578 0-.405-.631a14.5 14.5 0 0 1-6.255 2.217l.082.745.08.746a16 16 0 0 0 6.903-2.446zM14 13.5h-.75c0 .69-.56 1.25-1.25 1.25v1.5a2.75 2.75 0 0 0 2.75-2.75zm-2 2v-.75c-.69 0-1.25-.56-1.25-1.25h-1.5A2.75 2.75 0 0 0 12 16.25zm-2-2h.75c0-.69.56-1.25 1.25-1.25v-1.5a2.75 2.75 0 0 0-2.75 2.75zm2-2v.75c.69 0 1.25.56 1.25 1.25h1.5A2.75 2.75 0 0 0 12 10.75zm3-5.501h.75v-2h-1.5v2zm0-2h.75a1.75 1.75 0 0 0-.512-1.235l-.53.53-.531.53A.25.25 0 0 1 14.25 4zm-.293-.705.53-.53a1.75 1.75 0 0 0-1.234-.514L14 3l-.002.75c.067 0 .13.027.178.074zM14.001 3v-.75H9.999v1.5h4.002zM9.999 3v-.75c-.23 0-.457.045-.67.133l.287.693.287.693A.3.3 0 0 1 10 3.75zm-.383.076-.287-.693a1.8 1.8 0 0 0-.568.38l.53.53.531.53a.3.3 0 0 1 .081-.054zm-.324.217-.531-.53a1.8 1.8 0 0 0-.38.57l.694.285.694.286a.3.3 0 0 1 .053-.08zm-.217.325-.693-.286c-.088.213-.133.44-.132.67H9l.75-.003q0-.049.019-.094zM9 4h-.75v2h1.5V4z"/></svg>