<svg width="24" height="24" fill="none" viewBox="0 0 24 24" stroke-width="1.5" stroke="currentColor" stroke-linecap="round" stroke-linejoin="round" xmlns="http://www.w3.org/2000/svg"><path d="M17.022 9.5h.75zm0 5.622h-.75zM7 15.122h-.75zM7 9.5h.75zm9.5-.489v-.75zm-8.978 0v.75zm9.5.489h-.75v5.622h1.5V9.5zM12.782 20v-.75h-1.565v1.5h1.566zM7 15.122h.75V9.5h-1.5v5.622zM11.217 20v-.75c-1.23 0-2.06-.454-2.6-1.14-.56-.712-.867-1.75-.867-2.988h-1.5c0 1.462.36 2.863 1.189 3.916.848 1.077 2.127 1.712 3.778 1.712zm5.805-4.878h-.75c0 1.236-.312 2.274-.877 2.986-.546.688-1.382 1.142-2.612 1.142v1.5c1.65 0 2.934-.634 3.787-1.71.835-1.052 1.202-2.453 1.202-3.918zM16.5 9.011v.75c-.08 0-.228-.072-.228-.261h1.5c0-.73-.616-1.239-1.272-1.239zm-8.978 0v-.75c-.656 0-1.272.51-1.272 1.239h1.5c0 .19-.149.261-.228.261zm0 0v.75H16.5v-1.5H7.522z"/><path d="M17.089 3.668a.75.75 0 0 0-.681-1.336l.34.668zm-2.935.992a.75.75 0 1 0 1.337.68L14.822 5zM7.34 2.332a.75.75 0 1 0-.68 1.336L7 3zM8.51 5.34a.75.75 0 0 0 1.336-.68L9.178 5zM3.25 21a.75.75 0 0 0 1.5 0zm1.022-2.639.669.34zm2.99-.611a.75.75 0 0 0-.03-1.5l.015.75zm-1.897-.483-.34-.668zM4.75 6a.75.75 0 0 0-1.5 0zm-.478 2.639-.668.34zm2.714 2.11a.75.75 0 0 0 .028-1.499L7 10zM5.365 9.734l-.34.668zM7 14.75a.75.75 0 0 0 0-1.5zm-3-1.5a.75.75 0 0 0 0 1.5zM19.25 21a.75.75 0 0 0 1.5 0zm.477-2.639-.668.34zm-2.941-2.11a.75.75 0 1 0-.029 1.499l.014-.75zm1.849 1.016.34-.668zM20.75 6a.75.75 0 0 0-1.5 0zm-1.023 2.639-.668-.34zm-2.72.611a.75.75 0 0 0 .03 1.5l-.015-.75zm1.628.483-.34-.668zm-1.613 3.517a.75.75 0 0 0 0 1.5zM20 14.75a.75.75 0 0 0 0-1.5zM16.748 3l-.34-.668c-.918.467-1.812 1.46-2.254 2.328l.668.34.669.34c.325-.637 1.01-1.372 1.598-1.672zM7 3l-.34.668c.309.158.705.43 1.069.754.37.33.65.661.78.918L9.178 5l.668-.34c-.253-.496-.687-.973-1.12-1.359a7 7 0 0 0-1.386-.97zM4 21h.75c0-.713 0-1.203.032-1.583.03-.371.085-.571.159-.716l-.669-.34-.668-.34c-.199.391-.28.81-.317 1.274-.038.455-.037 1.016-.037 1.705zm3.247-4-.015-.75a12 12 0 0 0-1.16.07c-.349.043-.733.119-1.048.28l.341.667.34.668c.075-.038.247-.088.55-.126.287-.035.63-.052 1.006-.06zm-1.882.267-.34-.668a3.25 3.25 0 0 0-1.421 1.422l.668.34.669.34c.168-.33.436-.598.765-.766zM4 6h-.75c0 .689 0 1.25.037 1.705.037.464.118.883.317 1.274l.668-.34.669-.34c-.074-.145-.13-.345-.16-.716-.03-.38-.031-.87-.031-1.583zm3 4 .014-.75c-.772-.015-1.089-.074-1.308-.185l-.341.668-.34.668c.558.285 1.194.334 1.96.349zm-1.635-.267.34-.668a1.75 1.75 0 0 1-.764-.766l-.669.34-.668.34c.311.612.809 1.11 1.42 1.422zM7 14v-.75H4v1.5h3zm13 7h.75c0-.689 0-1.25-.037-1.705-.037-.464-.118-.883-.317-1.274l-.669.34-.668.34c.074.145.13.345.16.716.03.38.031.87.031 1.583zm-3.229-4-.014.75c.376.007.714.024.996.059.296.037.465.087.541.126l.341-.668.34-.668c-.312-.16-.69-.235-1.036-.278-.36-.045-.76-.063-1.153-.07zm1.864.267-.34.668c.328.168.596.437.764.767l.668-.34.669-.34a3.25 3.25 0 0 0-1.42-1.423zM20 6h-.75c0 .713 0 1.203-.032 1.583-.03.371-.085.571-.159.716l.668.34.669.34c.199-.391.28-.81.317-1.274.038-.455.037-1.016.037-1.705zm-2.978 4 .014.75c.771-.015 1.383-.065 1.94-.35l-.341-.667-.34-.668c-.222.112-.52.17-1.288.185zm1.613-.267.34.668a3.25 3.25 0 0 0 1.421-1.422l-.669-.34-.668-.34c-.168.33-.436.598-.765.766zM17.022 14v.75H20v-1.5h-2.978z"/><path d="M8 8h-.75zm3.478-4v-.75zM16 8h-.75zm0 1.011v.75a.75.75 0 0 0 .75-.75zM12.522 4v.75zM8 9.011h-.75a.75.75 0 0 0 .75.75zM8 8h.75c0-1.897 1.316-3.25 2.728-3.25v-1.5C9.048 3.25 7.25 5.479 7.25 8zm8 0h-.75v1.011h1.5V8zm-3.478-4v.75c1.412 0 2.728 1.353 2.728 3.25h1.5c0-2.521-1.798-4.75-4.228-4.75zM8 9.011h.75V8h-1.5v1.011zM11.478 4v.75h1.044v-1.5h-1.044zM8 9.011v.75h8v-1.5H8zM11.25 20v.75h1.5V20zm1.5-8a.75.75 0 0 0-1.5 0zM12 20h.75v-8h-1.5v8z"/></svg>