<svg xmlns="http://www.w3.org/2000/svg" width="24" height="24" fill="none" viewBox="0 0 24 24" stroke-width="1.5" stroke-linecap="round" stroke-linejoin="round" stroke="currentColor"><path d="M3 12c0-4.243 0-5.364 1.318-6.682C5.636 4 7.758 4 12 4c4.243 0 6.364 0 7.682 1.318C21 6.636 21 7.758 21 12c0 4.243 0 6.364-1.318 7.682C18.364 21 16.242 21 12 21c-4.243 0-6.364 0-7.682-1.318C3 18.364 3 16.242 3 12Z"/><path d="M16.5 5V3m-9 2V3M3.25 8h17.5m-8.747 3.5L12 16.78m2.5-1.933L12 17.5l-2.5-2.653"/></svg>