<svg width="24" height="24" fill="none" viewBox="0 0 24 24" stroke-width="1.5" stroke="currentColor" stroke-linecap="round" stroke-linejoin="round" xmlns="http://www.w3.org/2000/svg"><path d="M19.631 13.751a6.6 6.6 0 0 0-1.333-.701 6.3 6.3 0 0 0-2.276-.437c-1.572-6.12-7.37-6.065-11-3.381m14.61 4.519c2.153 1.474 3.14 4.107.646 6.246-.91.78-2.245 1.003-3.406 1.003H8.026a5.4 5.4 0 0 1-4.15-1.95C.561 15.31 2.08 11.409 5.021 9.233m14.61 4.519c.404-.127.783-.31 1.1-.568 3.167-2.57-.183-6.017-3.662-6.017C15.003-.45 4.453 3.671 5.022 9.232"/></svg>