<svg width="24" height="24" fill="none" viewBox="0 0 24 24" stroke-width="1.5" stroke="currentColor" stroke-linecap="round" stroke-linejoin="round" xmlns="http://www.w3.org/2000/svg"><path d="M10.11 3.9a1 1 0 0 1 .995-.9h1.79a1 1 0 0 1 .995.9l.033.333a7.953 7.953 0 0 1 2.209.915l.259-.212a1 1 0 0 1 1.34.067l1.266 1.266a1 1 0 0 1 .067 1.34l-.212.26c.409.676.72 1.419.915 2.208l.332.033a1 1 0 0 1 .901.995v1.79a1 1 0 0 1-.9.995l-.333.033a7.951 7.951 0 0 1-.915 2.209l.212.259a1 1 0 0 1-.067 1.34l-1.266 1.266a1 1 0 0 1-1.34.067l-.26-.212a7.947 7.947 0 0 1-2.208.915l-.033.332a1 1 0 0 1-.995.901h-1.79a1 1 0 0 1-.995-.9l-.033-.333a7.95 7.95 0 0 1-2.209-.915l-.259.212a1 1 0 0 1-1.34-.067L5.003 17.73a1 1 0 0 1-.067-1.34l.212-.26a7.953 7.953 0 0 1-.915-2.208L3.9 13.89a1 1 0 0 1-.9-.995v-1.79a1 1 0 0 1 .9-.995l.333-.033a7.953 7.953 0 0 1 .915-2.209l-.212-.259a1 1 0 0 1 .067-1.34L6.27 5.003a1 1 0 0 1 1.34-.067l.26.212a7.947 7.947 0 0 1 2.208-.915z"/><path d="M14.5 12a2.5 2.5 0 1 0-5 0 2.5 2.5 0 0 0 5 0"/></svg>