<svg width="24" height="24" fill="none" viewBox="0 0 24 24" stroke-width="1.5" stroke="currentColor" stroke-linecap="round" stroke-linejoin="round" xmlns="http://www.w3.org/2000/svg"><path d="M7.5 11.5v3M6 13h3m3-4.653c2.005 0 3.7-1.888 5.786-1.212 2.264.733 3.82 3.413 3.708 9.492-.022 1.224-.336 2.578-1.546 3.106-2.797 1.221-4.397-2.328-7-2.328h-1.897c-2.605 0-4.213 3.545-6.998 2.328-1.21-.528-1.525-1.882-1.547-3.107-.113-6.078 1.444-8.758 3.708-9.491C8.299 6.459 9.994 8.347 12 8.347m0-4.565v4.342M14.874 13h3"/></svg>