<svg width="24" height="24" fill="none" viewBox="0 0 24 24" stroke-width="1.5" stroke="currentColor" stroke-linecap="round" stroke-linejoin="round" xmlns="http://www.w3.org/2000/svg"><path d="M20.829 12.861c.171-.413.171-.938.171-1.986s0-1.573-.171-1.986a2.25 2.25 0 0 0-1.218-1.218c-.413-.171-.938-.171-1.986-.171H11.1c-1.26 0-1.89 0-2.371.245a2.25 2.25 0 0 0-.984.984C7.5 9.209 7.5 9.839 7.5 11.1v6.525c0 1.048 0 1.573.171 1.986.229.551.667.99 1.218 1.218.413.171.938.171 1.986.171s1.573 0 1.986-.171m7.968-7.968a2.25 2.25 0 0 1-1.218 1.218c-.413.171-.938.171-1.986.171s-1.573 0-1.986.171a2.25 2.25 0 0 0-1.218 1.218c-.171.413-.171.938-.171 1.986s0 1.573-.171 1.986a2.25 2.25 0 0 1-1.218 1.218m7.968-7.968a11.678 11.678 0 0 1-7.75 7.9l-.218.068M16.5 7.5v-.9c0-1.26 0-1.89-.245-2.371a2.25 2.25 0 0 0-.983-.984C14.79 3 14.16 3 12.9 3H6.6c-1.26 0-1.89 0-2.371.245a2.25 2.25 0 0 0-.984.984C3 4.709 3 5.339 3 6.6v6.3c0 1.26 0 1.89.245 2.371.216.424.56.768.984.984.48.245 1.111.245 2.372.245H7.5"/></svg>