<svg width="24" height="24" fill="none" viewBox="0 0 24 24" stroke-width="1.5" stroke="currentColor" stroke-linecap="round" stroke-linejoin="round" xmlns="http://www.w3.org/2000/svg"><path d="M10.803 9.997 9.75 7.69C9.48 7.032 9.12 6.6 8.4 6.6m0 0H5.25C3.711 6.6 3 7.05 3 8.85c.075 1.614.827 3.266 1.915 4.462M8.4 6.6c0-1.395.216-3.6-1.8-3.6-1.8 0-2.25 2.029-2.25 3.676M14 13.21l2.311 1.04c.657.27 1.089.63 1.089 1.35m0 0v3.15c0 1.539-.45 2.25-2.25 2.25-1.614-.076-3.264-.824-4.459-1.912M17.4 15.6c1.395 0 3.6-.216 3.6 1.8 0 1.8-2.029 2.25-3.676 2.25M5.34 13l5.211-2.89c1.701-.945 4.311 1.602 3.339 3.34l-2.898 5.228C9.12 22.044 1.911 14.908 5.34 13"/></svg>