<svg xmlns="http://www.w3.org/2000/svg" width="24" height="24" fill="none" viewBox="0 0 24 24" stroke-width="1.5" stroke-linecap="round" stroke-linejoin="round" stroke="currentColor"><path d="M3 12c0-4.243 0-6.364 1.318-7.682C5.636 3 7.758 3 12 3c4.243 0 6.364 0 7.682 1.318C21 5.636 21 7.758 21 12c0 4.243 0 6.364-1.318 7.682C18.364 21 16.242 21 12 21c-4.243 0-6.364 0-7.682-1.318C3 18.364 3 16.242 3 12"/><path d="M15.333 7.722H12m0 0h-1.667C9.045 7.722 8 8.68 8 9.862 8 11.041 9.045 12 10.333 12H12m0-4.278V6.5m0 1.222V12m0 0h1.667c1.288 0 2.333.958 2.333 2.139 0 1.181-1.045 2.139-2.333 2.139H12M12 12v4.278m0 0H8m4 0V17.5"/></svg>