<svg width="24" height="24" fill="none" viewBox="0 0 24 24" stroke-width="1.5" stroke="currentColor" stroke-linecap="round" stroke-linejoin="round" xmlns="http://www.w3.org/2000/svg"><path d="M7.805 3.469C8.16 3.115 8.451 3 8.937 3h6.126c.486 0 .778.115 1.132.469l4.336 4.336c.354.354.469.646.469 1.132v6.126c0 .5-.125.788-.469 1.132l-4.336 4.336c-.354.354-.646.469-1.132.469H8.937c-.5 0-.788-.125-1.132-.469L3.47 16.195c-.355-.355-.47-.646-.47-1.132V8.937c0-.5.125-.788.469-1.132z"/><path d="M15.333 7.722H12m0 0h-1.667C9.045 7.722 8 8.68 8 9.862 8 11.041 9.045 12 10.333 12H12m0-4.278V6.5m0 1.222V12m0 0h1.667c1.288 0 2.333.958 2.333 2.139 0 1.181-1.045 2.139-2.333 2.139H12M12 12v4.278m0 0H8m4 0V17.5"/></svg>