<svg width="24" height="24" fill="none" viewBox="0 0 24 24" stroke-width="1.5" stroke="currentColor" stroke-linecap="round" stroke-linejoin="round" xmlns="http://www.w3.org/2000/svg"><path d="M2.707 10.295a2.41 2.41 0 0 0 0 3.41l7.588 7.588a2.409 2.409 0 0 0 3.41 0l7.588-7.588a2.409 2.409 0 0 0 0-3.41l-7.588-7.588a2.41 2.41 0 0 0-3.41 0z"/><path d="M15.333 7.722H12m0 0h-1.667C9.045 7.722 8 8.68 8 9.862 8 11.041 9.045 12 10.333 12H12m0-4.278V6.5m0 1.222V12m0 0h1.667c1.288 0 2.333.958 2.333 2.139 0 1.181-1.045 2.139-2.333 2.139H12M12 12v4.278m0 0H8m4 0V17.5"/></svg>