<svg width="24" height="24" fill="none" viewBox="0 0 24 24" stroke-width="1.5" stroke="currentColor" stroke-linecap="round" stroke-linejoin="round" xmlns="http://www.w3.org/2000/svg"><path d="M20.5 15.8V8.2a1.91 1.91 0 0 0-.944-1.645l-6.612-3.8a1.88 1.88 0 0 0-1.888 0l-6.612 3.8A1.895 1.895 0 0 0 3.5 8.2v7.602a1.91 1.91 0 0 0 .944 1.644l6.612 3.8a1.88 1.88 0 0 0 1.888 0l6.612-3.8A1.895 1.895 0 0 0 20.5 15.8"/><path d="M15.333 7.722H12m0 0h-1.667C9.045 7.722 8 8.68 8 9.862 8 11.041 9.045 12 10.333 12H12m0-4.278V6.5m0 1.222V12m0 0h1.667c1.288 0 2.333.958 2.333 2.139 0 1.181-1.045 2.139-2.333 2.139H12M12 12v4.278m0 0H8m4 0V17.5"/></svg>