<svg width="24" height="24" fill="none" viewBox="0 0 24 24" stroke-width="1.5" stroke="currentColor" stroke-linecap="round" stroke-linejoin="round" xmlns="http://www.w3.org/2000/svg"><path d="M9.533 11.15A1.823 1.823 0 0 0 9 12.438V15h2.578c.483 0 .947-.192 1.289-.534l7.6-7.604a1.822 1.822 0 0 0 0-2.577l-.751-.751a1.822 1.822 0 0 0-2.578 0z"/><path d="M21 12c0 4.243 0 6.364-1.318 7.682C18.364 21 16.242 21 12 21c-4.243 0-6.364 0-7.682-1.318C3 18.364 3 16.242 3 12c0-4.243 0-6.364 1.318-7.682C5.636 3 7.758 3 12 3"/></svg>