<svg xmlns="http://www.w3.org/2000/svg" width="24" height="24" fill="none" viewBox="0 0 24 24" stroke-width="1.5" stroke-linecap="round" stroke-linejoin="round" stroke="currentColor"><path d="M3 12c0-4.243 0-6.364 1.318-7.682C5.636 3 7.758 3 12 3c4.243 0 6.364 0 7.682 1.318C21 5.636 21 7.758 21 12c0 4.243 0 6.364-1.318 7.682C18.364 21 16.242 21 12 21c-4.243 0-6.364 0-7.682-1.318C3 18.364 3 16.242 3 12"/><path d="M12 12H8.5m0 0H7m1.5 0c0 2 1.565 4 3.75 4 1.209 0 2.126-.267 2.75-.867M8.5 12c0-2 1.25-4 3.75-4 1.209 0 2.126.267 2.75.866"/></svg>