<svg width="24" height="24" fill="none" viewBox="0 0 24 24" stroke-width="1.5" stroke="currentColor" stroke-linecap="round" stroke-linejoin="round" xmlns="http://www.w3.org/2000/svg"><path d="M20.5 15.8V8.2a1.91 1.91 0 0 0-.944-1.645l-6.612-3.8a1.88 1.88 0 0 0-1.888 0l-6.612 3.8A1.895 1.895 0 0 0 3.5 8.2v7.602a1.91 1.91 0 0 0 .944 1.644l6.612 3.8a1.88 1.88 0 0 0 1.888 0l6.612-3.8A1.895 1.895 0 0 0 20.5 15.8"/><path d="M12 12H8.5m0 0H7m1.5 0c0 2 1.565 4 3.75 4 1.209 0 2.126-.267 2.75-.867M8.5 12c0-2 1.25-4 3.75-4 1.209 0 2.126.267 2.75.866"/></svg>