<svg xmlns="http://www.w3.org/2000/svg" width="24" height="24" fill="none" viewBox="0 0 24 24" stroke-width="1.5" stroke-linecap="round" stroke-linejoin="round" stroke="currentColor"><path d="M17.357 6.643 21 3m-3.643 3.643c1.878 1.2 3.262 2.81 4.093 3.951.272.373.408.56.502.92a2.46 2.46 0 0 1 0 .971c-.094.361-.23.548-.502.92C19.961 15.45 16.697 19 12 19c-2.075 0-3.87-.693-5.357-1.643M17.357 6.643l-3.943 3.943M3 21l3.643-3.643m0 0 3.943-3.943M3.86 15a17.603 17.603 0 0 1-1.311-1.594c-.272-.373-.408-.56-.502-.92a2.46 2.46 0 0 1 0-.971c.094-.361.23-.548.502-.92C4.039 8.55 7.303 5 12 5c.59 0 1.158.056 1.703.158m-.289 5.428a2 2 0 0 1-2.828 2.828m2.828-2.828-2.828 2.828"/></svg>