<svg xmlns="http://www.w3.org/2000/svg" width="24" height="24" fill="none" viewBox="0 0 24 24" stroke-width="1.5" stroke-linecap="round" stroke-linejoin="round" stroke="currentColor"><path d="M10.242 11.21c.672.547 1.008.821 1.008 1.29 0 .469-.336.743-1.008 1.29-.185.152-.37.295-.538.413a9.098 9.098 0 0 1-.49.318c-.67.407-1.006.611-1.306.385-.3-.225-.328-.697-.383-1.642A13.532 13.532 0 0 1 7.5 12.5c0-.235.01-.497.025-.764.055-.945.082-1.417.383-1.643.3-.225.635-.021 1.306.386.174.106.342.214.49.318.169.118.353.261.538.412Zm5.75 0c.672.547 1.008.821 1.008 1.29 0 .469-.336.743-1.008 1.29-.185.152-.37.295-.538.413a9.093 9.093 0 0 1-.49.318c-.67.407-1.006.611-1.306.385-.3-.225-.328-.697-.383-1.642a13.577 13.577 0 0 1-.025-.764c0-.235.01-.497.025-.764.055-.945.082-1.417.383-1.643.3-.225.636-.021 1.306.386.174.106.341.214.49.318.169.118.353.261.538.412Z"/><path d="M3 12.5c0-4.243 0-6.364 1.318-7.682C5.636 3.5 7.758 3.5 12 3.5c4.243 0 6.364 0 7.682 1.318C21 6.136 21 8.258 21 12.5c0 4.243 0 6.364-1.318 7.682C18.364 21.5 16.242 21.5 12 21.5c-4.243 0-6.364 0-7.682-1.318C3 18.864 3 16.742 3 12.5Z"/></svg>