<svg width="24" height="24" fill="none" viewBox="0 0 24 24" stroke-width="1.5" stroke="currentColor" stroke-linecap="round" stroke-linejoin="round" xmlns="http://www.w3.org/2000/svg"><path d="M9.4 21h5.2m-5.2 0c-2.24 0-3.36 0-4.216-.436a4 4 0 0 1-1.748-1.748C3 17.96 3 16.84 3 14.6M9.4 21V3M3 14.6V9.4m0 5.2h18m0 0V9.4m0 5.2c0 2.24 0 3.36-.436 4.216a4 4 0 0 1-1.748 1.748C17.96 21 16.84 21 14.6 21m0 0V3m0 0H9.4m5.2 0c2.24 0 3.36 0 4.216.436a4 4 0 0 1 1.748 1.748C21 6.04 21 7.16 21 9.4m0 0H3M9.4 3c-2.24 0-3.36 0-4.216.436a4 4 0 0 0-1.748 1.748C3 6.04 3 7.16 3 9.4"/></svg>