<svg xmlns="http://www.w3.org/2000/svg" width="24" height="24" fill="none" viewBox="0 0 24 24" stroke-width="1.5" stroke-linecap="round" stroke-linejoin="round" stroke="currentColor"><path d="M3 7.25c0-1.768 0-2.652.55-3.2.548-.55 1.432-.55 3.2-.55 1.768 0 2.652 0 3.2.55.55.548.55 1.432.55 3.2 0 1.768 0 2.652-.55 3.2-.548.55-1.432.55-3.2.55-1.768 0-2.652 0-3.2-.55C3 9.903 3 9.019 3 7.25Zm0 10.507c0-1.768 0-2.652.55-3.2.548-.55 1.432-.55 3.2-.55 1.768 0 2.652 0 3.2.55.55.548.55 1.432.55 3.2 0 1.768 0 2.652-.55 3.2-.548.55-1.432.55-3.2.55-1.768 0-2.652 0-3.2-.55C3 20.41 3 19.526 3 17.758ZM13.5 7.25c0-1.768 0-2.652.55-3.2.548-.55 1.432-.55 3.2-.55 1.768 0 2.652 0 3.2.55.55.548.55 1.432.55 3.2 0 1.768 0 2.652-.55 3.2-.548.55-1.432.55-3.2.55-1.768 0-2.652 0-3.2-.55-.55-.548-.55-1.432-.55-3.2Zm0 10.507c0-1.768 0-2.652.55-3.2.548-.55 1.432-.55 3.2-.55 1.768 0 2.652 0 3.2.55.55.548.55 1.432.55 3.2 0 1.768 0 2.652-.55 3.2-.548.55-1.432.55-3.2.55-1.768 0-2.652 0-3.2-.55-.55-.548-.55-1.432-.55-3.2Z"/></svg>