<svg xmlns="http://www.w3.org/2000/svg" width="24" height="24" fill="none" viewBox="0 0 24 24" stroke-width="1.5" stroke-linecap="round" stroke-linejoin="round" stroke="currentColor"><path d="M3 7c0-1.886 0-2.828.586-3.414C4.172 3 5.114 3 7 3c1.886 0 2.828 0 3.414.586C11 4.172 11 5.114 11 7c0 1.886 0 2.828-.586 3.414C9.828 11 8.886 11 7 11c-1.886 0-2.828 0-3.414-.586C3 9.828 3 8.886 3 7Zm0 10c0-1.886 0-2.828.586-3.414C4.172 13 5.114 13 7 13c1.886 0 2.828 0 3.414.586C11 14.172 11 15.114 11 17c0 1.886 0 2.828-.586 3.414C9.828 21 8.886 21 7 21c-1.886 0-2.828 0-3.414-.586C3 19.828 3 18.886 3 17ZM13 7c0-1.886 0-2.828.586-3.414C14.172 3 15.114 3 17 3c1.886 0 2.828 0 3.414.586C21 4.172 21 5.114 21 7c0 1.886 0 2.828-.586 3.414C19.828 11 18.886 11 17 11c-1.886 0-2.828 0-3.414-.586C13 9.828 13 8.886 13 7Zm0 10c0-1.886 0-2.828.586-3.414C14.172 13 15.114 13 17 13c1.886 0 2.828 0 3.414.586C21 14.172 21 15.114 21 17c0 1.886 0 2.828-.586 3.414C19.828 21 18.886 21 17 21c-1.886 0-2.828 0-3.414-.586C13 19.828 13 18.886 13 17Z"/></svg>