<svg xmlns="http://www.w3.org/2000/svg" width="24" height="24" fill="none" viewBox="0 0 24 24" stroke-width="1.5" stroke-linecap="round" stroke-linejoin="round" stroke="currentColor"><path d="M10.291 9.5a1.78 1.78 0 0 0-1.781 1.781c0 1.969 3.375 4.219 3.375 4.219s3.375-2.25 3.375-4.219c0-1.219-.797-1.781-1.781-1.781-.698 0-1.302.4-1.594.985a1.781 1.781 0 0 0-1.594-.985Z"/><path d="M2 12c0-4.714 0-7.071 1.464-8.536C4.93 2 7.286 2 12 2c4.714 0 7.071 0 8.535 1.464C22 4.93 22 7.286 22 12c0 4.714 0 7.071-1.465 8.535C19.072 22 16.714 22 12 22s-7.071 0-8.536-1.465C2 19.072 2 16.714 2 12Z"/></svg>