<svg width="24" height="24" fill="none" viewBox="0 0 24 24" stroke-width="1.5" stroke="currentColor" stroke-linecap="round" stroke-linejoin="round" xmlns="http://www.w3.org/2000/svg"><path d="M2.707 10.295a2.41 2.41 0 0 0 0 3.41l7.588 7.588a2.409 2.409 0 0 0 3.41 0l7.588-7.588a2.409 2.409 0 0 0 0-3.41l-7.588-7.588a2.41 2.41 0 0 0-3.41 0z"/><path d="M10.291 9.5a1.78 1.78 0 0 0-1.781 1.781c0 1.969 3.375 4.219 3.375 4.219s3.375-2.25 3.375-4.219c0-1.219-.797-1.781-1.781-1.781-.698 0-1.302.4-1.594.985a1.781 1.781 0 0 0-1.594-.985"/></svg>