<svg xmlns="http://www.w3.org/2000/svg" width="24" height="24" fill="none" viewBox="0 0 24 24" stroke-width="1.5" stroke-linecap="round" stroke-linejoin="round" stroke="currentColor"><path d="M10.291 10a1.78 1.78 0 0 0-1.781 1.781C8.51 13.75 11.885 16 11.885 16s3.375-2.25 3.375-4.219c0-1.219-.797-1.781-1.781-1.781-.698 0-1.302.4-1.594.985A1.781 1.781 0 0 0 10.291 10Z"/><path d="M3 12.5c0-4.243 0-6.364 1.318-7.682C5.636 3.5 7.758 3.5 12 3.5c4.243 0 6.364 0 7.682 1.318C21 6.136 21 8.258 21 12.5c0 4.243 0 6.364-1.318 7.682C18.364 21.5 16.242 21.5 12 21.5c-4.243 0-6.364 0-7.682-1.318C3 18.864 3 16.742 3 12.5Z"/></svg>