<svg width="24" height="24" fill="none" viewBox="0 0 24 24" stroke-width="1.5" stroke="currentColor" stroke-linecap="round" stroke-linejoin="round" xmlns="http://www.w3.org/2000/svg"><path d="M3 2.25a.75.75 0 0 0 0 1.5zm18 1.5a.75.75 0 0 0 0-1.5zM5 3v-.75a.75.75 0 0 0-.75.75zm14 0h.75a.75.75 0 0 0-.75-.75zm-3.56 11.258.578-.477zm-6.88 0 .58.477zM10 15v-.75h-.75V15zm0 6h-.75v.75H10zm4 0v.75h.75V21zm0-6h.75v-.75H14zM9 6a.75.75 0 0 0-1.5 0zm-1.5.5a.75.75 0 0 0 1.5 0zm4-.5A.75.75 0 0 0 10 6zm-1.5.5a.75.75 0 0 0 1.5 0zm4-.5a.75.75 0 0 0-1.5 0zm-1.5.5a.75.75 0 0 0 1.5 0zm4-.5A.75.75 0 0 0 15 6zm-1.5.5a.75.75 0 0 0 1.5 0zM9 9.25a.75.75 0 0 0-1.5 0zm-1.5.5a.75.75 0 0 0 1.5 0zm4-.5a.75.75 0 0 0-1.5 0zm-1.5.5a.75.75 0 0 0 1.5 0zm4-.5a.75.75 0 0 0-1.5 0zm-1.5.5a.75.75 0 0 0 1.5 0zm4-.5a.75.75 0 0 0-1.5 0zm-1.5.5a.75.75 0 0 0 1.5 0zM3 3v.75h18v-1.5H3zm14.5 18v-.75h-11v1.5h11zM5 19.5h.75V3h-1.5v16.5zM5 3v.75h14v-1.5H5zm14 0h-.75v16.5h1.5V3zM6.5 21v-.75a.75.75 0 0 1-.75-.75h-1.5a2.25 2.25 0 0 0 2.25 2.25zm11 0v.75a2.25 2.25 0 0 0 2.25-2.25h-1.5a.75.75 0 0 1-.75.75zm-2.06-6.742.578-.477c-.385-.467-.947-1.08-1.61-1.583-.65-.492-1.488-.948-2.408-.948v1.5c.438 0 .954.229 1.502.644.533.404 1.011.92 1.359 1.34zM12 12v-.75c-.92 0-1.758.456-2.408.948-.663.503-1.226 1.116-1.61 1.583l.579.477.578.477c.348-.421.826-.937 1.36-1.341.547-.415 1.063-.644 1.501-.644zm-3.069 3v.75h6.138v-1.5H8.93zm-.37-.742-.58-.477c-.698.848-.015 1.969.95 1.969v-1.5a.28.28 0 0 1 .24.155.31.31 0 0 1-.032.33zm6.878 0-.578.477a.31.31 0 0 1-.031-.33c.05-.1.15-.155.239-.155v1.5c.965 0 1.648-1.12.95-1.969zM10 15h-.75v6h1.5v-6zm0 6v.75h4v-1.5h-4zm4 0h.75v-6h-1.5v6zm0-6v-.75h-4v1.5h4zM8.25 6H7.5v.5H9V6zm2.5 0H10v.5h1.5V6zm2.5 0h-.75v.5H14V6zm2.5 0H15v.5h1.5V6zm-7.5 3.25H7.5v.5H9v-.5zm2.5 0H10v.5h1.5v-.5zm2.5 0h-.75v.5H14v-.5zm2.5 0H15v.5h1.5v-.5z"/></svg>