<svg width="24" height="24" fill="none" viewBox="0 0 24 24" stroke-width="1.5" stroke="currentColor" stroke-linecap="round" stroke-linejoin="round" xmlns="http://www.w3.org/2000/svg"><path d="M14.5 9.25V9a1 1 0 0 0-1-1h-3a1 1 0 0 0-1 1v.984a1.5 1.5 0 0 0 .943 1.393l3.114 1.246c.57.228.943.78.943 1.393V15a1 1 0 0 1-1 1h-3a1 1 0 0 1-1-1v-.25"/><path d="M20.5 15.8V8.2a1.91 1.91 0 0 0-.944-1.645l-6.612-3.8a1.88 1.88 0 0 0-1.888 0l-6.612 3.8A1.895 1.895 0 0 0 3.5 8.2v7.602a1.91 1.91 0 0 0 .944 1.644l6.612 3.8a1.88 1.88 0 0 0 1.888 0l6.612-3.8A1.895 1.895 0 0 0 20.5 15.8"/></svg>