<svg xmlns="http://www.w3.org/2000/svg" width="24" height="24" fill="none" viewBox="0 0 24 24" stroke-width="1.5" stroke-linecap="round" stroke-linejoin="round" stroke="currentColor"><path d="M9.5 12V8h3.671c2.192 0 2.5 3.258.456 4M9.5 12v4h3.671c2.192 0 2.5-3.258.456-4M9.5 12h4.127"/><path d="M3 12c0-4.243 0-6.364 1.318-7.682C5.636 3 7.758 3 12 3c4.243 0 6.364 0 7.682 1.318C21 5.636 21 7.758 21 12c0 4.243 0 6.364-1.318 7.682C18.364 21 16.242 21 12 21c-4.243 0-6.364 0-7.682-1.318C3 18.364 3 16.242 3 12"/></svg>