<svg width="24" height="24" fill="none" viewBox="0 0 24 24" stroke-width="1.5" stroke="currentColor" stroke-linecap="round" stroke-linejoin="round" xmlns="http://www.w3.org/2000/svg"><path d="M14.5 9.25V9a1 1 0 0 0-1-1h-3a1 1 0 0 0-1 1v.984a1.5 1.5 0 0 0 .943 1.393l3.114 1.246c.57.228.943.78.943 1.393V15a1 1 0 0 1-1 1h-3a1 1 0 0 1-1-1v-.25"/><path d="M2.707 10.295a2.41 2.41 0 0 0 0 3.41l7.588 7.588a2.409 2.409 0 0 0 3.41 0l7.588-7.588a2.409 2.409 0 0 0 0-3.41l-7.588-7.588a2.41 2.41 0 0 0-3.41 0z"/></svg>