<svg width="24" height="24" fill="none" viewBox="0 0 24 24" stroke-width="1.5" stroke="currentColor" stroke-linecap="round" stroke-linejoin="round" xmlns="http://www.w3.org/2000/svg"><path d="M20.5 15.8V8.2a1.91 1.91 0 0 0-.944-1.645l-6.612-3.8a1.88 1.88 0 0 0-1.888 0l-6.612 3.8A1.895 1.895 0 0 0 3.5 8.2v7.602a1.91 1.91 0 0 0 .944 1.644l6.612 3.8a1.88 1.88 0 0 0 1.888 0l6.612-3.8A1.895 1.895 0 0 0 20.5 15.8"/><path d="M14.004 10.947V8.925c0-2.641-4.008-2.491-4.008 0v2.021m-.994 0h5.996c.553 0 1.002.453 1.002 1.011v3.032c0 .558-.449 1.011-1.002 1.011H9.002A1.006 1.006 0 0 1 8 14.99v-3.033c0-.558.449-1.01 1.002-1.01"/></svg>