<svg xmlns="http://www.w3.org/2000/svg" width="24" height="24" fill="none" viewBox="0 0 24 24" stroke-width="1.5" stroke-linecap="round" stroke-linejoin="round" stroke="currentColor"><path d="M3 12c0-4.243 0-6.364 1.318-7.682C5.636 3 7.758 3 12 3c4.243 0 6.364 0 7.682 1.318C21 5.636 21 7.758 21 12c0 4.243 0 6.364-1.318 7.682C18.364 21 16.242 21 12 21c-4.243 0-6.364 0-7.682-1.318C3 18.364 3 16.242 3 12"/><path d="M14.004 10.947V8.925c0-2.641-4.008-2.491-4.008 0v2.021m-.994 0h5.996c.553 0 1.002.453 1.002 1.011v3.032c0 .558-.449 1.011-1.002 1.011H9.002A1.006 1.006 0 0 1 8 14.99v-3.033c0-.558.449-1.01 1.002-1.01"/></svg>