<svg width="24" height="24" fill="none" viewBox="0 0 24 24" stroke-width="1.5" stroke="currentColor" stroke-linecap="round" stroke-linejoin="round" xmlns="http://www.w3.org/2000/svg"><path d="M2.707 10.295a2.41 2.41 0 0 0 0 3.41l7.588 7.588a2.409 2.409 0 0 0 3.41 0l7.588-7.588a2.409 2.409 0 0 0 0-3.41l-7.588-7.588a2.41 2.41 0 0 0-3.41 0z"/><path d="M14.004 10.947V8.925c0-2.641-4.008-2.491-4.008 0v2.021m-.994 0h5.996c.553 0 1.002.453 1.002 1.011v3.032c0 .558-.449 1.011-1.002 1.011H9.002A1.006 1.006 0 0 1 8 14.99v-3.033c0-.558.449-1.01 1.002-1.01"/></svg>