<svg width="24" height="24" fill="none" viewBox="0 0 24 24" stroke-width="1.5" stroke="currentColor" stroke-linecap="round" stroke-linejoin="round" xmlns="http://www.w3.org/2000/svg"><path d="M7.805 3.469C8.16 3.115 8.451 3 8.937 3h6.126c.486 0 .778.115 1.132.469l4.336 4.336c.354.354.469.646.469 1.132v6.126c0 .5-.125.788-.469 1.132l-4.336 4.336c-.354.354-.646.469-1.132.469H8.937c-.5 0-.788-.125-1.132-.469L3.47 16.195c-.355-.355-.47-.646-.47-1.132V8.937c0-.5.125-.788.469-1.132z"/><path d="M14.004 10.947V8.925c0-2.641-4.008-2.491-4.008 0v2.021m-.994 0h5.996c.553 0 1.002.453 1.002 1.011v3.032c0 .558-.449 1.011-1.002 1.011H9.002A1.006 1.006 0 0 1 8 14.99v-3.033c0-.558.449-1.01 1.002-1.01"/></svg>