<svg width="24" height="24" fill="none" viewBox="0 0 24 24" stroke-width="1.5" stroke="currentColor" stroke-linecap="round" stroke-linejoin="round" xmlns="http://www.w3.org/2000/svg"><path d="M8 10V8c0-2.761 1.239-5 4-5s4 2.239 4 5v2M3.5 17.8v-4.6c0-1.12 0-1.68.218-2.107a2 2 0 0 1 .874-.875c.428-.217.988-.217 2.108-.217h10.6c1.12 0 1.68 0 2.108.217a2 2 0 0 1 .874.874c.218.428.218.988.218 2.108v4.6c0 1.12 0 1.68-.218 2.108a2 2 0 0 1-.874.874C18.98 21 18.42 21 17.3 21H6.7c-1.12 0-1.68 0-2.108-.218a2 2 0 0 1-.874-.874C3.5 19.481 3.5 18.921 3.5 17.8M16 14v3"/></svg>