<svg width="24" height="24" fill="none" viewBox="0 0 24 24" stroke-width="1.5" stroke="currentColor" stroke-linecap="round" stroke-linejoin="round" xmlns="http://www.w3.org/2000/svg"><path d="m19.343 15.323.745.087.001-.011zm.615-6-.744-.09-.002.013zm-15.916 0 .746-.077-.002-.014zm.615 6-.746.076.001.01zm9.593-9.324a.75.75 0 0 0 1.5 0zm.75-2h.75zm-.293-.705.53-.53zM14.001 3l.002-.75H14zm-4.385.076.287.693zm-.324.217-.531-.53zm-.217.325.694.286zM9 4h.75v-.003zm-.75 2a.75.75 0 0 0 1.5 0zm.468 12v.75h6.564v-1.5H8.718zm6.564 0v.75c1.714 0 2.901-.309 3.683-.962.805-.672 1.03-1.582 1.123-2.378l-.745-.088-.745-.087c-.079.674-.236 1.103-.594 1.402-.38.318-1.138.613-2.722.613zm4.061-2.677.746.076.615-6-.746-.076-.746-.077-.615 6zm.615-6 .745.09c.12-.986.056-2.099-.724-2.946-.768-.835-2.054-1.217-3.877-1.217v1.5c1.68 0 2.434.364 2.773.733.328.356.44.905.339 1.75zM16.102 6v-.75H7.898v1.5h8.204zM7.898 6v-.75c-1.823 0-3.109.382-3.877 1.217-.78.847-.843 1.96-.724 2.946l.745-.09.744-.09c-.102-.845.01-1.394.339-1.75.34-.369 1.092-.733 2.773-.733zM4.042 9.323l-.746.076.615 6 .746-.076.746-.077-.615-6zm.615 6-.745.087c.093.796.318 1.706 1.123 2.378.782.653 1.97.962 3.683.962v-1.5c-1.584 0-2.341-.295-2.722-.613-.358-.3-.515-.728-.594-1.402zM15 5.999h.75v-2h-1.5v2zm0-2h.75a1.75 1.75 0 0 0-.512-1.235l-.53.53-.531.53A.25.25 0 0 1 14.25 4zm-.293-.705.53-.53a1.75 1.75 0 0 0-1.234-.514L14 3l-.002.75c.067 0 .13.027.178.074zM14.001 3v-.75H9.999v1.5h4.002zM9.999 3v-.75c-.23 0-.457.045-.67.133l.287.693.287.693A.3.3 0 0 1 10 3.75zm-.383.076-.287-.693a1.8 1.8 0 0 0-.568.38l.53.53.531.53a.3.3 0 0 1 .081-.054zm-.324.217-.531-.53a1.8 1.8 0 0 0-.38.57l.694.285.694.286a.3.3 0 0 1 .053-.08zm-.217.325-.693-.286c-.088.213-.133.44-.132.67H9l.75-.003q0-.049.019-.094zM9 4h-.75v2h1.5V4zm8 15.5h-.75a.75.75 0 0 1-.75.75v1.5a2.25 2.25 0 0 0 2.25-2.25zM15.5 21v-.75a.75.75 0 0 1-.75-.75h-1.5a2.25 2.25 0 0 0 2.25 2.25zM14 19.5h.75a.75.75 0 0 1 .75-.75v-1.5a2.25 2.25 0 0 0-2.25 2.25zm1.5-1.5v.75a.75.75 0 0 1 .75.75h1.5a2.25 2.25 0 0 0-2.25-2.25zM10 19.5h-.75a.75.75 0 0 1-.75.75v1.5a2.25 2.25 0 0 0 2.25-2.25zM8.5 21v-.75a.75.75 0 0 1-.75-.75h-1.5a2.25 2.25 0 0 0 2.25 2.25zM7 19.5h.75a.75.75 0 0 1 .75-.75v-1.5a2.25 2.25 0 0 0-2.25 2.25zM8.5 18v.75a.75.75 0 0 1 .75.75h1.5a2.25 2.25 0 0 0-2.25-2.25z"/></svg>