<svg xmlns="http://www.w3.org/2000/svg" width="24" height="24" fill="none" viewBox="0 0 24 24" stroke-width="1.5" stroke-linecap="round" stroke-linejoin="round" stroke="currentColor"><path d="M3 12c0-4.243 0-6.364 1.318-7.682S7.758 3 12 3s6.364 0 7.682 1.318S21 7.758 21 12s0 6.364-1.318 7.682S16.242 21 12 21s-6.364 0-7.682-1.318S3 16.242 3 12m4 3.625h3.5m3.25-5.5h3.5m-3.5-2.5h3.5m-10.5 1.25h2m0 0h2m-2 0v-2m0 2v2m5.35 6.25 1.414-1.414m0 0 1.415-1.414m-1.415 1.414L14.1 14.296m1.414 1.415 1.415 1.414"/></svg>