<svg width="24" height="24" fill="none" viewBox="0 0 24 24" stroke-width="1.5" stroke="currentColor" stroke-linecap="round" stroke-linejoin="round" xmlns="http://www.w3.org/2000/svg"><path d="m12 21 8.131-4.208c.316-.164.474-.245.589-.366a1 1 0 0 0 .226-.373c.054-.159.054-.336.054-.692V7.533M12 21l-8.131-4.208c-.316-.164-.474-.245-.589-.366a1.009 1.009 0 0 1-.226-.373C3 15.894 3 15.716 3 15.359V7.533M12 21v-9.063m9-4.404-9 4.404m9-4.404-4.5-2.33M3 7.534l8.269-4.28c.268-.138.401-.208.542-.235a.994.994 0 0 1 .378 0c.14.027.274.097.541.235l3.77 1.95M3 7.534l4.5 2.202m4.5 2.202L7.5 9.735m0 0 9-4.531m-9 4.531v2.202"/></svg>