<svg width="24" height="24" fill="none" viewBox="0 0 24 24" stroke-width="1.5" stroke="currentColor" stroke-linecap="round" stroke-linejoin="round" xmlns="http://www.w3.org/2000/svg"><path d="m7.63 7.63 3.006 3.006M3.042 4.34l2.616 9.157c.778 2.723 2.933 4.6 5.764 4.6a5.61 5.61 0 0 0 1.264-.148c.392-.09.812-.001 1.097.283l2.46 2.46c.41.41 1.075.41 1.485 0l2.964-2.965a1.05 1.05 0 0 0 0-1.486l-2.455-2.455c-.284-.284-.373-.703-.284-1.094.094-.415.145-.84.145-1.27 0-2.832-1.877-4.987-4.6-5.765L4.341 3.042a1.05 1.05 0 0 0-1.3 1.299"/></svg>