<svg width="24" height="24" fill="none" viewBox="0 0 24 24" stroke-width="1.5" stroke="currentColor" stroke-linecap="round" stroke-linejoin="round" xmlns="http://www.w3.org/2000/svg"><path d="M2.707 10.295a2.41 2.41 0 0 0 0 3.41l7.588 7.588a2.409 2.409 0 0 0 3.41 0l7.588-7.588a2.409 2.409 0 0 0 0-3.41l-7.588-7.588a2.41 2.41 0 0 0-3.41 0z"/><path d="M13.242 10.71c.672.547 1.008.821 1.008 1.29 0 .469-.336.743-1.008 1.29-.185.152-.37.295-.538.413a9.093 9.093 0 0 1-.49.318c-.67.407-1.006.611-1.306.385-.3-.225-.328-.697-.383-1.642A13.577 13.577 0 0 1 10.5 12c0-.235.01-.497.025-.764.055-.945.082-1.417.383-1.642.3-.226.636-.022 1.306.385.174.106.341.214.49.318.169.118.353.261.538.412"/></svg>