<svg width="24" height="24" fill="none" viewBox="0 0 24 24" stroke-width="1.5" stroke="currentColor" stroke-linecap="round" stroke-linejoin="round" xmlns="http://www.w3.org/2000/svg"><path d="M14.581 9.402C16.194 10.718 17 11.375 17 12.5c0 1.125-.806 1.783-2.419 3.098a23.1 23.1 0 0 1-1.292.99c-.356.25-.759.508-1.176.762-1.609.978-2.413 1.467-3.134.926-.722-.542-.787-1.675-.918-3.943A32.48 32.48 0 0 1 8 12.5c0-.563.023-1.192.06-1.833.132-2.267.197-3.401.919-3.943.721-.541 1.525-.052 3.134.926.417.254.82.512 1.176.762a23.1 23.1 0 0 1 1.292.99"/></svg>