<svg width="24" height="24" fill="none" viewBox="0 0 24 24" stroke-width="1.5" stroke="currentColor" stroke-linecap="round" stroke-linejoin="round" xmlns="http://www.w3.org/2000/svg"><path d="M12 13.5a1.5 1.5 0 1 0 0-3 1.5 1.5 0 0 0 0 3m-3.449 2.205a5.234 5.234 0 0 1-1.148-1.7 5.191 5.191 0 0 1 1.148-5.71M18.07 5.5a9.148 9.148 0 0 1 2.719 6.5 9.148 9.148 0 0 1-2.72 6.5M15.24 8.295a5.232 5.232 0 0 1 1.148 1.7 5.192 5.192 0 0 1-1.148 5.71M5.512 18.5A9.148 9.148 0 0 1 2.793 12c0-2.438.978-4.776 2.72-6.5"/></svg>