<svg width="24" height="24" fill="none" viewBox="0 0 24 24" stroke-width="1.5" stroke="currentColor" stroke-linecap="round" stroke-linejoin="round" xmlns="http://www.w3.org/2000/svg"><path d="M2.357 9.3c0-1.68 0-2.52.327-3.162a3 3 0 0 1 1.311-1.311C4.637 4.5 5.477 4.5 7.157 4.5h9.686c1.68 0 2.52 0 3.162.327a3 3 0 0 1 1.31 1.311c.328.642.328 1.482.328 3.162v5.4c0 1.68 0 2.52-.327 3.162a3 3 0 0 1-1.311 1.311c-.642.327-1.482.327-3.162.327H7.157c-1.68 0-2.52 0-3.162-.327a3 3 0 0 1-1.31-1.311c-.328-.642-.328-1.482-.328-3.162z"/></svg>