<svg xmlns="http://www.w3.org/2000/svg" width="24" height="24" fill="none" viewBox="0 0 24 24" stroke-width="1.5" stroke-linecap="round" stroke-linejoin="round" stroke="currentColor"><circle cx="12" cy="12.5" r="9"/><path d="M8.008 11.21C7.336 11.756 7 12.03 7 12.5c0 .469.336.743 1.008 1.29.185.152.37.295.538.413.148.104.316.212.49.318.67.407 1.006.611 1.306.385.3-.225.328-.697.383-1.642.015-.267.025-.53.025-.764 0-.235-.01-.497-.025-.764-.055-.945-.082-1.417-.383-1.643-.3-.225-.635-.021-1.306.386a9.098 9.098 0 0 0-.49.318 9.643 9.643 0 0 0-.538.412Zm5.75 0c-.672.547-1.008.821-1.008 1.29 0 .469.336.743 1.008 1.29.185.152.37.295.538.413.149.104.316.212.49.318.67.407 1.006.611 1.306.385.3-.225.328-.697.383-1.642.015-.267.025-.53.025-.764 0-.235-.01-.497-.025-.764-.055-.945-.082-1.417-.383-1.643-.3-.225-.635-.021-1.306.386a9.093 9.093 0 0 0-.49.318 9.67 9.67 0 0 0-.538.412Z"/></svg>