<svg width="24" height="24" fill="none" viewBox="0 0 24 24" stroke-width="1.5" stroke="currentColor" stroke-linecap="round" stroke-linejoin="round" xmlns="http://www.w3.org/2000/svg"><path d="M9.713 3.64c.581-.495.872-.743 1.176-.888a2.577 2.577 0 0 1 2.222 0c.304.145.595.393 1.176.888.599.51 1.207.768 2.007.831.761.061 1.142.092 1.46.204.734.26 1.312.837 1.571 1.572.112.317.143.698.204 1.46.063.8.32 1.407.83 2.006.496.581.744.872.889 1.176.336.703.336 1.52 0 2.222-.145.304-.393.595-.888 1.176a3.306 3.306 0 0 0-.831 2.007c-.061.761-.092 1.142-.204 1.46a2.577 2.577 0 0 1-1.572 1.571c-.317.112-.698.143-1.46.204-.8.063-1.407.32-2.006.83-.581.496-.872.744-1.176.889a2.577 2.577 0 0 1-2.222 0c-.304-.145-.595-.393-1.176-.888a3.306 3.306 0 0 0-2.007-.831c-.761-.061-1.142-.092-1.46-.204a2.577 2.577 0 0 1-1.571-1.572c-.112-.317-.143-.698-.204-1.46a3.305 3.305 0 0 0-.83-2.006c-.496-.581-.744-.872-.89-1.176a2.577 2.577 0 0 1 .001-2.222c.145-.304.393-.595.888-1.176.52-.611.769-1.223.831-2.007.061-.761.092-1.142.204-1.46a2.577 2.577 0 0 1 1.572-1.571c.317-.112.698-.143 1.46-.204a3.305 3.305 0 0 0 2.006-.83"/><path d="M8.008 10.71C7.336 11.256 7 11.53 7 12c0 .469.336.743 1.008 1.29.185.152.37.295.538.413.149.104.316.212.49.318.67.407 1.006.611 1.306.385.3-.225.328-.697.383-1.642.015-.267.025-.53.025-.764 0-.235-.01-.497-.025-.764-.055-.945-.082-1.417-.383-1.642-.3-.226-.635-.022-1.306.385a9.078 9.078 0 0 0-.49.318 9.647 9.647 0 0 0-.538.412m5.75.001c-.672.547-1.008.821-1.008 1.29 0 .469.336.743 1.008 1.29.185.152.37.295.538.413.149.104.316.212.49.318.67.407 1.006.611 1.306.385.3-.225.328-.697.383-1.642.015-.267.025-.53.025-.764 0-.235-.01-.497-.025-.764-.055-.945-.082-1.417-.383-1.642-.3-.226-.635-.022-1.306.385a9.07 9.07 0 0 0-.49.318 9.632 9.632 0 0 0-.538.412"/></svg>