<svg width="24" height="24" fill="none" viewBox="0 0 24 24" stroke-width="1.5" stroke="currentColor" stroke-linecap="round" stroke-linejoin="round" xmlns="http://www.w3.org/2000/svg"><path d="M7.805 3.469C8.16 3.115 8.451 3 8.937 3h6.126c.486 0 .778.115 1.132.469l4.336 4.336c.354.354.469.646.469 1.132v6.126c0 .5-.125.788-.469 1.132l-4.336 4.336c-.354.354-.646.469-1.132.469H8.937c-.5 0-.788-.125-1.132-.469L3.47 16.195c-.355-.355-.47-.646-.47-1.132V8.937c0-.5.125-.788.469-1.132z"/><path d="M8.008 10.71C7.336 11.256 7 11.53 7 12c0 .469.336.743 1.008 1.29.185.152.37.295.538.413.149.104.316.212.49.318.67.407 1.006.611 1.306.385.3-.225.328-.697.383-1.642.015-.267.025-.53.025-.764 0-.235-.01-.497-.025-.764-.055-.945-.082-1.417-.383-1.642-.3-.226-.635-.022-1.306.385a9.078 9.078 0 0 0-.49.318 9.647 9.647 0 0 0-.538.412m5.75.001c-.672.547-1.008.821-1.008 1.29 0 .469.336.743 1.008 1.29.185.152.37.295.538.413.149.104.316.212.49.318.67.407 1.006.611 1.306.385.3-.225.328-.697.383-1.642.015-.267.025-.53.025-.764 0-.235-.01-.497-.025-.764-.055-.945-.082-1.417-.383-1.642-.3-.226-.635-.022-1.306.385a9.07 9.07 0 0 0-.49.318 9.632 9.632 0 0 0-.538.412"/></svg>