<svg xmlns="http://www.w3.org/2000/svg" width="24" height="24" fill="none" viewBox="0 0 24 24" stroke-width="1.5" stroke-linecap="round" stroke-linejoin="round" stroke="currentColor"><path d="M6.515 9.919C5.172 11.015 4.5 11.563 4.5 12.5s.672 1.485 2.015 2.582c.371.302.74.587 1.077.824.297.209.633.424.98.635 1.341.816 2.011 1.223 2.613.772.6-.451.655-1.396.764-3.285.031-.535.051-1.058.051-1.528s-.02-.993-.05-1.528c-.11-1.89-.164-2.834-.765-3.285-.602-.451-1.272-.044-2.612.771a17.63 17.63 0 0 0-.98.636c-.339.237-.707.522-1.078.825Zm7.5 0C12.672 11.015 12 11.563 12 12.5s.672 1.485 2.015 2.582c.371.302.74.587 1.077.824.297.209.633.424.98.635 1.341.816 2.011 1.223 2.613.772.6-.451.655-1.396.765-3.285.03-.535.05-1.058.05-1.528s-.02-.993-.05-1.528c-.11-1.89-.164-2.834-.765-3.285-.602-.451-1.272-.044-2.612.771a17.63 17.63 0 0 0-.98.636 19.26 19.26 0 0 0-1.078.825Z"/></svg>