<svg width="24" height="24" fill="none" viewBox="0 0 24 24" stroke-width="1.5" stroke="currentColor" stroke-linecap="round" stroke-linejoin="round" xmlns="http://www.w3.org/2000/svg"><path d="M21 12a9 9 0 1 1-18 0 9 9 0 0 1 18 0"/><path d="M8.008 10.71C7.336 11.256 7 11.53 7 12s.336.743 1.008 1.29c.185.152.37.295.538.413.149.104.316.212.49.318.67.407 1.006.611 1.306.385s.328-.697.383-1.642c.015-.267.025-.53.025-.764 0-.235-.01-.497-.025-.764-.055-.945-.082-1.417-.383-1.642-.3-.226-.635-.022-1.306.385a9 9 0 0 0-.49.318 10 10 0 0 0-.538.412m5.75.001c-.672.547-1.008.821-1.008 1.29s.336.743 1.008 1.29c.185.152.37.295.538.413.149.104.316.212.49.318.67.407 1.006.611 1.306.385s.328-.697.383-1.642c.015-.267.025-.53.025-.764 0-.235-.01-.497-.025-.764-.055-.945-.082-1.417-.383-1.642-.3-.226-.635-.022-1.306.385a9 9 0 0 0-.49.318 10 10 0 0 0-.538.412"/></svg>