<svg width="24" height="24" fill="none" viewBox="0 0 24 24" stroke-width="1.5" stroke="currentColor" stroke-linecap="round" stroke-linejoin="round" xmlns="http://www.w3.org/2000/svg"><path d="M20.5 15.8V8.2a1.91 1.91 0 0 0-.944-1.645l-6.612-3.8a1.88 1.88 0 0 0-1.888 0l-6.612 3.8A1.895 1.895 0 0 0 3.5 8.2v7.602a1.91 1.91 0 0 0 .944 1.644l6.612 3.8a1.88 1.88 0 0 0 1.888 0l6.612-3.8A1.895 1.895 0 0 0 20.5 15.8"/><path d="M8.008 10.71C7.336 11.256 7 11.53 7 12c0 .469.336.743 1.008 1.29.185.152.37.295.538.413.149.104.316.212.49.318.67.407 1.006.611 1.306.385.3-.225.328-.697.383-1.642.015-.267.025-.53.025-.764 0-.235-.01-.497-.025-.764-.055-.945-.082-1.417-.383-1.642-.3-.226-.635-.022-1.306.385a9.078 9.078 0 0 0-.49.318 9.647 9.647 0 0 0-.538.412m5.75.001c-.672.547-1.008.821-1.008 1.29 0 .469.336.743 1.008 1.29.185.152.37.295.538.413.149.104.316.212.49.318.67.407 1.006.611 1.306.385.3-.225.328-.697.383-1.642.015-.267.025-.53.025-.764 0-.235-.01-.497-.025-.764-.055-.945-.082-1.417-.383-1.642-.3-.226-.635-.022-1.306.385a9.07 9.07 0 0 0-.49.318 9.632 9.632 0 0 0-.538.412"/></svg>