<svg width="24" height="24" fill="none" viewBox="0 0 24 24" stroke-width="1.5" stroke="currentColor" stroke-linecap="round" stroke-linejoin="round" xmlns="http://www.w3.org/2000/svg"><path d="M16.25 21v-4.765a1.59 1.59 0 0 0-1.594-1.588H9.344a1.59 1.59 0 0 0-1.594 1.588V21m8.5-17.715v2.362a1.59 1.59 0 0 1-1.594 1.588H9.344A1.59 1.59 0 0 1 7.75 5.647V3m8.5.285A3.196 3.196 0 0 0 14.93 3H7.75m8.5.285c.344.156.661.374.934.645l2.382 2.375A3.17 3.17 0 0 1 20.5 8.55v9.272A3.182 3.182 0 0 1 17.313 21H6.688A3.182 3.182 0 0 1 3.5 17.823V6.176A3.182 3.182 0 0 1 6.688 3H7.75"/></svg>