<svg width="24" height="24" fill="none" viewBox="0 0 24 24" stroke-width="1.5" stroke="currentColor" stroke-linecap="round" stroke-linejoin="round" xmlns="http://www.w3.org/2000/svg"><path d="m3 5.918 1.764-.887a4.973 4.973 0 0 1 4.472 0l.528.266a4.973 4.973 0 0 0 4.472 0l.528-.266a4.973 4.973 0 0 1 4.472 0L21 5.918M3 10.446l1.764-.888a4.973 4.973 0 0 1 4.472 0l.528.266a4.973 4.973 0 0 0 4.472 0l.528-.266a4.973 4.973 0 0 1 4.472 0l1.764.888M3 14.973l1.764-.888a4.973 4.973 0 0 1 4.472 0l.528.266a4.973 4.973 0 0 0 4.472 0l.528-.266a4.973 4.973 0 0 1 4.472 0l1.764.888M3 19.5l1.764-.887a4.973 4.973 0 0 1 4.472 0l.528.265a4.973 4.973 0 0 0 4.472 0l.528-.265a4.973 4.973 0 0 1 4.472 0L21 19.5"/></svg>