<svg width="24" height="24" fill="none" viewBox="0 0 24 24" stroke-width="1.5" stroke="currentColor" stroke-linecap="round" stroke-linejoin="round" xmlns="http://www.w3.org/2000/svg"><path d="M3 9v10.4c0 .56 0 .84.109 1.054a1 1 0 0 0 .437.437C3.76 21 4.04 21 4.598 21H15m-8-7.2V6.2c0-1.12 0-1.68.218-2.108.192-.377.497-.682.874-.874C8.52 3 9.08 3 10.2 3h7.6c1.12 0 1.68 0 2.108.218a2 2 0 0 1 .874.874C21 4.52 21 5.08 21 6.2v7.6c0 1.12 0 1.68-.218 2.108a2.001 2.001 0 0 1-.874.874c-.428.218-.986.218-2.104.218h-7.607c-1.118 0-1.678 0-2.105-.218a2 2 0 0 1-.874-.874C7 15.48 7 14.92 7 13.8"/><path d="m11.6 10.323 1.379 1.575a.299.299 0 0 0 .466-.022L16.245 8"/></svg>