<svg width="24" height="24" fill="none" viewBox="0 0 24 24" stroke-width="1.5" stroke="currentColor" stroke-linecap="round" stroke-linejoin="round" xmlns="http://www.w3.org/2000/svg"><path d="m10.5 9.5 2.829 2.828M13.328 9.5 10.5 12.328m.967 8.492a.88.88 0 0 0 1.066 0C14.168 19.593 19 15.586 19 11.016v-4.93a.514.514 0 0 0-.457-.515 12.048 12.048 0 0 1-5.582-2.046l-.61-.417a.62.62 0 0 0-.702 0l-.61.417a12.048 12.048 0 0 1-5.582 2.046.514.514 0 0 0-.457.515v4.93c0 4.57 4.832 8.577 6.467 9.802"/></svg>