<svg width="24" height="24" fill="none" viewBox="0 0 24 24" stroke-width="1.5" stroke="currentColor" stroke-linecap="round" stroke-linejoin="round" xmlns="http://www.w3.org/2000/svg"><path d="m15.728 3-2.796 6.75m0 0 1.32 1.317m-1.32-1.317-1.865-.003M20.91 8.31l-1.71.708m-4.947 2.049 4.947-2.05m-4.947 2.05-.003 1.865M21 15.728l-6.75-2.796m0 0-1.317 1.32m2.758 6.658-.709-1.71m-2.049-4.947 2.05 4.947m-2.05-4.947-1.865-.003m0 0L8.272 21m2.796-6.75-1.32-1.317m0 0L4.8 14.983m4.947-2.05.003-1.865m-6.66 4.623 1.71-.709m4.95-3.914L3 8.272m6.75 2.796 1.317-1.32m0 0L9.017 4.8M8.31 3.09l.708 1.71m0 0A7.77 7.77 0 0 0 4.8 9.018a7.77 7.77 0 0 0 0 5.964M9.018 4.8a7.77 7.77 0 0 1 5.964 0A7.77 7.77 0 0 1 19.2 9.018m0 0a7.77 7.77 0 0 1 0 5.964 7.77 7.77 0 0 1-4.218 4.218m0 0a7.77 7.77 0 0 1-5.964 0A7.77 7.77 0 0 1 4.8 14.982"/></svg>