<svg width="24" height="24" fill="none" viewBox="0 0 24 24" stroke-width="1.5" stroke="currentColor" stroke-linecap="round" stroke-linejoin="round" xmlns="http://www.w3.org/2000/svg"><path d="M20.5 15.8V8.2a1.91 1.91 0 0 0-.944-1.645l-6.612-3.8a1.88 1.88 0 0 0-1.888 0l-6.612 3.8A1.895 1.895 0 0 0 3.5 8.2v7.602a1.91 1.91 0 0 0 .944 1.644l6.612 3.8a1.88 1.88 0 0 0 1.888 0l6.612-3.8A1.895 1.895 0 0 0 20.5 15.8"/><path d="M9.5 12c0-1.178 0-1.768.366-2.134.366-.366.956-.366 2.134-.366s1.768 0 2.134.366c.366.366.366.956.366 2.134s0 1.768-.366 2.134c-.366.366-.956.366-2.134.366s-1.768 0-2.134-.366C9.5 13.768 9.5 13.178 9.5 12"/></svg>