<svg width="24" height="24" fill="none" viewBox="0 0 24 24" stroke-width="1.5" stroke="currentColor" stroke-linecap="round" stroke-linejoin="round" xmlns="http://www.w3.org/2000/svg"><path d="M2.707 10.295a2.41 2.41 0 0 0 0 3.41l7.588 7.588a2.409 2.409 0 0 0 3.41 0l7.588-7.588a2.409 2.409 0 0 0 0-3.41l-7.588-7.588a2.41 2.41 0 0 0-3.41 0z"/><path d="M9.5 12c0-1.178 0-1.768.366-2.134.366-.366.956-.366 2.134-.366s1.768 0 2.134.366c.366.366.366.956.366 2.134s0 1.768-.366 2.134c-.366.366-.956.366-2.134.366s-1.768 0-2.134-.366C9.5 13.768 9.5 13.178 9.5 12"/></svg>