<svg width="24" height="24" fill="none" viewBox="0 0 24 24" stroke-width="1.5" stroke="currentColor" stroke-linecap="round" stroke-linejoin="round" xmlns="http://www.w3.org/2000/svg"><path d="M7.805 3.469C8.16 3.115 8.451 3 8.937 3h6.126c.486 0 .778.115 1.132.469l4.336 4.336c.354.354.469.646.469 1.132v6.126c0 .5-.125.788-.469 1.132l-4.336 4.336c-.354.354-.646.469-1.132.469H8.937c-.5 0-.788-.125-1.132-.469L3.47 16.195c-.355-.355-.47-.646-.47-1.132V8.937c0-.5.125-.788.469-1.132z"/><path d="M9.5 12c0-1.178 0-1.768.366-2.134.366-.366.956-.366 2.134-.366s1.768 0 2.134.366c.366.366.366.956.366 2.134s0 1.768-.366 2.134c-.366.366-.956.366-2.134.366s-1.768 0-2.134-.366C9.5 13.768 9.5 13.178 9.5 12"/></svg>