<svg width="24" height="24" fill="none" viewBox="0 0 24 24" stroke-width="1.5" stroke="currentColor" stroke-linecap="round" stroke-linejoin="round" xmlns="http://www.w3.org/2000/svg"><path d="M14.155 13.86a.326.326 0 0 1-.114-.116.312.312 0 0 1-.041-.155v-8.66c0-.512-.21-1.002-.586-1.364A2.038 2.038 0 0 0 12 3c-.53 0-1.04.203-1.414.565A1.894 1.894 0 0 0 10 4.929v8.66a.313.313 0 0 1-.041.155.327.327 0 0 1-.114.116 3.971 3.971 0 0 0-1.396 1.493 3.803 3.803 0 0 0-.445 1.965 3.8 3.8 0 0 0 1.266 2.644 4.085 4.085 0 0 0 2.82 1.037 4.071 4.071 0 0 0 2.77-1.16A3.787 3.787 0 0 0 16 17.145c0-.652-.168-1.294-.49-1.867a3.976 3.976 0 0 0-1.355-1.417"/></svg>