<svg width="24" height="24" fill="none" viewBox="0 0 24 24" stroke-width="1.5" stroke="currentColor" stroke-linecap="round" stroke-linejoin="round" xmlns="http://www.w3.org/2000/svg"><path d="M21 7.86c0-.43-.056-.849-.161-1.246-.092-.349-.522-.432-.776-.177L18.34 8.16a1.767 1.767 0 1 1-2.5-2.5l1.723-1.722c.255-.255.172-.685-.177-.777a4.86 4.86 0 0 0-5.828 6.326c.071.2.031.424-.118.573L3.3 18.2c-.4.4-.4 1.049 0 1.448L4.352 20.7c.4.4 1.047.4 1.447 0l8.14-8.14c.15-.15.374-.19.573-.119A4.86 4.86 0 0 0 21 7.86"/></svg>