<svg width="24" height="24" fill="none" viewBox="0 0 24 24" stroke-width="1.5" stroke="currentColor" stroke-linecap="round" stroke-linejoin="round" xmlns="http://www.w3.org/2000/svg"><path d="m18 7-.886 10.342c-.111 1.29-.166 1.936-.453 2.424a2.5 2.5 0 0 1-1.078.99c-.511.244-1.16.244-2.455.244h-2.256c-1.296 0-1.944 0-2.455-.244a2.5 2.5 0 0 1-1.078-.99c-.287-.488-.342-1.134-.453-2.424L6 7m-1.5-.5h4.615m0 0 .386-2.672c.112-.486.516-.828.98-.828h3.038c.464 0 .867.342.98.828l.386 2.672m-5.77 0h5.77m0 0H19.5"/></svg>