<svg xmlns="http://www.w3.org/2000/svg" width="24" height="24" fill="none" viewBox="0 0 24 24" stroke-width="1.5" stroke-linecap="round" stroke-linejoin="round" stroke="currentColor"><path d="m10.527 3.957-7.296 14.06c-.15.3-.23.642-.231.989 0 .347.077.689.226.99.149.302.364.553.623.73.26.175.554.27.855.274h14.592c.3-.004.596-.099.855-.275.26-.176.474-.427.623-.729.149-.301.227-.643.226-.99 0-.347-.08-.688-.23-.989l-7.297-14.06a1.866 1.866 0 0 0-.628-.701A1.547 1.547 0 0 0 12 3c-.296 0-.587.088-.845.256-.258.167-.474.41-.628.701Z"/></svg>