<svg width="24" height="24" fill="none" viewBox="0 0 24 24" stroke-width="1.5" stroke="currentColor" stroke-linecap="round" stroke-linejoin="round" xmlns="http://www.w3.org/2000/svg"><path d="M9.713 3.64c.581-.495.872-.743 1.176-.888a2.577 2.577 0 0 1 2.222 0c.304.145.595.393 1.176.888.599.51 1.207.768 2.007.831.761.061 1.142.092 1.46.204.734.26 1.312.837 1.571 1.572.112.317.143.698.204 1.46.063.8.32 1.407.83 2.006.496.581.744.872.889 1.176.336.703.336 1.52 0 2.222-.145.304-.393.595-.888 1.176a3.306 3.306 0 0 0-.831 2.007c-.061.761-.092 1.142-.204 1.46a2.577 2.577 0 0 1-1.572 1.571c-.317.112-.698.143-1.46.204-.8.063-1.407.32-2.006.83-.581.496-.872.744-1.176.889a2.577 2.577 0 0 1-2.222 0c-.304-.145-.595-.393-1.176-.888a3.306 3.306 0 0 0-2.007-.831c-.761-.061-1.142-.092-1.46-.204a2.577 2.577 0 0 1-1.571-1.572c-.112-.317-.143-.698-.204-1.46a3.305 3.305 0 0 0-.83-2.006c-.496-.581-.744-.872-.89-1.176a2.577 2.577 0 0 1 .001-2.222c.145-.304.393-.595.888-1.176.52-.611.769-1.223.831-2.007.061-.761.092-1.142.204-1.46a2.577 2.577 0 0 1 1.572-1.571c.317-.112.698-.143 1.46-.204a3.305 3.305 0 0 0 2.006-.83M15 9l-6 6m0-6 6 6"/></svg>