<svg width="24" height="24" fill="currentColor" viewBox="0 0 24 24" xmlns="http://www.w3.org/2000/svg"><path d="M10.17 2.25h7.66c.535 0 .98 0 1.345.03.38.03.736.098 1.073.27a2.75 2.75 0 0 1 1.203 1.201c.171.338.238.694.27 1.074.03.364.03.81.03 1.344v7.661c0 .534 0 .98-.03 1.345-.032.38-.099.736-.27 1.073a2.75 2.75 0 0 1-1.203 1.203c-.337.171-.693.238-1.072.27-.364.029-.809.029-1.342.029h-7.667c-.534 0-.979 0-1.343-.03-.38-.03-.736-.098-1.073-.27a2.75 2.75 0 0 1-1.201-1.202c-.172-.337-.24-.693-.27-1.073-.03-.364-.03-.81-.03-1.344V6.17c0-.534 0-.98.03-1.345.03-.38.098-.736.27-1.074a2.75 2.75 0 0 1 1.2-1.201c.338-.172.694-.24 1.074-.27.365-.03.81-.03 1.345-.03M3 8.25a.75.75 0 0 1 .75.75v10.4c0 .292 0 .466.011.596a.6.6 0 0 0 .018.12.25.25 0 0 0 .104.105.6.6 0 0 0 .12.018c.13.01.304.011.595.011H15a.75.75 0 0 1 0 1.5H4.572c-.257 0-.493 0-.69-.016a1.8 1.8 0 0 1-.677-.175 1.75 1.75 0 0 1-.764-.765 1.8 1.8 0 0 1-.175-.676 9 9 0 0 1-.016-.692V9A.75.75 0 0 1 3 8.25m11-2a.75.75 0 0 0-.75.75v2.25H11a.75.75 0 0 0 0 1.5h2.25V13a.75.75 0 0 0 1.5 0v-2.25H17a.75.75 0 0 0 0-1.5h-2.25V7a.75.75 0 0 0-.75-.75"/></svg>