<svg width="24" height="24" fill="currentColor" viewBox="0 0 24 24" xmlns="http://www.w3.org/2000/svg"><path d="M12 2.25a.75.75 0 0 1 .75.75v.25h1.275c.445 0 .816 0 1.12.02.318.022.617.069.907.19a2.75 2.75 0 0 1 1.489 1.488c.12.29.167.59.188.907.021.304.021.675.021 1.12v.05c0 .445 0 .816-.02 1.12a2.8 2.8 0 0 1-.19.907 2.75 2.75 0 0 1-1.488 1.489c-.29.12-.59.167-.907.188-.304.021-.675.021-1.12.021H12.75v2.5h3.275c.445 0 .816 0 1.12.02.317.022.617.069.907.19a2.75 2.75 0 0 1 1.489 1.488c.12.29.167.59.188.907.021.304.021.675.021 1.12v.05c0 .445 0 .816-.02 1.12a2.8 2.8 0 0 1-.19.907 2.75 2.75 0 0 1-1.488 1.489c-.29.12-.59.167-.907.188-.304.021-.675.021-1.12.021H12.75V21a.75.75 0 0 1-1.5 0v-.25H7.975c-.445 0-.816 0-1.12-.02a2.8 2.8 0 0 1-.907-.19 2.75 2.75 0 0 1-1.489-1.488c-.12-.29-.167-.59-.188-.907-.021-.304-.021-.675-.021-1.12v-.05c0-.445 0-.816.02-1.12.022-.318.07-.617.19-.907a2.75 2.75 0 0 1 1.488-1.489c.29-.12.59-.167.907-.188.304-.021.675-.021 1.12-.021h3.275v-2.5H9.975c-.445 0-.816 0-1.12-.02a2.8 2.8 0 0 1-.907-.19 2.75 2.75 0 0 1-1.489-1.488c-.12-.29-.167-.59-.188-.907-.021-.304-.021-.675-.021-1.12v-.05c0-.445 0-.816.02-1.12a2.8 2.8 0 0 1 .19-.907 2.75 2.75 0 0 1 1.488-1.489c.29-.12.59-.167.907-.188.304-.021.675-.021 1.12-.021h1.275V3a.75.75 0 0 1 .75-.75"/></svg>