<svg width="24" height="24" fill="currentColor" viewBox="0 0 24 24" xmlns="http://www.w3.org/2000/svg"><path d="m12.161 2.251.089-.001q.048 0 .095.006C17.57 2.438 21.75 6.731 21.75 12c0 5.385-4.365 9.75-9.75 9.75S2.25 17.385 2.25 12 6.615 2.25 12 2.25zM9.46 4.15a3 3 0 0 0 4.791 3.337.75.75 0 1 0-1-1.118 1.5 1.5 0 1 1-1.074-2.616 8.3 8.3 0 0 0-2.717.397M9 9.25c-.486 0-.916.195-1.247.488a.75.75 0 1 0 .994 1.124A.38.38 0 0 1 9 10.75a.38.38 0 0 1 .253.112.75.75 0 1 0 .994-1.124A1.88 1.88 0 0 0 9 9.25m6 0c-.486 0-.916.195-1.247.488a.75.75 0 1 0 .994 1.124.38.38 0 0 1 .253-.112.38.38 0 0 1 .253.112.75.75 0 1 0 .994-1.124A1.88 1.88 0 0 0 15 9.25m-5.553 5.148a.75.75 0 1 0-.894 1.204A5.77 5.77 0 0 0 12 16.75a5.77 5.77 0 0 0 3.447-1.148.75.75 0 1 0-.894-1.204A4.27 4.27 0 0 1 12 15.25a4.27 4.27 0 0 1-2.553-.852"/></svg>