<svg width="24" height="24" fill="currentColor" viewBox="0 0 24 24" xmlns="http://www.w3.org/2000/svg"><path d="M9.75 11.25v-2.5H13a1.25 1.25 0 1 1 0 2.5zm0 4v-2.5H14a1.25 1.25 0 1 1 0 2.5z"/><path d="M8.037 2.408a2.3 2.3 0 0 1 .9-.158h6.126c.302 0 .602.036.9.158s.54.31.762.53l4.337 4.337c.22.221.408.463.53.762.123.298.158.598.158.9v6.126c0 .313-.039.616-.163.914a2.3 2.3 0 0 1-.525.748l-4.337 4.337a2.3 2.3 0 0 1-.762.53 2.3 2.3 0 0 1-.9.158H8.937c-.313 0-.616-.039-.914-.163a2.3 2.3 0 0 1-.748-.525l-4.337-4.337a2.3 2.3 0 0 1-.53-.762 2.3 2.3 0 0 1-.158-.9V8.937c0-.313.039-.616.163-.914a2.3 2.3 0 0 1 .525-.748l4.337-4.337c.221-.22.463-.408.762-.53M12.75 6a.75.75 0 0 0-1.5 0v1.25H9a.75.75 0 0 0-.75.75v8c0 .414.336.75.75.75h2.25V18a.75.75 0 0 0 1.5 0v-1.25H14a2.75 2.75 0 0 0 1.266-5.192A2.75 2.75 0 0 0 13 7.25h-.25z"/></svg>