<svg width="24" height="24" fill="currentColor" viewBox="0 0 24 24" xmlns="http://www.w3.org/2000/svg"><path d="M9.273 2.25a.75.75 0 0 1 .75.75v1.5h2.863V3a.75.75 0 0 1 1.5 0v1.571c1.878.362 3.273 2.056 3.273 4.054a4.17 4.17 0 0 1-1.258 2.997c1.393.654 2.349 2.1 2.349 3.753 0 2.256-1.78 4.125-4.023 4.125h-.34V21a.75.75 0 0 1-1.5 0v-1.5h-2.864V21a.75.75 0 1 1-1.5 0v-1.5H6A.75.75 0 0 1 6 18h1.432V6H6a.75.75 0 0 1 0-1.5h2.523V3a.75.75 0 0 1 .75-.75M8.932 6v5.25h4.704c1.372 0 2.523-1.153 2.523-2.625S15.008 6 13.636 6zm0 6.75V18h5.795c1.372 0 2.523-1.153 2.523-2.625s-1.151-2.625-2.523-2.625z"/></svg>