<svg width="24" height="24" fill="currentColor" viewBox="0 0 24 24" xmlns="http://www.w3.org/2000/svg"><path d="M10.75 9a1.25 1.25 0 1 1 2.5 0 1.25 1.25 0 0 1-2.5 0"/><path d="M17.4 2.25H8.17c-.534 0-.98 0-1.345.03-.38.03-.736.098-1.074.27-.82.417-1.204 1.088-1.37 1.78-.137.566-.134 1.189-.132 1.687l.001.183v14.05a1.5 1.5 0 0 0 1.5 1.5h10.652c.617 0 1.28-.086 1.756-.548.484-.467.592-1.137.592-1.802v-.908a1.65 1.65 0 0 0 .65-.583c.278-.432.35-.966.35-1.509V4.6c0-.616-.086-1.28-.547-1.757-.467-.484-1.136-.593-1.803-.593m-.998 18H5.75a1.5 1.5 0 0 1 1.5-1.5h10v.65c0 .57-.11.7-.134.724-.031.03-.167.126-.714.126M12 6.25a2.75 2.75 0 0 1 2.01 4.627q.286.164.54.382c.734.629 1.2 1.563 1.2 2.741a.75.75 0 0 1-1.5 0c0-.752-.284-1.266-.676-1.603-.408-.35-.977-.543-1.574-.543s-1.166.193-1.574.543c-.392.337-.676.85-.676 1.603a.75.75 0 0 1-1.5 0c0-1.178.466-2.112 1.2-2.741q.254-.219.54-.382A2.75 2.75 0 0 1 12 6.25"/></svg>