<svg width="24" height="24" fill="currentColor" viewBox="0 0 24 24" xmlns="http://www.w3.org/2000/svg"><path d="M14.245 3.951a.25.25 0 0 0-.197-.196l-.05-.005H10a.25.25 0 0 0-.249.248V5.85h4.5V4zm-3.623 10.31a.63.63 0 0 0-.287.118c-.083.066-.085.117-.085.122v1c0 .007.001.055.084.121a.67.67 0 0 0 .416.128h2.5c.187 0 .33-.062.415-.129.083-.066.085-.114.085-.121v-1c0-.007-.002-.055-.085-.121a.67.67 0 0 0-.415-.129h-2.499zM7.385 7.35c-1.887 0-2.76.433-3.172.91-.413.479-.538 1.206-.421 2.242l.002.014.197 2.07c1.534.91 3.045 1.325 4.8 1.57.085-.38.308-.71.606-.948a2.18 2.18 0 0 1 1.352-.458h2.501c.838 0 1.768.506 1.961 1.405 1.746-.241 3.273-.652 4.794-1.542l.202-2.097.001-.014c.118-1.036-.007-1.763-.42-2.242-.412-.477-1.286-.91-3.173-.91zm8.365-1.5h.865c2.054 0 3.474.463 4.309 1.43.832.965.906 2.232.774 3.392l-.196 2.037c.1.236.07.502-.068.708l-.426 4.441-.001.011c-.103.934-.346 1.974-1.213 2.746-.856.763-2.174 1.135-4.102 1.135H8.308c-1.928 0-3.246-.372-4.102-1.135-.867-.772-1.11-1.812-1.213-2.746v-.01l-.436-4.543a.75.75 0 0 1-.048-.496l-.207-2.148-.04-.44C2.2 9.2 2.349 8.125 3.077 7.28c.835-.967 2.255-1.43 4.309-1.43h.865V4a1.747 1.747 0 0 1 1.748-1.75h4.004l.173.009a1.753 1.753 0 0 1 1.574 1.74z"/></svg>