<svg width="24" height="24" fill="currentColor" viewBox="0 0 24 24" xmlns="http://www.w3.org/2000/svg"><path d="M2.25 12a.75.75 0 0 1 .75-.75h3a.75.75 0 0 1 0 1.5H3a.75.75 0 0 1-.75-.75m2.22-7.53a.75.75 0 0 1 1.06 0l2.122 2.12a.75.75 0 0 1-1.061 1.06L4.47 5.532a.75.75 0 0 1 0-1.061m15.06-.001a.75.75 0 0 1 0 1.06l-2.12 2.122a.75.75 0 0 1-1.06-1.061l2.12-2.121a.75.75 0 0 1 1.061 0M7.652 16.348a.75.75 0 0 1 0 1.061L5.53 19.53a.75.75 0 0 1-1.06-1.06l2.121-2.122a.75.75 0 0 1 1.06 0m8.697 0a.75.75 0 0 1 1.061 0l2.121 2.122a.75.75 0 1 1-1.06 1.06l-2.122-2.121a.75.75 0 0 1 0-1.06M12 2.25a.75.75 0 0 1 .75.75v3a.75.75 0 0 1-1.5 0V3a.75.75 0 0 1 .75-.75m0 15a.75.75 0 0 1 .75.75v3a.75.75 0 0 1-1.5 0v-3a.75.75 0 0 1 .75-.75M17.25 12a.75.75 0 0 1 .75-.75h3a.75.75 0 0 1 0 1.5h-3a.75.75 0 0 1-.75-.75M12 8.25a3.75 3.75 0 1 0 0 7.5 3.75 3.75 0 0 0 0-7.5"/></svg>