<svg width="24" height="24" fill="currentColor" viewBox="0 0 24 24" xmlns="http://www.w3.org/2000/svg"><path d="M14.733 1.25H9.267c-.812 0-1.469 0-2 .045-.55.047-1.033.145-1.48.381a3.8 3.8 0 0 0-1.633 1.692c-.223.454-.316.944-.36 1.507-.044.549-.044 1.227-.044 2.072v10.106c0 .845 0 1.523.043 2.072.045.563.138 1.053.36 1.507a3.8 3.8 0 0 0 1.635 1.692c.446.236.93.334 1.478.38.415.036.904.044 1.484.046V15.5a2.75 2.75 0 0 1 2.75-2.75h1a2.75 2.75 0 0 1 2.75 2.75v7.25a19 19 0 0 0 1.484-.045c.549-.047 1.032-.145 1.478-.381a3.8 3.8 0 0 0 1.634-1.692c.223-.454.316-.944.36-1.508.044-.548.044-1.226.044-2.07V6.947c0-.845 0-1.523-.043-2.072-.044-.563-.138-1.053-.36-1.507a3.8 3.8 0 0 0-1.635-1.692c-.446-.236-.93-.334-1.478-.38-.532-.046-1.189-.046-2-.046M7.25 6A.75.75 0 0 1 8 5.25h2a.75.75 0 0 1 0 1.5H8A.75.75 0 0 1 7.25 6M8 9.25h2a.75.75 0 0 1 0 1.5H8a.75.75 0 0 1 0-1.5M13.25 6a.75.75 0 0 1 .75-.75h2a.75.75 0 0 1 0 1.5h-2a.75.75 0 0 1-.75-.75M14 9.25h2a.75.75 0 0 1 0 1.5h-2a.75.75 0 0 1 0-1.5"/><path d="M13.75 22.75V15.5c0-.69-.56-1.25-1.25-1.25h-1c-.69 0-1.25.56-1.25 1.25v7.25z"/></svg>