<svg width="24" height="24" fill="currentColor" viewBox="0 0 24 24" xmlns="http://www.w3.org/2000/svg"><path d="M9.233 1.25c.812 0 1.469 0 2 .045.55.047 1.033.145 1.48.381a3.8 3.8 0 0 1 1.633 1.692c.223.454.316.944.36 1.507.044.549.044 1.227.044 2.072v.599h2.125c1.135 0 2.13.22 2.809.948.666.714.866 1.747.866 2.95v9.806h1.2a.75.75 0 0 1 0 1.5H2.25a.75.75 0 0 1 0-1.5h1V6.947c0-.845 0-1.523.043-2.072.045-.563.138-1.053.36-1.507a3.8 3.8 0 0 1 1.635-1.692c.446-.236.93-.334 1.478-.38.532-.046 1.189-.046 2-.046zM8 5.25a.75.75 0 0 0 0 1.5h2a.75.75 0 0 0 0-1.5zM7.25 10c0 .414.336.75.75.75h2a.75.75 0 0 0 0-1.5H8a.75.75 0 0 0-.75.75M8 13.25a.75.75 0 0 0 0 1.5h2a.75.75 0 0 0 0-1.5z"/></svg>