<svg width="24" height="24" fill="currentColor" viewBox="0 0 24 24" xmlns="http://www.w3.org/2000/svg"><path d="M7 3.25a.75.75 0 0 1 .75.75v.5a.75.75 0 0 1-1.5 0V4A.75.75 0 0 1 7 3.25m5 0a.75.75 0 0 1 .75.75v.5a.75.75 0 0 1-1.5 0V4a.75.75 0 0 1 .75-.75m5 0a.75.75 0 0 1 .75.75v.5a.75.75 0 0 1-1.5 0V4a.75.75 0 0 1 .75-.75m-10 3a.75.75 0 0 1 .75.75v3.25h3.5V7a.75.75 0 0 1 1.5 0v3.25h3.5V7a.75.75 0 0 1 1.5 0v3.25H18a2.77 2.77 0 0 1 2.75 2.73v7.27H22a.75.75 0 0 1 0 1.5H2a.75.75 0 0 1 0-1.5h1.25V13a3 3 0 0 1 .007-.191A2.77 2.77 0 0 1 6 10.25h.25V7A.75.75 0 0 1 7 6.25m-1 5.5c-.56 0-1.052.396-1.203.917.568.549 1.167.675 1.665.522.453-.14.989-.559 1.434-1.439zm10.12 0c.408.758.922 1.209 1.397 1.394.525.205 1.126.135 1.699-.428A1.275 1.275 0 0 0 18 11.75zm-2.222 0h-3.78c.546 1.016 1.276 1.464 1.86 1.498.558.032 1.32-.307 1.92-1.498"/></svg>