<svg width="24" height="24" fill="currentColor" viewBox="0 0 24 24" xmlns="http://www.w3.org/2000/svg"><path d="M7.5 2.25a.75.75 0 0 1 .75.75v.253q.515-.004 1.119-.003h5.262q.604 0 1.119.003V3a.75.75 0 0 1 1.5 0v.301q.018 0 .035.003c.71.054 1.309.169 1.856.432a4.65 4.65 0 0 1 2.083 1.97c.287.532.41 1.113.469 1.793.057.662.057 1.482.057 2.51v4.981c0 1.029 0 1.85-.057 2.511-.06.68-.182 1.261-.469 1.792a4.65 4.65 0 0 1-2.083 1.971c-.547.263-1.146.378-1.856.432-.696.054-1.56.054-2.654.054H9.37c-1.094 0-1.958 0-2.654-.054-.71-.055-1.309-.169-1.856-.432a4.65 4.65 0 0 1-2.083-1.97c-.287-.532-.41-1.113-.469-1.793-.057-.662-.057-1.482-.057-2.51V10.01c0-1.029 0-1.85.057-2.511.06-.68.182-1.261.469-1.792A4.65 4.65 0 0 1 4.86 3.736c.547-.263 1.146-.378 1.856-.432L6.75 3.3V3a.75.75 0 0 1 .75-.75m-.75 2.556c-.577.05-.946.14-1.24.282a3.15 3.15 0 0 0-1.414 1.33c-.114.212-.196.466-.25.832h16.309c-.055-.366-.137-.62-.251-.831a3.15 3.15 0 0 0-1.413-1.331c-.295-.142-.664-.232-1.241-.282V5a.75.75 0 0 1-1.5 0v-.247q-.511-.004-1.15-.003H9.4q-.639 0-1.15.003V5a.75.75 0 0 1-1.5 0z"/></svg>