<svg width="24" height="24" fill="currentColor" viewBox="0 0 24 24" xmlns="http://www.w3.org/2000/svg"><path d="M9.252 2.996a.75.75 0 0 1 .857-.183c1.736.762 2.57 2.275 2.97 3.502q.071.223.127.435a7 7 0 0 1 2.137-1.549l.074-.03a.75.75 0 0 1 .947.472l.488 1.428c.162.5.314 1.016.418 1.529.2.975.255 2.025-.113 3.051l-.079.205A5.5 5.5 0 0 1 12 15.25c-3.04 0-5.5-2.472-5.5-5.517 0-2.897 1.162-4.188 2.67-6.628zm9.591 12.271a.75.75 0 0 1 .314 1.466c-4.51.967-8.834 2.521-12.992 4.53l-.83.408a.75.75 0 0 1-.67-1.342l.848-.417c4.252-2.053 8.689-3.65 13.33-4.645"/><path d="m5.081 15.254.076.013.928.207c4.315 1.004 8.427 2.517 12.401 4.437l.849.418.067.038a.75.75 0 0 1-.667 1.334l-.07-.03-.831-.408c-3.887-1.878-7.894-3.352-12.089-4.328l-.902-.202-.074-.02a.75.75 0 0 1 .312-1.46"/></svg>