<svg width="24" height="24" fill="currentColor" viewBox="0 0 24 24" xmlns="http://www.w3.org/2000/svg"><path d="M11.25 21.5v-3.992l-2.233.67c-1.884.565-3.308-.324-4.441-1.228l-.469-.385a1.25 1.25 0 0 1 .241-2.078l2.385-1.193-2.766-2.766c-.903-.903-.03-2.39 1.163-2.103l.117.033 4.665 1.555 1.35-7.643.034-.13a.75.75 0 0 1 1.443.13l1.347 7.643 4.667-1.555.117-.033c1.193-.287 2.066 1.2 1.163 2.103l-2.768 2.766 2.387 1.193.142.083c.631.425.736 1.323.22 1.881l-.12.114c-1.168.973-2.66 2.181-4.71 1.668l-.201-.055-2.233-.67V21.5a.75.75 0 0 1-1.5 0"/></svg>