<svg width="24" height="24" fill="currentColor" viewBox="0 0 24 24" xmlns="http://www.w3.org/2000/svg"><path d="M2 14.6V3a1 1 0 0 1 2 0v11.6l.007 1.467c.006.418.019.77.044 1.078.05.606.142.954.276 1.217l.115.206c.289.47.702.853 1.196 1.105l.103.049c.251.108.584.184 1.113.227C7.471 20 8.264 20 9.4 20H21l.102.005a1 1 0 0 1 0 1.99L21 22H9.4c-1.103 0-1.991.001-2.709-.058-.637-.052-1.208-.154-1.737-.381l-.224-.106a5 5 0 0 1-2.092-2.01l-.093-.175c-.302-.593-.428-1.233-.487-1.961-.03-.359-.044-.76-.051-1.21z"/><path d="M18.25 7.5a.75.75 0 0 0-.75-.75H16v2.5h1.5a.75.75 0 0 0 .75-.75zm1.5 1a2.25 2.25 0 0 1-2.25 2.25h-9A2.25 2.25 0 0 1 6.25 8.5v-1A2.25 2.25 0 0 1 8.5 5.25h9a2.25 2.25 0 0 1 2.25 2.25zm-5.5 6a.75.75 0 0 0-.75-.75h-1.75v2.5h1.75a.75.75 0 0 0 .75-.75zm1.5 1a2.25 2.25 0 0 1-2.25 2.25h-5a2.25 2.25 0 0 1-2.25-2.25v-1a2.25 2.25 0 0 1 2.25-2.25h5a2.25 2.25 0 0 1 2.25 2.25z"/></svg>