<svg width="24" height="24" fill="currentColor" viewBox="0 0 24 24" xmlns="http://www.w3.org/2000/svg"><path d="M2 14.6V3a1 1 0 0 1 2 0v11.6l.007 1.467c.006.418.019.77.044 1.078.05.606.142.954.276 1.217l.115.206c.289.47.702.853 1.196 1.105l.103.049c.251.108.584.184 1.113.227C7.471 20 8.264 20 9.4 20H21l.102.005a1 1 0 0 1 0 1.99L21 22H9.4c-1.103 0-1.991.001-2.709-.058-.637-.052-1.208-.154-1.737-.381l-.224-.106a5 5 0 0 1-2.092-2.01l-.093-.175c-.302-.593-.428-1.233-.487-1.961-.03-.359-.044-.76-.051-1.21z"/><path d="M11.75 13.5c0 .763-.527 1.255-1.021 1.52a3.5 3.5 0 0 1-.979.332V17.5a.75.75 0 0 1-1.5 0v-2.118a3.2 3.2 0 0 1-.97-.3c-.54-.28-1.03-.799-1.03-1.582v-4c0-.763.527-1.256 1.021-1.52a3.5 3.5 0 0 1 .979-.334V5.5a.75.75 0 0 1 1.5 0v2.117c.34.053.673.149.97.302.54.279 1.03.797 1.03 1.581zm4.5 4v-3.148a3.5 3.5 0 0 1-.979-.332c-.494-.264-1.021-.757-1.021-1.52v-6c0-.855.644-1.352 1.146-1.592.27-.128.565-.219.854-.274V3.5a.75.75 0 0 1 1.496-.077l.004.077v1.168c.292.067.591.167.862.3.452.223 1.138.7 1.138 1.532v6c0 .784-.49 1.302-1.03 1.581-.296.153-.63.248-.97.3V17.5a.75.75 0 0 1-1.5 0"/></svg>