<svg width="24" height="24" fill="currentColor" viewBox="0 0 24 24" xmlns="http://www.w3.org/2000/svg"><path d="M2.627 8.492C2.423 8.95 2.25 9.47 2.25 10a.75.75 0 0 0 1.5 0c0-.22.077-.513.248-.898a15 15 0 0 1 .653-1.23l.011-.019c.243-.425.508-.889.711-1.345.204-.458.377-.978.377-1.508a.75.75 0 0 0-1.5 0c0 .22-.077.513-.248.898a15 15 0 0 1-.653 1.23l-.011.019c-.243.425-.508.889-.711 1.345m3.5 0C5.923 8.95 5.75 9.47 5.75 10a.75.75 0 0 0 1.5 0c0-.22.077-.513.248-.898a15 15 0 0 1 .653-1.23l.011-.019c.243-.425.508-.889.711-1.345.204-.458.377-.978.377-1.508a.75.75 0 0 0-1.5 0c0 .22-.077.513-.248.898a15 15 0 0 1-.653 1.23l-.011.019c-.243.425-.508.889-.711 1.345m3.5 0C9.423 8.95 9.25 9.47 9.25 10a.75.75 0 0 0 1.5 0c0-.22.077-.513.248-.898a15 15 0 0 1 .653-1.23l.011-.019c.243-.425.508-.889.711-1.345.204-.458.377-.978.377-1.508a.75.75 0 0 0-1.5 0c0 .22-.077.513-.248.898a15 15 0 0 1-.653 1.23l-.011.019c-.243.425-.508.889-.711 1.345M20 17.75A1.75 1.75 0 0 0 21.75 16v-2A1.75 1.75 0 0 0 20 12.25H4A1.75 1.75 0 0 0 2.25 14v2c0 .966.784 1.75 1.75 1.75zm.25-3.75v2a.25.25 0 0 1-.25.25h-3.25v-2.5H20a.25.25 0 0 1 .25.25"/></svg>