<svg width="24" height="24" fill="currentColor" viewBox="0 0 24 24" xmlns="http://www.w3.org/2000/svg"><path d="M9.5 21v-1a1 1 0 1 1 2 0v1a1 1 0 1 1-2 0M5.651 10.889c1.544-.815 3.43-1.161 5.142-.648 1.59.477 2.904 1.66 3.605 3.598 1.569.21 3.039 1.056 3.878 2.223.497.692.805 1.544.705 2.463-.1.93-.604 1.785-1.458 2.5a1 1 0 0 1-1.283-1.535c.543-.454.719-.866.753-1.181.036-.326-.064-.695-.34-1.079-.575-.798-1.771-1.443-3.004-1.443a1 1 0 0 1-.966-.745c-.461-1.75-1.426-2.573-2.464-2.885-1.098-.329-2.439-.13-3.634.5-1.196.631-2.105 1.62-2.44 2.689-.316 1.005-.172 2.226 1.019 3.538l.065.079a1 1 0 0 1-1.545 1.265l-.29-.335c-1.373-1.69-1.673-3.504-1.158-5.146.53-1.688 1.873-3.044 3.415-3.858M6.5 19v-1a1 1 0 1 1 2 0v1a1 1 0 1 1-2 0m6 0v-1a1 1 0 1 1 2 0v1a1 1 0 1 1-2 0M10 8.089c0-2.804 1.86-5.761 5.416-6.085l.146-.002a1 1 0 0 1 .745 1.598c-.953 1.27-.64 2.725.338 3.696.98.972 2.465 1.293 3.766.345l.123-.078a1 1 0 0 1 1.462.979c-.182 1.943-1.312 3.559-2.835 4.51l-.089.05a1 1 0 0 1-.97-1.745l.192-.127c.41-.289.764-.647 1.044-1.055-1.56.199-3.066-.432-4.102-1.46-1.04-1.032-1.68-2.542-1.466-4.1C12.618 5.372 12 6.705 12 8.09a1 1 0 0 1-2 0"/></svg>