<svg width="24" height="24" fill="currentColor" viewBox="0 0 24 24" xmlns="http://www.w3.org/2000/svg"><path d="M10.565 2.075a3.33 3.33 0 0 1 2.87 0c.394.189.755.497 1.26.928l.079.066c.48.41.939.604 1.58.655l.102.008c.662.053 1.135.09 1.547.236a3.33 3.33 0 0 1 2.03 2.029c.145.412.182.885.235 1.547l.008.102c.051.641.246 1.1.655 1.58l.066.078c.431.506.74.867.928 1.261a3.33 3.33 0 0 1 0 2.87c-.189.394-.497.755-.928 1.26l-.066.079c-.418.49-.605.951-.655 1.58l-.008.102c-.053.662-.09 1.135-.236 1.547a3.33 3.33 0 0 1-2.029 2.03c-.412.145-.885.182-1.547.235l-.102.008c-.641.051-1.1.246-1.58.655l-.079.066c-.505.431-.866.74-1.26.928a3.33 3.33 0 0 1-2.87 0c-.394-.189-.755-.497-1.26-.928l-.079-.066a2.56 2.56 0 0 0-1.58-.655l-.102-.008c-.662-.053-1.135-.09-1.547-.236a3.33 3.33 0 0 1-2.03-2.029c-.145-.412-.182-.885-.235-1.547l-.008-.102a2.56 2.56 0 0 0-.655-1.58l-.066-.079c-.431-.505-.74-.866-.928-1.26a3.33 3.33 0 0 1 0-2.87c.189-.394.497-.755.928-1.26l.066-.079a2.56 2.56 0 0 0 .655-1.58l.008-.102c.053-.662.09-1.135.236-1.547a3.33 3.33 0 0 1 2.029-2.03c.412-.145.885-.182 1.547-.235l.102-.008a2.56 2.56 0 0 0 1.58-.655l.078-.066c.506-.431.867-.74 1.261-.928m3.232 6.12a.75.75 0 1 0-1.45-.39l-2.143 8a.75.75 0 0 0 1.449.39zm1.641.974a.75.75 0 1 0-1.06 1.06l.131.132c.527.526.867.869 1.085 1.155.205.268.23.396.23.484s-.025.216-.23.484c-.218.286-.558.629-1.085 1.155l-.131.131a.75.75 0 1 0 1.06 1.06l.167-.166c.482-.48.895-.894 1.181-1.27.307-.402.537-.846.537-1.394s-.23-.992-.537-1.394c-.286-.376-.7-.79-1.18-1.27zm-5.816 0a.75.75 0 0 0-1.06 0l-.167.167c-.481.48-.895.894-1.181 1.27-.307.402-.537.846-.537 1.394s.23.992.537 1.394c.286.376.7.79 1.18 1.27l.168.167a.75.75 0 0 0 1.06-1.06l-.131-.132c-.527-.526-.867-.869-1.085-1.155-.205-.268-.23-.396-.23-.484s.025-.216.23-.484c.218-.286.558-.629 1.085-1.155l.131-.131a.75.75 0 0 0 0-1.061"/></svg>