<svg width="24" height="24" fill="currentColor" viewBox="0 0 24 24" xmlns="http://www.w3.org/2000/svg"><path d="M2.25 12c0-5.385 4.365-9.75 9.75-9.75s9.75 4.365 9.75 9.75-4.365 9.75-9.75 9.75S2.25 17.385 2.25 12m11.547-3.806a.75.75 0 1 0-1.45-.388l-2.143 8a.75.75 0 0 0 1.449.388zm1.641.975a.75.75 0 1 0-1.06 1.06l.131.132c.527.526.867.869 1.085 1.155.205.268.23.396.23.484s-.025.216-.23.484c-.218.286-.558.629-1.085 1.155l-.131.131a.75.75 0 1 0 1.06 1.06l.167-.166c.482-.48.895-.894 1.181-1.27.307-.402.537-.846.537-1.394s-.23-.992-.537-1.394c-.286-.376-.7-.79-1.18-1.27zm-5.816 0a.75.75 0 0 0-1.06 0l-.167.167c-.481.48-.895.894-1.181 1.27-.307.402-.537.846-.537 1.394s.23.992.537 1.394c.286.376.7.79 1.18 1.27l.168.167a.75.75 0 0 0 1.06-1.06l-.131-.132c-.527-.526-.867-.869-1.085-1.155-.205-.268-.23-.396-.23-.484s.025-.216.23-.484c.218-.286.558-.629 1.085-1.155l.131-.131a.75.75 0 0 0 0-1.061"/></svg>