<svg width="24" height="24" fill="currentColor" viewBox="0 0 24 24" xmlns="http://www.w3.org/2000/svg"><path d="M10.68 2.105a2.63 2.63 0 0 1 2.64 0l.001.001 6.611 3.8A2.65 2.65 0 0 1 21.25 8.2v7.603a2.66 2.66 0 0 1-1.318 2.291l-.003.002-6.608 3.799h-.002a2.63 2.63 0 0 1-2.639 0h-.001l-6.608-3.8h-.003A2.64 2.64 0 0 1 2.75 15.8V8.198a2.66 2.66 0 0 1 1.318-2.291l.003-.002zm3.117 6.09a.75.75 0 1 0-1.45-.39l-2.143 8a.75.75 0 0 0 1.449.39zm1.641.974a.75.75 0 1 0-1.06 1.06l.131.132c.527.526.867.869 1.085 1.155.205.268.23.396.23.484s-.025.216-.23.484c-.218.286-.558.629-1.085 1.155l-.131.131a.75.75 0 0 0 1.06 1.061l.167-.167c.482-.48.895-.894 1.181-1.27.307-.402.537-.846.537-1.394s-.23-.992-.537-1.394c-.286-.376-.7-.789-1.18-1.27zm-5.816 0a.75.75 0 0 0-1.06 0l-.167.167c-.481.48-.895.894-1.181 1.27-.307.402-.537.846-.537 1.394s.23.992.537 1.394c.286.376.7.79 1.18 1.27l.168.167a.75.75 0 1 0 1.06-1.06l-.131-.132c-.527-.526-.867-.869-1.085-1.155-.205-.268-.23-.396-.23-.484s.025-.216.23-.484c.218-.286.558-.629 1.085-1.155l.131-.131a.75.75 0 0 0 0-1.06"/></svg>