<svg width="24" height="24" fill="currentColor" viewBox="0 0 24 24" xmlns="http://www.w3.org/2000/svg"><path d="M10.79 1.49a3.16 3.16 0 0 1 3.445.687l7.588 7.588a3.16 3.16 0 0 1 0 4.47l-7.588 7.588a3.16 3.16 0 0 1-4.47 0l-7.588-7.588a3.16 3.16 0 0 1 0-4.47l7.588-7.589a3.2 3.2 0 0 1 1.025-.685m3.007 6.704a.75.75 0 1 0-1.45-.388l-2.143 8a.75.75 0 0 0 1.449.388zm1.641.975a.75.75 0 1 0-1.06 1.06l.131.132c.527.526.867.869 1.085 1.155.205.268.23.396.23.484s-.025.216-.23.484c-.218.286-.558.629-1.085 1.155l-.131.131a.75.75 0 0 0 1.06 1.061l.167-.167c.482-.48.895-.894 1.181-1.27.307-.402.537-.846.537-1.394s-.23-.992-.537-1.394c-.286-.376-.7-.789-1.18-1.27zm-5.816 0a.75.75 0 0 0-1.06 0l-.167.167c-.481.48-.895.894-1.181 1.27-.307.402-.537.846-.537 1.394s.23.992.537 1.394c.286.376.7.79 1.18 1.27l.168.167a.75.75 0 1 0 1.06-1.06l-.131-.132c-.527-.526-.867-.869-1.085-1.155-.205-.268-.23-.396-.23-.484s.025-.216.23-.484c.218-.286.558-.629 1.085-1.155l.131-.131a.75.75 0 0 0 0-1.06"/></svg>