<svg width="24" height="24" fill="currentColor" viewBox="0 0 24 24" xmlns="http://www.w3.org/2000/svg"><path d="M13.841 2.887c-.53-.447-1.21-.643-1.858-.637-.647.007-1.32.217-1.845.662-.54.458-.887 1.136-.887 1.977 0 .394-.256.808-.694 1.068-.435.258-.907.28-1.253.078l-.022-.013c-.743-.4-1.5-.448-2.165-.204-.648.238-1.144.726-1.45 1.29-.602 1.113-.546 2.751.85 3.692l.041.026c.318.185.546.612.547 1.15 0 .537-.23.964-.547 1.149l-.01.007c-.72.436-1.134 1.075-1.258 1.773-.12.679.04 1.362.364 1.92s.835 1.035 1.478 1.273c.66.244 1.416.217 2.15-.178l.022-.013c.384-.224.838-.179 1.252.106.429.293.695.768.695 1.202 0 .834.354 1.497.905 1.935.53.421 1.204.605 1.84.6s1.306-.199 1.831-.62c.544-.434.904-1.09.904-1.915 0-.456.267-.932.685-1.219.402-.276.856-.325 1.261-.089l.023.012c.75.405 1.52.428 2.188.17.648-.252 1.157-.747 1.474-1.314.316-.566.472-1.257.343-1.933-.132-.694-.556-1.322-1.29-1.722-.313-.188-.539-.613-.539-1.15 0-.54.23-.968.547-1.153l.01-.007c.721-.437 1.135-1.075 1.259-1.773.12-.679-.041-1.362-.365-1.92-.323-.557-.835-1.035-1.477-1.273-.66-.244-1.417-.217-2.15.178l-.023.013c-.327.19-.8.174-1.245-.088s-.7-.674-.701-1.058c0-.854-.341-1.541-.89-2.002M8.75 12a3.25 3.25 0 1 1 6.5 0 3.25 3.25 0 0 1-6.5 0"/></svg>