<svg width="24" height="24" fill="currentColor" viewBox="0 0 24 24" xmlns="http://www.w3.org/2000/svg"><path d="M13.273 2.448a.75.75 0 0 1 1.06.044c.606.658.907 1.44.793 2.305-.108.826-.58 1.618-1.274 2.372l-2.406 2.615a.75.75 0 1 1-1.104-1.016l2.406-2.615c.59-.64.84-1.157.891-1.551.047-.354-.053-.706-.41-1.094a.75.75 0 0 1 .044-1.06M8 4a.75.75 0 0 1 .75.75v.5a.75.75 0 1 1-1.5 0v-.5A.75.75 0 0 1 8 4m12-.75a.75.75 0 0 1 .75.75v.5a.75.75 0 0 1-1.5 0V4a.75.75 0 0 1 .75-.75m0 9a.75.75 0 0 1 .75.75v.5a.75.75 0 0 1-1.5 0V13a.75.75 0 0 1 .75-.75m-2 5a.75.75 0 0 1 .75.75v.5a.75.75 0 0 1-1.5 0V18a.75.75 0 0 1 .75-.75m.594-8.009c-.51 0-1.126.274-1.855 1.066l-2.406 2.614a.75.75 0 1 1-1.104-1.015l2.407-2.615c.876-.952 1.863-1.55 2.958-1.55s2.082.598 2.958 1.55a.75.75 0 0 1-1.104 1.016c-.728-.792-1.345-1.066-1.854-1.066M4.901 8.98a1.258 1.258 0 0 1 2.114-.477l7.741 7.53.036.037c.6.67.325 1.735-.526 2.03L3.92 21.68c-.97.336-1.904-.567-1.62-1.54l2.585-11.1q.006-.03.016-.06"/></svg>