<svg width="24" height="24" fill="currentColor" viewBox="0 0 24 24" xmlns="http://www.w3.org/2000/svg"><path d="M2.25 12c0 5.385 4.365 9.75 9.75 9.75s9.75-4.365 9.75-9.75S17.385 2.25 12 2.25 2.25 6.615 2.25 12M7.4 8.55a.75.75 0 0 1 1.05-.15l2 1.5a.75.75 0 0 1 0 1.2l-2 1.5a.75.75 0 1 1-.9-1.2l1.2-.9-1.2-.9a.75.75 0 0 1-.15-1.05m9.05 1.05-1.2.9 1.2.9a.75.75 0 1 1-.9 1.2l-2-1.5a.75.75 0 0 1 0-1.2l2-1.5a.75.75 0 1 1 .9 1.2m-7.567 5.05a.75.75 0 0 1 .9 0l.884.662.883-.662a.75.75 0 0 1 .9 0l.883.662.884-.662a.75.75 0 0 1 .9 0l1.333 1a.75.75 0 1 1-.9 1.2l-.883-.663-.884.663a.75.75 0 0 1-.9 0L12 16.187l-.883.663a.75.75 0 0 1-.9 0l-.884-.663-.883.663a.75.75 0 1 1-.9-1.2z"/></svg>