<svg width="24" height="24" fill="currentColor" viewBox="0 0 24 24" xmlns="http://www.w3.org/2000/svg"><path d="M9.367 2.25c-1.092 0-1.958 0-2.655.057-.714.058-1.317.18-1.868.46a4.75 4.75 0 0 0-2.076 2.077c-.281.55-.403 1.154-.461 1.868-.057.697-.057 1.563-.057 2.655v5.266c0 1.092 0 1.958.057 2.655.058.714.18 1.317.46 1.869a4.75 4.75 0 0 0 2.077 2.075c.55.281 1.154.403 1.868.461.697.057 1.563.057 2.655.057h5.266c1.092 0 1.958 0 2.655-.057.714-.058 1.317-.18 1.869-.46a4.75 4.75 0 0 0 2.075-2.076c.281-.552.403-1.155.461-1.869.057-.697.057-1.563.057-2.655V9.367c0-1.092 0-1.958-.057-2.655-.058-.714-.18-1.317-.46-1.868a4.75 4.75 0 0 0-2.076-2.076c-.552-.281-1.155-.403-1.869-.461-.697-.057-1.563-.057-2.655-.057zm-.484 12.4a.75.75 0 0 1 .9 0l.884.662.883-.662a.75.75 0 0 1 .9 0l.883.662.884-.662a.75.75 0 0 1 .9 0l1.333 1a.75.75 0 1 1-.9 1.2l-.883-.663-.884.663a.75.75 0 0 1-.9 0L12 16.187l-.883.663a.75.75 0 0 1-.9 0l-.884-.663-.883.663a.75.75 0 1 1-.9-1.2zM8.45 8.4l2 1.5a.75.75 0 0 1 0 1.2l-2 1.5a.75.75 0 1 1-.9-1.2l1.2-.9-1.2-.9a.75.75 0 0 1 .9-1.2m8.15.15a.75.75 0 0 1-.15 1.05l-1.2.9 1.2.9a.75.75 0 1 1-.9 1.2l-2-1.5a.75.75 0 0 1 0-1.2l2-1.5a.75.75 0 0 1 1.05.15"/></svg>