<svg width="24" height="24" fill="currentColor" viewBox="0 0 24 24" xmlns="http://www.w3.org/2000/svg"><path d="M10.333 8.472h.917v2.778h-.917c-.937 0-1.583-.682-1.583-1.389s.646-1.389 1.583-1.389m2.417 7.056V12.75h.917c.937 0 1.583.682 1.583 1.389s-.646 1.389-1.583 1.389z"/><path d="M10.79 1.49a3.16 3.16 0 0 1 3.445.687l7.588 7.588a3.16 3.16 0 0 1 0 4.47l-7.588 7.588a3.16 3.16 0 0 1-4.47 0l-7.588-7.588a3.16 3.16 0 0 1 0-4.47l7.588-7.589a3.2 3.2 0 0 1 1.025-.685m1.96 5.01a.75.75 0 0 0-1.5 0v.472h-.917c-1.64 0-3.083 1.234-3.083 2.89 0 1.655 1.443 2.888 3.083 2.888h.917v2.778H8a.75.75 0 0 0 0 1.5h3.25v.472a.75.75 0 0 0 1.5 0v-.472h.917c1.64 0 3.083-1.233 3.083-2.89 0-1.655-1.443-2.888-3.083-2.888h-.917V8.472h2.583a.75.75 0 0 0 0-1.5H12.75z"/></svg>