<svg width="24" height="24" fill="currentColor" viewBox="0 0 24 24" xmlns="http://www.w3.org/2000/svg"><path d="M12.691 2.72a.75.75 0 0 0-1.342-.1l-.05.102c-.412 1.032-1.089 1.979-1.9 2.91-.518.597-1.058 1.151-1.607 1.716-.33.338-.663.68-.997 1.038-1.653 1.765-3.237 3.792-2.91 6.475l.038.262a.75.75 0 0 0 1.488-.169l-.009-.077c-.337-2.035.783-3.645 2.488-5.466.292-.312.606-.635.928-.967a46 46 0 0 0 1.713-1.827c.53-.61 1.037-1.26 1.465-1.963q.32.522.687 1.005l.239.308.05.057a.75.75 0 0 0 1.169-.928l-.045-.063-.217-.28a9.3 9.3 0 0 1-1.059-1.73zm7.779-.25a.75.75 0 1 1 1.06 1.06l-4.586 4.585c.996 1.043 1.971 2.15 2.576 3.393.688 1.416.896 2.992.242 4.81l-.143.367c-1.27 3.048-4.328 5.065-7.62 5.065-2.313 0-4.506-.998-6.047-2.643L3.53 21.53a.75.75 0 1 1-1.06-1.06z"/></svg>