<svg width="24" height="24" fill="currentColor" viewBox="0 0 24 24" xmlns="http://www.w3.org/2000/svg"><path d="M10.008 9.935c0-.597.212-.91.496-1.104.324-.22.83-.342 1.496-.342s1.172.122 1.496.342c.284.193.496.507.496 1.104 0 .388-.335.75-.963 1.06a5 5 0 0 1-1.029.369 5.5 5.5 0 0 1-1.03-.37c-.627-.31-.962-.67-.962-1.06m1.763 2.764c.091-.027.17-.047.229-.062a5.5 5.5 0 0 1 1.03.37c.627.31.962.67.962 1.06 0 .596-.212.91-.496 1.103-.324.22-.83.342-1.496.342s-1.172-.122-1.496-.342c-.284-.193-.496-.507-.496-1.104 0-.388.335-.75.963-1.06a5 5 0 0 1 .8-.307"/><path d="M8.037 2.408a2.3 2.3 0 0 1 .9-.158h6.126c.302 0 .602.036.9.158s.54.31.762.53l4.337 4.337c.22.221.408.463.53.762.123.298.158.598.158.9v6.126c0 .313-.039.616-.163.914a2.3 2.3 0 0 1-.525.748l-4.337 4.337a2.3 2.3 0 0 1-.762.53 2.3 2.3 0 0 1-.9.158H8.937c-.313 0-.616-.039-.914-.163a2.3 2.3 0 0 1-.748-.525l-4.337-4.337a2.3 2.3 0 0 1-.53-.762 2.3 2.3 0 0 1-.158-.9V8.937c0-.313.039-.616.163-.914a2.3 2.3 0 0 1 .525-.748l4.337-4.337c.221-.22.463-.408.762-.53m.713 7.527c0 1.053.803 1.702 1.462 2.065-.66.363-1.462 1.012-1.462 2.065 0 .952.374 1.671 1.04 2.123.624.426 1.428.562 2.21.562s1.586-.136 2.21-.562c.666-.452 1.04-1.17 1.04-2.123 0-1.053-.803-1.702-1.462-2.065.66-.363 1.462-1.012 1.462-2.065 0-.952-.374-1.671-1.04-2.123-.624-.426-1.428-.562-2.21-.562s-1.586.136-2.21.562c-.666.452-1.04 1.17-1.04 2.123"/></svg>