<svg width="24" height="24" fill="currentColor" viewBox="0 0 24 24" xmlns="http://www.w3.org/2000/svg"><path d="M10.008 9.935c0-.597.212-.91.496-1.104.324-.22.83-.342 1.496-.342s1.172.122 1.496.342c.284.193.496.507.496 1.104 0 .388-.335.75-.963 1.06a5 5 0 0 1-1.029.369 5.5 5.5 0 0 1-1.03-.37c-.627-.31-.962-.67-.962-1.06m1.763 2.764c.091-.027.17-.047.229-.062a5.5 5.5 0 0 1 1.03.37c.627.31.962.67.962 1.06 0 .596-.212.91-.496 1.103-.324.22-.83.342-1.496.342s-1.172-.122-1.496-.342c-.284-.193-.496-.507-.496-1.104 0-.388.335-.75.963-1.06a5 5 0 0 1 .8-.307"/><path d="M9.367 2.25h5.266c1.092 0 1.958 0 2.655.057.714.058 1.317.18 1.869.46a4.75 4.75 0 0 1 2.075 2.077c.281.55.403 1.154.461 1.868.057.697.057 1.563.057 2.655v5.266c0 1.092 0 1.958-.057 2.655-.058.714-.18 1.317-.46 1.869a4.75 4.75 0 0 1-2.076 2.075c-.552.281-1.155.403-1.869.461-.697.057-1.563.057-2.655.057H9.367c-1.092 0-1.958 0-2.655-.057-.714-.058-1.317-.18-1.868-.46a4.75 4.75 0 0 1-2.076-2.076c-.281-.552-.403-1.155-.461-1.869-.057-.697-.057-1.563-.057-2.655V9.367c0-1.092 0-1.958.057-2.655.058-.714.18-1.317.46-1.868a4.75 4.75 0 0 1 2.077-2.076c.55-.281 1.154-.403 1.868-.461.697-.057 1.563-.057 2.655-.057M8.75 9.935c0 1.053.803 1.702 1.462 2.065-.66.363-1.462 1.012-1.462 2.065 0 .952.374 1.671 1.04 2.123.624.426 1.428.562 2.21.562s1.586-.136 2.21-.562c.666-.452 1.04-1.17 1.04-2.123 0-1.053-.803-1.702-1.462-2.065.66-.363 1.462-1.012 1.462-2.065 0-.952-.374-1.671-1.04-2.123-.624-.426-1.428-.562-2.21-.562s-1.586.136-2.21.562c-.666.452-1.04 1.17-1.04 2.123"/></svg>