<svg width="24" height="24" fill="currentColor" viewBox="0 0 24 24" xmlns="http://www.w3.org/2000/svg"><path d="M10.68 2.105a2.63 2.63 0 0 1 2.64 0l.001.001 6.611 3.8A2.65 2.65 0 0 1 21.25 8.2v7.603a2.66 2.66 0 0 1-1.318 2.291l-.003.002-6.608 3.799h-.002a2.63 2.63 0 0 1-2.639 0h-.001l-6.608-3.8h-.003A2.64 2.64 0 0 1 2.75 15.8V8.198a2.66 2.66 0 0 1 1.318-2.291l.003-.002zM8.861 8.77c-.59.708-.937 1.583-1.06 2.48h-.8A.75.75 0 0 0 7 12.75h.812c.339 2.069 2.044 4 4.438 4 1.305 0 2.448-.287 3.27-1.075a.75.75 0 1 0-1.04-1.083c-.427.41-1.117.658-2.23.658-1.432 0-2.593-1.134-2.913-2.5H12a.75.75 0 0 0 0-1.5H9.321c.11-.573.345-1.102.693-1.52.481-.578 1.207-.98 2.236-.98 1.113 0 1.803.248 2.23.658a.75.75 0 1 0 1.04-1.083c-.822-.788-1.965-1.075-3.27-1.075-1.471 0-2.62.598-3.389 1.52"/></svg>