<svg width="24" height="24" fill="currentColor" viewBox="0 0 24 24" xmlns="http://www.w3.org/2000/svg"><path d="M2.25 6A3.75 3.75 0 0 1 6 2.25h6.6A3.75 3.75 0 0 1 16.35 6v1.65H18a3.75 3.75 0 0 1 3.75 3.75V18A3.75 3.75 0 0 1 18 21.75h-6.6A3.75 3.75 0 0 1 7.65 18v-1.65H6a3.75 3.75 0 0 1-3.75-3.75zm6.9 8.85h1.05a.75.75 0 0 1 0 1.5H9.15V18a2.25 2.25 0 0 0 2.25 2.25H18A2.25 2.25 0 0 0 20.25 18v-6.6A2.25 2.25 0 0 0 18 9.15h-1.65v1.05a.75.75 0 0 1-1.5 0V9.15H13.8a.75.75 0 0 1 0-1.5h1.05V6a2.25 2.25 0 0 0-2.25-2.25H6A2.25 2.25 0 0 0 3.75 6v6.6A2.25 2.25 0 0 0 6 14.85h1.65V13.8a.75.75 0 0 1 1.5 0zm1.05-5.7c-.58 0-1.05.47-1.05 1.05a.75.75 0 0 1-1.5 0 2.55 2.55 0 0 1 2.55-2.55.75.75 0 0 1 0 1.5m5.4 3.9a.75.75 0 0 1 .75.75 2.55 2.55 0 0 1-2.55 2.55.75.75 0 0 1 0-1.5c.58 0 1.05-.47 1.05-1.05a.75.75 0 0 1 .75-.75"/></svg>