<svg width="24" height="24" fill="currentColor" viewBox="0 0 24 24" xmlns="http://www.w3.org/2000/svg"><path d="M9.304 3.003c.506-.431.867-.74 1.261-.928a3.33 3.33 0 0 1 2.87 0c.394.189.755.497 1.26.928l.079.066c.48.41.939.604 1.58.655l.102.008c.662.053 1.135.09 1.547.236a3.33 3.33 0 0 1 2.03 2.029c.145.412.182.885.235 1.547l.008.102c.051.641.246 1.1.655 1.58l.066.078c.431.506.74.867.928 1.261a3.33 3.33 0 0 1 0 2.87c-.189.394-.497.755-.928 1.26l-.066.079c-.418.49-.605.951-.655 1.58l-.008.102c-.053.662-.09 1.135-.236 1.547a3.33 3.33 0 0 1-2.029 2.03c-.412.145-.885.182-1.547.235l-.102.008c-.641.051-1.1.246-1.58.655l-.079.066c-.505.431-.866.74-1.26.928a3.33 3.33 0 0 1-2.87 0c-.394-.189-.755-.497-1.26-.928l-.079-.066a2.56 2.56 0 0 0-1.58-.655l-.102-.008c-.662-.053-1.135-.09-1.547-.236a3.33 3.33 0 0 1-2.03-2.029c-.145-.412-.182-.885-.235-1.547l-.008-.102a2.56 2.56 0 0 0-.655-1.58l-.066-.079c-.431-.505-.74-.866-.928-1.26a3.33 3.33 0 0 1 0-2.87c.189-.394.497-.755.928-1.26l.066-.079a2.56 2.56 0 0 0 .655-1.58l.008-.102c.053-.662.09-1.135.236-1.547a3.33 3.33 0 0 1 2.029-2.03c.412-.145.885-.182 1.547-.235l.102-.008a2.56 2.56 0 0 0 1.58-.655zm-.28 4.417A.75.75 0 0 0 8.75 8v2.852a.75.75 0 0 0 .75.75h2.778c.927 0 1.472.621 1.472 1.152v1.12c0 .453-.19.768-.484.992-.316.239-.774.382-1.269.384s-.95-.139-1.264-.375c-.292-.22-.483-.537-.483-1.001a.75.75 0 0 0-1.5 0c0 .961.434 1.71 1.08 2.198.624.471 1.417.68 2.173.678.755-.003 1.547-.218 2.169-.689a2.67 2.67 0 0 0 1.078-2.187v-1.12c0-1.57-1.444-2.652-2.972-2.652H10.25V8.87c.206.024.441.047.697.066.906.064 2.123.07 3.235-.208a.75.75 0 0 0-.364-1.456c-.749.188-1.601.22-2.356.19a13 13 0 0 1-1.431-.134 11 11 0 0 1-.364-.06.77.77 0 0 0-.642.152"/></svg>