<svg width="24" height="24" fill="currentColor" viewBox="0 0 24 24" xmlns="http://www.w3.org/2000/svg"><path d="M9.765 2.176a3.16 3.16 0 0 1 4.47 0l7.588 7.589a3.16 3.16 0 0 1 0 4.47l-7.588 7.588a3.16 3.16 0 0 1-4.47 0l-7.588-7.588a3.16 3.16 0 0 1 0-4.47zm-.74 5.244A.75.75 0 0 0 8.75 8v2.852a.75.75 0 0 0 .75.75h2.778c.927 0 1.472.621 1.472 1.152v1.12c0 .453-.19.768-.484.992-.316.239-.774.382-1.269.384s-.95-.139-1.264-.375c-.292-.22-.483-.537-.483-1.001a.75.75 0 0 0-1.5 0c0 .961.434 1.71 1.08 2.198.624.471 1.417.68 2.173.678.755-.003 1.547-.218 2.169-.689a2.67 2.67 0 0 0 1.078-2.187v-1.12c0-1.57-1.444-2.652-2.972-2.652H10.25V8.87c.206.024.441.047.697.066.906.064 2.123.07 3.235-.208a.75.75 0 0 0-.364-1.456c-.749.188-1.601.22-2.356.19a13 13 0 0 1-1.431-.134 11 11 0 0 1-.364-.06.77.77 0 0 0-.642.152"/></svg>