<svg width="24" height="24" fill="currentColor" viewBox="0 0 24 24" xmlns="http://www.w3.org/2000/svg"><path d="M5 3.25A2.75 2.75 0 0 0 2.25 6v12A2.75 2.75 0 0 0 5 20.75h14A2.75 2.75 0 0 0 21.75 18V9A2.75 2.75 0 0 0 19 6.25h-7.34a1.25 1.25 0 0 1-.826-.312L8.562 3.936a2.75 2.75 0 0 0-1.817-.686zm6.58 13.621-.01-.006-.032-.022-.117-.082a15 15 0 0 1-1.63-1.343c-.446-.427-.913-.939-1.273-1.494-.354-.546-.649-1.201-.649-1.9 0-1.335.945-2.198 1.967-2.433.713-.165 1.53-.038 2.158.458 1.506-1.229 4.137-.316 4.137 1.975 0 .699-.295 1.354-.65 1.9-.36.556-.826 1.067-1.272 1.494a14.6 14.6 0 0 1-1.747 1.425l-.032.022-.01.006-.002.002h-.001a.75.75 0 0 1-.833 0h-.002z"/><path d="M14.63 12.024c0-1.068-1.475-1.43-1.96-.462a.75.75 0 0 1-1.34 0c-.225-.448-.687-.618-1.157-.51-.465.107-.804.456-.804.972 0 .287.128.653.408 1.084.274.422.652.844 1.052 1.227.396.38.796.705 1.098.936l.073.055.073-.055c.302-.23.702-.556 1.098-.936.4-.383.778-.805 1.052-1.227.28-.431.408-.797.408-1.084"/></svg>