<svg width="24" height="24" fill="currentColor" viewBox="0 0 24 24" xmlns="http://www.w3.org/2000/svg"><path d="M9.367 2.25c-1.092 0-1.958 0-2.655.057-.714.058-1.317.18-1.868.46a4.75 4.75 0 0 0-2.076 2.077c-.281.55-.403 1.154-.461 1.868-.057.697-.057 1.563-.057 2.655v5.266c0 1.092 0 1.958.057 2.655.058.714.18 1.317.46 1.869a4.75 4.75 0 0 0 2.077 2.075c.55.281 1.154.403 1.868.461.697.057 1.563.057 2.655.057h5.266c1.092 0 1.958 0 2.655-.057.714-.058 1.317-.18 1.869-.46a4.75 4.75 0 0 0 2.075-2.076c.281-.552.403-1.155.461-1.869.057-.697.057-1.563.057-2.655V9.367c0-1.092 0-1.958-.057-2.655-.058-.714-.18-1.317-.46-1.868a4.75 4.75 0 0 0-2.076-2.076c-.552-.281-1.155-.403-1.869-.461-.697-.057-1.563-.057-2.655-.057zm.236 7.088c.183.112.366.229.532.345.189.133.388.287.581.445l.04.033c.301.245.599.488.811.735.254.295.433.648.433 1.104s-.18.809-.433 1.104c-.212.247-.51.49-.81.736l-.04.032c-.194.158-.393.312-.582.445a10 10 0 0 1-.532.345l-.048.03c-.292.177-.6.365-.88.465a1.4 1.4 0 0 1-.586.09 1.2 1.2 0 0 1-.632-.24c-.368-.278-.504-.672-.569-1.01-.061-.314-.084-.711-.109-1.144l-.003-.046A14 14 0 0 1 6.75 12c0-.254.01-.531.026-.807l.003-.046c.025-.433.048-.83.109-1.145.065-.337.2-.731.57-1.008.18-.136.392-.223.63-.24a1.4 1.4 0 0 1 .588.09c.278.1.587.287.879.465zm5.702-.03.048.03c.183.112.366.229.532.345.189.133.388.287.581.445l.04.033c.301.245.599.488.811.735.254.295.433.648.433 1.104s-.18.809-.433 1.104c-.212.247-.51.49-.81.736l-.04.032c-.194.158-.393.312-.582.445a10 10 0 0 1-.532.345l-.048.03c-.292.177-.6.365-.88.465a1.4 1.4 0 0 1-.586.09 1.2 1.2 0 0 1-.632-.24c-.368-.278-.504-.672-.569-1.01-.061-.314-.084-.711-.109-1.144l-.002-.046A14 14 0 0 1 12.5 12c0-.254.01-.531.027-.807l.002-.046c.025-.433.048-.83.109-1.145.065-.337.2-.731.57-1.008.18-.136.392-.223.63-.24a1.4 1.4 0 0 1 .588.09c.278.1.587.287.879.465"/></svg>