<svg width="24" height="24" fill="currentColor" viewBox="0 0 24 24" xmlns="http://www.w3.org/2000/svg"><path d="M22.75 8.5v5a.75.75 0 0 1-1.5 0v-2.469l-.023.011-1.477.693v4.89c0 1.909-1.527 3.193-3.05 3.953-1.564.78-3.428 1.172-4.7 1.172s-3.136-.392-4.7-1.172c-1.523-.76-3.05-2.044-3.05-3.953v-4.89l-1.477-.692C1.721 10.549 1.25 9.478 1.25 8.5s.47-2.05 1.523-2.542L9.464 2.82a5.92 5.92 0 0 1 5.072 0l6.69 3.137C22.28 6.45 22.75 7.522 22.75 8.5m-8.214 5.68a5.92 5.92 0 0 1-5.072 0L5.75 12.437v4.187c0 1.01.82 1.913 2.22 2.61 1.36.679 2.996 1.015 4.03 1.015s2.67-.336 4.03-1.014c1.4-.698 2.22-1.601 2.22-2.61v-4.188z"/></svg>