<svg width="24" height="24" fill="currentColor" viewBox="0 0 24 24" xmlns="http://www.w3.org/2000/svg"><path d="M7.24 2.25h9.52a2.75 2.75 0 0 1 2.462 1.526 1 1 0 0 1 .051.135l2.163 7.846a8.8 8.8 0 0 1 .314 2.325V19A2.75 2.75 0 0 1 19 21.75H5A2.75 2.75 0 0 1 2.25 19v-4.918c0-.785.106-1.567.314-2.325l2.163-7.846a1 1 0 0 1 .051-.135A2.75 2.75 0 0 1 7.24 2.25m13.002 11.5H3.758q-.008.165-.008.332V19A1.25 1.25 0 0 0 5 20.25h14A1.25 1.25 0 0 0 20.25 19v-4.918q0-.165-.008-.332"/><path d="M16.25 17a.75.75 0 0 1 .75-.75h1a.75.75 0 0 1 0 1.5h-1a.75.75 0 0 1-.75-.75m-4 0a.75.75 0 0 1 .75-.75h1a.75.75 0 0 1 0 1.5h-1a.75.75 0 0 1-.75-.75"/></svg>