<svg width="24" height="24" fill="currentColor" viewBox="0 0 24 24" xmlns="http://www.w3.org/2000/svg"><path d="M10.769 13h1.976l.359-2h-1.976z"/><path d="M9.367 2.25c-1.092 0-1.958 0-2.655.057-.714.058-1.317.18-1.868.46a4.75 4.75 0 0 0-2.076 2.077c-.281.55-.403 1.154-.461 1.868-.057.697-.057 1.563-.057 2.655v5.266c0 1.092 0 1.958.057 2.655.058.714.18 1.317.46 1.869a4.75 4.75 0 0 0 2.077 2.075c.55.281 1.154.403 1.868.461.697.057 1.563.057 2.655.057h5.266c1.092 0 1.958 0 2.655-.057.714-.058 1.317-.18 1.869-.46a4.75 4.75 0 0 0 2.075-2.076c.281-.552.403-1.155.461-1.869.057-.697.057-1.563.057-2.655V9.367c0-1.092 0-1.958-.057-2.655-.058-.714-.18-1.317-.46-1.868a4.75 4.75 0 0 0-2.076-2.076c-.552-.281-1.155-.403-1.869-.461-.697-.057-1.563-.057-2.655-.057zm1.67 5.012a.75.75 0 0 1 .606.87L11.397 9.5h1.976l.293-1.633a.75.75 0 0 1 1.477.266L14.897 9.5h1.385a.75.75 0 0 1 0 1.5h-1.654l-.36 2h2.014a.75.75 0 0 1 0 1.5H14l-.293 1.633a.75.75 0 0 1-1.477-.265l.246-1.368H10.5l-.293 1.633a.75.75 0 0 1-1.477-.265l.246-1.368H7.718a.75.75 0 0 1 0-1.5h1.527l.359-2H7.718a.75.75 0 0 1 0-1.5h2.155l.293-1.633a.75.75 0 0 1 .871-.605"/></svg>