<svg width="24" height="24" fill="currentColor" viewBox="0 0 24 24" xmlns="http://www.w3.org/2000/svg"><path d="M21.75 20.5a.75.75 0 0 0-.75-.75H3a.75.75 0 0 0 0 1.5h18a.75.75 0 0 0 .75-.75m0-3.5a.75.75 0 0 0-.75-.75H3a.75.75 0 0 0 0 1.5h18a.75.75 0 0 0 .75-.75M4.877 12.154 4.8 12.15H3a.75.75 0 0 0 0 1.5h1.8l.077-.004a.75.75 0 0 0 0-1.492m16 0-.077-.004H19a.75.75 0 0 0 0 1.5h1.8l.077-.004a.75.75 0 0 0 0-1.492M7.757 7.702l-.05-.056-1.278-1.279A.751.751 0 0 0 5.367 7.43l1.279 1.277.056.052a.75.75 0 0 0 1.056-1.056m-2.39-.273L6.43 6.367l-.53.531zm13.066-1.062a.75.75 0 0 0-1.06 0l-1.28 1.279a.75.75 0 1 0 1.061 1.06l1.279-1.277a.75.75 0 0 0 0-1.062M11.25 3.5v2a.75.75 0 0 0 1.5 0v-2a.75.75 0 0 0-1.5 0M12 8.75A4.25 4.25 0 0 1 16.25 13a.75.75 0 0 1-.75.75h-7a.75.75 0 0 1-.75-.75A4.25 4.25 0 0 1 12 8.75"/></svg>