<svg width="24" height="24" fill="currentColor" viewBox="0 0 24 24" xmlns="http://www.w3.org/2000/svg"><path d="M3.75 3.75a.75.75 0 0 1 .75.75v6.75h8V4.5a.75.75 0 0 1 1.5 0v15a.75.75 0 0 1-1.5 0v-6.75h-8v6.75a.75.75 0 0 1-1.5 0v-15a.75.75 0 0 1 .75-.75m11.5 5.75a.75.75 0 0 1 .75-.75h5a.75.75 0 0 1 .592 1.21l-2.687 3.461c.58.145 1.114.391 1.564.752.818.655 1.281 1.63 1.281 2.838 0 .85-.268 1.57-.738 2.12-.465.541-1.091.874-1.749 1.024-1.294.294-2.827-.095-3.818-1.187a.75.75 0 1 1 1.11-1.009c.6.661 1.568.917 2.375.733.394-.09.719-.277.943-.538.219-.255.377-.621.377-1.143 0-.794-.287-1.322-.719-1.668-.454-.364-1.146-.586-2.031-.586a.75.75 0 0 1-.592-1.21l2.56-3.297H16a.75.75 0 0 1-.75-.75"/></svg>