<svg width="24" height="24" fill="currentColor" viewBox="0 0 24 24" xmlns="http://www.w3.org/2000/svg"><path d="M10.5 13.5v-1.978l1.5-1.094 1.5 1.094V13.5a.25.25 0 0 1-.25.25h-2.5a.25.25 0 0 1-.25-.25"/><path d="M12.434 21.112a.75.75 0 0 1-.868 0l-.008-.006-.021-.015-.08-.058q-.104-.075-.295-.219a38.5 38.5 0 0 1-4.197-3.674c-1.148-1.168-2.315-2.533-3.199-3.981-.88-1.44-1.516-3.024-1.516-4.612 0-3.158 2.42-5.797 5.5-5.797 1.724 0 3.248.833 4.25 2.117 1.002-1.284 2.525-2.117 4.25-2.117 1.46 0 2.85.445 3.88 1.439 1.035 1 1.62 2.473 1.62 4.358 0 1.588-.637 3.171-1.516 4.612-.884 1.448-2.051 2.813-3.199 3.982a38.5 38.5 0 0 1-4.492 3.892l-.047.034-.033.024-.021.015zm2.258-10.578-2.25-1.64a.75.75 0 0 0-.884 0l-2.25 1.64A.75.75 0 0 0 9 11.14v2.36c0 .966.784 1.75 1.75 1.75h2.5A1.75 1.75 0 0 0 15 13.5v-2.36a.75.75 0 0 0-.308-.606"/></svg>