<svg width="24" height="24" fill="currentColor" viewBox="0 0 24 24" xmlns="http://www.w3.org/2000/svg"><path d="M10.68 2.105a2.63 2.63 0 0 1 2.64 0l.001.001 6.611 3.8A2.65 2.65 0 0 1 21.25 8.2v7.603a2.66 2.66 0 0 1-1.318 2.291l-.003.002-6.608 3.799h-.002a2.63 2.63 0 0 1-2.639 0h-.001l-6.608-3.8h-.003A2.64 2.64 0 0 1 2.75 15.8V8.198a2.66 2.66 0 0 1 1.318-2.291l.003-.002zm1.621 14.019.005-.003.009-.006.032-.022.117-.081a15 15 0 0 0 1.628-1.341c.444-.427.91-.938 1.27-1.492.354-.545.648-1.2.648-1.898 0-.782-.262-1.443-.767-1.902-.494-.449-1.136-.629-1.764-.629a2.52 2.52 0 0 0-1.594.565A2.531 2.531 0 0 0 7.76 11.28c0 .698.294 1.353.648 1.898.36.554.826 1.065 1.27 1.491a15 15 0 0 0 1.745 1.423l.032.022.01.006.004.003a.75.75 0 0 0 .832 0"/></svg>