<svg width="24" height="24" fill="currentColor" viewBox="0 0 24 24" xmlns="http://www.w3.org/2000/svg"><path d="M5 9c0-.581.19-1.14.398-1.61.212-.476.49-.959.734-1.386.256-.448.478-.84.641-1.207C6.94 4.423 7 4.169 7 4a1 1 0 0 1 2 0c0 .581-.19 1.14-.398 1.61-.212.476-.49.959-.734 1.386-.256.448-.478.84-.641 1.207C7.06 8.577 7 8.831 7 9a1 1 0 0 1-2 0m5 0c0-.581.19-1.14.398-1.61.212-.476.49-.959.734-1.386.256-.448.478-.84.641-1.207C11.94 4.423 12 4.169 12 4a1 1 0 1 1 2 0c0 .581-.19 1.14-.398 1.61-.212.476-.49.959-.734 1.386-.256.448-.478.84-.641 1.207C12.06 8.577 12 8.831 12 9a1 1 0 1 1-2 0m5 0c0-.581.19-1.14.398-1.61.212-.476.49-.959.734-1.386.256-.448.478-.84.641-1.207C16.94 4.423 17 4.169 17 4a1 1 0 1 1 2 0c0 .581-.19 1.14-.398 1.61-.212.476-.49.959-.734 1.386-.256.448-.478.84-.641 1.207C17.06 8.577 17 8.831 17 9a1 1 0 1 1-2 0m5.5 12a1 1 0 1 1-2 0v-1.5h-13V21a1 1 0 1 1-2 0v-7.4c0-.628.085-1.38.617-1.931.54-.56 1.3-.669 1.983-.669h11.8c.683 0 1.442.109 1.983.669.532.552.617 1.303.617 1.93z"/></svg>