<svg width="24" height="24" fill="currentColor" viewBox="0 0 24 24" xmlns="http://www.w3.org/2000/svg"><path d="m12.857 4.06 5.866 4.817c.33.27.527.686.527 1.13v8.803c0 .814-.638 1.44-1.383 1.44H15.25V15.5a2.75 2.75 0 0 0-2.75-2.75h-1a2.75 2.75 0 0 0-2.75 2.75v4.75H6.133c-.745 0-1.383-.626-1.383-1.44v-8.802c0-.445.197-.86.527-1.13l5.866-4.819a1.34 1.34 0 0 1 1.714 0m5.01 17.69c1.61 0 2.883-1.335 2.883-2.94v-8.802a2.96 2.96 0 0 0-1.075-2.29L13.81 2.9a2.84 2.84 0 0 0-3.618 0L4.325 7.718a2.96 2.96 0 0 0-1.075 2.29v8.802c0 1.605 1.273 2.94 2.883 2.94z"/></svg>