<svg width="24" height="24" fill="currentColor" viewBox="0 0 24 24" xmlns="http://www.w3.org/2000/svg"><path d="M10.191 2.9a2.84 2.84 0 0 1 3.618 0l5.866 4.818a2.96 2.96 0 0 1 1.075 2.29v8.802c0 1.605-1.273 2.94-2.883 2.94H6.133c-1.61 0-2.883-1.335-2.883-2.94v-8.802c0-.886.392-1.73 1.075-2.29zm.059 8.1a.75.75 0 1 0-1.5 0v.5a.75.75 0 0 0 1.5 0zm5 0a.75.75 0 1 0-1.5 0v.5a.75.75 0 0 0 1.5 0zm-5.803 4.398a.75.75 0 1 0-.894 1.204A5.77 5.77 0 0 0 12 17.75a5.77 5.77 0 0 0 3.447-1.148.75.75 0 0 0-.894-1.204A4.27 4.27 0 0 1 12 16.25a4.27 4.27 0 0 1-2.553-.852"/></svg>