<svg width="24" height="24" fill="currentColor" viewBox="0 0 24 24" xmlns="http://www.w3.org/2000/svg"><path d="M14.407 12.198c-.65-.492-1.487-.948-2.407-.948s-1.758.456-2.407.948a9.4 9.4 0 0 0-1.29 1.21l-.322.373c-.698.848-.015 1.969.95 1.969h.319v4.5H6.5a.75.75 0 0 1-.75-.75V3.75h12.5V19.5a.75.75 0 0 1-.75.75h-2.75v-4.5h.318c.966 0 1.65-1.12.95-1.969-.384-.467-.947-1.08-1.61-1.583M7.5 9.75a.75.75 0 0 0 1.5 0v-.5a.75.75 0 0 0-1.5 0zm2.5 0a.75.75 0 0 0 1.5 0v-.5a.75.75 0 0 0-1.5 0zm2.5 0a.75.75 0 0 0 1.5 0v-.5a.75.75 0 0 0-1.5 0zm2.5 0a.75.75 0 0 0 1.5 0v-.5a.75.75 0 0 0-1.5 0zM7.5 6.5a.75.75 0 0 0 1.5 0V6a.75.75 0 0 0-1.5 0zm2.5 0a.75.75 0 0 0 1.5 0V6A.75.75 0 0 0 10 6zm2.5 0a.75.75 0 0 0 1.5 0V6a.75.75 0 0 0-1.5 0zm2.5 0a.75.75 0 0 0 1.5 0V6A.75.75 0 0 0 15 6z"/><path d="M17.5 21.75h-11a2.25 2.25 0 0 1-2.25-2.25V3.75H3a.75.75 0 0 1 0-1.5h18a.75.75 0 0 1 0 1.5h-1.25V19.5a2.25 2.25 0 0 1-2.25 2.25M12 11.25c.92 0 1.758.456 2.407.948.664.503 1.227 1.116 1.612 1.583.698.848.015 1.969-.95 1.969h-.319v4.5h2.75a.75.75 0 0 0 .75-.75V3.75H5.75V19.5c0 .414.336.75.75.75h2.75v-4.5h-.318c-.966 0-1.65-1.12-.95-1.969l.32-.374a9.4 9.4 0 0 1 1.29-1.209c.65-.492 1.488-.948 2.408-.948m1.25 9v-4.5h-2.5v4.5zM12 12.75c-.438 0-.954.229-1.502.644-.34.257-.654.562-.93.856h4.864c-.276-.294-.59-.6-.93-.856-.548-.415-1.064-.644-1.502-.644"/></svg>