<svg width="24" height="24" fill="currentColor" viewBox="0 0 24 24" xmlns="http://www.w3.org/2000/svg"><path d="M8.937 2.25a2.3 2.3 0 0 0-.9.158c-.299.122-.54.31-.762.53L2.938 7.275c-.213.214-.4.45-.525.748a2.3 2.3 0 0 0-.163.914v6.126c0 .302.036.602.158.9s.31.54.53.762l4.337 4.337c.214.213.45.4.748.524.298.125.601.164.914.164h6.126c.302 0 .602-.035.9-.158.299-.122.54-.31.762-.53l4.337-4.337c.213-.214.4-.45.524-.748a2.3 2.3 0 0 0 .164-.914V8.937a2.3 2.3 0 0 0-.158-.9 2.3 2.3 0 0 0-.53-.762l-4.337-4.337a2.3 2.3 0 0 0-.762-.53 2.3 2.3 0 0 0-.9-.158zm3.063 5a.75.75 0 0 1 .75.75v.5a.75.75 0 0 1-1.5 0V8a.75.75 0 0 1 .75-.75M10.75 16a.75.75 0 0 1 .5-.707v-3.586a.75.75 0 0 1 .25-1.457h.5a.75.75 0 0 1 .75.75v4.293a.75.75 0 0 1-.25 1.457h-1a.75.75 0 0 1-.75-.75"/></svg>