<svg width="24" height="24" fill="currentColor" viewBox="0 0 24 24" xmlns="http://www.w3.org/2000/svg"><path d="M4.608 4.367c.867-.117 1.97-.117 3.337-.117h8.11c1.367 0 2.47 0 3.337.117.9.12 1.658.38 2.26.981.602.602.86 1.36.982 2.26.116.867.116 1.97.116 3.337v2.11c0 1.367 0 2.47-.116 3.337-.122.9-.38 1.658-.982 2.26s-1.36.86-2.26.982c-.867.116-1.97.116-3.337.116h-8.11c-1.367 0-2.47 0-3.337-.116-.9-.122-1.658-.38-2.26-.982s-.86-1.36-.981-2.26c-.117-.867-.117-1.97-.117-3.337v-2.11c0-1.367 0-2.47.117-3.337.12-.9.38-1.658.981-2.26.602-.602 1.36-.86 2.26-.981M5 8.25a.75.75 0 0 0 0 1.5h3a.75.75 0 0 0 0-1.5zm6 0a.75.75 0 0 0 0 1.5h3a.75.75 0 1 0 0-1.5zm6 0a.75.75 0 0 0 0 1.5h2a.75.75 0 0 0 0-1.5zm-12 3a.75.75 0 0 0 0 1.5h2a.75.75 0 0 0 0-1.5zm5 0a.75.75 0 0 0 0 1.5h3a.75.75 0 0 0 0-1.5zm6 0a.75.75 0 0 0 0 1.5h3a.75.75 0 0 0 0-1.5zm-9 4a.75.75 0 0 0 0 1.5h10a.75.75 0 0 0 0-1.5z"/></svg>