<svg width="24" height="24" fill="currentColor" viewBox="0 0 24 24" xmlns="http://www.w3.org/2000/svg"><path d="M10.79 1.49a3.16 3.16 0 0 1 3.445.687l7.588 7.588a3.16 3.16 0 0 1 0 4.47l-7.588 7.588a3.16 3.16 0 0 1-4.47 0l-7.588-7.588a3.16 3.16 0 0 1 0-4.47l7.588-7.589a3.2 3.2 0 0 1 1.025-.685m-.29 5.76A1.75 1.75 0 0 0 8.75 9v.984c0 .92.56 1.748 1.414 2.09l3.114 1.245a.75.75 0 0 1 .472.696V15a.25.25 0 0 1-.25.25h-3a.25.25 0 0 1-.25-.25v-.25a.75.75 0 0 0-1.5 0V15c0 .966.784 1.75 1.75 1.75h3A1.75 1.75 0 0 0 15.25 15v-.985c0-.92-.56-1.747-1.414-2.088l-3.114-1.246a.75.75 0 0 1-.472-.697V9a.25.25 0 0 1 .25-.25h3a.25.25 0 0 1 .25.25v.25a.75.75 0 0 0 1.5 0V9a1.75 1.75 0 0 0-1.75-1.75z"/></svg>