<svg width="24" height="24" fill="currentColor" viewBox="0 0 24 24" xmlns="http://www.w3.org/2000/svg"><path d="M13.25 11.25H10.5v-2.5h2.75a.75.75 0 0 1 .75.75v1a.75.75 0 0 1-.75.75"/><path d="M10.68 2.105a2.63 2.63 0 0 1 2.64 0l.001.001 6.611 3.8A2.65 2.65 0 0 1 21.25 8.2v7.603a2.66 2.66 0 0 1-1.318 2.291l-.003.002-6.608 3.799h-.002a2.63 2.63 0 0 1-2.639 0h-.001l-6.608-3.8h-.003A2.64 2.64 0 0 1 2.75 15.8V8.198a2.66 2.66 0 0 1 1.318-2.291l.003-.002zm-.43 5.145C9.56 7.25 9 7.81 9 8.5V16a.75.75 0 0 0 1.5 0v-3.25h.625l2.775 3.7a.75.75 0 1 0 1.2-.9l-2.1-2.8h.25a2.25 2.25 0 0 0 2.25-2.25v-1a2.25 2.25 0 0 0-2.25-2.25z"/></svg>