<svg width="24" height="24" fill="currentColor" viewBox="0 0 24 24" xmlns="http://www.w3.org/2000/svg"><path d="M10.68 2.105a2.63 2.63 0 0 1 2.64 0l.001.001 6.611 3.8A2.65 2.65 0 0 1 21.25 8.2v7.603a2.66 2.66 0 0 1-1.318 2.291l-.003.002-6.608 3.799h-.002a2.63 2.63 0 0 1-2.639 0h-.001l-6.608-3.8h-.003A2.64 2.64 0 0 1 2.75 15.8V8.198a2.66 2.66 0 0 1 1.318-2.291l.003-.002zM10.5 7.25A1.75 1.75 0 0 0 8.75 9v.984c0 .92.56 1.748 1.414 2.09l3.114 1.245a.75.75 0 0 1 .472.696V15a.25.25 0 0 1-.25.25h-3a.25.25 0 0 1-.25-.25v-.25a.75.75 0 0 0-1.5 0V15c0 .966.784 1.75 1.75 1.75h3A1.75 1.75 0 0 0 15.25 15v-.985c0-.92-.56-1.747-1.414-2.088l-3.114-1.246a.75.75 0 0 1-.472-.697V9a.25.25 0 0 1 .25-.25h3a.25.25 0 0 1 .25.25v.25a.75.75 0 0 0 1.5 0V9a1.75 1.75 0 0 0-1.75-1.75z"/></svg>