<svg width="24" height="24" fill="currentColor" viewBox="0 0 24 24" xmlns="http://www.w3.org/2000/svg"><path d="M9.75 10c0-.69.56-1.25 1.25-1.25h2c.69 0 1.25.56 1.25 1.25v4c0 .69-.56 1.25-1.25 1.25h-2c-.69 0-1.25-.56-1.25-1.25z"/><path d="M10.79 1.49a3.16 3.16 0 0 1 3.445.687l7.588 7.588a3.16 3.16 0 0 1 0 4.47l-7.588 7.588a3.16 3.16 0 0 1-4.47 0l-7.588-7.588a3.16 3.16 0 0 1 0-4.47l7.588-7.589a3.2 3.2 0 0 1 1.025-.685M11 7.25A2.75 2.75 0 0 0 8.25 10v4A2.75 2.75 0 0 0 11 16.75h2A2.75 2.75 0 0 0 15.75 14v-4A2.75 2.75 0 0 0 13 7.25z"/></svg>