<svg width="24" height="24" fill="currentColor" viewBox="0 0 24 24" xmlns="http://www.w3.org/2000/svg"><path d="M14.241 9.8c.064.602-.204 1.191-.761 1.45h-3.23v-2.5h2.921c.62 0 1.005.425 1.07 1.05m-3.991 5.45v-2.5h3.23c.557.259.825.848.761 1.45-.065.625-.45 1.05-1.07 1.05z"/><path d="M10.68 2.105a2.63 2.63 0 0 1 2.64 0l.001.001 6.611 3.8A2.65 2.65 0 0 1 21.25 8.2v7.603a2.66 2.66 0 0 1-1.318 2.291l-.003.002-6.608 3.799h-.002a2.63 2.63 0 0 1-2.639 0h-.001l-6.608-3.8h-.003A2.64 2.64 0 0 1 2.75 15.8V8.198a2.66 2.66 0 0 1 1.318-2.291l.003-.002zM9.5 7.25a.75.75 0 0 0-.75.75v8c0 .414.336.75.75.75h3.671c1.572 0 2.437-1.204 2.562-2.393.085-.806-.153-1.706-.767-2.357.614-.651.852-1.551.767-2.357-.125-1.19-.99-2.393-2.562-2.393z"/></svg>