<svg width="24" height="24" fill="currentColor" viewBox="0 0 24 24" xmlns="http://www.w3.org/2000/svg"><path d="M10.25 6A2.25 2.25 0 0 0 8 8.25v1.23c0 1.176.716 2.233 1.807 2.67l3.893 1.557c.332.133.55.455.55.812v1.231A.25.25 0 0 1 14 16h-3.75a.25.25 0 0 1-.25-.25v-.312a1 1 0 1 0-2 0v.312A2.25 2.25 0 0 0 10.25 18H14a2.25 2.25 0 0 0 2.25-2.25v-1.23a2.875 2.875 0 0 0-1.807-2.67l-3.893-1.557a.875.875 0 0 1-.55-.812V8.25a.25.25 0 0 1 .25-.25H14a.25.25 0 0 1 .25.25v.313a1 1 0 1 0 2 0V8.25A2.25 2.25 0 0 0 14 6z"/></svg>