<svg width="24" height="24" fill="currentColor" viewBox="0 0 24 24" xmlns="http://www.w3.org/2000/svg"><path d="M10.79 1.49a3.16 3.16 0 0 1 3.445.687l7.588 7.588a3.16 3.16 0 0 1 0 4.47l-7.588 7.588a3.16 3.16 0 0 1-4.47 0l-7.588-7.588a3.16 3.16 0 0 1 0-4.47l7.588-7.589a3.2 3.2 0 0 1 1.025-.685m-.54 8.01a.75.75 0 0 1 .75-.75h2a.75.75 0 0 1 .75.75.75.75 0 0 0 1.5 0A2.25 2.25 0 0 0 13 7.25h-2A2.25 2.25 0 0 0 8.75 9.5v5A2.25 2.25 0 0 0 11 16.75h3c.69 0 1.25-.56 1.25-1.25v-3c0-.69-.56-1.25-1.25-1.25h-1.167a.75.75 0 0 0 0 1.5h.917v2.5H11a.75.75 0 0 1-.75-.75z"/></svg>