<svg width="24" height="24" fill="currentColor" viewBox="0 0 24 24" xmlns="http://www.w3.org/2000/svg"><path d="M19.468 4.532c-1.03-1.031-2.652-1.033-3.62-.062l-4.382 4.384c-.97.97-.97 2.594.063 3.626a.75.75 0 0 1-1.061 1.06c-1.59-1.59-1.646-4.163-.063-5.746l4.381-4.385c1.582-1.583 4.153-1.528 5.743.063s1.645 4.164.063 5.747l-3.803 3.806a.75.75 0 1 1-1.062-1.06l3.804-3.807c.97-.97.968-2.594-.063-3.626m-6.935 5.864a.75.75 0 0 1 1.06 0c1.592 1.591 1.646 4.164.064 5.747l-.027.026-.035.037-4.38 4.385c-1.583 1.583-4.154 1.528-5.744-.063s-1.644-4.164-.063-5.747l3.804-3.806a.75.75 0 0 1 1.06 1.06L4.47 15.842c-.97.97-.968 2.594.063 3.626 1.03 1.031 2.652 1.033 3.621.062l4.38-4.384.028-.026.035-.037c.97-.97.97-2.594-.063-3.626a.75.75 0 0 1 0-1.06"/></svg>