<svg width="24" height="24" fill="currentColor" viewBox="0 0 24 24" xmlns="http://www.w3.org/2000/svg"><path d="M8.75 8c0-1.283.29-2.36.822-3.096.51-.703 1.28-1.154 2.428-1.154.883 0 1.53.267 2.004.685.485.427.843 1.058 1.049 1.865a.75.75 0 1 0 1.453-.371c-.26-1.02-.745-1.946-1.51-2.62C14.22 2.627 13.212 2.25 12 2.25c-1.613 0-2.842.668-3.643 1.775C7.58 5.099 7.25 6.522 7.25 8v1.25h-.58c-.535 0-.98 0-1.345.03-.38.031-.736.098-1.073.27a2.75 2.75 0 0 0-1.202 1.202c-.172.337-.24.694-.27 1.074-.03.364-.03.81-.03 1.344v4.66c0 .535 0 .98.03 1.345.03.38.098.737.27 1.074a2.75 2.75 0 0 0 1.202 1.202c.337.172.693.239 1.073.27.365.03.81.03 1.345.03h10.66c.535 0 .98 0 1.345-.03.38-.031.736-.098 1.073-.27a2.75 2.75 0 0 0 1.202-1.202c.172-.337.24-.694.27-1.074.03-.364.03-.81.03-1.344V13.17c0-.534 0-.98-.03-1.344-.03-.38-.098-.737-.27-1.074a2.75 2.75 0 0 0-1.2-1.202c-.338-.172-.694-.239-1.074-.27-.365-.03-.81-.03-1.345-.03H8.75z"/></svg>