<svg width="24" height="24" fill="currentColor" viewBox="0 0 24 24" xmlns="http://www.w3.org/2000/svg"><path d="M12.453 3.578a2.25 2.25 0 0 0-.907 0c-.311.065-.62.227-1.514.724L3.8 7.767l5.955 3.972c1.01.674 1.362.895 1.721.981a2.25 2.25 0 0 0 1.05 0c.358-.086.71-.307 1.722-.982l5.954-3.971-6.234-3.465c-.893-.497-1.202-.66-1.514-.724m-1.21-1.468a3.75 3.75 0 0 1 1.512 0c.565.117 1.086.406 1.84.826l.1.056 7.308 4.062a.75.75 0 0 1 .386.655v7.02c0 .814 0 1.47-.044 2-.044.547-.139 1.027-.365 1.471a3.75 3.75 0 0 1-1.639 1.639c-.444.226-.924.32-1.47.365-.532.044-1.187.044-2 .044H7.128c-.813 0-1.469 0-2-.044-.546-.044-1.026-.139-1.47-.365a3.75 3.75 0 0 1-1.64-1.639c-.226-.444-.32-.924-.365-1.47-.043-.532-.043-1.187-.043-2V7.71a.75.75 0 0 1 .385-.656L9.303 2.99q.051-.03.101-.056c.754-.42 1.275-.71 1.84-.826"/></svg>