<svg width="24" height="24" fill="currentColor" viewBox="0 0 24 24" xmlns="http://www.w3.org/2000/svg"><path d="M7.125 3.75h9.75c.813 0 1.468 0 2 .043.546.045 1.026.14 1.47.366a3.75 3.75 0 0 1 1.64 1.639c.226.444.32.924.365 1.47q.01.12.016.247a.75.75 0 0 1 .014.336c.013.41.013.879.013 1.417v5.464c0 .813 0 1.469-.043 2-.045.546-.14 1.026-.366 1.47a3.75 3.75 0 0 1-1.639 1.64c-.444.226-.924.32-1.47.365-.532.043-1.187.043-2 .043h-9.75c-.813 0-1.468 0-2-.043-.546-.045-1.026-.14-1.47-.366a3.75 3.75 0 0 1-1.639-1.639c-.226-.444-.32-.924-.365-1.47-.044-.531-.044-1.187-.044-2V9.268c0-.538 0-1.007.013-1.417a.75.75 0 0 1 .014-.336q.007-.128.017-.246c.044-.547.139-1.027.365-1.471a3.75 3.75 0 0 1 1.639-1.64c.444-.226.924-.32 1.47-.365.532-.043 1.187-.043 2-.043M20.85 7.341c-.038-.423-.105-.672-.202-.862a2.25 2.25 0 0 0-.983-.984c-.198-.1-.459-.17-.913-.207-.462-.037-1.057-.038-1.909-.038H7.157c-.852 0-1.446 0-1.91.038-.453.037-.714.107-.911.207a2.25 2.25 0 0 0-.984.984c-.096.19-.164.439-.202.862l6.604 4.403c1.01.674 1.363.895 1.722.981a2.25 2.25 0 0 0 1.048 0c.36-.086.711-.307 1.723-.981z"/></svg>