<svg width="24" height="24" fill="currentColor" viewBox="0 0 24 24" xmlns="http://www.w3.org/2000/svg"><path d="M18.286 3.843A8.77 8.77 0 0 0 12 1.167a8.77 8.77 0 0 0-6.286 2.676c-3.06 3.147-3.04 6.919-1.63 10.288 1.393 3.33 4.163 6.363 6.822 8.339a1.83 1.83 0 0 0 2.188 0c2.66-1.976 5.43-5.01 6.822-8.34 1.41-3.368 1.43-7.14-1.63-10.287M14.59 7.41a.83.83 0 0 1 0 1.178L13.178 10l1.41 1.411.059.063a.833.833 0 0 1-1.173 1.172l-.063-.057-1.41-1.411-1.412 1.41a.832.832 0 1 1-1.178-1.177L10.822 10l-1.41-1.411-.058-.063a.833.833 0 0 1 1.172-1.172l.063.057L12 8.822l1.411-1.41a.83.83 0 0 1 1.178 0"/></svg>