<svg width="24" height="24" fill="currentColor" viewBox="0 0 24 24" xmlns="http://www.w3.org/2000/svg"><path d="M12 1.167c2.363 0 4.623.965 6.286 2.676 3.06 3.147 3.04 6.919 1.63 10.288-1.393 3.33-4.163 6.363-6.822 8.339a1.83 1.83 0 0 1-2.188 0c-2.66-1.976-5.43-5.01-6.822-8.34-1.41-3.368-1.43-7.14 1.63-10.287A8.77 8.77 0 0 1 12 1.167m1.979 6.429a.83.83 0 0 0-.729-.429h-2.5a.833.833 0 1 0 0 1.666h.996l-1.703 2.726a.834.834 0 0 0 .707 1.274h2.5a.833.833 0 0 0 .085-1.662l-.085-.004h-.996l1.703-2.726a.83.83 0 0 0 .022-.845"/></svg>