<svg width="24" height="24" fill="currentColor" viewBox="0 0 24 24" xmlns="http://www.w3.org/2000/svg"><path d="M11.953 2.25c-2.317 0-4.118 0-5.52.15-1.418.153-2.541.47-3.437 1.186-.92.736-1.35 1.693-1.553 2.9-.193 1.152-.193 2.618-.193 4.446v.183c0 1.782 0 3.015.2 3.934.108.495.278.925.545 1.323.264.392.6.722 1.001 1.042.631.505 1.375.81 2.254 1V21a.75.75 0 0 0 1.123.65c.586-.335 1.105-.7 1.58-1.044l.304-.221a22 22 0 0 1 1.036-.73c.844-.548 1.65-.905 2.707-.905h.047c2.317 0 4.118 0 5.52-.15 1.418-.153 2.541-.47 3.437-1.186.4-.32.737-.65 1-1.042.268-.398.438-.828.546-1.323.2-.919.2-2.152.2-3.934v-.183c0-1.828 0-3.294-.193-4.445-.203-1.208-.633-2.165-1.553-2.901-.896-.717-2.019-1.033-3.437-1.185-1.402-.151-3.203-.151-5.52-.151zM9.47 7.97a.75.75 0 0 1 1.06 0L12 9.44l1.47-1.47a.75.75 0 1 1 1.06 1.06l-1.47 1.47 1.47 1.47a.75.75 0 1 1-1.06 1.06L12 11.56l-1.47 1.47a.75.75 0 1 1-1.06-1.06l1.47-1.47-1.47-1.47a.75.75 0 0 1 0-1.06"/></svg>