<svg width="24" height="24" fill="currentColor" viewBox="0 0 24 24" xmlns="http://www.w3.org/2000/svg"><path d="M6.433 2.4c1.402-.15 3.203-.15 5.52-.15h.094c2.317 0 4.118 0 5.52.15 1.418.153 2.541.47 3.437 1.186.92.736 1.35 1.693 1.553 2.9.193 1.152.193 2.618.193 4.446v.183c0 1.782 0 3.015-.2 3.934a3.7 3.7 0 0 1-.545 1.323c-.264.392-.6.722-1 1.042-.897.717-2.02 1.033-3.438 1.185-1.402.151-3.203.151-5.52.151H12c-1.056 0-1.863.357-2.707.906-.342.221-.675.464-1.036.729l-.304.22c-.475.345-.994.71-1.58 1.046A.75.75 0 0 1 5.25 21v-2.585c-.879-.19-1.623-.496-2.254-1-.4-.321-.737-.65-1-1.043a3.7 3.7 0 0 1-.546-1.323c-.2-.919-.2-2.152-.2-3.934v-.183c0-1.828 0-3.294.193-4.445.203-1.208.633-2.165 1.553-2.901.896-.717 2.019-1.033 3.437-1.185m2.317 8.1a.75.75 0 0 0-1.5 0v.5a.75.75 0 0 0 1.5 0zm4 0a.75.75 0 0 0-1.5 0v.5a.75.75 0 0 0 1.5 0zm4 0a.75.75 0 0 0-1.5 0v.5a.75.75 0 0 0 1.5 0z"/></svg>