<svg width="24" height="24" fill="currentColor" viewBox="0 0 24 24" xmlns="http://www.w3.org/2000/svg"><path d="M5.5 2.25A1.75 1.75 0 0 0 3.75 4v3c0 .966.784 1.75 1.75 1.75h10A1.75 1.75 0 0 0 17.25 7v-.75h.25c.483 0 .815.09 1.003.213.14.092.247.225.247.537v2c0 .69-.56 1.25-1.25 1.25h-7A1.75 1.75 0 0 0 8.75 12v8c0 .966.784 1.75 1.75 1.75h1a.75.75 0 0 0 0-1.5h-1a.25.25 0 0 1-.25-.25v-8a.25.25 0 0 1 .25-.25h7A2.75 2.75 0 0 0 20.25 9V7c0-.792-.34-1.41-.925-1.792-.536-.35-1.204-.458-1.825-.458h-.25V4a1.75 1.75 0 0 0-1.75-1.75z"/></svg>