<svg width="24" height="24" fill="currentColor" viewBox="0 0 24 24" xmlns="http://www.w3.org/2000/svg"><path d="M10.68 2.105a2.63 2.63 0 0 1 2.64 0l.001.001 6.611 3.8A2.65 2.65 0 0 1 21.25 8.2v7.603a2.66 2.66 0 0 1-1.318 2.291l-.003.002-6.608 3.799h-.002a2.63 2.63 0 0 1-2.639 0h-.001l-6.608-3.8h-.003A2.64 2.64 0 0 1 2.75 15.8V8.198a2.66 2.66 0 0 1 1.318-2.291l.003-.002zm-.65 6.865a.75.75 0 1 0-1.06 1.06l.353.354a.75.75 0 1 0 1.06-1.06zm3.59 4.65a.75.75 0 0 0 0 1.06l.353.354a.75.75 0 0 0 1.06-1.06l-.353-.354a.75.75 0 0 0-1.06 0m1.41-3.59a.75.75 0 1 0-1.06-1.06l-5 5a.75.75 0 1 0 1.06 1.06z"/></svg>