<svg width="24" height="24" fill="currentColor" viewBox="0 0 24 24" xmlns="http://www.w3.org/2000/svg"><path d="M14.102 2.664c.628-.416 1.692-.713 2.495.09l4.647 4.648c.806.804.508 1.868.091 2.495a2.95 2.95 0 0 1-.863.85c-.334.213-.756.374-1.211.35a9 9 0 0 1-.658-.071l-.068-.01a9 9 0 0 0-.707-.073c-.504-.025-.698.06-.76.12l-2.49 2.491c-.08.08-.18.258-.256.6-.073.33-.105.736-.113 1.186-.007.432.008.874.024 1.3l.001.047c.015.423.03.855.009 1.194-.065 1.031-.868 1.79-1.658 2.141-.79.35-1.917.437-2.7-.347l-2.25-2.25L3.53 21.53a.75.75 0 1 1-1.06-1.06l4.104-4.105-2.25-2.25c-.783-.784-.697-1.91-.346-2.7.35-.79 1.11-1.593 2.14-1.658.34-.021.772-.006 1.195.009l.047.001c.426.015.868.031 1.3.024.45-.008.856-.04 1.186-.113.342-.076.52-.177.6-.257l2.49-2.49c.061-.061.146-.256.12-.76a9 9 0 0 0-.073-.707l-.009-.068a9 9 0 0 1-.071-.658c-.025-.455.136-.877.348-1.211.216-.34.515-.64.851-.863"/></svg>