<svg width="24" height="24" fill="currentColor" viewBox="0 0 24 24" xmlns="http://www.w3.org/2000/svg"><path d="M2.25 12c0 5.385 4.365 9.75 9.75 9.75s9.75-4.365 9.75-9.75S17.385 2.25 12 2.25 2.25 6.615 2.25 12m4.999-3.331c1.049-1.557 2.99-2.576 5.78-2.18 1.608.23 2.78 1.039 3.517 2.135.726 1.08 1.006 2.398.93 3.647-.076 1.247-.51 2.489-1.295 3.412-.8.94-1.96 1.54-3.388 1.435-.84-.06-1.483-.41-1.943-.923-.375 1.53-.762 3.138-1.08 4.48a.75.75 0 1 1-1.46-.347 645 645 0 0 1 1.6-6.587c-.095-1.002.037-1.995.198-2.562a2.2 2.2 0 0 1 .317-.7c.068-.09.186-.227.368-.318a.83.83 0 0 1 .834.05c.237.16.325.391.36.51.039.137.05.275.05.395 0 .243-.045.53-.129.85-.134.516-.297 1.157-.476 1.872.073.5.218.929.437 1.234.217.301.526.514 1.033.55.9.066 1.612-.293 2.136-.91.54-.635.88-1.55.94-2.531.06-.979-.165-1.959-.677-2.72-.5-.745-1.297-1.318-2.483-1.486-2.281-.324-3.63.5-4.326 1.532-.736 1.092-.792 2.474-.367 3.342a.75.75 0 0 1-1.346.66c-.683-1.393-.54-3.344.47-4.84"/></svg>