<svg width="24" height="24" fill="currentColor" viewBox="0 0 24 24" xmlns="http://www.w3.org/2000/svg"><path d="M8.037 2.408a2.3 2.3 0 0 1 .9-.158h6.126c.302 0 .602.036.9.158s.54.31.762.53l4.337 4.337c.22.221.408.463.53.762.123.298.158.598.158.9v6.126c0 .313-.039.616-.163.914a2.3 2.3 0 0 1-.525.748l-4.337 4.337a2.3 2.3 0 0 1-.762.53 2.3 2.3 0 0 1-.9.158H8.937c-.313 0-.616-.039-.914-.163a2.3 2.3 0 0 1-.748-.525l-4.337-4.337a2.3 2.3 0 0 1-.53-.762 2.3 2.3 0 0 1-.158-.9V8.937c0-.313.039-.616.163-.914a2.3 2.3 0 0 1 .525-.748l4.337-4.337c.221-.22.463-.408.762-.53m4.518 6.9c-.292-.177-.6-.365-.88-.465a1.4 1.4 0 0 0-.586-.09 1.2 1.2 0 0 0-.632.24c-.368.278-.504.672-.569 1.01-.061.314-.084.711-.109 1.144l-.003.046c-.015.276-.026.553-.026.807s.01.531.026.807l.003.046c.025.433.048.83.109 1.145.065.337.2.731.57 1.008.18.136.392.223.63.24.225.017.426-.031.588-.09.278-.1.587-.287.879-.465l.048-.03a9 9 0 0 0 1.113-.789l.04-.033c.301-.245.599-.488.811-.735.254-.295.433-.648.433-1.104s-.18-.809-.433-1.104c-.212-.247-.51-.49-.81-.735l-.04-.033a10 10 0 0 0-.582-.445 10 10 0 0 0-.532-.345z"/></svg>