<svg width="24" height="24" fill="currentColor" viewBox="0 0 24 24" xmlns="http://www.w3.org/2000/svg"><path d="M10.79 1.49a3.16 3.16 0 0 1 3.445.687l7.588 7.588a3.16 3.16 0 0 1 0 4.47l-7.588 7.588a3.16 3.16 0 0 1-4.47 0l-7.588-7.588a3.16 3.16 0 0 1 0-4.47l7.588-7.589a3.2 3.2 0 0 1 1.025-.685m1.765 7.819c-.292-.178-.6-.366-.88-.466a1.4 1.4 0 0 0-.586-.09 1.2 1.2 0 0 0-.632.24c-.368.278-.504.672-.569 1.01-.061.314-.084.711-.109 1.144l-.003.046c-.015.276-.026.553-.026.807s.01.531.026.807l.003.046c.025.433.048.83.109 1.145.065.337.2.731.57 1.008.18.136.392.223.63.24.225.017.426-.031.588-.09.278-.1.587-.287.879-.465l.048-.03a9 9 0 0 0 1.113-.789l.04-.033c.301-.245.599-.488.811-.735.254-.295.433-.648.433-1.104s-.18-.809-.433-1.104c-.212-.247-.51-.49-.81-.735l-.04-.033a10 10 0 0 0-.582-.445 10 10 0 0 0-.532-.345z"/></svg>