<svg width="24" height="24" fill="currentColor" viewBox="0 0 24 24" xmlns="http://www.w3.org/2000/svg"><path d="m12.503 7.01-.066-.04c-.748-.455-1.406-.856-1.97-1.058a2.4 2.4 0 0 0-.976-.157 1.8 1.8 0 0 0-.963.37c-.579.434-.829 1.073-.966 1.78-.133.685-.184 1.577-.247 2.663l-.003.056c-.038.65-.062 1.293-.062 1.876s.024 1.227.062 1.877l.003.055c.063 1.086.114 1.978.247 2.662.137.708.387 1.346.966 1.781.286.215.607.343.963.37.342.025.67-.047.976-.157.564-.202 1.222-.603 1.97-1.057l.066-.04c.426-.26.844-.527 1.217-.79a24 24 0 0 0 1.335-1.022l.05-.041c.764-.623 1.412-1.152 1.86-1.672.488-.57.785-1.182.785-1.966s-.297-1.397-.786-1.966c-.447-.52-1.095-1.05-1.858-1.672l-.05-.041c-.454-.37-.91-.724-1.336-1.022a23 23 0 0 0-1.217-.79"/></svg>