<svg width="24" height="24" fill="currentColor" viewBox="0 0 24 24" xmlns="http://www.w3.org/2000/svg"><path d="M9.367 2.25c-1.092 0-1.958 0-2.655.057-.714.058-1.317.18-1.868.46a4.75 4.75 0 0 0-2.076 2.077c-.281.55-.403 1.154-.461 1.868-.057.697-.057 1.563-.057 2.655v5.266c0 1.092 0 1.958.057 2.655.058.714.18 1.317.46 1.869a4.75 4.75 0 0 0 2.077 2.075c.55.281 1.154.403 1.868.461.697.057 1.563.057 2.655.057h5.266c1.092 0 1.958 0 2.655-.057.714-.058 1.317-.18 1.869-.46a4.75 4.75 0 0 0 2.075-2.076c.281-.552.403-1.155.461-1.869.057-.697.057-1.563.057-2.655V9.367c0-1.092 0-1.958-.057-2.655-.058-.714-.18-1.317-.46-1.868a4.75 4.75 0 0 0-2.076-2.076c-.552-.281-1.155-.403-1.869-.461-.697-.057-1.563-.057-2.655-.057zM12 14.747a.75.75 0 0 1 .75.75v.5a.75.75 0 0 1-1.5 0v-.5a.75.75 0 0 1 .75-.75m1.872-6.814c.544.482.878 1.188.878 2.057 0 .64-.164 1.138-.45 1.543-.256.365-.588.614-.823.79l-.027.02c-.263.198-.416.32-.524.474-.09.127-.176.317-.176.68a.75.75 0 0 1-1.5 0c0-.64.164-1.14.45-1.544.256-.364.588-.613.823-.79l.027-.02c.263-.198.416-.32.524-.474.09-.127.176-.317.176-.679 0-.46-.166-.75-.372-.934a1.33 1.33 0 0 0-.878-.31c-.34 0-.657.114-.877.31-.207.183-.373.474-.373.934a.75.75 0 0 1-1.5 0c0-.869.334-1.575.877-2.057A2.83 2.83 0 0 1 12 7.246c.66 0 1.343.218 1.872.687"/></svg>