<svg width="24" height="24" fill="currentColor" viewBox="0 0 24 24" xmlns="http://www.w3.org/2000/svg"><path d="M8.937 2.25a2.3 2.3 0 0 0-.9.158c-.299.122-.54.31-.762.53L2.938 7.275c-.213.214-.4.45-.525.748a2.3 2.3 0 0 0-.163.914v6.126c0 .302.036.602.158.9s.31.54.53.762l4.337 4.337c.214.213.45.4.748.524.298.125.601.164.914.164h6.126c.302 0 .602-.035.9-.158.299-.122.54-.31.762-.53l4.337-4.337c.213-.214.4-.45.524-.748a2.3 2.3 0 0 0 .164-.914V8.937a2.3 2.3 0 0 0-.158-.9 2.3 2.3 0 0 0-.53-.762l-4.337-4.337a2.3 2.3 0 0 0-.762-.53 2.3 2.3 0 0 0-.9-.158zM12 14.747a.75.75 0 0 1 .75.75v.5a.75.75 0 0 1-1.5 0v-.5a.75.75 0 0 1 .75-.75m1.872-6.814c.544.482.878 1.188.878 2.057 0 .64-.164 1.138-.45 1.543-.256.365-.588.614-.823.79l-.027.02c-.263.198-.416.32-.524.474-.09.127-.176.317-.176.68a.75.75 0 0 1-1.5 0c0-.64.164-1.14.45-1.544.256-.364.588-.613.823-.79l.027-.02c.263-.198.416-.32.524-.474.09-.127.176-.317.176-.679 0-.46-.166-.75-.372-.934a1.33 1.33 0 0 0-.878-.31c-.34 0-.657.114-.877.31-.207.183-.373.474-.373.934a.75.75 0 0 1-1.5 0c0-.869.334-1.575.877-2.057A2.83 2.83 0 0 1 12 7.246c.66 0 1.343.218 1.872.687"/></svg>