<svg width="24" height="24" fill="currentColor" viewBox="0 0 24 24" xmlns="http://www.w3.org/2000/svg"><path d="M12 1.75a2.63 2.63 0 0 0-1.32.355l-6.61 3.8-.002.002A2.65 2.65 0 0 0 2.75 8.198v7.603a2.64 2.64 0 0 0 1.318 2.292l.003.002 6.608 3.799h.002a2.63 2.63 0 0 0 2.639 0h.001l6.608-3.8h.003A2.65 2.65 0 0 0 21.25 15.8V8.2a2.65 2.65 0 0 0-1.318-2.292l-6.61-3.8-.002-.002A2.63 2.63 0 0 0 12 1.75m0 12.997a.75.75 0 0 1 .75.75v.5a.75.75 0 0 1-1.5 0v-.5a.75.75 0 0 1 .75-.75m1.872-6.814c.544.482.878 1.188.878 2.057 0 .64-.164 1.138-.45 1.543-.256.365-.588.614-.823.79l-.027.02c-.263.198-.416.32-.524.474-.09.127-.176.317-.176.68a.75.75 0 0 1-1.5 0c0-.64.164-1.14.45-1.544.256-.364.588-.613.823-.79l.027-.02c.263-.198.416-.32.524-.474.09-.127.176-.317.176-.679 0-.46-.166-.75-.372-.934a1.33 1.33 0 0 0-.878-.31c-.34 0-.657.114-.877.31-.207.183-.373.474-.373.934a.75.75 0 0 1-1.5 0c0-.869.334-1.575.877-2.057A2.83 2.83 0 0 1 12 7.246c.66 0 1.343.218 1.872.687"/></svg>