<svg width="24" height="24" fill="currentColor" viewBox="0 0 24 24" xmlns="http://www.w3.org/2000/svg"><path d="M13.435 2.075a3.33 3.33 0 0 0-2.87 0c-.394.189-.755.497-1.26.928l-.079.066a2.56 2.56 0 0 1-1.58.655l-.102.008c-.662.053-1.135.09-1.547.236a3.33 3.33 0 0 0-2.03 2.029c-.145.412-.182.885-.235 1.547l-.008.102a2.56 2.56 0 0 1-.655 1.58l-.066.078c-.431.506-.74.867-.928 1.261a3.33 3.33 0 0 0 0 2.87c.189.394.497.755.928 1.26l.066.079c.41.48.604.939.655 1.58l.008.102c.053.662.09 1.135.236 1.547a3.33 3.33 0 0 0 2.029 2.03c.412.145.885.182 1.547.235l.102.008c.629.05 1.09.238 1.58.655l.078.066c.506.431.867.74 1.261.928a3.33 3.33 0 0 0 2.87 0c.394-.189.755-.497 1.26-.928l.079-.066c.48-.41.939-.604 1.58-.655l.102-.008c.662-.053 1.135-.09 1.547-.236a3.33 3.33 0 0 0 2.03-2.029c.145-.412.182-.885.235-1.547l.008-.102c.05-.629.238-1.09.655-1.58l.066-.079c.431-.505.74-.866.928-1.26a3.33 3.33 0 0 0 0-2.87c-.189-.394-.497-.755-.928-1.26l-.066-.079a2.56 2.56 0 0 1-.655-1.58l-.008-.102c-.053-.662-.09-1.135-.236-1.547a3.33 3.33 0 0 0-2.029-2.03c-.412-.145-.885-.182-1.547-.235l-.102-.008a2.56 2.56 0 0 1-1.58-.655l-.079-.066c-.505-.431-.866-.74-1.26-.928M12 14.747a.75.75 0 0 1 .75.75v.5a.75.75 0 0 1-1.5 0v-.5a.75.75 0 0 1 .75-.75m1.872-6.814c.544.482.878 1.188.878 2.057 0 .64-.164 1.138-.45 1.543-.256.365-.588.614-.823.79l-.027.02c-.263.198-.416.32-.524.474-.09.127-.176.317-.176.68a.75.75 0 0 1-1.5 0c0-.64.164-1.14.45-1.544.256-.364.588-.613.823-.79l.027-.02c.263-.198.416-.32.524-.474.09-.127.176-.317.176-.679 0-.46-.166-.75-.372-.934a1.33 1.33 0 0 0-.878-.31c-.34 0-.657.114-.877.31-.207.183-.373.474-.373.934a.75.75 0 0 1-1.5 0c0-.869.334-1.575.877-2.057A2.83 2.83 0 0 1 12 7.246c.66 0 1.343.218 1.872.687"/></svg>