<svg width="24" height="24" fill="currentColor" viewBox="0 0 24 24" xmlns="http://www.w3.org/2000/svg"><path d="M12 19.75a.75.75 0 0 1 .75.75v.5a.75.75 0 0 1-1.5 0v-.5a.75.75 0 0 1 .75-.75m3.94-15.538c1.104.997 1.81 2.472 1.81 4.364 0 1.41-.35 2.44-.915 3.255-.536.775-1.241 1.315-1.846 1.777l-.033.026c-.639.488-1.167.9-1.558 1.464-.373.539-.648 1.263-.648 2.402a.75.75 0 0 1-1.5 0c0-1.41.35-2.44.915-3.255.536-.775 1.241-1.315 1.846-1.777l.033-.026c.639-.488 1.167-.9 1.558-1.464.373-.54.648-1.263.648-2.402 0-1.493-.544-2.555-1.315-3.25C14.151 4.619 13.087 4.25 12 4.25s-2.151.369-2.935 1.076c-.77.695-1.315 1.758-1.315 3.25a.75.75 0 1 1-1.5 0c0-1.892.706-3.367 1.81-4.364C9.151 3.227 10.587 2.75 12 2.75s2.849.477 3.94 1.462"/></svg>