<svg width="24" height="24" fill="currentColor" viewBox="0 0 24 24" xmlns="http://www.w3.org/2000/svg"><path d="M21.074 12.154a.75.75 0 0 1 .672.82c-.49 4.93-4.658 8.776-9.724 8.776-2.724 0-5.364-.933-7.238-2.68L3 20.85a.75.75 0 0 1-.75-.75v-3.96c0-.714.58-1.29 1.291-1.29h3.97a.75.75 0 0 1 .75.75l-2.413 2.407c1.558 1.433 3.78 2.243 6.174 2.243 4.29 0 7.817-3.258 8.232-7.424a.75.75 0 0 1 .82-.672m-18.82-1.128c.49-4.93 4.658-8.776 9.724-8.776 2.724 0 5.364.933 7.238 2.68L21 3.15a.75.75 0 0 1 .75.75v3.96c0 .714-.58 1.29-1.291 1.29h-3.97a.75.75 0 0 1-.75-.75l2.413-2.408c-1.558-1.432-3.78-2.242-6.174-2.242-4.29 0-7.817 3.258-8.232 7.424a.75.75 0 1 1-1.492-.148"/></svg>