<svg width="24" height="24" fill="currentColor" viewBox="0 0 24 24" xmlns="http://www.w3.org/2000/svg"><path d="M9.367 2.25c-1.092 0-1.958 0-2.655.057-.714.058-1.317.18-1.868.46a4.75 4.75 0 0 0-2.076 2.077c-.281.55-.403 1.154-.461 1.868-.057.697-.057 1.563-.057 2.655v5.266c0 1.092 0 1.958.057 2.655.058.714.18 1.317.46 1.869a4.75 4.75 0 0 0 2.077 2.075c.55.281 1.154.403 1.868.461.697.057 1.563.057 2.655.057h5.266c1.092 0 1.958 0 2.655-.057.714-.058 1.317-.18 1.869-.46a4.75 4.75 0 0 0 2.075-2.076c.281-.552.403-1.155.461-1.869.057-.697.057-1.563.057-2.655V9.367c0-1.092 0-1.958-.057-2.655-.058-.714-.18-1.317-.46-1.868a4.75 4.75 0 0 0-2.076-2.076c-.552-.281-1.155-.403-1.869-.461-.697-.057-1.563-.057-2.655-.057zm1.425 6.744c.37.277.505.67.57 1.008.061.315.084.712.109 1.145l.002.046c.016.276.027.553.027.807s-.01.531-.027.807l-.002.046c-.025.433-.048.83-.109 1.145-.065.337-.2.731-.57 1.008-.18.136-.392.223-.63.24a1.4 1.4 0 0 1-.588-.09c-.278-.1-.587-.287-.879-.465l-.048-.03a10 10 0 0 1-.532-.344 10 10 0 0 1-.581-.445l-.04-.033c-.301-.245-.599-.488-.811-.735-.254-.295-.433-.648-.433-1.104s.18-.809.433-1.104c.212-.247.51-.49.81-.735l.04-.033c.194-.158.393-.312.582-.445a10 10 0 0 1 .532-.345l.048-.03c.292-.177.6-.365.88-.465a1.4 1.4 0 0 1 .586-.09c.239.018.451.105.632.24m5.12-.24c.238.017.45.104.63.24.37.277.505.67.57 1.008.061.315.084.712.109 1.145l.003.046c.015.276.026.553.026.807s-.01.531-.026.807l-.003.046c-.025.433-.048.83-.109 1.145-.065.337-.2.731-.57 1.008-.18.136-.392.223-.63.24a1.4 1.4 0 0 1-.588-.09c-.278-.1-.587-.287-.879-.465l-.048-.03a10 10 0 0 1-.532-.344 10 10 0 0 1-.581-.445l-.04-.033c-.301-.245-.599-.488-.811-.735C12.179 12.81 12 12.456 12 12s.18-.809.433-1.104c.212-.247.51-.49.81-.735l.04-.033c.194-.158.393-.312.582-.445a10 10 0 0 1 .532-.345l.048-.03c.292-.177.6-.365.88-.465a1.4 1.4 0 0 1 .586-.09"/></svg>