<svg width="24" height="24" fill="currentColor" viewBox="0 0 24 24" xmlns="http://www.w3.org/2000/svg"><path d="M13.435 2.075a3.33 3.33 0 0 0-2.87 0c-.394.189-.755.497-1.26.928l-.079.066a2.56 2.56 0 0 1-1.58.655l-.102.008c-.662.053-1.135.09-1.547.236a3.33 3.33 0 0 0-2.03 2.029c-.145.412-.182.885-.235 1.547l-.008.102a2.56 2.56 0 0 1-.655 1.58l-.066.078c-.431.506-.74.867-.928 1.261a3.33 3.33 0 0 0 0 2.87c.189.394.497.755.928 1.26l.066.079c.41.48.604.939.655 1.58l.008.102c.053.662.09 1.135.236 1.547a3.33 3.33 0 0 0 2.029 2.03c.412.145.885.182 1.547.235l.102.008c.629.05 1.09.238 1.58.655l.078.066c.506.431.867.74 1.261.928a3.33 3.33 0 0 0 2.87 0c.394-.189.755-.497 1.26-.928l.079-.066c.48-.41.939-.604 1.58-.655l.102-.008c.662-.053 1.135-.09 1.547-.236a3.33 3.33 0 0 0 2.03-2.029c.145-.412.182-.885.235-1.547l.008-.102c.05-.629.238-1.09.655-1.58l.066-.079c.431-.505.74-.866.928-1.26a3.33 3.33 0 0 0 0-2.87c-.189-.394-.497-.755-.928-1.26l-.066-.079a2.56 2.56 0 0 1-.655-1.58l-.008-.102c-.053-.662-.09-1.135-.236-1.547a3.33 3.33 0 0 0-2.029-2.03c-.412-.145-.885-.182-1.547-.235l-.102-.008a2.56 2.56 0 0 1-1.58-.655l-.079-.066c-.505-.431-.866-.74-1.26-.928m-2.642 6.919c.368.277.504.67.569 1.008.061.315.084.712.109 1.145l.002.046c.016.276.027.553.027.807s-.01.531-.027.807l-.002.046c-.025.433-.048.83-.109 1.145-.065.337-.2.731-.57 1.008-.18.136-.392.223-.63.24a1.4 1.4 0 0 1-.588-.09c-.278-.1-.587-.287-.879-.465l-.048-.03a10 10 0 0 1-.532-.344 10 10 0 0 1-.581-.445l-.04-.033c-.301-.245-.599-.488-.811-.735-.254-.295-.433-.648-.433-1.104s.18-.809.433-1.104c.212-.247.51-.49.81-.735l.04-.033c.194-.158.393-.312.582-.445a10 10 0 0 1 .532-.345l.048-.03c.292-.177.6-.365.88-.465a1.4 1.4 0 0 1 .586-.09c.239.018.451.105.632.24m5.118-.24c.239.017.451.104.632.24.368.277.504.67.569 1.008.061.315.084.712.109 1.145l.003.046c.015.276.026.553.026.807s-.01.531-.026.807l-.003.046c-.025.433-.048.83-.109 1.145-.065.337-.2.731-.57 1.008-.18.136-.392.223-.63.24a1.4 1.4 0 0 1-.588-.09c-.278-.1-.587-.287-.879-.465l-.048-.03a10 10 0 0 1-.532-.344 10 10 0 0 1-.581-.445l-.04-.033c-.301-.245-.599-.488-.811-.735C12.179 12.81 12 12.456 12 12s.18-.809.433-1.104c.212-.247.51-.49.81-.735l.04-.033c.194-.158.393-.312.582-.445a10 10 0 0 1 .532-.345l.048-.03c.292-.177.6-.365.88-.465a1.4 1.4 0 0 1 .586-.09"/></svg>