<svg width="24" height="24" fill="currentColor" viewBox="0 0 24 24" xmlns="http://www.w3.org/2000/svg"><path d="M12 2.25a6.75 6.75 0 0 1 4.801 11.495l.94 6.051a1 1 0 0 1 .009.115c0 .496-.274.869-.54 1.106a2.9 2.9 0 0 1-.933.528c-.33.117-.688.19-1.03.204-.323.014-.716-.021-1.053-.205l-2.106-1.147a.18.18 0 0 0-.176 0l-2.106 1.147c-.337.184-.73.22-1.054.206a3.6 3.6 0 0 1-1.029-.205 2.9 2.9 0 0 1-.932-.528c-.267-.237-.541-.61-.541-1.106q0-.057.009-.115l.94-6.051A6.75 6.75 0 0 1 12 2.25m4.213 17.645.022-.02-.787-5.07A6.7 6.7 0 0 1 12 15.75a6.7 6.7 0 0 1-3.448-.946l-.787 5.07.022.021c.084.075.234.164.438.236.2.071.411.112.591.12a.7.7 0 0 0 .271-.024h.001l2.106-1.147a1.68 1.68 0 0 1 1.612 0l2.106 1.147c.012.004.094.032.272.024.18-.008.391-.049.59-.12.205-.072.355-.16.44-.236"/></svg>