<svg width="24" height="24" fill="currentColor" viewBox="0 0 24 24" xmlns="http://www.w3.org/2000/svg"><path d="M10.83 7.11c2.238-2.523 5.72-3.61 8.92-3.61a.75.75 0 0 1 .75.75c0 3.2-1.087 6.682-3.61 8.92-.061 1.016-.375 2.033-.824 2.926-.5.994-1.195 1.887-1.973 2.478-.761.578-1.745.963-2.717.601-.92-.343-1.54-1.25-1.9-2.538l-2.113-2.114c-1.288-.359-2.195-.979-2.538-1.899-.362-.972.023-1.956.601-2.717.591-.778 1.484-1.473 2.478-1.973.893-.449 1.91-.763 2.925-.823M9.5 8.892a7 7 0 0 0-.922.383c-.836.421-1.533.982-1.957 1.54-.437.576-.493 1.01-.39 1.286.083.226.352.557 1.094.836.169-.379.412-.903.717-1.504.388-.763.882-1.66 1.458-2.54m1.564 7.784c.278.742.61 1.01.836 1.095.275.102.71.046 1.286-.39.558-.425 1.119-1.122 1.54-1.958q.227-.451.383-.922a27 27 0 0 1-2.54 1.458c-.602.305-1.126.548-1.505.717m-6.029-.672a2.144 2.144 0 0 1 2.848.088l.009.01c.799.79.786 2.054.103 2.865-.295.352-.698.606-1.077.792-.387.19-.804.333-1.175.44a11 11 0 0 1-1.358.295l-.024.003-.008.001H4.35a.75.75 0 0 1-.843-.842v-.003l.001-.008.004-.024a7 7 0 0 1 .066-.389c.047-.251.121-.596.228-.971a7.3 7.3 0 0 1 .439-1.178c.185-.38.439-.783.79-1.08M15.687 8.22a.75.75 0 0 0-1.06 0l-.707.707a.75.75 0 0 0 1.06 1.06l.707-.707a.75.75 0 0 0 0-1.06"/></svg>