<svg width="24" height="24" fill="currentColor" viewBox="0 0 24 24" xmlns="http://www.w3.org/2000/svg"><path d="M5.75 3.5a.75.75 0 0 1 .75-.75h11a.75.75 0 0 1 0 1.5h-4.461q.112.114.217.236c.729.845 1.15 1.903 1.282 2.986H17.5a.75.75 0 0 1 0 1.5h-2.962c-.132 1.083-.553 2.141-1.282 2.987-.911 1.055-2.267 1.735-4.006 1.735h-.9l6.464 6.268a.75.75 0 1 1-1.044 1.076l-7.792-7.555a.75.75 0 0 1 .522-1.289h2.75c1.316 0 2.253-.5 2.87-1.215.475-.551.781-1.254.904-2.007H6.5a.75.75 0 1 1 0-1.5h6.524c-.123-.752-.429-1.456-.904-2.006-.617-.716-1.554-1.216-2.87-1.216H6.5a.75.75 0 0 1-.75-.75"/></svg>