<svg width="24" height="24" fill="currentColor" viewBox="0 0 24 24" xmlns="http://www.w3.org/2000/svg"><path d="m10.68 2.105-6.61 3.8-.002.002A2.65 2.65 0 0 0 2.75 8.198v7.603a2.64 2.64 0 0 0 1.318 2.292l.003.002 6.608 3.799h.002a2.63 2.63 0 0 0 2.639 0h.001l6.608-3.8h.003A2.65 2.65 0 0 0 21.25 15.8V8.2a2.65 2.65 0 0 0-1.318-2.292l-6.61-3.8-.002-.002a2.63 2.63 0 0 0-2.64 0M8.25 7.5A.75.75 0 0 1 9 6.75h6a.75.75 0 0 1 0 1.5h-1.794c.238.393.395.83.476 1.278H15a.75.75 0 0 1 0 1.5h-1.318a3.65 3.65 0 0 1-.721 1.628 3.03 3.03 0 0 1-2.214 1.141l3.045 3.185a.75.75 0 0 1-1.084 1.036l-4.25-4.444A.75.75 0 0 1 9 12.306h1.5c.6 0 1.012-.24 1.29-.587a2 2 0 0 0 .352-.691H9a.75.75 0 0 1 0-1.5h3.142a2 2 0 0 0-.352-.691c-.278-.347-.69-.587-1.29-.587H9a.75.75 0 0 1-.75-.75"/></svg>