<svg width="24" height="24" fill="currentColor" viewBox="0 0 24 24" xmlns="http://www.w3.org/2000/svg"><path d="M9.367 2.25h5.266c1.092 0 1.958 0 2.655.057.714.058 1.317.18 1.869.46a4.75 4.75 0 0 1 2.075 2.077c.281.55.403 1.154.461 1.868.057.697.057 1.563.057 2.655v5.266c0 1.092 0 1.958-.057 2.655-.058.714-.18 1.317-.46 1.869a4.75 4.75 0 0 1-2.076 2.075c-.552.281-1.155.403-1.869.461-.697.057-1.563.057-2.655.057H9.367c-1.092 0-1.958 0-2.655-.057-.714-.058-1.317-.18-1.868-.46a4.75 4.75 0 0 1-2.076-2.076c-.281-.552-.403-1.155-.461-1.869-.057-.697-.057-1.563-.057-2.655V9.367c0-1.092 0-1.958.057-2.655.058-.714.18-1.317.46-1.868a4.75 4.75 0 0 1 2.077-2.076c.55-.281 1.154-.403 1.868-.461.697-.057 1.563-.057 2.655-.057M8.25 7.5c0 .414.336.75.75.75h1.5c.6 0 1.012.24 1.29.587.154.193.274.43.352.69H9a.75.75 0 1 0 0 1.5h3.142a2 2 0 0 1-.352.692c-.278.347-.69.587-1.29.587H9a.75.75 0 0 0-.542 1.268l4.25 4.444a.75.75 0 0 0 1.084-1.036l-3.045-3.185a3.03 3.03 0 0 0 2.214-1.141 3.65 3.65 0 0 0 .721-1.628H15a.75.75 0 0 0 0-1.5h-1.318a3.8 3.8 0 0 0-.476-1.278H15a.75.75 0 0 0 0-1.5H9a.75.75 0 0 0-.75.75"/></svg>