<svg width="24" height="24" fill="currentColor" viewBox="0 0 24 24" xmlns="http://www.w3.org/2000/svg"><path d="M11.943 2.25h.114c2.073 0 3.705 0 4.98.171 1.31.176 2.354.545 3.175 1.367.917.916 1.27 2.11 1.42 3.639a.75.75 0 1 1-1.493.146c-.137-1.396-.434-2.172-.987-2.725-.497-.496-1.172-.786-2.314-.94-1.164-.156-2.696-.158-4.838-.158s-3.674.002-4.838.158c-1.142.154-1.817.444-2.314.94-.553.553-.85 1.329-.987 2.725a.75.75 0 0 1-1.493-.146c.15-1.529.503-2.723 1.42-3.64.821-.82 1.866-1.19 3.174-1.366 1.276-.171 2.908-.171 4.981-.171M3.041 15.754a.75.75 0 0 1 .82.673c.137 1.396.434 2.172.987 2.725.497.496 1.172.786 2.314.94 1.164.156 2.695.158 4.838.158s3.674-.002 4.838-.158c1.142-.154 1.817-.444 2.314-.94.553-.553.85-1.329.987-2.725a.75.75 0 0 1 1.493.146c-.15 1.529-.503 2.723-1.42 3.64-.821.82-1.866 1.19-3.174 1.366-1.276.171-2.908.171-4.981.171h-.114c-2.073 0-3.705 0-4.98-.171-1.31-.176-2.354-.545-3.175-1.367-.917-.916-1.27-2.11-1.42-3.639a.75.75 0 0 1 .673-.82M2.25 12a.75.75 0 0 1 .75-.75h.5a.75.75 0 0 1 0 1.5H3a.75.75 0 0 1-.75-.75M11 12a.75.75 0 0 1 .75-.75h.5a.75.75 0 0 1 0 1.5h-.5A.75.75 0 0 1 11 12m-4.5 0a.75.75 0 0 1 .75-.75h.5a.75.75 0 0 1 0 1.5h-.5A.75.75 0 0 1 6.5 12m9 0a.75.75 0 0 1 .75-.75h.5a.75.75 0 0 1 0 1.5h-.5a.75.75 0 0 1-.75-.75m4.25 0a.75.75 0 0 1 .75-.75h.5a.75.75 0 0 1 0 1.5h-.5a.75.75 0 0 1-.75-.75"/></svg>