<svg width="24" height="24" fill="currentColor" viewBox="0 0 24 24" xmlns="http://www.w3.org/2000/svg"><path d="M10.17 2.25c-.534 0-.98 0-1.345.03-.38.03-.736.098-1.074.27a2.75 2.75 0 0 0-1.201 1.2c-.172.338-.24.694-.27 1.074-.03.365-.03.81-.03 1.345v7.66c0 .535 0 .98.03 1.345.03.38.098.736.27 1.073a2.75 2.75 0 0 0 1.201 1.203c.337.171.694.238 1.073.27.364.029.81.029 1.342.029h7.668c.533 0 .978 0 1.342-.03.38-.03.735-.098 1.072-.27a2.75 2.75 0 0 0 1.203-1.202c.171-.337.238-.694.27-1.074.03-.364.03-.81.03-1.344V6.17c0-.535 0-.98-.03-1.345-.032-.38-.099-.736-.27-1.074a2.75 2.75 0 0 0-1.203-1.201c-.337-.172-.693-.24-1.073-.27-.364-.03-.81-.03-1.344-.03zM3 8.25a.75.75 0 0 1 .75.75v10.4c0 .292 0 .466.011.596a.6.6 0 0 0 .018.12.25.25 0 0 0 .104.105.6.6 0 0 0 .12.018c.13.01.304.011.595.011H15a.75.75 0 0 1 0 1.5H4.572c-.257 0-.493 0-.69-.016a1.8 1.8 0 0 1-.677-.175 1.75 1.75 0 0 1-.764-.765 1.8 1.8 0 0 1-.175-.676 9 9 0 0 1-.016-.692V9A.75.75 0 0 1 3 8.25m13.684-.858a.75.75 0 0 1 .169 1.047l-2.8 3.876a1.05 1.05 0 0 1-1.639.077l-1.378-1.576a.75.75 0 1 1 1.129-.987l1.005 1.148 2.467-3.416a.75.75 0 0 1 1.047-.169"/></svg>