<svg width="24" height="24" fill="currentColor" viewBox="0 0 24 24" xmlns="http://www.w3.org/2000/svg"><path d="M10.79 1.49a3.16 3.16 0 0 1 3.445.687l7.588 7.588a3.16 3.16 0 0 1 0 4.47l-7.588 7.588a3.16 3.16 0 0 1-4.47 0l-7.588-7.588a3.16 3.16 0 0 1 0-4.47l7.588-7.589a3.2 3.2 0 0 1 1.025-.685m-.858 5.782a.75.75 0 0 0-.364 1.456c1.116.279 2.46.272 3.479.208l.084-.005c-.311.445-.665.975-1.02 1.55-.511.832-1.032 1.774-1.427 2.712-.39.926-.684 1.91-.684 2.807a.75.75 0 1 0 1.5 0c0-.603.206-1.37.566-2.225.355-.843.834-1.713 1.323-2.507a32 32 0 0 1 1.906-2.748l.031-.04.008-.01.002-.002a.75.75 0 0 0-.71-1.208l-.005.001-.022.004-.091.014q-.123.018-.351.047c-.3.038-.723.083-1.204.113-.981.061-2.137.054-3.021-.167"/></svg>