<svg width="24" height="24" fill="currentColor" viewBox="0 0 24 24" xmlns="http://www.w3.org/2000/svg"><path d="M12.775 2.49a1.37 1.37 0 0 0-1.55 0l-.61.417a11.3 11.3 0 0 1-5.234 1.92 1.264 1.264 0 0 0-1.131 1.26v4.93c0 2.091.904 4.027 2.035 5.637L2.47 20.47a.75.75 0 1 0 1.06 1.06l3.68-3.678c1.423 1.69 2.998 2.961 3.807 3.568a1.63 1.63 0 0 0 1.966 0c.841-.63 2.511-1.98 3.977-3.772 1.455-1.778 2.79-4.09 2.79-6.63V6.086c0-.221-.057-.433-.16-.617l1.94-1.94a.75.75 0 0 0-1.06-1.06L18.168 4.77a11.3 11.3 0 0 1-4.783-1.864z"/></svg>