<svg width="24" height="24" fill="currentColor" viewBox="0 0 24 24" xmlns="http://www.w3.org/2000/svg"><path d="m9.581 3.548-.348-.84a1 1 0 0 0-1.847.765l.347.84a8.75 8.75 0 0 0-3.422 3.42l-.928-.384-.097-.036a1 1 0 0 0-.762 1.84l.093.043.93.385a8.75 8.75 0 0 0 0 4.837l-.84.349a1 1 0 0 0 .766 1.847l.84-.348a8.75 8.75 0 0 0 3.42 3.422l-.384.93a1 1 0 1 0 1.847.765l.385-.93a8.75 8.75 0 0 0 4.837-.002l.349.841a1 1 0 0 0 1.847-.765l-.348-.84a8.75 8.75 0 0 0 3.421-3.421l.93.385a1 1 0 0 0 .858-1.803l-.092-.044-.93-.386a8.75 8.75 0 0 0-.002-4.837l.84-.348a1 1 0 0 0-.764-1.847l-.84.347a8.75 8.75 0 0 0-3.421-3.421l.385-.93a1 1 0 1 0-1.847-.765l-.386.93a8.75 8.75 0 0 0-4.837 0m4.066 15.042a6.75 6.75 0 0 1-3.295 0l1.383-3.339h.53zm-5.142-.766a6.75 6.75 0 0 1-2.33-2.329l3.339-1.383.374.373zm6.99 0-1.383-3.339.373-.374 3.34 1.383a6.75 6.75 0 0 1-2.33 2.33M5.41 13.647a6.75 6.75 0 0 1 0-3.296l.291.122.292.12 2.756 1.142v.53zm9.842-1.383v-.53l3.339-1.383a6.75 6.75 0 0 1 0 3.295zm-9.076-3.76a6.75 6.75 0 0 1 2.329-2.33l1.383 3.34-.373.374-2.756-1.142-.289-.12zm8.31 1.383-.374-.373 1.383-3.34a6.75 6.75 0 0 1 2.33 2.33zm-4.133-4.478a6.75 6.75 0 0 1 3.294 0l-1.382 3.339h-.53z"/></svg>