<svg width="24" height="24" fill="currentColor" viewBox="0 0 24 24" xmlns="http://www.w3.org/2000/svg"><path d="M9.883 2.47a.75.75 0 0 0-1.06 1.06l2.647 2.647a.75.75 0 1 0 1.06-1.06zM4.59 3.528A.75.75 0 0 0 3.527 4.59l5.824 5.824a.75.75 0 1 0 1.06-1.061zm10.728 4.431a.75.75 0 0 0-1.342 0L11.97 11.97l-4.01 2.006a.75.75 0 0 0 0 1.342l4.011 2.006 2.006 4.011a.75.75 0 0 0 1.342 0l2.006-4.011 4.011-2.006a.75.75 0 0 0 0-1.342l-4.011-2.006zM3.53 8.823a.75.75 0 0 0-1.06 1.06l2.647 2.647a.75.75 0 0 0 1.06-1.06z"/></svg>