<svg width="24" height="24" fill="currentColor" viewBox="0 0 24 24" xmlns="http://www.w3.org/2000/svg"><path d="M12 15.25a1.75 1.75 0 0 1-1.75-1.75c0-.458.171-.729.422-.91.283-.205.735-.34 1.328-.34s1.045.135 1.328.34c.251.181.422.452.422.91A1.75 1.75 0 0 1 12 15.25"/><path d="M8.037 2.408a2.3 2.3 0 0 1 .9-.158h6.126c.302 0 .602.036.9.158s.54.31.762.53l4.337 4.337c.22.221.408.463.53.762.123.298.158.598.158.9v6.126c0 .313-.039.616-.163.914a2.3 2.3 0 0 1-.525.748l-4.337 4.337a2.3 2.3 0 0 1-.762.53 2.3 2.3 0 0 1-.9.158H8.937c-.313 0-.616-.039-.914-.163a2.3 2.3 0 0 1-.748-.525l-4.337-4.337a2.3 2.3 0 0 1-.53-.762 2.3 2.3 0 0 1-.158-.9V8.937c0-.313.039-.616.163-.914a2.3 2.3 0 0 1 .525-.748l4.337-4.337c.221-.22.463-.408.762-.53M12.5 7.25A3.75 3.75 0 0 0 8.75 11v2.5a3.25 3.25 0 0 0 6.5 0c0-.923-.389-1.652-1.043-2.125-.621-.45-1.419-.625-2.207-.625-.606 0-1.217.103-1.75.355V11a2.25 2.25 0 0 1 2.25-2.25h1a.75.75 0 0 0 0-1.5z"/></svg>