<svg width="24" height="24" fill="currentColor" viewBox="0 0 24 24" xmlns="http://www.w3.org/2000/svg"><path d="M14.25 2.52c-1.288 0-2.46 1.03-2.46 2.46v4.14c0 1.288 1.03 2.46 2.46 2.46 1.288 0 2.46-1.03 2.46-2.46V4.89c0-1.34-1.083-2.37-2.46-2.37m5.13 4.59c-1.224 0-2.19.966-2.19 2.19v1.44c0 .414.336.75.75.75h1.44c1.224 0 2.19-.966 2.19-2.19s-.966-2.19-2.19-2.19M4.71 7.02l-.068.003c-1.314.12-2.392 1.11-2.392 2.457 0 1.288 1.03 2.46 2.46 2.46h4.14c1.288 0 2.46-1.03 2.46-2.46 0-1.288-1.03-2.46-2.46-2.46zm4.41-4.77c-1.224 0-2.19.966-2.19 2.19s.966 2.19 2.19 2.19h1.44a.75.75 0 0 0 .75-.75V4.44c0-1.224-.966-2.19-2.19-2.19m.54 10.26c-1.288 0-2.46 1.03-2.46 2.46v4.14q0 .038.004.075c.119 1.188 1.082 2.385 2.456 2.385 1.288 0 2.46-1.03 2.46-2.46v-4.14c0-1.288-1.03-2.46-2.46-2.46m-5.04 0c-1.224 0-2.19.966-2.19 2.19s.966 2.19 2.19 2.19 2.19-.966 2.19-2.19v-1.44a.75.75 0 0 0-.75-.75zm10.53-.45c-1.288 0-2.46 1.03-2.46 2.46 0 1.288 1.03 2.46 2.46 2.46h4.14c1.314 0 2.46-1.146 2.46-2.46 0-1.288-1.03-2.46-2.46-2.46zm-1.71 5.31a.75.75 0 0 0-.75.75v1.44c0 1.224.966 2.19 2.19 2.19s2.19-.966 2.19-2.19-.966-2.19-2.19-2.19z"/></svg>