<svg width="24" height="24" fill="currentColor" viewBox="0 0 24 24" xmlns="http://www.w3.org/2000/svg"><path d="M2.25 12.044v6.517c0 .764.308 1.57.8 2.127.501.567 1.354 1.012 2.287.543.696-.35 1.275-.363 1.746-.047 1.126.755 2.708.755 3.834 0 .345-.23.607-.308.825-.31.218-.001.485.072.84.31 1.127.755 2.709.755 3.835 0 .213-.142.58-.237 1.044-.226.454.01.898.12 1.202.273.933.469 1.786.024 2.287-.543.492-.557.8-1.363.8-2.126v-6.518c0-5.405-4.362-9.794-9.75-9.794s-9.75 4.389-9.75 9.794m6.148 2.51a.75.75 0 0 1 1.049-.156c.728.54 1.607.852 2.553.852s1.825-.313 2.553-.852a.75.75 0 1 1 .894 1.204A5.77 5.77 0 0 1 12 16.75a5.77 5.77 0 0 1-3.447-1.148.75.75 0 0 1-.155-1.049M10.25 10v.5a.75.75 0 1 1-1.5 0V10a.75.75 0 1 1 1.5 0m4.25-.75a.75.75 0 0 1 .75.75v.5a.75.75 0 1 1-1.5 0V10a.75.75 0 0 1 .75-.75"/></svg>