<svg width="24" height="24" fill="currentColor" viewBox="0 0 24 24" xmlns="http://www.w3.org/2000/svg"><path d="M7.195 2.845a.75.75 0 0 0-1.467 0c-.232 1.096-.55 1.835-.99 2.361-.429.516-1.029.893-1.95 1.166a.75.75 0 0 0 0 1.438c.885.262 1.48.617 1.916 1.125.444.516.782 1.26 1.024 2.402a.75.75 0 0 0 1.467 0c.242-1.143.58-1.886 1.024-2.402.436-.508 1.03-.863 1.917-1.125a.75.75 0 0 0 0-1.438c-.886-.262-1.481-.617-1.917-1.125-.444-.516-.782-1.26-1.024-2.402m8.303 3.251a.75.75 0 0 0-1.458 0c-.554 2.292-1.141 3.674-1.972 4.638-.82.952-1.947 1.576-3.77 2.192a.75.75 0 0 0 0 1.421c1.904.643 3.046 1.322 3.852 2.292.819.986 1.362 2.355 1.89 4.537a.75.75 0 0 0 1.458 0c.554-2.291 1.142-3.673 1.972-4.637.82-.952 1.947-1.576 3.77-2.192a.75.75 0 0 0 0-1.421c-1.907-.644-3.047-1.32-3.852-2.29-.818-.984-1.36-2.352-1.89-4.54"/></svg>