<svg width="24" height="24" fill="currentColor" viewBox="0 0 24 24" xmlns="http://www.w3.org/2000/svg"><path d="M12 2.25a.75.75 0 0 1 .75.75v3a.75.75 0 0 1-1.5 0V3a.75.75 0 0 1 .75-.75m6.896 2.854a.75.75 0 0 1 0 1.06l-2.119 2.12a.75.75 0 0 1-1.06-1.061l2.118-2.119a.75.75 0 0 1 1.06 0M17.25 12a.75.75 0 0 1 .75-.75h3a.75.75 0 0 1 0 1.5h-3a.75.75 0 0 1-.75-.75m-1.533 3.717a.75.75 0 0 1 1.06 0l2.119 2.118a.75.75 0 0 1-1.06 1.061l-2.12-2.119a.75.75 0 0 1 0-1.06M12 17.25a.75.75 0 0 1 .75.75v3a.75.75 0 0 1-1.5 0v-3a.75.75 0 0 1 .75-.75m-3.717-1.533a.75.75 0 0 1 0 1.06l-2.118 2.119a.75.75 0 1 1-1.06-1.06l2.118-2.12a.75.75 0 0 1 1.06 0M2.25 12a.75.75 0 0 1 .75-.75h3a.75.75 0 0 1 0 1.5H3a.75.75 0 0 1-.75-.75m2.854-6.896a.75.75 0 0 1 1.06 0l2.12 2.119a.75.75 0 0 1-1.061 1.06L5.104 6.165a.75.75 0 0 1 0-1.061"/></svg>