<svg width="24" height="24" fill="currentColor" viewBox="0 0 24 24" xmlns="http://www.w3.org/2000/svg"><path d="M12 2.25a.75.75 0 0 1 .75.75v2a.75.75 0 1 1-1.5 0V3a.75.75 0 0 1 .75-.75m0 16.004a.75.75 0 0 1 .75.75v2a.75.75 0 1 1-1.5 0v-2a.75.75 0 0 1 .75-.75M2.25 12a.75.75 0 0 1 .75-.75h2a.75.75 0 0 1 0 1.5H3a.75.75 0 0 1-.75-.75m16 0a.75.75 0 0 1 .75-.75h2a.75.75 0 1 1 0 1.5h-2a.75.75 0 0 1-.75-.75m1.28-7.53a.75.75 0 0 1 0 1.06l-2 2a.75.75 0 1 1-1.06-1.06l2-2a.75.75 0 0 1 1.06 0m-15.06 0a.75.75 0 0 1 1.06 0l2 2a.75.75 0 0 1-1.06 1.06l-2-2a.75.75 0 0 1 0-1.06m3.06 12a.75.75 0 0 1 0 1.06l-2 2a.75.75 0 0 1-1.06-1.06l2-2a.75.75 0 0 1 1.06 0m8.94 0a.75.75 0 0 1 1.06 0l2 2a.75.75 0 1 1-1.06 1.06l-2-2a.75.75 0 0 1 0-1.06M12 7.25a4.75 4.75 0 1 0 0 9.5 4.75 4.75 0 0 0 0-9.5"/></svg>