<svg width="24" height="24" fill="currentColor" viewBox="0 0 24 24" xmlns="http://www.w3.org/2000/svg"><path d="M20.464 4.41a.75.75 0 0 1 .277.707l-2.065 13.049-.003.02a4 4 0 0 1-.064.343 1.1 1.1 0 0 1-.26.49 1.06 1.06 0 0 1-.758.327 1.1 1.1 0 0 1-.53-.145 4 4 0 0 1-.296-.186l-.018-.011-2.467-1.649-2.353 1.921a5 5 0 0 1-.342.264 1.1 1.1 0 0 1-.605.21 1.06 1.06 0 0 1-.836-.39 1.1 1.1 0 0 1-.227-.605 5 5 0 0 1-.011-.43v-.01l-.136-3.748-5.256-1.55-.026-.007a7 7 0 0 1-.504-.16c-.11-.043-.402-.156-.577-.44a1.05 1.05 0 0 1-.056-1.003c.143-.303.42-.447.525-.501.134-.07.308-.142.483-.215l15.353-6.384a.75.75 0 0 1 .752.104M10.298 13.16l5.23-4.903-9.892 3.529zm7.617-5.097-6.208 5.827 2.944 1.91 2.605 1.741z"/></svg>