<svg width="24" height="24" fill="currentColor" viewBox="0 0 24 24" xmlns="http://www.w3.org/2000/svg"><path d="M11.25 21v-2.745c-.76.007-1.466.008-2.12-.108-.814-.145-1.554-.464-2.35-1.09l-.345-.287c-.614-.541-1.724-1.834-2.383-3.215-.33-.69-.583-1.476-.55-2.242.037-.813.403-1.57 1.219-2.082l.109-.082q.037-.035.06-.063c-.13-.752-.136-1.7.28-2.524.45-.885 1.313-1.49 2.622-1.622.083-.264.183-.585.293-.865.14-.355.346-.775.693-1.09.383-.347.882-.516 1.471-.445.492.06 1.021.282 1.6.644.265-.2.555-.41.859-.574.373-.202.826-.375 1.328-.359 1.072.035 1.846.878 2.44 2.282.66.225 1.47.638 2.041 1.3.315.364.567.814.665 1.352.093.51.037 1.052-.177 1.618.884.473 1.348 1.207 1.465 2.048.11.798-.098 1.633-.404 2.37-.533 1.29-1.466 2.53-2.158 3.237l-.28.269c-.932.83-1.771 1.234-2.71 1.408-.669.123-1.39.125-2.168.119V21a.75.75 0 1 1-1.5 0"/></svg>