<svg width="24" height="24" fill="currentColor" viewBox="0 0 24 24" xmlns="http://www.w3.org/2000/svg"><path d="M18.517 4.903c-1.271-1.12-2.966-1.074-4.423-.526-1.155.435-1.891 1.19-2.32 2.113-.306.661-.446 1.389-.498 2.112C8.9 8.459 6.811 7.276 5.411 5.31a.75.75 0 0 0-.652-.313c-.307.016-.532.22-.666.481q-.046.088-.12.246a10 10 0 0 0-.354.875c-.255.73-.519 1.756-.53 2.904-.012 1.154.233 2.446 1.007 3.676.599.95 1.494 1.832 2.769 2.578-1.227.672-2.447 1.052-3.836.998a.75.75 0 0 0-.39 1.407c3.105 1.7 6.555 2.323 9.602 1.435 4.96-1.449 7.853-6.09 7.873-11.001q.044-.1.137-.285.105-.211.238-.467.12-.23.258-.504c.364-.719.818-1.65.981-2.31a.75.75 0 0 0-1.06-.853c-.612.302-1.193.462-1.859.645z"/></svg>