<svg width="24" height="24" fill="currentColor" viewBox="0 0 24 24" xmlns="http://www.w3.org/2000/svg"><path d="M1.25 13C1.25 7.063 6.063 2.25 12 2.25S22.75 7.063 22.75 13a.75.75 0 0 1-1.238.57c-1.22-1.046-2.01-1.418-2.694-1.418-.683 0-1.474.372-2.693 1.417a.75.75 0 0 1-1.019-.039c-.838-.838-1.622-1.312-2.356-1.5v6.743c0 1.094-.436 1.964-1.123 2.55-.67.572-1.538.839-2.377.839-.84 0-1.707-.267-2.377-.84-.687-.585-1.123-1.455-1.123-2.55a.75.75 0 0 1 1.5 0c0 .666.251 1.116.596 1.41.36.307.868.48 1.404.48s1.043-.173 1.404-.48c.345-.294.596-.744.596-1.41V12.03c-.734.19-1.518.663-2.356 1.501a.75.75 0 0 1-1.018.04c-1.22-1.046-2.01-1.418-2.694-1.418s-1.474.372-2.694 1.417A.75.75 0 0 1 1.25 13"/></svg>