<svg width="24" height="24" fill="currentColor" viewBox="0 0 24 24" xmlns="http://www.w3.org/2000/svg"><path d="M5.75 7.5A2.25 2.25 0 0 1 9.5 5.823a.75.75 0 0 0 1-1.118 3.75 3.75 0 1 0-5 5.59.75.75 0 0 0 1-1.118A2.24 2.24 0 0 1 5.75 7.5M16 3.75a3.74 3.74 0 0 0-2.5.955.75.75 0 0 0 1 1.118 2.25 2.25 0 0 1 3 3.355.75.75 0 0 0 1 1.117A3.75 3.75 0 0 0 16 3.75"/><path d="M12 6.75a3.75 3.75 0 1 0 0 7.5 3.75 3.75 0 0 0 0-7.5m-5.81 7.726a.75.75 0 0 0-.38-1.452c-.97.255-1.836.682-2.474 1.256-.64.575-1.086 1.336-1.086 2.22a.75.75 0 0 0 1.5 0c0-.346.17-.729.59-1.105.42-.378 1.054-.71 1.85-.92m12-1.45a.75.75 0 0 0-.38 1.45c.796.21 1.43.542 1.85.92.42.376.59.76.59 1.105a.75.75 0 0 0 1.5 0c0-.884-.446-1.645-1.086-2.22-.638-.574-1.504-1.001-2.474-1.255M12 15.75c-1.493 0-2.881.362-3.921.986-1.025.615-1.829 1.569-1.829 2.764a.75.75 0 0 0 1.5 0c0-.462.316-1.007 1.1-1.478.77-.462 1.882-.772 3.15-.772s2.38.31 3.15.772c.784.47 1.1 1.017 1.1 1.478a.75.75 0 0 0 1.5 0c0-1.195-.804-2.15-1.829-2.764-1.04-.624-2.428-.986-3.921-.986"/></svg>