<svg width="24" height="24" fill="currentColor" viewBox="0 0 24 24" xmlns="http://www.w3.org/2000/svg"><path d="M8.25 7.5a3.75 3.75 0 1 1 7.5 0 3.75 3.75 0 0 1-7.5 0m11.999 12.962c-.262-5.148-4.307-7.712-8.249-7.712s-7.987 2.563-8.249 7.712a.75.75 0 0 0 .71.787c3.365.171 12.998.106 15.077 0a.75.75 0 0 0 .711-.787M10.055 15.22a.75.75 0 0 1 1.061 0l.884.883.884-.883a.75.75 0 0 1 1.06 1.06l-.883.884.883.884a.75.75 0 0 1-1.06 1.06L12 18.226l-.884.884a.75.75 0 1 1-1.06-1.06l.883-.885-.884-.884a.75.75 0 0 1 0-1.06"/></svg>