<svg width="24" height="24" fill="currentColor" viewBox="0 0 24 24" xmlns="http://www.w3.org/2000/svg"><path d="M12 7.5a1.75 1.75 0 1 0 0 3.5 1.75 1.75 0 0 0 0-3.5"/><path d="M8.937 2.25a2.3 2.3 0 0 0-.9.158c-.299.122-.54.31-.762.53L2.938 7.275c-.213.214-.4.45-.525.748a2.3 2.3 0 0 0-.163.914v6.126c0 .302.036.602.158.9s.31.54.53.762l3.312 3.312.001-.575C6.434 15.883 9.272 14.11 12 14.11s5.566 1.773 5.749 5.352v.575l3.313-3.312c.213-.214.4-.45.524-.748a2.3 2.3 0 0 0 .164-.914V8.937a2.3 2.3 0 0 0-.158-.9 2.3 2.3 0 0 0-.53-.762l-4.337-4.337a2.3 2.3 0 0 0-.762-.53 2.3 2.3 0 0 0-.9-.158zm-.187 7a3.25 3.25 0 1 1 6.5 0 3.25 3.25 0 0 1-6.5 0"/><path d="m16.262 21.439-.011-1.9c-.134-2.609-2.137-3.93-4.251-3.93s-4.117 1.321-4.251 3.93c-.002.031-.005.698-.01 1.9q.132.083.284.148c.298.124.601.163.914.163h6.126c.302 0 .602-.035.9-.158q.159-.065.299-.153"/></svg>