<svg width="24" height="24" fill="currentColor" viewBox="0 0 24 24" xmlns="http://www.w3.org/2000/svg"><path d="m5.26 7.242 4.823 2.785q.233-.225.508-.389l-1.442-5.38a8.2 8.2 0 0 0-3.89 2.984m5.338-3.372 1.441 5.38q.319.004.635.083l2.785-4.824a8.2 8.2 0 0 0-4.861-.64m6.16 1.39-2.785 4.823q.225.234.389.508l5.38-1.442a8.2 8.2 0 0 0-2.984-3.89m3.372 5.338-5.38 1.441a2.7 2.7 0 0 1-.083.635l4.824 2.785a8.2 8.2 0 0 0 .64-4.861m-1.39 6.16-4.823-2.785q-.234.225-.508.389l1.442 5.38a8.2 8.2 0 0 0 3.89-2.984m-5.338 3.372-1.441-5.38a2.7 2.7 0 0 1-.635-.083L8.541 19.49a8.2 8.2 0 0 0 4.861.64m-6.16-1.39 2.785-4.823a2.7 2.7 0 0 1-.389-.508l-5.38 1.442a8.2 8.2 0 0 0 2.984 3.89M3.87 13.403l5.38-1.441q.004-.319.083-.635L4.509 8.541a8.2 8.2 0 0 0-.64 4.861m-.314-6.277C6.25 2.462 12.212.864 16.875 3.556s6.261 8.656 3.569 13.319-8.656 6.261-13.32 3.569C2.463 17.75.865 11.788 3.557 7.125"/></svg>