<svg width="24" height="24" fill="currentColor" viewBox="0 0 24 24" xmlns="http://www.w3.org/2000/svg"><path d="M15.47 3.47a.75.75 0 0 1 1.06 0L18 4.94l1.47-1.47a.75.75 0 1 1 1.06 1.06L19.06 6l1.47 1.47a.75.75 0 0 1-1.06 1.06L18 7.06l-1.47 1.47a.75.75 0 1 1-1.06-1.06L16.94 6l-1.47-1.47a.75.75 0 0 1 0-1.06M12 6.25c-3.415 0-6.827 1.26-9.484 3.777a.75.75 0 0 1-1.032-1.089A15.25 15.25 0 0 1 12 4.75a.75.75 0 0 1 0 1.5m-7.53 7.18a.75.75 0 0 1 0-1.06c4.159-4.16 10.901-4.16 15.06 0a.75.75 0 1 1-1.06 1.06 9.15 9.15 0 0 0-12.94 0 .75.75 0 0 1-1.06 0m3 3.257a.75.75 0 0 1 0-1.06 6.407 6.407 0 0 1 9.06 0 .75.75 0 0 1-1.06 1.06 4.907 4.907 0 0 0-6.94 0 .75.75 0 0 1-1.06 0M12 18a.75.75 0 0 1 .75.75v.5a.75.75 0 0 1-1.5 0v-.5A.75.75 0 0 1 12 18"/></svg>