<svg width="24" height="24" fill="currentColor" viewBox="0 0 24 24" xmlns="http://www.w3.org/2000/svg"><path d="M9.367 2.25c-1.092 0-1.958 0-2.655.057-.714.058-1.317.18-1.868.46a4.75 4.75 0 0 0-2.076 2.077c-.281.55-.403 1.154-.461 1.868-.057.697-.057 1.563-.057 2.655v5.266c0 1.092 0 1.958.057 2.655.058.714.18 1.317.46 1.869a4.75 4.75 0 0 0 2.077 2.075c.55.281 1.154.403 1.868.461.697.057 1.563.057 2.655.057h5.266c1.092 0 1.958 0 2.655-.057.714-.058 1.317-.18 1.869-.46a4.75 4.75 0 0 0 2.075-2.076c.281-.552.403-1.155.461-1.869.057-.697.057-1.563.057-2.655V9.367c0-1.092 0-1.958-.057-2.655-.058-.714-.18-1.317-.46-1.868a4.75 4.75 0 0 0-2.076-2.076c-.552-.281-1.155-.403-1.869-.461-.697-.057-1.563-.057-2.655-.057zM8.07 6.886a.75.75 0 0 1 1.044.184L12 11.192l2.886-4.122a.75.75 0 0 1 1.229.86l-2.674 3.82h1.74a.75.75 0 0 1 0 1.5h-2.43v1h2.43a.75.75 0 0 1 0 1.5h-2.43v1.75a.75.75 0 0 1-1.5 0v-1.75H8.817a.75.75 0 0 1 0-1.5h2.432v-1H8.818a.75.75 0 0 1 0-1.5h1.742L7.886 7.93a.75.75 0 0 1 .184-1.044"/></svg>