<?xml version="1.0" standalone="no"?>
<!DOCTYPE svg PUBLIC "-//W3C//DTD SVG 1.1//EN" "http://www.w3.org/Graphics/SVG/1.1/DTD/svg11.dtd" >
<svg xmlns="http://www.w3.org/2000/svg">
<defs>
  <font id="mynaui" horiz-adv-x="1000">
    <font-face font-family="mynaui"
      units-per-em="1000" ascent="1000"
      descent="0" />
    <missing-glyph horiz-adv-x="0" />
    <glyph glyph-name="academic-hat"
      unicode="&#xEA01;"
      horiz-adv-x="1000" d="M592.375 854.1666666666667A215.4166666666666 215.4166666666666 0 0 1 407.6250000000001 854.1666666666667L128.8333333333334 723.4583333333334C68.1666666666667 695.0416666666667 68.1666666666667 596.625 128.8333333333334 568.2083333333334L407.5833333333333 437.5A215.4166666666666 215.4166666666666 0 0 1 592.3749999999999 437.5L871.1666666666665 568.2083333333334C931.8333333333331 596.625 931.8333333333331 695.0416666666667 871.1666666666665 723.4583333333334L592.4166666666666 854.1666666666667zM916.6666666666666 645.8333333333334V437.5M208.3333333333333 520.8333333333334V307.2916666666668C208.3333333333333 185.7083333333334 403.9166666666667 125 500 125S791.6666666666666 185.7083333333334 791.6666666666666 307.2916666666668V520.8333333333334" />
    <glyph glyph-name="activity"
      unicode="&#xEA02;"
      horiz-adv-x="1000" d="M875 500H728.0833333333333A4.1666666666667 4.1666666666667 0 0 1 724.125 496.9583333333334L616.5 128.0416666666668A4.1666666666667 4.1666666666667 0 0 0 608.5 128.0416666666668L391.5 871.9583333333334A4.1666666666667 4.1666666666667 0 0 1 383.5 871.9583333333334L275.875 503.0416666666667A4.1666666666667 4.1666666666667 0 0 0 271.9166666666667 500H125" />
    <glyph glyph-name="arrow-diagonal-one"
      unicode="&#xEA03;"
      horiz-adv-x="1000" d="M205.375 470.5416666666666L529.4583333333334 794.625M529.4583333333334 794.625V588.375M529.4583333333334 794.625H323.2083333333333M794.625 529.4583333333333L470.5416666666667 205.375M470.5416666666667 205.375H676.7916666666667M470.5416666666667 205.375V411.6249999999999" />
    <glyph glyph-name="arrow-diagonal-two"
      unicode="&#xEA04;"
      horiz-adv-x="1000" d="M470.5416666666666 794.625L794.6249999999999 470.5416666666666M794.6249999999999 470.5416666666666H588.3749999999999M794.6249999999999 470.5416666666666V676.7916666666667M529.4583333333331 205.375L205.4166666666667 529.4583333333334M205.4166666666667 529.4583333333334V323.2083333333335M205.4166666666667 529.4583333333334H411.6666666666667" />
    <glyph glyph-name="arrow-down-circle"
      unicode="&#xEA05;"
      horiz-adv-x="1000" d="M125 479.1666666666667A375 375 0 0 1 875 479.1666666666667A375 375 0 0 1 125 479.1666666666667M500 666.6666666666667V291.6666666666668M645.8333333333333 437.5L500 291.6666666666668L354.1666666666667 437.5" />
    <glyph glyph-name="arrow-down-left-circle"
      unicode="&#xEA06;"
      horiz-adv-x="1000" d="M125 479.1666666666667A375 375 0 0 1 875 479.1666666666667A375 375 0 0 1 125 479.1666666666667M632.5833333333333 611.75L367.4166666666667 346.5833333333335M573.6666666666666 346.5833333333335H367.4166666666667V552.8333333333334" />
    <glyph glyph-name="arrow-down-left-square"
      unicode="&#xEA07;"
      horiz-adv-x="1000" d="M632.5833333333333 611.75L367.4166666666667 346.5833333333335M573.6666666666666 346.5833333333335H367.4166666666667V552.8333333333334M125 479.1666666666667C125 655.9583333333334 125 744.3333333333334 179.9166666666666 799.25C234.8333333333333 854.1666666666667 323.25 854.1666666666667 500 854.1666666666667C676.7916666666667 854.1666666666667 765.1666666666666 854.1666666666667 820.0833333333334 799.25C875 744.3333333333334 875 655.9166666666667 875 479.1666666666667C875 302.375 875 214 820.0833333333333 159.0833333333333C765.1666666666666 104.1666666666667 676.75 104.1666666666667 500 104.1666666666667C323.2083333333333 104.1666666666667 234.8333333333333 104.1666666666667 179.9166666666666 159.0833333333335C125 214 125 302.4166666666667 125 479.1666666666667z" />
    <glyph glyph-name="arrow-down-left-waves"
      unicode="&#xEA08;"
      horiz-adv-x="1000" d="M632.5833333333333 611.75L367.4166666666667 346.5833333333335M573.6666666666666 346.5833333333335H367.4166666666667V552.8333333333334M409.7083333333333 809.1666666666667C432.625 828.75 444.125 838.5 456.125 844.2083333333334A101.75 101.75 0 0 0 543.875 844.2083333333334C555.875 838.5 567.3333333333334 828.7083333333334 590.2916666666667 809.1666666666667A130.5 130.5 0 0 1 669.4583333333333 776.3333333333334C699.5416666666667 773.9583333333333 714.5833333333333 772.75 727.125 768.3333333333333A101.75 101.75 0 0 0 789.1666666666666 706.25C793.5833333333334 693.75 794.7916666666667 678.75 797.1666666666666 648.6666666666667A130.4166666666667 130.4166666666667 0 0 1 830 569.4583333333334C849.5833333333333 546.5416666666666 859.3333333333334 535.0416666666667 865.0416666666667 523.0416666666666C878.3333333333334 495.2916666666666 878.3333333333334 463.0416666666666 865.0416666666667 435.2916666666667C859.3333333333334 423.2916666666667 849.5416666666667 411.8333333333333 830 388.875A130.4166666666667 130.4166666666667 0 0 1 797.1666666666666 309.7083333333334C794.7916666666667 279.625 793.5833333333334 264.5833333333335 789.1666666666666 252.0416666666668A101.75 101.75 0 0 0 727.0833333333334 190C714.5833333333334 185.5833333333333 699.5833333333334 184.3749999999999 669.5 182A130.4583333333333 130.4583333333333 0 0 1 590.2916666666667 149.1666666666666C567.375 129.5833333333334 555.875 119.8333333333333 543.875 114.1249999999999A101.7083333333333 101.7083333333333 0 0 0 456.125 114.1249999999999C444.125 119.8333333333333 432.6666666666667 129.6249999999999 409.7083333333333 149.1666666666666A130.4166666666667 130.4166666666667 0 0 1 330.5416666666667 182C300.4583333333333 184.3749999999999 285.4166666666667 185.5833333333333 272.875 190A101.75 101.75 0 0 0 210.8333333333333 252.0833333333333C206.4166666666667 264.5833333333333 205.2083333333333 279.5833333333333 202.8333333333333 309.6666666666667A130.5 130.5 0 0 1 170 388.875C150.4166666666666 411.7916666666667 140.6666666666666 423.2916666666667 134.9583333333333 435.2916666666667A101.75 101.75 0 0 0 134.9583333333333 523.0416666666666C140.6666666666666 535.0416666666667 150.4583333333333 546.5 170 569.4583333333334A130.4583333333333 130.4583333333333 0 0 1 202.8333333333333 648.625C205.2083333333333 678.7083333333333 206.4166666666667 693.75 210.8333333333333 706.2916666666667A101.75 101.75 0 0 0 272.9166666666667 768.3333333333334C285.4166666666667 772.75 300.4166666666667 773.9583333333334 330.5 776.3333333333334A130.4583333333333 130.4583333333333 0 0 1 409.7083333333333 809.1666666666667z" />
    <glyph glyph-name="arrow-down-left"
      unicode="&#xEA09;"
      horiz-adv-x="1000" d="M729.1666666666666 729.1666666666667L270.8333333333333 270.8333333333334M270.8333333333333 270.8333333333334H645.8333333333333M270.8333333333333 270.8333333333334V645.8333333333334" />
    <glyph glyph-name="arrow-down-right-circle"
      unicode="&#xEA0A;"
      horiz-adv-x="1000" d="M125 479.1666666666667A375 375 0 0 1 875 479.1666666666667A375 375 0 0 1 125 479.1666666666667M367.4166666666667 611.75L632.5833333333333 346.5833333333335M632.5833333333333 552.8333333333334V346.5833333333335H426.3333333333333" />
    <glyph glyph-name="arrow-down-right-square"
      unicode="&#xEA0B;"
      horiz-adv-x="1000" d="M367.4166666666667 611.75L632.5833333333333 346.5833333333335M632.5833333333333 552.8333333333334V346.5833333333335H426.3333333333333M125 479.1666666666667C125 655.9583333333334 125 744.3333333333334 179.9166666666666 799.25C234.8333333333333 854.1666666666667 323.25 854.1666666666667 500 854.1666666666667C676.7916666666667 854.1666666666667 765.1666666666666 854.1666666666667 820.0833333333334 799.25C875 744.3333333333334 875 655.9166666666667 875 479.1666666666667C875 302.375 875 214 820.0833333333333 159.0833333333333C765.1666666666666 104.1666666666667 676.75 104.1666666666667 500 104.1666666666667C323.2083333333333 104.1666666666667 234.8333333333333 104.1666666666667 179.9166666666666 159.0833333333335C125 214 125 302.4166666666667 125 479.1666666666667z" />
    <glyph glyph-name="arrow-down-right-waves"
      unicode="&#xEA0C;"
      horiz-adv-x="1000" d="M367.4166666666667 611.75L632.5833333333333 346.5833333333335M632.5833333333333 552.8333333333334V346.5833333333335H426.3333333333333M409.7083333333333 809.1666666666667C432.625 828.75 444.125 838.5 456.125 844.2083333333334A101.75 101.75 0 0 0 543.875 844.2083333333334C555.875 838.5 567.3333333333334 828.7083333333334 590.2916666666667 809.1666666666667A130.5 130.5 0 0 1 669.4583333333333 776.3333333333334C699.5416666666667 773.9583333333333 714.5833333333333 772.75 727.125 768.3333333333333A101.75 101.75 0 0 0 789.1666666666666 706.25C793.5833333333334 693.75 794.7916666666667 678.75 797.1666666666666 648.6666666666667A130.4166666666667 130.4166666666667 0 0 1 830 569.4583333333334C849.5833333333333 546.5416666666666 859.3333333333334 535.0416666666667 865.0416666666667 523.0416666666666C878.3333333333334 495.2916666666666 878.3333333333334 463.0416666666666 865.0416666666667 435.2916666666667C859.3333333333334 423.2916666666667 849.5416666666667 411.8333333333333 830 388.875A130.4166666666667 130.4166666666667 0 0 1 797.1666666666666 309.7083333333334C794.7916666666667 279.625 793.5833333333334 264.5833333333335 789.1666666666666 252.0416666666668A101.75 101.75 0 0 0 727.0833333333334 190C714.5833333333334 185.5833333333333 699.5833333333334 184.3749999999999 669.5 182A130.4583333333333 130.4583333333333 0 0 1 590.2916666666667 149.1666666666666C567.375 129.5833333333334 555.875 119.8333333333333 543.875 114.1249999999999A101.7083333333333 101.7083333333333 0 0 0 456.125 114.1249999999999C444.125 119.8333333333333 432.6666666666667 129.6249999999999 409.7083333333333 149.1666666666666A130.4166666666667 130.4166666666667 0 0 1 330.5416666666667 182C300.4583333333333 184.3749999999999 285.4166666666667 185.5833333333333 272.875 190A101.75 101.75 0 0 0 210.8333333333333 252.0833333333333C206.4166666666667 264.5833333333333 205.2083333333333 279.5833333333333 202.8333333333333 309.6666666666667A130.5 130.5 0 0 1 170 388.875C150.4166666666666 411.7916666666667 140.6666666666666 423.2916666666667 134.9583333333333 435.2916666666667A101.75 101.75 0 0 0 134.9583333333333 523.0416666666666C140.6666666666666 535.0416666666667 150.4583333333333 546.5 170 569.4583333333334A130.4583333333333 130.4583333333333 0 0 1 202.8333333333333 648.625C205.2083333333333 678.7083333333333 206.4166666666667 693.75 210.8333333333333 706.2916666666667A101.75 101.75 0 0 0 272.9166666666667 768.3333333333334C285.4166666666667 772.75 300.4166666666667 773.9583333333334 330.5 776.3333333333334A130.4583333333333 130.4583333333333 0 0 1 409.7083333333333 809.1666666666667z" />
    <glyph glyph-name="arrow-down-right"
      unicode="&#xEA0D;"
      horiz-adv-x="1000" d="M270.8333333333333 729.1666666666667L729.1666666666666 270.8333333333334M729.1666666666666 270.8333333333334H354.1666666666667M729.1666666666666 270.8333333333334V645.8333333333334" />
    <glyph glyph-name="arrow-down-square"
      unicode="&#xEA0E;"
      horiz-adv-x="1000" d="M500 666.6666666666667V291.6666666666668M645.8333333333333 437.5L500 291.6666666666668L354.1666666666667 437.5M125 479.1666666666667C125 655.9583333333334 125 744.3333333333334 179.9166666666666 799.25C234.8333333333333 854.1666666666667 323.25 854.1666666666667 500 854.1666666666667C676.7916666666667 854.1666666666667 765.1666666666666 854.1666666666667 820.0833333333334 799.25C875 744.3333333333334 875 655.9166666666667 875 479.1666666666667C875 302.375 875 214 820.0833333333333 159.0833333333333C765.1666666666666 104.1666666666667 676.75 104.1666666666667 500 104.1666666666667C323.2083333333333 104.1666666666667 234.8333333333333 104.1666666666667 179.9166666666666 159.0833333333335C125 214 125 302.4166666666667 125 479.1666666666667z" />
    <glyph glyph-name="arrow-down-waves"
      unicode="&#xEA0F;"
      horiz-adv-x="1000" d="M500 666.6666666666667V291.6666666666668M645.8333333333333 437.5L500 291.6666666666668L354.1666666666667 437.5M409.7083333333333 809.1666666666667C432.625 828.75 444.125 838.5 456.125 844.2083333333334A101.75 101.75 0 0 0 543.875 844.2083333333334C555.875 838.5 567.3333333333334 828.7083333333334 590.2916666666667 809.1666666666667A130.5 130.5 0 0 1 669.4583333333333 776.3333333333334C699.5416666666667 773.9583333333333 714.5833333333333 772.75 727.125 768.3333333333333A101.75 101.75 0 0 0 789.1666666666666 706.25C793.5833333333334 693.75 794.7916666666667 678.75 797.1666666666666 648.6666666666667A130.4166666666667 130.4166666666667 0 0 1 830 569.4583333333334C849.5833333333333 546.5416666666666 859.3333333333334 535.0416666666667 865.0416666666667 523.0416666666666C878.3333333333334 495.2916666666666 878.3333333333334 463.0416666666666 865.0416666666667 435.2916666666667C859.3333333333334 423.2916666666667 849.5416666666667 411.8333333333333 830 388.875A130.4166666666667 130.4166666666667 0 0 1 797.1666666666666 309.7083333333334C794.7916666666667 279.625 793.5833333333334 264.5833333333335 789.1666666666666 252.0416666666668A101.75 101.75 0 0 0 727.0833333333334 190C714.5833333333334 185.5833333333333 699.5833333333334 184.3749999999999 669.5 182A130.4583333333333 130.4583333333333 0 0 1 590.2916666666667 149.1666666666666C567.375 129.5833333333334 555.875 119.8333333333333 543.875 114.1249999999999A101.7083333333333 101.7083333333333 0 0 0 456.125 114.1249999999999C444.125 119.8333333333333 432.6666666666667 129.6249999999999 409.7083333333333 149.1666666666666A130.4166666666667 130.4166666666667 0 0 1 330.5416666666667 182C300.4583333333333 184.3749999999999 285.4166666666667 185.5833333333333 272.875 190A101.75 101.75 0 0 0 210.8333333333333 252.0833333333333C206.4166666666667 264.5833333333333 205.2083333333333 279.5833333333333 202.8333333333333 309.6666666666667A130.5 130.5 0 0 1 170 388.875C150.4166666666666 411.7916666666667 140.6666666666666 423.2916666666667 134.9583333333333 435.2916666666667A101.75 101.75 0 0 0 134.9583333333333 523.0416666666666C140.6666666666666 535.0416666666667 150.4583333333333 546.5 170 569.4583333333334A130.4583333333333 130.4583333333333 0 0 1 202.8333333333333 648.625C205.2083333333333 678.7083333333333 206.4166666666667 693.75 210.8333333333333 706.2916666666667A101.75 101.75 0 0 0 272.9166666666667 768.3333333333334C285.4166666666667 772.75 300.4166666666667 773.9583333333334 330.5 776.3333333333334A130.4583333333333 130.4583333333333 0 0 1 409.7083333333333 809.1666666666667z" />
    <glyph glyph-name="arrow-down"
      unicode="&#xEA10;"
      horiz-adv-x="1000" d="M500 812.5V187.5M500 187.5L250 421.875M500 187.5L750 421.875" />
    <glyph glyph-name="arrow-left-circle"
      unicode="&#xEA11;"
      horiz-adv-x="1000" d="M125 479.1666666666667A375 375 0 0 1 875 479.1666666666667A375 375 0 0 1 125 479.1666666666667M687.5 479.1666666666667H312.5M458.3333333333333 333.3333333333334L312.5 479.1666666666667L458.3333333333333 625" />
    <glyph glyph-name="arrow-left-right"
      unicode="&#xEA12;"
      horiz-adv-x="1000" d="M270.8333333333333 687.5H729.1666666666666M729.1666666666666 687.5L583.3333333333333 541.6666666666667M729.1666666666666 687.5L583.3333333333333 833.3333333333334M729.1666666666666 312.5H270.8333333333333M270.8333333333333 312.5L416.6666666666667 166.6666666666668M270.8333333333333 312.5L416.6666666666667 458.3333333333334" />
    <glyph glyph-name="arrow-left-square"
      unicode="&#xEA13;"
      horiz-adv-x="1000" d="M687.5 479.1666666666667H312.5M458.3333333333333 333.3333333333334L312.5 479.1666666666667L458.3333333333333 625M125 479.1666666666667C125 655.9583333333334 125 744.3333333333334 179.9166666666666 799.25C234.8333333333333 854.1666666666667 323.25 854.1666666666667 500 854.1666666666667C676.7916666666667 854.1666666666667 765.1666666666666 854.1666666666667 820.0833333333334 799.25C875 744.3333333333334 875 655.9166666666667 875 479.1666666666667C875 302.375 875 214 820.0833333333333 159.0833333333333C765.1666666666666 104.1666666666667 676.75 104.1666666666667 500 104.1666666666667C323.2083333333333 104.1666666666667 234.8333333333333 104.1666666666667 179.9166666666666 159.0833333333335C125 214 125 302.4166666666667 125 479.1666666666667z" />
    <glyph glyph-name="arrow-left-waves"
      unicode="&#xEA14;"
      horiz-adv-x="1000" d="M687.5 479.1666666666667H312.5M458.3333333333333 333.3333333333334L312.5 479.1666666666667L458.3333333333333 625M409.7083333333333 809.1666666666667C432.625 828.75 444.125 838.5 456.125 844.2083333333334A101.75 101.75 0 0 0 543.875 844.2083333333334C555.875 838.5 567.3333333333334 828.7083333333334 590.2916666666667 809.1666666666667A130.5 130.5 0 0 1 669.4583333333333 776.3333333333334C699.5416666666667 773.9583333333333 714.5833333333333 772.75 727.125 768.3333333333333A101.75 101.75 0 0 0 789.1666666666666 706.25C793.5833333333334 693.75 794.7916666666667 678.75 797.1666666666666 648.6666666666667A130.4166666666667 130.4166666666667 0 0 1 830 569.4583333333334C849.5833333333333 546.5416666666666 859.3333333333334 535.0416666666667 865.0416666666667 523.0416666666666C878.3333333333334 495.2916666666666 878.3333333333334 463.0416666666666 865.0416666666667 435.2916666666667C859.3333333333334 423.2916666666667 849.5416666666667 411.8333333333333 830 388.875A130.4166666666667 130.4166666666667 0 0 1 797.1666666666666 309.7083333333334C794.7916666666667 279.625 793.5833333333334 264.5833333333335 789.1666666666666 252.0416666666668A101.75 101.75 0 0 0 727.0833333333334 190C714.5833333333334 185.5833333333333 699.5833333333334 184.3749999999999 669.5 182A130.4583333333333 130.4583333333333 0 0 1 590.2916666666667 149.1666666666666C567.375 129.5833333333334 555.875 119.8333333333333 543.875 114.1249999999999A101.7083333333333 101.7083333333333 0 0 0 456.125 114.1249999999999C444.125 119.8333333333333 432.6666666666667 129.6249999999999 409.7083333333333 149.1666666666666A130.4166666666667 130.4166666666667 0 0 1 330.5416666666667 182C300.4583333333333 184.3749999999999 285.4166666666667 185.5833333333333 272.875 190A101.75 101.75 0 0 0 210.8333333333333 252.0833333333333C206.4166666666667 264.5833333333333 205.2083333333333 279.5833333333333 202.8333333333333 309.6666666666667A130.5 130.5 0 0 1 170 388.875C150.4166666666666 411.7916666666667 140.6666666666666 423.2916666666667 134.9583333333333 435.2916666666667A101.75 101.75 0 0 0 134.9583333333333 523.0416666666666C140.6666666666666 535.0416666666667 150.4583333333333 546.5 170 569.4583333333334A130.4583333333333 130.4583333333333 0 0 1 202.8333333333333 648.625C205.2083333333333 678.7083333333333 206.4166666666667 693.75 210.8333333333333 706.2916666666667A101.75 101.75 0 0 0 272.9166666666667 768.3333333333334C285.4166666666667 772.75 300.4166666666667 773.9583333333334 330.5 776.3333333333334A130.4583333333333 130.4583333333333 0 0 1 409.7083333333333 809.1666666666667z" />
    <glyph glyph-name="arrow-left"
      unicode="&#xEA15;"
      horiz-adv-x="1000" d="M812.5 500H187.5M187.5 500L421.875 750M187.5 500L421.875 250" />
    <glyph glyph-name="arrow-right-circle"
      unicode="&#xEA16;"
      horiz-adv-x="1000" d="M125 479.1666666666667A375 375 0 0 1 875 479.1666666666667A375 375 0 0 1 125 479.1666666666667M312.5 479.1666666666667H687.5M541.6666666666666 625L687.5 479.1666666666667L541.6666666666666 333.3333333333334" />
    <glyph glyph-name="arrow-right-square"
      unicode="&#xEA17;"
      horiz-adv-x="1000" d="M312.5 479.1666666666667H687.5M541.6666666666666 625L687.5 479.1666666666667L541.6666666666666 333.3333333333334M125 479.1666666666667C125 655.9583333333334 125 744.3333333333334 179.9166666666666 799.25C234.8333333333333 854.1666666666667 323.25 854.1666666666667 500 854.1666666666667C676.7916666666667 854.1666666666667 765.1666666666666 854.1666666666667 820.0833333333334 799.25C875 744.3333333333334 875 655.9166666666667 875 479.1666666666667C875 302.375 875 214 820.0833333333333 159.0833333333333C765.1666666666666 104.1666666666667 676.75 104.1666666666667 500 104.1666666666667C323.2083333333333 104.1666666666667 234.8333333333333 104.1666666666667 179.9166666666666 159.0833333333335C125 214 125 302.4166666666667 125 479.1666666666667z" />
    <glyph glyph-name="arrow-right-waves"
      unicode="&#xEA18;"
      horiz-adv-x="1000" d="M312.5 479.1666666666667H687.5M541.6666666666666 625L687.5 479.1666666666667L541.6666666666666 333.3333333333334M409.7083333333333 809.1666666666667C432.625 828.75 444.125 838.5 456.125 844.2083333333334A101.75 101.75 0 0 0 543.875 844.2083333333334C555.875 838.5 567.3333333333334 828.7083333333334 590.2916666666667 809.1666666666667A130.5 130.5 0 0 1 669.4583333333333 776.3333333333334C699.5416666666667 773.9583333333333 714.5833333333333 772.75 727.125 768.3333333333333A101.75 101.75 0 0 0 789.1666666666666 706.25C793.5833333333334 693.75 794.7916666666667 678.75 797.1666666666666 648.6666666666667A130.4166666666667 130.4166666666667 0 0 1 830 569.4583333333334C849.5833333333333 546.5416666666666 859.3333333333334 535.0416666666667 865.0416666666667 523.0416666666666C878.3333333333334 495.2916666666666 878.3333333333334 463.0416666666666 865.0416666666667 435.2916666666667C859.3333333333334 423.2916666666667 849.5416666666667 411.8333333333333 830 388.875A130.4166666666667 130.4166666666667 0 0 1 797.1666666666666 309.7083333333334C794.7916666666667 279.625 793.5833333333334 264.5833333333335 789.1666666666666 252.0416666666668A101.75 101.75 0 0 0 727.0833333333334 190C714.5833333333334 185.5833333333333 699.5833333333334 184.3749999999999 669.5 182A130.4583333333333 130.4583333333333 0 0 1 590.2916666666667 149.1666666666666C567.375 129.5833333333334 555.875 119.8333333333333 543.875 114.1249999999999A101.7083333333333 101.7083333333333 0 0 0 456.125 114.1249999999999C444.125 119.8333333333333 432.6666666666667 129.6249999999999 409.7083333333333 149.1666666666666A130.4166666666667 130.4166666666667 0 0 1 330.5416666666667 182C300.4583333333333 184.3749999999999 285.4166666666667 185.5833333333333 272.875 190A101.75 101.75 0 0 0 210.8333333333333 252.0833333333333C206.4166666666667 264.5833333333333 205.2083333333333 279.5833333333333 202.8333333333333 309.6666666666667A130.5 130.5 0 0 1 170 388.875C150.4166666666666 411.7916666666667 140.6666666666666 423.2916666666667 134.9583333333333 435.2916666666667A101.75 101.75 0 0 0 134.9583333333333 523.0416666666666C140.6666666666666 535.0416666666667 150.4583333333333 546.5 170 569.4583333333334A130.4583333333333 130.4583333333333 0 0 1 202.8333333333333 648.625C205.2083333333333 678.7083333333333 206.4166666666667 693.75 210.8333333333333 706.2916666666667A101.75 101.75 0 0 0 272.9166666666667 768.3333333333334C285.4166666666667 772.75 300.4166666666667 773.9583333333334 330.5 776.3333333333334A130.4583333333333 130.4583333333333 0 0 1 409.7083333333333 809.1666666666667z" />
    <glyph glyph-name="arrow-right"
      unicode="&#xEA19;"
      horiz-adv-x="1000" d="M187.5 500H812.5M812.5 500L578.125 750M812.5 500L578.125 250" />
    <glyph glyph-name="arrow-up-circle"
      unicode="&#xEA1A;"
      horiz-adv-x="1000" d="M125 479.1666666666667A375 375 0 0 1 875 479.1666666666667A375 375 0 0 1 125 479.1666666666667M500 291.6666666666668V666.6666666666667M354.1666666666667 520.8333333333334L500 666.6666666666667L645.8333333333333 520.8333333333334" />
    <glyph glyph-name="arrow-up-down"
      unicode="&#xEA1B;"
      horiz-adv-x="1000" d="M312.5 270.8333333333334V729.1666666666667M312.5 729.1666666666667L458.3333333333333 583.3333333333334M312.5 729.1666666666667L166.6666666666667 583.3333333333334M687.5 729.1666666666667V270.8333333333334M687.5 270.8333333333334L833.3333333333333 416.6666666666668M687.5 270.8333333333334L541.6666666666666 416.6666666666668" />
    <glyph glyph-name="arrow-up-left-circle"
      unicode="&#xEA1C;"
      horiz-adv-x="1000" d="M125 479.1666666666667A375 375 0 0 1 875 479.1666666666667A375 375 0 0 1 125 479.1666666666667M632.5833333333333 346.5833333333334L367.4166666666667 611.75M367.4166666666667 405.5V611.75H573.6666666666666" />
    <glyph glyph-name="arrow-up-left-square"
      unicode="&#xEA1D;"
      horiz-adv-x="1000" d="M632.5833333333333 346.5833333333334L367.4166666666667 611.75M367.4166666666667 405.5V611.75H573.6666666666666M125 479.1666666666667C125 655.9583333333334 125 744.3333333333334 179.9166666666666 799.25C234.8333333333333 854.1666666666667 323.25 854.1666666666667 500 854.1666666666667C676.7916666666667 854.1666666666667 765.1666666666666 854.1666666666667 820.0833333333334 799.25C875 744.3333333333334 875 655.9166666666667 875 479.1666666666667C875 302.375 875 214 820.0833333333333 159.0833333333333C765.1666666666666 104.1666666666667 676.75 104.1666666666667 500 104.1666666666667C323.2083333333333 104.1666666666667 234.8333333333333 104.1666666666667 179.9166666666666 159.0833333333335C125 214 125 302.4166666666667 125 479.1666666666667z" />
    <glyph glyph-name="arrow-up-left-waves"
      unicode="&#xEA1E;"
      horiz-adv-x="1000" d="M632.5833333333333 346.5833333333334L367.4166666666667 611.75M367.4166666666667 405.5V611.75H573.6666666666666M409.7083333333333 809.1666666666667C432.625 828.75 444.125 838.5 456.125 844.2083333333334A101.75 101.75 0 0 0 543.875 844.2083333333334C555.875 838.5 567.3333333333334 828.7083333333334 590.2916666666667 809.1666666666667A130.5 130.5 0 0 1 669.4583333333333 776.3333333333334C699.5416666666667 773.9583333333333 714.5833333333333 772.75 727.125 768.3333333333333A101.75 101.75 0 0 0 789.1666666666666 706.25C793.5833333333334 693.75 794.7916666666667 678.75 797.1666666666666 648.6666666666667A130.4166666666667 130.4166666666667 0 0 1 830 569.4583333333334C849.5833333333333 546.5416666666666 859.3333333333334 535.0416666666667 865.0416666666667 523.0416666666666C878.3333333333334 495.2916666666666 878.3333333333334 463.0416666666666 865.0416666666667 435.2916666666667C859.3333333333334 423.2916666666667 849.5416666666667 411.8333333333333 830 388.875A130.4166666666667 130.4166666666667 0 0 1 797.1666666666666 309.7083333333334C794.7916666666667 279.625 793.5833333333334 264.5833333333335 789.1666666666666 252.0416666666668A101.75 101.75 0 0 0 727.0833333333334 190C714.5833333333334 185.5833333333333 699.5833333333334 184.3749999999999 669.5 182A130.4583333333333 130.4583333333333 0 0 1 590.2916666666667 149.1666666666666C567.375 129.5833333333334 555.875 119.8333333333333 543.875 114.1249999999999A101.7083333333333 101.7083333333333 0 0 0 456.125 114.1249999999999C444.125 119.8333333333333 432.6666666666667 129.6249999999999 409.7083333333333 149.1666666666666A130.4166666666667 130.4166666666667 0 0 1 330.5416666666667 182C300.4583333333333 184.3749999999999 285.4166666666667 185.5833333333333 272.875 190A101.75 101.75 0 0 0 210.8333333333333 252.0833333333333C206.4166666666667 264.5833333333333 205.2083333333333 279.5833333333333 202.8333333333333 309.6666666666667A130.5 130.5 0 0 1 170 388.875C150.4166666666666 411.7916666666667 140.6666666666666 423.2916666666667 134.9583333333333 435.2916666666667A101.75 101.75 0 0 0 134.9583333333333 523.0416666666666C140.6666666666666 535.0416666666667 150.4583333333333 546.5 170 569.4583333333334A130.4583333333333 130.4583333333333 0 0 1 202.8333333333333 648.625C205.2083333333333 678.7083333333333 206.4166666666667 693.75 210.8333333333333 706.2916666666667A101.75 101.75 0 0 0 272.9166666666667 768.3333333333334C285.4166666666667 772.75 300.4166666666667 773.9583333333334 330.5 776.3333333333334A130.4583333333333 130.4583333333333 0 0 1 409.7083333333333 809.1666666666667z" />
    <glyph glyph-name="arrow-up-left"
      unicode="&#xEA1F;"
      horiz-adv-x="1000" d="M729.1666666666666 270.8333333333334L270.8333333333333 729.1666666666667M270.8333333333333 729.1666666666667H645.8333333333333M270.8333333333333 729.1666666666667V354.1666666666668" />
    <glyph glyph-name="arrow-up-right-circle"
      unicode="&#xEA20;"
      horiz-adv-x="1000" d="M125 479.1666666666667A375 375 0 0 1 875 479.1666666666667A375 375 0 0 1 125 479.1666666666667M367.4166666666667 346.5833333333334L632.5833333333333 611.75M426.3333333333333 611.75H632.5833333333333V405.5" />
    <glyph glyph-name="arrow-up-right-square"
      unicode="&#xEA21;"
      horiz-adv-x="1000" d="M367.4166666666667 346.5833333333334L632.5833333333333 611.75M426.3333333333333 611.75H632.5833333333333V405.5M125 479.1666666666667C125 655.9583333333334 125 744.3333333333334 179.9166666666666 799.25C234.8333333333333 854.1666666666667 323.25 854.1666666666667 500 854.1666666666667C676.7916666666667 854.1666666666667 765.1666666666666 854.1666666666667 820.0833333333334 799.25C875 744.3333333333334 875 655.9166666666667 875 479.1666666666667C875 302.375 875 214 820.0833333333333 159.0833333333333C765.1666666666666 104.1666666666667 676.75 104.1666666666667 500 104.1666666666667C323.2083333333333 104.1666666666667 234.8333333333333 104.1666666666667 179.9166666666666 159.0833333333335C125 214 125 302.4166666666667 125 479.1666666666667z" />
    <glyph glyph-name="arrow-up-right-waves"
      unicode="&#xEA22;"
      horiz-adv-x="1000" d="M367.4166666666667 346.5833333333334L632.5833333333333 611.75M426.3333333333333 611.75H632.5833333333333V405.5M409.7083333333333 809.1666666666667C432.625 828.75 444.125 838.5 456.125 844.2083333333334A101.75 101.75 0 0 0 543.875 844.2083333333334C555.875 838.5 567.3333333333334 828.7083333333334 590.2916666666667 809.1666666666667A130.5 130.5 0 0 1 669.4583333333333 776.3333333333334C699.5416666666667 773.9583333333333 714.5833333333333 772.75 727.125 768.3333333333333A101.75 101.75 0 0 0 789.1666666666666 706.25C793.5833333333334 693.75 794.7916666666667 678.75 797.1666666666666 648.6666666666667A130.4166666666667 130.4166666666667 0 0 1 830 569.4583333333334C849.5833333333333 546.5416666666666 859.3333333333334 535.0416666666667 865.0416666666667 523.0416666666666C878.3333333333334 495.2916666666666 878.3333333333334 463.0416666666666 865.0416666666667 435.2916666666667C859.3333333333334 423.2916666666667 849.5416666666667 411.8333333333333 830 388.875A130.4166666666667 130.4166666666667 0 0 1 797.1666666666666 309.7083333333334C794.7916666666667 279.625 793.5833333333334 264.5833333333335 789.1666666666666 252.0416666666668A101.75 101.75 0 0 0 727.0833333333334 190C714.5833333333334 185.5833333333333 699.5833333333334 184.3749999999999 669.5 182A130.4583333333333 130.4583333333333 0 0 1 590.2916666666667 149.1666666666666C567.375 129.5833333333334 555.875 119.8333333333333 543.875 114.1249999999999A101.7083333333333 101.7083333333333 0 0 0 456.125 114.1249999999999C444.125 119.8333333333333 432.6666666666667 129.6249999999999 409.7083333333333 149.1666666666666A130.4166666666667 130.4166666666667 0 0 1 330.5416666666667 182C300.4583333333333 184.3749999999999 285.4166666666667 185.5833333333333 272.875 190A101.75 101.75 0 0 0 210.8333333333333 252.0833333333333C206.4166666666667 264.5833333333333 205.2083333333333 279.5833333333333 202.8333333333333 309.6666666666667A130.5 130.5 0 0 1 170 388.875C150.4166666666666 411.7916666666667 140.6666666666666 423.2916666666667 134.9583333333333 435.2916666666667A101.75 101.75 0 0 0 134.9583333333333 523.0416666666666C140.6666666666666 535.0416666666667 150.4583333333333 546.5 170 569.4583333333334A130.4583333333333 130.4583333333333 0 0 1 202.8333333333333 648.625C205.2083333333333 678.7083333333333 206.4166666666667 693.75 210.8333333333333 706.2916666666667A101.75 101.75 0 0 0 272.9166666666667 768.3333333333334C285.4166666666667 772.75 300.4166666666667 773.9583333333334 330.5 776.3333333333334A130.4583333333333 130.4583333333333 0 0 1 409.7083333333333 809.1666666666667z" />
    <glyph glyph-name="arrow-up-right"
      unicode="&#xEA23;"
      horiz-adv-x="1000" d="M270.8333333333333 270.8333333333334L729.1666666666666 729.1666666666667M729.1666666666666 729.1666666666667H354.1666666666667M729.1666666666666 729.1666666666667V354.1666666666668" />
    <glyph glyph-name="arrow-up-square"
      unicode="&#xEA24;"
      horiz-adv-x="1000" d="M500 291.6666666666668V666.6666666666667M354.1666666666667 520.8333333333334L500 666.6666666666667L645.8333333333333 520.8333333333334M125 479.1666666666667C125 655.9583333333334 125 744.3333333333334 179.9166666666666 799.25C234.8333333333333 854.1666666666667 323.25 854.1666666666667 500 854.1666666666667C676.7916666666667 854.1666666666667 765.1666666666666 854.1666666666667 820.0833333333334 799.25C875 744.3333333333334 875 655.9166666666667 875 479.1666666666667C875 302.375 875 214 820.0833333333333 159.0833333333333C765.1666666666666 104.1666666666667 676.75 104.1666666666667 500 104.1666666666667C323.2083333333333 104.1666666666667 234.8333333333333 104.1666666666667 179.9166666666666 159.0833333333335C125 214 125 302.4166666666667 125 479.1666666666667z" />
    <glyph glyph-name="arrow-up-waves"
      unicode="&#xEA25;"
      horiz-adv-x="1000" d="M500 291.6666666666668V666.6666666666667M354.1666666666667 520.8333333333334L500 666.6666666666667L645.8333333333333 520.8333333333334M409.7083333333333 809.1666666666667C432.625 828.75 444.125 838.5 456.125 844.2083333333334A101.75 101.75 0 0 0 543.875 844.2083333333334C555.875 838.5 567.3333333333334 828.7083333333334 590.2916666666667 809.1666666666667A130.5 130.5 0 0 1 669.4583333333333 776.3333333333334C699.5416666666667 773.9583333333333 714.5833333333333 772.75 727.125 768.3333333333333A101.75 101.75 0 0 0 789.1666666666666 706.25C793.5833333333334 693.75 794.7916666666667 678.75 797.1666666666666 648.6666666666667A130.4166666666667 130.4166666666667 0 0 1 830 569.4583333333334C849.5833333333333 546.5416666666666 859.3333333333334 535.0416666666667 865.0416666666667 523.0416666666666C878.3333333333334 495.2916666666666 878.3333333333334 463.0416666666666 865.0416666666667 435.2916666666667C859.3333333333334 423.2916666666667 849.5416666666667 411.8333333333333 830 388.875A130.4166666666667 130.4166666666667 0 0 1 797.1666666666666 309.7083333333334C794.7916666666667 279.625 793.5833333333334 264.5833333333335 789.1666666666666 252.0416666666668A101.75 101.75 0 0 0 727.0833333333334 190C714.5833333333334 185.5833333333333 699.5833333333334 184.3749999999999 669.5 182A130.4583333333333 130.4583333333333 0 0 1 590.2916666666667 149.1666666666666C567.375 129.5833333333334 555.875 119.8333333333333 543.875 114.1249999999999A101.7083333333333 101.7083333333333 0 0 0 456.125 114.1249999999999C444.125 119.8333333333333 432.6666666666667 129.6249999999999 409.7083333333333 149.1666666666666A130.4166666666667 130.4166666666667 0 0 1 330.5416666666667 182C300.4583333333333 184.3749999999999 285.4166666666667 185.5833333333333 272.875 190A101.75 101.75 0 0 0 210.8333333333333 252.0833333333333C206.4166666666667 264.5833333333333 205.2083333333333 279.5833333333333 202.8333333333333 309.6666666666667A130.5 130.5 0 0 1 170 388.875C150.4166666666666 411.7916666666667 140.6666666666666 423.2916666666667 134.9583333333333 435.2916666666667A101.75 101.75 0 0 0 134.9583333333333 523.0416666666666C140.6666666666666 535.0416666666667 150.4583333333333 546.5 170 569.4583333333334A130.4583333333333 130.4583333333333 0 0 1 202.8333333333333 648.625C205.2083333333333 678.7083333333333 206.4166666666667 693.75 210.8333333333333 706.2916666666667A101.75 101.75 0 0 0 272.9166666666667 768.3333333333334C285.4166666666667 772.75 300.4166666666667 773.9583333333334 330.5 776.3333333333334A130.4583333333333 130.4583333333333 0 0 1 409.7083333333333 809.1666666666667z" />
    <glyph glyph-name="arrow-up"
      unicode="&#xEA26;"
      horiz-adv-x="1000" d="M500 187.5V812.5M500 812.5L250 578.125M500 812.5L750 578.125" />
    <glyph glyph-name="at"
      unicode="&#xEA27;"
      horiz-adv-x="1000" d="M648.1666666666666 500.1666666666667V648.25M648.1666666666666 500.1666666666667C648.1666666666666 691.1666666666666 351.8333333333333 691.125 351.8333333333333 500.1666666666667C351.8333333333333 308.75 648.1666666666666 310.9166666666668 648.1666666666666 500.1666666666667zM648.1666666666666 500.1666666666667C648.1666666666666 314.9583333333333 833.3333333333333 314.9583333333333 833.3333333333333 500.1666666666667A333.25 333.25 0 0 1 500 833.3333333333334C315.9166666666667 833.3333333333334 166.6666666666667 684.1666666666667 166.6666666666667 500.1666666666667A333.25 333.25 0 0 1 500 167C562.0416666666666 163.875 645.8333333333333 182.5833333333333 713.9166666666666 234.8333333333334" />
    <glyph glyph-name="bell"
      unicode="&#xEA28;"
      horiz-adv-x="1000" d="M764.6666666666666 572.6666666666667C764.6666666666666 726.875 669.0833333333333 875 500 875S235.3333333333333 726.875 235.3333333333333 572.6666666666667C235.3333333333333 510.0833333333333 196.9583333333333 462.0833333333334 164.7083333333333 411.875C19.8333333333333 163.0833333333335 973.0416666666666 174.25 835.2916666666666 411.875C803.0416666666666 462.0833333333334 764.6666666666666 510.0833333333334 764.6666666666666 572.6666666666667zM360.125 234.6666666666668C386.3333333333333 170 419.5833333333333 125 500 125C580.375 125 613.6666666666666 170 639.8749999999999 234.6666666666668" />
    <glyph glyph-name="bookmark-check"
      unicode="&#xEA29;"
      horiz-adv-x="1000" d="M313.625 131.625C285.875 113.5833333333334 250 134.5000000000001 250 168.6666666666666V835.75C250 857.4166666666666 264 875 281.25 875H718.75C736 875 750 857.4166666666666 750 835.75V168.6666666666666C750 134.5 714.1249999999999 113.5833333333334 686.3749999999999 131.5833333333333L521.9583333333333 238.3333333333334A40.0833333333333 40.0833333333333 0 0 1 478.0416666666666 238.3333333333334L313.625 131.6666666666668zM404.1666666666667 590.75L461.6249999999999 525.0833333333334A12.4583333333333 12.4583333333333 0 0 1 481.0416666666666 526L597.7083333333333 687.5" />
    <glyph glyph-name="bookmark-minus"
      unicode="&#xEA2A;"
      horiz-adv-x="1000" d="M313.625 131.625C285.875 113.5833333333334 250 134.5000000000001 250 168.6666666666666V835.75C250 857.4166666666666 264 875 281.25 875H718.75C736 875 750 857.4166666666666 750 835.75V168.6666666666666C750 134.5 714.1249999999999 113.5833333333334 686.3749999999999 131.5833333333333L521.9583333333333 238.3333333333334A40.0833333333333 40.0833333333333 0 0 1 478.0416666666666 238.3333333333334L313.625 131.6666666666668zM395.8333333333333 604.1666666666667H604.1666666666666" />
    <glyph glyph-name="bookmark-plus"
      unicode="&#xEA2B;"
      horiz-adv-x="1000" d="M313.625 131.625C285.875 113.5833333333334 250 134.5000000000001 250 168.6666666666666V835.75C250 857.4166666666666 264 875 281.25 875H718.75C736 875 750 857.4166666666666 750 835.75V168.6666666666666C750 134.5 714.1249999999999 113.5833333333334 686.3749999999999 131.5833333333333L521.9583333333333 238.3333333333334A40.0833333333333 40.0833333333333 0 0 1 478.0416666666666 238.3333333333334L313.625 131.6666666666668zM395.8333333333333 604.1666666666667H604.1666666666666M500 708.3333333333334V500" />
    <glyph glyph-name="bookmark-x"
      unicode="&#xEA2C;"
      horiz-adv-x="1000" d="M313.625 131.625C285.875 113.5833333333334 250 134.5000000000001 250 168.6666666666666V835.75C250 857.4166666666666 264 875 281.25 875H718.75C736 875 750 857.4166666666666 750 835.75V168.6666666666666C750 134.5 714.1249999999999 113.5833333333334 686.3749999999999 131.5833333333333L521.9583333333333 238.3333333333334A40.0833333333333 40.0833333333333 0 0 1 478.0416666666666 238.3333333333334L313.625 131.6666666666668zM416.6666666666667 687.5L583.3333333333333 520.8333333333334M583.3333333333333 687.5L416.6666666666667 520.8333333333334" />
    <glyph glyph-name="bookmark"
      unicode="&#xEA2D;"
      horiz-adv-x="1000" d="M313.625 131.625C285.875 113.5833333333334 250 134.5000000000001 250 168.6666666666666V835.75C250 857.4166666666666 264 875 281.25 875H718.75C736 875 750 857.4166666666666 750 835.75V168.6666666666666C750 134.5 714.1249999999999 113.5833333333334 686.3749999999999 131.5833333333333L521.9583333333333 238.3333333333334A40.0833333333333 40.0833333333333 0 0 1 478.0416666666666 238.3333333333334L313.625 131.6666666666668z" />
    <glyph glyph-name="brightness-high"
      unicode="&#xEA2E;"
      horiz-adv-x="1000" d="M125 500H250M208.3333333333333 791.6666666666667L296.7083333333333 703.2916666666667M791.6666666666666 791.6666666666667L703.2916666666666 703.2916666666667M208.3333333333333 208.3333333333334L296.7083333333333 296.7083333333334M791.6666666666666 208.3333333333334L703.2916666666666 296.7083333333334M500 875V750M500 125V250M750 500H875M625 500A125 125 0 1 0 375 500A125 125 0 0 0 625 500z" />
    <glyph glyph-name="brightness-low"
      unicode="&#xEA2F;"
      horiz-adv-x="1000" d="M625 500A125 125 0 1 0 375 500A125 125 0 0 0 625 500zM125 500H166.6666666666667M208.3333333333333 791.6666666666667L237.7916666666667 762.2083333333334M791.6666666666666 791.6666666666667L762.2083333333333 762.2083333333334M208.3333333333333 208.3333333333334L237.7916666666667 237.7916666666668M791.6666666666666 208.3333333333334L762.2083333333333 237.7916666666668M500 875V833.3333333333334M500 125V166.6666666666668M833.3333333333333 500H875" />
    <glyph glyph-name="calendar-check"
      unicode="&#xEA30;"
      horiz-adv-x="1000" d="M125 500C125 676.7916666666667 125 723.5 179.9166666666666 778.4166666666667C234.8333333333333 833.3333333333334 323.25 833.3333333333334 500 833.3333333333334C676.7916666666667 833.3333333333334 765.1666666666666 833.3333333333334 820.0833333333334 778.4166666666667C875 723.5 875 676.75 875 500C875 323.2083333333333 875 234.8333333333334 820.0833333333333 179.9166666666666C765.1666666666666 125 676.75 125 500 125C323.2083333333333 125 234.8333333333333 125 179.9166666666666 179.9166666666668C125 234.8333333333334 125 323.25 125 500zM687.5 791.6666666666667V875M312.5 791.6666666666667V875M135.4166666666667 666.6666666666667H864.5833333333333M427.4166666666667 406.5833333333334L470.4999999999999 357.375C474.4583333333333 352.8333333333333 481.5833333333333 353.2083333333333 485.0833333333333 358.0416666666667L572.5833333333333 479.1666666666666" />
    <glyph glyph-name="calendar-down"
      unicode="&#xEA31;"
      horiz-adv-x="1000" d="M125 500C125 676.7916666666667 125 723.5 179.9166666666666 778.4166666666667C234.8333333333333 833.3333333333334 323.25 833.3333333333334 500 833.3333333333334C676.7916666666667 833.3333333333334 765.1666666666666 833.3333333333334 820.0833333333334 778.4166666666667C875 723.5 875 676.75 875 500C875 323.2083333333333 875 234.8333333333334 820.0833333333333 179.9166666666666C765.1666666666666 125 676.75 125 500 125C323.2083333333333 125 234.8333333333333 125 179.9166666666666 179.9166666666668C125 234.8333333333334 125 323.25 125 500zM687.5 791.6666666666667V875M312.5 791.6666666666667V875M135.4166666666667 666.6666666666667H864.5833333333333M500.125 520.8333333333334L500 300.8333333333334M604.1666666666666 381.375L500 270.8333333333334L395.8333333333333 381.375" />
    <glyph glyph-name="calendar-minus"
      unicode="&#xEA32;"
      horiz-adv-x="1000" d="M125 500C125 676.7916666666667 125 723.5 179.9166666666666 778.4166666666667C234.8333333333333 833.3333333333334 323.25 833.3333333333334 500 833.3333333333334C676.7916666666667 833.3333333333334 765.1666666666666 833.3333333333334 820.0833333333334 778.4166666666667C875 723.5 875 676.75 875 500C875 323.2083333333333 875 234.8333333333334 820.0833333333333 179.9166666666666C765.1666666666666 125 676.75 125 500 125C323.2083333333333 125 234.8333333333333 125 179.9166666666666 179.9166666666668C125 234.8333333333334 125 323.25 125 500zM687.5 791.6666666666667V875M312.5 791.6666666666667V875M135.4166666666667 666.6666666666667H864.5833333333333M416.6666666666667 416.6666666666668H583.3333333333333" />
    <glyph glyph-name="calendar-plus"
      unicode="&#xEA33;"
      horiz-adv-x="1000" d="M125 500C125 676.7916666666667 125 723.5 179.9166666666666 778.4166666666667C234.8333333333333 833.3333333333334 323.25 833.3333333333334 500 833.3333333333334C676.7916666666667 833.3333333333334 765.1666666666666 833.3333333333334 820.0833333333334 778.4166666666667C875 723.5 875 676.75 875 500C875 323.2083333333333 875 234.8333333333334 820.0833333333333 179.9166666666666C765.1666666666666 125 676.75 125 500 125C323.2083333333333 125 234.8333333333333 125 179.9166666666666 179.9166666666668C125 234.8333333333334 125 323.25 125 500zM687.5 791.6666666666667V875M312.5 791.6666666666667V875M135.4166666666667 666.6666666666667H864.5833333333333M416.6666666666667 416.6666666666668H583.3333333333333M500 500V333.3333333333334" />
    <glyph glyph-name="calendar-slash"
      unicode="&#xEA34;"
      horiz-adv-x="1000" d="M179.9166666666666 179.9166666666668C234.8333333333333 125 323.25 125 500 125C676.7916666666667 125 765.1666666666666 125 820.0833333333334 179.9166666666668C875 234.8333333333334 875 323.25 875 500C875 676.7916666666667 875 723.5 820.0833333333333 778.4166666666667A139.4166666666666 139.4166666666666 0 0 1 797.0416666666665 797.0416666666667M179.9166666666666 179.9166666666668L125 125M179.9166666666666 179.9166666666668L666.6666666666666 666.6666666666667M312.5 828.5833333333334C251.5416666666667 822.5833333333334 210.5416666666667 809 179.9166666666666 778.4166666666667C125 723.5 125 676.75 125 500C125 442.75 125 394.75 126.875 354.1666666666668M312.5 828.5833333333334V791.6666666666667M312.5 828.5833333333334V875M312.5 828.5833333333334C405.4166666666667 837.75 500.2916666666666 834.2916666666667 593.5833333333334 832.9166666666667M797.0416666666666 797.0416666666667L875 875M797.0416666666666 797.0416666666666L666.6666666666666 666.6666666666667M666.6666666666666 666.6666666666667H864.5833333333333M135.4166666666667 666.6666666666667H437.5" />
    <glyph glyph-name="calendar-up"
      unicode="&#xEA35;"
      horiz-adv-x="1000" d="M125 500C125 676.7916666666667 125 723.5 179.9166666666666 778.4166666666667C234.8333333333333 833.3333333333334 323.25 833.3333333333334 500 833.3333333333334C676.7916666666667 833.3333333333334 765.1666666666666 833.3333333333334 820.0833333333334 778.4166666666667C875 723.5 875 676.75 875 500C875 323.2083333333333 875 234.8333333333334 820.0833333333333 179.9166666666666C765.1666666666666 125 676.75 125 500 125C323.2083333333333 125 234.8333333333333 125 179.9166666666666 179.9166666666668C125 234.8333333333334 125 323.25 125 500zM687.5 791.6666666666667V875M312.5 791.6666666666667V875M135.4166666666667 666.6666666666667H864.5833333333333M500.125 270.8333333333334L500 490.8333333333333M604.1666666666666 410.2916666666667L500 520.8333333333334L395.8333333333333 410.2916666666667" />
    <glyph glyph-name="calendar-x"
      unicode="&#xEA36;"
      horiz-adv-x="1000" d="M125 500C125 676.7916666666667 125 723.5 179.9166666666666 778.4166666666667C234.8333333333333 833.3333333333334 323.25 833.3333333333334 500 833.3333333333334C676.7916666666667 833.3333333333334 765.1666666666666 833.3333333333334 820.0833333333334 778.4166666666667C875 723.5 875 676.75 875 500C875 323.2083333333333 875 234.8333333333334 820.0833333333333 179.9166666666666C765.1666666666666 125 676.75 125 500 125C323.2083333333333 125 234.8333333333333 125 179.9166666666666 179.9166666666668C125 234.8333333333334 125 323.25 125 500zM687.5 791.6666666666667V875M312.5 791.6666666666667V875M135.4166666666667 666.6666666666667H864.5833333333333M437.5 479.1666666666667L562.5 354.1666666666668M562.5 479.1666666666667L437.5 354.1666666666668" />
    <glyph glyph-name="calendar"
      unicode="&#xEA37;"
      horiz-adv-x="1000" d="M125 500C125 676.7916666666667 125 723.5 179.9166666666666 778.4166666666667C234.8333333333333 833.3333333333334 323.25 833.3333333333334 500 833.3333333333334C676.7916666666667 833.3333333333334 765.1666666666666 833.3333333333334 820.0833333333334 778.4166666666667C875 723.5 875 676.75 875 500C875 323.2083333333333 875 234.8333333333334 820.0833333333333 179.9166666666666C765.1666666666666 125 676.75 125 500 125C323.2083333333333 125 234.8333333333333 125 179.9166666666666 179.9166666666668C125 234.8333333333334 125 323.25 125 500zM687.5 791.6666666666667V875M312.5 791.6666666666667V875M135.4166666666667 666.6666666666667H864.5833333333333" />
    <glyph glyph-name="campfire"
      unicode="&#xEA38;"
      horiz-adv-x="1000" d="M225.9166666666667 137.2500000000001L362.9583333333333 187.125L500 237.0833333333335L637.0416666666666 286.9583333333334L774.0833333333333 336.8333333333334M774.0833333333333 137.2500000000001L225.9166666666667 336.7916666666668M682.7083333333333 518A197.9583333333333 197.9583333333333 0 0 0 500 395.8333333333334C390.7083333333333 395.8333333333334 302.0833333333333 484.75 302.0833333333333 594.4583333333333C302.0833333333333 704.125 343.6666666666667 749 408.6666666666667 854.1666666666666C530.4583333333333 800.7083333333333 530.4583333333333 640.2916666666666 530.4583333333333 640.2916666666666S570.4583333333333 717.625 652.25 754.875C678.4999999999999 677.375 713.8333333333334 592.7916666666666 682.7083333333334 518z" />
    <glyph glyph-name="chart-bar"
      unicode="&#xEA39;"
      horiz-adv-x="1000" d="M708.3333333333333 187.5V812.5M500 187.5V604.1666666666667M291.6666666666667 187.5V354.1666666666668" />
    <glyph glyph-name="chart-pie"
      unicode="&#xEA3A;"
      horiz-adv-x="1000" d="M500 125A375 375 0 0 1 875 500H500V875A375 375 0 0 1 500 125z" />
    <glyph glyph-name="chat-check"
      unicode="&#xEA3B;"
      horiz-adv-x="1000" d="M875 500A375 375 0 0 0 500 125H125V500A375 375 0 0 0 875 500zM395.8333333333333 486.5833333333334L453.2916666666666 420.9166666666668A12.4583333333333 12.4583333333333 0 0 1 472.7083333333333 421.8333333333334L589.375 583.3333333333334" />
    <glyph glyph-name="chat-dots"
      unicode="&#xEA3C;"
      horiz-adv-x="1000" d="M875 500A375 375 0 0 0 500 125H125V500A375 375 0 0 0 875 500zM500 468.75V489.5833333333334M666.6666666666666 468.75V489.5833333333334M333.3333333333333 468.75V489.5833333333334" />
    <glyph glyph-name="chat-minus"
      unicode="&#xEA3D;"
      horiz-adv-x="1000" d="M875 500A375 375 0 0 0 500 125H125V500A375 375 0 0 0 875 500zM395.8333333333333 500H604.1666666666666" />
    <glyph glyph-name="chat-plus"
      unicode="&#xEA3E;"
      horiz-adv-x="1000" d="M875 500A375 375 0 0 0 500 125H125V500A375 375 0 0 0 875 500zM395.8333333333333 500H604.1666666666666M500 604.1666666666667V395.8333333333334" />
    <glyph glyph-name="chat-x"
      unicode="&#xEA3F;"
      horiz-adv-x="1000" d="M875 500A375 375 0 0 0 500 125H125V500A375 375 0 0 0 875 500zM416.6666666666667 583.3333333333334L583.3333333333333 416.6666666666668M583.3333333333333 583.3333333333334L416.6666666666667 416.6666666666668" />
    <glyph glyph-name="chat"
      unicode="&#xEA40;"
      horiz-adv-x="1000" d="M875 500A375 375 0 0 0 500 125H125V500A375 375 0 0 0 875 500z" />
    <glyph glyph-name="check-circle"
      unicode="&#xEA41;"
      horiz-adv-x="1000" d="M125 479.1666666666667A375 375 0 0 1 875 479.1666666666667A375 375 0 0 1 125 479.1666666666667M361.125 465.2916666666667L423.8333333333333 393.5833333333334A41.6666666666667 41.6666666666667 0 0 1 489 396.625L638.875 604.1666666666667" />
    <glyph glyph-name="check-square"
      unicode="&#xEA42;"
      horiz-adv-x="1000" d="M361.125 465.2916666666667L423.8333333333333 393.5833333333334A41.6666666666667 41.6666666666667 0 0 1 489 396.625L638.875 604.1666666666667M125 479.1666666666667C125 655.9583333333334 125 744.3333333333334 179.9166666666666 799.25C234.8333333333333 854.1666666666667 323.25 854.1666666666667 500 854.1666666666667C676.7916666666667 854.1666666666667 765.1666666666666 854.1666666666667 820.0833333333334 799.25C875 744.3333333333334 875 655.9166666666667 875 479.1666666666667C875 302.375 875 214 820.0833333333333 159.0833333333333C765.1666666666666 104.1666666666667 676.75 104.1666666666667 500 104.1666666666667C323.2083333333333 104.1666666666667 234.8333333333333 104.1666666666667 179.9166666666666 159.0833333333335C125 214 125 302.4166666666667 125 479.1666666666667z" />
    <glyph glyph-name="check-waves"
      unicode="&#xEA43;"
      horiz-adv-x="1000" d="M361.125 465.2916666666667L423.8333333333333 393.5833333333334A41.6666666666667 41.6666666666667 0 0 1 489 396.625L638.875 604.1666666666667M409.7083333333333 809.1666666666667C432.625 828.75 444.125 838.5 456.125 844.2083333333334A101.75 101.75 0 0 0 543.875 844.2083333333334C555.875 838.5 567.3333333333334 828.7083333333334 590.2916666666667 809.1666666666667A130.5 130.5 0 0 1 669.4583333333333 776.3333333333334C699.5416666666667 773.9583333333333 714.5833333333333 772.75 727.125 768.3333333333333A101.75 101.75 0 0 0 789.1666666666666 706.25C793.5833333333334 693.75 794.7916666666667 678.75 797.1666666666666 648.6666666666667A130.4166666666667 130.4166666666667 0 0 1 830 569.4583333333334C849.5833333333333 546.5416666666666 859.3333333333334 535.0416666666667 865.0416666666667 523.0416666666666C878.3333333333334 495.2916666666666 878.3333333333334 463.0416666666666 865.0416666666667 435.2916666666667C859.3333333333334 423.2916666666667 849.5416666666667 411.8333333333333 830 388.875A130.4166666666667 130.4166666666667 0 0 1 797.1666666666666 309.7083333333334C794.7916666666667 279.625 793.5833333333334 264.5833333333335 789.1666666666666 252.0416666666668A101.75 101.75 0 0 0 727.0833333333334 190C714.5833333333334 185.5833333333333 699.5833333333334 184.3749999999999 669.5 182A130.4583333333333 130.4583333333333 0 0 1 590.2916666666667 149.1666666666666C567.375 129.5833333333334 555.875 119.8333333333333 543.875 114.1249999999999A101.7083333333333 101.7083333333333 0 0 0 456.125 114.1249999999999C444.125 119.8333333333333 432.6666666666667 129.6249999999999 409.7083333333333 149.1666666666666A130.4166666666667 130.4166666666667 0 0 1 330.5416666666667 182C300.4583333333333 184.3749999999999 285.4166666666667 185.5833333333333 272.875 190A101.75 101.75 0 0 0 210.8333333333333 252.0833333333333C206.4166666666667 264.5833333333333 205.2083333333333 279.5833333333333 202.8333333333333 309.6666666666667A130.5 130.5 0 0 1 170 388.875C150.4166666666666 411.7916666666667 140.6666666666666 423.2916666666667 134.9583333333333 435.2916666666667A101.75 101.75 0 0 0 134.9583333333333 523.0416666666666C140.6666666666666 535.0416666666667 150.4583333333333 546.5 170 569.4583333333334A130.4583333333333 130.4583333333333 0 0 1 202.8333333333333 648.625C205.2083333333333 678.7083333333333 206.4166666666667 693.75 210.8333333333333 706.2916666666667A101.75 101.75 0 0 0 272.9166666666667 768.3333333333334C285.4166666666667 772.75 300.4166666666667 773.9583333333334 330.5 776.3333333333334A130.4583333333333 130.4583333333333 0 0 1 409.7083333333333 809.1666666666667z" />
    <glyph glyph-name="check"
      unicode="&#xEA44;"
      horiz-adv-x="1000" d="M125 458.3333333333334L347.5833333333333 203.9166666666666C368 180.5833333333334 404.8333333333333 182.3333333333333 423 207.4583333333334L875 833.3333333333334" />
    <glyph glyph-name="chevron-double-down-left"
      unicode="&#xEA45;"
      horiz-adv-x="1000" d="M260.7083333333333 614.2916666666667V260.7083333333333H614.2916666666666M385.7083333333333 739.2916666666667V385.7083333333334H739.2916666666667" />
    <glyph glyph-name="chevron-double-down-right"
      unicode="&#xEA46;"
      horiz-adv-x="1000" d="M385.7083333333333 260.7083333333335H739.2916666666667V614.2916666666667M260.7083333333333 385.7083333333334H614.2916666666666V739.2916666666667" />
    <glyph glyph-name="chevron-double-down"
      unicode="&#xEA47;"
      horiz-adv-x="1000" d="M250 708.3333333333334L500 458.3333333333334L750 708.3333333333334M250 541.6666666666667L500 291.6666666666668L750 541.6666666666667" />
    <glyph glyph-name="chevron-double-left"
      unicode="&#xEA48;"
      horiz-adv-x="1000" d="M541.6666666666666 750L291.6666666666667 500L541.6666666666666 250M708.3333333333333 750L458.3333333333333 500L708.3333333333333 250" />
    <glyph glyph-name="chevron-double-right"
      unicode="&#xEA49;"
      horiz-adv-x="1000" d="M458.3333333333333 250L708.3333333333333 500L458.3333333333333 750M291.6666666666667 250L541.6666666666666 500L291.6666666666667 750" />
    <glyph glyph-name="chevron-double-up-left"
      unicode="&#xEA4A;"
      horiz-adv-x="1000" d="M614.2916666666666 739.2916666666667H260.7083333333333V385.7083333333334M739.2916666666665 614.2916666666667H385.7083333333333V260.7083333333333" />
    <glyph glyph-name="chevron-double-up-right"
      unicode="&#xEA4B;"
      horiz-adv-x="1000" d="M739.2916666666665 385.7083333333334V739.2916666666667H385.7083333333333M614.2916666666666 260.7083333333335V614.2916666666667H260.7083333333333" />
    <glyph glyph-name="chevron-double-up"
      unicode="&#xEA4C;"
      horiz-adv-x="1000" d="M750 458.3333333333334L500 708.3333333333334L250 458.3333333333334M750 291.6666666666668L500 541.6666666666667L250 291.6666666666668" />
    <glyph glyph-name="chevron-down-circle"
      unicode="&#xEA4D;"
      horiz-adv-x="1000" d="M125 479.1666666666667A375 375 0 0 1 875 479.1666666666667A375 375 0 0 1 125 479.1666666666667M645.8333333333333 531.25L500 385.4166666666668L354.1666666666667 531.25" />
    <glyph glyph-name="chevron-down-left-circle"
      unicode="&#xEA4E;"
      horiz-adv-x="1000" d="M125 479.1666666666667A375 375 0 0 1 875 479.1666666666667A375 375 0 0 1 125 479.1666666666667M622.9166666666666 397.9166666666668H416.6666666666667V604.1666666666667" />
    <glyph glyph-name="chevron-down-left-square"
      unicode="&#xEA4F;"
      horiz-adv-x="1000" d="M622.9166666666666 397.9166666666668H416.6666666666667V604.1666666666667M125 479.1666666666667C125 655.9583333333334 125 744.3333333333334 179.9166666666666 799.25C234.8333333333333 854.1666666666667 323.25 854.1666666666667 500 854.1666666666667C676.7916666666667 854.1666666666667 765.1666666666666 854.1666666666667 820.0833333333334 799.25C875 744.3333333333334 875 655.9166666666667 875 479.1666666666667C875 302.375 875 214 820.0833333333333 159.0833333333333C765.1666666666666 104.1666666666667 676.75 104.1666666666667 500 104.1666666666667C323.2083333333333 104.1666666666667 234.8333333333333 104.1666666666667 179.9166666666666 159.0833333333335C125 214 125 302.4166666666667 125 479.1666666666667z" />
    <glyph glyph-name="chevron-down-left-waves"
      unicode="&#xEA50;"
      horiz-adv-x="1000" d="M622.9166666666666 397.9166666666668H416.6666666666667V604.1666666666667M409.7083333333333 809.1666666666667C432.625 828.75 444.125 838.5 456.125 844.2083333333334A101.75 101.75 0 0 0 543.875 844.2083333333334C555.875 838.5 567.3333333333334 828.7083333333334 590.2916666666667 809.1666666666667A130.5 130.5 0 0 1 669.4583333333333 776.3333333333334C699.5416666666667 773.9583333333333 714.5833333333333 772.75 727.125 768.3333333333333A101.75 101.75 0 0 0 789.1666666666666 706.25C793.5833333333334 693.75 794.7916666666667 678.75 797.1666666666666 648.6666666666667A130.4166666666667 130.4166666666667 0 0 1 830 569.4583333333334C849.5833333333333 546.5416666666666 859.3333333333334 535.0416666666667 865.0416666666667 523.0416666666666C878.3333333333334 495.2916666666666 878.3333333333334 463.0416666666666 865.0416666666667 435.2916666666667C859.3333333333334 423.2916666666667 849.5416666666667 411.8333333333333 830 388.875A130.4166666666667 130.4166666666667 0 0 1 797.1666666666666 309.7083333333334C794.7916666666667 279.625 793.5833333333334 264.5833333333335 789.1666666666666 252.0416666666668A101.75 101.75 0 0 0 727.0833333333334 190C714.5833333333334 185.5833333333333 699.5833333333334 184.3749999999999 669.5 182A130.4583333333333 130.4583333333333 0 0 1 590.2916666666667 149.1666666666666C567.375 129.5833333333334 555.875 119.8333333333333 543.875 114.1249999999999A101.7083333333333 101.7083333333333 0 0 0 456.125 114.1249999999999C444.125 119.8333333333333 432.6666666666667 129.6249999999999 409.7083333333333 149.1666666666666A130.4166666666667 130.4166666666667 0 0 1 330.5416666666667 182C300.4583333333333 184.3749999999999 285.4166666666667 185.5833333333333 272.875 190A101.75 101.75 0 0 0 210.8333333333333 252.0833333333333C206.4166666666667 264.5833333333333 205.2083333333333 279.5833333333333 202.8333333333333 309.6666666666667A130.5 130.5 0 0 1 170 388.875C150.4166666666666 411.7916666666667 140.6666666666666 423.2916666666667 134.9583333333333 435.2916666666667A101.75 101.75 0 0 0 134.9583333333333 523.0416666666666C140.6666666666666 535.0416666666667 150.4583333333333 546.5 170 569.4583333333334A130.4583333333333 130.4583333333333 0 0 1 202.8333333333333 648.625C205.2083333333333 678.7083333333333 206.4166666666667 693.75 210.8333333333333 706.2916666666667A101.75 101.75 0 0 0 272.9166666666667 768.3333333333334C285.4166666666667 772.75 300.4166666666667 773.9583333333334 330.5 776.3333333333334A130.4583333333333 130.4583333333333 0 0 1 409.7083333333333 809.1666666666667z" />
    <glyph glyph-name="chevron-down-left"
      unicode="&#xEA51;"
      horiz-adv-x="1000" d="M328.2916666666667 681.8333333333334V328.2916666666668H681.8333333333331" />
    <glyph glyph-name="chevron-down-right-circle"
      unicode="&#xEA52;"
      horiz-adv-x="1000" d="M125 479.1666666666667A375 375 0 0 1 875 479.1666666666667A375 375 0 0 1 125 479.1666666666667M581.2499999999999 604.1666666666667V397.9166666666668H375" />
    <glyph glyph-name="chevron-down-right-square"
      unicode="&#xEA53;"
      horiz-adv-x="1000" d="M581.2499999999999 604.1666666666667V397.9166666666668H375M125 479.1666666666667C125 655.9583333333334 125 744.3333333333334 179.9166666666666 799.25C234.8333333333333 854.1666666666667 323.25 854.1666666666667 500 854.1666666666667C676.7916666666667 854.1666666666667 765.1666666666666 854.1666666666667 820.0833333333334 799.25C875 744.3333333333334 875 655.9166666666667 875 479.1666666666667C875 302.375 875 214 820.0833333333333 159.0833333333333C765.1666666666666 104.1666666666667 676.75 104.1666666666667 500 104.1666666666667C323.2083333333333 104.1666666666667 234.8333333333333 104.1666666666667 179.9166666666666 159.0833333333335C125 214 125 302.4166666666667 125 479.1666666666667z" />
    <glyph glyph-name="chevron-down-right-waves"
      unicode="&#xEA54;"
      horiz-adv-x="1000" d="M581.2499999999999 604.1666666666667V397.9166666666668H375M409.7083333333333 809.1666666666667C432.625 828.75 444.125 838.5 456.125 844.2083333333334A101.75 101.75 0 0 0 543.875 844.2083333333334C555.875 838.5 567.3333333333334 828.7083333333334 590.2916666666667 809.1666666666667A130.5 130.5 0 0 1 669.4583333333333 776.3333333333334C699.5416666666667 773.9583333333333 714.5833333333333 772.75 727.125 768.3333333333333A101.75 101.75 0 0 0 789.1666666666666 706.25C793.5833333333334 693.75 794.7916666666667 678.75 797.1666666666666 648.6666666666667A130.4166666666667 130.4166666666667 0 0 1 830 569.4583333333334C849.5833333333333 546.5416666666666 859.3333333333334 535.0416666666667 865.0416666666667 523.0416666666666C878.3333333333334 495.2916666666666 878.3333333333334 463.0416666666666 865.0416666666667 435.2916666666667C859.3333333333334 423.2916666666667 849.5416666666667 411.8333333333333 830 388.875A130.4166666666667 130.4166666666667 0 0 1 797.1666666666666 309.7083333333334C794.7916666666667 279.625 793.5833333333334 264.5833333333335 789.1666666666666 252.0416666666668A101.75 101.75 0 0 0 727.0833333333334 190C714.5833333333334 185.5833333333333 699.5833333333334 184.3749999999999 669.5 182A130.4583333333333 130.4583333333333 0 0 1 590.2916666666667 149.1666666666666C567.375 129.5833333333334 555.875 119.8333333333333 543.875 114.1249999999999A101.7083333333333 101.7083333333333 0 0 0 456.125 114.1249999999999C444.125 119.8333333333333 432.6666666666667 129.6249999999999 409.7083333333333 149.1666666666666A130.4166666666667 130.4166666666667 0 0 1 330.5416666666667 182C300.4583333333333 184.3749999999999 285.4166666666667 185.5833333333333 272.875 190A101.75 101.75 0 0 0 210.8333333333333 252.0833333333333C206.4166666666667 264.5833333333333 205.2083333333333 279.5833333333333 202.8333333333333 309.6666666666667A130.5 130.5 0 0 1 170 388.875C150.4166666666666 411.7916666666667 140.6666666666666 423.2916666666667 134.9583333333333 435.2916666666667A101.75 101.75 0 0 0 134.9583333333333 523.0416666666666C140.6666666666666 535.0416666666667 150.4583333333333 546.5 170 569.4583333333334A130.4583333333333 130.4583333333333 0 0 1 202.8333333333333 648.625C205.2083333333333 678.7083333333333 206.4166666666667 693.75 210.8333333333333 706.2916666666667A101.75 101.75 0 0 0 272.9166666666667 768.3333333333334C285.4166666666667 772.75 300.4166666666667 773.9583333333334 330.5 776.3333333333334A130.4583333333333 130.4583333333333 0 0 1 409.7083333333333 809.1666666666667z" />
    <glyph glyph-name="chevron-down-right"
      unicode="&#xEA55;"
      horiz-adv-x="1000" d="M671.7083333333333 681.8333333333334V328.2916666666668H318.1666666666667" />
    <glyph glyph-name="chevron-down-square"
      unicode="&#xEA56;"
      horiz-adv-x="1000" d="M645.8333333333333 531.25L500 385.4166666666668L354.1666666666667 531.25M125 479.1666666666667C125 655.9583333333334 125 744.3333333333334 179.9166666666666 799.25C234.8333333333333 854.1666666666667 323.25 854.1666666666667 500 854.1666666666667C676.7916666666667 854.1666666666667 765.1666666666666 854.1666666666667 820.0833333333334 799.25C875 744.3333333333334 875 655.9166666666667 875 479.1666666666667C875 302.375 875 214 820.0833333333333 159.0833333333333C765.1666666666666 104.1666666666667 676.75 104.1666666666667 500 104.1666666666667C323.2083333333333 104.1666666666667 234.8333333333333 104.1666666666667 179.9166666666666 159.0833333333335C125 214 125 302.4166666666667 125 479.1666666666667z" />
    <glyph glyph-name="chevron-down-waves"
      unicode="&#xEA57;"
      horiz-adv-x="1000" d="M645.8333333333333 531.25L500 385.4166666666668L354.1666666666667 531.25M409.7083333333333 809.1666666666667C432.625 828.75 444.125 838.5 456.125 844.2083333333334A101.75 101.75 0 0 0 543.875 844.2083333333334C555.875 838.5 567.3333333333334 828.7083333333334 590.2916666666667 809.1666666666667A130.5 130.5 0 0 1 669.4583333333333 776.3333333333334C699.5416666666667 773.9583333333333 714.5833333333333 772.75 727.125 768.3333333333333A101.75 101.75 0 0 0 789.1666666666666 706.25C793.5833333333334 693.75 794.7916666666667 678.75 797.1666666666666 648.6666666666667A130.4166666666667 130.4166666666667 0 0 1 830 569.4583333333334C849.5833333333333 546.5416666666666 859.3333333333334 535.0416666666667 865.0416666666667 523.0416666666666C878.3333333333334 495.2916666666666 878.3333333333334 463.0416666666666 865.0416666666667 435.2916666666667C859.3333333333334 423.2916666666667 849.5416666666667 411.8333333333333 830 388.875A130.4166666666667 130.4166666666667 0 0 1 797.1666666666666 309.7083333333334C794.7916666666667 279.625 793.5833333333334 264.5833333333335 789.1666666666666 252.0416666666668A101.75 101.75 0 0 0 727.0833333333334 190C714.5833333333334 185.5833333333333 699.5833333333334 184.3749999999999 669.5 182A130.4583333333333 130.4583333333333 0 0 1 590.2916666666667 149.1666666666666C567.375 129.5833333333334 555.875 119.8333333333333 543.875 114.1249999999999A101.7083333333333 101.7083333333333 0 0 0 456.125 114.1249999999999C444.125 119.8333333333333 432.6666666666667 129.6249999999999 409.7083333333333 149.1666666666666A130.4166666666667 130.4166666666667 0 0 1 330.5416666666667 182C300.4583333333333 184.3749999999999 285.4166666666667 185.5833333333333 272.875 190A101.75 101.75 0 0 0 210.8333333333333 252.0833333333333C206.4166666666667 264.5833333333333 205.2083333333333 279.5833333333333 202.8333333333333 309.6666666666667A130.5 130.5 0 0 1 170 388.875C150.4166666666666 411.7916666666667 140.6666666666666 423.2916666666667 134.9583333333333 435.2916666666667A101.75 101.75 0 0 0 134.9583333333333 523.0416666666666C140.6666666666666 535.0416666666667 150.4583333333333 546.5 170 569.4583333333334A130.4583333333333 130.4583333333333 0 0 1 202.8333333333333 648.625C205.2083333333333 678.7083333333333 206.4166666666667 693.75 210.8333333333333 706.2916666666667A101.75 101.75 0 0 0 272.9166666666667 768.3333333333334C285.4166666666667 772.75 300.4166666666667 773.9583333333334 330.5 776.3333333333334A130.4583333333333 130.4583333333333 0 0 1 409.7083333333333 809.1666666666667z" />
    <glyph glyph-name="chevron-down"
      unicode="&#xEA58;"
      horiz-adv-x="1000" d="M250 625L500 375L750 625" />
    <glyph glyph-name="chevron-left-circle"
      unicode="&#xEA59;"
      horiz-adv-x="1000" d="M125 479.1666666666667A375 375 0 0 1 875 479.1666666666667A375 375 0 0 1 125 479.1666666666667M552.0833333333333 333.3333333333334L406.25 479.1666666666667L552.0833333333333 625" />
    <glyph glyph-name="chevron-left-square"
      unicode="&#xEA5A;"
      horiz-adv-x="1000" d="M552.0833333333333 333.3333333333334L406.25 479.1666666666667L552.0833333333333 625M125 479.1666666666667C125 655.9583333333334 125 744.3333333333334 179.9166666666666 799.25C234.8333333333333 854.1666666666667 323.25 854.1666666666667 500 854.1666666666667C676.7916666666667 854.1666666666667 765.1666666666666 854.1666666666667 820.0833333333334 799.25C875 744.3333333333334 875 655.9166666666667 875 479.1666666666667C875 302.375 875 214 820.0833333333333 159.0833333333333C765.1666666666666 104.1666666666667 676.75 104.1666666666667 500 104.1666666666667C323.2083333333333 104.1666666666667 234.8333333333333 104.1666666666667 179.9166666666666 159.0833333333335C125 214 125 302.4166666666667 125 479.1666666666667z" />
    <glyph glyph-name="chevron-left-waves"
      unicode="&#xEA5B;"
      horiz-adv-x="1000" d="M552.0833333333333 333.3333333333334L406.25 479.1666666666667L552.0833333333333 625M409.7083333333333 809.1666666666667C432.625 828.75 444.125 838.5 456.125 844.2083333333334A101.75 101.75 0 0 0 543.875 844.2083333333334C555.875 838.5 567.3333333333334 828.7083333333334 590.2916666666667 809.1666666666667A130.5 130.5 0 0 1 669.4583333333333 776.3333333333334C699.5416666666667 773.9583333333333 714.5833333333333 772.75 727.125 768.3333333333333A101.75 101.75 0 0 0 789.1666666666666 706.25C793.5833333333334 693.75 794.7916666666667 678.75 797.1666666666666 648.6666666666667A130.4166666666667 130.4166666666667 0 0 1 830 569.4583333333334C849.5833333333333 546.5416666666666 859.3333333333334 535.0416666666667 865.0416666666667 523.0416666666666C878.3333333333334 495.2916666666666 878.3333333333334 463.0416666666666 865.0416666666667 435.2916666666667C859.3333333333334 423.2916666666667 849.5416666666667 411.8333333333333 830 388.875A130.4166666666667 130.4166666666667 0 0 1 797.1666666666666 309.7083333333334C794.7916666666667 279.625 793.5833333333334 264.5833333333335 789.1666666666666 252.0416666666668A101.75 101.75 0 0 0 727.0833333333334 190C714.5833333333334 185.5833333333333 699.5833333333334 184.3749999999999 669.5 182A130.4583333333333 130.4583333333333 0 0 1 590.2916666666667 149.1666666666666C567.375 129.5833333333334 555.875 119.8333333333333 543.875 114.1249999999999A101.7083333333333 101.7083333333333 0 0 0 456.125 114.1249999999999C444.125 119.8333333333333 432.6666666666667 129.6249999999999 409.7083333333333 149.1666666666666A130.4166666666667 130.4166666666667 0 0 1 330.5416666666667 182C300.4583333333333 184.3749999999999 285.4166666666667 185.5833333333333 272.875 190A101.75 101.75 0 0 0 210.8333333333333 252.0833333333333C206.4166666666667 264.5833333333333 205.2083333333333 279.5833333333333 202.8333333333333 309.6666666666667A130.5 130.5 0 0 1 170 388.875C150.4166666666666 411.7916666666667 140.6666666666666 423.2916666666667 134.9583333333333 435.2916666666667A101.75 101.75 0 0 0 134.9583333333333 523.0416666666666C140.6666666666666 535.0416666666667 150.4583333333333 546.5 170 569.4583333333334A130.4583333333333 130.4583333333333 0 0 1 202.8333333333333 648.625C205.2083333333333 678.7083333333333 206.4166666666667 693.75 210.8333333333333 706.2916666666667A101.75 101.75 0 0 0 272.9166666666667 768.3333333333334C285.4166666666667 772.75 300.4166666666667 773.9583333333334 330.5 776.3333333333334A130.4583333333333 130.4583333333333 0 0 1 409.7083333333333 809.1666666666667z" />
    <glyph glyph-name="chevron-left"
      unicode="&#xEA5C;"
      horiz-adv-x="1000" d="M625 750L375 500L625 250" />
    <glyph glyph-name="chevron-right-circle"
      unicode="&#xEA5D;"
      horiz-adv-x="1000" d="M125 479.1666666666667A375 375 0 0 1 875 479.1666666666667A375 375 0 0 1 125 479.1666666666667M447.9166666666667 625L593.75 479.1666666666667L447.9166666666667 333.3333333333334" />
    <glyph glyph-name="chevron-right-square"
      unicode="&#xEA5E;"
      horiz-adv-x="1000" d="M447.9166666666667 625L593.75 479.1666666666667L447.9166666666667 333.3333333333334M125 479.1666666666667C125 655.9583333333334 125 744.3333333333334 179.9166666666666 799.25C234.8333333333333 854.1666666666667 323.25 854.1666666666667 500 854.1666666666667C676.7916666666667 854.1666666666667 765.1666666666666 854.1666666666667 820.0833333333334 799.25C875 744.3333333333334 875 655.9166666666667 875 479.1666666666667C875 302.375 875 214 820.0833333333333 159.0833333333333C765.1666666666666 104.1666666666667 676.75 104.1666666666667 500 104.1666666666667C323.2083333333333 104.1666666666667 234.8333333333333 104.1666666666667 179.9166666666666 159.0833333333335C125 214 125 302.4166666666667 125 479.1666666666667z" />
    <glyph glyph-name="chevron-right-waves"
      unicode="&#xEA5F;"
      horiz-adv-x="1000" d="M447.9166666666667 625L593.75 479.1666666666667L447.9166666666667 333.3333333333334M409.7083333333333 809.1666666666667C432.625 828.75 444.125 838.5 456.125 844.2083333333334A101.75 101.75 0 0 0 543.875 844.2083333333334C555.875 838.5 567.3333333333334 828.7083333333334 590.2916666666667 809.1666666666667A130.5 130.5 0 0 1 669.4583333333333 776.3333333333334C699.5416666666667 773.9583333333333 714.5833333333333 772.75 727.125 768.3333333333333A101.75 101.75 0 0 0 789.1666666666666 706.25C793.5833333333334 693.75 794.7916666666667 678.75 797.1666666666666 648.6666666666667A130.4166666666667 130.4166666666667 0 0 1 830 569.4583333333334C849.5833333333333 546.5416666666666 859.3333333333334 535.0416666666667 865.0416666666667 523.0416666666666C878.3333333333334 495.2916666666666 878.3333333333334 463.0416666666666 865.0416666666667 435.2916666666667C859.3333333333334 423.2916666666667 849.5416666666667 411.8333333333333 830 388.875A130.4166666666667 130.4166666666667 0 0 1 797.1666666666666 309.7083333333334C794.7916666666667 279.625 793.5833333333334 264.5833333333335 789.1666666666666 252.0416666666668A101.75 101.75 0 0 0 727.0833333333334 190C714.5833333333334 185.5833333333333 699.5833333333334 184.3749999999999 669.5 182A130.4583333333333 130.4583333333333 0 0 1 590.2916666666667 149.1666666666666C567.375 129.5833333333334 555.875 119.8333333333333 543.875 114.1249999999999A101.7083333333333 101.7083333333333 0 0 0 456.125 114.1249999999999C444.125 119.8333333333333 432.6666666666667 129.6249999999999 409.7083333333333 149.1666666666666A130.4166666666667 130.4166666666667 0 0 1 330.5416666666667 182C300.4583333333333 184.3749999999999 285.4166666666667 185.5833333333333 272.875 190A101.75 101.75 0 0 0 210.8333333333333 252.0833333333333C206.4166666666667 264.5833333333333 205.2083333333333 279.5833333333333 202.8333333333333 309.6666666666667A130.5 130.5 0 0 1 170 388.875C150.4166666666666 411.7916666666667 140.6666666666666 423.2916666666667 134.9583333333333 435.2916666666667A101.75 101.75 0 0 0 134.9583333333333 523.0416666666666C140.6666666666666 535.0416666666667 150.4583333333333 546.5 170 569.4583333333334A130.4583333333333 130.4583333333333 0 0 1 202.8333333333333 648.625C205.2083333333333 678.7083333333333 206.4166666666667 693.75 210.8333333333333 706.2916666666667A101.75 101.75 0 0 0 272.9166666666667 768.3333333333334C285.4166666666667 772.75 300.4166666666667 773.9583333333334 330.5 776.3333333333334A130.4583333333333 130.4583333333333 0 0 1 409.7083333333333 809.1666666666667z" />
    <glyph glyph-name="chevron-right"
      unicode="&#xEA60;"
      horiz-adv-x="1000" d="M375 250L625 500L375 750" />
    <glyph glyph-name="chevron-up-circle"
      unicode="&#xEA61;"
      horiz-adv-x="1000" d="M125 479.1666666666667A375 375 0 0 1 875 479.1666666666667A375 375 0 0 1 125 479.1666666666667M354.1666666666667 427.0833333333334L500 572.9166666666667L645.8333333333333 427.0833333333334" />
    <glyph glyph-name="chevron-up-left-circle"
      unicode="&#xEA62;"
      horiz-adv-x="1000" d="M125 479.1666666666667A375 375 0 0 1 875 479.1666666666667A375 375 0 0 1 125 479.1666666666667M416.6666666666667 356.2500000000001V562.5H622.9166666666666" />
    <glyph glyph-name="chevron-up-left-square"
      unicode="&#xEA63;"
      horiz-adv-x="1000" d="M416.6666666666667 356.2500000000001V562.5H622.9166666666666M125 479.1666666666667C125 655.9583333333334 125 744.3333333333334 179.9166666666666 799.25C234.8333333333333 854.1666666666667 323.25 854.1666666666667 500 854.1666666666667C676.7916666666667 854.1666666666667 765.1666666666666 854.1666666666667 820.0833333333334 799.25C875 744.3333333333334 875 655.9166666666667 875 479.1666666666667C875 302.375 875 214 820.0833333333333 159.0833333333333C765.1666666666666 104.1666666666667 676.75 104.1666666666667 500 104.1666666666667C323.2083333333333 104.1666666666667 234.8333333333333 104.1666666666667 179.9166666666666 159.0833333333335C125 214 125 302.4166666666667 125 479.1666666666667z" />
    <glyph glyph-name="chevron-up-left-waves"
      unicode="&#xEA64;"
      horiz-adv-x="1000" d="M416.6666666666667 356.2500000000001V562.5H622.9166666666666M409.7083333333333 809.1666666666667C432.625 828.75 444.125 838.5 456.125 844.2083333333334A101.75 101.75 0 0 0 543.875 844.2083333333334C555.875 838.5 567.3333333333334 828.7083333333334 590.2916666666667 809.1666666666667A130.5 130.5 0 0 1 669.4583333333333 776.3333333333334C699.5416666666667 773.9583333333333 714.5833333333333 772.75 727.125 768.3333333333333A101.75 101.75 0 0 0 789.1666666666666 706.25C793.5833333333334 693.75 794.7916666666667 678.75 797.1666666666666 648.6666666666667A130.4166666666667 130.4166666666667 0 0 1 830 569.4583333333334C849.5833333333333 546.5416666666666 859.3333333333334 535.0416666666667 865.0416666666667 523.0416666666666C878.3333333333334 495.2916666666666 878.3333333333334 463.0416666666666 865.0416666666667 435.2916666666667C859.3333333333334 423.2916666666667 849.5416666666667 411.8333333333333 830 388.875A130.4166666666667 130.4166666666667 0 0 1 797.1666666666666 309.7083333333334C794.7916666666667 279.625 793.5833333333334 264.5833333333335 789.1666666666666 252.0416666666668A101.75 101.75 0 0 0 727.0833333333334 190C714.5833333333334 185.5833333333333 699.5833333333334 184.3749999999999 669.5 182A130.4583333333333 130.4583333333333 0 0 1 590.2916666666667 149.1666666666666C567.375 129.5833333333334 555.875 119.8333333333333 543.875 114.1249999999999A101.7083333333333 101.7083333333333 0 0 0 456.125 114.1249999999999C444.125 119.8333333333333 432.6666666666667 129.6249999999999 409.7083333333333 149.1666666666666A130.4166666666667 130.4166666666667 0 0 1 330.5416666666667 182C300.4583333333333 184.3749999999999 285.4166666666667 185.5833333333333 272.875 190A101.75 101.75 0 0 0 210.8333333333333 252.0833333333333C206.4166666666667 264.5833333333333 205.2083333333333 279.5833333333333 202.8333333333333 309.6666666666667A130.5 130.5 0 0 1 170 388.875C150.4166666666666 411.7916666666667 140.6666666666666 423.2916666666667 134.9583333333333 435.2916666666667A101.75 101.75 0 0 0 134.9583333333333 523.0416666666666C140.6666666666666 535.0416666666667 150.4583333333333 546.5 170 569.4583333333334A130.4583333333333 130.4583333333333 0 0 1 202.8333333333333 648.625C205.2083333333333 678.7083333333333 206.4166666666667 693.75 210.8333333333333 706.2916666666667A101.75 101.75 0 0 0 272.9166666666667 768.3333333333334C285.4166666666667 772.75 300.4166666666667 773.9583333333334 330.5 776.3333333333334A130.4583333333333 130.4583333333333 0 0 1 409.7083333333333 809.1666666666667z" />
    <glyph glyph-name="chevron-up-left"
      unicode="&#xEA65;"
      horiz-adv-x="1000" d="M328.2916666666667 318.1666666666667V671.7083333333334H681.8333333333331" />
    <glyph glyph-name="chevron-up-right-circle"
      unicode="&#xEA66;"
      horiz-adv-x="1000" d="M125 479.1666666666667A375 375 0 0 1 875 479.1666666666667A375 375 0 0 1 125 479.1666666666667M375 562.5H581.2499999999999V356.2500000000001" />
    <glyph glyph-name="chevron-up-right-square"
      unicode="&#xEA67;"
      horiz-adv-x="1000" d="M375 562.5H581.2499999999999V356.2500000000001M125 479.1666666666667C125 655.9583333333334 125 744.3333333333334 179.9166666666666 799.25C234.8333333333333 854.1666666666667 323.25 854.1666666666667 500 854.1666666666667C676.7916666666667 854.1666666666667 765.1666666666666 854.1666666666667 820.0833333333334 799.25C875 744.3333333333334 875 655.9166666666667 875 479.1666666666667C875 302.375 875 214 820.0833333333333 159.0833333333333C765.1666666666666 104.1666666666667 676.75 104.1666666666667 500 104.1666666666667C323.2083333333333 104.1666666666667 234.8333333333333 104.1666666666667 179.9166666666666 159.0833333333335C125 214 125 302.4166666666667 125 479.1666666666667z" />
    <glyph glyph-name="chevron-up-right-waves"
      unicode="&#xEA68;"
      horiz-adv-x="1000" d="M375 562.5H581.2499999999999V356.2500000000001M409.7083333333333 809.1666666666667C432.625 828.75 444.125 838.5 456.125 844.2083333333334A101.75 101.75 0 0 0 543.875 844.2083333333334C555.875 838.5 567.3333333333334 828.7083333333334 590.2916666666667 809.1666666666667A130.5 130.5 0 0 1 669.4583333333333 776.3333333333334C699.5416666666667 773.9583333333333 714.5833333333333 772.75 727.125 768.3333333333333A101.75 101.75 0 0 0 789.1666666666666 706.25C793.5833333333334 693.75 794.7916666666667 678.75 797.1666666666666 648.6666666666667A130.4166666666667 130.4166666666667 0 0 1 830 569.4583333333334C849.5833333333333 546.5416666666666 859.3333333333334 535.0416666666667 865.0416666666667 523.0416666666666C878.3333333333334 495.2916666666666 878.3333333333334 463.0416666666666 865.0416666666667 435.2916666666667C859.3333333333334 423.2916666666667 849.5416666666667 411.8333333333333 830 388.875A130.4166666666667 130.4166666666667 0 0 1 797.1666666666666 309.7083333333334C794.7916666666667 279.625 793.5833333333334 264.5833333333335 789.1666666666666 252.0416666666668A101.75 101.75 0 0 0 727.0833333333334 190C714.5833333333334 185.5833333333333 699.5833333333334 184.3749999999999 669.5 182A130.4583333333333 130.4583333333333 0 0 1 590.2916666666667 149.1666666666666C567.375 129.5833333333334 555.875 119.8333333333333 543.875 114.1249999999999A101.7083333333333 101.7083333333333 0 0 0 456.125 114.1249999999999C444.125 119.8333333333333 432.6666666666667 129.6249999999999 409.7083333333333 149.1666666666666A130.4166666666667 130.4166666666667 0 0 1 330.5416666666667 182C300.4583333333333 184.3749999999999 285.4166666666667 185.5833333333333 272.875 190A101.75 101.75 0 0 0 210.8333333333333 252.0833333333333C206.4166666666667 264.5833333333333 205.2083333333333 279.5833333333333 202.8333333333333 309.6666666666667A130.5 130.5 0 0 1 170 388.875C150.4166666666666 411.7916666666667 140.6666666666666 423.2916666666667 134.9583333333333 435.2916666666667A101.75 101.75 0 0 0 134.9583333333333 523.0416666666666C140.6666666666666 535.0416666666667 150.4583333333333 546.5 170 569.4583333333334A130.4583333333333 130.4583333333333 0 0 1 202.8333333333333 648.625C205.2083333333333 678.7083333333333 206.4166666666667 693.75 210.8333333333333 706.2916666666667A101.75 101.75 0 0 0 272.9166666666667 768.3333333333334C285.4166666666667 772.75 300.4166666666667 773.9583333333334 330.5 776.3333333333334A130.4583333333333 130.4583333333333 0 0 1 409.7083333333333 809.1666666666667z" />
    <glyph glyph-name="chevron-up-right"
      unicode="&#xEA69;"
      horiz-adv-x="1000" d="M671.7083333333333 318.1666666666667V671.7083333333334H318.1666666666667" />
    <glyph glyph-name="chevron-up-square"
      unicode="&#xEA6A;"
      horiz-adv-x="1000" d="M354.1666666666667 427.0833333333334L500 572.9166666666667L645.8333333333333 427.0833333333334M125 479.1666666666667C125 655.9583333333334 125 744.3333333333334 179.9166666666666 799.25C234.8333333333333 854.1666666666667 323.25 854.1666666666667 500 854.1666666666667C676.7916666666667 854.1666666666667 765.1666666666666 854.1666666666667 820.0833333333334 799.25C875 744.3333333333334 875 655.9166666666667 875 479.1666666666667C875 302.375 875 214 820.0833333333333 159.0833333333333C765.1666666666666 104.1666666666667 676.75 104.1666666666667 500 104.1666666666667C323.2083333333333 104.1666666666667 234.8333333333333 104.1666666666667 179.9166666666666 159.0833333333335C125 214 125 302.4166666666667 125 479.1666666666667z" />
    <glyph glyph-name="chevron-up-waves"
      unicode="&#xEA6B;"
      horiz-adv-x="1000" d="M354.1666666666667 427.0833333333334L500 572.9166666666667L645.8333333333333 427.0833333333334M409.7083333333333 809.1666666666667C432.625 828.75 444.125 838.5 456.125 844.2083333333334A101.75 101.75 0 0 0 543.875 844.2083333333334C555.875 838.5 567.3333333333334 828.7083333333334 590.2916666666667 809.1666666666667A130.5 130.5 0 0 1 669.4583333333333 776.3333333333334C699.5416666666667 773.9583333333333 714.5833333333333 772.75 727.125 768.3333333333333A101.75 101.75 0 0 0 789.1666666666666 706.25C793.5833333333334 693.75 794.7916666666667 678.75 797.1666666666666 648.6666666666667A130.4166666666667 130.4166666666667 0 0 1 830 569.4583333333334C849.5833333333333 546.5416666666666 859.3333333333334 535.0416666666667 865.0416666666667 523.0416666666666C878.3333333333334 495.2916666666666 878.3333333333334 463.0416666666666 865.0416666666667 435.2916666666667C859.3333333333334 423.2916666666667 849.5416666666667 411.8333333333333 830 388.875A130.4166666666667 130.4166666666667 0 0 1 797.1666666666666 309.7083333333334C794.7916666666667 279.625 793.5833333333334 264.5833333333335 789.1666666666666 252.0416666666668A101.75 101.75 0 0 0 727.0833333333334 190C714.5833333333334 185.5833333333333 699.5833333333334 184.3749999999999 669.5 182A130.4583333333333 130.4583333333333 0 0 1 590.2916666666667 149.1666666666666C567.375 129.5833333333334 555.875 119.8333333333333 543.875 114.1249999999999A101.7083333333333 101.7083333333333 0 0 0 456.125 114.1249999999999C444.125 119.8333333333333 432.6666666666667 129.6249999999999 409.7083333333333 149.1666666666666A130.4166666666667 130.4166666666667 0 0 1 330.5416666666667 182C300.4583333333333 184.3749999999999 285.4166666666667 185.5833333333333 272.875 190A101.75 101.75 0 0 0 210.8333333333333 252.0833333333333C206.4166666666667 264.5833333333333 205.2083333333333 279.5833333333333 202.8333333333333 309.6666666666667A130.5 130.5 0 0 1 170 388.875C150.4166666666666 411.7916666666667 140.6666666666666 423.2916666666667 134.9583333333333 435.2916666666667A101.75 101.75 0 0 0 134.9583333333333 523.0416666666666C140.6666666666666 535.0416666666667 150.4583333333333 546.5 170 569.4583333333334A130.4583333333333 130.4583333333333 0 0 1 202.8333333333333 648.625C205.2083333333333 678.7083333333333 206.4166666666667 693.75 210.8333333333333 706.2916666666667A101.75 101.75 0 0 0 272.9166666666667 768.3333333333334C285.4166666666667 772.75 300.4166666666667 773.9583333333334 330.5 776.3333333333334A130.4583333333333 130.4583333333333 0 0 1 409.7083333333333 809.1666666666667z" />
    <glyph glyph-name="chevron-up"
      unicode="&#xEA6C;"
      horiz-adv-x="1000" d="M750 375L500 625L250 375" />
    <glyph glyph-name="circle-dashed"
      unicode="&#xEA6D;"
      horiz-adv-x="1000" d="M875 500A375 375 0 1 0 125 500A375 375 0 0 0 875 500z" />
    <glyph glyph-name="circle-half-circle"
      unicode="&#xEA6E;"
      horiz-adv-x="1000" d="M875 500A375 375 0 1 0 125 500A375 375 0 0 0 875 500zM875 500A375 375 0 1 0 125 500A375 375 0 0 0 875 500zM500 291.6666666666668A208.3333333333334 208.3333333333334 0 0 1 500 708.3333333333334V291.6666666666668z" />
    <glyph glyph-name="circle-half"
      unicode="&#xEA6F;"
      horiz-adv-x="1000" d="M500 125A375 375 0 1 1 500 875M500 125A375 375 0 1 0 500 875M500 125V875" />
    <glyph glyph-name="circle-notch"
      unicode="&#xEA70;"
      horiz-adv-x="1000" d="M321.5416666666667 833.3333333333334A377.0416666666667 377.0416666666667 0 0 1 125 501.8333333333334C125 293.7083333333334 292.9166666666667 125 500 125S875 293.7500000000001 875 501.8333333333334A377.0416666666667 377.0416666666667 0 0 1 678.4583333333334 833.3333333333334" />
    <glyph glyph-name="circle"
      unicode="&#xEA71;"
      horiz-adv-x="1000" d="M125 479.1666666666667A375 375 0 0 1 875 479.1666666666667A375 375 0 0 1 125 479.1666666666667" />
    <glyph glyph-name="clock-circle"
      unicode="&#xEA72;"
      horiz-adv-x="1000" d="M125 479.1666666666667A375 375 0 0 1 875 479.1666666666667A375 375 0 0 1 125 479.1666666666667M506.125 729.1666666666667V479.1666666666667L672.7916666666665 395.8333333333334" />
    <glyph glyph-name="clock-hand"
      unicode="&#xEA73;"
      horiz-adv-x="1000" d="M506.125 854.1666666666667V479.1666666666667L756.1249999999999 354.1666666666668" />
    <glyph glyph-name="clock-square"
      unicode="&#xEA74;"
      horiz-adv-x="1000" d="M506.125 729.1666666666667V479.1666666666667L672.7916666666665 395.8333333333334M125 479.1666666666667C125 655.9583333333334 125 744.3333333333334 179.9166666666666 799.25C234.8333333333333 854.1666666666667 323.25 854.1666666666667 500 854.1666666666667C676.7916666666667 854.1666666666667 765.1666666666666 854.1666666666667 820.0833333333334 799.25C875 744.3333333333334 875 655.9166666666667 875 479.1666666666667C875 302.375 875 214 820.0833333333333 159.0833333333333C765.1666666666666 104.1666666666667 676.75 104.1666666666667 500 104.1666666666667C323.2083333333333 104.1666666666667 234.8333333333333 104.1666666666667 179.9166666666666 159.0833333333335C125 214 125 302.4166666666667 125 479.1666666666667z" />
    <glyph glyph-name="clock-waves"
      unicode="&#xEA75;"
      horiz-adv-x="1000" d="M506.125 729.1666666666667V479.1666666666667L672.7916666666665 395.8333333333334M409.7083333333333 809.1666666666667C432.625 828.75 444.125 838.5 456.125 844.2083333333334A101.75 101.75 0 0 0 543.875 844.2083333333334C555.875 838.5 567.3333333333334 828.7083333333334 590.2916666666667 809.1666666666667A130.5 130.5 0 0 1 669.4583333333333 776.3333333333334C699.5416666666667 773.9583333333333 714.5833333333333 772.75 727.125 768.3333333333333A101.75 101.75 0 0 0 789.1666666666666 706.25C793.5833333333334 693.75 794.7916666666667 678.75 797.1666666666666 648.6666666666667A130.4166666666667 130.4166666666667 0 0 1 830 569.4583333333334C849.5833333333333 546.5416666666666 859.3333333333334 535.0416666666667 865.0416666666667 523.0416666666666C878.3333333333334 495.2916666666666 878.3333333333334 463.0416666666666 865.0416666666667 435.2916666666667C859.3333333333334 423.2916666666667 849.5416666666667 411.8333333333333 830 388.875A130.4166666666667 130.4166666666667 0 0 1 797.1666666666666 309.7083333333334C794.7916666666667 279.625 793.5833333333334 264.5833333333335 789.1666666666666 252.0416666666668A101.75 101.75 0 0 0 727.0833333333334 190C714.5833333333334 185.5833333333333 699.5833333333334 184.3749999999999 669.5 182A130.4583333333333 130.4583333333333 0 0 1 590.2916666666667 149.1666666666666C567.375 129.5833333333334 555.875 119.8333333333333 543.875 114.1249999999999A101.7083333333333 101.7083333333333 0 0 0 456.125 114.1249999999999C444.125 119.8333333333333 432.6666666666667 129.6249999999999 409.7083333333333 149.1666666666666A130.4166666666667 130.4166666666667 0 0 1 330.5416666666667 182C300.4583333333333 184.3749999999999 285.4166666666667 185.5833333333333 272.875 190A101.75 101.75 0 0 0 210.8333333333333 252.0833333333333C206.4166666666667 264.5833333333333 205.2083333333333 279.5833333333333 202.8333333333333 309.6666666666667A130.5 130.5 0 0 1 170 388.875C150.4166666666666 411.7916666666667 140.6666666666666 423.2916666666667 134.9583333333333 435.2916666666667A101.75 101.75 0 0 0 134.9583333333333 523.0416666666666C140.6666666666666 535.0416666666667 150.4583333333333 546.5 170 569.4583333333334A130.4583333333333 130.4583333333333 0 0 1 202.8333333333333 648.625C205.2083333333333 678.7083333333333 206.4166666666667 693.75 210.8333333333333 706.2916666666667A101.75 101.75 0 0 0 272.9166666666667 768.3333333333334C285.4166666666667 772.75 300.4166666666667 773.9583333333334 330.5 776.3333333333334A130.4583333333333 130.4583333333333 0 0 1 409.7083333333333 809.1666666666667z" />
    <glyph glyph-name="cloud-download"
      unicode="&#xEA76;"
      horiz-adv-x="1000" d="M498.5833333333333 536L498.4166666666666 202.6666666666668M826.0416666666666 291.6666666666668C1013.3333333333331 423.3333333333334 845.8333333333334 613.75 671.625 613.75C553.9999999999999 1072.1666666666667 -136.0416666666666 693 169.75 347.4166666666667M631 299.25L498.4166666666666 166.6666666666668L365.8333333333333 299.25" />
    <glyph glyph-name="cloud-rain"
      unicode="&#xEA77;"
      horiz-adv-x="1000" d="M500.1666666666666 250L500 458.3333333333334M666.8333333333333 166.6666666666668L666.6666666666666 375M333.5 333.3333333333334L333.3333333333333 541.6666666666667M826.0416666666666 291.6666666666668C1013.3333333333331 423.3333333333334 845.8333333333334 613.75 671.625 613.75C553.9999999999999 1072.1666666666667 -136.0416666666666 693 169.75 347.4166666666667" />
    <glyph glyph-name="cloud-slash"
      unicode="&#xEA78;"
      horiz-adv-x="1000" d="M119.7916666666667 125L236.1666666666667 241.375M869.7916666666666 875L639.2916666666666 644.5M639.2916666666666 644.5C650.7083333333334 622.1666666666667 660.25 596.7916666666667 667.625 568.2083333333334C836 568.2083333333334 998.1666666666666 391.9583333333334 844.9166666666665 260.5416666666668C806.9999999999999 228.0416666666667 751.3749999999999 218.75 703 218.75H334.4166666666667C299.9583333333333 218.75 266.4166666666667 226.6666666666668 236.1666666666667 241.375M639.2916666666666 644.5L236.1666666666667 241.375M135 333.3333333333334C-54.4583333333333 602.4166666666667 322 875 541.6666666666666 750" />
    <glyph glyph-name="cloud-upload"
      unicode="&#xEA79;"
      horiz-adv-x="1000" d="M498.5833333333333 166.6666666666668L498.4166666666666 500M826.0416666666666 291.6666666666668C1013.3333333333331 423.3333333333334 845.8333333333334 613.75 671.625 613.75C553.9999999999999 1072.1666666666667 -136.0416666666666 693 169.75 347.4166666666667M631 403.4166666666668L498.4166666666666 536L365.8333333333333 403.4166666666668" />
    <glyph glyph-name="cloud"
      unicode="&#xEA7A;"
      horiz-adv-x="1000" d="M850.1249999999999 260.5416666666668C1003.3749999999998 391.9583333333334 841.2083333333333 568.2083333333334 672.7916666666665 568.2083333333334C554.1666666666666 1029.9583333333333 -141.6666666666666 648.0416666666667 166.6666666666667 299.9583333333335" />
    <glyph glyph-name="code-circle"
      unicode="&#xEA7B;"
      horiz-adv-x="1000" d="M125 479.1666666666667A375 375 0 0 1 875 479.1666666666667A375 375 0 0 1 125 479.1666666666667M621.1666666666666 575L626.6666666666666 569.5416666666667C669.2499999999999 526.9166666666667 690.5833333333333 505.625 690.5833333333333 479.1666666666667S669.2499999999999 431.4166666666667 626.6666666666665 388.7916666666667L621.1666666666665 383.2916666666668M544.6666666666666 645.8333333333334L455.3749999999999 312.5M378.8333333333333 575L373.3333333333333 569.5416666666667C330.75 526.9166666666667 309.4583333333333 505.625 309.4583333333333 479.1666666666667S330.7083333333333 431.4166666666667 373.3333333333333 388.7916666666667L378.8333333333333 383.2916666666668" />
    <glyph glyph-name="code-square"
      unicode="&#xEA7C;"
      horiz-adv-x="1000" d="M621.1666666666666 575L626.6666666666666 569.5416666666667C669.2499999999999 526.9166666666667 690.5833333333333 505.625 690.5833333333333 479.1666666666667S669.2499999999999 431.4166666666667 626.6666666666665 388.7916666666667L621.1666666666665 383.2916666666668M544.6666666666666 645.8333333333334L455.3749999999999 312.5M378.8333333333333 575L373.3333333333333 569.5416666666667C330.75 526.9166666666667 309.4583333333333 505.625 309.4583333333333 479.1666666666667S330.7083333333333 431.4166666666667 373.3333333333333 388.7916666666667L378.8333333333333 383.2916666666668M125 479.1666666666667C125 655.9583333333334 125 744.3333333333334 179.9166666666666 799.25C234.8333333333333 854.1666666666667 323.25 854.1666666666667 500 854.1666666666667C676.7916666666667 854.1666666666667 765.1666666666666 854.1666666666667 820.0833333333334 799.25C875 744.3333333333334 875 655.9166666666667 875 479.1666666666667C875 302.375 875 214 820.0833333333333 159.0833333333333C765.1666666666666 104.1666666666667 676.75 104.1666666666667 500 104.1666666666667C323.2083333333333 104.1666666666667 234.8333333333333 104.1666666666667 179.9166666666666 159.0833333333335C125 214 125 302.4166666666667 125 479.1666666666667z" />
    </font>
</defs>
</svg>
