<svg xmlns="http://www.w3.org/2000/svg" xmlns:xlink="http://www.w3.org/1999/xlink" width="0" height="0" style="display:none;"><symbol viewBox="0 0 24 24" id="mynaui-font-arrow-diagonal-one"><path d="m4.929 12.707 7.778-7.778m0 0v4.95m0-4.95h-4.95m11.314 6.364-7.778 7.778m0 0h4.95m-4.95 0v-4.95"></path></symbol><symbol viewBox="0 0 24 24" id="mynaui-font-arrow-diagonal-two"><path d="m11.293 4.929 7.778 7.778m0 0h-4.95m4.95 0v-4.95m-6.364 11.314L4.93 11.293m0 0v4.95m0-4.95h4.95"></path></symbol><symbol viewBox="0 0 24 24" id="mynaui-font-arrow-down-circle"><circle cx="12" cy="12" r="9"></circle><path d="M12 7.5v9m3.5-3.5L12 16.5 8.5 13"></path></symbol><symbol viewBox="0 0 24 24" id="mynaui-font-arrow-down-left-circle"><circle cx="12" cy="12" r="9"></circle><path d="m15.182 8.818-6.364 6.364m4.95 0h-4.95v-4.95"></path></symbol><symbol viewBox="0 0 24 24" id="mynaui-font-arrow-down-left-square"><path d="m15.182 8.818-6.364 6.364m4.95 0h-4.95v-4.95"></path><path d="M3 12c0-4.243 0-6.364 1.318-7.682C5.636 3 7.758 3 12 3c4.243 0 6.364 0 7.682 1.318C21 5.636 21 7.758 21 12c0 4.243 0 6.364-1.318 7.682C18.364 21 16.242 21 12 21c-4.243 0-6.364 0-7.682-1.318C3 18.364 3 16.242 3 12Z"></path></symbol><symbol viewBox="0 0 24 24" id="mynaui-font-arrow-down-left-waves"><path d="m15.182 8.818-6.364 6.364m4.95 0h-4.95v-4.95"></path><path d="M9.833 4.08c.55-.47.826-.704 1.114-.841a2.442 2.442 0 0 1 2.106 0c.288.137.563.372 1.114.841a3.132 3.132 0 0 0 1.9.788c.722.057 1.083.086 1.384.192a2.442 2.442 0 0 1 1.489 1.49c.106.3.135.66.192 1.382a3.13 3.13 0 0 0 .788 1.901c.47.55.704.826.841 1.114.319.666.319 1.44 0 2.106-.137.288-.372.563-.841 1.114a3.13 3.13 0 0 0-.788 1.9c-.057.722-.086 1.083-.192 1.384a2.442 2.442 0 0 1-1.49 1.489c-.3.106-.66.135-1.382.192a3.131 3.131 0 0 0-1.901.788c-.55.47-.826.704-1.114.841a2.441 2.441 0 0 1-2.106 0c-.288-.137-.563-.372-1.114-.841a3.13 3.13 0 0 0-1.9-.788c-.722-.057-1.083-.086-1.384-.192a2.442 2.442 0 0 1-1.489-1.49c-.106-.3-.135-.66-.192-1.382a3.132 3.132 0 0 0-.788-1.901c-.47-.55-.704-.826-.841-1.114a2.442 2.442 0 0 1 0-2.106c.137-.288.372-.563.841-1.114a3.131 3.131 0 0 0 .788-1.9c.057-.722.086-1.083.192-1.384A2.442 2.442 0 0 1 6.55 5.06c.3-.106.66-.135 1.382-.192a3.131 3.131 0 0 0 1.901-.788Z"></path></symbol><symbol viewBox="0 0 24 24" id="mynaui-font-arrow-down-left"><path d="m17.5 6.5-11 11m0 0h9m-9 0v-9"></path></symbol><symbol viewBox="0 0 24 24" id="mynaui-font-arrow-down-right-circle"><circle cx="12" cy="12" r="9"></circle><path d="m8.818 8.818 6.364 6.364m0-4.95v4.95h-4.95"></path></symbol><symbol viewBox="0 0 24 24" id="mynaui-font-arrow-down-right-square"><path d="m8.818 8.818 6.364 6.364m0-4.95v4.95h-4.95"></path><path d="M3 12c0-4.243 0-6.364 1.318-7.682C5.636 3 7.758 3 12 3c4.243 0 6.364 0 7.682 1.318C21 5.636 21 7.758 21 12c0 4.243 0 6.364-1.318 7.682C18.364 21 16.242 21 12 21c-4.243 0-6.364 0-7.682-1.318C3 18.364 3 16.242 3 12Z"></path></symbol><symbol viewBox="0 0 24 24" id="mynaui-font-arrow-down-right-waves"><path d="m8.818 8.818 6.364 6.364m0-4.95v4.95h-4.95"></path><path d="M9.833 4.08c.55-.47.826-.704 1.114-.841a2.442 2.442 0 0 1 2.106 0c.288.137.563.372 1.114.841a3.132 3.132 0 0 0 1.9.788c.722.057 1.083.086 1.384.192a2.442 2.442 0 0 1 1.489 1.49c.106.3.135.66.192 1.382a3.13 3.13 0 0 0 .788 1.901c.47.55.704.826.841 1.114.319.666.319 1.44 0 2.106-.137.288-.372.563-.841 1.114a3.13 3.13 0 0 0-.788 1.9c-.057.722-.086 1.083-.192 1.384a2.442 2.442 0 0 1-1.49 1.489c-.3.106-.66.135-1.382.192a3.131 3.131 0 0 0-1.901.788c-.55.47-.826.704-1.114.841a2.441 2.441 0 0 1-2.106 0c-.288-.137-.563-.372-1.114-.841a3.13 3.13 0 0 0-1.9-.788c-.722-.057-1.083-.086-1.384-.192a2.442 2.442 0 0 1-1.489-1.49c-.106-.3-.135-.66-.192-1.382a3.132 3.132 0 0 0-.788-1.901c-.47-.55-.704-.826-.841-1.114a2.442 2.442 0 0 1 0-2.106c.137-.288.372-.563.841-1.114a3.131 3.131 0 0 0 .788-1.9c.057-.722.086-1.083.192-1.384A2.442 2.442 0 0 1 6.55 5.06c.3-.106.66-.135 1.382-.192a3.131 3.131 0 0 0 1.901-.788Z"></path></symbol><symbol viewBox="0 0 24 24" id="mynaui-font-arrow-down-right"><path d="m6.5 6.5 11 11m0 0h-9m9 0v-9"></path></symbol><symbol viewBox="0 0 24 24" id="mynaui-font-arrow-down-square"><path d="M12 7.5v9m3.5-3.5L12 16.5 8.5 13"></path><path d="M3 12c0-4.243 0-6.364 1.318-7.682C5.636 3 7.758 3 12 3c4.243 0 6.364 0 7.682 1.318C21 5.636 21 7.758 21 12c0 4.243 0 6.364-1.318 7.682C18.364 21 16.242 21 12 21c-4.243 0-6.364 0-7.682-1.318C3 18.364 3 16.242 3 12Z"></path></symbol><symbol viewBox="0 0 24 24" id="mynaui-font-arrow-down-waves"><path d="M12 7.5v9m3.5-3.5L12 16.5 8.5 13"></path><path d="M9.833 4.08c.55-.47.826-.704 1.114-.841a2.442 2.442 0 0 1 2.106 0c.288.137.563.372 1.114.841a3.132 3.132 0 0 0 1.9.788c.722.057 1.083.086 1.384.192a2.442 2.442 0 0 1 1.489 1.49c.106.3.135.66.192 1.382a3.13 3.13 0 0 0 .788 1.901c.47.55.704.826.841 1.114.319.666.319 1.44 0 2.106-.137.288-.372.563-.841 1.114a3.13 3.13 0 0 0-.788 1.9c-.057.722-.086 1.083-.192 1.384a2.442 2.442 0 0 1-1.49 1.489c-.3.106-.66.135-1.382.192a3.131 3.131 0 0 0-1.901.788c-.55.47-.826.704-1.114.841a2.441 2.441 0 0 1-2.106 0c-.288-.137-.563-.372-1.114-.841a3.13 3.13 0 0 0-1.9-.788c-.722-.057-1.083-.086-1.384-.192a2.442 2.442 0 0 1-1.489-1.49c-.106-.3-.135-.66-.192-1.382a3.132 3.132 0 0 0-.788-1.901c-.47-.55-.704-.826-.841-1.114a2.442 2.442 0 0 1 0-2.106c.137-.288.372-.563.841-1.114a3.131 3.131 0 0 0 .788-1.9c.057-.722.086-1.083.192-1.384A2.442 2.442 0 0 1 6.55 5.06c.3-.106.66-.135 1.382-.192a3.131 3.131 0 0 0 1.901-.788Z"></path></symbol><symbol viewBox="0 0 24 24" id="mynaui-font-arrow-down"><path d="M12 4.5v15m0 0-6-5.625m6 5.625 6-5.625"></path></symbol><symbol viewBox="0 0 24 24" id="mynaui-font-arrow-left-circle"><circle cx="12" cy="12" r="9"></circle><path d="M16.5 12h-9m3.5 3.5L7.5 12 11 8.5"></path></symbol><symbol viewBox="0 0 24 24" id="mynaui-font-arrow-left-right"><path d="M6.5 7.5h11m0 0L14 11m3.5-3.5L14 4m3.5 12.5h-11m0 0L10 20m-3.5-3.5L10 13"></path></symbol><symbol viewBox="0 0 24 24" id="mynaui-font-arrow-left-square"><path d="M16.5 12h-9m3.5 3.5L7.5 12 11 8.5"></path><path d="M3 12c0-4.243 0-6.364 1.318-7.682C5.636 3 7.758 3 12 3c4.243 0 6.364 0 7.682 1.318C21 5.636 21 7.758 21 12c0 4.243 0 6.364-1.318 7.682C18.364 21 16.242 21 12 21c-4.243 0-6.364 0-7.682-1.318C3 18.364 3 16.242 3 12Z"></path></symbol><symbol viewBox="0 0 24 24" id="mynaui-font-arrow-left-waves"><path d="M16.5 12h-9m3.5 3.5L7.5 12 11 8.5"></path><path d="M9.833 4.08c.55-.47.826-.704 1.114-.841a2.442 2.442 0 0 1 2.106 0c.288.137.563.372 1.114.841a3.132 3.132 0 0 0 1.9.788c.722.057 1.083.086 1.384.192a2.442 2.442 0 0 1 1.489 1.49c.106.3.135.66.192 1.382a3.13 3.13 0 0 0 .788 1.901c.47.55.704.826.841 1.114.319.666.319 1.44 0 2.106-.137.288-.372.563-.841 1.114a3.13 3.13 0 0 0-.788 1.9c-.057.722-.086 1.083-.192 1.384a2.442 2.442 0 0 1-1.49 1.489c-.3.106-.66.135-1.382.192a3.131 3.131 0 0 0-1.901.788c-.55.47-.826.704-1.114.841a2.441 2.441 0 0 1-2.106 0c-.288-.137-.563-.372-1.114-.841a3.13 3.13 0 0 0-1.9-.788c-.722-.057-1.083-.086-1.384-.192a2.442 2.442 0 0 1-1.489-1.49c-.106-.3-.135-.66-.192-1.382a3.132 3.132 0 0 0-.788-1.901c-.47-.55-.704-.826-.841-1.114a2.442 2.442 0 0 1 0-2.106c.137-.288.372-.563.841-1.114a3.131 3.131 0 0 0 .788-1.9c.057-.722.086-1.083.192-1.384A2.442 2.442 0 0 1 6.55 5.06c.3-.106.66-.135 1.382-.192a3.131 3.131 0 0 0 1.901-.788Z"></path></symbol><symbol viewBox="0 0 24 24" id="mynaui-font-arrow-left"><path d="M19.5 12h-15m0 0 5.625-6M4.5 12l5.625 6"></path></symbol><symbol viewBox="0 0 24 24" id="mynaui-font-arrow-right-circle"><circle cx="12" cy="12" r="9"></circle><path d="M7.5 12h9M13 8.5l3.5 3.5-3.5 3.5"></path></symbol><symbol viewBox="0 0 24 24" id="mynaui-font-arrow-right-square"><path d="M7.5 12h9M13 8.5l3.5 3.5-3.5 3.5"></path><path d="M3 12c0-4.243 0-6.364 1.318-7.682C5.636 3 7.758 3 12 3c4.243 0 6.364 0 7.682 1.318C21 5.636 21 7.758 21 12c0 4.243 0 6.364-1.318 7.682C18.364 21 16.242 21 12 21c-4.243 0-6.364 0-7.682-1.318C3 18.364 3 16.242 3 12Z"></path></symbol><symbol viewBox="0 0 24 24" id="mynaui-font-arrow-right-waves"><path d="M7.5 12h9M13 8.5l3.5 3.5-3.5 3.5"></path><path d="M9.833 4.08c.55-.47.826-.704 1.114-.841a2.442 2.442 0 0 1 2.106 0c.288.137.563.372 1.114.841a3.132 3.132 0 0 0 1.9.788c.722.057 1.083.086 1.384.192a2.442 2.442 0 0 1 1.489 1.49c.106.3.135.66.192 1.382a3.13 3.13 0 0 0 .788 1.901c.47.55.704.826.841 1.114.319.666.319 1.44 0 2.106-.137.288-.372.563-.841 1.114a3.13 3.13 0 0 0-.788 1.9c-.057.722-.086 1.083-.192 1.384a2.442 2.442 0 0 1-1.49 1.489c-.3.106-.66.135-1.382.192a3.131 3.131 0 0 0-1.901.788c-.55.47-.826.704-1.114.841a2.441 2.441 0 0 1-2.106 0c-.288-.137-.563-.372-1.114-.841a3.13 3.13 0 0 0-1.9-.788c-.722-.057-1.083-.086-1.384-.192a2.442 2.442 0 0 1-1.489-1.49c-.106-.3-.135-.66-.192-1.382a3.132 3.132 0 0 0-.788-1.901c-.47-.55-.704-.826-.841-1.114a2.442 2.442 0 0 1 0-2.106c.137-.288.372-.563.841-1.114a3.131 3.131 0 0 0 .788-1.9c.057-.722.086-1.083.192-1.384A2.442 2.442 0 0 1 6.55 5.06c.3-.106.66-.135 1.382-.192a3.131 3.131 0 0 0 1.901-.788Z"></path></symbol><symbol viewBox="0 0 24 24" id="mynaui-font-arrow-right"><path d="M4.5 12h15m0 0-5.625-6m5.625 6-5.625 6"></path></symbol><symbol viewBox="0 0 24 24" id="mynaui-font-arrow-up-circle"><circle cx="12" cy="12" r="9"></circle><path d="M12 16.5v-9M8.5 11 12 7.5l3.5 3.5"></path></symbol><symbol viewBox="0 0 24 24" id="mynaui-font-arrow-up-down"><path d="M7.5 17.5v-11m0 0L11 10M7.5 6.5 4 10m12.5-3.5v11m0 0L20 14m-3.5 3.5L13 14"></path></symbol><symbol viewBox="0 0 24 24" id="mynaui-font-arrow-up-left-circle"><circle cx="12" cy="12" r="9"></circle><path d="M15.182 15.182 8.818 8.818m0 4.95v-4.95h4.95"></path></symbol><symbol viewBox="0 0 24 24" id="mynaui-font-arrow-up-left-square"><path d="M15.182 15.182 8.818 8.818m0 4.95v-4.95h4.95"></path><path d="M3 12c0-4.243 0-6.364 1.318-7.682C5.636 3 7.758 3 12 3c4.243 0 6.364 0 7.682 1.318C21 5.636 21 7.758 21 12c0 4.243 0 6.364-1.318 7.682C18.364 21 16.242 21 12 21c-4.243 0-6.364 0-7.682-1.318C3 18.364 3 16.242 3 12Z"></path></symbol><symbol viewBox="0 0 24 24" id="mynaui-font-arrow-up-left-waves"><path d="M15.182 15.182 8.818 8.818m0 4.95v-4.95h4.95"></path><path d="M9.833 4.08c.55-.47.826-.704 1.114-.841a2.442 2.442 0 0 1 2.106 0c.288.137.563.372 1.114.841a3.132 3.132 0 0 0 1.9.788c.722.057 1.083.086 1.384.192a2.442 2.442 0 0 1 1.489 1.49c.106.3.135.66.192 1.382a3.13 3.13 0 0 0 .788 1.901c.47.55.704.826.841 1.114.319.666.319 1.44 0 2.106-.137.288-.372.563-.841 1.114a3.13 3.13 0 0 0-.788 1.9c-.057.722-.086 1.083-.192 1.384a2.442 2.442 0 0 1-1.49 1.489c-.3.106-.66.135-1.382.192a3.131 3.131 0 0 0-1.901.788c-.55.47-.826.704-1.114.841a2.441 2.441 0 0 1-2.106 0c-.288-.137-.563-.372-1.114-.841a3.13 3.13 0 0 0-1.9-.788c-.722-.057-1.083-.086-1.384-.192a2.442 2.442 0 0 1-1.489-1.49c-.106-.3-.135-.66-.192-1.382a3.132 3.132 0 0 0-.788-1.901c-.47-.55-.704-.826-.841-1.114a2.442 2.442 0 0 1 0-2.106c.137-.288.372-.563.841-1.114a3.131 3.131 0 0 0 .788-1.9c.057-.722.086-1.083.192-1.384A2.442 2.442 0 0 1 6.55 5.06c.3-.106.66-.135 1.382-.192a3.131 3.131 0 0 0 1.901-.788Z"></path></symbol><symbol viewBox="0 0 24 24" id="mynaui-font-arrow-up-left"><path d="m17.5 17.5-11-11m0 0h9m-9 0v9"></path></symbol><symbol viewBox="0 0 24 24" id="mynaui-font-arrow-up-right-circle"><circle cx="12" cy="12" r="9"></circle><path d="m8.818 15.182 6.364-6.364m-4.95 0h4.95v4.95"></path></symbol><symbol viewBox="0 0 24 24" id="mynaui-font-arrow-up-right-square"><path d="m8.818 15.182 6.364-6.364m-4.95 0h4.95v4.95"></path><path d="M3 12c0-4.243 0-6.364 1.318-7.682C5.636 3 7.758 3 12 3c4.243 0 6.364 0 7.682 1.318C21 5.636 21 7.758 21 12c0 4.243 0 6.364-1.318 7.682C18.364 21 16.242 21 12 21c-4.243 0-6.364 0-7.682-1.318C3 18.364 3 16.242 3 12Z"></path></symbol><symbol viewBox="0 0 24 24" id="mynaui-font-arrow-up-right-waves"><path d="m8.818 15.182 6.364-6.364m-4.95 0h4.95v4.95"></path><path d="M9.833 4.08c.55-.47.826-.704 1.114-.841a2.442 2.442 0 0 1 2.106 0c.288.137.563.372 1.114.841a3.132 3.132 0 0 0 1.9.788c.722.057 1.083.086 1.384.192a2.442 2.442 0 0 1 1.489 1.49c.106.3.135.66.192 1.382a3.13 3.13 0 0 0 .788 1.901c.47.55.704.826.841 1.114.319.666.319 1.44 0 2.106-.137.288-.372.563-.841 1.114a3.13 3.13 0 0 0-.788 1.9c-.057.722-.086 1.083-.192 1.384a2.442 2.442 0 0 1-1.49 1.489c-.3.106-.66.135-1.382.192a3.131 3.131 0 0 0-1.901.788c-.55.47-.826.704-1.114.841a2.441 2.441 0 0 1-2.106 0c-.288-.137-.563-.372-1.114-.841a3.13 3.13 0 0 0-1.9-.788c-.722-.057-1.083-.086-1.384-.192a2.442 2.442 0 0 1-1.489-1.49c-.106-.3-.135-.66-.192-1.382a3.132 3.132 0 0 0-.788-1.901c-.47-.55-.704-.826-.841-1.114a2.442 2.442 0 0 1 0-2.106c.137-.288.372-.563.841-1.114a3.131 3.131 0 0 0 .788-1.9c.057-.722.086-1.083.192-1.384A2.442 2.442 0 0 1 6.55 5.06c.3-.106.66-.135 1.382-.192a3.131 3.131 0 0 0 1.901-.788Z"></path></symbol><symbol viewBox="0 0 24 24" id="mynaui-font-arrow-up-right"><path d="m6.5 17.5 11-11m0 0h-9m9 0v9"></path></symbol><symbol viewBox="0 0 24 24" id="mynaui-font-arrow-up-square"><path d="M12 16.5v-9M8.5 11 12 7.5l3.5 3.5"></path><path d="M3 12c0-4.243 0-6.364 1.318-7.682C5.636 3 7.758 3 12 3c4.243 0 6.364 0 7.682 1.318C21 5.636 21 7.758 21 12c0 4.243 0 6.364-1.318 7.682C18.364 21 16.242 21 12 21c-4.243 0-6.364 0-7.682-1.318C3 18.364 3 16.242 3 12Z"></path></symbol><symbol viewBox="0 0 24 24" id="mynaui-font-arrow-up-waves"><path d="M12 16.5v-9M8.5 11 12 7.5l3.5 3.5"></path><path d="M9.833 4.08c.55-.47.826-.704 1.114-.841a2.442 2.442 0 0 1 2.106 0c.288.137.563.372 1.114.841a3.132 3.132 0 0 0 1.9.788c.722.057 1.083.086 1.384.192a2.442 2.442 0 0 1 1.489 1.49c.106.3.135.66.192 1.382a3.13 3.13 0 0 0 .788 1.901c.47.55.704.826.841 1.114.319.666.319 1.44 0 2.106-.137.288-.372.563-.841 1.114a3.13 3.13 0 0 0-.788 1.9c-.057.722-.086 1.083-.192 1.384a2.442 2.442 0 0 1-1.49 1.489c-.3.106-.66.135-1.382.192a3.131 3.131 0 0 0-1.901.788c-.55.47-.826.704-1.114.841a2.441 2.441 0 0 1-2.106 0c-.288-.137-.563-.372-1.114-.841a3.13 3.13 0 0 0-1.9-.788c-.722-.057-1.083-.086-1.384-.192a2.442 2.442 0 0 1-1.489-1.49c-.106-.3-.135-.66-.192-1.382a3.132 3.132 0 0 0-.788-1.901c-.47-.55-.704-.826-.841-1.114a2.442 2.442 0 0 1 0-2.106c.137-.288.372-.563.841-1.114a3.131 3.131 0 0 0 .788-1.9c.057-.722.086-1.083.192-1.384A2.442 2.442 0 0 1 6.55 5.06c.3-.106.66-.135 1.382-.192a3.131 3.131 0 0 0 1.901-.788Z"></path></symbol><symbol viewBox="0 0 24 24" id="mynaui-font-arrow-up"><path d="M12 19.5v-15m0 0-6 5.625M12 4.5l6 5.625"></path></symbol><symbol viewBox="0 0 24 24" id="mynaui-font-at"><path d="M15.556 11.996V8.442m0 3.554c0-4.584-7.112-4.583-7.112 0 0 4.594 7.112 4.542 7.112 0Zm0 0c0 4.445 4.444 4.445 4.444 0A7.998 7.998 0 0 0 12 4c-4.418 0-8 3.58-8 7.996a7.998 7.998 0 0 0 8 7.996c1.489.075 3.5-.374 5.134-1.628"></path></symbol><symbol viewBox="0 0 24 24" id="mynaui-font-bell"><path d="M18.352 10.256C18.352 6.555 16.058 3 12 3s-6.352 3.555-6.352 7.256c0 1.502-.921 2.654-1.695 3.859-3.477 5.971 19.4 5.703 16.094 0-.774-1.205-1.695-2.357-1.695-3.859Z"></path><path d="M8.643 18.368C9.272 19.92 10.07 21 12 21c1.929 0 2.728-1.08 3.357-2.632"></path></symbol><symbol viewBox="0 0 24 24" id="mynaui-font-bookmark"><path d="m17.311 20.917-4.21-2.883a1.942 1.942 0 0 0-2.203 0l-4.21 2.883c-1.1.754-.927-13.562-.741-15.086C6.105 4.53 6.407 3 8.029 3h7.943c1.62 0 1.923 1.53 2.082 2.831.185 1.524.359 15.84-.743 15.086Z"></path></symbol><symbol viewBox="0 0 24 24" id="mynaui-font-campfire"><path d="m5.422 20.706 3.289-1.197L12 18.31l3.289-1.197 3.289-1.197m0 4.79L5.422 15.917m10.963-4.349A4.751 4.751 0 0 1 12 14.5c-2.623 0-4.75-2.134-4.75-4.767 0-2.632.998-3.709 2.558-6.233 2.923 1.283 2.923 5.133 2.923 5.133s.96-1.856 2.923-2.75c.63 1.86 1.478 3.89.731 5.685Z"></path></symbol><symbol viewBox="0 0 24 24" id="mynaui-font-check-circle"><circle cx="12" cy="12" r="9"></circle><path d="m8.667 12.333 1.505 1.721a1 1 0 0 0 1.564-.073L15.333 9"></path></symbol><symbol viewBox="0 0 24 24" id="mynaui-font-check-square"><path d="m8.667 12.333 1.505 1.721a1 1 0 0 0 1.564-.073L15.333 9"></path><path d="M3 12c0-4.243 0-6.364 1.318-7.682C5.636 3 7.758 3 12 3c4.243 0 6.364 0 7.682 1.318C21 5.636 21 7.758 21 12c0 4.243 0 6.364-1.318 7.682C18.364 21 16.242 21 12 21c-4.243 0-6.364 0-7.682-1.318C3 18.364 3 16.242 3 12Z"></path></symbol><symbol viewBox="0 0 24 24" id="mynaui-font-check-waves"><path d="m8.667 12.333 1.505 1.721a1 1 0 0 0 1.564-.073L15.333 9"></path><path d="M9.833 4.08c.55-.47.826-.704 1.114-.841a2.442 2.442 0 0 1 2.106 0c.288.137.563.372 1.114.841a3.132 3.132 0 0 0 1.9.788c.722.057 1.083.086 1.384.192a2.442 2.442 0 0 1 1.489 1.49c.106.3.135.66.192 1.382a3.13 3.13 0 0 0 .788 1.901c.47.55.704.826.841 1.114.319.666.319 1.44 0 2.106-.137.288-.372.563-.841 1.114a3.13 3.13 0 0 0-.788 1.9c-.057.722-.086 1.083-.192 1.384a2.442 2.442 0 0 1-1.49 1.489c-.3.106-.66.135-1.382.192a3.131 3.131 0 0 0-1.901.788c-.55.47-.826.704-1.114.841a2.441 2.441 0 0 1-2.106 0c-.288-.137-.563-.372-1.114-.841a3.13 3.13 0 0 0-1.9-.788c-.722-.057-1.083-.086-1.384-.192a2.442 2.442 0 0 1-1.489-1.49c-.106-.3-.135-.66-.192-1.382a3.132 3.132 0 0 0-.788-1.901c-.47-.55-.704-.826-.841-1.114a2.442 2.442 0 0 1 0-2.106c.137-.288.372-.563.841-1.114a3.131 3.131 0 0 0 .788-1.9c.057-.722.086-1.083.192-1.384A2.442 2.442 0 0 1 6.55 5.06c.3-.106.66-.135 1.382-.192a3.131 3.131 0 0 0 1.901-.788Z"></path></symbol><symbol viewBox="0 0 24 24" id="mynaui-font-check"><path d="m4.222 12.778 4.617 5.276a1 1 0 0 0 1.563-.073L19.779 5"></path></symbol><symbol viewBox="0 0 24 24" id="mynaui-font-chevron-double-down-left"><path d="M6.257 9.257v8.486h8.486"></path><path d="M9.257 6.257v8.486h8.486"></path></symbol><symbol viewBox="0 0 24 24" id="mynaui-font-chevron-double-down-right"><path d="M9.257 17.743h8.486V9.257"></path><path d="M6.257 14.743h8.486V6.257"></path></symbol><symbol viewBox="0 0 24 24" id="mynaui-font-chevron-double-down"><path d="m6 7 6 6 6-6"></path><path d="m6 11 6 6 6-6"></path></symbol><symbol viewBox="0 0 24 24" id="mynaui-font-chevron-double-left"><path d="m13 6-6 6 6 6"></path><path d="m17 6-6 6 6 6"></path></symbol><symbol viewBox="0 0 24 24" id="mynaui-font-chevron-double-right"><path d="m11 18 6-6-6-6"></path><path d="m7 18 6-6-6-6"></path></symbol><symbol viewBox="0 0 24 24" id="mynaui-font-chevron-double-up-left"><path d="M14.743 6.257H6.257v8.486"></path><path d="M17.743 9.257H9.257v8.486"></path></symbol><symbol viewBox="0 0 24 24" id="mynaui-font-chevron-double-up-right"><path d="M17.743 14.743V6.257H9.257"></path><path d="M14.743 17.743V9.257H6.257"></path></symbol><symbol viewBox="0 0 24 24" id="mynaui-font-chevron-double-up"><path d="m18 13-6-6-6 6"></path><path d="m18 17-6-6-6 6"></path></symbol><symbol viewBox="0 0 24 24" id="mynaui-font-chevron-down-circle"><circle cx="12" cy="12" r="9"></circle><path d="m15.5 10.75-3.5 3.5-3.5-3.5"></path></symbol><symbol viewBox="0 0 24 24" id="mynaui-font-chevron-down-left-circle"><circle cx="12" cy="12" r="9"></circle><path d="M14.95 13.95H10V9"></path></symbol><symbol viewBox="0 0 24 24" id="mynaui-font-chevron-down-left-square"><path d="M14.95 13.95H10V9"></path><path d="M3 12c0-4.243 0-6.364 1.318-7.682C5.636 3 7.758 3 12 3c4.243 0 6.364 0 7.682 1.318C21 5.636 21 7.758 21 12c0 4.243 0 6.364-1.318 7.682C18.364 21 16.242 21 12 21c-4.243 0-6.364 0-7.682-1.318C3 18.364 3 16.242 3 12Z"></path></symbol><symbol viewBox="0 0 24 24" id="mynaui-font-chevron-down-left-waves"><path d="M14.95 13.95H10V9"></path><path d="M9.833 4.08c.55-.47.826-.704 1.114-.841a2.442 2.442 0 0 1 2.106 0c.288.137.563.372 1.114.841a3.132 3.132 0 0 0 1.9.788c.722.057 1.083.086 1.384.192a2.442 2.442 0 0 1 1.489 1.49c.106.3.135.66.192 1.382a3.13 3.13 0 0 0 .788 1.901c.47.55.704.826.841 1.114.319.666.319 1.44 0 2.106-.137.288-.372.563-.841 1.114a3.13 3.13 0 0 0-.788 1.9c-.057.722-.086 1.083-.192 1.384a2.442 2.442 0 0 1-1.49 1.489c-.3.106-.66.135-1.382.192a3.131 3.131 0 0 0-1.901.788c-.55.47-.826.704-1.114.841a2.441 2.441 0 0 1-2.106 0c-.288-.137-.563-.372-1.114-.841a3.13 3.13 0 0 0-1.9-.788c-.722-.057-1.083-.086-1.384-.192a2.442 2.442 0 0 1-1.489-1.49c-.106-.3-.135-.66-.192-1.382a3.132 3.132 0 0 0-.788-1.901c-.47-.55-.704-.826-.841-1.114a2.442 2.442 0 0 1 0-2.106c.137-.288.372-.563.841-1.114a3.131 3.131 0 0 0 .788-1.9c.057-.722.086-1.083.192-1.384A2.442 2.442 0 0 1 6.55 5.06c.3-.106.66-.135 1.382-.192a3.131 3.131 0 0 0 1.901-.788Z"></path></symbol><symbol viewBox="0 0 24 24" id="mynaui-font-chevron-down-left"><path d="M7.879 7.636v8.485h8.485"></path></symbol><symbol viewBox="0 0 24 24" id="mynaui-font-chevron-down-right-circle"><circle cx="12" cy="12" r="9"></circle><path d="M13.95 9v4.95H9"></path></symbol><symbol viewBox="0 0 24 24" id="mynaui-font-chevron-down-right-square"><path d="M13.95 9v4.95H9"></path><path d="M3 12c0-4.243 0-6.364 1.318-7.682C5.636 3 7.758 3 12 3c4.243 0 6.364 0 7.682 1.318C21 5.636 21 7.758 21 12c0 4.243 0 6.364-1.318 7.682C18.364 21 16.242 21 12 21c-4.243 0-6.364 0-7.682-1.318C3 18.364 3 16.242 3 12Z"></path></symbol><symbol viewBox="0 0 24 24" id="mynaui-font-chevron-down-right-waves"><path d="M13.95 9v4.95H9"></path><path d="M9.833 4.08c.55-.47.826-.704 1.114-.841a2.442 2.442 0 0 1 2.106 0c.288.137.563.372 1.114.841a3.132 3.132 0 0 0 1.9.788c.722.057 1.083.086 1.384.192a2.442 2.442 0 0 1 1.489 1.49c.106.3.135.66.192 1.382a3.13 3.13 0 0 0 .788 1.901c.47.55.704.826.841 1.114.319.666.319 1.44 0 2.106-.137.288-.372.563-.841 1.114a3.13 3.13 0 0 0-.788 1.9c-.057.722-.086 1.083-.192 1.384a2.442 2.442 0 0 1-1.49 1.489c-.3.106-.66.135-1.382.192a3.131 3.131 0 0 0-1.901.788c-.55.47-.826.704-1.114.841a2.441 2.441 0 0 1-2.106 0c-.288-.137-.563-.372-1.114-.841a3.13 3.13 0 0 0-1.9-.788c-.722-.057-1.083-.086-1.384-.192a2.442 2.442 0 0 1-1.489-1.49c-.106-.3-.135-.66-.192-1.382a3.132 3.132 0 0 0-.788-1.901c-.47-.55-.704-.826-.841-1.114a2.442 2.442 0 0 1 0-2.106c.137-.288.372-.563.841-1.114a3.131 3.131 0 0 0 .788-1.9c.057-.722.086-1.083.192-1.384A2.442 2.442 0 0 1 6.55 5.06c.3-.106.66-.135 1.382-.192a3.131 3.131 0 0 0 1.901-.788Z"></path></symbol><symbol viewBox="0 0 24 24" id="mynaui-font-chevron-down-right"><path d="M16.121 7.636v8.485H7.636"></path></symbol><symbol viewBox="0 0 24 24" id="mynaui-font-chevron-down-square"><path d="m15.5 10.75-3.5 3.5-3.5-3.5"></path><path d="M3 12c0-4.243 0-6.364 1.318-7.682C5.636 3 7.758 3 12 3c4.243 0 6.364 0 7.682 1.318C21 5.636 21 7.758 21 12c0 4.243 0 6.364-1.318 7.682C18.364 21 16.242 21 12 21c-4.243 0-6.364 0-7.682-1.318C3 18.364 3 16.242 3 12Z"></path></symbol><symbol viewBox="0 0 24 24" id="mynaui-font-chevron-down-waves"><path d="m15.5 10.75-3.5 3.5-3.5-3.5"></path><path d="M9.833 4.08c.55-.47.826-.704 1.114-.841a2.442 2.442 0 0 1 2.106 0c.288.137.563.372 1.114.841a3.132 3.132 0 0 0 1.9.788c.722.057 1.083.086 1.384.192a2.442 2.442 0 0 1 1.489 1.49c.106.3.135.66.192 1.382a3.13 3.13 0 0 0 .788 1.901c.47.55.704.826.841 1.114.319.666.319 1.44 0 2.106-.137.288-.372.563-.841 1.114a3.13 3.13 0 0 0-.788 1.9c-.057.722-.086 1.083-.192 1.384a2.442 2.442 0 0 1-1.49 1.489c-.3.106-.66.135-1.382.192a3.131 3.131 0 0 0-1.901.788c-.55.47-.826.704-1.114.841a2.441 2.441 0 0 1-2.106 0c-.288-.137-.563-.372-1.114-.841a3.13 3.13 0 0 0-1.9-.788c-.722-.057-1.083-.086-1.384-.192a2.442 2.442 0 0 1-1.489-1.49c-.106-.3-.135-.66-.192-1.382a3.132 3.132 0 0 0-.788-1.901c-.47-.55-.704-.826-.841-1.114a2.442 2.442 0 0 1 0-2.106c.137-.288.372-.563.841-1.114a3.131 3.131 0 0 0 .788-1.9c.057-.722.086-1.083.192-1.384A2.442 2.442 0 0 1 6.55 5.06c.3-.106.66-.135 1.382-.192a3.131 3.131 0 0 0 1.901-.788Z"></path></symbol><symbol viewBox="0 0 24 24" id="mynaui-font-chevron-down"><path d="m6 9 6 6 6-6"></path></symbol><symbol viewBox="0 0 24 24" id="mynaui-font-chevron-left-circle"><circle cx="12" cy="12" r="9"></circle><path d="M13.25 15.5 9.75 12l3.5-3.5"></path></symbol><symbol viewBox="0 0 24 24" id="mynaui-font-chevron-left-square"><path d="M13.25 15.5 9.75 12l3.5-3.5"></path><path d="M3 12c0-4.243 0-6.364 1.318-7.682C5.636 3 7.758 3 12 3c4.243 0 6.364 0 7.682 1.318C21 5.636 21 7.758 21 12c0 4.243 0 6.364-1.318 7.682C18.364 21 16.242 21 12 21c-4.243 0-6.364 0-7.682-1.318C3 18.364 3 16.242 3 12Z"></path></symbol><symbol viewBox="0 0 24 24" id="mynaui-font-chevron-left-waves"><path d="M13.25 15.5 9.75 12l3.5-3.5"></path><path d="M9.833 4.08c.55-.47.826-.704 1.114-.841a2.442 2.442 0 0 1 2.106 0c.288.137.563.372 1.114.841a3.132 3.132 0 0 0 1.9.788c.722.057 1.083.086 1.384.192a2.442 2.442 0 0 1 1.489 1.49c.106.3.135.66.192 1.382a3.13 3.13 0 0 0 .788 1.901c.47.55.704.826.841 1.114.319.666.319 1.44 0 2.106-.137.288-.372.563-.841 1.114a3.13 3.13 0 0 0-.788 1.9c-.057.722-.086 1.083-.192 1.384a2.442 2.442 0 0 1-1.49 1.489c-.3.106-.66.135-1.382.192a3.131 3.131 0 0 0-1.901.788c-.55.47-.826.704-1.114.841a2.441 2.441 0 0 1-2.106 0c-.288-.137-.563-.372-1.114-.841a3.13 3.13 0 0 0-1.9-.788c-.722-.057-1.083-.086-1.384-.192a2.442 2.442 0 0 1-1.489-1.49c-.106-.3-.135-.66-.192-1.382a3.132 3.132 0 0 0-.788-1.901c-.47-.55-.704-.826-.841-1.114a2.442 2.442 0 0 1 0-2.106c.137-.288.372-.563.841-1.114a3.131 3.131 0 0 0 .788-1.9c.057-.722.086-1.083.192-1.384A2.442 2.442 0 0 1 6.55 5.06c.3-.106.66-.135 1.382-.192a3.131 3.131 0 0 0 1.901-.788Z"></path></symbol><symbol viewBox="0 0 24 24" id="mynaui-font-chevron-left"><path d="m15 6-6 6 6 6"></path></symbol><symbol viewBox="0 0 24 24" id="mynaui-font-chevron-right-circle"><circle cx="12" cy="12" r="9"></circle><path d="m10.75 8.5 3.5 3.5-3.5 3.5"></path></symbol><symbol viewBox="0 0 24 24" id="mynaui-font-chevron-right-square"><path d="m10.75 8.5 3.5 3.5-3.5 3.5"></path><path d="M3 12c0-4.243 0-6.364 1.318-7.682C5.636 3 7.758 3 12 3c4.243 0 6.364 0 7.682 1.318C21 5.636 21 7.758 21 12c0 4.243 0 6.364-1.318 7.682C18.364 21 16.242 21 12 21c-4.243 0-6.364 0-7.682-1.318C3 18.364 3 16.242 3 12Z"></path></symbol><symbol viewBox="0 0 24 24" id="mynaui-font-chevron-right-waves"><path d="m10.75 8.5 3.5 3.5-3.5 3.5"></path><path d="M9.833 4.08c.55-.47.826-.704 1.114-.841a2.442 2.442 0 0 1 2.106 0c.288.137.563.372 1.114.841a3.132 3.132 0 0 0 1.9.788c.722.057 1.083.086 1.384.192a2.442 2.442 0 0 1 1.489 1.49c.106.3.135.66.192 1.382a3.13 3.13 0 0 0 .788 1.901c.47.55.704.826.841 1.114.319.666.319 1.44 0 2.106-.137.288-.372.563-.841 1.114a3.13 3.13 0 0 0-.788 1.9c-.057.722-.086 1.083-.192 1.384a2.442 2.442 0 0 1-1.49 1.489c-.3.106-.66.135-1.382.192a3.131 3.131 0 0 0-1.901.788c-.55.47-.826.704-1.114.841a2.441 2.441 0 0 1-2.106 0c-.288-.137-.563-.372-1.114-.841a3.13 3.13 0 0 0-1.9-.788c-.722-.057-1.083-.086-1.384-.192a2.442 2.442 0 0 1-1.489-1.49c-.106-.3-.135-.66-.192-1.382a3.132 3.132 0 0 0-.788-1.901c-.47-.55-.704-.826-.841-1.114a2.442 2.442 0 0 1 0-2.106c.137-.288.372-.563.841-1.114a3.131 3.131 0 0 0 .788-1.9c.057-.722.086-1.083.192-1.384A2.442 2.442 0 0 1 6.55 5.06c.3-.106.66-.135 1.382-.192a3.131 3.131 0 0 0 1.901-.788Z"></path></symbol><symbol viewBox="0 0 24 24" id="mynaui-font-chevron-right"><path d="m9 18 6-6-6-6"></path></symbol><symbol viewBox="0 0 24 24" id="mynaui-font-chevron-up-circle"><circle cx="12" cy="12" r="9"></circle><path d="m8.5 13.25 3.5-3.5 3.5 3.5"></path></symbol><symbol viewBox="0 0 24 24" id="mynaui-font-chevron-up-left-circle"><circle cx="12" cy="12" r="9"></circle><path d="M10 14.95V10h4.95"></path></symbol><symbol viewBox="0 0 24 24" id="mynaui-font-chevron-up-left-square"><path d="M10 14.95V10h4.95"></path><path d="M3 12c0-4.243 0-6.364 1.318-7.682C5.636 3 7.758 3 12 3c4.243 0 6.364 0 7.682 1.318C21 5.636 21 7.758 21 12c0 4.243 0 6.364-1.318 7.682C18.364 21 16.242 21 12 21c-4.243 0-6.364 0-7.682-1.318C3 18.364 3 16.242 3 12Z"></path></symbol><symbol viewBox="0 0 24 24" id="mynaui-font-chevron-up-left-waves"><path d="M10 14.95V10h4.95"></path><path d="M9.833 4.08c.55-.47.826-.704 1.114-.841a2.442 2.442 0 0 1 2.106 0c.288.137.563.372 1.114.841a3.132 3.132 0 0 0 1.9.788c.722.057 1.083.086 1.384.192a2.442 2.442 0 0 1 1.489 1.49c.106.3.135.66.192 1.382a3.13 3.13 0 0 0 .788 1.901c.47.55.704.826.841 1.114.319.666.319 1.44 0 2.106-.137.288-.372.563-.841 1.114a3.13 3.13 0 0 0-.788 1.9c-.057.722-.086 1.083-.192 1.384a2.442 2.442 0 0 1-1.49 1.489c-.3.106-.66.135-1.382.192a3.131 3.131 0 0 0-1.901.788c-.55.47-.826.704-1.114.841a2.441 2.441 0 0 1-2.106 0c-.288-.137-.563-.372-1.114-.841a3.13 3.13 0 0 0-1.9-.788c-.722-.057-1.083-.086-1.384-.192a2.442 2.442 0 0 1-1.489-1.49c-.106-.3-.135-.66-.192-1.382a3.132 3.132 0 0 0-.788-1.901c-.47-.55-.704-.826-.841-1.114a2.442 2.442 0 0 1 0-2.106c.137-.288.372-.563.841-1.114a3.131 3.131 0 0 0 .788-1.9c.057-.722.086-1.083.192-1.384A2.442 2.442 0 0 1 6.55 5.06c.3-.106.66-.135 1.382-.192a3.131 3.131 0 0 0 1.901-.788Z"></path></symbol><symbol viewBox="0 0 24 24" id="mynaui-font-chevron-up-left"><path d="M7.879 16.364V7.879h8.485"></path></symbol><symbol viewBox="0 0 24 24" id="mynaui-font-chevron-up-right-circle"><circle cx="12" cy="12" r="9"></circle><path d="M9 10h4.95v4.95"></path></symbol><symbol viewBox="0 0 24 24" id="mynaui-font-chevron-up-right-square"><path d="M9 10h4.95v4.95"></path><path d="M3 12c0-4.243 0-6.364 1.318-7.682C5.636 3 7.758 3 12 3c4.243 0 6.364 0 7.682 1.318C21 5.636 21 7.758 21 12c0 4.243 0 6.364-1.318 7.682C18.364 21 16.242 21 12 21c-4.243 0-6.364 0-7.682-1.318C3 18.364 3 16.242 3 12Z"></path></symbol><symbol viewBox="0 0 24 24" id="mynaui-font-chevron-up-right-waves"><path d="M9 10h4.95v4.95"></path><path d="M9.833 4.08c.55-.47.826-.704 1.114-.841a2.442 2.442 0 0 1 2.106 0c.288.137.563.372 1.114.841a3.132 3.132 0 0 0 1.9.788c.722.057 1.083.086 1.384.192a2.442 2.442 0 0 1 1.489 1.49c.106.3.135.66.192 1.382a3.13 3.13 0 0 0 .788 1.901c.47.55.704.826.841 1.114.319.666.319 1.44 0 2.106-.137.288-.372.563-.841 1.114a3.13 3.13 0 0 0-.788 1.9c-.057.722-.086 1.083-.192 1.384a2.442 2.442 0 0 1-1.49 1.489c-.3.106-.66.135-1.382.192a3.131 3.131 0 0 0-1.901.788c-.55.47-.826.704-1.114.841a2.441 2.441 0 0 1-2.106 0c-.288-.137-.563-.372-1.114-.841a3.13 3.13 0 0 0-1.9-.788c-.722-.057-1.083-.086-1.384-.192a2.442 2.442 0 0 1-1.489-1.49c-.106-.3-.135-.66-.192-1.382a3.132 3.132 0 0 0-.788-1.901c-.47-.55-.704-.826-.841-1.114a2.442 2.442 0 0 1 0-2.106c.137-.288.372-.563.841-1.114a3.131 3.131 0 0 0 .788-1.9c.057-.722.086-1.083.192-1.384A2.442 2.442 0 0 1 6.55 5.06c.3-.106.66-.135 1.382-.192a3.131 3.131 0 0 0 1.901-.788Z"></path></symbol><symbol viewBox="0 0 24 24" id="mynaui-font-chevron-up-right"><path d="M16.121 16.364V7.879H7.636"></path></symbol><symbol viewBox="0 0 24 24" id="mynaui-font-chevron-up-square"><path d="m8.5 13.25 3.5-3.5 3.5 3.5"></path><path d="M3 12c0-4.243 0-6.364 1.318-7.682C5.636 3 7.758 3 12 3c4.243 0 6.364 0 7.682 1.318C21 5.636 21 7.758 21 12c0 4.243 0 6.364-1.318 7.682C18.364 21 16.242 21 12 21c-4.243 0-6.364 0-7.682-1.318C3 18.364 3 16.242 3 12Z"></path></symbol><symbol viewBox="0 0 24 24" id="mynaui-font-chevron-up-waves"><path d="m8.5 13.25 3.5-3.5 3.5 3.5"></path><path d="M9.833 4.08c.55-.47.826-.704 1.114-.841a2.442 2.442 0 0 1 2.106 0c.288.137.563.372 1.114.841a3.132 3.132 0 0 0 1.9.788c.722.057 1.083.086 1.384.192a2.442 2.442 0 0 1 1.489 1.49c.106.3.135.66.192 1.382a3.13 3.13 0 0 0 .788 1.901c.47.55.704.826.841 1.114.319.666.319 1.44 0 2.106-.137.288-.372.563-.841 1.114a3.13 3.13 0 0 0-.788 1.9c-.057.722-.086 1.083-.192 1.384a2.442 2.442 0 0 1-1.49 1.489c-.3.106-.66.135-1.382.192a3.131 3.131 0 0 0-1.901.788c-.55.47-.826.704-1.114.841a2.441 2.441 0 0 1-2.106 0c-.288-.137-.563-.372-1.114-.841a3.13 3.13 0 0 0-1.9-.788c-.722-.057-1.083-.086-1.384-.192a2.442 2.442 0 0 1-1.489-1.49c-.106-.3-.135-.66-.192-1.382a3.132 3.132 0 0 0-.788-1.901c-.47-.55-.704-.826-.841-1.114a2.442 2.442 0 0 1 0-2.106c.137-.288.372-.563.841-1.114a3.131 3.131 0 0 0 .788-1.9c.057-.722.086-1.083.192-1.384A2.442 2.442 0 0 1 6.55 5.06c.3-.106.66-.135 1.382-.192a3.131 3.131 0 0 0 1.901-.788Z"></path></symbol><symbol viewBox="0 0 24 24" id="mynaui-font-chevron-up"><path d="m18 15-6-6-6 6"></path></symbol><symbol viewBox="0 0 24 24" id="mynaui-font-circle"><circle cx="12" cy="12" r="9"></circle></symbol><symbol viewBox="0 0 24 24" id="mynaui-font-clock-circle"><circle cx="12" cy="12" r="9"></circle><path d="M12.147 6v6l4 2"></path></symbol><symbol viewBox="0 0 24 24" id="mynaui-font-clock-hand"><path d="M12.147 3v9l6 3"></path></symbol><symbol viewBox="0 0 24 24" id="mynaui-font-clock-square"><path d="M12.147 6v6l4 2"></path><path d="M3 12c0-4.243 0-6.364 1.318-7.682C5.636 3 7.758 3 12 3c4.243 0 6.364 0 7.682 1.318C21 5.636 21 7.758 21 12c0 4.243 0 6.364-1.318 7.682C18.364 21 16.242 21 12 21c-4.243 0-6.364 0-7.682-1.318C3 18.364 3 16.242 3 12Z"></path></symbol><symbol viewBox="0 0 24 24" id="mynaui-font-clock-waves"><path d="M12.147 6v6l4 2"></path><path d="M9.833 4.08c.55-.47.826-.704 1.114-.841a2.442 2.442 0 0 1 2.106 0c.288.137.563.372 1.114.841a3.132 3.132 0 0 0 1.9.788c.722.057 1.083.086 1.384.192a2.442 2.442 0 0 1 1.489 1.49c.106.3.135.66.192 1.382a3.13 3.13 0 0 0 .788 1.901c.47.55.704.826.841 1.114.319.666.319 1.44 0 2.106-.137.288-.372.563-.841 1.114a3.13 3.13 0 0 0-.788 1.9c-.057.722-.086 1.083-.192 1.384a2.442 2.442 0 0 1-1.49 1.489c-.3.106-.66.135-1.382.192a3.131 3.131 0 0 0-1.901.788c-.55.47-.826.704-1.114.841a2.441 2.441 0 0 1-2.106 0c-.288-.137-.563-.372-1.114-.841a3.13 3.13 0 0 0-1.9-.788c-.722-.057-1.083-.086-1.384-.192a2.442 2.442 0 0 1-1.489-1.49c-.106-.3-.135-.66-.192-1.382a3.132 3.132 0 0 0-.788-1.901c-.47-.55-.704-.826-.841-1.114a2.442 2.442 0 0 1 0-2.106c.137-.288.372-.563.841-1.114a3.131 3.131 0 0 0 .788-1.9c.057-.722.086-1.083.192-1.384A2.442 2.442 0 0 1 6.55 5.06c.3-.106.66-.135 1.382-.192a3.131 3.131 0 0 0 1.901-.788Z"></path></symbol><symbol viewBox="0 0 24 24" id="mynaui-font-cloud-download"><path d="m11.966 11.136-.004 8M19.825 17c4.495-3.16.475-7.73-3.706-7.73C13.296-1.732-3.265 7.368 4.074 15.662m11.07 1.156L11.962 20 8.78 16.818"></path></symbol><symbol viewBox="0 0 24 24" id="mynaui-font-cloud-upload"><path d="m11.966 20-.004-8m7.863 5c4.495-3.16.475-7.73-3.706-7.73C13.296-1.732-3.265 7.368 4.074 15.662"></path><path d="m15.144 14.318-3.182-3.182-3.182 3.182"></path></symbol><symbol viewBox="0 0 24 24" id="mynaui-font-code-circle"><circle cx="12" cy="12" r="9"></circle><path d="m14.908 9.7.132.131c1.022 1.023 1.534 1.534 1.534 2.169s-.512 1.146-1.534 2.169l-.132.132M13.072 8l-2.143 8M9.092 9.7l-.132.131C7.938 10.854 7.427 11.365 7.427 12s.51 1.146 1.533 2.169l.132.132"></path></symbol><symbol viewBox="0 0 24 24" id="mynaui-font-code-square"><path d="m14.908 9.7.132.131c1.022 1.023 1.534 1.534 1.534 2.169s-.512 1.146-1.534 2.169l-.132.132M13.072 8l-2.143 8M9.092 9.7l-.132.131C7.938 10.854 7.427 11.365 7.427 12s.51 1.146 1.533 2.169l.132.132"></path><path d="M3 12c0-4.243 0-6.364 1.318-7.682C5.636 3 7.758 3 12 3c4.243 0 6.364 0 7.682 1.318C21 5.636 21 7.758 21 12c0 4.243 0 6.364-1.318 7.682C18.364 21 16.242 21 12 21c-4.243 0-6.364 0-7.682-1.318C3 18.364 3 16.242 3 12Z"></path></symbol><symbol viewBox="0 0 24 24" id="mynaui-font-code-waves"><path d="m14.908 9.7.132.131c1.022 1.023 1.534 1.534 1.534 2.169s-.512 1.146-1.534 2.169l-.132.132M13.072 8l-2.143 8M9.092 9.7l-.132.131C7.938 10.854 7.427 11.365 7.427 12s.51 1.146 1.533 2.169l.132.132"></path><path d="M9.833 4.08c.55-.47.826-.704 1.114-.841a2.442 2.442 0 0 1 2.106 0c.288.137.563.372 1.114.841a3.132 3.132 0 0 0 1.9.788c.722.057 1.083.086 1.384.192a2.442 2.442 0 0 1 1.489 1.49c.106.3.135.66.192 1.382a3.13 3.13 0 0 0 .788 1.901c.47.55.704.826.841 1.114.319.666.319 1.44 0 2.106-.137.288-.372.563-.841 1.114a3.13 3.13 0 0 0-.788 1.9c-.057.722-.086 1.083-.192 1.384a2.442 2.442 0 0 1-1.49 1.489c-.3.106-.66.135-1.382.192a3.131 3.131 0 0 0-1.901.788c-.55.47-.826.704-1.114.841a2.441 2.441 0 0 1-2.106 0c-.288-.137-.563-.372-1.114-.841a3.13 3.13 0 0 0-1.9-.788c-.722-.057-1.083-.086-1.384-.192a2.442 2.442 0 0 1-1.489-1.49c-.106-.3-.135-.66-.192-1.382a3.132 3.132 0 0 0-.788-1.901c-.47-.55-.704-.826-.841-1.114a2.442 2.442 0 0 1 0-2.106c.137-.288.372-.563.841-1.114a3.131 3.131 0 0 0 .788-1.9c.057-.722.086-1.083.192-1.384A2.442 2.442 0 0 1 6.55 5.06c.3-.106.66-.135 1.382-.192a3.131 3.131 0 0 0 1.901-.788Z"></path></symbol><symbol viewBox="0 0 24 24" id="mynaui-font-code"><path d="m17.09 7.974.23.23c1.789 1.79 2.683 2.684 2.683 3.796 0 1.112-.894 2.007-2.683 3.796l-.23.23M13.876 5l-3.751 14M6.91 7.974l-.23.23C4.892 9.994 3.997 10.888 3.997 12c0 1.112.895 2.007 2.685 3.796l.23.23"></path></symbol><symbol viewBox="0 0 24 24" id="mynaui-font-cog"><path stroke-miterlimit="1" d="M10.215 4.35a.944.944 0 0 1 .94-.85h1.69c.486 0 .892.368.94.85l.031.314a7.51 7.51 0 0 1 2.086.865l.245-.2a.944.944 0 0 1 1.266.063l1.195 1.195c.343.343.37.89.063 1.266l-.2.245c.387.64.681 1.34.865 2.086l.314.031c.482.048.85.454.85.94v1.69a.944.944 0 0 1-.85.94l-.314.031a7.508 7.508 0 0 1-.865 2.086l.2.245a.944.944 0 0 1-.063 1.266l-1.195 1.195a.945.945 0 0 1-1.266.063l-.245-.2c-.64.387-1.34.681-2.086.865l-.031.314a.944.944 0 0 1-.94.85h-1.69a.944.944 0 0 1-.94-.85l-.031-.314a7.511 7.511 0 0 1-2.086-.865l-.245.2a.944.944 0 0 1-1.266-.063l-1.195-1.195a.944.944 0 0 1-.063-1.266l.2-.245a7.51 7.51 0 0 1-.865-2.086l-.314-.031a.944.944 0 0 1-.85-.94v-1.69c0-.486.368-.892.85-.94l.314-.031a7.51 7.51 0 0 1 .865-2.086l-.2-.245a.944.944 0 0 1 .063-1.266l1.195-1.195a.944.944 0 0 1 1.266-.063l.245.2a7.51 7.51 0 0 1 2.086-.865l.031-.314Z"></path><circle cx="2.5" cy="2.5" r="2.5" stroke-miterlimit="1" transform="matrix(1 0 0 -1 9.5 14.5)"></circle></symbol><symbol viewBox="0 0 24 24" id="mynaui-font-columns"><path d="M3 12c0-4.243 0-6.364 1.318-7.682C5.636 3 7.758 3 12 3c4.243 0 6.364 0 7.682 1.318C21 5.636 21 7.758 21 12c0 4.243 0 6.364-1.318 7.682C18.364 21 16.242 21 12 21c-4.243 0-6.364 0-7.682-1.318C3 18.364 3 16.242 3 12Zm9-8.5v17"></path></symbol><symbol viewBox="0 0 24 24" id="mynaui-font-command"><path d="M14.51 6.98v10.04c0 2.203 2.763 3.294 4.284 1.774 1.52-1.52.43-4.284-1.775-4.284H6.981c-2.204 0-3.295 2.763-1.775 4.284 1.52 1.52 4.284.43 4.284-1.775V6.981c0-2.204-2.764-3.295-4.284-1.775S4.776 9.49 6.981 9.49h10.038c2.204 0 3.295-2.764 1.775-4.284s-4.284-.43-4.284 1.775Z"></path></symbol><symbol viewBox="0 0 24 24" id="mynaui-font-controller"><path d="M7.5 11.5v3M6 13h3m3-4.653c2.005 0 3.7-1.888 5.786-1.212 2.264.733 3.82 3.413 3.708 9.492-.022 1.224-.336 2.578-1.546 3.106-2.797 1.221-4.397-2.328-7-2.328h-1.897c-2.605 0-4.213 3.545-6.998 2.328-1.21-.528-1.525-1.882-1.547-3.107-.113-6.078 1.444-8.758 3.708-9.491C8.299 6.459 9.994 8.347 12 8.347Zm0-4.565v4.342M14.874 13h3"></path></symbol><symbol viewBox="0 0 24 24" id="mynaui-font-copy"><path d="M19.848 12.765C20 12.398 20 11.932 20 11c0-.932 0-1.398-.152-1.765a2 2 0 0 0-1.083-1.083C18.398 8 17.932 8 17 8h-5.8c-1.12 0-1.68 0-2.108.218a2 2 0 0 0-.874.874C8 9.52 8 10.08 8 11.2V17c0 .932 0 1.398.152 1.765a2 2 0 0 0 1.083 1.083C9.602 20 10.068 20 11 20c.932 0 1.398 0 1.765-.152m7.083-7.083a2 2 0 0 1-1.083 1.083C18.398 14 17.932 14 17 14c-.932 0-1.398 0-1.765.152a2 2 0 0 0-1.083 1.083C14 15.602 14 16.068 14 17c0 .932 0 1.398-.152 1.765a2 2 0 0 1-1.083 1.083m7.083-7.083a10.38 10.38 0 0 1-6.889 7.022l-.194.06M16 8v-.8c0-1.12 0-1.68-.218-2.108a2 2 0 0 0-.874-.874C14.48 4 13.92 4 12.8 4H7.2c-1.12 0-1.68 0-2.108.218a2 2 0 0 0-.874.874C4 5.52 4 6.08 4 7.2v5.6c0 1.12 0 1.68.218 2.108a2 2 0 0 0 .874.874C5.52 16 6.08 16 7.201 16H8"></path></symbol><symbol viewBox="0 0 24 24" id="mynaui-font-corner-down-left"><path d="M5 13.973h10a4 4 0 0 0 4-4V5M5 13.973l4.78-5.027M5 13.973 9.78 19"></path></symbol><symbol viewBox="0 0 24 24" id="mynaui-font-corner-down-right"><path d="M19 13.973H9a4 4 0 0 1-4-4V5m14 8.973-4.78-5.027M19 13.973 14.22 19"></path></symbol><symbol viewBox="0 0 24 24" id="mynaui-font-corner-left-down"><path d="M10.027 19V9a4 4 0 0 1 4-4H19m-8.973 14 5.028-4.78M10.027 19 5 14.22"></path></symbol><symbol viewBox="0 0 24 24" id="mynaui-font-corner-left-up"><path d="M10.027 5v10a4 4 0 0 0 4 4H19M10.027 5l5.028 4.78M10.027 5 5 9.78"></path></symbol><symbol viewBox="0 0 24 24" id="mynaui-font-corner-right-down"><path d="M13.973 19V9a4 4 0 0 0-4-4H5m8.973 14-5.027-4.78M13.973 19 19 14.22"></path></symbol><symbol viewBox="0 0 24 24" id="mynaui-font-corner-right-up"><path d="M13.973 5v10a4 4 0 0 1-4 4H5m8.973-14L8.946 9.78M13.973 5 19 9.78"></path></symbol><symbol viewBox="0 0 24 24" id="mynaui-font-corner-up-left"><path d="M5 10.027h10a4 4 0 0 1 4 4V19M5 10.027l4.78 5.028M5 10.027 9.78 5"></path></symbol><symbol viewBox="0 0 24 24" id="mynaui-font-corner-up-right"><path d="M19 10.027H9a4 4 0 0 0-4 4V19m14-8.973-4.78 5.028M19 10.027 14.22 5"></path></symbol><symbol viewBox="0 0 24 24" id="mynaui-font-danger-circle"><circle cx="12" cy="12" r="9"></circle><path d="M12 7.25v5.5M11.995 16h.01"></path></symbol><symbol viewBox="0 0 24 24" id="mynaui-font-danger-square"><path d="M12 7.25v5.5M11.995 16h.01M3 12c0-4.243 0-6.364 1.318-7.682C5.636 3 7.758 3 12 3c4.243 0 6.364 0 7.682 1.318C21 5.636 21 7.758 21 12c0 4.243 0 6.364-1.318 7.682C18.364 21 16.242 21 12 21c-4.243 0-6.364 0-7.682-1.318C3 18.364 3 16.242 3 12Z"></path></symbol><symbol viewBox="0 0 24 24" id="mynaui-font-danger-waves"><path d="M12 7.25v5.5M11.995 16h.01M9.833 4.08c.55-.47.826-.704 1.114-.841a2.442 2.442 0 0 1 2.106 0c.288.137.563.372 1.114.841a3.132 3.132 0 0 0 1.9.788c.722.057 1.083.086 1.384.192a2.442 2.442 0 0 1 1.489 1.49c.106.3.135.66.192 1.382a3.13 3.13 0 0 0 .788 1.901c.47.55.704.826.841 1.114.319.666.319 1.44 0 2.106-.137.288-.372.563-.841 1.114a3.13 3.13 0 0 0-.788 1.9c-.057.722-.086 1.083-.192 1.384a2.442 2.442 0 0 1-1.49 1.489c-.3.106-.66.135-1.382.192a3.131 3.131 0 0 0-1.901.788c-.55.47-.826.704-1.114.841a2.441 2.441 0 0 1-2.106 0c-.288-.137-.563-.372-1.114-.841a3.13 3.13 0 0 0-1.9-.788c-.722-.057-1.083-.086-1.384-.192a2.442 2.442 0 0 1-1.489-1.49c-.106-.3-.135-.66-.192-1.382a3.132 3.132 0 0 0-.788-1.901c-.47-.55-.704-.826-.841-1.114a2.442 2.442 0 0 1 0-2.106c.137-.288.372-.563.841-1.114a3.131 3.131 0 0 0 .788-1.9c.057-.722.086-1.083.192-1.384A2.442 2.442 0 0 1 6.55 5.06c.3-.106.66-.135 1.382-.192a3.131 3.131 0 0 0 1.901-.788Z"></path></symbol><symbol viewBox="0 0 24 24" id="mynaui-font-danger"><path d="M12 6v8.8m-.005 3.2h.01"></path></symbol><symbol viewBox="0 0 24 24" id="mynaui-font-delete"><path d="m13.5 10 4 4m0-4-4 4m6.095 4.5H9.298a2 2 0 0 1-1.396-.568l-5.35-5.216a1 1 0 0 1 0-1.432l5.35-5.216A2 2 0 0 1 9.298 5.5h10.297c.95 0 2.223.541 2.223 1.625v9.75c0 1.084-1.273 1.625-2.223 1.625Z"></path></symbol><symbol viewBox="0 0 24 24" id="mynaui-font-dots-circle"><circle cx="12" cy="12" r="9"></circle><path d="M8 12h.01M12 12h.01M16 12h.01"></path></symbol><symbol viewBox="0 0 24 24" id="mynaui-font-dots-square"><path d="M8 12h.01M12 12h.01M16 12h.01M3 12c0-4.243 0-6.364 1.318-7.682C5.636 3 7.758 3 12 3c4.243 0 6.364 0 7.682 1.318C21 5.636 21 7.758 21 12c0 4.243 0 6.364-1.318 7.682C18.364 21 16.242 21 12 21c-4.243 0-6.364 0-7.682-1.318C3 18.364 3 16.242 3 12Z"></path></symbol><symbol viewBox="0 0 24 24" id="mynaui-font-dots-vertical-circle"><circle cx="12" cy="12" r="9"></circle><path d="M12 8h.01M12 12h.01M12 16h.01"></path></symbol><symbol viewBox="0 0 24 24" id="mynaui-font-dots-vertical-square"><path d="M12 8h.01M12 12h.01M12 16h.01M3 12c0-4.243 0-6.364 1.318-7.682C5.636 3 7.758 3 12 3c4.243 0 6.364 0 7.682 1.318C21 5.636 21 7.758 21 12c0 4.243 0 6.364-1.318 7.682C18.364 21 16.242 21 12 21c-4.243 0-6.364 0-7.682-1.318C3 18.364 3 16.242 3 12Z"></path></symbol><symbol viewBox="0 0 24 24" id="mynaui-font-dots-vertical-waves"><path d="M12 8h.01M12 12h.01M12 16h.01M9.833 4.08c.55-.47.826-.704 1.114-.841a2.442 2.442 0 0 1 2.106 0c.288.137.563.372 1.114.841a3.132 3.132 0 0 0 1.9.788c.722.057 1.083.086 1.384.192a2.442 2.442 0 0 1 1.489 1.49c.106.3.135.66.192 1.382a3.13 3.13 0 0 0 .788 1.901c.47.55.704.826.841 1.114.319.666.319 1.44 0 2.106-.137.288-.372.563-.841 1.114a3.13 3.13 0 0 0-.788 1.9c-.057.722-.086 1.083-.192 1.384a2.442 2.442 0 0 1-1.49 1.489c-.3.106-.66.135-1.382.192a3.131 3.131 0 0 0-1.901.788c-.55.47-.826.704-1.114.841a2.441 2.441 0 0 1-2.106 0c-.288-.137-.563-.372-1.114-.841a3.13 3.13 0 0 0-1.9-.788c-.722-.057-1.083-.086-1.384-.192a2.442 2.442 0 0 1-1.489-1.49c-.106-.3-.135-.66-.192-1.382a3.132 3.132 0 0 0-.788-1.901c-.47-.55-.704-.826-.841-1.114a2.442 2.442 0 0 1 0-2.106c.137-.288.372-.563.841-1.114a3.131 3.131 0 0 0 .788-1.9c.057-.722.086-1.083.192-1.384A2.442 2.442 0 0 1 6.55 5.06c.3-.106.66-.135 1.382-.192a3.131 3.131 0 0 0 1.901-.788Z"></path></symbol><symbol viewBox="0 0 24 24" id="mynaui-font-dots-vertical"><path d="M12 8h.01M12 12h.01M12 16h.01"></path></symbol><symbol viewBox="0 0 24 24" id="mynaui-font-dots-waves"><path d="M8 12h.01M12 12h.01M16 12h.01M9.833 4.08c.55-.47.826-.704 1.114-.841a2.442 2.442 0 0 1 2.106 0c.288.137.563.372 1.114.841a3.132 3.132 0 0 0 1.9.788c.722.057 1.083.086 1.384.192a2.442 2.442 0 0 1 1.489 1.49c.106.3.135.66.192 1.382a3.13 3.13 0 0 0 .788 1.901c.47.55.704.826.841 1.114.319.666.319 1.44 0 2.106-.137.288-.372.563-.841 1.114a3.13 3.13 0 0 0-.788 1.9c-.057.722-.086 1.083-.192 1.384a2.442 2.442 0 0 1-1.49 1.489c-.3.106-.66.135-1.382.192a3.131 3.131 0 0 0-1.901.788c-.55.47-.826.704-1.114.841a2.441 2.441 0 0 1-2.106 0c-.288-.137-.563-.372-1.114-.841a3.13 3.13 0 0 0-1.9-.788c-.722-.057-1.083-.086-1.384-.192a2.442 2.442 0 0 1-1.489-1.49c-.106-.3-.135-.66-.192-1.382a3.132 3.132 0 0 0-.788-1.901c-.47-.55-.704-.826-.841-1.114a2.442 2.442 0 0 1 0-2.106c.137-.288.372-.563.841-1.114a3.131 3.131 0 0 0 .788-1.9c.057-.722.086-1.083.192-1.384A2.442 2.442 0 0 1 6.55 5.06c.3-.106.66-.135 1.382-.192a3.131 3.131 0 0 0 1.901-.788Z"></path></symbol><symbol viewBox="0 0 24 24" id="mynaui-font-dots"><path d="M8 12h.01M12 12h.01M16 12h.01"></path></symbol><symbol viewBox="0 0 24 24" id="mynaui-font-download"><path d="M4 16.004V17a3 3 0 0 0 3 3h10a3 3 0 0 0 3-3v-1M12 4.5v11m3.5-3.5L12 15.5 8.5 12"></path></symbol><symbol viewBox="0 0 24 24" id="mynaui-font-file-minus"><path d="M9.98 4H8a2 2 0 0 0-2 2v12a2 2 0 0 0 2 2h8a2 2 0 0 0 2-2v-6M9.98 4C11.085 4 12 4.895 12 6v2a2 2 0 0 0 2 2h2a2 2 0 0 1 2 2M9.98 4C13.26 4 18 8.764 18 12m-8 4h4"></path></symbol><symbol viewBox="0 0 24 24" id="mynaui-font-file-plus"><path d="M9.98 4H8a2 2 0 0 0-2 2v12a2 2 0 0 0 2 2h8a2 2 0 0 0 2-2v-6M9.98 4C11.085 4 12 4.895 12 6v2a2 2 0 0 0 2 2h2a2 2 0 0 1 2 2M9.98 4C13.26 4 18 8.764 18 12m-8 3.25h4m-2-2v4"></path></symbol><symbol viewBox="0 0 24 24" id="mynaui-font-file-text"><path d="M9.98 4H8a2 2 0 0 0-2 2v12a2 2 0 0 0 2 2h8a2 2 0 0 0 2-2v-6M9.98 4C11.085 4 12 4.895 12 6v2a2 2 0 0 0 2 2h2a2 2 0 0 1 2 2M9.98 4C13.26 4 18 8.764 18 12m-9 4.5h6m-6-3h4"></path></symbol><symbol viewBox="0 0 24 24" id="mynaui-font-file"><path d="M9.98 4H8a2 2 0 0 0-2 2v12a2 2 0 0 0 2 2h8a2 2 0 0 0 2-2v-6M9.98 4C11.085 4 12 4.895 12 6v2a2 2 0 0 0 2 2h2a2 2 0 0 1 2 2M9.98 4C13.26 4 18 8.764 18 12"></path></symbol><symbol viewBox="0 0 24 24" id="mynaui-font-filter-one"><path d="M10.046 17.676v-3.918c0-.554 0-.832-.05-1.1a2.93 2.93 0 0 0-.219-.686c-.114-.247-.274-.474-.595-.926L5.935 6.467c-.566-.797-.849-1.196-.836-1.529a.977.977 0 0 1 .38-.735C5.743 4 6.232 4 7.21 4h9.581c.978 0 1.467 0 1.73.203a.97.97 0 0 1 .38.735c.014.333-.27.732-.835 1.53l-3.247 4.578c-.32.452-.481.679-.595.926a2.93 2.93 0 0 0-.22.687c-.05.267-.05.544-.05 1.1v5.871m-3.907-1.954c1.654-.732 3.908-.296 3.908 1.954m-3.908-1.954c-.033 2.235 2.262 2.792 3.908 1.954"></path></symbol><symbol viewBox="0 0 24 24" id="mynaui-font-filter"><path d="M4.5 7h15M7 12h10m-7 5h4"></path></symbol><symbol viewBox="0 0 24 24" id="mynaui-font-flag"><path d="M5 3.5v1.333m0 0v8.334m0-8.334c2.46-.625 4.534-1.188 6.95.039 2.455 1.246 4.527.583 7.046-.02-.17 1.598-.752 2.937-.746 4.284.006 1.269.588 2.545.75 4.05-2.52.601-4.594 1.266-7.05.019-2.416-1.227-4.49-.664-6.95-.038M5 20.5v-7.333"></path></symbol><symbol viewBox="0 0 24 24" id="mynaui-font-folder-check"><path d="M3 6a2 2 0 0 1 2-2h1.745a2 2 0 0 1 1.322.5l2.272 2a2 2 0 0 0 1.322.5H19a2 2 0 0 1 2 2v9a2 2 0 0 1-2 2H5a2 2 0 0 1-2-2V6Z"></path><path d="m10.258 13.242 1.034 1.181c.095.109.266.1.35-.016l2.1-2.907"></path></symbol><symbol viewBox="0 0 24 24" id="mynaui-font-folder-heart"><path d="M3 6a2 2 0 0 1 2-2h1.745a2 2 0 0 1 1.322.5l2.272 2a2 2 0 0 0 1.322.5H19a2 2 0 0 1 2 2v9a2 2 0 0 1-2 2H5a2 2 0 0 1-2-2V6Z"></path><path d="M8.62 12.024c0 1.972 3.38 4.226 3.38 4.226s3.38-2.254 3.38-4.226c0-1.88-2.55-2.454-3.38-.798-.814-1.625-3.38-1.053-3.38.798Z"></path></symbol><symbol viewBox="0 0 24 24" id="mynaui-font-folder-minus"><path d="M3 6a2 2 0 0 1 2-2h1.745a2 2 0 0 1 1.322.5l2.272 2a2 2 0 0 0 1.322.5H19a2 2 0 0 1 2 2v9a2 2 0 0 1-2 2H5a2 2 0 0 1-2-2V6Zm7 7h4"></path></symbol><symbol viewBox="0 0 24 24" id="mynaui-font-folder-one"><path d="M11.661 7H19a2 2 0 0 1 2 2v9a2 2 0 0 1-2 2H5a2 2 0 0 1-2-2V7m8.661 0a2 2 0 0 1-1.322-.5l-2.272-2A2 2 0 0 0 6.745 4H5a2 2 0 0 0-2 2v1m8.661 0H3"></path></symbol><symbol viewBox="0 0 24 24" id="mynaui-font-folder-plus"><path d="M3 6a2 2 0 0 1 2-2h1.745a2 2 0 0 1 1.322.5l2.272 2a2 2 0 0 0 1.322.5H19a2 2 0 0 1 2 2v9a2 2 0 0 1-2 2H5a2 2 0 0 1-2-2V6Zm7 7.25h4m-2-2v4"></path></symbol><symbol viewBox="0 0 24 24" id="mynaui-font-folder-two"><path d="M19 7h-7.34a2 2 0 0 1-1.322-.5l-2.272-2M19 7a2 2 0 0 1 2 2v9a2 2 0 0 1-2 2H5a2 2 0 0 1-2-2V6a2 2 0 0 1 2-2h1.745a2 2 0 0 1 1.322.5M19 7a2.5 2.5 0 0 0-2.5-2.5H8.066"></path></symbol><symbol viewBox="0 0 24 24" id="mynaui-font-folder-x"><path d="M3 6a2 2 0 0 1 2-2h1.745a2 2 0 0 1 1.322.5l2.272 2a2 2 0 0 0 1.322.5H19a2 2 0 0 1 2 2v9a2 2 0 0 1-2 2H5a2 2 0 0 1-2-2V6Zm7.5 6 2.828 2.828m0-2.828L10.5 14.828"></path></symbol><symbol viewBox="0 0 24 24" id="mynaui-font-folder"><path d="M3 6a2 2 0 0 1 2-2h1.745a2 2 0 0 1 1.322.5l2.272 2a2 2 0 0 0 1.322.5H19a2 2 0 0 1 2 2v9a2 2 0 0 1-2 2H5a2 2 0 0 1-2-2V6Z"></path></symbol><symbol viewBox="0 0 24 24" id="mynaui-font-forward-circle"><circle cx="12" cy="12" r="9"></circle><path d="M10.242 10.71c.672.547 1.008.821 1.008 1.29 0 .469-.336.743-1.008 1.29-.185.152-.37.295-.538.413a9.098 9.098 0 0 1-.49.318c-.67.407-1.006.611-1.306.385-.3-.225-.328-.697-.383-1.642A13.532 13.532 0 0 1 7.5 12c0-.235.01-.497.025-.764.055-.945.082-1.417.383-1.643.3-.225.635-.021 1.306.386.174.106.342.214.49.318.169.118.353.261.538.412Zm5.75 0c.672.546 1.008.82 1.008 1.29 0 .469-.336.743-1.008 1.29-.185.152-.37.295-.538.413a9.093 9.093 0 0 1-.49.318c-.67.407-1.006.611-1.306.385-.3-.225-.328-.697-.383-1.642A13.577 13.577 0 0 1 13.25 12c0-.235.01-.497.025-.764.055-.945.082-1.417.383-1.643.3-.225.636-.021 1.306.386.174.106.341.214.49.318.169.118.353.261.538.412Z"></path></symbol><symbol viewBox="0 0 24 24" id="mynaui-font-forward-square"><path d="M10.242 10.71c.672.547 1.008.821 1.008 1.29 0 .469-.336.743-1.008 1.29-.185.152-.37.295-.538.413a9.098 9.098 0 0 1-.49.318c-.67.407-1.006.611-1.306.385-.3-.225-.328-.697-.383-1.642A13.532 13.532 0 0 1 7.5 12c0-.235.01-.497.025-.764.055-.945.082-1.417.383-1.643.3-.225.635-.021 1.306.386.174.106.342.214.49.318.169.118.353.261.538.412Zm5.75 0c.672.546 1.008.82 1.008 1.29 0 .469-.336.743-1.008 1.29-.185.152-.37.295-.538.413a9.093 9.093 0 0 1-.49.318c-.67.407-1.006.611-1.306.385-.3-.225-.328-.697-.383-1.642A13.577 13.577 0 0 1 13.25 12c0-.235.01-.497.025-.764.055-.945.082-1.417.383-1.643.3-.225.636-.021 1.306.386.174.106.341.214.49.318.169.118.353.261.538.412Z"></path><path d="M3 12c0-4.243 0-6.364 1.318-7.682C5.636 3 7.758 3 12 3c4.243 0 6.364 0 7.682 1.318C21 5.636 21 7.758 21 12c0 4.243 0 6.364-1.318 7.682C18.364 21 16.242 21 12 21c-4.243 0-6.364 0-7.682-1.318C3 18.364 3 16.242 3 12Z"></path></symbol><symbol viewBox="0 0 24 24" id="mynaui-font-forward-waves"><path d="M10.242 10.71c.672.547 1.008.821 1.008 1.29 0 .469-.336.743-1.008 1.29-.185.152-.37.295-.538.413a9.098 9.098 0 0 1-.49.318c-.67.407-1.006.611-1.306.385-.3-.225-.328-.697-.383-1.642A13.532 13.532 0 0 1 7.5 12c0-.235.01-.497.025-.764.055-.945.082-1.417.383-1.643.3-.225.635-.021 1.306.386.174.106.342.214.49.318.169.118.353.261.538.412Zm5.75 0c.672.546 1.008.82 1.008 1.29 0 .469-.336.743-1.008 1.29-.185.152-.37.295-.538.413a9.093 9.093 0 0 1-.49.318c-.67.407-1.006.611-1.306.385-.3-.225-.328-.697-.383-1.642A13.577 13.577 0 0 1 13.25 12c0-.235.01-.497.025-.764.055-.945.082-1.417.383-1.643.3-.225.636-.021 1.306.386.174.106.341.214.49.318.169.118.353.261.538.412Z"></path><path d="M9.833 4.08c.55-.47.826-.704 1.114-.841a2.442 2.442 0 0 1 2.106 0c.288.137.563.372 1.114.841a3.132 3.132 0 0 0 1.9.788c.722.057 1.083.086 1.384.192a2.442 2.442 0 0 1 1.489 1.49c.106.3.135.66.192 1.382a3.13 3.13 0 0 0 .788 1.901c.47.55.704.826.841 1.114.319.666.319 1.44 0 2.106-.137.288-.372.563-.841 1.114a3.13 3.13 0 0 0-.788 1.9c-.057.722-.086 1.083-.192 1.384a2.442 2.442 0 0 1-1.49 1.489c-.3.106-.66.135-1.382.192a3.131 3.131 0 0 0-1.901.788c-.55.47-.826.704-1.114.841a2.441 2.441 0 0 1-2.106 0c-.288-.137-.563-.372-1.114-.841a3.13 3.13 0 0 0-1.9-.788c-.722-.057-1.083-.086-1.384-.192a2.442 2.442 0 0 1-1.489-1.49c-.106-.3-.135-.66-.192-1.382a3.132 3.132 0 0 0-.788-1.901c-.47-.55-.704-.826-.841-1.114a2.442 2.442 0 0 1 0-2.106c.137-.288.372-.563.841-1.114a3.131 3.131 0 0 0 .788-1.9c.057-.722.086-1.083.192-1.384A2.442 2.442 0 0 1 6.55 5.06c.3-.106.66-.135 1.382-.192a3.131 3.131 0 0 0 1.901-.788Z"></path></symbol><symbol viewBox="0 0 24 24" id="mynaui-font-forward"><path d="M9.985 9.419C11.328 10.515 12 11.063 12 12s-.672 1.485-2.015 2.582c-.371.302-.74.587-1.077.824a18.14 18.14 0 0 1-.98.635c-1.341.816-2.011 1.223-2.612.772-.602-.451-.656-1.396-.766-3.285A27.07 27.07 0 0 1 4.5 12c0-.47.02-.993.05-1.528.11-1.89.164-2.834.766-3.285.6-.451 1.27-.044 2.611.771.348.212.684.427.98.636.339.237.707.522 1.078.825Zm7.5 0C18.828 10.515 19.5 11.063 19.5 12s-.672 1.485-2.015 2.582c-.371.302-.74.587-1.077.824-.297.209-.633.424-.98.635-1.341.816-2.011 1.223-2.613.772-.6-.451-.655-1.396-.764-3.285A27.07 27.07 0 0 1 12 12c0-.47.02-.993.05-1.528.11-1.89.164-2.834.765-3.285.602-.451 1.272-.044 2.612.771.348.212.684.427.98.636.339.237.707.522 1.078.825Z"></path></symbol><symbol viewBox="0 0 24 24" id="mynaui-font-globe"><path d="M12 20.5a8.5 8.5 0 0 0 0-17m0 17a8.5 8.5 0 0 1 0-17m0 17c2.608 0 3.722-3.806 3.722-8.5S14.608 3.5 12 3.5m0 17c-2.608 0-3.722-3.806-3.722-8.5S9.392 3.5 12 3.5M3.972 9.167h16.056M3.972 14.833h16.056"></path></symbol><symbol viewBox="0 0 24 24" id="mynaui-font-grid"><path d="M3 6.75c0-1.768 0-2.652.55-3.2C4.097 3 4.981 3 6.75 3c1.768 0 2.652 0 3.2.55.55.548.55 1.432.55 3.2 0 1.768 0 2.652-.55 3.2-.548.55-1.432.55-3.2.55-1.768 0-2.652 0-3.2-.55C3 9.403 3 8.519 3 6.75Zm0 10.507c0-1.768 0-2.652.55-3.2.548-.55 1.432-.55 3.2-.55 1.768 0 2.652 0 3.2.55.55.548.55 1.432.55 3.2 0 1.768 0 2.652-.55 3.2-.548.55-1.432.55-3.2.55-1.768 0-2.652 0-3.2-.55C3 19.91 3 19.026 3 17.258ZM13.5 6.75c0-1.768 0-2.652.55-3.2.548-.55 1.432-.55 3.2-.55 1.768 0 2.652 0 3.2.55.55.548.55 1.432.55 3.2 0 1.768 0 2.652-.55 3.2-.548.55-1.432.55-3.2.55-1.768 0-2.652 0-3.2-.55-.55-.548-.55-1.432-.55-3.2Zm0 10.507c0-1.768 0-2.652.55-3.2.548-.55 1.432-.55 3.2-.55 1.768 0 2.652 0 3.2.55.55.548.55 1.432.55 3.2 0 1.768 0 2.652-.55 3.2-.548.55-1.432.55-3.2.55-1.768 0-2.652 0-3.2-.55-.55-.548-.55-1.432-.55-3.2Z"></path></symbol><symbol viewBox="0 0 24 24" id="mynaui-font-hash-circle"><circle cx="12" cy="12" r="9"></circle><path d="M11.116 8 9.68 16m4.64-8-1.436 8m3.398-5.557H7.718m8.564 3.114H7.718"></path></symbol><symbol viewBox="0 0 24 24" id="mynaui-font-hash-square"><path d="M11.116 8 9.68 16m4.64-8-1.436 8m3.398-5.557H7.718m8.564 3.114H7.718M3 12c0-4.243 0-6.364 1.318-7.682C5.636 3 7.758 3 12 3c4.243 0 6.364 0 7.682 1.318C21 5.636 21 7.758 21 12c0 4.243 0 6.364-1.318 7.682C18.364 21 16.242 21 12 21c-4.243 0-6.364 0-7.682-1.318C3 18.364 3 16.242 3 12Z"></path></symbol><symbol viewBox="0 0 24 24" id="mynaui-font-hash-waves"><path d="M11.116 8 9.68 16m4.64-8-1.436 8m3.398-5.557H7.718m8.564 3.114H7.718M9.833 4.08c.55-.47.826-.704 1.114-.841a2.442 2.442 0 0 1 2.106 0c.288.137.563.372 1.114.841a3.132 3.132 0 0 0 1.9.788c.722.057 1.083.086 1.384.192a2.442 2.442 0 0 1 1.489 1.49c.106.3.135.66.192 1.382a3.13 3.13 0 0 0 .788 1.901c.47.55.704.826.841 1.114.319.666.319 1.44 0 2.106-.137.288-.372.563-.841 1.114a3.13 3.13 0 0 0-.788 1.9c-.057.722-.086 1.083-.192 1.384a2.442 2.442 0 0 1-1.49 1.489c-.3.106-.66.135-1.382.192a3.131 3.131 0 0 0-1.901.788c-.55.47-.826.704-1.114.841a2.441 2.441 0 0 1-2.106 0c-.288-.137-.563-.372-1.114-.841a3.13 3.13 0 0 0-1.9-.788c-.722-.057-1.083-.086-1.384-.192a2.442 2.442 0 0 1-1.489-1.49c-.106-.3-.135-.66-.192-1.382a3.132 3.132 0 0 0-.788-1.901c-.47-.55-.704-.826-.841-1.114a2.442 2.442 0 0 1 0-2.106c.137-.288.372-.563.841-1.114a3.131 3.131 0 0 0 .788-1.9c.057-.722.086-1.083.192-1.384A2.442 2.442 0 0 1 6.55 5.06c.3-.106.66-.135 1.382-.192a3.131 3.131 0 0 0 1.901-.788Z"></path></symbol><symbol viewBox="0 0 24 24" id="mynaui-font-hash"><path d="m10.342 4.5-2.693 15m8.701-15-2.692 15m6.37-10.42H3.972m16.056 5.84H3.972"></path></symbol><symbol viewBox="0 0 24 24" id="mynaui-font-heading-one"><path d="M3.75 4.5v15m9.5-15v15M3.75 12h9.5m3.988-.508L19.625 9v10.492"></path></symbol><symbol viewBox="0 0 24 24" id="mynaui-font-heading-three"><path d="M3.75 4.5v15m9.5-15v15M3.75 12h9.5M16 9.5h5L17.5 14c2 0 3.5 1 3.5 3 0 2.74-3.409 3.2-5 1.45"></path></symbol><symbol viewBox="0 0 24 24" id="mynaui-font-heading-two"><path d="M16 11.92c0-3.226 5-3.226 5 0 0 2.85-5 4.966-5 7.5h5M3.75 4.5v15m9.5-15v15M3.75 12h9.5"></path></symbol><symbol viewBox="0 0 24 24" id="mynaui-font-heading"><path d="M7.25 4.5v15m9.5-15v15M7.25 12h9.5"></path></symbol><symbol viewBox="0 0 24 24" id="mynaui-font-heart-circle"><circle cx="12" cy="12" r="9"></circle><path d="M10.291 9.5a1.78 1.78 0 0 0-1.781 1.781c0 1.969 3.375 4.219 3.375 4.219s3.375-2.25 3.375-4.219c0-1.219-.797-1.781-1.781-1.781-.698 0-1.302.4-1.594.985a1.781 1.781 0 0 0-1.594-.985Z"></path></symbol><symbol viewBox="0 0 24 24" id="mynaui-font-heart-square"><path d="M10.291 9.5a1.78 1.78 0 0 0-1.781 1.781c0 1.969 3.375 4.219 3.375 4.219s3.375-2.25 3.375-4.219c0-1.219-.797-1.781-1.781-1.781-.698 0-1.302.4-1.594.985a1.781 1.781 0 0 0-1.594-.985Z"></path><path d="M3 12c0-4.243 0-6.364 1.318-7.682C5.636 3 7.758 3 12 3c4.243 0 6.364 0 7.682 1.318C21 5.636 21 7.758 21 12c0 4.243 0 6.364-1.318 7.682C18.364 21 16.242 21 12 21c-4.243 0-6.364 0-7.682-1.318C3 18.364 3 16.242 3 12Z"></path></symbol><symbol viewBox="0 0 24 24" id="mynaui-font-heart-waves"><path d="M10.291 9.5a1.78 1.78 0 0 0-1.781 1.781c0 1.969 3.375 4.219 3.375 4.219s3.375-2.25 3.375-4.219c0-1.219-.797-1.781-1.781-1.781-.698 0-1.302.4-1.594.985a1.781 1.781 0 0 0-1.594-.985Z"></path><path d="M9.833 4.08c.55-.47.826-.704 1.114-.841a2.442 2.442 0 0 1 2.106 0c.288.137.563.372 1.114.841a3.132 3.132 0 0 0 1.9.788c.722.057 1.083.086 1.384.192a2.442 2.442 0 0 1 1.489 1.49c.106.3.135.66.192 1.382a3.13 3.13 0 0 0 .788 1.901c.47.55.704.826.841 1.114.319.666.319 1.44 0 2.106-.137.288-.372.563-.841 1.114a3.13 3.13 0 0 0-.788 1.9c-.057.722-.086 1.083-.192 1.384a2.442 2.442 0 0 1-1.49 1.489c-.3.106-.66.135-1.382.192a3.131 3.131 0 0 0-1.901.788c-.55.47-.826.704-1.114.841a2.441 2.441 0 0 1-2.106 0c-.288-.137-.563-.372-1.114-.841a3.13 3.13 0 0 0-1.9-.788c-.722-.057-1.083-.086-1.384-.192a2.442 2.442 0 0 1-1.489-1.49c-.106-.3-.135-.66-.192-1.382a3.132 3.132 0 0 0-.788-1.901c-.47-.55-.704-.826-.841-1.114a2.442 2.442 0 0 1 0-2.106c.137-.288.372-.563.841-1.114a3.131 3.131 0 0 0 .788-1.9c.057-.722.086-1.083.192-1.384A2.442 2.442 0 0 1 6.55 5.06c.3-.106.66-.135 1.382-.192a3.131 3.131 0 0 0 1.901-.788Z"></path></symbol><symbol viewBox="0 0 24 24" id="mynaui-font-heart"><path d="M7.75 4A4.75 4.75 0 0 0 3 8.75C3 14 12 20 12 20s9-6 9-11.25C21 5.5 18.873 4 16.25 4A4.75 4.75 0 0 0 12 6.626 4.75 4.75 0 0 0 7.75 4Z"></path></symbol><symbol viewBox="0 0 24 24" id="mynaui-font-hexagon"><path d="M20 15.6V8.4c0-.316-.083-.627-.239-.9a1.79 1.79 0 0 0-.65-.658l-6.222-3.6a1.76 1.76 0 0 0-1.778 0l-6.222 3.6a1.79 1.79 0 0 0-.65.658A1.818 1.818 0 0 0 4 8.4v7.2c0 .316.083.627.239.9.156.273.38.5.65.658l6.222 3.6a1.76 1.76 0 0 0 1.778 0l6.222-3.6a1.79 1.79 0 0 0 .65-.658c.156-.273.239-.584.239-.9Z"></path></symbol><symbol viewBox="0 0 24 24" id="mynaui-font-home"><path d="M6.5 20a2 2 0 0 1-2-2V9.961A2 2 0 0 1 5.25 8.4l5.5-4.4a2 2 0 0 1 2.5 0l5.5 4.4a2 2 0 0 1 .75 1.561V18a2 2 0 0 1-2 2h-11Z"></path><path d="M9.5 20v-4.5a2 2 0 0 1 2-2h1a2 2 0 0 1 2 2V20"></path></symbol><symbol viewBox="0 0 24 24" id="mynaui-font-inbox"><path d="M21 12h-3.93a2 2 0 0 0-1.664.89l-.812 1.22a2 2 0 0 1-1.664.89h-1.86a2 2 0 0 1-1.664-.89l-.812-1.22A2 2 0 0 0 6.93 12H3"></path><path d="M5.45 5.11 3 12v6a2 2 0 0 0 2 2h14a2 2 0 0 0 2-2v-6l-2.45-6.89A2 2 0 0 0 16.76 4H7.24a2 2 0 0 0-1.79 1.11Z"></path></symbol><symbol viewBox="0 0 24 24" id="mynaui-font-info-circle"><circle cx="12" cy="12" r="9"></circle><path d="M12 16v-5h-.5m0 5h1m-.505-8h.01"></path></symbol><symbol viewBox="0 0 24 24" id="mynaui-font-info-square"><path d="M12 16v-5h-.5m0 5h1m-.505-8h.01"></path><path d="M3 12c0-4.243 0-6.364 1.318-7.682C5.636 3 7.758 3 12 3c4.243 0 6.364 0 7.682 1.318C21 5.636 21 7.758 21 12c0 4.243 0 6.364-1.318 7.682C18.364 21 16.242 21 12 21c-4.243 0-6.364 0-7.682-1.318C3 18.364 3 16.242 3 12Z"></path></symbol><symbol viewBox="0 0 24 24" id="mynaui-font-info-waves"><path d="M12 16v-5h-.5m0 5h1m-.505-8h.01"></path><path d="M9.833 4.08c.55-.47.826-.704 1.114-.841a2.442 2.442 0 0 1 2.106 0c.288.137.563.372 1.114.841a3.132 3.132 0 0 0 1.9.788c.722.057 1.083.086 1.384.192a2.442 2.442 0 0 1 1.489 1.49c.106.3.135.66.192 1.382a3.13 3.13 0 0 0 .788 1.901c.47.55.704.826.841 1.114.319.666.319 1.44 0 2.106-.137.288-.372.563-.841 1.114a3.13 3.13 0 0 0-.788 1.9c-.057.722-.086 1.083-.192 1.384a2.442 2.442 0 0 1-1.49 1.489c-.3.106-.66.135-1.382.192a3.131 3.131 0 0 0-1.901.788c-.55.47-.826.704-1.114.841a2.441 2.441 0 0 1-2.106 0c-.288-.137-.563-.372-1.114-.841a3.13 3.13 0 0 0-1.9-.788c-.722-.057-1.083-.086-1.384-.192a2.442 2.442 0 0 1-1.489-1.49c-.106-.3-.135-.66-.192-1.382a3.132 3.132 0 0 0-.788-1.901c-.47-.55-.704-.826-.841-1.114a2.442 2.442 0 0 1 0-2.106c.137-.288.372-.563.841-1.114a3.131 3.131 0 0 0 .788-1.9c.057-.722.086-1.083.192-1.384A2.442 2.442 0 0 1 6.55 5.06c.3-.106.66-.135 1.382-.192a3.131 3.131 0 0 0 1.901-.788Z"></path></symbol><symbol viewBox="0 0 24 24" id="mynaui-font-info"><path d="M12 17.5v-8h-.5m0 8h1m-.505-11h.01"></path></symbol><symbol viewBox="0 0 24 24" id="mynaui-font-keyboard"><path d="M2 11c0-2.828 0-4.243.879-5.121C3.757 5 5.172 5 8 5h8c2.828 0 4.243 0 5.121.879C22 6.757 22 8.172 22 11v2c0 2.828 0 4.243-.879 5.121C20.243 19 18.828 19 16 19H8c-2.828 0-4.243 0-5.121-.879C2 17.243 2 15.828 2 13v-2Zm5 5h10M5 9h4m2 0h4m2 0h2M5 12h2m2 0h4m2 0h4"></path></symbol><symbol viewBox="0 0 24 24" id="mynaui-font-label"><path d="m11.485 20.175-7.281-7.281a2 2 0 0 1-.586-1.39l-.094-7.47A1 1 0 0 1 4.536 3.02l7.471.095a2 2 0 0 1 1.39.585l7.28 7.282c.672.671 1.19 1.954.423 2.72l-6.894 6.895c-.767.766-2.05.249-2.72-.423ZM8.019 7.552l-.707-.707"></path></symbol><symbol viewBox="0 0 24 24" id="mynaui-font-layout"><path d="M3 12c0-4.243 0-6.364 1.318-7.682C5.636 3 7.758 3 12 3c4.243 0 6.364 0 7.682 1.318C21 5.636 21 7.758 21 12c0 4.243 0 6.364-1.318 7.682C18.364 21 16.242 21 12 21c-4.243 0-6.364 0-7.682-1.318C3 18.364 3 16.242 3 12Zm6-2v10M20.5 9.5h-17"></path></symbol><symbol viewBox="0 0 24 24" id="mynaui-font-link"><path d="M9 16.5c-3.317 0-7-.493-7-4.5 0-4.012 3.682-4.5 7-4.5M9 12h6m0-4.5c3.269 0 7 .679 7 4.5 0 3.821-3.731 4.5-7 4.5"></path></symbol><symbol viewBox="0 0 24 24" id="mynaui-font-location"><path d="M12.547 20.62a.932.932 0 0 1-1.094 0C6.74 17.216 1.735 10.215 6.793 5.157a7.364 7.364 0 0 1 10.414 0c5.058 5.058.054 12.059-4.66 15.463Z"></path><path d="M12 11.91a2 2 0 1 0 0-4.001 2 2 0 0 0 0 4Z"></path></symbol><symbol viewBox="0 0 24 24" id="mynaui-font-lock-keyhole"><path d="M8 10V8c0-2.761 1.239-5 4-5s4 2.239 4 5v2M3.5 17.8v-4.6c0-1.12 0-1.68.218-2.107a2 2 0 0 1 .874-.875c.428-.217.988-.217 2.108-.217h10.6c1.12 0 1.68 0 2.108.217a2 2 0 0 1 .874.874c.218.428.218.988.218 2.108v4.6c0 1.12 0 1.68-.218 2.108a2 2 0 0 1-.874.874C18.98 21 18.42 21 17.3 21H6.7c-1.12 0-1.68 0-2.108-.218a2 2 0 0 1-.874-.874C3.5 19.481 3.5 18.921 3.5 17.8ZM16 14v3"></path></symbol><symbol viewBox="0 0 24 24" id="mynaui-font-lock-open-keyhole"><path d="M8 10V8c0-2.761 1.239-5 4-5 2.094 0 3.313 1.288 3.78 3.114M3.5 17.8v-4.6c0-1.12 0-1.68.218-2.107a2 2 0 0 1 .874-.875c.428-.217.988-.217 2.108-.217h10.6c1.12 0 1.68 0 2.108.217a2 2 0 0 1 .874.874c.218.428.218.988.218 2.108v4.6c0 1.12 0 1.68-.218 2.108a2 2 0 0 1-.874.874C18.98 21 18.42 21 17.3 21H6.7c-1.12 0-1.68 0-2.108-.218a2 2 0 0 1-.874-.874C3.5 19.481 3.5 18.921 3.5 17.8ZM16 14v3"></path></symbol><symbol viewBox="0 0 24 24" id="mynaui-font-lock-open"><path d="M8 10V8c0-2.761 1.239-5 4-5 2.094 0 3.313 1.288 3.78 3.114M3.5 17.8v-4.6c0-1.12 0-1.68.218-2.107a2 2 0 0 1 .874-.875c.428-.217.988-.217 2.108-.217h10.6c1.12 0 1.68 0 2.108.217a2 2 0 0 1 .874.874c.218.428.218.988.218 2.108v4.6c0 1.12 0 1.68-.218 2.108a2 2 0 0 1-.874.874C18.98 21 18.42 21 17.3 21H6.7c-1.12 0-1.68 0-2.108-.218a2 2 0 0 1-.874-.874C3.5 19.481 3.5 18.921 3.5 17.8Z"></path></symbol><symbol viewBox="0 0 24 24" id="mynaui-font-lock"><path d="M8 10V8c0-2.761 1.239-5 4-5s4 2.239 4 5v2M3.5 17.8v-4.6c0-1.12 0-1.68.218-2.107a2 2 0 0 1 .874-.875c.428-.217.988-.217 2.108-.217h10.6c1.12 0 1.68 0 2.108.217a2 2 0 0 1 .874.874c.218.428.218.988.218 2.108v4.6c0 1.12 0 1.68-.218 2.108a2 2 0 0 1-.874.874C18.98 21 18.42 21 17.3 21H6.7c-1.12 0-1.68 0-2.108-.218a2 2 0 0 1-.874-.874C3.5 19.481 3.5 18.921 3.5 17.8Z"></path></symbol><symbol viewBox="0 0 24 24" id="mynaui-font-login"><path d="M13.496 19.5H6.5c-1.105 0-2-.96-2-2.143V6.643c0-1.184.895-2.143 2-2.143h7"></path><path d="M13 15.5 9.5 12 13 8.5m6.5 3.496h-10"></path></symbol><symbol viewBox="0 0 24 24" id="mynaui-font-logout"><path d="M13.496 4.5H6.5c-1.105 0-2 .96-2 2.143v10.714c0 1.184.895 2.143 2 2.143h7m2.5-4 3.5-3.5L16 8.5m-6.5 3.496h10"></path></symbol><symbol viewBox="0 0 24 24" id="mynaui-font-maximize-one"><path d="M14 4h6v6M10 20H4v-6M20 4l-6 6M4 20l6-6"></path></symbol><symbol viewBox="0 0 24 24" id="mynaui-font-maximize"><path d="M3.01 9.75c.04-2.79.247-4.371 1.308-5.432C5.379 3.258 6.96 3.05 9.75 3.01M3.01 14.26c.04 2.79.247 4.37 1.308 5.432C5.379 20.752 6.96 20.96 9.75 21M21 9.75c-.04-2.79-.247-4.371-1.308-5.432-1.061-1.06-2.643-1.268-5.432-1.308M21 14.26c-.04 2.79-.247 4.37-1.308 5.432-1.061 1.06-2.643 1.268-5.432 1.308"></path></symbol><symbol viewBox="0 0 24 24" id="mynaui-font-menu"><path d="M4.5 6.5h15M4.5 12h15m-15 5.5h15"></path></symbol><symbol viewBox="0 0 24 24" id="mynaui-font-minimize-one"><path d="M20 10h-6V4M4 14h6v6M20 4l-6 6m-4 4-6 6"></path></symbol><symbol viewBox="0 0 24 24" id="mynaui-font-minimize"><path d="M9.75 3.01c-.04 2.79-.247 4.37-1.308 5.432C7.38 9.502 5.799 9.71 3.01 9.75M9.75 21c-.04-2.79-.247-4.371-1.308-5.432C7.38 14.508 5.799 14.3 3.01 14.26M14.26 3.01c.04 2.79.247 4.37 1.308 5.432C16.629 9.502 18.211 9.71 21 9.75M14.26 21c.04-2.79.247-4.371 1.308-5.432 1.061-1.06 2.643-1.268 5.432-1.308"></path></symbol><symbol viewBox="0 0 24 24" id="mynaui-font-minus-circle"><circle cx="12" cy="12" r="9"></circle><path d="M8.667 12h7"></path></symbol><symbol viewBox="0 0 24 24" id="mynaui-font-minus-square"><path d="M8.667 12h7M3 12c0-4.243 0-6.364 1.318-7.682C5.636 3 7.758 3 12 3c4.243 0 6.364 0 7.682 1.318C21 5.636 21 7.758 21 12c0 4.243 0 6.364-1.318 7.682C18.364 21 16.242 21 12 21c-4.243 0-6.364 0-7.682-1.318C3 18.364 3 16.242 3 12Z"></path></symbol><symbol viewBox="0 0 24 24" id="mynaui-font-minus-waves"><path d="M8.667 12h7M9.833 4.08c.55-.47.826-.704 1.114-.841a2.442 2.442 0 0 1 2.106 0c.288.137.563.372 1.114.841a3.132 3.132 0 0 0 1.9.788c.722.057 1.083.086 1.384.192a2.442 2.442 0 0 1 1.489 1.49c.106.3.135.66.192 1.382a3.13 3.13 0 0 0 .788 1.901c.47.55.704.826.841 1.114.319.666.319 1.44 0 2.106-.137.288-.372.563-.841 1.114a3.13 3.13 0 0 0-.788 1.9c-.057.722-.086 1.083-.192 1.384a2.442 2.442 0 0 1-1.49 1.489c-.3.106-.66.135-1.382.192a3.131 3.131 0 0 0-1.901.788c-.55.47-.826.704-1.114.841a2.441 2.441 0 0 1-2.106 0c-.288-.137-.563-.372-1.114-.841a3.13 3.13 0 0 0-1.9-.788c-.722-.057-1.083-.086-1.384-.192a2.442 2.442 0 0 1-1.489-1.49c-.106-.3-.135-.66-.192-1.382a3.132 3.132 0 0 0-.788-1.901c-.47-.55-.704-.826-.841-1.114a2.442 2.442 0 0 1 0-2.106c.137-.288.372-.563.841-1.114a3.131 3.131 0 0 0 .788-1.9c.057-.722.086-1.083.192-1.384A2.442 2.442 0 0 1 6.55 5.06c.3-.106.66-.135 1.382-.192a3.131 3.131 0 0 0 1.901-.788Z"></path></symbol><symbol viewBox="0 0 24 24" id="mynaui-font-minus"><path d="M5 12h14"></path></symbol><symbol viewBox="0 0 24 24" id="mynaui-font-mobile"><path d="M16.286 3H7.714C6.768 3 6 3.806 6 4.8v14.4c0 .994.768 1.8 1.714 1.8h8.572c.947 0 1.714-.806 1.714-1.8V4.8c0-.994-.767-1.8-1.714-1.8ZM10.5 6h3"></path></symbol><symbol viewBox="0 0 24 24" id="mynaui-font-move"><path d="M5.7 9.3 3 12l2.7 2.7m3.6-9L12 3l2.7 2.7m0 12.6L12 21l-2.7-2.7m9-9L21 12l-2.7 2.7M3 12h18m-9-9v18"></path></symbol><symbol viewBox="0 0 24 24" id="mynaui-font-myna"><path d="m9.2 21 8.852-8.276a.288.288 0 0 0 0-.42l-4.227-3.952c-2.202-2.292-5.785-2.292-8.004 0L3 10.989"></path><path d="M3 12c0-4.243 0-6.364 1.318-7.682C5.636 3 7.758 3 12 3c4.243 0 6.364 0 7.682 1.318C21 5.636 21 7.758 21 12c0 4.243 0 6.364-1.318 7.682C18.364 21 16.242 21 12 21c-4.243 0-6.364 0-7.682-1.318C3 18.364 3 16.242 3 12Z"></path></symbol><symbol viewBox="0 0 24 24" id="mynaui-font-notification"><path d="M20.99 10.75c.01.676.01.423.01 1.25 0 4.243 0 6.364-1.318 7.682C18.364 21 16.242 21 12 21c-4.243 0-6.364 0-7.682-1.318C3 18.364 3 16.242 3 12c0-4.243 0-6.364 1.318-7.682C5.636 3 7.758 3 12 3c.827 0 .574 0 1.25.01"></path><circle cx="18.25" cy="5.75" r="2.75"></circle></symbol><symbol viewBox="0 0 24 24" id="mynaui-font-pause-circle"><circle cx="12" cy="12" r="9"></circle><path d="M10 9v6m4-6v6"></path></symbol><symbol viewBox="0 0 24 24" id="mynaui-font-pause-square"><path d="M10 9v6m4-6v6M3 12c0-4.243 0-6.364 1.318-7.682C5.636 3 7.758 3 12 3c4.243 0 6.364 0 7.682 1.318C21 5.636 21 7.758 21 12c0 4.243 0 6.364-1.318 7.682C18.364 21 16.242 21 12 21c-4.243 0-6.364 0-7.682-1.318C3 18.364 3 16.242 3 12Z"></path></symbol><symbol viewBox="0 0 24 24" id="mynaui-font-pause-waves"><path d="M10 9v6m4-6v6M9.833 4.08c.55-.47.826-.704 1.114-.841a2.442 2.442 0 0 1 2.106 0c.288.137.563.372 1.114.841a3.132 3.132 0 0 0 1.9.788c.722.057 1.083.086 1.384.192a2.442 2.442 0 0 1 1.489 1.49c.106.3.135.66.192 1.382a3.13 3.13 0 0 0 .788 1.901c.47.55.704.826.841 1.114.319.666.319 1.44 0 2.106-.137.288-.372.563-.841 1.114a3.13 3.13 0 0 0-.788 1.9c-.057.722-.086 1.083-.192 1.384a2.442 2.442 0 0 1-1.49 1.489c-.3.106-.66.135-1.382.192a3.131 3.131 0 0 0-1.901.788c-.55.47-.826.704-1.114.841a2.441 2.441 0 0 1-2.106 0c-.288-.137-.563-.372-1.114-.841a3.13 3.13 0 0 0-1.9-.788c-.722-.057-1.083-.086-1.384-.192a2.442 2.442 0 0 1-1.489-1.49c-.106-.3-.135-.66-.192-1.382a3.132 3.132 0 0 0-.788-1.901c-.47-.55-.704-.826-.841-1.114a2.442 2.442 0 0 1 0-2.106c.137-.288.372-.563.841-1.114a3.131 3.131 0 0 0 .788-1.9c.057-.722.086-1.083.192-1.384A2.442 2.442 0 0 1 6.55 5.06c.3-.106.66-.135 1.382-.192a3.131 3.131 0 0 0 1.901-.788Z"></path></symbol><symbol viewBox="0 0 24 24" id="mynaui-font-pause"><path d="M10 7v10m4-10v10"></path></symbol><symbol viewBox="0 0 24 24" id="mynaui-font-percentage-circle"><circle cx="12" cy="12" r="9"></circle><path d="m9.5 14.5 5-5m-4.51.5H10m3.99 4H14"></path></symbol><symbol viewBox="0 0 24 24" id="mynaui-font-percentage-square"><path d="m9.5 14.5 5-5m-4.51.5H10m3.99 4H14M3 12c0-4.243 0-6.364 1.318-7.682C5.636 3 7.758 3 12 3c4.243 0 6.364 0 7.682 1.318C21 5.636 21 7.758 21 12c0 4.243 0 6.364-1.318 7.682C18.364 21 16.242 21 12 21c-4.243 0-6.364 0-7.682-1.318C3 18.364 3 16.242 3 12Z"></path></symbol><symbol viewBox="0 0 24 24" id="mynaui-font-percentage-waves"><path d="m9.5 14.5 5-5m-4.51.5H10m3.99 4H14M9.833 4.08c.55-.47.826-.704 1.114-.841a2.442 2.442 0 0 1 2.106 0c.288.137.563.372 1.114.841a3.132 3.132 0 0 0 1.9.788c.722.057 1.083.086 1.384.192a2.442 2.442 0 0 1 1.489 1.49c.106.3.135.66.192 1.382a3.13 3.13 0 0 0 .788 1.901c.47.55.704.826.841 1.114.319.666.319 1.44 0 2.106-.137.288-.372.563-.841 1.114a3.13 3.13 0 0 0-.788 1.9c-.057.722-.086 1.083-.192 1.384a2.442 2.442 0 0 1-1.49 1.489c-.3.106-.66.135-1.382.192a3.131 3.131 0 0 0-1.901.788c-.55.47-.826.704-1.114.841a2.441 2.441 0 0 1-2.106 0c-.288-.137-.563-.372-1.114-.841a3.13 3.13 0 0 0-1.9-.788c-.722-.057-1.083-.086-1.384-.192a2.442 2.442 0 0 1-1.489-1.49c-.106-.3-.135-.66-.192-1.382a3.132 3.132 0 0 0-.788-1.901c-.47-.55-.704-.826-.841-1.114a2.442 2.442 0 0 1 0-2.106c.137-.288.372-.563.841-1.114a3.131 3.131 0 0 0 .788-1.9c.057-.722.086-1.083.192-1.384A2.442 2.442 0 0 1 6.55 5.06c.3-.106.66-.135 1.382-.192a3.131 3.131 0 0 0 1.901-.788Z"></path></symbol><symbol viewBox="0 0 24 24" id="mynaui-font-percentage"><path d="M6 18 18 6M8.5 8.5l-1-1m9 9-1-1"></path></symbol><symbol viewBox="0 0 24 24" id="mynaui-font-play-circle"><circle cx="12" cy="12" r="9"></circle><path d="M13.242 10.71c.672.547 1.008.821 1.008 1.29 0 .469-.336.743-1.008 1.29-.185.152-.37.295-.538.413a9.093 9.093 0 0 1-.49.318c-.67.407-1.006.611-1.306.385-.3-.225-.328-.697-.383-1.642A13.577 13.577 0 0 1 10.5 12c0-.235.01-.497.025-.764.055-.945.082-1.417.383-1.643.3-.225.636-.021 1.306.386.174.106.341.214.49.318.169.118.353.261.538.412Z"></path></symbol><symbol viewBox="0 0 24 24" id="mynaui-font-play-square"><path d="M13.242 10.71c.672.547 1.008.821 1.008 1.29 0 .469-.336.743-1.008 1.29-.185.152-.37.295-.538.413a9.093 9.093 0 0 1-.49.318c-.67.407-1.006.611-1.306.385-.3-.225-.328-.697-.383-1.642A13.577 13.577 0 0 1 10.5 12c0-.235.01-.497.025-.764.055-.945.082-1.417.383-1.643.3-.225.636-.021 1.306.386.174.106.341.214.49.318.169.118.353.261.538.412Z"></path><path d="M3 12c0-4.243 0-6.364 1.318-7.682C5.636 3 7.758 3 12 3c4.243 0 6.364 0 7.682 1.318C21 5.636 21 7.758 21 12c0 4.243 0 6.364-1.318 7.682C18.364 21 16.242 21 12 21c-4.243 0-6.364 0-7.682-1.318C3 18.364 3 16.242 3 12Z"></path></symbol><symbol viewBox="0 0 24 24" id="mynaui-font-play-waves"><path d="M13.242 10.71c.672.547 1.008.821 1.008 1.29 0 .469-.336.743-1.008 1.29-.185.152-.37.295-.538.413a9.093 9.093 0 0 1-.49.318c-.67.407-1.006.611-1.306.385-.3-.225-.328-.697-.383-1.642A13.577 13.577 0 0 1 10.5 12c0-.235.01-.497.025-.764.055-.945.082-1.417.383-1.643.3-.225.636-.021 1.306.386.174.106.341.214.49.318.169.118.353.261.538.412Z"></path><path d="M9.833 4.08c.55-.47.826-.704 1.114-.841a2.442 2.442 0 0 1 2.106 0c.288.137.563.372 1.114.841a3.132 3.132 0 0 0 1.9.788c.722.057 1.083.086 1.384.192a2.442 2.442 0 0 1 1.489 1.49c.106.3.135.66.192 1.382a3.13 3.13 0 0 0 .788 1.901c.47.55.704.826.841 1.114.319.666.319 1.44 0 2.106-.137.288-.372.563-.841 1.114a3.13 3.13 0 0 0-.788 1.9c-.057.722-.086 1.083-.192 1.384a2.442 2.442 0 0 1-1.49 1.489c-.3.106-.66.135-1.382.192a3.131 3.131 0 0 0-1.901.788c-.55.47-.826.704-1.114.841a2.441 2.441 0 0 1-2.106 0c-.288-.137-.563-.372-1.114-.841a3.13 3.13 0 0 0-1.9-.788c-.722-.057-1.083-.086-1.384-.192a2.442 2.442 0 0 1-1.489-1.49c-.106-.3-.135-.66-.192-1.382a3.132 3.132 0 0 0-.788-1.901c-.47-.55-.704-.826-.841-1.114a2.442 2.442 0 0 1 0-2.106c.137-.288.372-.563.841-1.114a3.131 3.131 0 0 0 .788-1.9c.057-.722.086-1.083.192-1.384A2.442 2.442 0 0 1 6.55 5.06c.3-.106.66-.135 1.382-.192a3.131 3.131 0 0 0 1.901-.788Z"></path></symbol><symbol viewBox="0 0 24 24" id="mynaui-font-play"><path d="M13.985 9.419C15.328 10.515 16 11.063 16 12s-.672 1.485-2.015 2.582c-.371.302-.74.587-1.077.824-.297.209-.633.424-.98.635-1.341.816-2.011 1.223-2.612.772-.602-.451-.656-1.396-.766-3.285A27.07 27.07 0 0 1 8.5 12c0-.47.02-.993.05-1.528.11-1.89.164-2.834.766-3.285.6-.451 1.27-.044 2.611.771.348.212.684.427.98.636.339.237.707.522 1.078.825Z"></path></symbol><symbol viewBox="0 0 24 24" id="mynaui-font-plus-circle"><circle cx="12" cy="12" r="9"></circle><path d="M15.5 12H12m0 0H8.5m3.5 0V8.5m0 3.5v3.5"></path></symbol><symbol viewBox="0 0 24 24" id="mynaui-font-plus-square"><path d="M15.5 12H12m0 0H8.5m3.5 0V8.5m0 3.5v3.5M3 12c0-4.243 0-6.364 1.318-7.682C5.636 3 7.758 3 12 3c4.243 0 6.364 0 7.682 1.318C21 5.636 21 7.758 21 12c0 4.243 0 6.364-1.318 7.682C18.364 21 16.242 21 12 21c-4.243 0-6.364 0-7.682-1.318C3 18.364 3 16.242 3 12Z"></path></symbol><symbol viewBox="0 0 24 24" id="mynaui-font-plus-waves"><path d="M15.5 12H12m0 0H8.5m3.5 0V8.5m0 3.5v3.5M9.833 4.08c.55-.47.826-.704 1.114-.841a2.442 2.442 0 0 1 2.106 0c.288.137.563.372 1.114.841a3.132 3.132 0 0 0 1.9.788c.722.057 1.083.086 1.384.192a2.442 2.442 0 0 1 1.489 1.49c.106.3.135.66.192 1.382a3.13 3.13 0 0 0 .788 1.901c.47.55.704.826.841 1.114.319.666.319 1.44 0 2.106-.137.288-.372.563-.841 1.114a3.13 3.13 0 0 0-.788 1.9c-.057.722-.086 1.083-.192 1.384a2.442 2.442 0 0 1-1.49 1.489c-.3.106-.66.135-1.382.192a3.131 3.131 0 0 0-1.901.788c-.55.47-.826.704-1.114.841a2.441 2.441 0 0 1-2.106 0c-.288-.137-.563-.372-1.114-.841a3.13 3.13 0 0 0-1.9-.788c-.722-.057-1.083-.086-1.384-.192a2.442 2.442 0 0 1-1.489-1.49c-.106-.3-.135-.66-.192-1.382a3.132 3.132 0 0 0-.788-1.901c-.47-.55-.704-.826-.841-1.114a2.442 2.442 0 0 1 0-2.106c.137-.288.372-.563.841-1.114a3.131 3.131 0 0 0 .788-1.9c.057-.722.086-1.083.192-1.384A2.442 2.442 0 0 1 6.55 5.06c.3-.106.66-.135 1.382-.192a3.131 3.131 0 0 0 1.901-.788Z"></path></symbol><symbol viewBox="0 0 24 24" id="mynaui-font-plus"><path d="M19 12h-7m0 0H5m7 0V5m0 7v7"></path></symbol><symbol viewBox="0 0 24 24" id="mynaui-font-question-circle"><circle cx="12" cy="12" r="9"></circle><path d="M12 13.49c0-2 2-1.5 2-3.5 0-2.654-4-2.654-4 0M12 16h.01"></path></symbol><symbol viewBox="0 0 24 24" id="mynaui-font-question-square"><path d="M12 13.49c0-2 2-1.5 2-3.5 0-2.654-4-2.654-4 0M12 16h.01"></path><path d="M3 12c0-4.243 0-6.364 1.318-7.682C5.636 3 7.758 3 12 3c4.243 0 6.364 0 7.682 1.318C21 5.636 21 7.758 21 12c0 4.243 0 6.364-1.318 7.682C18.364 21 16.242 21 12 21c-4.243 0-6.364 0-7.682-1.318C3 18.364 3 16.242 3 12Z"></path></symbol><symbol viewBox="0 0 24 24" id="mynaui-font-question-waves"><path d="M12 13.49c0-2 2-1.5 2-3.5 0-2.654-4-2.654-4 0M12 16h.01"></path><path d="M9.833 4.08c.55-.47.826-.704 1.114-.841a2.442 2.442 0 0 1 2.106 0c.288.137.563.372 1.114.841a3.132 3.132 0 0 0 1.9.788c.722.057 1.083.086 1.384.192a2.442 2.442 0 0 1 1.489 1.49c.106.3.135.66.192 1.382a3.13 3.13 0 0 0 .788 1.901c.47.55.704.826.841 1.114.319.666.319 1.44 0 2.106-.137.288-.372.563-.841 1.114a3.13 3.13 0 0 0-.788 1.9c-.057.722-.086 1.083-.192 1.384a2.442 2.442 0 0 1-1.49 1.489c-.3.106-.66.135-1.382.192a3.131 3.131 0 0 0-1.901.788c-.55.47-.826.704-1.114.841a2.441 2.441 0 0 1-2.106 0c-.288-.137-.563-.372-1.114-.841a3.13 3.13 0 0 0-1.9-.788c-.722-.057-1.083-.086-1.384-.192a2.442 2.442 0 0 1-1.489-1.49c-.106-.3-.135-.66-.192-1.382a3.132 3.132 0 0 0-.788-1.901c-.47-.55-.704-.826-.841-1.114a2.442 2.442 0 0 1 0-2.106c.137-.288.372-.563.841-1.114a3.131 3.131 0 0 0 .788-1.9c.057-.722.086-1.083.192-1.384A2.442 2.442 0 0 1 6.55 5.06c.3-.106.66-.135 1.382-.192a3.131 3.131 0 0 0 1.901-.788Z"></path></symbol><symbol viewBox="0 0 24 24" id="mynaui-font-question"><path d="M12 16.5c0-4.371 4.371-3.278 4.371-7.65 0-5.8-8.742-5.8-8.742 0m4.366 10.677h.01"></path></symbol><symbol viewBox="0 0 24 24" id="mynaui-font-radio"><path d="M12 13.5a1.5 1.5 0 1 0 0-3 1.5 1.5 0 0 0 0 3Zm-3.449 2.205a5.234 5.234 0 0 1-1.148-1.7 5.191 5.191 0 0 1 1.148-5.71M18.07 5.5a9.148 9.148 0 0 1 2.719 6.5 9.148 9.148 0 0 1-2.72 6.5M15.24 8.295a5.232 5.232 0 0 1 1.148 1.7 5.192 5.192 0 0 1-1.148 5.71M5.512 18.5A9.148 9.148 0 0 1 2.793 12c0-2.438.978-4.776 2.72-6.5"></path></symbol><symbol viewBox="0 0 24 24" id="mynaui-font-rewind-circle"><circle cx="12" cy="12" r="9"></circle><path d="M8.008 10.71C7.336 11.256 7 11.53 7 12c0 .469.336.743 1.008 1.29.185.152.37.295.538.413.148.104.316.212.49.318.67.407 1.006.611 1.306.385.3-.225.328-.697.383-1.642.015-.267.025-.53.025-.764 0-.235-.01-.497-.025-.764-.055-.945-.082-1.417-.383-1.643-.3-.225-.635-.021-1.306.386a9.074 9.074 0 0 0-.49.318 9.643 9.643 0 0 0-.538.412Zm5.75 0c-.672.547-1.008.821-1.008 1.29 0 .469.336.743 1.008 1.29.185.152.37.295.538.413.149.104.316.212.49.318.67.407 1.006.611 1.306.385.3-.225.328-.697.383-1.642.015-.267.025-.53.025-.764 0-.235-.01-.497-.025-.764-.055-.945-.082-1.417-.383-1.643-.3-.225-.635-.021-1.306.386a9.07 9.07 0 0 0-.49.318 9.67 9.67 0 0 0-.538.412Z"></path></symbol><symbol viewBox="0 0 24 24" id="mynaui-font-rewind-square"><path d="M8.008 10.71C7.336 11.256 7 11.53 7 12c0 .469.336.743 1.008 1.29.185.152.37.295.538.413.148.104.316.212.49.318.67.407 1.006.611 1.306.385.3-.225.328-.697.383-1.642.015-.267.025-.53.025-.764 0-.235-.01-.497-.025-.764-.055-.945-.082-1.417-.383-1.643-.3-.225-.635-.021-1.306.386a9.074 9.074 0 0 0-.49.318 9.643 9.643 0 0 0-.538.412Zm5.75 0c-.672.547-1.008.821-1.008 1.29 0 .469.336.743 1.008 1.29.185.152.37.295.538.413.149.104.316.212.49.318.67.407 1.006.611 1.306.385.3-.225.328-.697.383-1.642.015-.267.025-.53.025-.764 0-.235-.01-.497-.025-.764-.055-.945-.082-1.417-.383-1.643-.3-.225-.635-.021-1.306.386a9.07 9.07 0 0 0-.49.318 9.67 9.67 0 0 0-.538.412Z"></path><path d="M3 12c0-4.243 0-6.364 1.318-7.682C5.636 3 7.758 3 12 3c4.243 0 6.364 0 7.682 1.318C21 5.636 21 7.758 21 12c0 4.243 0 6.364-1.318 7.682C18.364 21 16.242 21 12 21c-4.243 0-6.364 0-7.682-1.318C3 18.364 3 16.242 3 12Z"></path></symbol><symbol viewBox="0 0 24 24" id="mynaui-font-rewind-waves"><path d="M8.008 10.71C7.336 11.256 7 11.53 7 12c0 .469.336.743 1.008 1.29.185.152.37.295.538.413.148.104.316.212.49.318.67.407 1.006.611 1.306.385.3-.225.328-.697.383-1.642.015-.267.025-.53.025-.764 0-.235-.01-.497-.025-.764-.055-.945-.082-1.417-.383-1.643-.3-.225-.635-.021-1.306.386a9.074 9.074 0 0 0-.49.318 9.643 9.643 0 0 0-.538.412Zm5.75 0c-.672.547-1.008.821-1.008 1.29 0 .469.336.743 1.008 1.29.185.152.37.295.538.413.149.104.316.212.49.318.67.407 1.006.611 1.306.385.3-.225.328-.697.383-1.642.015-.267.025-.53.025-.764 0-.235-.01-.497-.025-.764-.055-.945-.082-1.417-.383-1.643-.3-.225-.635-.021-1.306.386a9.07 9.07 0 0 0-.49.318 9.67 9.67 0 0 0-.538.412Z"></path><path d="M9.833 4.08c.55-.47.826-.704 1.114-.841a2.442 2.442 0 0 1 2.106 0c.288.137.563.372 1.114.841a3.132 3.132 0 0 0 1.9.788c.722.057 1.083.086 1.384.192a2.442 2.442 0 0 1 1.489 1.49c.106.3.135.66.192 1.382a3.13 3.13 0 0 0 .788 1.901c.47.55.704.826.841 1.114.319.666.319 1.44 0 2.106-.137.288-.372.563-.841 1.114a3.13 3.13 0 0 0-.788 1.9c-.057.722-.086 1.083-.192 1.384a2.442 2.442 0 0 1-1.49 1.489c-.3.106-.66.135-1.382.192a3.131 3.131 0 0 0-1.901.788c-.55.47-.826.704-1.114.841a2.441 2.441 0 0 1-2.106 0c-.288-.137-.563-.372-1.114-.841a3.13 3.13 0 0 0-1.9-.788c-.722-.057-1.083-.086-1.384-.192a2.442 2.442 0 0 1-1.489-1.49c-.106-.3-.135-.66-.192-1.382a3.132 3.132 0 0 0-.788-1.901c-.47-.55-.704-.826-.841-1.114a2.442 2.442 0 0 1 0-2.106c.137-.288.372-.563.841-1.114a3.131 3.131 0 0 0 .788-1.9c.057-.722.086-1.083.192-1.384A2.442 2.442 0 0 1 6.55 5.06c.3-.106.66-.135 1.382-.192a3.131 3.131 0 0 0 1.901-.788Z"></path></symbol><symbol viewBox="0 0 24 24" id="mynaui-font-rewind"><path d="M6.515 9.419C5.172 10.515 4.5 11.063 4.5 12s.672 1.485 2.015 2.582c.371.302.74.587 1.077.824.297.209.633.424.98.635 1.341.816 2.011 1.223 2.613.772.6-.451.655-1.396.764-3.285C11.98 12.993 12 12.47 12 12s-.02-.993-.05-1.528c-.11-1.89-.164-2.834-.765-3.285-.602-.451-1.272-.044-2.612.771a17.63 17.63 0 0 0-.98.636c-.339.237-.707.522-1.078.825Zm7.5 0C12.672 10.515 12 11.063 12 12s.672 1.485 2.015 2.582c.371.302.74.587 1.077.824.297.209.633.424.98.635 1.341.816 2.011 1.223 2.613.772.6-.451.655-1.396.765-3.285.03-.535.05-1.058.05-1.528s-.02-.993-.05-1.528c-.11-1.89-.164-2.834-.765-3.285-.602-.451-1.272-.044-2.612.771a17.63 17.63 0 0 0-.98.636 19.26 19.26 0 0 0-1.078.825Z"></path></symbol><symbol viewBox="0 0 24 24" id="mynaui-font-rss"><path d="M6 11.25A6.75 6.75 0 0 1 12.75 18M6 6a12 12 0 0 1 12 12M6.75 18a.75.75 0 1 0 0-1.5.75.75 0 0 0 0 1.5Z"></path></symbol><symbol viewBox="0 0 24 24" id="mynaui-font-search-minus"><path d="M17.36 17.378 19.973 20m-.889-8.419c0 4.187-3.383 7.581-7.556 7.581-4.172 0-7.555-3.394-7.555-7.58C3.973 7.393 7.356 4 11.528 4c4.173 0 7.556 3.394 7.556 7.581ZM9.5 11.75h4"></path></symbol><symbol viewBox="0 0 24 24" id="mynaui-font-search-plus"><path d="M17.36 17.378 19.973 20m-.889-8.419c0 4.187-3.383 7.581-7.556 7.581-4.172 0-7.555-3.394-7.555-7.58C3.973 7.393 7.356 4 11.528 4c4.173 0 7.556 3.394 7.556 7.581ZM9.5 11.5h4m-2-2v4"></path></symbol><symbol viewBox="0 0 24 24" id="mynaui-font-search"><path d="M17.36 17.378 19.973 20m-.889-8.419c0 4.187-3.383 7.581-7.556 7.581-4.172 0-7.555-3.394-7.555-7.58C3.973 7.393 7.356 4 11.528 4c4.173 0 7.556 3.394 7.556 7.581Z"></path></symbol><symbol viewBox="0 0 24 24" id="mynaui-font-share"><path d="M9.778 12a2.222 2.222 0 1 1-4.445 0 2.222 2.222 0 0 1 4.445 0Zm4.444-4.889-4.444 3.111m4.444 6.667-4.444-3.111m8.889 4a2.222 2.222 0 1 1-4.445 0 2.222 2.222 0 0 1 4.445 0Zm0-11.556a2.222 2.222 0 1 1-4.445 0 2.222 2.222 0 0 1 4.445 0Z"></path></symbol><symbol viewBox="0 0 24 24" id="mynaui-font-shield-check"><path d="M11.476 20.641a.894.894 0 0 0 1.048 0C14.181 19.459 19.2 15.509 19.2 11V6.183a.532.532 0 0 0-.48-.53v0c-2.05-.199-4.02-.89-5.744-2.016l-.617-.403a.657.657 0 0 0-.718 0l-.617.403a12.768 12.768 0 0 1-5.743 2.016v0a.532.532 0 0 0-.481.53V11c0 4.508 5.019 8.46 6.676 9.641Z"></path><path d="m10.258 11.242 1.034 1.181c.095.109.266.1.35-.016l2.1-2.907"></path></symbol><symbol viewBox="0 0 24 24" id="mynaui-font-shield-minus"><path d="M11.476 20.641a.894.894 0 0 0 1.048 0C14.181 19.459 19.2 15.509 19.2 11V6.183a.532.532 0 0 0-.48-.53v0c-2.05-.199-4.02-.89-5.744-2.016l-.617-.403a.657.657 0 0 0-.718 0l-.617.403a12.768 12.768 0 0 1-5.743 2.016v0a.532.532 0 0 0-.481.53V11c0 4.508 5.019 8.46 6.676 9.641ZM10 11h4"></path></symbol><symbol viewBox="0 0 24 24" id="mynaui-font-shield-plus"><path d="M11.476 20.641a.894.894 0 0 0 1.048 0C14.181 19.459 19.2 15.509 19.2 11V6.183a.532.532 0 0 0-.48-.53v0c-2.05-.199-4.02-.89-5.744-2.016l-.617-.403a.657.657 0 0 0-.718 0l-.617.403a12.768 12.768 0 0 1-5.743 2.016v0a.532.532 0 0 0-.481.53V11c0 4.508 5.019 8.46 6.676 9.641ZM10 11h4m-2-2v4"></path></symbol><symbol viewBox="0 0 24 24" id="mynaui-font-shield"><path d="M11.476 20.641a.894.894 0 0 0 1.048 0C14.181 19.459 19.2 15.509 19.2 11V6.183a.532.532 0 0 0-.48-.53v0c-2.05-.199-4.02-.89-5.744-2.016l-.617-.403a.657.657 0 0 0-.718 0l-.617.403a12.768 12.768 0 0 1-5.743 2.016v0a.532.532 0 0 0-.481.53V11c0 4.508 5.019 8.46 6.676 9.641Z"></path></symbol><symbol viewBox="0 0 24 24" id="mynaui-font-shuffle"><path d="M15.5 4h4.412v4.444M4 20 19 5m1 10.5V20h-4.5M14 14l5.294 5.333M4 4l6 6"></path></symbol><symbol viewBox="0 0 24 24" id="mynaui-font-sidebar"><path d="M9 3.5v17M3 12c0-4.243 0-6.364 1.318-7.682C5.636 3 7.758 3 12 3c4.243 0 6.364 0 7.682 1.318C21 5.636 21 7.758 21 12c0 4.243 0 6.364-1.318 7.682C18.364 21 16.242 21 12 21c-4.243 0-6.364 0-7.682-1.318C3 18.364 3 16.242 3 12Z"></path></symbol><symbol viewBox="0 0 24 24" id="mynaui-font-signal-circle"><circle cx="12" cy="12" r="9"></circle><path d="M9 13.5v-3m3 4.5V9m3 4.5v-3"></path></symbol><symbol viewBox="0 0 24 24" id="mynaui-font-signal-square"><path d="M9 13.5v-3m3 4.5V9m3 4.5v-3M3 12c0-4.243 0-6.364 1.318-7.682C5.636 3 7.758 3 12 3c4.243 0 6.364 0 7.682 1.318C21 5.636 21 7.758 21 12c0 4.243 0 6.364-1.318 7.682C18.364 21 16.242 21 12 21c-4.243 0-6.364 0-7.682-1.318C3 18.364 3 16.242 3 12Z"></path></symbol><symbol viewBox="0 0 24 24" id="mynaui-font-signal-waves"><path d="M9 13.5v-3m3 4.5V9m3 4.5v-3M9.833 4.08c.55-.47.826-.704 1.114-.841a2.442 2.442 0 0 1 2.106 0c.288.137.563.372 1.114.841a3.132 3.132 0 0 0 1.9.788c.722.057 1.083.086 1.384.192a2.442 2.442 0 0 1 1.489 1.49c.106.3.135.66.192 1.382a3.13 3.13 0 0 0 .788 1.901c.47.55.704.826.841 1.114.319.666.319 1.44 0 2.106-.137.288-.372.563-.841 1.114a3.13 3.13 0 0 0-.788 1.9c-.057.722-.086 1.083-.192 1.384a2.442 2.442 0 0 1-1.49 1.489c-.3.106-.66.135-1.382.192a3.131 3.131 0 0 0-1.901.788c-.55.47-.826.704-1.114.841a2.441 2.441 0 0 1-2.106 0c-.288-.137-.563-.372-1.114-.841a3.13 3.13 0 0 0-1.9-.788c-.722-.057-1.083-.086-1.384-.192a2.442 2.442 0 0 1-1.489-1.49c-.106-.3-.135-.66-.192-1.382a3.132 3.132 0 0 0-.788-1.901c-.47-.55-.704-.826-.841-1.114a2.442 2.442 0 0 1 0-2.106c.137-.288.372-.563.841-1.114a3.131 3.131 0 0 0 .788-1.9c.057-.722.086-1.083.192-1.384A2.442 2.442 0 0 1 6.55 5.06c.3-.106.66-.135 1.382-.192a3.131 3.131 0 0 0 1.901-.788Z"></path></symbol><symbol viewBox="0 0 24 24" id="mynaui-font-signal"><path d="M20.5 10v4M16 7v10M12 4v16M8 7v10m-4.5-7v4"></path></symbol><symbol viewBox="0 0 24 24" id="mynaui-font-slash"><circle cx="12" cy="12" r="9"></circle><path d="m9 15 6-6"></path></symbol><symbol viewBox="0 0 24 24" id="mynaui-font-sort"><path d="M4.5 7h15m-15 5h10m-10 5h4"></path></symbol><symbol viewBox="0 0 24 24" id="mynaui-font-sparkles"><path d="M14.77 20c1.123-4.132 2.486-5.421 6.23-6.546-3.934-1.18-5.16-2.612-6.23-6.545-1.124 4.132-2.488 5.421-6.232 6.545 3.93 1.18 5.163 2.622 6.231 6.546Zm-8.308-8.727c.512-2.151 1.502-3.122 3.461-3.637C7.963 7.122 6.973 6.151 6.462 4 5.972 6.058 5.047 7.098 3 7.636c1.959.515 2.95 1.486 3.462 3.637Z"></path></symbol><symbol viewBox="0 0 24 24" id="mynaui-font-spinner"><path d="M12 3v3m6.366-.366-2.12 2.12M21 12h-3m.366 6.366-2.12-2.12M12 21v-3m-6.366.366 2.12-2.12M3 12h3m-.366-6.366 2.12 2.12"></path></symbol><symbol viewBox="0 0 24 24" id="mynaui-font-square"><path d="M3 12c0-4.243 0-6.364 1.318-7.682C5.636 3 7.758 3 12 3c4.243 0 6.364 0 7.682 1.318C21 5.636 21 7.758 21 12c0 4.243 0 6.364-1.318 7.682C18.364 21 16.242 21 12 21c-4.243 0-6.364 0-7.682-1.318C3 18.364 3 16.242 3 12Z"></path></symbol><symbol viewBox="0 0 24 24" id="mynaui-font-star"><path d="M12.76 4.445a.87.87 0 0 0-1.52 0 23.989 23.989 0 0 0-1.829 4.233.975.975 0 0 1-.908.66 26.133 26.133 0 0 0-3.793.378c-.688.12-.946.905-.458 1.383a27.976 27.976 0 0 0 3.031 2.57.91.91 0 0 1 .336 1.024 23.826 23.826 0 0 0-1.012 4.38c-.09.67.629 1.145 1.253.825a25.184 25.184 0 0 0 3.538-2.198 1.02 1.02 0 0 1 1.204 0 25.34 25.34 0 0 0 3.538 2.198c.624.32 1.343-.154 1.253-.825a23.823 23.823 0 0 0-1.012-4.38.91.91 0 0 1 .335-1.024 27.97 27.97 0 0 0 3.032-2.57c.488-.478.23-1.263-.458-1.383a25.81 25.81 0 0 0-3.793-.378.975.975 0 0 1-.91-.66 23.989 23.989 0 0 0-1.828-4.233Z"></path></symbol><symbol viewBox="0 0 24 24" id="mynaui-font-stop-circle"><circle cx="12" cy="12" r="9"></circle><path d="M9.5 12c0-1.178 0-1.768.366-2.134.366-.366.956-.366 2.134-.366s1.768 0 2.134.366c.366.366.366.956.366 2.134s0 1.768-.366 2.134c-.366.366-.956.366-2.134.366s-1.768 0-2.134-.366C9.5 13.768 9.5 13.178 9.5 12Z"></path></symbol><symbol viewBox="0 0 24 24" id="mynaui-font-stop-square"><path d="M9.5 12c0-1.178 0-1.768.366-2.134.366-.366.956-.366 2.134-.366s1.768 0 2.134.366c.366.366.366.956.366 2.134s0 1.768-.366 2.134c-.366.366-.956.366-2.134.366s-1.768 0-2.134-.366C9.5 13.768 9.5 13.178 9.5 12Z"></path><path d="M3 12c0-4.243 0-6.364 1.318-7.682C5.636 3 7.758 3 12 3c4.243 0 6.364 0 7.682 1.318C21 5.636 21 7.758 21 12c0 4.243 0 6.364-1.318 7.682C18.364 21 16.242 21 12 21c-4.243 0-6.364 0-7.682-1.318C3 18.364 3 16.242 3 12Z"></path></symbol><symbol viewBox="0 0 24 24" id="mynaui-font-stop-waves"><path d="M9.5 12c0-1.178 0-1.768.366-2.134.366-.366.956-.366 2.134-.366s1.768 0 2.134.366c.366.366.366.956.366 2.134s0 1.768-.366 2.134c-.366.366-.956.366-2.134.366s-1.768 0-2.134-.366C9.5 13.768 9.5 13.178 9.5 12Z"></path><path d="M9.833 4.08c.55-.47.826-.704 1.114-.841a2.442 2.442 0 0 1 2.106 0c.288.137.563.372 1.114.841a3.132 3.132 0 0 0 1.9.788c.722.057 1.083.086 1.384.192a2.442 2.442 0 0 1 1.489 1.49c.106.3.135.66.192 1.382a3.13 3.13 0 0 0 .788 1.901c.47.55.704.826.841 1.114.319.666.319 1.44 0 2.106-.137.288-.372.563-.841 1.114a3.13 3.13 0 0 0-.788 1.9c-.057.722-.086 1.083-.192 1.384a2.442 2.442 0 0 1-1.49 1.489c-.3.106-.66.135-1.382.192a3.131 3.131 0 0 0-1.901.788c-.55.47-.826.704-1.114.841a2.441 2.441 0 0 1-2.106 0c-.288-.137-.563-.372-1.114-.841a3.13 3.13 0 0 0-1.9-.788c-.722-.057-1.083-.086-1.384-.192a2.442 2.442 0 0 1-1.489-1.49c-.106-.3-.135-.66-.192-1.382a3.132 3.132 0 0 0-.788-1.901c-.47-.55-.704-.826-.841-1.114a2.442 2.442 0 0 1 0-2.106c.137-.288.372-.563.841-1.114a3.131 3.131 0 0 0 .788-1.9c.057-.722.086-1.083.192-1.384A2.442 2.442 0 0 1 6.55 5.06c.3-.106.66-.135 1.382-.192a3.131 3.131 0 0 0 1.901-.788Z"></path></symbol><symbol viewBox="0 0 24 24" id="mynaui-font-stop"><path d="M7 12c0-2.357 0-3.536.732-4.268C8.464 7 9.643 7 12 7c2.357 0 3.536 0 4.268.732C17 8.464 17 9.643 17 12c0 2.357 0 3.536-.732 4.268C15.536 17 14.357 17 12 17c-2.357 0-3.536 0-4.268-.732C7 15.536 7 14.357 7 12Z"></path></symbol><symbol viewBox="0 0 24 24" id="mynaui-font-support"><circle cx="12" cy="12" r="9"></circle><path d="m18 6-3.525 3.525M6 18l3.525-3.525M6 6l3.525 3.525M18 18l-3.525-3.525m-4.95 0c-1.348-1.348-1.348-3.601 0-4.95m0 4.95c1.348 1.348 3.601 1.348 4.95 0m0 0c1.348-1.348 1.348-3.601 0-4.95m0 0c-1.348-1.348-3.601-1.348-4.95 0"></path></symbol><symbol viewBox="0 0 24 24" id="mynaui-font-table"><path d="M3 12c0-4.243 0-6.364 1.318-7.682C5.636 3 7.758 3 12 3c4.243 0 6.364 0 7.682 1.318C21 5.636 21 7.758 21 12c0 4.243 0 6.364-1.318 7.682C18.364 21 16.242 21 12 21c-4.243 0-6.364 0-7.682-1.318C3 18.364 3 16.242 3 12Zm6-8.5v17m11.5-11h-17"></path></symbol><symbol viewBox="0 0 24 24" id="mynaui-font-tablet"><path d="M17.714 3H6.286C5.023 3 4 3.806 4 4.8v14.4c0 .994 1.023 1.8 2.286 1.8h11.428C18.977 21 20 20.194 20 19.2V4.8c0-.994-1.023-1.8-2.286-1.8ZM10.5 6h3"></path></symbol><symbol viewBox="0 0 24 24" id="mynaui-font-tag-plus"><path d="M4.472 5.5H14.77a2 2 0 0 1 1.396.568l5.35 5.216a1 1 0 0 1 0 1.432l-5.35 5.216a2 2 0 0 1-1.396.568H4.472c-.95 0-2.222-.541-2.222-1.625v-9.75C2.25 6.041 3.523 5.5 4.472 5.5ZM5.5 12h5M8 9.5v5"></path></symbol><symbol viewBox="0 0 24 24" id="mynaui-font-tag"><path d="M4.472 5.5H14.77a2 2 0 0 1 1.396.568l5.35 5.216a1 1 0 0 1 0 1.432l-5.35 5.216a2 2 0 0 1-1.396.568H4.472c-.95 0-2.222-.541-2.222-1.625v-9.75C2.25 6.041 3.523 5.5 4.472 5.5Z"></path></symbol><symbol viewBox="0 0 24 24" id="mynaui-font-target"><circle cx="12" cy="12" r="9"></circle><path d="M12 17a5 5 0 1 0 0-10 5 5 0 0 0 0 10Z"></path><path d="M12 13.25a1.25 1.25 0 1 0 0-2.5 1.25 1.25 0 0 0 0 2.5Z"></path></symbol><symbol viewBox="0 0 24 24" id="mynaui-font-text-align-center"><path d="M4.5 6h15M7 10h10M4.5 14h15M7 18h10"></path></symbol><symbol viewBox="0 0 24 24" id="mynaui-font-text-align-left"><path d="M4.5 6h15m-15 4h10m-10 4h15m-15 4h10"></path></symbol><symbol viewBox="0 0 24 24" id="mynaui-font-text-align-right"><path d="M4.5 6h15m-10 4h10m-15 4h15m-10 4h10"></path></symbol><symbol viewBox="0 0 24 24" id="mynaui-font-text-justify"><path d="M4.5 6h15m-15 4h15m-15 4h15m-15 4h15"></path></symbol><symbol viewBox="0 0 24 24" id="mynaui-font-trash"><path d="m6.286 8.571.962 9.628A2 2 0 0 0 9.238 20h5.523a2 2 0 0 0 1.99-1.801l.963-9.628M13.5 15.5v-5m-3 5v-5M4.571 6.286h4.572m0 0 .382-1.529a1 1 0 0 1 .97-.757h3.01a1 1 0 0 1 .97.757l.382 1.529m-5.714 0h5.714m0 0h4.572"></path></symbol><symbol viewBox="0 0 24 24" id="mynaui-font-triangle"><path d="M10.545 4.85 3.34 17.35a1.82 1.82 0 0 0-.005 1.759c.147.268.36.491.616.648.256.157.547.24.844.244h14.412c.297-.003.588-.087.844-.244s.468-.38.616-.648a1.822 1.822 0 0 0-.005-1.76L13.455 4.852a1.733 1.733 0 0 0-.62-.624 1.652 1.652 0 0 0-1.67 0 1.733 1.733 0 0 0-.62.624v0Z"></path></symbol><symbol viewBox="0 0 24 24" id="mynaui-font-upload"><path d="M4 16.004V17a3 3 0 0 0 3 3h10a3 3 0 0 0 3-3v-1m-8-.5v-11M15.5 8 12 4.5 8.5 8"></path></symbol><symbol viewBox="0 0 24 24" id="mynaui-font-user-check"><circle cx="12" cy="7.5" r="3"></circle><path d="M19.5 20.5c-.475-9.333-14.525-9.333-15 0"></path><path d="m10.258 18.992 1.034 1.181c.095.109.266.1.35-.016l2.1-2.907"></path></symbol><symbol viewBox="0 0 24 24" id="mynaui-font-user-circle"><circle cx="12" cy="9.1" r="2.5"></circle><circle cx="12" cy="12" r="9"></circle><path d="M17 19.2c-.317-6.187-9.683-6.187-10 0"></path></symbol><symbol viewBox="0 0 24 24" id="mynaui-font-user-minus"><circle cx="12" cy="7.5" r="3"></circle><path d="M19.5 20.5c-.475-9.333-14.525-9.333-15 0m5.5-2h4"></path></symbol><symbol viewBox="0 0 24 24" id="mynaui-font-user-plus"><circle cx="12" cy="7.5" r="3"></circle><path d="M19.5 20.5c-.475-9.333-14.525-9.333-15 0m5.5-2h4m-2-2v4"></path></symbol><symbol viewBox="0 0 24 24" id="mynaui-font-user-settings"><circle cx="12" cy="7.5" r="3"></circle><path d="M19.5 20.5c-.475-9.333-14.525-9.333-15 0"></path><path d="M11.192 17.565c.394-.21.591-.315.808-.315.217 0 .414.105.808.315l.134.072c.394.21.591.315.7.488.108.173.108.383.108.804v.142c0 .42 0 .63-.108.804-.109.173-.306.278-.7.488l-.134.072c-.394.21-.591.315-.808.315-.217 0-.414-.105-.808-.315l-.134-.072c-.394-.21-.591-.315-.7-.488-.108-.173-.108-.383-.108-.804v-.142c0-.42 0-.63.108-.804.109-.173.306-.278.7-.488l.134-.072Z"></path></symbol><symbol viewBox="0 0 24 24" id="mynaui-font-user-x"><circle cx="12" cy="7.5" r="3"></circle><path d="M19.5 20.5c-.475-9.333-14.525-9.333-15 0m6.086-3 2.828 2.828m0-2.828-2.828 2.828"></path></symbol><symbol viewBox="0 0 24 24" id="mynaui-font-user"><circle cx="12" cy="7.5" r="3"></circle><path d="M19.5 20.5c-.475-9.333-14.525-9.333-15 0"></path></symbol><symbol viewBox="0 0 24 24" id="mynaui-font-waves"><path d="M9.833 4.08c.55-.47.826-.704 1.114-.841a2.442 2.442 0 0 1 2.106 0c.288.137.563.372 1.114.841a3.132 3.132 0 0 0 1.9.788c.722.057 1.083.086 1.384.192a2.442 2.442 0 0 1 1.489 1.49c.106.3.135.66.192 1.382a3.13 3.13 0 0 0 .788 1.901c.47.55.704.826.841 1.114.319.666.319 1.44 0 2.106-.137.288-.372.563-.841 1.114a3.13 3.13 0 0 0-.788 1.9c-.057.722-.086 1.083-.192 1.384a2.442 2.442 0 0 1-1.49 1.489c-.3.106-.66.135-1.382.192a3.131 3.131 0 0 0-1.901.788c-.55.47-.826.704-1.114.841a2.441 2.441 0 0 1-2.106 0c-.288-.137-.563-.372-1.114-.841a3.13 3.13 0 0 0-1.9-.788c-.722-.057-1.083-.086-1.384-.192a2.442 2.442 0 0 1-1.489-1.49c-.106-.3-.135-.66-.192-1.382a3.132 3.132 0 0 0-.788-1.901c-.47-.55-.704-.826-.841-1.114a2.442 2.442 0 0 1 0-2.106c.137-.288.372-.563.841-1.114a3.131 3.131 0 0 0 .788-1.9c.057-.722.086-1.083.192-1.384A2.442 2.442 0 0 1 6.55 5.06c.3-.106.66-.135 1.382-.192a3.131 3.131 0 0 0 1.901-.788Z"></path></symbol><symbol viewBox="0 0 24 24" id="mynaui-font-x-circle"><circle cx="12" cy="12" r="9"></circle><path d="m15 9-6 6m0-6 6 6"></path></symbol><symbol viewBox="0 0 24 24" id="mynaui-font-x-square"><path d="m15 9-6 6m0-6 6 6M3 12c0-4.243 0-6.364 1.318-7.682C5.636 3 7.758 3 12 3c4.243 0 6.364 0 7.682 1.318C21 5.636 21 7.758 21 12c0 4.243 0 6.364-1.318 7.682C18.364 21 16.242 21 12 21c-4.243 0-6.364 0-7.682-1.318C3 18.364 3 16.242 3 12Z"></path></symbol><symbol viewBox="0 0 24 24" id="mynaui-font-x-waves"><path d="m15 9-6 6m0-6 6 6M9.833 4.08c.55-.47.826-.704 1.114-.841a2.442 2.442 0 0 1 2.106 0c.288.137.563.372 1.114.841a3.132 3.132 0 0 0 1.9.788c.722.057 1.083.086 1.384.192a2.442 2.442 0 0 1 1.489 1.49c.106.3.135.66.192 1.382a3.13 3.13 0 0 0 .788 1.901c.47.55.704.826.841 1.114.319.666.319 1.44 0 2.106-.137.288-.372.563-.841 1.114a3.13 3.13 0 0 0-.788 1.9c-.057.722-.086 1.083-.192 1.384a2.442 2.442 0 0 1-1.49 1.489c-.3.106-.66.135-1.382.192a3.131 3.131 0 0 0-1.901.788c-.55.47-.826.704-1.114.841a2.441 2.441 0 0 1-2.106 0c-.288-.137-.563-.372-1.114-.841a3.13 3.13 0 0 0-1.9-.788c-.722-.057-1.083-.086-1.384-.192a2.442 2.442 0 0 1-1.489-1.49c-.106-.3-.135-.66-.192-1.382a3.132 3.132 0 0 0-.788-1.901c-.47-.55-.704-.826-.841-1.114a2.442 2.442 0 0 1 0-2.106c.137-.288.372-.563.841-1.114a3.131 3.131 0 0 0 .788-1.9c.057-.722.086-1.083.192-1.384A2.442 2.442 0 0 1 6.55 5.06c.3-.106.66-.135 1.382-.192a3.131 3.131 0 0 0 1.901-.788Z"></path></symbol><symbol viewBox="0 0 24 24" id="mynaui-font-x"><path d="M19 5 5 19M5 5l14 14"></path></symbol></svg>