<?xml version="1.0" standalone="no"?>
<!DOCTYPE svg PUBLIC "-//W3C//DTD SVG 1.1//EN" "http://www.w3.org/Graphics/SVG/1.1/DTD/svg11.dtd" >
<svg xmlns="http://www.w3.org/2000/svg">
<defs>
  <font id="mynaui-font" horiz-adv-x="1000">
    <font-face font-family="mynaui-font"
      units-per-em="1000" ascent="1000"
      descent="0" />
    <missing-glyph horiz-adv-x="0" />
    <glyph glyph-name="arrow-diagonal-one"
      unicode="&#xEA01;"
      horiz-adv-x="1000" d="M205.375 470.5416666666666L529.4583333333334 794.625M529.4583333333334 794.625V588.375M529.4583333333334 794.625H323.2083333333333M794.625 529.4583333333333L470.5416666666667 205.375M470.5416666666667 205.375H676.7916666666667M470.5416666666667 205.375V411.6249999999999" />
    <glyph glyph-name="arrow-diagonal-two"
      unicode="&#xEA02;"
      horiz-adv-x="1000" d="M470.5416666666666 794.625L794.6249999999999 470.5416666666666M794.6249999999999 470.5416666666666H588.3749999999999M794.6249999999999 470.5416666666666V676.7916666666667M529.4583333333331 205.375L205.4166666666667 529.4583333333334M205.4166666666667 529.4583333333334V323.2083333333335M205.4166666666667 529.4583333333334H411.6666666666667" />
    <glyph glyph-name="arrow-down-circle"
      unicode="&#xEA03;"
      horiz-adv-x="1000" d="M125 500A375 375 0 0 1 875 500A375 375 0 0 1 125 500M500 687.5V312.5M645.8333333333333 458.3333333333334L500 312.5L354.1666666666667 458.3333333333334" />
    <glyph glyph-name="arrow-down-left-circle"
      unicode="&#xEA04;"
      horiz-adv-x="1000" d="M125 500A375 375 0 0 1 875 500A375 375 0 0 1 125 500M632.5833333333333 632.5833333333334L367.4166666666667 367.4166666666668M573.6666666666666 367.4166666666668H367.4166666666667V573.6666666666667" />
    <glyph glyph-name="arrow-down-left-square"
      unicode="&#xEA05;"
      horiz-adv-x="1000" d="M632.5833333333333 632.5833333333334L367.4166666666667 367.4166666666668M573.6666666666666 367.4166666666668H367.4166666666667V573.6666666666667M125 500C125 676.7916666666667 125 765.1666666666667 179.9166666666666 820.0833333333334C234.8333333333333 875 323.25 875 500 875C676.7916666666667 875 765.1666666666666 875 820.0833333333334 820.0833333333334C875 765.1666666666667 875 676.75 875 500C875 323.2083333333333 875 234.8333333333334 820.0833333333333 179.9166666666666C765.1666666666666 125 676.75 125 500 125C323.2083333333333 125 234.8333333333333 125 179.9166666666666 179.9166666666668C125 234.8333333333334 125 323.25 125 500z" />
    <glyph glyph-name="arrow-down-left-waves"
      unicode="&#xEA06;"
      horiz-adv-x="1000" d="M632.5833333333333 632.5833333333334L367.4166666666667 367.4166666666668M573.6666666666666 367.4166666666668H367.4166666666667V573.6666666666667M409.7083333333333 830C432.625 849.5833333333333 444.125 859.3333333333333 456.125 865.0416666666667A101.75 101.75 0 0 0 543.875 865.0416666666667C555.875 859.3333333333334 567.3333333333334 849.5416666666667 590.2916666666667 830A130.5 130.5 0 0 1 669.4583333333333 797.1666666666666C699.5416666666667 794.7916666666666 714.5833333333333 793.5833333333333 727.125 789.1666666666666A101.75 101.75 0 0 0 789.1666666666666 727.0833333333333C793.5833333333334 714.5833333333333 794.7916666666667 699.5833333333333 797.1666666666666 669.5A130.4166666666667 130.4166666666667 0 0 1 830 590.2916666666667C849.5833333333333 567.375 859.3333333333334 555.875 865.0416666666667 543.875C878.3333333333334 516.125 878.3333333333334 483.875 865.0416666666667 456.125C859.3333333333334 444.125 849.5416666666667 432.6666666666667 830 409.7083333333333A130.4166666666667 130.4166666666667 0 0 1 797.1666666666666 330.5416666666668C794.7916666666667 300.4583333333333 793.5833333333334 285.4166666666668 789.1666666666666 272.875A101.75 101.75 0 0 0 727.0833333333334 210.8333333333334C714.5833333333334 206.4166666666666 699.5833333333334 205.2083333333333 669.5 202.8333333333334A130.4583333333333 130.4583333333333 0 0 1 590.2916666666667 170C567.375 150.4166666666668 555.875 140.6666666666666 543.875 134.9583333333333A101.7083333333333 101.7083333333333 0 0 0 456.125 134.9583333333333C444.125 140.6666666666666 432.6666666666667 150.4583333333333 409.7083333333333 170A130.4166666666667 130.4166666666667 0 0 1 330.5416666666667 202.8333333333334C300.4583333333333 205.2083333333333 285.4166666666667 206.4166666666666 272.875 210.8333333333334A101.75 101.75 0 0 0 210.8333333333333 272.9166666666667C206.4166666666667 285.4166666666667 205.2083333333333 300.4166666666667 202.8333333333333 330.5A130.5 130.5 0 0 1 170 409.7083333333333C150.4166666666666 432.625 140.6666666666666 444.125 134.9583333333333 456.125A101.75 101.75 0 0 0 134.9583333333333 543.875C140.6666666666666 555.875 150.4583333333333 567.3333333333334 170 590.2916666666667A130.4583333333333 130.4583333333333 0 0 1 202.8333333333333 669.4583333333334C205.2083333333333 699.5416666666667 206.4166666666667 714.5833333333334 210.8333333333333 727.125A101.75 101.75 0 0 0 272.9166666666667 789.1666666666667C285.4166666666667 793.5833333333334 300.4166666666667 794.7916666666667 330.5 797.1666666666667A130.4583333333333 130.4583333333333 0 0 1 409.7083333333333 830z" />
    <glyph glyph-name="arrow-down-left"
      unicode="&#xEA07;"
      horiz-adv-x="1000" d="M729.1666666666666 729.1666666666667L270.8333333333333 270.8333333333334M270.8333333333333 270.8333333333334H645.8333333333333M270.8333333333333 270.8333333333334V645.8333333333334" />
    <glyph glyph-name="arrow-down-right-circle"
      unicode="&#xEA08;"
      horiz-adv-x="1000" d="M125 500A375 375 0 0 1 875 500A375 375 0 0 1 125 500M367.4166666666667 632.5833333333334L632.5833333333333 367.4166666666668M632.5833333333333 573.6666666666667V367.4166666666668H426.3333333333333" />
    <glyph glyph-name="arrow-down-right-square"
      unicode="&#xEA09;"
      horiz-adv-x="1000" d="M367.4166666666667 632.5833333333334L632.5833333333333 367.4166666666668M632.5833333333333 573.6666666666667V367.4166666666668H426.3333333333333M125 500C125 676.7916666666667 125 765.1666666666667 179.9166666666666 820.0833333333334C234.8333333333333 875 323.25 875 500 875C676.7916666666667 875 765.1666666666666 875 820.0833333333334 820.0833333333334C875 765.1666666666667 875 676.75 875 500C875 323.2083333333333 875 234.8333333333334 820.0833333333333 179.9166666666666C765.1666666666666 125 676.75 125 500 125C323.2083333333333 125 234.8333333333333 125 179.9166666666666 179.9166666666668C125 234.8333333333334 125 323.25 125 500z" />
    <glyph glyph-name="arrow-down-right-waves"
      unicode="&#xEA0A;"
      horiz-adv-x="1000" d="M367.4166666666667 632.5833333333334L632.5833333333333 367.4166666666668M632.5833333333333 573.6666666666667V367.4166666666668H426.3333333333333M409.7083333333333 830C432.625 849.5833333333333 444.125 859.3333333333333 456.125 865.0416666666667A101.75 101.75 0 0 0 543.875 865.0416666666667C555.875 859.3333333333334 567.3333333333334 849.5416666666667 590.2916666666667 830A130.5 130.5 0 0 1 669.4583333333333 797.1666666666666C699.5416666666667 794.7916666666666 714.5833333333333 793.5833333333333 727.125 789.1666666666666A101.75 101.75 0 0 0 789.1666666666666 727.0833333333333C793.5833333333334 714.5833333333333 794.7916666666667 699.5833333333333 797.1666666666666 669.5A130.4166666666667 130.4166666666667 0 0 1 830 590.2916666666667C849.5833333333333 567.375 859.3333333333334 555.875 865.0416666666667 543.875C878.3333333333334 516.125 878.3333333333334 483.875 865.0416666666667 456.125C859.3333333333334 444.125 849.5416666666667 432.6666666666667 830 409.7083333333333A130.4166666666667 130.4166666666667 0 0 1 797.1666666666666 330.5416666666668C794.7916666666667 300.4583333333333 793.5833333333334 285.4166666666668 789.1666666666666 272.875A101.75 101.75 0 0 0 727.0833333333334 210.8333333333334C714.5833333333334 206.4166666666666 699.5833333333334 205.2083333333333 669.5 202.8333333333334A130.4583333333333 130.4583333333333 0 0 1 590.2916666666667 170C567.375 150.4166666666668 555.875 140.6666666666666 543.875 134.9583333333333A101.7083333333333 101.7083333333333 0 0 0 456.125 134.9583333333333C444.125 140.6666666666666 432.6666666666667 150.4583333333333 409.7083333333333 170A130.4166666666667 130.4166666666667 0 0 1 330.5416666666667 202.8333333333334C300.4583333333333 205.2083333333333 285.4166666666667 206.4166666666666 272.875 210.8333333333334A101.75 101.75 0 0 0 210.8333333333333 272.9166666666667C206.4166666666667 285.4166666666667 205.2083333333333 300.4166666666667 202.8333333333333 330.5A130.5 130.5 0 0 1 170 409.7083333333333C150.4166666666666 432.625 140.6666666666666 444.125 134.9583333333333 456.125A101.75 101.75 0 0 0 134.9583333333333 543.875C140.6666666666666 555.875 150.4583333333333 567.3333333333334 170 590.2916666666667A130.4583333333333 130.4583333333333 0 0 1 202.8333333333333 669.4583333333334C205.2083333333333 699.5416666666667 206.4166666666667 714.5833333333334 210.8333333333333 727.125A101.75 101.75 0 0 0 272.9166666666667 789.1666666666667C285.4166666666667 793.5833333333334 300.4166666666667 794.7916666666667 330.5 797.1666666666667A130.4583333333333 130.4583333333333 0 0 1 409.7083333333333 830z" />
    <glyph glyph-name="arrow-down-right"
      unicode="&#xEA0B;"
      horiz-adv-x="1000" d="M270.8333333333333 729.1666666666667L729.1666666666666 270.8333333333334M729.1666666666666 270.8333333333334H354.1666666666667M729.1666666666666 270.8333333333334V645.8333333333334" />
    <glyph glyph-name="arrow-down-square"
      unicode="&#xEA0C;"
      horiz-adv-x="1000" d="M500 687.5V312.5M645.8333333333333 458.3333333333334L500 312.5L354.1666666666667 458.3333333333334M125 500C125 676.7916666666667 125 765.1666666666667 179.9166666666666 820.0833333333334C234.8333333333333 875 323.25 875 500 875C676.7916666666667 875 765.1666666666666 875 820.0833333333334 820.0833333333334C875 765.1666666666667 875 676.75 875 500C875 323.2083333333333 875 234.8333333333334 820.0833333333333 179.9166666666666C765.1666666666666 125 676.75 125 500 125C323.2083333333333 125 234.8333333333333 125 179.9166666666666 179.9166666666668C125 234.8333333333334 125 323.25 125 500z" />
    <glyph glyph-name="arrow-down-waves"
      unicode="&#xEA0D;"
      horiz-adv-x="1000" d="M500 687.5V312.5M645.8333333333333 458.3333333333334L500 312.5L354.1666666666667 458.3333333333334M409.7083333333333 830C432.625 849.5833333333333 444.125 859.3333333333333 456.125 865.0416666666667A101.75 101.75 0 0 0 543.875 865.0416666666667C555.875 859.3333333333334 567.3333333333334 849.5416666666667 590.2916666666667 830A130.5 130.5 0 0 1 669.4583333333333 797.1666666666666C699.5416666666667 794.7916666666666 714.5833333333333 793.5833333333333 727.125 789.1666666666666A101.75 101.75 0 0 0 789.1666666666666 727.0833333333333C793.5833333333334 714.5833333333333 794.7916666666667 699.5833333333333 797.1666666666666 669.5A130.4166666666667 130.4166666666667 0 0 1 830 590.2916666666667C849.5833333333333 567.375 859.3333333333334 555.875 865.0416666666667 543.875C878.3333333333334 516.125 878.3333333333334 483.875 865.0416666666667 456.125C859.3333333333334 444.125 849.5416666666667 432.6666666666667 830 409.7083333333333A130.4166666666667 130.4166666666667 0 0 1 797.1666666666666 330.5416666666668C794.7916666666667 300.4583333333333 793.5833333333334 285.4166666666668 789.1666666666666 272.875A101.75 101.75 0 0 0 727.0833333333334 210.8333333333334C714.5833333333334 206.4166666666666 699.5833333333334 205.2083333333333 669.5 202.8333333333334A130.4583333333333 130.4583333333333 0 0 1 590.2916666666667 170C567.375 150.4166666666668 555.875 140.6666666666666 543.875 134.9583333333333A101.7083333333333 101.7083333333333 0 0 0 456.125 134.9583333333333C444.125 140.6666666666666 432.6666666666667 150.4583333333333 409.7083333333333 170A130.4166666666667 130.4166666666667 0 0 1 330.5416666666667 202.8333333333334C300.4583333333333 205.2083333333333 285.4166666666667 206.4166666666666 272.875 210.8333333333334A101.75 101.75 0 0 0 210.8333333333333 272.9166666666667C206.4166666666667 285.4166666666667 205.2083333333333 300.4166666666667 202.8333333333333 330.5A130.5 130.5 0 0 1 170 409.7083333333333C150.4166666666666 432.625 140.6666666666666 444.125 134.9583333333333 456.125A101.75 101.75 0 0 0 134.9583333333333 543.875C140.6666666666666 555.875 150.4583333333333 567.3333333333334 170 590.2916666666667A130.4583333333333 130.4583333333333 0 0 1 202.8333333333333 669.4583333333334C205.2083333333333 699.5416666666667 206.4166666666667 714.5833333333334 210.8333333333333 727.125A101.75 101.75 0 0 0 272.9166666666667 789.1666666666667C285.4166666666667 793.5833333333334 300.4166666666667 794.7916666666667 330.5 797.1666666666667A130.4583333333333 130.4583333333333 0 0 1 409.7083333333333 830z" />
    <glyph glyph-name="arrow-down"
      unicode="&#xEA0E;"
      horiz-adv-x="1000" d="M500 812.5V187.5M500 187.5L250 421.875M500 187.5L750 421.875" />
    <glyph glyph-name="arrow-left-circle"
      unicode="&#xEA0F;"
      horiz-adv-x="1000" d="M125 500A375 375 0 0 1 875 500A375 375 0 0 1 125 500M687.5 500H312.5M458.3333333333333 354.1666666666668L312.5 500L458.3333333333333 645.8333333333334" />
    <glyph glyph-name="arrow-left-right"
      unicode="&#xEA10;"
      horiz-adv-x="1000" d="M270.8333333333333 687.5H729.1666666666666M729.1666666666666 687.5L583.3333333333333 541.6666666666667M729.1666666666666 687.5L583.3333333333333 833.3333333333334M729.1666666666666 312.5H270.8333333333333M270.8333333333333 312.5L416.6666666666667 166.6666666666668M270.8333333333333 312.5L416.6666666666667 458.3333333333334" />
    <glyph glyph-name="arrow-left-square"
      unicode="&#xEA11;"
      horiz-adv-x="1000" d="M687.5 500H312.5M458.3333333333333 354.1666666666668L312.5 500L458.3333333333333 645.8333333333334M125 500C125 676.7916666666667 125 765.1666666666667 179.9166666666666 820.0833333333334C234.8333333333333 875 323.25 875 500 875C676.7916666666667 875 765.1666666666666 875 820.0833333333334 820.0833333333334C875 765.1666666666667 875 676.75 875 500C875 323.2083333333333 875 234.8333333333334 820.0833333333333 179.9166666666666C765.1666666666666 125 676.75 125 500 125C323.2083333333333 125 234.8333333333333 125 179.9166666666666 179.9166666666668C125 234.8333333333334 125 323.25 125 500z" />
    <glyph glyph-name="arrow-left-waves"
      unicode="&#xEA12;"
      horiz-adv-x="1000" d="M687.5 500H312.5M458.3333333333333 354.1666666666668L312.5 500L458.3333333333333 645.8333333333334M409.7083333333333 830C432.625 849.5833333333333 444.125 859.3333333333333 456.125 865.0416666666667A101.75 101.75 0 0 0 543.875 865.0416666666667C555.875 859.3333333333334 567.3333333333334 849.5416666666667 590.2916666666667 830A130.5 130.5 0 0 1 669.4583333333333 797.1666666666666C699.5416666666667 794.7916666666666 714.5833333333333 793.5833333333333 727.125 789.1666666666666A101.75 101.75 0 0 0 789.1666666666666 727.0833333333333C793.5833333333334 714.5833333333333 794.7916666666667 699.5833333333333 797.1666666666666 669.5A130.4166666666667 130.4166666666667 0 0 1 830 590.2916666666667C849.5833333333333 567.375 859.3333333333334 555.875 865.0416666666667 543.875C878.3333333333334 516.125 878.3333333333334 483.875 865.0416666666667 456.125C859.3333333333334 444.125 849.5416666666667 432.6666666666667 830 409.7083333333333A130.4166666666667 130.4166666666667 0 0 1 797.1666666666666 330.5416666666668C794.7916666666667 300.4583333333333 793.5833333333334 285.4166666666668 789.1666666666666 272.875A101.75 101.75 0 0 0 727.0833333333334 210.8333333333334C714.5833333333334 206.4166666666666 699.5833333333334 205.2083333333333 669.5 202.8333333333334A130.4583333333333 130.4583333333333 0 0 1 590.2916666666667 170C567.375 150.4166666666668 555.875 140.6666666666666 543.875 134.9583333333333A101.7083333333333 101.7083333333333 0 0 0 456.125 134.9583333333333C444.125 140.6666666666666 432.6666666666667 150.4583333333333 409.7083333333333 170A130.4166666666667 130.4166666666667 0 0 1 330.5416666666667 202.8333333333334C300.4583333333333 205.2083333333333 285.4166666666667 206.4166666666666 272.875 210.8333333333334A101.75 101.75 0 0 0 210.8333333333333 272.9166666666667C206.4166666666667 285.4166666666667 205.2083333333333 300.4166666666667 202.8333333333333 330.5A130.5 130.5 0 0 1 170 409.7083333333333C150.4166666666666 432.625 140.6666666666666 444.125 134.9583333333333 456.125A101.75 101.75 0 0 0 134.9583333333333 543.875C140.6666666666666 555.875 150.4583333333333 567.3333333333334 170 590.2916666666667A130.4583333333333 130.4583333333333 0 0 1 202.8333333333333 669.4583333333334C205.2083333333333 699.5416666666667 206.4166666666667 714.5833333333334 210.8333333333333 727.125A101.75 101.75 0 0 0 272.9166666666667 789.1666666666667C285.4166666666667 793.5833333333334 300.4166666666667 794.7916666666667 330.5 797.1666666666667A130.4583333333333 130.4583333333333 0 0 1 409.7083333333333 830z" />
    <glyph glyph-name="arrow-left"
      unicode="&#xEA13;"
      horiz-adv-x="1000" d="M812.5 500H187.5M187.5 500L421.875 750M187.5 500L421.875 250" />
    <glyph glyph-name="arrow-right-circle"
      unicode="&#xEA14;"
      horiz-adv-x="1000" d="M125 500A375 375 0 0 1 875 500A375 375 0 0 1 125 500M312.5 500H687.5M541.6666666666666 645.8333333333334L687.5 500L541.6666666666666 354.1666666666668" />
    <glyph glyph-name="arrow-right-square"
      unicode="&#xEA15;"
      horiz-adv-x="1000" d="M312.5 500H687.5M541.6666666666666 645.8333333333334L687.5 500L541.6666666666666 354.1666666666668M125 500C125 676.7916666666667 125 765.1666666666667 179.9166666666666 820.0833333333334C234.8333333333333 875 323.25 875 500 875C676.7916666666667 875 765.1666666666666 875 820.0833333333334 820.0833333333334C875 765.1666666666667 875 676.75 875 500C875 323.2083333333333 875 234.8333333333334 820.0833333333333 179.9166666666666C765.1666666666666 125 676.75 125 500 125C323.2083333333333 125 234.8333333333333 125 179.9166666666666 179.9166666666668C125 234.8333333333334 125 323.25 125 500z" />
    <glyph glyph-name="arrow-right-waves"
      unicode="&#xEA16;"
      horiz-adv-x="1000" d="M312.5 500H687.5M541.6666666666666 645.8333333333334L687.5 500L541.6666666666666 354.1666666666668M409.7083333333333 830C432.625 849.5833333333333 444.125 859.3333333333333 456.125 865.0416666666667A101.75 101.75 0 0 0 543.875 865.0416666666667C555.875 859.3333333333334 567.3333333333334 849.5416666666667 590.2916666666667 830A130.5 130.5 0 0 1 669.4583333333333 797.1666666666666C699.5416666666667 794.7916666666666 714.5833333333333 793.5833333333333 727.125 789.1666666666666A101.75 101.75 0 0 0 789.1666666666666 727.0833333333333C793.5833333333334 714.5833333333333 794.7916666666667 699.5833333333333 797.1666666666666 669.5A130.4166666666667 130.4166666666667 0 0 1 830 590.2916666666667C849.5833333333333 567.375 859.3333333333334 555.875 865.0416666666667 543.875C878.3333333333334 516.125 878.3333333333334 483.875 865.0416666666667 456.125C859.3333333333334 444.125 849.5416666666667 432.6666666666667 830 409.7083333333333A130.4166666666667 130.4166666666667 0 0 1 797.1666666666666 330.5416666666668C794.7916666666667 300.4583333333333 793.5833333333334 285.4166666666668 789.1666666666666 272.875A101.75 101.75 0 0 0 727.0833333333334 210.8333333333334C714.5833333333334 206.4166666666666 699.5833333333334 205.2083333333333 669.5 202.8333333333334A130.4583333333333 130.4583333333333 0 0 1 590.2916666666667 170C567.375 150.4166666666668 555.875 140.6666666666666 543.875 134.9583333333333A101.7083333333333 101.7083333333333 0 0 0 456.125 134.9583333333333C444.125 140.6666666666666 432.6666666666667 150.4583333333333 409.7083333333333 170A130.4166666666667 130.4166666666667 0 0 1 330.5416666666667 202.8333333333334C300.4583333333333 205.2083333333333 285.4166666666667 206.4166666666666 272.875 210.8333333333334A101.75 101.75 0 0 0 210.8333333333333 272.9166666666667C206.4166666666667 285.4166666666667 205.2083333333333 300.4166666666667 202.8333333333333 330.5A130.5 130.5 0 0 1 170 409.7083333333333C150.4166666666666 432.625 140.6666666666666 444.125 134.9583333333333 456.125A101.75 101.75 0 0 0 134.9583333333333 543.875C140.6666666666666 555.875 150.4583333333333 567.3333333333334 170 590.2916666666667A130.4583333333333 130.4583333333333 0 0 1 202.8333333333333 669.4583333333334C205.2083333333333 699.5416666666667 206.4166666666667 714.5833333333334 210.8333333333333 727.125A101.75 101.75 0 0 0 272.9166666666667 789.1666666666667C285.4166666666667 793.5833333333334 300.4166666666667 794.7916666666667 330.5 797.1666666666667A130.4583333333333 130.4583333333333 0 0 1 409.7083333333333 830z" />
    <glyph glyph-name="arrow-right"
      unicode="&#xEA17;"
      horiz-adv-x="1000" d="M187.5 500H812.5M812.5 500L578.125 750M812.5 500L578.125 250" />
    <glyph glyph-name="arrow-up-circle"
      unicode="&#xEA18;"
      horiz-adv-x="1000" d="M125 500A375 375 0 0 1 875 500A375 375 0 0 1 125 500M500 312.5V687.5M354.1666666666667 541.6666666666667L500 687.5L645.8333333333333 541.6666666666667" />
    <glyph glyph-name="arrow-up-down"
      unicode="&#xEA19;"
      horiz-adv-x="1000" d="M312.5 270.8333333333334V729.1666666666667M312.5 729.1666666666667L458.3333333333333 583.3333333333334M312.5 729.1666666666667L166.6666666666667 583.3333333333334M687.5 729.1666666666667V270.8333333333334M687.5 270.8333333333334L833.3333333333333 416.6666666666668M687.5 270.8333333333334L541.6666666666666 416.6666666666668" />
    <glyph glyph-name="arrow-up-left-circle"
      unicode="&#xEA1A;"
      horiz-adv-x="1000" d="M125 500A375 375 0 0 1 875 500A375 375 0 0 1 125 500M632.5833333333333 367.4166666666668L367.4166666666667 632.5833333333334M367.4166666666667 426.3333333333334V632.5833333333333H573.6666666666666" />
    <glyph glyph-name="arrow-up-left-square"
      unicode="&#xEA1B;"
      horiz-adv-x="1000" d="M632.5833333333333 367.4166666666668L367.4166666666667 632.5833333333334M367.4166666666667 426.3333333333334V632.5833333333333H573.6666666666666M125 500C125 676.7916666666667 125 765.1666666666667 179.9166666666666 820.0833333333334C234.8333333333333 875 323.25 875 500 875C676.7916666666667 875 765.1666666666666 875 820.0833333333334 820.0833333333334C875 765.1666666666667 875 676.75 875 500C875 323.2083333333333 875 234.8333333333334 820.0833333333333 179.9166666666666C765.1666666666666 125 676.75 125 500 125C323.2083333333333 125 234.8333333333333 125 179.9166666666666 179.9166666666668C125 234.8333333333334 125 323.25 125 500z" />
    <glyph glyph-name="arrow-up-left-waves"
      unicode="&#xEA1C;"
      horiz-adv-x="1000" d="M632.5833333333333 367.4166666666668L367.4166666666667 632.5833333333334M367.4166666666667 426.3333333333334V632.5833333333333H573.6666666666666M409.7083333333333 830C432.625 849.5833333333333 444.125 859.3333333333333 456.125 865.0416666666667A101.75 101.75 0 0 0 543.875 865.0416666666667C555.875 859.3333333333334 567.3333333333334 849.5416666666667 590.2916666666667 830A130.5 130.5 0 0 1 669.4583333333333 797.1666666666666C699.5416666666667 794.7916666666666 714.5833333333333 793.5833333333333 727.125 789.1666666666666A101.75 101.75 0 0 0 789.1666666666666 727.0833333333333C793.5833333333334 714.5833333333333 794.7916666666667 699.5833333333333 797.1666666666666 669.5A130.4166666666667 130.4166666666667 0 0 1 830 590.2916666666667C849.5833333333333 567.375 859.3333333333334 555.875 865.0416666666667 543.875C878.3333333333334 516.125 878.3333333333334 483.875 865.0416666666667 456.125C859.3333333333334 444.125 849.5416666666667 432.6666666666667 830 409.7083333333333A130.4166666666667 130.4166666666667 0 0 1 797.1666666666666 330.5416666666668C794.7916666666667 300.4583333333333 793.5833333333334 285.4166666666668 789.1666666666666 272.875A101.75 101.75 0 0 0 727.0833333333334 210.8333333333334C714.5833333333334 206.4166666666666 699.5833333333334 205.2083333333333 669.5 202.8333333333334A130.4583333333333 130.4583333333333 0 0 1 590.2916666666667 170C567.375 150.4166666666668 555.875 140.6666666666666 543.875 134.9583333333333A101.7083333333333 101.7083333333333 0 0 0 456.125 134.9583333333333C444.125 140.6666666666666 432.6666666666667 150.4583333333333 409.7083333333333 170A130.4166666666667 130.4166666666667 0 0 1 330.5416666666667 202.8333333333334C300.4583333333333 205.2083333333333 285.4166666666667 206.4166666666666 272.875 210.8333333333334A101.75 101.75 0 0 0 210.8333333333333 272.9166666666667C206.4166666666667 285.4166666666667 205.2083333333333 300.4166666666667 202.8333333333333 330.5A130.5 130.5 0 0 1 170 409.7083333333333C150.4166666666666 432.625 140.6666666666666 444.125 134.9583333333333 456.125A101.75 101.75 0 0 0 134.9583333333333 543.875C140.6666666666666 555.875 150.4583333333333 567.3333333333334 170 590.2916666666667A130.4583333333333 130.4583333333333 0 0 1 202.8333333333333 669.4583333333334C205.2083333333333 699.5416666666667 206.4166666666667 714.5833333333334 210.8333333333333 727.125A101.75 101.75 0 0 0 272.9166666666667 789.1666666666667C285.4166666666667 793.5833333333334 300.4166666666667 794.7916666666667 330.5 797.1666666666667A130.4583333333333 130.4583333333333 0 0 1 409.7083333333333 830z" />
    <glyph glyph-name="arrow-up-left"
      unicode="&#xEA1D;"
      horiz-adv-x="1000" d="M729.1666666666666 270.8333333333334L270.8333333333333 729.1666666666667M270.8333333333333 729.1666666666667H645.8333333333333M270.8333333333333 729.1666666666667V354.1666666666668" />
    <glyph glyph-name="arrow-up-right-circle"
      unicode="&#xEA1E;"
      horiz-adv-x="1000" d="M125 500A375 375 0 0 1 875 500A375 375 0 0 1 125 500M367.4166666666667 367.4166666666668L632.5833333333333 632.5833333333333M426.3333333333333 632.5833333333333H632.5833333333333V426.3333333333334" />
    <glyph glyph-name="arrow-up-right-square"
      unicode="&#xEA1F;"
      horiz-adv-x="1000" d="M367.4166666666667 367.4166666666668L632.5833333333333 632.5833333333333M426.3333333333333 632.5833333333333H632.5833333333333V426.3333333333334M125 500C125 676.7916666666667 125 765.1666666666667 179.9166666666666 820.0833333333334C234.8333333333333 875 323.25 875 500 875C676.7916666666667 875 765.1666666666666 875 820.0833333333334 820.0833333333334C875 765.1666666666667 875 676.75 875 500C875 323.2083333333333 875 234.8333333333334 820.0833333333333 179.9166666666666C765.1666666666666 125 676.75 125 500 125C323.2083333333333 125 234.8333333333333 125 179.9166666666666 179.9166666666668C125 234.8333333333334 125 323.25 125 500z" />
    <glyph glyph-name="arrow-up-right-waves"
      unicode="&#xEA20;"
      horiz-adv-x="1000" d="M367.4166666666667 367.4166666666668L632.5833333333333 632.5833333333333M426.3333333333333 632.5833333333333H632.5833333333333V426.3333333333334M409.7083333333333 830C432.625 849.5833333333333 444.125 859.3333333333333 456.125 865.0416666666667A101.75 101.75 0 0 0 543.875 865.0416666666667C555.875 859.3333333333334 567.3333333333334 849.5416666666667 590.2916666666667 830A130.5 130.5 0 0 1 669.4583333333333 797.1666666666666C699.5416666666667 794.7916666666666 714.5833333333333 793.5833333333333 727.125 789.1666666666666A101.75 101.75 0 0 0 789.1666666666666 727.0833333333333C793.5833333333334 714.5833333333333 794.7916666666667 699.5833333333333 797.1666666666666 669.5A130.4166666666667 130.4166666666667 0 0 1 830 590.2916666666667C849.5833333333333 567.375 859.3333333333334 555.875 865.0416666666667 543.875C878.3333333333334 516.125 878.3333333333334 483.875 865.0416666666667 456.125C859.3333333333334 444.125 849.5416666666667 432.6666666666667 830 409.7083333333333A130.4166666666667 130.4166666666667 0 0 1 797.1666666666666 330.5416666666668C794.7916666666667 300.4583333333333 793.5833333333334 285.4166666666668 789.1666666666666 272.875A101.75 101.75 0 0 0 727.0833333333334 210.8333333333334C714.5833333333334 206.4166666666666 699.5833333333334 205.2083333333333 669.5 202.8333333333334A130.4583333333333 130.4583333333333 0 0 1 590.2916666666667 170C567.375 150.4166666666668 555.875 140.6666666666666 543.875 134.9583333333333A101.7083333333333 101.7083333333333 0 0 0 456.125 134.9583333333333C444.125 140.6666666666666 432.6666666666667 150.4583333333333 409.7083333333333 170A130.4166666666667 130.4166666666667 0 0 1 330.5416666666667 202.8333333333334C300.4583333333333 205.2083333333333 285.4166666666667 206.4166666666666 272.875 210.8333333333334A101.75 101.75 0 0 0 210.8333333333333 272.9166666666667C206.4166666666667 285.4166666666667 205.2083333333333 300.4166666666667 202.8333333333333 330.5A130.5 130.5 0 0 1 170 409.7083333333333C150.4166666666666 432.625 140.6666666666666 444.125 134.9583333333333 456.125A101.75 101.75 0 0 0 134.9583333333333 543.875C140.6666666666666 555.875 150.4583333333333 567.3333333333334 170 590.2916666666667A130.4583333333333 130.4583333333333 0 0 1 202.8333333333333 669.4583333333334C205.2083333333333 699.5416666666667 206.4166666666667 714.5833333333334 210.8333333333333 727.125A101.75 101.75 0 0 0 272.9166666666667 789.1666666666667C285.4166666666667 793.5833333333334 300.4166666666667 794.7916666666667 330.5 797.1666666666667A130.4583333333333 130.4583333333333 0 0 1 409.7083333333333 830z" />
    <glyph glyph-name="arrow-up-right"
      unicode="&#xEA21;"
      horiz-adv-x="1000" d="M270.8333333333333 270.8333333333334L729.1666666666666 729.1666666666667M729.1666666666666 729.1666666666667H354.1666666666667M729.1666666666666 729.1666666666667V354.1666666666668" />
    <glyph glyph-name="arrow-up-square"
      unicode="&#xEA22;"
      horiz-adv-x="1000" d="M500 312.5V687.5M354.1666666666667 541.6666666666667L500 687.5L645.8333333333333 541.6666666666667M125 500C125 676.7916666666667 125 765.1666666666667 179.9166666666666 820.0833333333334C234.8333333333333 875 323.25 875 500 875C676.7916666666667 875 765.1666666666666 875 820.0833333333334 820.0833333333334C875 765.1666666666667 875 676.75 875 500C875 323.2083333333333 875 234.8333333333334 820.0833333333333 179.9166666666666C765.1666666666666 125 676.75 125 500 125C323.2083333333333 125 234.8333333333333 125 179.9166666666666 179.9166666666668C125 234.8333333333334 125 323.25 125 500z" />
    <glyph glyph-name="arrow-up-waves"
      unicode="&#xEA23;"
      horiz-adv-x="1000" d="M500 312.5V687.5M354.1666666666667 541.6666666666667L500 687.5L645.8333333333333 541.6666666666667M409.7083333333333 830C432.625 849.5833333333333 444.125 859.3333333333333 456.125 865.0416666666667A101.75 101.75 0 0 0 543.875 865.0416666666667C555.875 859.3333333333334 567.3333333333334 849.5416666666667 590.2916666666667 830A130.5 130.5 0 0 1 669.4583333333333 797.1666666666666C699.5416666666667 794.7916666666666 714.5833333333333 793.5833333333333 727.125 789.1666666666666A101.75 101.75 0 0 0 789.1666666666666 727.0833333333333C793.5833333333334 714.5833333333333 794.7916666666667 699.5833333333333 797.1666666666666 669.5A130.4166666666667 130.4166666666667 0 0 1 830 590.2916666666667C849.5833333333333 567.375 859.3333333333334 555.875 865.0416666666667 543.875C878.3333333333334 516.125 878.3333333333334 483.875 865.0416666666667 456.125C859.3333333333334 444.125 849.5416666666667 432.6666666666667 830 409.7083333333333A130.4166666666667 130.4166666666667 0 0 1 797.1666666666666 330.5416666666668C794.7916666666667 300.4583333333333 793.5833333333334 285.4166666666668 789.1666666666666 272.875A101.75 101.75 0 0 0 727.0833333333334 210.8333333333334C714.5833333333334 206.4166666666666 699.5833333333334 205.2083333333333 669.5 202.8333333333334A130.4583333333333 130.4583333333333 0 0 1 590.2916666666667 170C567.375 150.4166666666668 555.875 140.6666666666666 543.875 134.9583333333333A101.7083333333333 101.7083333333333 0 0 0 456.125 134.9583333333333C444.125 140.6666666666666 432.6666666666667 150.4583333333333 409.7083333333333 170A130.4166666666667 130.4166666666667 0 0 1 330.5416666666667 202.8333333333334C300.4583333333333 205.2083333333333 285.4166666666667 206.4166666666666 272.875 210.8333333333334A101.75 101.75 0 0 0 210.8333333333333 272.9166666666667C206.4166666666667 285.4166666666667 205.2083333333333 300.4166666666667 202.8333333333333 330.5A130.5 130.5 0 0 1 170 409.7083333333333C150.4166666666666 432.625 140.6666666666666 444.125 134.9583333333333 456.125A101.75 101.75 0 0 0 134.9583333333333 543.875C140.6666666666666 555.875 150.4583333333333 567.3333333333334 170 590.2916666666667A130.4583333333333 130.4583333333333 0 0 1 202.8333333333333 669.4583333333334C205.2083333333333 699.5416666666667 206.4166666666667 714.5833333333334 210.8333333333333 727.125A101.75 101.75 0 0 0 272.9166666666667 789.1666666666667C285.4166666666667 793.5833333333334 300.4166666666667 794.7916666666667 330.5 797.1666666666667A130.4583333333333 130.4583333333333 0 0 1 409.7083333333333 830z" />
    <glyph glyph-name="arrow-up"
      unicode="&#xEA24;"
      horiz-adv-x="1000" d="M500 187.5V812.5M500 812.5L250 578.125M500 812.5L750 578.125" />
    <glyph glyph-name="at"
      unicode="&#xEA25;"
      horiz-adv-x="1000" d="M648.1666666666666 500.1666666666667V648.25M648.1666666666666 500.1666666666667C648.1666666666666 691.1666666666666 351.8333333333333 691.125 351.8333333333333 500.1666666666667C351.8333333333333 308.75 648.1666666666666 310.9166666666668 648.1666666666666 500.1666666666667zM648.1666666666666 500.1666666666667C648.1666666666666 314.9583333333333 833.3333333333333 314.9583333333333 833.3333333333333 500.1666666666667A333.25 333.25 0 0 1 500 833.3333333333334C315.9166666666667 833.3333333333334 166.6666666666667 684.1666666666667 166.6666666666667 500.1666666666667A333.25 333.25 0 0 1 500 167C562.0416666666666 163.875 645.8333333333333 182.5833333333333 713.9166666666666 234.8333333333334" />
    <glyph glyph-name="bell"
      unicode="&#xEA26;"
      horiz-adv-x="1000" d="M764.6666666666666 572.6666666666667C764.6666666666666 726.875 669.0833333333333 875 500 875S235.3333333333333 726.875 235.3333333333333 572.6666666666667C235.3333333333333 510.0833333333333 196.9583333333333 462.0833333333334 164.7083333333333 411.875C19.8333333333333 163.0833333333335 973.0416666666666 174.25 835.2916666666666 411.875C803.0416666666666 462.0833333333334 764.6666666666666 510.0833333333334 764.6666666666666 572.6666666666667zM360.125 234.6666666666668C386.3333333333333 170 419.5833333333333 125 500 125C580.375 125 613.6666666666666 170 639.8749999999999 234.6666666666668" />
    <glyph glyph-name="bookmark"
      unicode="&#xEA27;"
      horiz-adv-x="1000" d="M721.2916666666666 128.4583333333334L545.8749999999999 248.5833333333333A80.9166666666666 80.9166666666666 0 0 1 454.0833333333333 248.5833333333333L278.6666666666667 128.4583333333334C232.8333333333333 97.0416666666666 240.0416666666667 693.5416666666665 247.7916666666667 757.0416666666666C254.375 811.25 266.9583333333333 875 334.5416666666667 875H665.4999999999999C732.9999999999999 875 745.6249999999999 811.25 752.2499999999999 757.0416666666667C759.9583333333331 693.5416666666667 767.2083333333331 97.0416666666667 721.2916666666666 128.4583333333334z" />
    <glyph glyph-name="campfire"
      unicode="&#xEA28;"
      horiz-adv-x="1000" d="M225.9166666666667 137.2500000000001L362.9583333333333 187.125L500 237.0833333333335L637.0416666666666 286.9583333333334L774.0833333333333 336.8333333333334M774.0833333333333 137.2500000000001L225.9166666666667 336.7916666666668M682.7083333333333 518A197.9583333333333 197.9583333333333 0 0 0 500 395.8333333333334C390.7083333333333 395.8333333333334 302.0833333333333 484.75 302.0833333333333 594.4583333333333C302.0833333333333 704.125 343.6666666666667 749 408.6666666666667 854.1666666666666C530.4583333333333 800.7083333333333 530.4583333333333 640.2916666666666 530.4583333333333 640.2916666666666S570.4583333333333 717.625 652.25 754.875C678.4999999999999 677.375 713.8333333333334 592.7916666666666 682.7083333333334 518z" />
    <glyph glyph-name="check-circle"
      unicode="&#xEA29;"
      horiz-adv-x="1000" d="M125 500A375 375 0 0 1 875 500A375 375 0 0 1 125 500M361.125 486.125L423.8333333333333 414.4166666666668A41.6666666666667 41.6666666666667 0 0 1 489 417.4583333333334L638.875 625" />
    <glyph glyph-name="check-square"
      unicode="&#xEA2A;"
      horiz-adv-x="1000" d="M361.125 486.125L423.8333333333333 414.4166666666668A41.6666666666667 41.6666666666667 0 0 1 489 417.4583333333334L638.875 625M125 500C125 676.7916666666667 125 765.1666666666667 179.9166666666666 820.0833333333334C234.8333333333333 875 323.25 875 500 875C676.7916666666667 875 765.1666666666666 875 820.0833333333334 820.0833333333334C875 765.1666666666667 875 676.75 875 500C875 323.2083333333333 875 234.8333333333334 820.0833333333333 179.9166666666666C765.1666666666666 125 676.75 125 500 125C323.2083333333333 125 234.8333333333333 125 179.9166666666666 179.9166666666668C125 234.8333333333334 125 323.25 125 500z" />
    <glyph glyph-name="check-waves"
      unicode="&#xEA2B;"
      horiz-adv-x="1000" d="M361.125 486.125L423.8333333333333 414.4166666666668A41.6666666666667 41.6666666666667 0 0 1 489 417.4583333333334L638.875 625M409.7083333333333 830C432.625 849.5833333333333 444.125 859.3333333333333 456.125 865.0416666666667A101.75 101.75 0 0 0 543.875 865.0416666666667C555.875 859.3333333333334 567.3333333333334 849.5416666666667 590.2916666666667 830A130.5 130.5 0 0 1 669.4583333333333 797.1666666666666C699.5416666666667 794.7916666666666 714.5833333333333 793.5833333333333 727.125 789.1666666666666A101.75 101.75 0 0 0 789.1666666666666 727.0833333333333C793.5833333333334 714.5833333333333 794.7916666666667 699.5833333333333 797.1666666666666 669.5A130.4166666666667 130.4166666666667 0 0 1 830 590.2916666666667C849.5833333333333 567.375 859.3333333333334 555.875 865.0416666666667 543.875C878.3333333333334 516.125 878.3333333333334 483.875 865.0416666666667 456.125C859.3333333333334 444.125 849.5416666666667 432.6666666666667 830 409.7083333333333A130.4166666666667 130.4166666666667 0 0 1 797.1666666666666 330.5416666666668C794.7916666666667 300.4583333333333 793.5833333333334 285.4166666666668 789.1666666666666 272.875A101.75 101.75 0 0 0 727.0833333333334 210.8333333333334C714.5833333333334 206.4166666666666 699.5833333333334 205.2083333333333 669.5 202.8333333333334A130.4583333333333 130.4583333333333 0 0 1 590.2916666666667 170C567.375 150.4166666666668 555.875 140.6666666666666 543.875 134.9583333333333A101.7083333333333 101.7083333333333 0 0 0 456.125 134.9583333333333C444.125 140.6666666666666 432.6666666666667 150.4583333333333 409.7083333333333 170A130.4166666666667 130.4166666666667 0 0 1 330.5416666666667 202.8333333333334C300.4583333333333 205.2083333333333 285.4166666666667 206.4166666666666 272.875 210.8333333333334A101.75 101.75 0 0 0 210.8333333333333 272.9166666666667C206.4166666666667 285.4166666666667 205.2083333333333 300.4166666666667 202.8333333333333 330.5A130.5 130.5 0 0 1 170 409.7083333333333C150.4166666666666 432.625 140.6666666666666 444.125 134.9583333333333 456.125A101.75 101.75 0 0 0 134.9583333333333 543.875C140.6666666666666 555.875 150.4583333333333 567.3333333333334 170 590.2916666666667A130.4583333333333 130.4583333333333 0 0 1 202.8333333333333 669.4583333333334C205.2083333333333 699.5416666666667 206.4166666666667 714.5833333333334 210.8333333333333 727.125A101.75 101.75 0 0 0 272.9166666666667 789.1666666666667C285.4166666666667 793.5833333333334 300.4166666666667 794.7916666666667 330.5 797.1666666666667A130.4583333333333 130.4583333333333 0 0 1 409.7083333333333 830z" />
    <glyph glyph-name="check"
      unicode="&#xEA2C;"
      horiz-adv-x="1000" d="M175.9166666666667 467.5833333333334L368.2916666666667 247.75A41.6666666666667 41.6666666666667 0 0 1 433.4166666666667 250.7916666666667L824.125 791.6666666666667" />
    <glyph glyph-name="chevron-double-down-left"
      unicode="&#xEA2D;"
      horiz-adv-x="1000" d="M260.7083333333333 614.2916666666667V260.7083333333333H614.2916666666666M385.7083333333333 739.2916666666667V385.7083333333334H739.2916666666667" />
    <glyph glyph-name="chevron-double-down-right"
      unicode="&#xEA2E;"
      horiz-adv-x="1000" d="M385.7083333333333 260.7083333333335H739.2916666666667V614.2916666666667M260.7083333333333 385.7083333333334H614.2916666666666V739.2916666666667" />
    <glyph glyph-name="chevron-double-down"
      unicode="&#xEA2F;"
      horiz-adv-x="1000" d="M250 708.3333333333334L500 458.3333333333334L750 708.3333333333334M250 541.6666666666667L500 291.6666666666668L750 541.6666666666667" />
    <glyph glyph-name="chevron-double-left"
      unicode="&#xEA30;"
      horiz-adv-x="1000" d="M541.6666666666666 750L291.6666666666667 500L541.6666666666666 250M708.3333333333333 750L458.3333333333333 500L708.3333333333333 250" />
    <glyph glyph-name="chevron-double-right"
      unicode="&#xEA31;"
      horiz-adv-x="1000" d="M458.3333333333333 250L708.3333333333333 500L458.3333333333333 750M291.6666666666667 250L541.6666666666666 500L291.6666666666667 750" />
    <glyph glyph-name="chevron-double-up-left"
      unicode="&#xEA32;"
      horiz-adv-x="1000" d="M614.2916666666666 739.2916666666667H260.7083333333333V385.7083333333334M739.2916666666665 614.2916666666667H385.7083333333333V260.7083333333333" />
    <glyph glyph-name="chevron-double-up-right"
      unicode="&#xEA33;"
      horiz-adv-x="1000" d="M739.2916666666665 385.7083333333334V739.2916666666667H385.7083333333333M614.2916666666666 260.7083333333335V614.2916666666667H260.7083333333333" />
    <glyph glyph-name="chevron-double-up"
      unicode="&#xEA34;"
      horiz-adv-x="1000" d="M750 458.3333333333334L500 708.3333333333334L250 458.3333333333334M750 291.6666666666668L500 541.6666666666667L250 291.6666666666668" />
    <glyph glyph-name="chevron-down-circle"
      unicode="&#xEA35;"
      horiz-adv-x="1000" d="M125 500A375 375 0 0 1 875 500A375 375 0 0 1 125 500M645.8333333333333 552.0833333333334L500 406.25L354.1666666666667 552.0833333333334" />
    <glyph glyph-name="chevron-down-left-circle"
      unicode="&#xEA36;"
      horiz-adv-x="1000" d="M125 500A375 375 0 0 1 875 500A375 375 0 0 1 125 500M622.9166666666666 418.7500000000001H416.6666666666667V625" />
    <glyph glyph-name="chevron-down-left-square"
      unicode="&#xEA37;"
      horiz-adv-x="1000" d="M622.9166666666666 418.7500000000001H416.6666666666667V625M125 500C125 676.7916666666667 125 765.1666666666667 179.9166666666666 820.0833333333334C234.8333333333333 875 323.25 875 500 875C676.7916666666667 875 765.1666666666666 875 820.0833333333334 820.0833333333334C875 765.1666666666667 875 676.75 875 500C875 323.2083333333333 875 234.8333333333334 820.0833333333333 179.9166666666666C765.1666666666666 125 676.75 125 500 125C323.2083333333333 125 234.8333333333333 125 179.9166666666666 179.9166666666668C125 234.8333333333334 125 323.25 125 500z" />
    <glyph glyph-name="chevron-down-left-waves"
      unicode="&#xEA38;"
      horiz-adv-x="1000" d="M622.9166666666666 418.7500000000001H416.6666666666667V625M409.7083333333333 830C432.625 849.5833333333333 444.125 859.3333333333333 456.125 865.0416666666667A101.75 101.75 0 0 0 543.875 865.0416666666667C555.875 859.3333333333334 567.3333333333334 849.5416666666667 590.2916666666667 830A130.5 130.5 0 0 1 669.4583333333333 797.1666666666666C699.5416666666667 794.7916666666666 714.5833333333333 793.5833333333333 727.125 789.1666666666666A101.75 101.75 0 0 0 789.1666666666666 727.0833333333333C793.5833333333334 714.5833333333333 794.7916666666667 699.5833333333333 797.1666666666666 669.5A130.4166666666667 130.4166666666667 0 0 1 830 590.2916666666667C849.5833333333333 567.375 859.3333333333334 555.875 865.0416666666667 543.875C878.3333333333334 516.125 878.3333333333334 483.875 865.0416666666667 456.125C859.3333333333334 444.125 849.5416666666667 432.6666666666667 830 409.7083333333333A130.4166666666667 130.4166666666667 0 0 1 797.1666666666666 330.5416666666668C794.7916666666667 300.4583333333333 793.5833333333334 285.4166666666668 789.1666666666666 272.875A101.75 101.75 0 0 0 727.0833333333334 210.8333333333334C714.5833333333334 206.4166666666666 699.5833333333334 205.2083333333333 669.5 202.8333333333334A130.4583333333333 130.4583333333333 0 0 1 590.2916666666667 170C567.375 150.4166666666668 555.875 140.6666666666666 543.875 134.9583333333333A101.7083333333333 101.7083333333333 0 0 0 456.125 134.9583333333333C444.125 140.6666666666666 432.6666666666667 150.4583333333333 409.7083333333333 170A130.4166666666667 130.4166666666667 0 0 1 330.5416666666667 202.8333333333334C300.4583333333333 205.2083333333333 285.4166666666667 206.4166666666666 272.875 210.8333333333334A101.75 101.75 0 0 0 210.8333333333333 272.9166666666667C206.4166666666667 285.4166666666667 205.2083333333333 300.4166666666667 202.8333333333333 330.5A130.5 130.5 0 0 1 170 409.7083333333333C150.4166666666666 432.625 140.6666666666666 444.125 134.9583333333333 456.125A101.75 101.75 0 0 0 134.9583333333333 543.875C140.6666666666666 555.875 150.4583333333333 567.3333333333334 170 590.2916666666667A130.4583333333333 130.4583333333333 0 0 1 202.8333333333333 669.4583333333334C205.2083333333333 699.5416666666667 206.4166666666667 714.5833333333334 210.8333333333333 727.125A101.75 101.75 0 0 0 272.9166666666667 789.1666666666667C285.4166666666667 793.5833333333334 300.4166666666667 794.7916666666667 330.5 797.1666666666667A130.4583333333333 130.4583333333333 0 0 1 409.7083333333333 830z" />
    <glyph glyph-name="chevron-down-left"
      unicode="&#xEA39;"
      horiz-adv-x="1000" d="M328.2916666666667 681.8333333333334V328.2916666666668H681.8333333333331" />
    <glyph glyph-name="chevron-down-right-circle"
      unicode="&#xEA3A;"
      horiz-adv-x="1000" d="M125 500A375 375 0 0 1 875 500A375 375 0 0 1 125 500M581.2499999999999 625V418.7500000000001H375" />
    <glyph glyph-name="chevron-down-right-square"
      unicode="&#xEA3B;"
      horiz-adv-x="1000" d="M581.2499999999999 625V418.7500000000001H375M125 500C125 676.7916666666667 125 765.1666666666667 179.9166666666666 820.0833333333334C234.8333333333333 875 323.25 875 500 875C676.7916666666667 875 765.1666666666666 875 820.0833333333334 820.0833333333334C875 765.1666666666667 875 676.75 875 500C875 323.2083333333333 875 234.8333333333334 820.0833333333333 179.9166666666666C765.1666666666666 125 676.75 125 500 125C323.2083333333333 125 234.8333333333333 125 179.9166666666666 179.9166666666668C125 234.8333333333334 125 323.25 125 500z" />
    <glyph glyph-name="chevron-down-right-waves"
      unicode="&#xEA3C;"
      horiz-adv-x="1000" d="M581.2499999999999 625V418.7500000000001H375M409.7083333333333 830C432.625 849.5833333333333 444.125 859.3333333333333 456.125 865.0416666666667A101.75 101.75 0 0 0 543.875 865.0416666666667C555.875 859.3333333333334 567.3333333333334 849.5416666666667 590.2916666666667 830A130.5 130.5 0 0 1 669.4583333333333 797.1666666666666C699.5416666666667 794.7916666666666 714.5833333333333 793.5833333333333 727.125 789.1666666666666A101.75 101.75 0 0 0 789.1666666666666 727.0833333333333C793.5833333333334 714.5833333333333 794.7916666666667 699.5833333333333 797.1666666666666 669.5A130.4166666666667 130.4166666666667 0 0 1 830 590.2916666666667C849.5833333333333 567.375 859.3333333333334 555.875 865.0416666666667 543.875C878.3333333333334 516.125 878.3333333333334 483.875 865.0416666666667 456.125C859.3333333333334 444.125 849.5416666666667 432.6666666666667 830 409.7083333333333A130.4166666666667 130.4166666666667 0 0 1 797.1666666666666 330.5416666666668C794.7916666666667 300.4583333333333 793.5833333333334 285.4166666666668 789.1666666666666 272.875A101.75 101.75 0 0 0 727.0833333333334 210.8333333333334C714.5833333333334 206.4166666666666 699.5833333333334 205.2083333333333 669.5 202.8333333333334A130.4583333333333 130.4583333333333 0 0 1 590.2916666666667 170C567.375 150.4166666666668 555.875 140.6666666666666 543.875 134.9583333333333A101.7083333333333 101.7083333333333 0 0 0 456.125 134.9583333333333C444.125 140.6666666666666 432.6666666666667 150.4583333333333 409.7083333333333 170A130.4166666666667 130.4166666666667 0 0 1 330.5416666666667 202.8333333333334C300.4583333333333 205.2083333333333 285.4166666666667 206.4166666666666 272.875 210.8333333333334A101.75 101.75 0 0 0 210.8333333333333 272.9166666666667C206.4166666666667 285.4166666666667 205.2083333333333 300.4166666666667 202.8333333333333 330.5A130.5 130.5 0 0 1 170 409.7083333333333C150.4166666666666 432.625 140.6666666666666 444.125 134.9583333333333 456.125A101.75 101.75 0 0 0 134.9583333333333 543.875C140.6666666666666 555.875 150.4583333333333 567.3333333333334 170 590.2916666666667A130.4583333333333 130.4583333333333 0 0 1 202.8333333333333 669.4583333333334C205.2083333333333 699.5416666666667 206.4166666666667 714.5833333333334 210.8333333333333 727.125A101.75 101.75 0 0 0 272.9166666666667 789.1666666666667C285.4166666666667 793.5833333333334 300.4166666666667 794.7916666666667 330.5 797.1666666666667A130.4583333333333 130.4583333333333 0 0 1 409.7083333333333 830z" />
    <glyph glyph-name="chevron-down-right"
      unicode="&#xEA3D;"
      horiz-adv-x="1000" d="M671.7083333333333 681.8333333333334V328.2916666666668H318.1666666666667" />
    <glyph glyph-name="chevron-down-square"
      unicode="&#xEA3E;"
      horiz-adv-x="1000" d="M645.8333333333333 552.0833333333334L500 406.25L354.1666666666667 552.0833333333334M125 500C125 676.7916666666667 125 765.1666666666667 179.9166666666666 820.0833333333334C234.8333333333333 875 323.25 875 500 875C676.7916666666667 875 765.1666666666666 875 820.0833333333334 820.0833333333334C875 765.1666666666667 875 676.75 875 500C875 323.2083333333333 875 234.8333333333334 820.0833333333333 179.9166666666666C765.1666666666666 125 676.75 125 500 125C323.2083333333333 125 234.8333333333333 125 179.9166666666666 179.9166666666668C125 234.8333333333334 125 323.25 125 500z" />
    <glyph glyph-name="chevron-down-waves"
      unicode="&#xEA3F;"
      horiz-adv-x="1000" d="M645.8333333333333 552.0833333333334L500 406.25L354.1666666666667 552.0833333333334M409.7083333333333 830C432.625 849.5833333333333 444.125 859.3333333333333 456.125 865.0416666666667A101.75 101.75 0 0 0 543.875 865.0416666666667C555.875 859.3333333333334 567.3333333333334 849.5416666666667 590.2916666666667 830A130.5 130.5 0 0 1 669.4583333333333 797.1666666666666C699.5416666666667 794.7916666666666 714.5833333333333 793.5833333333333 727.125 789.1666666666666A101.75 101.75 0 0 0 789.1666666666666 727.0833333333333C793.5833333333334 714.5833333333333 794.7916666666667 699.5833333333333 797.1666666666666 669.5A130.4166666666667 130.4166666666667 0 0 1 830 590.2916666666667C849.5833333333333 567.375 859.3333333333334 555.875 865.0416666666667 543.875C878.3333333333334 516.125 878.3333333333334 483.875 865.0416666666667 456.125C859.3333333333334 444.125 849.5416666666667 432.6666666666667 830 409.7083333333333A130.4166666666667 130.4166666666667 0 0 1 797.1666666666666 330.5416666666668C794.7916666666667 300.4583333333333 793.5833333333334 285.4166666666668 789.1666666666666 272.875A101.75 101.75 0 0 0 727.0833333333334 210.8333333333334C714.5833333333334 206.4166666666666 699.5833333333334 205.2083333333333 669.5 202.8333333333334A130.4583333333333 130.4583333333333 0 0 1 590.2916666666667 170C567.375 150.4166666666668 555.875 140.6666666666666 543.875 134.9583333333333A101.7083333333333 101.7083333333333 0 0 0 456.125 134.9583333333333C444.125 140.6666666666666 432.6666666666667 150.4583333333333 409.7083333333333 170A130.4166666666667 130.4166666666667 0 0 1 330.5416666666667 202.8333333333334C300.4583333333333 205.2083333333333 285.4166666666667 206.4166666666666 272.875 210.8333333333334A101.75 101.75 0 0 0 210.8333333333333 272.9166666666667C206.4166666666667 285.4166666666667 205.2083333333333 300.4166666666667 202.8333333333333 330.5A130.5 130.5 0 0 1 170 409.7083333333333C150.4166666666666 432.625 140.6666666666666 444.125 134.9583333333333 456.125A101.75 101.75 0 0 0 134.9583333333333 543.875C140.6666666666666 555.875 150.4583333333333 567.3333333333334 170 590.2916666666667A130.4583333333333 130.4583333333333 0 0 1 202.8333333333333 669.4583333333334C205.2083333333333 699.5416666666667 206.4166666666667 714.5833333333334 210.8333333333333 727.125A101.75 101.75 0 0 0 272.9166666666667 789.1666666666667C285.4166666666667 793.5833333333334 300.4166666666667 794.7916666666667 330.5 797.1666666666667A130.4583333333333 130.4583333333333 0 0 1 409.7083333333333 830z" />
    <glyph glyph-name="chevron-down"
      unicode="&#xEA40;"
      horiz-adv-x="1000" d="M250 625L500 375L750 625" />
    <glyph glyph-name="chevron-left-circle"
      unicode="&#xEA41;"
      horiz-adv-x="1000" d="M125 500A375 375 0 0 1 875 500A375 375 0 0 1 125 500M552.0833333333333 354.1666666666668L406.25 500L552.0833333333333 645.8333333333334" />
    <glyph glyph-name="chevron-left-square"
      unicode="&#xEA42;"
      horiz-adv-x="1000" d="M552.0833333333333 354.1666666666668L406.25 500L552.0833333333333 645.8333333333334M125 500C125 676.7916666666667 125 765.1666666666667 179.9166666666666 820.0833333333334C234.8333333333333 875 323.25 875 500 875C676.7916666666667 875 765.1666666666666 875 820.0833333333334 820.0833333333334C875 765.1666666666667 875 676.75 875 500C875 323.2083333333333 875 234.8333333333334 820.0833333333333 179.9166666666666C765.1666666666666 125 676.75 125 500 125C323.2083333333333 125 234.8333333333333 125 179.9166666666666 179.9166666666668C125 234.8333333333334 125 323.25 125 500z" />
    <glyph glyph-name="chevron-left-waves"
      unicode="&#xEA43;"
      horiz-adv-x="1000" d="M552.0833333333333 354.1666666666668L406.25 500L552.0833333333333 645.8333333333334M409.7083333333333 830C432.625 849.5833333333333 444.125 859.3333333333333 456.125 865.0416666666667A101.75 101.75 0 0 0 543.875 865.0416666666667C555.875 859.3333333333334 567.3333333333334 849.5416666666667 590.2916666666667 830A130.5 130.5 0 0 1 669.4583333333333 797.1666666666666C699.5416666666667 794.7916666666666 714.5833333333333 793.5833333333333 727.125 789.1666666666666A101.75 101.75 0 0 0 789.1666666666666 727.0833333333333C793.5833333333334 714.5833333333333 794.7916666666667 699.5833333333333 797.1666666666666 669.5A130.4166666666667 130.4166666666667 0 0 1 830 590.2916666666667C849.5833333333333 567.375 859.3333333333334 555.875 865.0416666666667 543.875C878.3333333333334 516.125 878.3333333333334 483.875 865.0416666666667 456.125C859.3333333333334 444.125 849.5416666666667 432.6666666666667 830 409.7083333333333A130.4166666666667 130.4166666666667 0 0 1 797.1666666666666 330.5416666666668C794.7916666666667 300.4583333333333 793.5833333333334 285.4166666666668 789.1666666666666 272.875A101.75 101.75 0 0 0 727.0833333333334 210.8333333333334C714.5833333333334 206.4166666666666 699.5833333333334 205.2083333333333 669.5 202.8333333333334A130.4583333333333 130.4583333333333 0 0 1 590.2916666666667 170C567.375 150.4166666666668 555.875 140.6666666666666 543.875 134.9583333333333A101.7083333333333 101.7083333333333 0 0 0 456.125 134.9583333333333C444.125 140.6666666666666 432.6666666666667 150.4583333333333 409.7083333333333 170A130.4166666666667 130.4166666666667 0 0 1 330.5416666666667 202.8333333333334C300.4583333333333 205.2083333333333 285.4166666666667 206.4166666666666 272.875 210.8333333333334A101.75 101.75 0 0 0 210.8333333333333 272.9166666666667C206.4166666666667 285.4166666666667 205.2083333333333 300.4166666666667 202.8333333333333 330.5A130.5 130.5 0 0 1 170 409.7083333333333C150.4166666666666 432.625 140.6666666666666 444.125 134.9583333333333 456.125A101.75 101.75 0 0 0 134.9583333333333 543.875C140.6666666666666 555.875 150.4583333333333 567.3333333333334 170 590.2916666666667A130.4583333333333 130.4583333333333 0 0 1 202.8333333333333 669.4583333333334C205.2083333333333 699.5416666666667 206.4166666666667 714.5833333333334 210.8333333333333 727.125A101.75 101.75 0 0 0 272.9166666666667 789.1666666666667C285.4166666666667 793.5833333333334 300.4166666666667 794.7916666666667 330.5 797.1666666666667A130.4583333333333 130.4583333333333 0 0 1 409.7083333333333 830z" />
    <glyph glyph-name="chevron-left"
      unicode="&#xEA44;"
      horiz-adv-x="1000" d="M625 750L375 500L625 250" />
    <glyph glyph-name="chevron-right-circle"
      unicode="&#xEA45;"
      horiz-adv-x="1000" d="M125 500A375 375 0 0 1 875 500A375 375 0 0 1 125 500M447.9166666666667 645.8333333333334L593.75 500L447.9166666666667 354.1666666666668" />
    <glyph glyph-name="chevron-right-square"
      unicode="&#xEA46;"
      horiz-adv-x="1000" d="M447.9166666666667 645.8333333333334L593.75 500L447.9166666666667 354.1666666666668M125 500C125 676.7916666666667 125 765.1666666666667 179.9166666666666 820.0833333333334C234.8333333333333 875 323.25 875 500 875C676.7916666666667 875 765.1666666666666 875 820.0833333333334 820.0833333333334C875 765.1666666666667 875 676.75 875 500C875 323.2083333333333 875 234.8333333333334 820.0833333333333 179.9166666666666C765.1666666666666 125 676.75 125 500 125C323.2083333333333 125 234.8333333333333 125 179.9166666666666 179.9166666666668C125 234.8333333333334 125 323.25 125 500z" />
    <glyph glyph-name="chevron-right-waves"
      unicode="&#xEA47;"
      horiz-adv-x="1000" d="M447.9166666666667 645.8333333333334L593.75 500L447.9166666666667 354.1666666666668M409.7083333333333 830C432.625 849.5833333333333 444.125 859.3333333333333 456.125 865.0416666666667A101.75 101.75 0 0 0 543.875 865.0416666666667C555.875 859.3333333333334 567.3333333333334 849.5416666666667 590.2916666666667 830A130.5 130.5 0 0 1 669.4583333333333 797.1666666666666C699.5416666666667 794.7916666666666 714.5833333333333 793.5833333333333 727.125 789.1666666666666A101.75 101.75 0 0 0 789.1666666666666 727.0833333333333C793.5833333333334 714.5833333333333 794.7916666666667 699.5833333333333 797.1666666666666 669.5A130.4166666666667 130.4166666666667 0 0 1 830 590.2916666666667C849.5833333333333 567.375 859.3333333333334 555.875 865.0416666666667 543.875C878.3333333333334 516.125 878.3333333333334 483.875 865.0416666666667 456.125C859.3333333333334 444.125 849.5416666666667 432.6666666666667 830 409.7083333333333A130.4166666666667 130.4166666666667 0 0 1 797.1666666666666 330.5416666666668C794.7916666666667 300.4583333333333 793.5833333333334 285.4166666666668 789.1666666666666 272.875A101.75 101.75 0 0 0 727.0833333333334 210.8333333333334C714.5833333333334 206.4166666666666 699.5833333333334 205.2083333333333 669.5 202.8333333333334A130.4583333333333 130.4583333333333 0 0 1 590.2916666666667 170C567.375 150.4166666666668 555.875 140.6666666666666 543.875 134.9583333333333A101.7083333333333 101.7083333333333 0 0 0 456.125 134.9583333333333C444.125 140.6666666666666 432.6666666666667 150.4583333333333 409.7083333333333 170A130.4166666666667 130.4166666666667 0 0 1 330.5416666666667 202.8333333333334C300.4583333333333 205.2083333333333 285.4166666666667 206.4166666666666 272.875 210.8333333333334A101.75 101.75 0 0 0 210.8333333333333 272.9166666666667C206.4166666666667 285.4166666666667 205.2083333333333 300.4166666666667 202.8333333333333 330.5A130.5 130.5 0 0 1 170 409.7083333333333C150.4166666666666 432.625 140.6666666666666 444.125 134.9583333333333 456.125A101.75 101.75 0 0 0 134.9583333333333 543.875C140.6666666666666 555.875 150.4583333333333 567.3333333333334 170 590.2916666666667A130.4583333333333 130.4583333333333 0 0 1 202.8333333333333 669.4583333333334C205.2083333333333 699.5416666666667 206.4166666666667 714.5833333333334 210.8333333333333 727.125A101.75 101.75 0 0 0 272.9166666666667 789.1666666666667C285.4166666666667 793.5833333333334 300.4166666666667 794.7916666666667 330.5 797.1666666666667A130.4583333333333 130.4583333333333 0 0 1 409.7083333333333 830z" />
    <glyph glyph-name="chevron-right"
      unicode="&#xEA48;"
      horiz-adv-x="1000" d="M375 250L625 500L375 750" />
    <glyph glyph-name="chevron-up-circle"
      unicode="&#xEA49;"
      horiz-adv-x="1000" d="M125 500A375 375 0 0 1 875 500A375 375 0 0 1 125 500M354.1666666666667 447.9166666666668L500 593.75L645.8333333333333 447.9166666666668" />
    <glyph glyph-name="chevron-up-left-circle"
      unicode="&#xEA4A;"
      horiz-adv-x="1000" d="M125 500A375 375 0 0 1 875 500A375 375 0 0 1 125 500M416.6666666666667 377.0833333333334V583.3333333333334H622.9166666666666" />
    <glyph glyph-name="chevron-up-left-square"
      unicode="&#xEA4B;"
      horiz-adv-x="1000" d="M416.6666666666667 377.0833333333334V583.3333333333334H622.9166666666666M125 500C125 676.7916666666667 125 765.1666666666667 179.9166666666666 820.0833333333334C234.8333333333333 875 323.25 875 500 875C676.7916666666667 875 765.1666666666666 875 820.0833333333334 820.0833333333334C875 765.1666666666667 875 676.75 875 500C875 323.2083333333333 875 234.8333333333334 820.0833333333333 179.9166666666666C765.1666666666666 125 676.75 125 500 125C323.2083333333333 125 234.8333333333333 125 179.9166666666666 179.9166666666668C125 234.8333333333334 125 323.25 125 500z" />
    <glyph glyph-name="chevron-up-left-waves"
      unicode="&#xEA4C;"
      horiz-adv-x="1000" d="M416.6666666666667 377.0833333333334V583.3333333333334H622.9166666666666M409.7083333333333 830C432.625 849.5833333333333 444.125 859.3333333333333 456.125 865.0416666666667A101.75 101.75 0 0 0 543.875 865.0416666666667C555.875 859.3333333333334 567.3333333333334 849.5416666666667 590.2916666666667 830A130.5 130.5 0 0 1 669.4583333333333 797.1666666666666C699.5416666666667 794.7916666666666 714.5833333333333 793.5833333333333 727.125 789.1666666666666A101.75 101.75 0 0 0 789.1666666666666 727.0833333333333C793.5833333333334 714.5833333333333 794.7916666666667 699.5833333333333 797.1666666666666 669.5A130.4166666666667 130.4166666666667 0 0 1 830 590.2916666666667C849.5833333333333 567.375 859.3333333333334 555.875 865.0416666666667 543.875C878.3333333333334 516.125 878.3333333333334 483.875 865.0416666666667 456.125C859.3333333333334 444.125 849.5416666666667 432.6666666666667 830 409.7083333333333A130.4166666666667 130.4166666666667 0 0 1 797.1666666666666 330.5416666666668C794.7916666666667 300.4583333333333 793.5833333333334 285.4166666666668 789.1666666666666 272.875A101.75 101.75 0 0 0 727.0833333333334 210.8333333333334C714.5833333333334 206.4166666666666 699.5833333333334 205.2083333333333 669.5 202.8333333333334A130.4583333333333 130.4583333333333 0 0 1 590.2916666666667 170C567.375 150.4166666666668 555.875 140.6666666666666 543.875 134.9583333333333A101.7083333333333 101.7083333333333 0 0 0 456.125 134.9583333333333C444.125 140.6666666666666 432.6666666666667 150.4583333333333 409.7083333333333 170A130.4166666666667 130.4166666666667 0 0 1 330.5416666666667 202.8333333333334C300.4583333333333 205.2083333333333 285.4166666666667 206.4166666666666 272.875 210.8333333333334A101.75 101.75 0 0 0 210.8333333333333 272.9166666666667C206.4166666666667 285.4166666666667 205.2083333333333 300.4166666666667 202.8333333333333 330.5A130.5 130.5 0 0 1 170 409.7083333333333C150.4166666666666 432.625 140.6666666666666 444.125 134.9583333333333 456.125A101.75 101.75 0 0 0 134.9583333333333 543.875C140.6666666666666 555.875 150.4583333333333 567.3333333333334 170 590.2916666666667A130.4583333333333 130.4583333333333 0 0 1 202.8333333333333 669.4583333333334C205.2083333333333 699.5416666666667 206.4166666666667 714.5833333333334 210.8333333333333 727.125A101.75 101.75 0 0 0 272.9166666666667 789.1666666666667C285.4166666666667 793.5833333333334 300.4166666666667 794.7916666666667 330.5 797.1666666666667A130.4583333333333 130.4583333333333 0 0 1 409.7083333333333 830z" />
    <glyph glyph-name="chevron-up-left"
      unicode="&#xEA4D;"
      horiz-adv-x="1000" d="M328.2916666666667 318.1666666666667V671.7083333333334H681.8333333333331" />
    <glyph glyph-name="chevron-up-right-circle"
      unicode="&#xEA4E;"
      horiz-adv-x="1000" d="M125 500A375 375 0 0 1 875 500A375 375 0 0 1 125 500M375 583.3333333333334H581.2499999999999V377.0833333333334" />
    <glyph glyph-name="chevron-up-right-square"
      unicode="&#xEA4F;"
      horiz-adv-x="1000" d="M375 583.3333333333334H581.2499999999999V377.0833333333334M125 500C125 676.7916666666667 125 765.1666666666667 179.9166666666666 820.0833333333334C234.8333333333333 875 323.25 875 500 875C676.7916666666667 875 765.1666666666666 875 820.0833333333334 820.0833333333334C875 765.1666666666667 875 676.75 875 500C875 323.2083333333333 875 234.8333333333334 820.0833333333333 179.9166666666666C765.1666666666666 125 676.75 125 500 125C323.2083333333333 125 234.8333333333333 125 179.9166666666666 179.9166666666668C125 234.8333333333334 125 323.25 125 500z" />
    <glyph glyph-name="chevron-up-right-waves"
      unicode="&#xEA50;"
      horiz-adv-x="1000" d="M375 583.3333333333334H581.2499999999999V377.0833333333334M409.7083333333333 830C432.625 849.5833333333333 444.125 859.3333333333333 456.125 865.0416666666667A101.75 101.75 0 0 0 543.875 865.0416666666667C555.875 859.3333333333334 567.3333333333334 849.5416666666667 590.2916666666667 830A130.5 130.5 0 0 1 669.4583333333333 797.1666666666666C699.5416666666667 794.7916666666666 714.5833333333333 793.5833333333333 727.125 789.1666666666666A101.75 101.75 0 0 0 789.1666666666666 727.0833333333333C793.5833333333334 714.5833333333333 794.7916666666667 699.5833333333333 797.1666666666666 669.5A130.4166666666667 130.4166666666667 0 0 1 830 590.2916666666667C849.5833333333333 567.375 859.3333333333334 555.875 865.0416666666667 543.875C878.3333333333334 516.125 878.3333333333334 483.875 865.0416666666667 456.125C859.3333333333334 444.125 849.5416666666667 432.6666666666667 830 409.7083333333333A130.4166666666667 130.4166666666667 0 0 1 797.1666666666666 330.5416666666668C794.7916666666667 300.4583333333333 793.5833333333334 285.4166666666668 789.1666666666666 272.875A101.75 101.75 0 0 0 727.0833333333334 210.8333333333334C714.5833333333334 206.4166666666666 699.5833333333334 205.2083333333333 669.5 202.8333333333334A130.4583333333333 130.4583333333333 0 0 1 590.2916666666667 170C567.375 150.4166666666668 555.875 140.6666666666666 543.875 134.9583333333333A101.7083333333333 101.7083333333333 0 0 0 456.125 134.9583333333333C444.125 140.6666666666666 432.6666666666667 150.4583333333333 409.7083333333333 170A130.4166666666667 130.4166666666667 0 0 1 330.5416666666667 202.8333333333334C300.4583333333333 205.2083333333333 285.4166666666667 206.4166666666666 272.875 210.8333333333334A101.75 101.75 0 0 0 210.8333333333333 272.9166666666667C206.4166666666667 285.4166666666667 205.2083333333333 300.4166666666667 202.8333333333333 330.5A130.5 130.5 0 0 1 170 409.7083333333333C150.4166666666666 432.625 140.6666666666666 444.125 134.9583333333333 456.125A101.75 101.75 0 0 0 134.9583333333333 543.875C140.6666666666666 555.875 150.4583333333333 567.3333333333334 170 590.2916666666667A130.4583333333333 130.4583333333333 0 0 1 202.8333333333333 669.4583333333334C205.2083333333333 699.5416666666667 206.4166666666667 714.5833333333334 210.8333333333333 727.125A101.75 101.75 0 0 0 272.9166666666667 789.1666666666667C285.4166666666667 793.5833333333334 300.4166666666667 794.7916666666667 330.5 797.1666666666667A130.4583333333333 130.4583333333333 0 0 1 409.7083333333333 830z" />
    <glyph glyph-name="chevron-up-right"
      unicode="&#xEA51;"
      horiz-adv-x="1000" d="M671.7083333333333 318.1666666666667V671.7083333333334H318.1666666666667" />
    <glyph glyph-name="chevron-up-square"
      unicode="&#xEA52;"
      horiz-adv-x="1000" d="M354.1666666666667 447.9166666666668L500 593.75L645.8333333333333 447.9166666666668M125 500C125 676.7916666666667 125 765.1666666666667 179.9166666666666 820.0833333333334C234.8333333333333 875 323.25 875 500 875C676.7916666666667 875 765.1666666666666 875 820.0833333333334 820.0833333333334C875 765.1666666666667 875 676.75 875 500C875 323.2083333333333 875 234.8333333333334 820.0833333333333 179.9166666666666C765.1666666666666 125 676.75 125 500 125C323.2083333333333 125 234.8333333333333 125 179.9166666666666 179.9166666666668C125 234.8333333333334 125 323.25 125 500z" />
    <glyph glyph-name="chevron-up-waves"
      unicode="&#xEA53;"
      horiz-adv-x="1000" d="M354.1666666666667 447.9166666666668L500 593.75L645.8333333333333 447.9166666666668M409.7083333333333 830C432.625 849.5833333333333 444.125 859.3333333333333 456.125 865.0416666666667A101.75 101.75 0 0 0 543.875 865.0416666666667C555.875 859.3333333333334 567.3333333333334 849.5416666666667 590.2916666666667 830A130.5 130.5 0 0 1 669.4583333333333 797.1666666666666C699.5416666666667 794.7916666666666 714.5833333333333 793.5833333333333 727.125 789.1666666666666A101.75 101.75 0 0 0 789.1666666666666 727.0833333333333C793.5833333333334 714.5833333333333 794.7916666666667 699.5833333333333 797.1666666666666 669.5A130.4166666666667 130.4166666666667 0 0 1 830 590.2916666666667C849.5833333333333 567.375 859.3333333333334 555.875 865.0416666666667 543.875C878.3333333333334 516.125 878.3333333333334 483.875 865.0416666666667 456.125C859.3333333333334 444.125 849.5416666666667 432.6666666666667 830 409.7083333333333A130.4166666666667 130.4166666666667 0 0 1 797.1666666666666 330.5416666666668C794.7916666666667 300.4583333333333 793.5833333333334 285.4166666666668 789.1666666666666 272.875A101.75 101.75 0 0 0 727.0833333333334 210.8333333333334C714.5833333333334 206.4166666666666 699.5833333333334 205.2083333333333 669.5 202.8333333333334A130.4583333333333 130.4583333333333 0 0 1 590.2916666666667 170C567.375 150.4166666666668 555.875 140.6666666666666 543.875 134.9583333333333A101.7083333333333 101.7083333333333 0 0 0 456.125 134.9583333333333C444.125 140.6666666666666 432.6666666666667 150.4583333333333 409.7083333333333 170A130.4166666666667 130.4166666666667 0 0 1 330.5416666666667 202.8333333333334C300.4583333333333 205.2083333333333 285.4166666666667 206.4166666666666 272.875 210.8333333333334A101.75 101.75 0 0 0 210.8333333333333 272.9166666666667C206.4166666666667 285.4166666666667 205.2083333333333 300.4166666666667 202.8333333333333 330.5A130.5 130.5 0 0 1 170 409.7083333333333C150.4166666666666 432.625 140.6666666666666 444.125 134.9583333333333 456.125A101.75 101.75 0 0 0 134.9583333333333 543.875C140.6666666666666 555.875 150.4583333333333 567.3333333333334 170 590.2916666666667A130.4583333333333 130.4583333333333 0 0 1 202.8333333333333 669.4583333333334C205.2083333333333 699.5416666666667 206.4166666666667 714.5833333333334 210.8333333333333 727.125A101.75 101.75 0 0 0 272.9166666666667 789.1666666666667C285.4166666666667 793.5833333333334 300.4166666666667 794.7916666666667 330.5 797.1666666666667A130.4583333333333 130.4583333333333 0 0 1 409.7083333333333 830z" />
    <glyph glyph-name="chevron-up"
      unicode="&#xEA54;"
      horiz-adv-x="1000" d="M750 375L500 625L250 375" />
    <glyph glyph-name="circle"
      unicode="&#xEA55;"
      horiz-adv-x="1000" d="M125 500A375 375 0 0 1 875 500A375 375 0 0 1 125 500" />
    <glyph glyph-name="clock-circle"
      unicode="&#xEA56;"
      horiz-adv-x="1000" d="M125 500A375 375 0 0 1 875 500A375 375 0 0 1 125 500M506.125 750V500L672.7916666666665 416.6666666666668" />
    <glyph glyph-name="clock-hand"
      unicode="&#xEA57;"
      horiz-adv-x="1000" d="M506.125 875V500L756.1249999999999 375" />
    <glyph glyph-name="clock-square"
      unicode="&#xEA58;"
      horiz-adv-x="1000" d="M506.125 750V500L672.7916666666665 416.6666666666668M125 500C125 676.7916666666667 125 765.1666666666667 179.9166666666666 820.0833333333334C234.8333333333333 875 323.25 875 500 875C676.7916666666667 875 765.1666666666666 875 820.0833333333334 820.0833333333334C875 765.1666666666667 875 676.75 875 500C875 323.2083333333333 875 234.8333333333334 820.0833333333333 179.9166666666666C765.1666666666666 125 676.75 125 500 125C323.2083333333333 125 234.8333333333333 125 179.9166666666666 179.9166666666668C125 234.8333333333334 125 323.25 125 500z" />
    <glyph glyph-name="clock-waves"
      unicode="&#xEA59;"
      horiz-adv-x="1000" d="M506.125 750V500L672.7916666666665 416.6666666666668M409.7083333333333 830C432.625 849.5833333333333 444.125 859.3333333333333 456.125 865.0416666666667A101.75 101.75 0 0 0 543.875 865.0416666666667C555.875 859.3333333333334 567.3333333333334 849.5416666666667 590.2916666666667 830A130.5 130.5 0 0 1 669.4583333333333 797.1666666666666C699.5416666666667 794.7916666666666 714.5833333333333 793.5833333333333 727.125 789.1666666666666A101.75 101.75 0 0 0 789.1666666666666 727.0833333333333C793.5833333333334 714.5833333333333 794.7916666666667 699.5833333333333 797.1666666666666 669.5A130.4166666666667 130.4166666666667 0 0 1 830 590.2916666666667C849.5833333333333 567.375 859.3333333333334 555.875 865.0416666666667 543.875C878.3333333333334 516.125 878.3333333333334 483.875 865.0416666666667 456.125C859.3333333333334 444.125 849.5416666666667 432.6666666666667 830 409.7083333333333A130.4166666666667 130.4166666666667 0 0 1 797.1666666666666 330.5416666666668C794.7916666666667 300.4583333333333 793.5833333333334 285.4166666666668 789.1666666666666 272.875A101.75 101.75 0 0 0 727.0833333333334 210.8333333333334C714.5833333333334 206.4166666666666 699.5833333333334 205.2083333333333 669.5 202.8333333333334A130.4583333333333 130.4583333333333 0 0 1 590.2916666666667 170C567.375 150.4166666666668 555.875 140.6666666666666 543.875 134.9583333333333A101.7083333333333 101.7083333333333 0 0 0 456.125 134.9583333333333C444.125 140.6666666666666 432.6666666666667 150.4583333333333 409.7083333333333 170A130.4166666666667 130.4166666666667 0 0 1 330.5416666666667 202.8333333333334C300.4583333333333 205.2083333333333 285.4166666666667 206.4166666666666 272.875 210.8333333333334A101.75 101.75 0 0 0 210.8333333333333 272.9166666666667C206.4166666666667 285.4166666666667 205.2083333333333 300.4166666666667 202.8333333333333 330.5A130.5 130.5 0 0 1 170 409.7083333333333C150.4166666666666 432.625 140.6666666666666 444.125 134.9583333333333 456.125A101.75 101.75 0 0 0 134.9583333333333 543.875C140.6666666666666 555.875 150.4583333333333 567.3333333333334 170 590.2916666666667A130.4583333333333 130.4583333333333 0 0 1 202.8333333333333 669.4583333333334C205.2083333333333 699.5416666666667 206.4166666666667 714.5833333333334 210.8333333333333 727.125A101.75 101.75 0 0 0 272.9166666666667 789.1666666666667C285.4166666666667 793.5833333333334 300.4166666666667 794.7916666666667 330.5 797.1666666666667A130.4583333333333 130.4583333333333 0 0 1 409.7083333333333 830z" />
    <glyph glyph-name="cloud-download"
      unicode="&#xEA5A;"
      horiz-adv-x="1000" d="M498.5833333333333 536L498.4166666666666 202.6666666666668M826.0416666666666 291.6666666666668C1013.3333333333331 423.3333333333334 845.8333333333334 613.75 671.625 613.75C553.9999999999999 1072.1666666666667 -136.0416666666666 693 169.75 347.4166666666667M631 299.25L498.4166666666666 166.6666666666668L365.8333333333333 299.25" />
    <glyph glyph-name="cloud-upload"
      unicode="&#xEA5B;"
      horiz-adv-x="1000" d="M498.5833333333333 166.6666666666668L498.4166666666666 500M826.0416666666666 291.6666666666668C1013.3333333333331 423.3333333333334 845.8333333333334 613.75 671.625 613.75C553.9999999999999 1072.1666666666667 -136.0416666666666 693 169.75 347.4166666666667M631 403.4166666666668L498.4166666666666 536L365.8333333333333 403.4166666666668" />
    <glyph glyph-name="code-circle"
      unicode="&#xEA5C;"
      horiz-adv-x="1000" d="M125 500A375 375 0 0 1 875 500A375 375 0 0 1 125 500M621.1666666666666 595.8333333333334L626.6666666666666 590.375C669.2499999999999 547.75 690.5833333333333 526.4583333333334 690.5833333333333 500S669.2499999999999 452.25 626.6666666666665 409.625L621.1666666666665 404.125M544.6666666666666 666.6666666666667L455.3749999999999 333.3333333333334M378.8333333333333 595.8333333333334L373.3333333333334 590.375C330.75 547.75 309.4583333333333 526.4583333333334 309.4583333333333 500S330.7083333333333 452.25 373.3333333333333 409.625L378.8333333333333 404.125" />
    <glyph glyph-name="code-square"
      unicode="&#xEA5D;"
      horiz-adv-x="1000" d="M621.1666666666666 595.8333333333334L626.6666666666666 590.375C669.2499999999999 547.75 690.5833333333333 526.4583333333334 690.5833333333333 500S669.2499999999999 452.25 626.6666666666665 409.625L621.1666666666665 404.125M544.6666666666666 666.6666666666667L455.3749999999999 333.3333333333334M378.8333333333333 595.8333333333334L373.3333333333334 590.375C330.75 547.75 309.4583333333333 526.4583333333334 309.4583333333333 500S330.7083333333333 452.25 373.3333333333333 409.625L378.8333333333333 404.125M125 500C125 676.7916666666667 125 765.1666666666667 179.9166666666666 820.0833333333334C234.8333333333333 875 323.25 875 500 875C676.7916666666667 875 765.1666666666666 875 820.0833333333334 820.0833333333334C875 765.1666666666667 875 676.75 875 500C875 323.2083333333333 875 234.8333333333334 820.0833333333333 179.9166666666666C765.1666666666666 125 676.75 125 500 125C323.2083333333333 125 234.8333333333333 125 179.9166666666666 179.9166666666668C125 234.8333333333334 125 323.25 125 500z" />
    <glyph glyph-name="code-waves"
      unicode="&#xEA5E;"
      horiz-adv-x="1000" d="M621.1666666666666 595.8333333333334L626.6666666666666 590.375C669.2499999999999 547.75 690.5833333333333 526.4583333333334 690.5833333333333 500S669.2499999999999 452.25 626.6666666666665 409.625L621.1666666666665 404.125M544.6666666666666 666.6666666666667L455.3749999999999 333.3333333333334M378.8333333333333 595.8333333333334L373.3333333333334 590.375C330.75 547.75 309.4583333333333 526.4583333333334 309.4583333333333 500S330.7083333333333 452.25 373.3333333333333 409.625L378.8333333333333 404.125M409.7083333333333 830C432.625 849.5833333333333 444.125 859.3333333333333 456.125 865.0416666666667A101.75 101.75 0 0 0 543.875 865.0416666666667C555.875 859.3333333333334 567.3333333333334 849.5416666666667 590.2916666666667 830A130.5 130.5 0 0 1 669.4583333333333 797.1666666666666C699.5416666666667 794.7916666666666 714.5833333333333 793.5833333333333 727.125 789.1666666666666A101.75 101.75 0 0 0 789.1666666666666 727.0833333333333C793.5833333333334 714.5833333333333 794.7916666666667 699.5833333333333 797.1666666666666 669.5A130.4166666666667 130.4166666666667 0 0 1 830 590.2916666666667C849.5833333333333 567.375 859.3333333333334 555.875 865.0416666666667 543.875C878.3333333333334 516.125 878.3333333333334 483.875 865.0416666666667 456.125C859.3333333333334 444.125 849.5416666666667 432.6666666666667 830 409.7083333333333A130.4166666666667 130.4166666666667 0 0 1 797.1666666666666 330.5416666666668C794.7916666666667 300.4583333333333 793.5833333333334 285.4166666666668 789.1666666666666 272.875A101.75 101.75 0 0 0 727.0833333333334 210.8333333333334C714.5833333333334 206.4166666666666 699.5833333333334 205.2083333333333 669.5 202.8333333333334A130.4583333333333 130.4583333333333 0 0 1 590.2916666666667 170C567.375 150.4166666666668 555.875 140.6666666666666 543.875 134.9583333333333A101.7083333333333 101.7083333333333 0 0 0 456.125 134.9583333333333C444.125 140.6666666666666 432.6666666666667 150.4583333333333 409.7083333333333 170A130.4166666666667 130.4166666666667 0 0 1 330.5416666666667 202.8333333333334C300.4583333333333 205.2083333333333 285.4166666666667 206.4166666666666 272.875 210.8333333333334A101.75 101.75 0 0 0 210.8333333333333 272.9166666666667C206.4166666666667 285.4166666666667 205.2083333333333 300.4166666666667 202.8333333333333 330.5A130.5 130.5 0 0 1 170 409.7083333333333C150.4166666666666 432.625 140.6666666666666 444.125 134.9583333333333 456.125A101.75 101.75 0 0 0 134.9583333333333 543.875C140.6666666666666 555.875 150.4583333333333 567.3333333333334 170 590.2916666666667A130.4583333333333 130.4583333333333 0 0 1 202.8333333333333 669.4583333333334C205.2083333333333 699.5416666666667 206.4166666666667 714.5833333333334 210.8333333333333 727.125A101.75 101.75 0 0 0 272.9166666666667 789.1666666666667C285.4166666666667 793.5833333333334 300.4166666666667 794.7916666666667 330.5 797.1666666666667A130.4583333333333 130.4583333333333 0 0 1 409.7083333333333 830z" />
    <glyph glyph-name="code"
      unicode="&#xEA5F;"
      horiz-adv-x="1000" d="M712.0833333333333 667.75L721.6666666666666 658.1666666666667C796.2083333333334 583.5833333333334 833.4583333333333 546.3333333333333 833.4583333333333 500C833.4583333333333 453.6666666666667 796.2083333333334 416.375 721.6666666666666 341.8333333333334L712.0833333333333 332.25M578.1666666666666 791.6666666666667L421.875 208.3333333333334M287.9166666666667 667.75L278.3333333333333 658.1666666666667C203.8333333333334 583.5833333333334 166.5416666666667 546.3333333333334 166.5416666666667 500C166.5416666666667 453.6666666666667 203.8333333333333 416.375 278.4166666666667 341.8333333333334L288 332.25" />
    <glyph glyph-name="cog"
      unicode="&#xEA60;"
      horiz-adv-x="1000" d="M425.625 818.75A39.3333333333333 39.3333333333333 0 0 0 464.7916666666666 854.1666666666667H535.2083333333333C555.4583333333333 854.1666666666667 572.3749999999999 838.8333333333334 574.3749999999999 818.75L575.6666666666666 805.6666666666667A312.9166666666667 312.9166666666667 0 0 0 662.5833333333333 769.625L672.7916666666665 777.9583333333334A39.3333333333333 39.3333333333333 0 0 0 725.5416666666665 775.3333333333334L775.3333333333331 725.5416666666667C789.6249999999998 711.25 790.7499999999999 688.4583333333334 777.9583333333331 672.7916666666667L769.6249999999998 662.5833333333334C785.7499999999999 635.9166666666667 797.9999999999999 606.75 805.6666666666664 575.6666666666667L818.7499999999998 574.375C838.833333333333 572.375 854.1666666666665 555.4583333333333 854.1666666666665 535.2083333333334V464.7916666666667A39.3333333333333 39.3333333333333 0 0 0 818.7499999999998 425.6250000000001L805.6666666666664 424.3333333333334A312.8333333333333 312.8333333333333 0 0 0 769.6249999999998 337.4166666666668L777.9583333333331 327.2083333333335A39.3333333333333 39.3333333333333 0 0 0 775.3333333333331 274.4583333333335L725.5416666666665 224.6666666666669A39.375 39.375 0 0 0 672.7916666666665 222.0416666666669L662.5833333333333 230.3750000000003C635.9166666666666 214.2500000000001 606.7499999999999 202.0000000000001 575.6666666666666 194.3333333333336L574.3749999999999 181.2500000000002A39.3333333333333 39.3333333333333 0 0 0 535.2083333333333 145.8333333333335H464.7916666666666A39.3333333333333 39.3333333333333 0 0 0 425.625 181.2500000000002L424.3333333333333 194.3333333333336A312.9583333333333 312.9583333333333 0 0 0 337.4166666666667 230.3750000000003L327.2083333333333 222.0416666666669A39.3333333333333 39.3333333333333 0 0 0 274.4583333333333 224.6666666666669L224.6666666666666 274.4583333333335A39.3333333333333 39.3333333333333 0 0 0 222.0416666666666 327.2083333333335L230.375 337.4166666666668A312.9166666666667 312.9166666666667 0 0 0 194.3333333333333 424.3333333333334L181.25 425.6250000000001A39.3333333333333 39.3333333333333 0 0 0 145.8333333333333 464.7916666666667V535.2083333333334C145.8333333333333 555.4583333333335 161.1666666666666 572.375 181.25 574.375L194.3333333333333 575.6666666666667A312.9166666666667 312.9166666666667 0 0 0 230.375 662.5833333333334L222.0416666666666 672.7916666666667A39.3333333333333 39.3333333333333 0 0 0 224.6666666666666 725.5416666666667L274.4583333333333 775.3333333333334A39.3333333333333 39.3333333333333 0 0 0 327.2083333333333 777.9583333333334L337.4166666666667 769.625A312.9166666666667 312.9166666666667 0 0 0 424.3333333333333 805.6666666666667L425.625 818.75zM395.8333333333333 500A104.1666666666667 104.1666666666667 0 0 0 604.1666666666666 500A104.1666666666667 104.1666666666667 0 0 0 395.8333333333333 500" />
    <glyph glyph-name="columns"
      unicode="&#xEA61;"
      horiz-adv-x="1000" d="M125 500C125 676.7916666666667 125 765.1666666666667 179.9166666666666 820.0833333333334C234.8333333333333 875 323.25 875 500 875C676.7916666666667 875 765.1666666666666 875 820.0833333333334 820.0833333333334C875 765.1666666666667 875 676.75 875 500C875 323.2083333333333 875 234.8333333333334 820.0833333333333 179.9166666666666C765.1666666666666 125 676.75 125 500 125C323.2083333333333 125 234.8333333333333 125 179.9166666666666 179.9166666666668C125 234.8333333333334 125 323.25 125 500zM500 854.1666666666667V145.8333333333334" />
    <glyph glyph-name="command"
      unicode="&#xEA62;"
      horiz-adv-x="1000" d="M604.5833333333333 709.1666666666667V290.8333333333334C604.5833333333333 199.0416666666668 719.7083333333333 153.5833333333334 783.0833333333333 216.9166666666668C846.4166666666666 280.25 801 395.4166666666667 709.125 395.4166666666667H290.875C199.0416666666666 395.4166666666667 153.5833333333333 280.2916666666667 216.9166666666666 216.9166666666668C280.25 153.5833333333334 395.4166666666666 199 395.4166666666666 290.875V709.125C395.4166666666666 800.9583333333334 280.25 846.4166666666667 216.9166666666666 783.0833333333334S199 604.5833333333334 290.875 604.5833333333334H709.1249999999999C800.9583333333333 604.5833333333334 846.4166666666666 719.75 783.0833333333331 783.0833333333334S604.5833333333333 801 604.5833333333333 709.125z" />
    <glyph glyph-name="controller"
      unicode="&#xEA63;"
      horiz-adv-x="1000" d="M312.5 520.8333333333334V395.8333333333334M250 458.3333333333334H375M500 652.2083333333333C583.5416666666666 652.2083333333333 654.1666666666666 730.875 741.0833333333334 702.7083333333333C835.4166666666666 672.1666666666666 900.25 560.5 895.5833333333333 307.2083333333333C894.6666666666666 256.2083333333333 881.5833333333334 199.7916666666666 831.1666666666666 177.7916666666665C714.625 126.9166666666665 647.9583333333333 274.7916666666665 539.5 274.7916666666665H460.4583333333333C351.9166666666667 274.7916666666665 284.9166666666667 127.0833333333333 168.875 177.7916666666665C118.4583333333333 199.7916666666665 105.3333333333333 256.2083333333333 104.4166666666667 307.2499999999999C99.7083333333333 560.4999999999998 164.5833333333334 672.1666666666665 258.9166666666667 702.7083333333331C345.7916666666667 730.875 416.4166666666667 652.2083333333334 500 652.2083333333334zM500 842.4166666666666V661.5M619.75 458.3333333333334H744.75" />
    <glyph glyph-name="copy"
      unicode="&#xEA64;"
      horiz-adv-x="1000" d="M826.9999999999999 468.125C833.3333333333333 483.4166666666667 833.3333333333333 502.8333333333334 833.3333333333333 541.6666666666667C833.3333333333333 580.5 833.3333333333333 599.9166666666667 826.9999999999999 615.2083333333334A83.3333333333333 83.3333333333333 0 0 1 781.875 660.3333333333334C766.5833333333333 666.6666666666667 747.1666666666665 666.6666666666667 708.3333333333333 666.6666666666667H466.6666666666666C419.9999999999999 666.6666666666667 396.6666666666667 666.6666666666667 378.8333333333333 657.5833333333334A83.3333333333333 83.3333333333333 0 0 1 342.4166666666666 621.1666666666667C333.3333333333333 603.3333333333334 333.3333333333333 580 333.3333333333333 533.3333333333334V291.6666666666668C333.3333333333333 252.8333333333335 333.3333333333333 233.4166666666668 339.6666666666667 218.125A83.3333333333333 83.3333333333333 0 0 1 384.7916666666667 173.0000000000001C400.0833333333333 166.6666666666668 419.5 166.6666666666668 458.3333333333333 166.6666666666668C497.1666666666666 166.6666666666668 516.5833333333333 166.6666666666668 531.875 173.0000000000001M826.9999999999999 468.1250000000001A83.3333333333333 83.3333333333333 0 0 0 781.875 423.0000000000001C766.5833333333333 416.6666666666668 747.1666666666665 416.6666666666668 708.3333333333333 416.6666666666668C669.5 416.6666666666668 650.0833333333333 416.6666666666668 634.7916666666666 410.3333333333334A83.3333333333333 83.3333333333333 0 0 1 589.6666666666666 365.2083333333334C583.3333333333333 349.9166666666668 583.3333333333333 330.5 583.3333333333333 291.6666666666668C583.3333333333333 252.8333333333335 583.3333333333333 233.4166666666668 577 218.125A83.3333333333333 83.3333333333333 0 0 0 531.875 173.0000000000001M826.9999999999999 468.1250000000001A432.5 432.5 0 0 0 539.9583333333333 175.5416666666668L531.8749999999999 173.0416666666669M666.6666666666666 666.6666666666667V700C666.6666666666666 746.6666666666667 666.6666666666666 770 657.5833333333333 787.8333333333333A83.3333333333333 83.3333333333333 0 0 1 621.1666666666666 824.25C603.3333333333334 833.3333333333334 580 833.3333333333334 533.3333333333334 833.3333333333334H300C253.3333333333333 833.3333333333334 230 833.3333333333334 212.1666666666667 824.25A83.3333333333333 83.3333333333333 0 0 1 175.75 787.8333333333334C166.6666666666667 770 166.6666666666667 746.6666666666667 166.6666666666667 700V466.6666666666666C166.6666666666667 420 166.6666666666667 396.6666666666667 175.75 378.8333333333334A83.3333333333333 83.3333333333333 0 0 1 212.1666666666666 342.4166666666667C230 333.3333333333334 253.3333333333333 333.3333333333334 300.0416666666667 333.3333333333334H333.3333333333333" />
    <glyph glyph-name="corner-down-left"
      unicode="&#xEA65;"
      horiz-adv-x="1000" d="M208.3333333333333 417.7916666666667H625A166.6666666666667 166.6666666666667 0 0 1 791.6666666666666 584.4583333333333V791.6666666666667M208.3333333333333 417.7916666666667L407.5 627.25M208.3333333333333 417.7916666666667L407.5 208.3333333333334" />
    <glyph glyph-name="corner-down-right"
      unicode="&#xEA66;"
      horiz-adv-x="1000" d="M791.6666666666666 417.7916666666667H375A166.6666666666667 166.6666666666667 0 0 0 208.3333333333333 584.4583333333333V791.6666666666667M791.6666666666666 417.7916666666667L592.4999999999999 627.25M791.6666666666666 417.7916666666667L592.5 208.3333333333334" />
    <glyph glyph-name="corner-left-down"
      unicode="&#xEA67;"
      horiz-adv-x="1000" d="M417.7916666666667 208.3333333333334V625A166.6666666666667 166.6666666666667 0 0 0 584.4583333333333 791.6666666666667H791.6666666666666M417.7916666666667 208.3333333333334L627.2916666666666 407.5000000000001M417.7916666666667 208.3333333333334L208.3333333333333 407.5" />
    <glyph glyph-name="corner-left-up"
      unicode="&#xEA68;"
      horiz-adv-x="1000" d="M417.7916666666667 791.6666666666667V375A166.6666666666667 166.6666666666667 0 0 1 584.4583333333333 208.3333333333334H791.6666666666666M417.7916666666667 791.6666666666667L627.2916666666666 592.5M417.7916666666667 791.6666666666667L208.3333333333333 592.5" />
    <glyph glyph-name="corner-right-down"
      unicode="&#xEA69;"
      horiz-adv-x="1000" d="M582.2083333333334 208.3333333333334V625A166.6666666666667 166.6666666666667 0 0 1 415.5416666666667 791.6666666666667H208.3333333333333M582.2083333333334 208.3333333333334L372.7500000000001 407.5000000000001M582.2083333333334 208.3333333333334L791.6666666666666 407.5" />
    <glyph glyph-name="corner-right-up"
      unicode="&#xEA6A;"
      horiz-adv-x="1000" d="M582.2083333333334 791.6666666666667V375A166.6666666666667 166.6666666666667 0 0 0 415.5416666666667 208.3333333333334H208.3333333333333M582.2083333333334 791.6666666666667L372.75 592.5M582.2083333333334 791.6666666666667L791.6666666666666 592.5" />
    <glyph glyph-name="corner-up-left"
      unicode="&#xEA6B;"
      horiz-adv-x="1000" d="M208.3333333333333 582.2083333333334H625A166.6666666666667 166.6666666666667 0 0 0 791.6666666666666 415.5416666666668V208.3333333333334M208.3333333333333 582.2083333333334L407.5 372.7083333333334M208.3333333333333 582.2083333333334L407.5 791.6666666666667" />
    <glyph glyph-name="corner-up-right"
      unicode="&#xEA6C;"
      horiz-adv-x="1000" d="M791.6666666666666 582.2083333333334H375A166.6666666666667 166.6666666666667 0 0 1 208.3333333333333 415.5416666666668V208.3333333333334M791.6666666666666 582.2083333333334L592.4999999999999 372.7083333333334M791.6666666666666 582.2083333333334L592.5 791.6666666666667" />
    <glyph glyph-name="danger-circle"
      unicode="&#xEA6D;"
      horiz-adv-x="1000" d="M125 500A375 375 0 0 1 875 500A375 375 0 0 1 125 500M500 697.9166666666667V468.75M499.7916666666666 333.3333333333334H500.2083333333333" />
    <glyph glyph-name="danger-square"
      unicode="&#xEA6E;"
      horiz-adv-x="1000" d="M500 697.9166666666667V468.75M499.7916666666666 333.3333333333334H500.2083333333333M125 500C125 676.7916666666667 125 765.1666666666667 179.9166666666666 820.0833333333334C234.8333333333333 875 323.25 875 500 875C676.7916666666667 875 765.1666666666666 875 820.0833333333334 820.0833333333334C875 765.1666666666667 875 676.75 875 500C875 323.2083333333333 875 234.8333333333334 820.0833333333333 179.9166666666666C765.1666666666666 125 676.75 125 500 125C323.2083333333333 125 234.8333333333333 125 179.9166666666666 179.9166666666668C125 234.8333333333334 125 323.25 125 500z" />
    <glyph glyph-name="danger-waves"
      unicode="&#xEA6F;"
      horiz-adv-x="1000" d="M500 697.9166666666667V468.75M499.7916666666666 333.3333333333334H500.2083333333333M409.7083333333333 830C432.625 849.5833333333333 444.125 859.3333333333333 456.125 865.0416666666667A101.75 101.75 0 0 0 543.875 865.0416666666667C555.875 859.3333333333334 567.3333333333334 849.5416666666667 590.2916666666667 830A130.5 130.5 0 0 1 669.4583333333333 797.1666666666666C699.5416666666667 794.7916666666666 714.5833333333333 793.5833333333333 727.125 789.1666666666666A101.75 101.75 0 0 0 789.1666666666666 727.0833333333333C793.5833333333334 714.5833333333333 794.7916666666667 699.5833333333333 797.1666666666666 669.5A130.4166666666667 130.4166666666667 0 0 1 830 590.2916666666667C849.5833333333333 567.375 859.3333333333334 555.875 865.0416666666667 543.875C878.3333333333334 516.125 878.3333333333334 483.875 865.0416666666667 456.125C859.3333333333334 444.125 849.5416666666667 432.6666666666667 830 409.7083333333333A130.4166666666667 130.4166666666667 0 0 1 797.1666666666666 330.5416666666668C794.7916666666667 300.4583333333333 793.5833333333334 285.4166666666668 789.1666666666666 272.875A101.75 101.75 0 0 0 727.0833333333334 210.8333333333334C714.5833333333334 206.4166666666666 699.5833333333334 205.2083333333333 669.5 202.8333333333334A130.4583333333333 130.4583333333333 0 0 1 590.2916666666667 170C567.375 150.4166666666668 555.875 140.6666666666666 543.875 134.9583333333333A101.7083333333333 101.7083333333333 0 0 0 456.125 134.9583333333333C444.125 140.6666666666666 432.6666666666667 150.4583333333333 409.7083333333333 170A130.4166666666667 130.4166666666667 0 0 1 330.5416666666667 202.8333333333334C300.4583333333333 205.2083333333333 285.4166666666667 206.4166666666666 272.875 210.8333333333334A101.75 101.75 0 0 0 210.8333333333333 272.9166666666667C206.4166666666667 285.4166666666667 205.2083333333333 300.4166666666667 202.8333333333333 330.5A130.5 130.5 0 0 1 170 409.7083333333333C150.4166666666666 432.625 140.6666666666666 444.125 134.9583333333333 456.125A101.75 101.75 0 0 0 134.9583333333333 543.875C140.6666666666666 555.875 150.4583333333333 567.3333333333334 170 590.2916666666667A130.4583333333333 130.4583333333333 0 0 1 202.8333333333333 669.4583333333334C205.2083333333333 699.5416666666667 206.4166666666667 714.5833333333334 210.8333333333333 727.125A101.75 101.75 0 0 0 272.9166666666667 789.1666666666667C285.4166666666667 793.5833333333334 300.4166666666667 794.7916666666667 330.5 797.1666666666667A130.4583333333333 130.4583333333333 0 0 1 409.7083333333333 830z" />
    <glyph glyph-name="danger"
      unicode="&#xEA70;"
      horiz-adv-x="1000" d="M500 750V383.3333333333334M499.7916666666666 250H500.2083333333333" />
    <glyph glyph-name="delete"
      unicode="&#xEA71;"
      horiz-adv-x="1000" d="M562.5 583.3333333333334L729.1666666666666 416.6666666666668M729.1666666666666 583.3333333333334L562.5 416.6666666666668M816.4583333333333 229.1666666666668H387.4166666666667A83.3333333333333 83.3333333333333 0 0 0 329.25 252.8333333333335L106.3333333333333 470.1666666666669A41.6666666666667 41.6666666666667 0 0 0 106.3333333333333 529.8333333333335L329.25 747.1666666666667A83.3333333333333 83.3333333333333 0 0 0 387.4166666666667 770.8333333333334H816.4583333333333C856.0416666666665 770.8333333333334 909.0833333333331 748.2916666666666 909.0833333333331 703.125V296.875C909.0833333333331 251.7083333333334 856.0416666666665 229.1666666666668 816.4583333333333 229.1666666666668z" />
    <glyph glyph-name="dots-circle"
      unicode="&#xEA72;"
      horiz-adv-x="1000" d="M125 500A375 375 0 0 1 875 500A375 375 0 0 1 125 500M333.3333333333333 500H333.75M500 500H500.4166666666666M666.6666666666666 500H667.0833333333334" />
    <glyph glyph-name="dots-square"
      unicode="&#xEA73;"
      horiz-adv-x="1000" d="M333.3333333333333 500H333.75M500 500H500.4166666666666M666.6666666666666 500H667.0833333333334M125 500C125 676.7916666666667 125 765.1666666666667 179.9166666666666 820.0833333333334C234.8333333333333 875 323.25 875 500 875C676.7916666666667 875 765.1666666666666 875 820.0833333333334 820.0833333333334C875 765.1666666666667 875 676.75 875 500C875 323.2083333333333 875 234.8333333333334 820.0833333333333 179.9166666666666C765.1666666666666 125 676.75 125 500 125C323.2083333333333 125 234.8333333333333 125 179.9166666666666 179.9166666666668C125 234.8333333333334 125 323.25 125 500z" />
    <glyph glyph-name="dots-vertical-circle"
      unicode="&#xEA74;"
      horiz-adv-x="1000" d="M125 500A375 375 0 0 1 875 500A375 375 0 0 1 125 500M500 666.6666666666667H500.4166666666666M500 500H500.4166666666666M500 333.3333333333334H500.4166666666666" />
    <glyph glyph-name="dots-vertical-square"
      unicode="&#xEA75;"
      horiz-adv-x="1000" d="M500 666.6666666666667H500.4166666666666M500 500H500.4166666666666M500 333.3333333333334H500.4166666666666M125 500C125 676.7916666666667 125 765.1666666666667 179.9166666666666 820.0833333333334C234.8333333333333 875 323.25 875 500 875C676.7916666666667 875 765.1666666666666 875 820.0833333333334 820.0833333333334C875 765.1666666666667 875 676.75 875 500C875 323.2083333333333 875 234.8333333333334 820.0833333333333 179.9166666666666C765.1666666666666 125 676.75 125 500 125C323.2083333333333 125 234.8333333333333 125 179.9166666666666 179.9166666666668C125 234.8333333333334 125 323.25 125 500z" />
    </font>
</defs>
</svg>
